<?xml version="1.0" encoding="UTF-8" standalone="no"?>
<!DOCTYPE svg PUBLIC "-//W3C//DTD SVG 1.1//EN"
 "http://www.w3.org/Graphics/SVG/1.1/DTD/svg11.dtd">
<!-- Generated by graphviz version 2.36.0 (20140111.2315)
 -->
<!-- Title: /home/travis/build/AliceO2Group/AliceO2/Framework/Core/include/Framework/ErrorContext.h Pages: 1 -->
<svg width="1949pt" height="410pt"
 viewBox="0.00 0.00 1949.42 410.00" xmlns="http://www.w3.org/2000/svg" xmlns:xlink="http://www.w3.org/1999/xlink">
<g id="graph0" class="graph" transform="scale(1 1) rotate(0) translate(4 406)">
<title>/home/travis/build/AliceO2Group/AliceO2/Framework/Core/include/Framework/ErrorContext.h</title>
<!-- Node1 -->
<g id="node1" class="node"><title>Node1</title>
<polygon fill="#bfbfbf" stroke="black" points="1589.5,-349 1589.5,-401 1724.5,-401 1724.5,-349 1589.5,-349"/>
<text text-anchor="start" x="1597.5" y="-389" font-family="Helvetica,sans-Serif" font-size="10.00">/home/travis/build</text>
<text text-anchor="start" x="1597.5" y="-378" font-family="Helvetica,sans-Serif" font-size="10.00">/AliceO2Group/AliceO2</text>
<text text-anchor="start" x="1597.5" y="-367" font-family="Helvetica,sans-Serif" font-size="10.00">/Framework/Core/include</text>
<text text-anchor="middle" x="1657" y="-356" font-family="Helvetica,sans-Serif" font-size="10.00">/Framework/ErrorContext.h</text>
</g>
<!-- Node2 -->
<g id="node2" class="node"><title>Node2</title>
<g id="a_node2"><a xlink:href="../../d6/d5c/InputRecord_8h.html" target="_top" xlink:title="Framework/InputRecord.h">
<polygon fill="none" stroke="black" points="1170,-292.5 1170,-311.5 1300,-311.5 1300,-292.5 1170,-292.5"/>
<text text-anchor="middle" x="1235" y="-299.5" font-family="Helvetica,sans-Serif" font-size="10.00">Framework/InputRecord.h</text>
</a>
</g>
</g>
<!-- Node1&#45;&gt;Node2 -->
<g id="edge1" class="edge"><title>Node1&#45;&gt;Node2</title>
<path fill="none" stroke="midnightblue" d="M1589.2,-362.593C1508.15,-348.956 1373.72,-326.339 1295.87,-313.24"/>
<polygon fill="midnightblue" stroke="midnightblue" points="1296.17,-309.743 1285.73,-311.535 1295.01,-316.646 1296.17,-309.743"/>
</g>
<!-- Node44 -->
<g id="node44" class="node"><title>Node44</title>
<polygon fill="none" stroke="#bfbfbf" points="1630.5,-236.5 1630.5,-255.5 1689.5,-255.5 1689.5,-236.5 1630.5,-236.5"/>
<text text-anchor="middle" x="1660" y="-243.5" font-family="Helvetica,sans-Serif" font-size="10.00">exception</text>
</g>
<!-- Node1&#45;&gt;Node44 -->
<g id="edge70" class="edge"><title>Node1&#45;&gt;Node44</title>
<path fill="none" stroke="midnightblue" d="M1657.59,-348.909C1658.17,-324.409 1659.04,-287.69 1659.56,-265.664"/>
<polygon fill="midnightblue" stroke="midnightblue" points="1663.06,-265.708 1659.8,-255.628 1656.06,-265.542 1663.06,-265.708"/>
</g>
<!-- Node45 -->
<g id="node45" class="node"><title>Node45</title>
<g id="a_node45"><a xlink:href="../../d8/d17/ServiceRegistry_8h.html" target="_top" xlink:title="Framework/ServiceRegistry.h">
<polygon fill="none" stroke="black" points="1685,-292.5 1685,-311.5 1831,-311.5 1831,-292.5 1685,-292.5"/>
<text text-anchor="middle" x="1758" y="-299.5" font-family="Helvetica,sans-Serif" font-size="10.00">Framework/ServiceRegistry.h</text>
</a>
</g>
</g>
<!-- Node1&#45;&gt;Node45 -->
<g id="edge63" class="edge"><title>Node1&#45;&gt;Node45</title>
<path fill="none" stroke="midnightblue" d="M1692.61,-348.968C1707.56,-338.458 1724.42,-326.603 1737.28,-317.565"/>
<polygon fill="midnightblue" stroke="midnightblue" points="1739.3,-320.424 1745.47,-311.81 1735.27,-314.697 1739.3,-320.424"/>
</g>
<!-- Node3 -->
<g id="node3" class="node"><title>Node3</title>
<g id="a_node3"><a xlink:href="../../d5/dfb/DataRef_8h.html" target="_top" xlink:title="Framework/DataRef.h">
<polygon fill="none" stroke="black" points="937.5,-124.5 937.5,-143.5 1050.5,-143.5 1050.5,-124.5 937.5,-124.5"/>
<text text-anchor="middle" x="994" y="-131.5" font-family="Helvetica,sans-Serif" font-size="10.00">Framework/DataRef.h</text>
</a>
</g>
</g>
<!-- Node2&#45;&gt;Node3 -->
<g id="edge2" class="edge"><title>Node2&#45;&gt;Node3</title>
<path fill="none" stroke="midnightblue" d="M1169.65,-295.639C1135.65,-290.077 1095.03,-278.802 1065,-256 1029.88,-229.331 1008.92,-179.861 999.662,-153.182"/>
<polygon fill="midnightblue" stroke="midnightblue" points="1002.95,-151.973 996.494,-143.572 996.301,-154.165 1002.95,-151.973"/>
</g>
<!-- Node4 -->
<g id="node4" class="node"><title>Node4</title>
<g id="a_node4"><a xlink:href="../../d5/db8/DataRefUtils_8h.html" target="_top" xlink:title="Framework/DataRefUtils.h">
<polygon fill="none" stroke="black" points="753,-180.5 753,-199.5 887,-199.5 887,-180.5 753,-180.5"/>
<text text-anchor="middle" x="820" y="-187.5" font-family="Helvetica,sans-Serif" font-size="10.00">Framework/DataRefUtils.h</text>
</a>
</g>
</g>
<!-- Node2&#45;&gt;Node4 -->
<g id="edge3" class="edge"><title>Node2&#45;&gt;Node4</title>
<path fill="none" stroke="midnightblue" d="M1178.93,-292.452C1131.82,-284.706 1062.93,-272.056 1004,-256 948.874,-240.981 886.527,-217.542 850.396,-203.294"/>
<polygon fill="midnightblue" stroke="midnightblue" points="851.514,-199.972 840.929,-199.534 848.931,-206.478 851.514,-199.972"/>
</g>
<!-- Node7 -->
<g id="node7" class="node"><title>Node7</title>
<polygon fill="none" stroke="#bfbfbf" points="952,-68.5 952,-87.5 1004,-87.5 1004,-68.5 952,-68.5"/>
<text text-anchor="middle" x="978" y="-75.5" font-family="Helvetica,sans-Serif" font-size="10.00">memory</text>
</g>
<!-- Node2&#45;&gt;Node7 -->
<g id="edge61" class="edge"><title>Node2&#45;&gt;Node7</title>
<path fill="none" stroke="midnightblue" d="M1228.4,-292.245C1202.78,-258.328 1110.46,-136.832 1093,-124 1079.98,-114.431 1042.43,-100.53 1013.74,-90.7157"/>
<polygon fill="midnightblue" stroke="midnightblue" points="1014.61,-87.3162 1004.02,-87.4285 1012.37,-93.9474 1014.61,-87.3162"/>
</g>
<!-- Node8 -->
<g id="node8" class="node"><title>Node8</title>
<polygon fill="none" stroke="#bfbfbf" points="1564.5,-68.5 1564.5,-87.5 1613.5,-87.5 1613.5,-68.5 1564.5,-68.5"/>
<text text-anchor="middle" x="1589" y="-75.5" font-family="Helvetica,sans-Serif" font-size="10.00">cassert</text>
</g>
<!-- Node2&#45;&gt;Node8 -->
<g id="edge59" class="edge"><title>Node2&#45;&gt;Node8</title>
<path fill="none" stroke="midnightblue" d="M1300.21,-294.614C1361.22,-287.61 1447.03,-274.806 1475,-256 1534.1,-216.26 1569.28,-134.479 1582.71,-97.6738"/>
<polygon fill="midnightblue" stroke="midnightblue" points="1586.17,-98.3864 1586.18,-87.7916 1579.56,-96.0652 1586.17,-98.3864"/>
</g>
<!-- Node9 -->
<g id="node9" class="node"><title>Node9</title>
<polygon fill="none" stroke="#bfbfbf" points="1612,-6.5 1612,-25.5 1658,-25.5 1658,-6.5 1612,-6.5"/>
<text text-anchor="middle" x="1635" y="-13.5" font-family="Helvetica,sans-Serif" font-size="10.00">cstring</text>
</g>
<!-- Node2&#45;&gt;Node9 -->
<g id="edge58" class="edge"><title>Node2&#45;&gt;Node9</title>
<path fill="none" stroke="midnightblue" d="M1300.01,-295.09C1367.63,-288.061 1468.25,-274.857 1502,-256 1582.11,-211.248 1588.56,-173.447 1622,-88 1628.63,-71.0574 1631.92,-50.4956 1633.53,-35.8692"/>
<polygon fill="midnightblue" stroke="midnightblue" points="1637.04,-35.8762 1634.49,-25.5942 1630.07,-35.2256 1637.04,-35.8762"/>
</g>
<!-- Node12 -->
<g id="node12" class="node"><title>Node12</title>
<polygon fill="none" stroke="#bfbfbf" points="1777.5,-6.5 1777.5,-25.5 1818.5,-25.5 1818.5,-6.5 1777.5,-6.5"/>
<text text-anchor="middle" x="1798" y="-13.5" font-family="Helvetica,sans-Serif" font-size="10.00">string</text>
</g>
<!-- Node2&#45;&gt;Node12 -->
<g id="edge56" class="edge"><title>Node2&#45;&gt;Node12</title>
<path fill="none" stroke="midnightblue" d="M1300.28,-301.492C1362.55,-299.618 1457.62,-290.529 1532,-256 1648.43,-201.954 1750.3,-79.3119 1785.18,-34.1289"/>
<polygon fill="midnightblue" stroke="midnightblue" points="1788.15,-36.0165 1791.42,-25.9411 1782.58,-31.7739 1788.15,-36.0165"/>
</g>
<!-- Node18 -->
<g id="node18" class="node"><title>Node18</title>
<polygon fill="none" stroke="#bfbfbf" points="631,-6.5 631,-25.5 693,-25.5 693,-6.5 631,-6.5"/>
<text text-anchor="middle" x="662" y="-13.5" font-family="Helvetica,sans-Serif" font-size="10.00">type_traits</text>
</g>
<!-- Node2&#45;&gt;Node18 -->
<g id="edge62" class="edge"><title>Node2&#45;&gt;Node18</title>
<path fill="none" stroke="midnightblue" d="M1224.36,-292.343C1213.65,-283.5 1196.78,-269.229 1183,-256 1124.93,-200.256 1127.25,-166.673 1059,-124 1013.23,-95.3818 994.3,-104.801 943,-88 917.087,-79.5135 911.329,-75.0929 885,-68 804.961,-46.4378 781.744,-54.6292 702,-32 698.861,-31.1091 695.619,-30.0814 692.402,-28.9901"/>
<polygon fill="midnightblue" stroke="midnightblue" points="693.552,-25.6842 682.958,-25.5992 691.187,-32.2725 693.552,-25.6842"/>
</g>
<!-- Node20 -->
<g id="node20" class="node"><title>Node20</title>
<polygon fill="none" stroke="#bfbfbf" points="68,-6.5 68,-25.5 112,-25.5 112,-6.5 68,-6.5"/>
<text text-anchor="middle" x="90" y="-13.5" font-family="Helvetica,sans-Serif" font-size="10.00">vector</text>
</g>
<!-- Node2&#45;&gt;Node20 -->
<g id="edge57" class="edge"><title>Node2&#45;&gt;Node20</title>
<path fill="none" stroke="midnightblue" d="M1169.91,-298.647C915.191,-289.019 0,-250.297 0,-191 0,-191 0,-191 0,-133 0,-102.902 1.60691,-92.5633 19,-68 30.2577,-52.1013 48.0759,-39.3243 63.0455,-30.5355"/>
<polygon fill="midnightblue" stroke="midnightblue" points="64.8872,-33.5158 71.9139,-25.5863 61.476,-27.4032 64.8872,-33.5158"/>
</g>
<!-- Node34 -->
<g id="node34" class="node"><title>Node34</title>
<g id="a_node34"><a xlink:href="../../d0/d95/TypeTraits_8h.html" target="_top" xlink:title="Framework/TypeTraits.h">
<polygon fill="none" stroke="black" points="28.5,-68.5 28.5,-87.5 151.5,-87.5 151.5,-68.5 28.5,-68.5"/>
<text text-anchor="middle" x="90" y="-75.5" font-family="Helvetica,sans-Serif" font-size="10.00">Framework/TypeTraits.h</text>
</a>
</g>
</g>
<!-- Node2&#45;&gt;Node34 -->
<g id="edge54" class="edge"><title>Node2&#45;&gt;Node34</title>
<path fill="none" stroke="midnightblue" d="M1169.76,-300.166C1002.46,-296.137 546.586,-273.164 195,-144 162.219,-131.957 128.642,-108.922 108.555,-93.7604"/>
<polygon fill="midnightblue" stroke="midnightblue" points="110.628,-90.9388 100.57,-87.6076 106.355,-96.4837 110.628,-90.9388"/>
</g>
<!-- Node38 -->
<g id="node38" class="node"><title>Node38</title>
<g id="a_node38"><a xlink:href="../../d5/d19/InputRoute_8h.html" target="_top" xlink:title="Framework/InputRoute.h">
<polygon fill="none" stroke="black" points="1341.5,-236.5 1341.5,-255.5 1466.5,-255.5 1466.5,-236.5 1341.5,-236.5"/>
<text text-anchor="middle" x="1404" y="-243.5" font-family="Helvetica,sans-Serif" font-size="10.00">Framework/InputRoute.h</text>
</a>
</g>
</g>
<!-- Node2&#45;&gt;Node38 -->
<g id="edge46" class="edge"><title>Node2&#45;&gt;Node38</title>
<path fill="none" stroke="midnightblue" d="M1261.78,-292.444C1290.33,-283.32 1335.73,-268.813 1367.54,-258.651"/>
<polygon fill="midnightblue" stroke="midnightblue" points="1368.89,-261.894 1377.35,-255.516 1366.76,-255.226 1368.89,-261.894"/>
</g>
<!-- Node43 -->
<g id="node43" class="node"><title>Node43</title>
<polygon fill="none" stroke="#bfbfbf" points="1211.5,-236.5 1211.5,-255.5 1258.5,-255.5 1258.5,-236.5 1211.5,-236.5"/>
<text text-anchor="middle" x="1235" y="-243.5" font-family="Helvetica,sans-Serif" font-size="10.00">iterator</text>
</g>
<!-- Node2&#45;&gt;Node43 -->
<g id="edge55" class="edge"><title>Node2&#45;&gt;Node43</title>
<path fill="none" stroke="midnightblue" d="M1235,-292.083C1235,-285.006 1235,-274.861 1235,-265.986"/>
<polygon fill="midnightblue" stroke="midnightblue" points="1238.5,-265.751 1235,-255.751 1231.5,-265.751 1238.5,-265.751"/>
</g>
<!-- Node2&#45;&gt;Node44 -->
<g id="edge60" class="edge"><title>Node2&#45;&gt;Node44</title>
<path fill="none" stroke="midnightblue" d="M1300.29,-294.977C1376.35,-287.569 1505.69,-273.764 1616,-256 1617.44,-255.768 1618.91,-255.521 1620.39,-255.263"/>
<polygon fill="midnightblue" stroke="midnightblue" points="1621.04,-258.702 1630.24,-253.441 1619.77,-251.819 1621.04,-258.702"/>
</g>
<!-- Node4&#45;&gt;Node3 -->
<g id="edge4" class="edge"><title>Node4&#45;&gt;Node3</title>
<path fill="none" stroke="midnightblue" d="M847.571,-180.444C877.097,-171.28 924.118,-156.688 956.883,-146.519"/>
<polygon fill="midnightblue" stroke="midnightblue" points="958.045,-149.823 966.558,-143.516 955.97,-143.138 958.045,-149.823"/>
</g>
<!-- Node5 -->
<g id="node5" class="node"><title>Node5</title>
<g id="a_node5"><a xlink:href="../../dc/dcd/DataHeader_8h.html" target="_top" xlink:title="Headers/DataHeader.h">
<polygon fill="none" stroke="black" points="1183.5,-124.5 1183.5,-143.5 1300.5,-143.5 1300.5,-124.5 1183.5,-124.5"/>
<text text-anchor="middle" x="1242" y="-131.5" font-family="Helvetica,sans-Serif" font-size="10.00">Headers/DataHeader.h</text>
</a>
</g>
</g>
<!-- Node4&#45;&gt;Node5 -->
<g id="edge5" class="edge"><title>Node4&#45;&gt;Node5</title>
<path fill="none" stroke="midnightblue" d="M886.867,-180.444C965.048,-170.439 1093.8,-153.964 1172.92,-143.84"/>
<polygon fill="midnightblue" stroke="midnightblue" points="1173.79,-147.257 1183.27,-142.515 1172.9,-140.313 1173.79,-147.257"/>
</g>
<!-- Node11 -->
<g id="node11" class="node"><title>Node11</title>
<polygon fill="none" stroke="#bfbfbf" points="1022.5,-68.5 1022.5,-87.5 1081.5,-87.5 1081.5,-68.5 1022.5,-68.5"/>
<text text-anchor="middle" x="1052" y="-75.5" font-family="Helvetica,sans-Serif" font-size="10.00">stdexcept</text>
</g>
<!-- Node4&#45;&gt;Node11 -->
<g id="edge42" class="edge"><title>Node4&#45;&gt;Node11</title>
<path fill="none" stroke="midnightblue" d="M832.519,-180.363C852.196,-167.046 891.852,-141.237 928,-124 955.979,-110.658 989.036,-98.8451 1013.98,-90.6738"/>
<polygon fill="midnightblue" stroke="midnightblue" points="1015.35,-93.9095 1023.79,-87.5092 1013.2,-87.2473 1015.35,-93.9095"/>
</g>
<!-- Node4&#45;&gt;Node18 -->
<g id="edge44" class="edge"><title>Node4&#45;&gt;Node18</title>
<path fill="none" stroke="midnightblue" d="M828.479,-180.473C848.463,-159.349 894.734,-103.725 866,-68 819.23,-9.85028 773.563,-53.155 702,-32 698.871,-31.0749 695.635,-30.0247 692.423,-28.9197"/>
<polygon fill="midnightblue" stroke="midnightblue" points="693.578,-25.6156 682.983,-25.5107 691.2,-32.1994 693.578,-25.6156"/>
</g>
<!-- Node24 -->
<g id="node24" class="node"><title>Node24</title>
<g id="a_node24"><a xlink:href="../../d8/d3c/TMessageSerializer_8h.html" target="_top" xlink:title="Framework/TMessageSerializer.h">
<polygon fill="none" stroke="black" points="471.5,-124.5 471.5,-143.5 634.5,-143.5 634.5,-124.5 471.5,-124.5"/>
<text text-anchor="middle" x="553" y="-131.5" font-family="Helvetica,sans-Serif" font-size="10.00">Framework/TMessageSerializer.h</text>
</a>
</g>
</g>
<!-- Node4&#45;&gt;Node24 -->
<g id="edge26" class="edge"><title>Node4&#45;&gt;Node24</title>
<path fill="none" stroke="midnightblue" d="M777.693,-180.444C730.92,-170.984 655.54,-155.738 605.15,-145.547"/>
<polygon fill="midnightblue" stroke="midnightblue" points="605.604,-142.068 595.109,-143.516 604.217,-148.929 605.604,-142.068"/>
</g>
<!-- Node33 -->
<g id="node33" class="node"><title>Node33</title>
<g id="a_node33"><a xlink:href="../../d1/d53/SerializationMethods_8h.html" target="_top" xlink:title="Type wrappers for enfording a specific serialization method. ">
<polygon fill="none" stroke="black" points="270.5,-124.5 270.5,-143.5 437.5,-143.5 437.5,-124.5 270.5,-124.5"/>
<text text-anchor="middle" x="354" y="-131.5" font-family="Helvetica,sans-Serif" font-size="10.00">Framework/SerializationMethods.h</text>
</a>
</g>
</g>
<!-- Node4&#45;&gt;Node33 -->
<g id="edge36" class="edge"><title>Node4&#45;&gt;Node33</title>
<path fill="none" stroke="midnightblue" d="M752.737,-181.206C669.492,-171.559 527.727,-155.131 437.579,-144.685"/>
<polygon fill="midnightblue" stroke="midnightblue" points="437.729,-141.179 427.392,-143.505 436.923,-148.133 437.729,-141.179"/>
</g>
<!-- Node4&#45;&gt;Node34 -->
<g id="edge40" class="edge"><title>Node4&#45;&gt;Node34</title>
<path fill="none" stroke="midnightblue" d="M752.827,-189.673C646.929,-189.381 435.284,-183.301 261,-144 208.214,-132.097 149.949,-107.247 116.878,-91.9558"/>
<polygon fill="midnightblue" stroke="midnightblue" points="117.997,-88.6153 107.457,-87.542 115.027,-94.9541 117.997,-88.6153"/>
</g>
<!-- Node35 -->
<g id="node35" class="node"><title>Node35</title>
<polygon fill="none" stroke="#bfbfbf" points="653,-124.5 653,-143.5 709,-143.5 709,-124.5 653,-124.5"/>
<text text-anchor="middle" x="681" y="-131.5" font-family="Helvetica,sans-Serif" font-size="10.00">TClass.h</text>
</g>
<!-- Node4&#45;&gt;Node35 -->
<g id="edge41" class="edge"><title>Node4&#45;&gt;Node35</title>
<path fill="none" stroke="midnightblue" d="M797.975,-180.444C774.896,-171.478 738.438,-157.314 712.359,-147.183"/>
<polygon fill="midnightblue" stroke="midnightblue" points="713.511,-143.875 702.922,-143.516 710.976,-150.4 713.511,-143.875"/>
</g>
<!-- Node36 -->
<g id="node36" class="node"><title>Node36</title>
<polygon fill="none" stroke="#bfbfbf" points="727,-124.5 727,-143.5 779,-143.5 779,-124.5 727,-124.5"/>
<text text-anchor="middle" x="753" y="-131.5" font-family="Helvetica,sans-Serif" font-size="10.00">sstream</text>
</g>
<!-- Node4&#45;&gt;Node36 -->
<g id="edge43" class="edge"><title>Node4&#45;&gt;Node36</title>
<path fill="none" stroke="midnightblue" d="M809.235,-180.324C799.234,-172.263 784.113,-160.077 772.07,-150.369"/>
<polygon fill="midnightblue" stroke="midnightblue" points="773.943,-147.384 763.961,-143.834 769.55,-152.834 773.943,-147.384"/>
</g>
<!-- Node37 -->
<g id="node37" class="node"><title>Node37</title>
<polygon fill="none" stroke="#bfbfbf" points="797.5,-124.5 797.5,-143.5 842.5,-143.5 842.5,-124.5 797.5,-124.5"/>
<text text-anchor="middle" x="820" y="-131.5" font-family="Helvetica,sans-Serif" font-size="10.00">gsl/gsl</text>
</g>
<!-- Node4&#45;&gt;Node37 -->
<g id="edge45" class="edge"><title>Node4&#45;&gt;Node37</title>
<path fill="none" stroke="midnightblue" d="M820,-180.083C820,-173.006 820,-162.861 820,-153.986"/>
<polygon fill="midnightblue" stroke="midnightblue" points="823.5,-153.751 820,-143.751 816.5,-153.751 823.5,-153.751"/>
</g>
<!-- Node6 -->
<g id="node6" class="node"><title>Node6</title>
<polygon fill="none" stroke="#bfbfbf" points="1212,-68.5 1212,-87.5 1258,-87.5 1258,-68.5 1212,-68.5"/>
<text text-anchor="middle" x="1235" y="-75.5" font-family="Helvetica,sans-Serif" font-size="10.00">cstdint</text>
</g>
<!-- Node5&#45;&gt;Node6 -->
<g id="edge6" class="edge"><title>Node5&#45;&gt;Node6</title>
<path fill="none" stroke="midnightblue" d="M1240.84,-124.083C1239.92,-116.927 1238.58,-106.635 1237.42,-97.6911"/>
<polygon fill="midnightblue" stroke="midnightblue" points="1240.89,-97.2181 1236.13,-87.7511 1233.95,-98.1181 1240.89,-97.2181"/>
</g>
<!-- Node5&#45;&gt;Node7 -->
<g id="edge7" class="edge"><title>Node5&#45;&gt;Node7</title>
<path fill="none" stroke="midnightblue" d="M1194.47,-124.486C1150.21,-116.373 1082.18,-103.434 1014.34,-88.2077"/>
<polygon fill="midnightblue" stroke="midnightblue" points="1014.86,-84.737 1004.33,-85.9449 1013.32,-91.5646 1014.86,-84.737"/>
</g>
<!-- Node5&#45;&gt;Node8 -->
<g id="edge8" class="edge"><title>Node5&#45;&gt;Node8</title>
<path fill="none" stroke="midnightblue" d="M1300.71,-125.006C1376.3,-114.611 1503.46,-96.754 1550,-88 1551.45,-87.727 1552.93,-87.4373 1554.42,-87.1356"/>
<polygon fill="midnightblue" stroke="midnightblue" points="1555.26,-90.5355 1564.31,-85.019 1553.8,-83.6906 1555.26,-90.5355"/>
</g>
<!-- Node5&#45;&gt;Node9 -->
<g id="edge9" class="edge"><title>Node5&#45;&gt;Node9</title>
<path fill="none" stroke="midnightblue" d="M1294.65,-124.463C1353.41,-114.671 1444.61,-98.6055 1478,-88 1498.47,-81.4978 1502.41,-76.8066 1522,-68 1557.93,-51.8489 1567.16,-48.3612 1603,-32 1604.4,-31.363 1605.82,-30.7073 1607.26,-30.0427"/>
<polygon fill="midnightblue" stroke="midnightblue" points="1609.16,-33.0205 1616.75,-25.6304 1606.21,-26.6732 1609.16,-33.0205"/>
</g>
<!-- Node10 -->
<g id="node10" class="node"><title>Node10</title>
<polygon fill="none" stroke="#bfbfbf" points="1138,-68.5 1138,-87.5 1194,-87.5 1194,-68.5 1138,-68.5"/>
<text text-anchor="middle" x="1166" y="-75.5" font-family="Helvetica,sans-Serif" font-size="10.00">algorithm</text>
</g>
<!-- Node5&#45;&gt;Node10 -->
<g id="edge10" class="edge"><title>Node5&#45;&gt;Node10</title>
<path fill="none" stroke="midnightblue" d="M1229.79,-124.324C1218.22,-116.107 1200.62,-103.602 1186.84,-93.8069"/>
<polygon fill="midnightblue" stroke="midnightblue" points="1188.61,-90.7729 1178.43,-87.8339 1184.56,-96.4791 1188.61,-90.7729"/>
</g>
<!-- Node5&#45;&gt;Node11 -->
<g id="edge11" class="edge"><title>Node5&#45;&gt;Node11</title>
<path fill="none" stroke="midnightblue" d="M1211.89,-124.444C1179.28,-115.174 1127.12,-100.349 1091.29,-90.1675"/>
<polygon fill="midnightblue" stroke="midnightblue" points="1092.23,-86.7948 1081.65,-87.4275 1090.31,-93.5281 1092.23,-86.7948"/>
</g>
<!-- Node5&#45;&gt;Node12 -->
<g id="edge12" class="edge"><title>Node5&#45;&gt;Node12</title>
<path fill="none" stroke="midnightblue" d="M1298.89,-124.486C1372.55,-113.325 1493.91,-94.4116 1514,-88 1533.32,-81.8363 1535.7,-74.1973 1555,-68 1646.41,-38.6532 1676.73,-61.7945 1768,-32 1769.91,-31.3766 1771.85,-30.6487 1773.78,-29.856"/>
<polygon fill="midnightblue" stroke="midnightblue" points="1775.51,-32.9124 1783.11,-25.5337 1772.56,-26.5606 1775.51,-32.9124"/>
</g>
<!-- Node13 -->
<g id="node13" class="node"><title>Node13</title>
<g id="a_node13"><a xlink:href="../../dc/d03/MemoryResources_8h.html" target="_top" xlink:title="MemoryResources/MemoryResources.h">
<polygon fill="none" stroke="black" points="1276.5,-68.5 1276.5,-87.5 1469.5,-87.5 1469.5,-68.5 1276.5,-68.5"/>
<text text-anchor="middle" x="1373" y="-75.5" font-family="Helvetica,sans-Serif" font-size="10.00">MemoryResources/MemoryResources.h</text>
</a>
</g>
</g>
<!-- Node5&#45;&gt;Node13 -->
<g id="edge13" class="edge"><title>Node5&#45;&gt;Node13</title>
<path fill="none" stroke="midnightblue" d="M1262.76,-124.444C1284.32,-115.557 1318.26,-101.563 1342.79,-91.4514"/>
<polygon fill="midnightblue" stroke="midnightblue" points="1344.43,-94.5634 1352.34,-87.5164 1341.76,-88.0917 1344.43,-94.5634"/>
</g>
<!-- Node13&#45;&gt;Node9 -->
<g id="edge18" class="edge"><title>Node13&#45;&gt;Node9</title>
<path fill="none" stroke="midnightblue" d="M1439.02,-68.4753C1485.6,-61.4054 1549.05,-49.6267 1603,-32 1605.13,-31.3033 1607.31,-30.4997 1609.47,-29.6338"/>
<polygon fill="midnightblue" stroke="midnightblue" points="1610.96,-32.8044 1618.71,-25.5785 1608.14,-26.3953 1610.96,-32.8044"/>
</g>
<!-- Node13&#45;&gt;Node12 -->
<g id="edge19" class="edge"><title>Node13&#45;&gt;Node12</title>
<path fill="none" stroke="midnightblue" d="M1469.71,-69.8724C1568.24,-61.9158 1713.99,-48.0311 1768,-32 1769.97,-31.4159 1771.96,-30.7083 1773.94,-29.9222"/>
<polygon fill="midnightblue" stroke="midnightblue" points="1775.84,-32.9005 1783.47,-25.5468 1772.92,-26.5391 1775.84,-32.9005"/>
</g>
<!-- Node14 -->
<g id="node14" class="node"><title>Node14</title>
<polygon fill="none" stroke="#bfbfbf" points="1494,-1 1494,-31 1594,-31 1594,-1 1494,-1"/>
<text text-anchor="start" x="1502" y="-19" font-family="Helvetica,sans-Serif" font-size="10.00">boost/container/flat</text>
<text text-anchor="middle" x="1544" y="-8" font-family="Helvetica,sans-Serif" font-size="10.00">_map.hpp</text>
</g>
<!-- Node13&#45;&gt;Node14 -->
<g id="edge14" class="edge"><title>Node13&#45;&gt;Node14</title>
<path fill="none" stroke="midnightblue" d="M1397.5,-68.4035C1422.69,-59.5644 1462.62,-45.553 1494.44,-34.3895"/>
<polygon fill="midnightblue" stroke="midnightblue" points="1495.75,-37.6389 1504.03,-31.0253 1493.43,-31.0337 1495.75,-37.6389"/>
</g>
<!-- Node15 -->
<g id="node15" class="node"><title>Node15</title>
<polygon fill="none" stroke="#bfbfbf" points="711,-1 711,-31 827,-31 827,-1 711,-1"/>
<text text-anchor="start" x="719" y="-19" font-family="Helvetica,sans-Serif" font-size="10.00">boost/container/pmr</text>
<text text-anchor="middle" x="769" y="-8" font-family="Helvetica,sans-Serif" font-size="10.00">/memory_resource.hpp</text>
</g>
<!-- Node13&#45;&gt;Node15 -->
<g id="edge15" class="edge"><title>Node13&#45;&gt;Node15</title>
<path fill="none" stroke="midnightblue" d="M1276.24,-68.7788C1273.12,-68.5159 1270.04,-68.2557 1267,-68 1078.73,-52.1445 1027.74,-60.7588 837.086,-32.0308"/>
<polygon fill="midnightblue" stroke="midnightblue" points="837.425,-28.5423 827.013,-30.4981 836.372,-35.4626 837.425,-28.5423"/>
</g>
<!-- Node16 -->
<g id="node16" class="node"><title>Node16</title>
<polygon fill="none" stroke="#bfbfbf" points="845,-1 845,-31 1001,-31 1001,-1 845,-1"/>
<text text-anchor="start" x="853" y="-19" font-family="Helvetica,sans-Serif" font-size="10.00">boost/container/pmr</text>
<text text-anchor="middle" x="923" y="-8" font-family="Helvetica,sans-Serif" font-size="10.00">/monotonic_buffer_resource.hpp</text>
</g>
<!-- Node13&#45;&gt;Node16 -->
<g id="edge16" class="edge"><title>Node13&#45;&gt;Node16</title>
<path fill="none" stroke="midnightblue" d="M1295.67,-68.4891C1224.38,-60.3969 1115.38,-47.4036 1011.28,-32.1505"/>
<polygon fill="midnightblue" stroke="midnightblue" points="1011.63,-28.6638 1001.23,-30.6674 1010.61,-35.5889 1011.63,-28.6638"/>
</g>
<!-- Node17 -->
<g id="node17" class="node"><title>Node17</title>
<polygon fill="none" stroke="#bfbfbf" points="1019.5,-1 1019.5,-31 1152.5,-31 1152.5,-1 1019.5,-1"/>
<text text-anchor="start" x="1027.5" y="-19" font-family="Helvetica,sans-Serif" font-size="10.00">boost/container/pmr</text>
<text text-anchor="middle" x="1086" y="-8" font-family="Helvetica,sans-Serif" font-size="10.00">/polymorphic_allocator.hpp</text>
</g>
<!-- Node13&#45;&gt;Node17 -->
<g id="edge17" class="edge"><title>Node13&#45;&gt;Node17</title>
<path fill="none" stroke="midnightblue" d="M1332.18,-68.4672C1288.19,-59.269 1217.14,-44.4166 1162.66,-33.0256"/>
<polygon fill="midnightblue" stroke="midnightblue" points="1163.19,-29.5616 1152.68,-30.9411 1161.76,-36.4135 1163.19,-29.5616"/>
</g>
<!-- Node13&#45;&gt;Node18 -->
<g id="edge20" class="edge"><title>Node13&#45;&gt;Node18</title>
<path fill="none" stroke="midnightblue" d="M1276.24,-68.7003C1273.13,-68.4599 1270.04,-68.2258 1267,-68 1016.07,-49.3553 948.029,-84.7482 702,-32 698.302,-31.2071 694.489,-30.1347 690.755,-28.9258"/>
<polygon fill="midnightblue" stroke="midnightblue" points="691.78,-25.5753 681.185,-25.5048 689.424,-32.1668 691.78,-25.5753"/>
</g>
<!-- Node19 -->
<g id="node19" class="node"><title>Node19</title>
<polygon fill="none" stroke="#bfbfbf" points="1171,-6.5 1171,-25.5 1211,-25.5 1211,-6.5 1171,-6.5"/>
<text text-anchor="middle" x="1191" y="-13.5" font-family="Helvetica,sans-Serif" font-size="10.00">utility</text>
</g>
<!-- Node13&#45;&gt;Node19 -->
<g id="edge21" class="edge"><title>Node13&#45;&gt;Node19</title>
<path fill="none" stroke="midnightblue" d="M1336.79,-68.4374C1305.37,-60.5164 1258.93,-47.625 1220,-32 1218.41,-31.3613 1216.79,-30.6641 1215.17,-29.9311"/>
<polygon fill="midnightblue" stroke="midnightblue" points="1216.62,-26.7432 1206.09,-25.5006 1213.55,-33.0334 1216.62,-26.7432"/>
</g>
<!-- Node13&#45;&gt;Node20 -->
<g id="edge22" class="edge"><title>Node13&#45;&gt;Node20</title>
<path fill="none" stroke="midnightblue" d="M1276.25,-68.6191C1273.13,-68.4021 1270.04,-68.1949 1267,-68 813.396,-38.9283 260.363,-21.8976 122.358,-17.9105"/>
<polygon fill="midnightblue" stroke="midnightblue" points="122.165,-14.4037 112.069,-17.6153 121.964,-21.4008 122.165,-14.4037"/>
</g>
<!-- Node21 -->
<g id="node21" class="node"><title>Node21</title>
<polygon fill="none" stroke="#bfbfbf" points="1676.5,-6.5 1676.5,-25.5 1759.5,-25.5 1759.5,-6.5 1676.5,-6.5"/>
<text text-anchor="middle" x="1718" y="-13.5" font-family="Helvetica,sans-Serif" font-size="10.00">unordered_map</text>
</g>
<!-- Node13&#45;&gt;Node21 -->
<g id="edge23" class="edge"><title>Node13&#45;&gt;Node21</title>
<path fill="none" stroke="midnightblue" d="M1446.91,-68.4789C1506.67,-60.9206 1592.78,-48.5162 1667,-32 1671.76,-30.9406 1676.73,-29.6794 1681.62,-28.3449"/>
<polygon fill="midnightblue" stroke="midnightblue" points="1682.79,-31.6513 1691.44,-25.5438 1680.87,-24.9194 1682.79,-31.6513"/>
</g>
<!-- Node22 -->
<g id="node22" class="node"><title>Node22</title>
<polygon fill="none" stroke="#bfbfbf" points="1229.5,-6.5 1229.5,-25.5 1326.5,-25.5 1326.5,-6.5 1229.5,-6.5"/>
<text text-anchor="middle" x="1278" y="-13.5" font-family="Helvetica,sans-Serif" font-size="10.00">FairMQMessage.h</text>
</g>
<!-- Node13&#45;&gt;Node22 -->
<g id="edge24" class="edge"><title>Node13&#45;&gt;Node22</title>
<path fill="none" stroke="midnightblue" d="M1359.39,-68.4035C1343.94,-58.646 1318.51,-42.5854 1300.18,-31.0109"/>
<polygon fill="midnightblue" stroke="midnightblue" points="1301.91,-27.9613 1291.59,-25.5806 1298.17,-33.8798 1301.91,-27.9613"/>
</g>
<!-- Node23 -->
<g id="node23" class="node"><title>Node23</title>
<polygon fill="none" stroke="#bfbfbf" points="1344.5,-6.5 1344.5,-25.5 1475.5,-25.5 1475.5,-6.5 1344.5,-6.5"/>
<text text-anchor="middle" x="1410" y="-13.5" font-family="Helvetica,sans-Serif" font-size="10.00">FairMQTransportFactory.h</text>
</g>
<!-- Node13&#45;&gt;Node23 -->
<g id="edge25" class="edge"><title>Node13&#45;&gt;Node23</title>
<path fill="none" stroke="midnightblue" d="M1378.3,-68.4035C1383.8,-59.4925 1392.53,-45.3247 1399.44,-34.1177"/>
<polygon fill="midnightblue" stroke="midnightblue" points="1402.44,-35.9294 1404.71,-25.5806 1396.48,-32.2552 1402.44,-35.9294"/>
</g>
<!-- Node24&#45;&gt;Node7 -->
<g id="edge34" class="edge"><title>Node24&#45;&gt;Node7</title>
<path fill="none" stroke="midnightblue" d="M620.343,-124.444C711.176,-112.902 869.79,-92.749 941.25,-83.6694"/>
<polygon fill="midnightblue" stroke="midnightblue" points="942.066,-87.094 951.545,-82.3614 941.183,-80.1498 942.066,-87.094"/>
</g>
<!-- Node25 -->
<g id="node25" class="node"><title>Node25</title>
<polygon fill="none" stroke="#bfbfbf" points="489.5,-68.5 489.5,-87.5 616.5,-87.5 616.5,-68.5 489.5,-68.5"/>
<text text-anchor="middle" x="553" y="-75.5" font-family="Helvetica,sans-Serif" font-size="10.00">fairmq/FairMQMessage.h</text>
</g>
<!-- Node24&#45;&gt;Node25 -->
<g id="edge27" class="edge"><title>Node24&#45;&gt;Node25</title>
<path fill="none" stroke="midnightblue" d="M553,-124.083C553,-117.006 553,-106.861 553,-97.9865"/>
<polygon fill="midnightblue" stroke="midnightblue" points="556.5,-97.751 553,-87.7511 549.5,-97.7511 556.5,-97.751"/>
</g>
<!-- Node26 -->
<g id="node26" class="node"><title>Node26</title>
<polygon fill="none" stroke="#bfbfbf" points="634.5,-68.5 634.5,-87.5 681.5,-87.5 681.5,-68.5 634.5,-68.5"/>
<text text-anchor="middle" x="658" y="-75.5" font-family="Helvetica,sans-Serif" font-size="10.00">TList.h</text>
</g>
<!-- Node24&#45;&gt;Node26 -->
<g id="edge28" class="edge"><title>Node24&#45;&gt;Node26</title>
<path fill="none" stroke="midnightblue" d="M569.87,-124.324C586.709,-115.664 612.807,-102.242 632.238,-92.249"/>
<polygon fill="midnightblue" stroke="midnightblue" points="633.88,-95.3405 641.172,-87.6545 630.678,-89.1155 633.88,-95.3405"/>
</g>
<!-- Node27 -->
<g id="node27" class="node"><title>Node27</title>
<polygon fill="none" stroke="#bfbfbf" points="699.5,-68.5 699.5,-87.5 770.5,-87.5 770.5,-68.5 699.5,-68.5"/>
<text text-anchor="middle" x="735" y="-75.5" font-family="Helvetica,sans-Serif" font-size="10.00">TMessage.h</text>
</g>
<!-- Node24&#45;&gt;Node27 -->
<g id="edge29" class="edge"><title>Node24&#45;&gt;Node27</title>
<path fill="none" stroke="midnightblue" d="M581.838,-124.444C612.856,-115.241 662.329,-100.562 696.618,-90.3879"/>
<polygon fill="midnightblue" stroke="midnightblue" points="697.705,-93.7164 706.296,-87.5164 695.714,-87.0055 697.705,-93.7164"/>
</g>
<!-- Node28 -->
<g id="node28" class="node"><title>Node28</title>
<polygon fill="none" stroke="#bfbfbf" points="788.5,-68.5 788.5,-87.5 857.5,-87.5 857.5,-68.5 788.5,-68.5"/>
<text text-anchor="middle" x="823" y="-75.5" font-family="Helvetica,sans-Serif" font-size="10.00">TObjArray.h</text>
</g>
<!-- Node24&#45;&gt;Node28 -->
<g id="edge30" class="edge"><title>Node24&#45;&gt;Node28</title>
<path fill="none" stroke="midnightblue" d="M596.339,-124.44C639.799,-115.841 708.913,-102.124 778.584,-88.0756"/>
<polygon fill="midnightblue" stroke="midnightblue" points="779.306,-91.5006 788.416,-86.0917 777.922,-84.6389 779.306,-91.5006"/>
</g>
<!-- Node29 -->
<g id="node29" class="node"><title>Node29</title>
<polygon fill="none" stroke="#bfbfbf" points="169.5,-68.5 169.5,-87.5 256.5,-87.5 256.5,-68.5 169.5,-68.5"/>
<text text-anchor="middle" x="213" y="-75.5" font-family="Helvetica,sans-Serif" font-size="10.00">TStreamerInfo.h</text>
</g>
<!-- Node24&#45;&gt;Node29 -->
<g id="edge31" class="edge"><title>Node24&#45;&gt;Node29</title>
<path fill="none" stroke="midnightblue" d="M496.667,-124.477C440.734,-115.952 352.262,-102.297 266.576,-88.2408"/>
<polygon fill="midnightblue" stroke="midnightblue" points="267.119,-84.7832 256.684,-86.6141 265.984,-91.6904 267.119,-84.7832"/>
</g>
<!-- Node30 -->
<g id="node30" class="node"><title>Node30</title>
<polygon fill="none" stroke="#bfbfbf" points="274.5,-68.5 274.5,-87.5 337.5,-87.5 337.5,-68.5 274.5,-68.5"/>
<text text-anchor="middle" x="306" y="-75.5" font-family="Helvetica,sans-Serif" font-size="10.00">gsl/gsl_util</text>
</g>
<!-- Node24&#45;&gt;Node30 -->
<g id="edge32" class="edge"><title>Node24&#45;&gt;Node30</title>
<path fill="none" stroke="midnightblue" d="M513.298,-124.459C473.731,-115.926 410.956,-102.336 347.978,-88.4273"/>
<polygon fill="midnightblue" stroke="midnightblue" points="348.392,-84.9344 337.872,-86.1931 346.881,-91.7694 348.392,-84.9344"/>
</g>
<!-- Node31 -->
<g id="node31" class="node"><title>Node31</title>
<polygon fill="none" stroke="#bfbfbf" points="355.5,-68.5 355.5,-87.5 408.5,-87.5 408.5,-68.5 355.5,-68.5"/>
<text text-anchor="middle" x="382" y="-75.5" font-family="Helvetica,sans-Serif" font-size="10.00">gsl/span</text>
</g>
<!-- Node24&#45;&gt;Node31 -->
<g id="edge33" class="edge"><title>Node24&#45;&gt;Node31</title>
<path fill="none" stroke="midnightblue" d="M525.905,-124.444C496.927,-115.293 450.805,-100.728 418.611,-90.5614"/>
<polygon fill="midnightblue" stroke="midnightblue" points="419.277,-87.1014 408.687,-87.4275 417.169,-93.7765 419.277,-87.1014"/>
</g>
<!-- Node32 -->
<g id="node32" class="node"><title>Node32</title>
<polygon fill="none" stroke="#bfbfbf" points="427,-68.5 427,-87.5 471,-87.5 471,-68.5 427,-68.5"/>
<text text-anchor="middle" x="449" y="-75.5" font-family="Helvetica,sans-Serif" font-size="10.00">mutex</text>
</g>
<!-- Node24&#45;&gt;Node32 -->
<g id="edge35" class="edge"><title>Node24&#45;&gt;Node32</title>
<path fill="none" stroke="midnightblue" d="M536.291,-124.324C519.688,-115.703 493.998,-102.364 474.78,-92.3855"/>
<polygon fill="midnightblue" stroke="midnightblue" points="476.156,-89.1565 465.668,-87.6545 472.93,-95.3689 476.156,-89.1565"/>
</g>
<!-- Node33&#45;&gt;Node34 -->
<g id="edge37" class="edge"><title>Node33&#45;&gt;Node34</title>
<path fill="none" stroke="midnightblue" d="M312.168,-124.444C265.921,-114.984 191.388,-99.7384 141.564,-89.5472"/>
<polygon fill="midnightblue" stroke="midnightblue" points="142.134,-86.0915 131.636,-87.5164 140.732,-92.9495 142.134,-86.0915"/>
</g>
<!-- Node34&#45;&gt;Node18 -->
<g id="edge38" class="edge"><title>Node34&#45;&gt;Node18</title>
<path fill="none" stroke="midnightblue" d="M151.826,-68.9603C154.587,-68.6298 157.322,-68.3081 160,-68 330.845,-48.3423 534.868,-28.8428 620.719,-20.8186"/>
<polygon fill="midnightblue" stroke="midnightblue" points="621.202,-24.2889 630.833,-19.8753 620.552,-17.3191 621.202,-24.2889"/>
</g>
<!-- Node34&#45;&gt;Node20 -->
<g id="edge39" class="edge"><title>Node34&#45;&gt;Node20</title>
<path fill="none" stroke="midnightblue" d="M90,-68.4035C90,-59.9381 90,-46.7283 90,-35.8199"/>
<polygon fill="midnightblue" stroke="midnightblue" points="93.5001,-35.5806 90,-25.5806 86.5001,-35.5806 93.5001,-35.5806"/>
</g>
<!-- Node38&#45;&gt;Node12 -->
<g id="edge53" class="edge"><title>Node38&#45;&gt;Node12</title>
<path fill="none" stroke="midnightblue" d="M1421.34,-236.399C1466.89,-213.647 1593.31,-149.405 1694,-88 1723.92,-69.7563 1757.14,-46.5253 1777.8,-31.7037"/>
<polygon fill="midnightblue" stroke="midnightblue" points="1780.03,-34.4083 1786.1,-25.7195 1775.94,-28.7311 1780.03,-34.4083"/>
</g>
<!-- Node39 -->
<g id="node39" class="node"><title>Node39</title>
<g id="a_node39"><a xlink:href="../../d5/d3f/InputSpec_8h.html" target="_top" xlink:title="Framework/InputSpec.h">
<polygon fill="none" stroke="black" points="1345.5,-180.5 1345.5,-199.5 1466.5,-199.5 1466.5,-180.5 1345.5,-180.5"/>
<text text-anchor="middle" x="1406" y="-187.5" font-family="Helvetica,sans-Serif" font-size="10.00">Framework/InputSpec.h</text>
</a>
</g>
</g>
<!-- Node38&#45;&gt;Node39 -->
<g id="edge47" class="edge"><title>Node38&#45;&gt;Node39</title>
<path fill="none" stroke="midnightblue" d="M1404.33,-236.083C1404.59,-229.006 1404.97,-218.861 1405.3,-209.986"/>
<polygon fill="midnightblue" stroke="midnightblue" points="1408.8,-209.874 1405.68,-199.751 1401.81,-209.615 1408.8,-209.874"/>
</g>
<!-- Node42 -->
<g id="node42" class="node"><title>Node42</title>
<polygon fill="none" stroke="#bfbfbf" points="1239.5,-180.5 1239.5,-199.5 1288.5,-199.5 1288.5,-180.5 1239.5,-180.5"/>
<text text-anchor="middle" x="1264" y="-187.5" font-family="Helvetica,sans-Serif" font-size="10.00">cstddef</text>
</g>
<!-- Node38&#45;&gt;Node42 -->
<g id="edge52" class="edge"><title>Node38&#45;&gt;Node42</title>
<path fill="none" stroke="midnightblue" d="M1381.82,-236.444C1358.57,-227.478 1321.85,-213.314 1295.58,-203.183"/>
<polygon fill="midnightblue" stroke="midnightblue" points="1296.67,-199.85 1286.08,-199.516 1294.15,-206.381 1296.67,-199.85"/>
</g>
<!-- Node39&#45;&gt;Node5 -->
<g id="edge51" class="edge"><title>Node39&#45;&gt;Node5</title>
<path fill="none" stroke="midnightblue" d="M1380.01,-180.444C1352.3,-171.32 1308.25,-156.813 1277.38,-146.651"/>
<polygon fill="midnightblue" stroke="midnightblue" points="1278.46,-143.32 1267.86,-143.516 1276.27,-149.968 1278.46,-143.32"/>
</g>
<!-- Node39&#45;&gt;Node12 -->
<g id="edge48" class="edge"><title>Node39&#45;&gt;Node12</title>
<path fill="none" stroke="midnightblue" d="M1426.99,-180.367C1482.88,-157.279 1639.8,-91.7962 1768,-32 1769.35,-31.3692 1770.73,-30.7145 1772.13,-30.0468"/>
<polygon fill="midnightblue" stroke="midnightblue" points="1773.82,-33.1149 1781.26,-25.5716 1770.74,-26.8291 1773.82,-33.1149"/>
</g>
<!-- Node40 -->
<g id="node40" class="node"><title>Node40</title>
<polygon fill="none" stroke="#bfbfbf" points="1448,-124.5 1448,-143.5 1500,-143.5 1500,-124.5 1448,-124.5"/>
<text text-anchor="middle" x="1474" y="-131.5" font-family="Helvetica,sans-Serif" font-size="10.00">ostream</text>
</g>
<!-- Node39&#45;&gt;Node40 -->
<g id="edge49" class="edge"><title>Node39&#45;&gt;Node40</title>
<path fill="none" stroke="midnightblue" d="M1416.93,-180.324C1427.17,-172.185 1442.72,-159.839 1455,-150.087"/>
<polygon fill="midnightblue" stroke="midnightblue" points="1457.22,-152.794 1462.88,-143.834 1452.87,-147.312 1457.22,-152.794"/>
</g>
<!-- Node41 -->
<g id="node41" class="node"><title>Node41</title>
<g id="a_node41"><a xlink:href="../../dc/dca/Lifetime_8h.html" target="_top" xlink:title="Framework/Lifetime.h">
<polygon fill="none" stroke="black" points="1318.5,-124.5 1318.5,-143.5 1429.5,-143.5 1429.5,-124.5 1318.5,-124.5"/>
<text text-anchor="middle" x="1374" y="-131.5" font-family="Helvetica,sans-Serif" font-size="10.00">Framework/Lifetime.h</text>
</a>
</g>
</g>
<!-- Node39&#45;&gt;Node41 -->
<g id="edge50" class="edge"><title>Node39&#45;&gt;Node41</title>
<path fill="none" stroke="midnightblue" d="M1400.72,-180.083C1396.29,-172.613 1389.84,-161.724 1384.38,-152.52"/>
<polygon fill="midnightblue" stroke="midnightblue" points="1387.29,-150.57 1379.19,-143.751 1381.27,-154.138 1387.29,-150.57"/>
</g>
<!-- Node45&#45;&gt;Node12 -->
<g id="edge66" class="edge"><title>Node45&#45;&gt;Node12</title>
<path fill="none" stroke="midnightblue" d="M1831.07,-296.273C1862.35,-290.691 1897.1,-279.215 1921,-256 1942.68,-234.941 1941,-221.225 1941,-191 1941,-191 1941,-191 1941,-133 1941,-75.4378 1870.25,-41.4617 1828.28,-26.3702"/>
<polygon fill="midnightblue" stroke="midnightblue" points="1829.39,-23.0496 1818.79,-23.1022 1827.11,-29.668 1829.39,-23.0496"/>
</g>
<!-- Node45&#45;&gt;Node18 -->
<g id="edge67" class="edge"><title>Node45&#45;&gt;Node18</title>
<path fill="none" stroke="midnightblue" d="M1753.02,-292.403C1744.09,-277.895 1723.84,-248.876 1698,-236 1553.29,-163.896 1491.09,-245.689 1336,-200 1317.31,-194.495 1315.1,-187.213 1297,-180 1244.09,-158.91 1223.71,-171.811 1174,-144 1130.06,-119.419 1136.09,-88.2519 1090,-68 931.444,1.66468 870.795,-70.7475 702,-32 698.496,-31.1957 694.886,-30.1583 691.334,-29.0049"/>
<polygon fill="midnightblue" stroke="midnightblue" points="692.213,-25.6026 681.618,-25.5441 689.864,-32.1968 692.213,-25.6026"/>
</g>
<!-- Node45&#45;&gt;Node21 -->
<g id="edge69" class="edge"><title>Node45&#45;&gt;Node21</title>
<path fill="none" stroke="midnightblue" d="M1756.76,-292.189C1751.19,-252.681 1728.47,-91.3648 1720.66,-35.8636"/>
<polygon fill="midnightblue" stroke="midnightblue" points="1724.09,-35.1223 1719.23,-25.7082 1717.16,-36.0987 1724.09,-35.1223"/>
</g>
<!-- Node45&#45;&gt;Node44 -->
<g id="edge64" class="edge"><title>Node45&#45;&gt;Node44</title>
<path fill="none" stroke="midnightblue" d="M1742.25,-292.324C1726.68,-283.743 1702.62,-270.486 1684.54,-260.522"/>
<polygon fill="midnightblue" stroke="midnightblue" points="1686.15,-257.415 1675.71,-255.655 1682.78,-263.546 1686.15,-257.415"/>
</g>
<!-- Node46 -->
<g id="node46" class="node"><title>Node46</title>
<polygon fill="none" stroke="#bfbfbf" points="1784.5,-236.5 1784.5,-255.5 1843.5,-255.5 1843.5,-236.5 1784.5,-236.5"/>
<text text-anchor="middle" x="1814" y="-243.5" font-family="Helvetica,sans-Serif" font-size="10.00">functional</text>
</g>
<!-- Node45&#45;&gt;Node46 -->
<g id="edge65" class="edge"><title>Node45&#45;&gt;Node46</title>
<path fill="none" stroke="midnightblue" d="M1767,-292.324C1775.19,-284.42 1787.51,-272.548 1797.47,-262.938"/>
<polygon fill="midnightblue" stroke="midnightblue" points="1800.07,-265.295 1804.84,-255.834 1795.21,-260.256 1800.07,-265.295"/>
</g>
<!-- Node47 -->
<g id="node47" class="node"><title>Node47</title>
<polygon fill="none" stroke="#bfbfbf" points="1861.5,-236.5 1861.5,-255.5 1912.5,-255.5 1912.5,-236.5 1861.5,-236.5"/>
<text text-anchor="middle" x="1887" y="-243.5" font-family="Helvetica,sans-Serif" font-size="10.00">typeinfo</text>
</g>
<!-- Node45&#45;&gt;Node47 -->
<g id="edge68" class="edge"><title>Node45&#45;&gt;Node47</title>
<path fill="none" stroke="midnightblue" d="M1778.44,-292.444C1799.67,-283.557 1833.1,-269.563 1857.25,-259.451"/>
<polygon fill="midnightblue" stroke="midnightblue" points="1858.78,-262.606 1866.66,-255.516 1856.08,-256.149 1858.78,-262.606"/>
</g>
</g>
</svg>
