<?xml version="1.0" encoding="UTF-8" standalone="no"?>
<!DOCTYPE svg PUBLIC "-//W3C//DTD SVG 1.1//EN"
 "http://www.w3.org/Graphics/SVG/1.1/DTD/svg11.dtd">
<!-- Generated by graphviz version 2.36.0 (20140111.2315)
 -->
<!-- Title: o2::header::NameHeader&lt; N &gt; Pages: 1 -->
<!--zoomable 1022 -->
<svg id="main" version="1.1" xmlns="http://www.w3.org/2000/svg" xmlns:xlink="http://www.w3.org/1999/xlink" xml:space="preserve" onload="init(evt)">
<style type="text/css"><![CDATA[
.edge:hover path { stroke: red; }
.edge:hover polygon { stroke: red; fill: red; }
]]></style>
<script type="text/javascript"><![CDATA[
var edges = document.getElementsByTagName('g');
if (edges && edges.length) {
  for (var i=0;i<edges.length;i++) {
    if (edges[i].id.substr(0,4)=='edge') {
      edges[i].setAttribute('class','edge');
    }
  }
}
]]></script>
        <defs>
                <circle id="rim" cx="0" cy="0" r="7"/>
                <circle id="rim2" cx="0" cy="0" r="3.5"/>
                <g id="zoomPlus">
                        <use xlink:href="#rim" fill="#404040">
                                <set attributeName="fill" to="#808080" begin="zoomplus.mouseover" end="zoomplus.mouseout"/>
                        </use>
                        <path d="M-4,0h8M0,-4v8" fill="none" stroke="white" stroke-width="1.5" pointer-events="none"/>
                </g>
                <g id="zoomMin">
                        <use xlink:href="#rim" fill="#404040">
                                <set attributeName="fill" to="#808080" begin="zoomminus.mouseover" end="zoomminus.mouseout"/>
                        </use>
                        <path d="M-4,0h8" fill="none" stroke="white" stroke-width="1.5" pointer-events="none"/>
                </g>
                <g id="dirArrow">
                        <path fill="none" stroke="white" stroke-width="1.5" d="M0,-3.0v7 M-2.5,-0.5L0,-3.0L2.5,-0.5"/>
                </g>
               <g id="resetDef">
                       <use xlink:href="#rim2" fill="#404040">
                               <set attributeName="fill" to="#808080" begin="reset.mouseover" end="reset.mouseout"/>
                       </use>
               </g>
        </defs>

<script type="text/javascript">
var viewWidth = 898;
var viewHeight = 1022;
var sectionId = 'dynsection-1';
</script>
<script xlink:href="../../svgpan.js"/>
<svg id="graph" class="graph">
<g id="viewport">
<title>o2::header::NameHeader&lt; N &gt;</title>
<!-- Node1 -->
<g id="node1" class="node"><title>Node1</title>
<polygon fill="#bfbfbf" stroke="black" points="496.089,-1 496.089,-113 648.089,-113 648.089,-1 496.089,-1"/>
<text text-anchor="middle" x="572.089" y="-101" font-family="Helvetica,sans-Serif" font-size="10.00">o2::header::NameHeader&lt; N &gt;</text>
<polyline fill="none" stroke="black" points="496.089,-94 648.089,-94 "/>
<text text-anchor="middle" x="572.089" y="-82" font-family="Helvetica,sans-Serif" font-size="10.00"> </text>
<polyline fill="none" stroke="black" points="496.089,-75 648.089,-75 "/>
<text text-anchor="start" x="504.089" y="-63" font-family="Helvetica,sans-Serif" font-size="10.00">+ NameHeader()</text>
<text text-anchor="start" x="504.089" y="-52" font-family="Helvetica,sans-Serif" font-size="10.00">+ NameHeader()</text>
<text text-anchor="start" x="504.089" y="-41" font-family="Helvetica,sans-Serif" font-size="10.00">+ getName()</text>
<text text-anchor="start" x="504.089" y="-30" font-family="Helvetica,sans-Serif" font-size="10.00">+ getNameLength()</text>
<text text-anchor="start" x="504.089" y="-19" font-family="Helvetica,sans-Serif" font-size="10.00">+ sHeaderType()</text>
<text text-anchor="start" x="504.089" y="-8" font-family="Helvetica,sans-Serif" font-size="10.00">+ sHeaderType()</text>
</g>
<!-- Node2 -->
<g id="node2" class="node"><title>Node2</title>
<g id="a_node2"><a xlink:href="../../d8/dbd/structo2_1_1header_1_1BaseHeader.html" target="_top" xlink:title="the base header struct Every header type must begin (i.e. derive) with this. Don&#39;t use this struct di...">
<polygon fill="none" stroke="black" points="511.089,-152.5 511.089,-297.5 633.089,-297.5 633.089,-152.5 511.089,-152.5"/>
<text text-anchor="middle" x="572.089" y="-285.5" font-family="Helvetica,sans-Serif" font-size="10.00">o2::header::BaseHeader</text>
<polyline fill="none" stroke="black" points="511.089,-278.5 633.089,-278.5 "/>
<text text-anchor="middle" x="572.089" y="-266.5" font-family="Helvetica,sans-Serif" font-size="10.00"> </text>
<polyline fill="none" stroke="black" points="511.089,-259.5 633.089,-259.5 "/>
<text text-anchor="start" x="519.089" y="-247.5" font-family="Helvetica,sans-Serif" font-size="10.00">+ BaseHeader()</text>
<text text-anchor="start" x="519.089" y="-236.5" font-family="Helvetica,sans-Serif" font-size="10.00">+ BaseHeader()</text>
<text text-anchor="start" x="519.089" y="-225.5" font-family="Helvetica,sans-Serif" font-size="10.00">+ BaseHeader()</text>
<text text-anchor="start" x="519.089" y="-214.5" font-family="Helvetica,sans-Serif" font-size="10.00">+ size()</text>
<text text-anchor="start" x="519.089" y="-203.5" font-family="Helvetica,sans-Serif" font-size="10.00">+ data()</text>
<text text-anchor="start" x="519.089" y="-192.5" font-family="Helvetica,sans-Serif" font-size="10.00">+ next()</text>
<text text-anchor="start" x="519.089" y="-181.5" font-family="Helvetica,sans-Serif" font-size="10.00">+ next()</text>
<text text-anchor="start" x="519.089" y="-170.5" font-family="Helvetica,sans-Serif" font-size="10.00">+ get()</text>
<text text-anchor="start" x="519.089" y="-159.5" font-family="Helvetica,sans-Serif" font-size="10.00">+ get()</text>
</a>
</g>
</g>
<!-- Node2&#45;&gt;Node1 -->
<g id="edge1" class="edge"><title>Node2&#45;&gt;Node1</title>
<path fill="none" stroke="midnightblue" d="M572.089,-142.005C572.089,-132.237 572.089,-122.45 572.089,-113.186"/>
<polygon fill="none" stroke="midnightblue" points="568.59,-142.155 572.089,-152.155 575.59,-142.155 568.59,-142.155"/>
</g>
<!-- Node3 -->
<g id="node3" class="node"><title>Node3</title>
<g id="a_node3"><a xlink:href="../../d9/db3/structo2_1_1header_1_1Descriptor.html" target="_top" xlink:title="{o2::header::Descriptor\l\&lt; gSizeHeaderDescriptionString \&gt;\n||+ Descriptor()\l+ Descriptor()\l+ Descriptor()\l+ Descriptor()\l+ operator=()\l+ operator ItgType()\l+ runtimeInit()\l+ operator==()\l+ operator==()\l+ operator!=()\l+ operator!=()\l+ as()\l+ print()\l}">
<polygon fill="none" stroke="black" points="489.089,-423 489.089,-623 655.089,-623 655.089,-423 489.089,-423"/>
<text text-anchor="start" x="497.089" y="-611" font-family="Helvetica,sans-Serif" font-size="10.00">o2::header::Descriptor</text>
<text text-anchor="middle" x="572.089" y="-600" font-family="Helvetica,sans-Serif" font-size="10.00">&lt; gSizeHeaderDescriptionString &gt;</text>
<polyline fill="none" stroke="black" points="489.089,-593 655.089,-593 "/>
<text text-anchor="middle" x="572.089" y="-581" font-family="Helvetica,sans-Serif" font-size="10.00"> </text>
<polyline fill="none" stroke="black" points="489.089,-574 655.089,-574 "/>
<text text-anchor="start" x="497.089" y="-562" font-family="Helvetica,sans-Serif" font-size="10.00">+ Descriptor()</text>
<text text-anchor="start" x="497.089" y="-551" font-family="Helvetica,sans-Serif" font-size="10.00">+ Descriptor()</text>
<text text-anchor="start" x="497.089" y="-540" font-family="Helvetica,sans-Serif" font-size="10.00">+ Descriptor()</text>
<text text-anchor="start" x="497.089" y="-529" font-family="Helvetica,sans-Serif" font-size="10.00">+ Descriptor()</text>
<text text-anchor="start" x="497.089" y="-518" font-family="Helvetica,sans-Serif" font-size="10.00">+ operator=()</text>
<text text-anchor="start" x="497.089" y="-507" font-family="Helvetica,sans-Serif" font-size="10.00">+ operator ItgType()</text>
<text text-anchor="start" x="497.089" y="-496" font-family="Helvetica,sans-Serif" font-size="10.00">+ runtimeInit()</text>
<text text-anchor="start" x="497.089" y="-485" font-family="Helvetica,sans-Serif" font-size="10.00">+ operator==()</text>
<text text-anchor="start" x="497.089" y="-474" font-family="Helvetica,sans-Serif" font-size="10.00">+ operator==()</text>
<text text-anchor="start" x="497.089" y="-463" font-family="Helvetica,sans-Serif" font-size="10.00">+ operator!=()</text>
<text text-anchor="start" x="497.089" y="-452" font-family="Helvetica,sans-Serif" font-size="10.00">+ operator!=()</text>
<text text-anchor="start" x="497.089" y="-441" font-family="Helvetica,sans-Serif" font-size="10.00">+ as()</text>
<text text-anchor="start" x="497.089" y="-430" font-family="Helvetica,sans-Serif" font-size="10.00">+ print()</text>
</a>
</g>
</g>
<!-- Node3&#45;&gt;Node2 -->
<g id="edge2" class="edge"><title>Node3&#45;&gt;Node2</title>
<path fill="none" stroke="#404040" d="M572.089,-422.613C572.089,-385.955 572.089,-344.821 572.089,-309.689"/>
<polygon fill="none" stroke="#404040" points="572.09,-309.529 568.089,-303.53 572.089,-297.529 576.089,-303.529 572.09,-309.529"/>
<text text-anchor="middle" x="600.589" y="-357.5" font-family="Helvetica,sans-Serif" font-size="10.00"> +description</text>
</g>
<!-- Node4 -->
<g id="node4" class="node"><title>Node4</title>
<polygon fill="none" stroke="#bfbfbf" points="224.089,-955.5 224.089,-1012.5 262.089,-1012.5 262.089,-955.5 224.089,-955.5"/>
<text text-anchor="middle" x="243.089" y="-1000.5" font-family="Helvetica,sans-Serif" font-size="10.00">Type</text>
<polyline fill="none" stroke="#bfbfbf" points="224.089,-993.5 262.089,-993.5 "/>
<text text-anchor="middle" x="243.089" y="-981.5" font-family="Helvetica,sans-Serif" font-size="10.00"> </text>
<polyline fill="none" stroke="#bfbfbf" points="224.089,-974.5 262.089,-974.5 "/>
<text text-anchor="middle" x="243.089" y="-962.5" font-family="Helvetica,sans-Serif" font-size="10.00"> </text>
</g>
<!-- Node4&#45;&gt;Node3 -->
<g id="edge3" class="edge"><title>Node4&#45;&gt;Node3</title>
<path fill="none" stroke="#404040" d="M262.425,-975.503C279.495,-969.102 305.163,-960.004 328.089,-954 370.506,-942.892 395.186,-968.068 425.089,-936 502.58,-852.902 379.19,-767.441 454.089,-682 475.833,-657.196 501.936,-686.463 526.089,-664 535.175,-655.55 542.47,-645.276 548.325,-634.174"/>
<polygon fill="none" stroke="#404040" points="548.342,-634.138 547.316,-627.001 553.51,-623.308 554.536,-630.446 548.342,-634.138"/>
<text text-anchor="middle" x="464.089" y="-780.5" font-family="Helvetica,sans-Serif" font-size="10.00"> +itg</text>
</g>
<!-- Node8 -->
<g id="node8" class="node"><title>Node8</title>
<g id="a_node8"><a xlink:href="../../d9/db3/structo2_1_1header_1_1Descriptor.html" target="_top" xlink:title="{o2::header::Descriptor\l\&lt; N, PrinterPolicy \&gt;\n||+ Descriptor()\l+ Descriptor()\l+ Descriptor()\l+ operator=()\l+ operator ItgType()\l+ Descriptor()\l+ runtimeInit()\l+ operator==()\l+ operator!=()\l+ operator==()\l+ operator!=()\l+ as()\l+ print()\l}">
<polygon fill="none" stroke="black" points="202.589,-683 202.589,-883 315.589,-883 315.589,-683 202.589,-683"/>
<text text-anchor="start" x="210.589" y="-871" font-family="Helvetica,sans-Serif" font-size="10.00">o2::header::Descriptor</text>
<text text-anchor="middle" x="259.089" y="-860" font-family="Helvetica,sans-Serif" font-size="10.00">&lt; N, PrinterPolicy &gt;</text>
<polyline fill="none" stroke="black" points="202.589,-853 315.589,-853 "/>
<text text-anchor="middle" x="259.089" y="-841" font-family="Helvetica,sans-Serif" font-size="10.00"> </text>
<polyline fill="none" stroke="black" points="202.589,-834 315.589,-834 "/>
<text text-anchor="start" x="210.589" y="-822" font-family="Helvetica,sans-Serif" font-size="10.00">+ Descriptor()</text>
<text text-anchor="start" x="210.589" y="-811" font-family="Helvetica,sans-Serif" font-size="10.00">+ Descriptor()</text>
<text text-anchor="start" x="210.589" y="-800" font-family="Helvetica,sans-Serif" font-size="10.00">+ Descriptor()</text>
<text text-anchor="start" x="210.589" y="-789" font-family="Helvetica,sans-Serif" font-size="10.00">+ operator=()</text>
<text text-anchor="start" x="210.589" y="-778" font-family="Helvetica,sans-Serif" font-size="10.00">+ operator ItgType()</text>
<text text-anchor="start" x="210.589" y="-767" font-family="Helvetica,sans-Serif" font-size="10.00">+ Descriptor()</text>
<text text-anchor="start" x="210.589" y="-756" font-family="Helvetica,sans-Serif" font-size="10.00">+ runtimeInit()</text>
<text text-anchor="start" x="210.589" y="-745" font-family="Helvetica,sans-Serif" font-size="10.00">+ operator==()</text>
<text text-anchor="start" x="210.589" y="-734" font-family="Helvetica,sans-Serif" font-size="10.00">+ operator!=()</text>
<text text-anchor="start" x="210.589" y="-723" font-family="Helvetica,sans-Serif" font-size="10.00">+ operator==()</text>
<text text-anchor="start" x="210.589" y="-712" font-family="Helvetica,sans-Serif" font-size="10.00">+ operator!=()</text>
<text text-anchor="start" x="210.589" y="-701" font-family="Helvetica,sans-Serif" font-size="10.00">+ as()</text>
<text text-anchor="start" x="210.589" y="-690" font-family="Helvetica,sans-Serif" font-size="10.00">+ print()</text>
</a>
</g>
</g>
<!-- Node4&#45;&gt;Node8 -->
<g id="edge8" class="edge"><title>Node4&#45;&gt;Node8</title>
<path fill="none" stroke="#404040" d="M242.651,-955.227C242.599,-939.576 242.861,-919.677 244.089,-902 244.244,-899.779 244.412,-897.536 244.592,-895.276"/>
<polygon fill="none" stroke="#404040" points="244.614,-895.022 241.154,-888.695 245.663,-883.068 249.123,-889.395 244.614,-895.022"/>
<text text-anchor="middle" x="254.089" y="-916.5" font-family="Helvetica,sans-Serif" font-size="10.00"> +itg</text>
</g>
<!-- Node10 -->
<g id="node10" class="node"><title>Node10</title>
<g id="a_node10"><a xlink:href="../../d9/db3/structo2_1_1header_1_1Descriptor.html" target="_top" xlink:title="{o2::header::Descriptor\l\&lt; gSizeSerializationMethodString \&gt;\n||+ Descriptor()\l+ Descriptor()\l+ Descriptor()\l+ Descriptor()\l+ operator=()\l+ operator ItgType()\l+ runtimeInit()\l+ operator==()\l+ operator==()\l+ operator!=()\l+ operator!=()\l+ as()\l+ print()\l}">
<polygon fill="none" stroke="black" points="168.089,-423 168.089,-623 338.089,-623 338.089,-423 168.089,-423"/>
<text text-anchor="start" x="176.089" y="-611" font-family="Helvetica,sans-Serif" font-size="10.00">o2::header::Descriptor</text>
<text text-anchor="middle" x="253.089" y="-600" font-family="Helvetica,sans-Serif" font-size="10.00">&lt; gSizeSerializationMethodString &gt;</text>
<polyline fill="none" stroke="black" points="168.089,-593 338.089,-593 "/>
<text text-anchor="middle" x="253.089" y="-581" font-family="Helvetica,sans-Serif" font-size="10.00"> </text>
<polyline fill="none" stroke="black" points="168.089,-574 338.089,-574 "/>
<text text-anchor="start" x="176.089" y="-562" font-family="Helvetica,sans-Serif" font-size="10.00">+ Descriptor()</text>
<text text-anchor="start" x="176.089" y="-551" font-family="Helvetica,sans-Serif" font-size="10.00">+ Descriptor()</text>
<text text-anchor="start" x="176.089" y="-540" font-family="Helvetica,sans-Serif" font-size="10.00">+ Descriptor()</text>
<text text-anchor="start" x="176.089" y="-529" font-family="Helvetica,sans-Serif" font-size="10.00">+ Descriptor()</text>
<text text-anchor="start" x="176.089" y="-518" font-family="Helvetica,sans-Serif" font-size="10.00">+ operator=()</text>
<text text-anchor="start" x="176.089" y="-507" font-family="Helvetica,sans-Serif" font-size="10.00">+ operator ItgType()</text>
<text text-anchor="start" x="176.089" y="-496" font-family="Helvetica,sans-Serif" font-size="10.00">+ runtimeInit()</text>
<text text-anchor="start" x="176.089" y="-485" font-family="Helvetica,sans-Serif" font-size="10.00">+ operator==()</text>
<text text-anchor="start" x="176.089" y="-474" font-family="Helvetica,sans-Serif" font-size="10.00">+ operator==()</text>
<text text-anchor="start" x="176.089" y="-463" font-family="Helvetica,sans-Serif" font-size="10.00">+ operator!=()</text>
<text text-anchor="start" x="176.089" y="-452" font-family="Helvetica,sans-Serif" font-size="10.00">+ operator!=()</text>
<text text-anchor="start" x="176.089" y="-441" font-family="Helvetica,sans-Serif" font-size="10.00">+ as()</text>
<text text-anchor="start" x="176.089" y="-430" font-family="Helvetica,sans-Serif" font-size="10.00">+ print()</text>
</a>
</g>
</g>
<!-- Node4&#45;&gt;Node10 -->
<g id="edge17" class="edge"><title>Node4&#45;&gt;Node10</title>
<path fill="none" stroke="#404040" d="M223.922,-974.667C208.732,-966.972 188.405,-954.004 178.089,-936 153.324,-892.777 136.332,-835.968 173.089,-682 176.881,-666.117 182.543,-650.024 189.135,-634.492"/>
<polygon fill="none" stroke="#404040" points="189.235,-634.267 188.002,-627.162 194.087,-623.292 195.319,-630.397 189.235,-634.267"/>
<text text-anchor="middle" x="183.089" y="-780.5" font-family="Helvetica,sans-Serif" font-size="10.00"> +itg</text>
</g>
<!-- Node5 -->
<g id="node5" class="node"><title>Node5</title>
<polygon fill="none" stroke="#bfbfbf" points="628.589,-955 628.589,-1013 657.589,-1013 657.589,-955 628.589,-955"/>
<polyline fill="none" stroke="#bfbfbf" points="628.589,-993 657.589,-993 "/>
<text text-anchor="middle" x="643.089" y="-981" font-family="Helvetica,sans-Serif" font-size="10.00"> </text>
<polyline fill="none" stroke="#bfbfbf" points="628.589,-974 657.589,-974 "/>
<text text-anchor="middle" x="643.089" y="-962" font-family="Helvetica,sans-Serif" font-size="10.00"> </text>
</g>
<!-- Node5&#45;&gt;Node2 -->
<g id="edge12" class="edge"><title>Node5&#45;&gt;Node2</title>
<path fill="none" stroke="#404040" d="M651.488,-954.71C656.866,-935.072 663.334,-908.194 666.089,-884 670.169,-848.178 665.983,-434.87 664.089,-422 656.943,-373.439 654,-360.407 633.089,-316 631.868,-313.406 630.577,-310.804 629.229,-308.202"/>
<polygon fill="none" stroke="#404040" points="629.155,-308.068 622.766,-304.724 623.396,-297.54 629.785,-300.884 629.155,-308.068"/>
<text text-anchor="middle" x="683.589" y="-650.5" font-family="Helvetica,sans-Serif" font-size="10.00"> +@11</text>
</g>
<!-- Node5&#45;&gt;Node2 -->
<g id="edge14" class="edge"><title>Node5&#45;&gt;Node2</title>
<path fill="none" stroke="#404040" d="M657.835,-964.848C663.835,-956.53 670.249,-946.252 674.089,-936 682.27,-914.163 678.373,-907.161 681.089,-884 693.669,-776.736 708.712,-749.853 703.089,-642 697.971,-543.823 693.437,-519.4 680.089,-422 673.602,-374.657 684.02,-358.456 662.089,-316 656.613,-305.398 649.443,-295.265 641.536,-285.874"/>
<polygon fill="none" stroke="#404040" points="641.391,-285.71 634.416,-283.882 633.42,-276.74 640.396,-278.568 641.391,-285.71"/>
<text text-anchor="middle" x="719.589" y="-650.5" font-family="Helvetica,sans-Serif" font-size="10.00"> +@13</text>
</g>
<!-- Node5&#45;&gt;Node3 -->
<g id="edge4" class="edge"><title>Node5&#45;&gt;Node3</title>
<path fill="none" stroke="#404040" d="M641.871,-954.822C638.894,-896.037 629.531,-756.292 604.089,-642 603.579,-639.708 603.053,-637.394 602.514,-635.063"/>
<polygon fill="none" stroke="#404040" points="602.495,-634.981 597.215,-630.069 599.717,-623.307 604.997,-628.218 602.495,-634.981"/>
<text text-anchor="middle" x="649.589" y="-780.5" font-family="Helvetica,sans-Serif" font-size="10.00"> +@9</text>
</g>
<!-- Node5&#45;&gt;Node8 -->
<g id="edge9" class="edge"><title>Node5&#45;&gt;Node8</title>
<path fill="none" stroke="#404040" d="M628.538,-981.681C581.152,-976.754 428.651,-955.842 330.089,-884 328.374,-882.75 326.685,-881.445 325.022,-880.093"/>
<polygon fill="none" stroke="#404040" points="324.749,-879.849 317.608,-878.841 315.792,-871.862 322.933,-872.87 324.749,-879.849"/>
<text text-anchor="middle" x="437.589" y="-916.5" font-family="Helvetica,sans-Serif" font-size="10.00"> +@9</text>
</g>
<!-- Node5&#45;&gt;Node10 -->
<g id="edge18" class="edge"><title>Node5&#45;&gt;Node10</title>
<path fill="none" stroke="#404040" d="M628.509,-964.103C614.612,-945.014 594.334,-914.119 584.089,-884 548.604,-779.669 626.093,-696.106 530.089,-642 459.663,-602.309 421.796,-659.342 349.089,-624 348.974,-623.944 348.86,-623.888 348.745,-623.832"/>
<polygon fill="none" stroke="#404040" points="348.768,-623.844 341.582,-624.456 338.254,-618.059 345.439,-617.447 348.768,-623.844"/>
<text text-anchor="middle" x="596.589" y="-780.5" font-family="Helvetica,sans-Serif" font-size="10.00"> +@9</text>
</g>
<!-- Node6 -->
<g id="node6" class="node"><title>Node6</title>
<polygon fill="none" stroke="#bfbfbf" points="61.5894,-955.5 61.5894,-1012.5 96.5894,-1012.5 96.5894,-955.5 61.5894,-955.5"/>
<text text-anchor="middle" x="79.0894" y="-1000.5" font-family="Helvetica,sans-Serif" font-size="10.00">char</text>
<polyline fill="none" stroke="#bfbfbf" points="61.5894,-993.5 96.5894,-993.5 "/>
<text text-anchor="middle" x="79.0894" y="-981.5" font-family="Helvetica,sans-Serif" font-size="10.00"> </text>
<polyline fill="none" stroke="#bfbfbf" points="61.5894,-974.5 96.5894,-974.5 "/>
<text text-anchor="middle" x="79.0894" y="-962.5" font-family="Helvetica,sans-Serif" font-size="10.00"> </text>
</g>
<!-- Node6&#45;&gt;Node2 -->
<g id="edge15" class="edge"><title>Node6&#45;&gt;Node2</title>
<path fill="none" stroke="#404040" d="M61.5211,-957.341C57.3919,-950.595 53.2726,-943.189 50.0894,-936 40.3508,-914.006 39.6381,-907.619 35.0894,-884 14.666,-777.95 -18.0984,-745.398 13.0894,-642 46.9776,-529.649 69.2815,-497.535 159.089,-422 174.32,-409.19 185.036,-417.016 200.089,-404 234.978,-373.834 218.217,-343.707 255.089,-316 326.927,-262.019 429.946,-240.398 498.84,-231.749"/>
<polygon fill="none" stroke="#404040" points="498.95,-231.736 504.439,-227.059 510.867,-230.327 505.378,-235.004 498.95,-231.736"/>
<text text-anchor="middle" x="43.5894" y="-650.5" font-family="Helvetica,sans-Serif" font-size="10.00"> +magicString</text>
</g>
<!-- Node6&#45;&gt;Node3 -->
<g id="edge5" class="edge"><title>Node6&#45;&gt;Node3</title>
<path fill="none" stroke="#404040" d="M80.326,-955.208C83.7572,-889.204 95.3313,-725.316 127.089,-682 190.118,-596.032 402.037,-646.479 477.696,-625.601"/>
<polygon fill="none" stroke="#404040" points="477.761,-625.577 482.001,-619.744 489.016,-621.415 484.776,-627.247 477.761,-625.577"/>
<text text-anchor="middle" x="137.589" y="-780.5" font-family="Helvetica,sans-Serif" font-size="10.00"> +str</text>
</g>
<!-- Node6&#45;&gt;Node8 -->
<g id="edge10" class="edge"><title>Node6&#45;&gt;Node8</title>
<path fill="none" stroke="#404040" d="M96.7803,-968.963C119.285,-950.668 158.748,-917.09 188.089,-884 190.374,-881.424 192.653,-878.774 194.919,-876.07"/>
<polygon fill="none" stroke="#404040" points="194.976,-876 195.665,-868.822 202.556,-866.697 201.867,-873.875 194.976,-876"/>
<text text-anchor="middle" x="179.589" y="-916.5" font-family="Helvetica,sans-Serif" font-size="10.00"> +str</text>
</g>
<!-- Node6&#45;&gt;Node10 -->
<g id="edge19" class="edge"><title>Node6&#45;&gt;Node10</title>
<path fill="none" stroke="#404040" d="M68.6212,-955.132C49.5173,-899.334 15.2493,-771.578 64.0894,-682 86.869,-640.22 117.13,-653.975 154.089,-624 155.687,-622.704 157.287,-621.385 158.887,-620.046"/>
<polygon fill="none" stroke="#404040" points="158.94,-620.001 160.883,-613.056 168.04,-612.178 166.098,-619.123 158.94,-620.001"/>
<text text-anchor="middle" x="74.5894" y="-780.5" font-family="Helvetica,sans-Serif" font-size="10.00"> +str</text>
</g>
<!-- Node7 -->
<g id="node7" class="node"><title>Node7</title>
<polygon fill="none" stroke="#bfbfbf" points="337.589,-955.5 337.589,-1012.5 366.589,-1012.5 366.589,-955.5 337.589,-955.5"/>
<text text-anchor="middle" x="352.089" y="-1000.5" font-family="Helvetica,sans-Serif" font-size="10.00">int</text>
<polyline fill="none" stroke="#bfbfbf" points="337.589,-993.5 366.589,-993.5 "/>
<text text-anchor="middle" x="352.089" y="-981.5" font-family="Helvetica,sans-Serif" font-size="10.00"> </text>
<polyline fill="none" stroke="#bfbfbf" points="337.589,-974.5 366.589,-974.5 "/>
<text text-anchor="middle" x="352.089" y="-962.5" font-family="Helvetica,sans-Serif" font-size="10.00"> </text>
</g>
<!-- Node7&#45;&gt;Node3 -->
<g id="edge6" class="edge"><title>Node7&#45;&gt;Node3</title>
<path fill="none" stroke="#404040" d="M366.641,-980.449C388.847,-975.761 430.941,-963.606 453.089,-936 525.429,-845.832 434.296,-770.144 509.089,-682 523.026,-665.575 540.898,-681.029 554.089,-664 560.867,-655.25 565.814,-645.23 569.364,-634.661"/>
<polygon fill="none" stroke="#404040" points="569.396,-634.549 567.196,-627.682 572.689,-623.01 574.889,-629.878 569.396,-634.549"/>
<text text-anchor="middle" x="534.589" y="-791.5" font-family="Helvetica,sans-Serif" font-size="10.00"> +arraySize</text>
<text text-anchor="middle" x="534.589" y="-780.5" font-family="Helvetica,sans-Serif" font-size="10.00">+size</text>
<text text-anchor="middle" x="534.589" y="-769.5" font-family="Helvetica,sans-Serif" font-size="10.00">+bitcount</text>
</g>
<!-- Node7&#45;&gt;Node8 -->
<g id="edge11" class="edge"><title>Node7&#45;&gt;Node8</title>
<path fill="none" stroke="#404040" d="M337.387,-976.496C322.25,-968.997 299.213,-955.19 287.089,-936 279.23,-923.56 273.453,-909.474 269.227,-895.019"/>
<polygon fill="none" stroke="#404040" points="269.215,-894.976 263.819,-890.192 266.159,-883.371 271.556,-888.155 269.215,-894.976"/>
<text text-anchor="middle" x="312.589" y="-927.5" font-family="Helvetica,sans-Serif" font-size="10.00"> +arraySize</text>
<text text-anchor="middle" x="312.589" y="-916.5" font-family="Helvetica,sans-Serif" font-size="10.00">+size</text>
<text text-anchor="middle" x="312.589" y="-905.5" font-family="Helvetica,sans-Serif" font-size="10.00">+bitcount</text>
</g>
<!-- Node7&#45;&gt;Node10 -->
<g id="edge20" class="edge"><title>Node7&#45;&gt;Node10</title>
<path fill="none" stroke="#404040" d="M355.75,-955.076C362.472,-895.601 372.865,-752.806 335.089,-642 334.206,-639.41 333.249,-636.825 332.224,-634.25"/>
<polygon fill="none" stroke="#404040" points="332.129,-634.032 326.062,-630.134 327.328,-623.035 333.394,-626.933 332.129,-634.032"/>
<text text-anchor="middle" x="388.589" y="-791.5" font-family="Helvetica,sans-Serif" font-size="10.00"> +arraySize</text>
<text text-anchor="middle" x="388.589" y="-780.5" font-family="Helvetica,sans-Serif" font-size="10.00">+size</text>
<text text-anchor="middle" x="388.589" y="-769.5" font-family="Helvetica,sans-Serif" font-size="10.00">+bitcount</text>
</g>
<!-- Node8&#45;&gt;Node1 -->
<g id="edge24" class="edge"><title>Node8&#45;&gt;Node1</title>
<path fill="none" stroke="#404040" d="M202.586,-690.655C200.737,-687.733 198.901,-684.842 197.089,-682 180.524,-656.013 167.969,-653.511 159.089,-624 119.647,-492.916 91.6516,-435.686 158.089,-316 227.379,-191.176 384.933,-118.871 484.462,-84.0437"/>
<polygon fill="none" stroke="#404040" points="484.653,-83.9784 489.029,-78.247 496.002,-80.0821 491.626,-85.8135 484.653,-83.9784"/>
<text text-anchor="middle" x="206.589" y="-363" font-family="Helvetica,sans-Serif" font-size="10.00"> +sHeaderType</text>
<text text-anchor="middle" x="206.589" y="-352" font-family="Helvetica,sans-Serif" font-size="10.00">+sSerializationMethod</text>
</g>
<!-- Node8&#45;&gt;Node2 -->
<g id="edge22" class="edge"><title>Node8&#45;&gt;Node2</title>
<path fill="none" stroke="#404040" d="M315.655,-708.062C324.533,-693.979 332.827,-678.953 339.089,-664 381.317,-563.166 333.406,-519.376 383.089,-422 411.352,-366.608 460.475,-316.388 501.558,-280.652"/>
<polygon fill="none" stroke="#404040" points="501.615,-280.603 503.569,-273.662 510.728,-272.796 508.774,-279.738 501.615,-280.603"/>
<text text-anchor="middle" x="431.589" y="-526" font-family="Helvetica,sans-Serif" font-size="10.00"> +sHeaderType</text>
<text text-anchor="middle" x="431.589" y="-515" font-family="Helvetica,sans-Serif" font-size="10.00">+sSerializationMethod</text>
</g>
<!-- Node8&#45;&gt;Node3 -->
<g id="edge7" class="edge"><title>Node8&#45;&gt;Node3</title>
<path fill="none" stroke="orange" d="M323.241,-687.433C325.476,-685.533 327.759,-683.717 330.089,-682 350.799,-666.747 363.025,-677.218 385.089,-664 397.224,-656.73 395.763,-648.94 408.089,-642 434.957,-626.872 448.51,-639.628 475.089,-624 479.781,-621.242 484.396,-618.196 488.914,-614.934"/>
<polygon fill="orange" stroke="orange" points="320.859,-684.869 315.835,-694.197 325.58,-690.038 320.859,-684.869"/>
<text text-anchor="start" x="408.089" y="-656" font-family="Helvetica,sans-Serif" font-size="10.00"> &lt; gSizeHeaderDescription</text>
<text text-anchor="middle" x="467.089" y="-645" font-family="Helvetica,sans-Serif" font-size="10.00">String &gt;</text>
</g>
<!-- Node8&#45;&gt;Node10 -->
<g id="edge21" class="edge"><title>Node8&#45;&gt;Node10</title>
<path fill="none" stroke="orange" d="M213.956,-672.728C213.269,-669.806 212.644,-666.893 212.089,-664 209.537,-650.693 209.842,-636.833 211.921,-623.234"/>
<polygon fill="orange" stroke="orange" points="210.635,-673.869 216.512,-682.685 217.415,-672.129 210.635,-673.869"/>
<text text-anchor="start" x="212.089" y="-656" font-family="Helvetica,sans-Serif" font-size="10.00"> &lt; gSizeSerializationMethod</text>
<text text-anchor="middle" x="273.589" y="-645" font-family="Helvetica,sans-Serif" font-size="10.00">String &gt;</text>
</g>
<!-- Node9 -->
<g id="node9" class="node"><title>Node9</title>
<polygon fill="none" stroke="#bfbfbf" points="802.589,-494.5 802.589,-551.5 853.589,-551.5 853.589,-494.5 802.589,-494.5"/>
<text text-anchor="middle" x="828.089" y="-539.5" font-family="Helvetica,sans-Serif" font-size="10.00">uint32_t</text>
<polyline fill="none" stroke="#bfbfbf" points="802.589,-532.5 853.589,-532.5 "/>
<text text-anchor="middle" x="828.089" y="-520.5" font-family="Helvetica,sans-Serif" font-size="10.00"> </text>
<polyline fill="none" stroke="#bfbfbf" points="802.589,-513.5 853.589,-513.5 "/>
<text text-anchor="middle" x="828.089" y="-501.5" font-family="Helvetica,sans-Serif" font-size="10.00"> </text>
</g>
<!-- Node9&#45;&gt;Node1 -->
<g id="edge23" class="edge"><title>Node9&#45;&gt;Node1</title>
<path fill="none" stroke="#404040" d="M839.702,-494.345C855.006,-453.513 877.115,-375.513 851.089,-316 811.993,-226.595 724.94,-154.377 658.397,-109.33"/>
<polygon fill="none" stroke="#404040" points="658.304,-109.268 651.093,-109.266 648.321,-102.609 655.532,-102.611 658.304,-109.268"/>
<text text-anchor="middle" x="866.089" y="-222.5" font-family="Helvetica,sans-Serif" font-size="10.00"> +sVersion</text>
</g>
<!-- Node9&#45;&gt;Node2 -->
<g id="edge13" class="edge"><title>Node9&#45;&gt;Node2</title>
<path fill="none" stroke="#404040" d="M812.679,-494.061C800.191,-470.566 782.803,-435.811 771.089,-404 757.121,-366.065 773.41,-347.513 748.089,-316 721.904,-283.411 680.787,-261.458 644.879,-247.398"/>
<polygon fill="none" stroke="#404040" points="644.666,-247.318 637.643,-248.958 633.429,-243.107 640.451,-241.467 644.666,-247.318"/>
<text text-anchor="middle" x="811.089" y="-396" font-family="Helvetica,sans-Serif" font-size="10.00"> +headerVersion</text>
<text text-anchor="middle" x="811.089" y="-385" font-family="Helvetica,sans-Serif" font-size="10.00">+headerSize</text>
<text text-anchor="middle" x="811.089" y="-374" font-family="Helvetica,sans-Serif" font-size="10.00">+sMagicString</text>
<text text-anchor="middle" x="811.089" y="-363" font-family="Helvetica,sans-Serif" font-size="10.00">+flagsNextHeader</text>
<text text-anchor="middle" x="811.089" y="-352" font-family="Helvetica,sans-Serif" font-size="10.00">+magicStringInt</text>
<text text-anchor="middle" x="811.089" y="-341" font-family="Helvetica,sans-Serif" font-size="10.00">+flagsUnused</text>
<text text-anchor="middle" x="811.089" y="-330" font-family="Helvetica,sans-Serif" font-size="10.00">+flags</text>
<text text-anchor="middle" x="811.089" y="-319" font-family="Helvetica,sans-Serif" font-size="10.00">+sVersion</text>
</g>
<!-- Node10&#45;&gt;Node2 -->
<g id="edge16" class="edge"><title>Node10&#45;&gt;Node2</title>
<path fill="none" stroke="#404040" d="M255.024,-422.886C260.527,-385.435 272.889,-344.924 299.089,-316 350.051,-259.74 436.834,-238.562 498.878,-230.639"/>
<polygon fill="none" stroke="#404040" points="499.021,-230.623 504.514,-225.951 510.939,-229.225 505.446,-233.897 499.021,-230.623"/>
<text text-anchor="middle" x="329.589" y="-357.5" font-family="Helvetica,sans-Serif" font-size="10.00"> +serialization</text>
</g>
</g>
</svg>
        <g id="navigator" transform="translate(0 0)" fill="#404254">
                <rect fill="#f2f5e9" fill-opacity="0.5" stroke="#606060" stroke-width=".5" x="0" y="0" width="60" height="60"/>
                <use id="zoomplus" xlink:href="#zoomPlus" x="17" y="9" onmousedown="handleZoom(evt,'in')"/>
                <use id="zoomminus" xlink:href="#zoomMin" x="42" y="9" onmousedown="handleZoom(evt,'out')"/>
                <use id="reset" xlink:href="#resetDef" x="30" y="36" onmousedown="handleReset()"/>
                <g id="arrowUp" xlink:href="#dirArrow" transform="translate(30 24)" onmousedown="handlePan(0,-1)">
                  <use xlink:href="#rim" fill="#404040">
                        <set attributeName="fill" to="#808080" begin="arrowUp.mouseover" end="arrowUp.mouseout"/>
                  </use>
                  <path fill="none" stroke="white" stroke-width="1.5" d="M0,-3.0v7 M-2.5,-0.5L0,-3.0L2.5,-0.5"/>
                </g>
                <g id="arrowRight" xlink:href="#dirArrow" transform="rotate(90) translate(36 -43)" onmousedown="handlePan(1,0)">
                  <use xlink:href="#rim" fill="#404040">
                        <set attributeName="fill" to="#808080" begin="arrowRight.mouseover" end="arrowRight.mouseout"/>
                  </use>
                  <path fill="none" stroke="white" stroke-width="1.5" d="M0,-3.0v7 M-2.5,-0.5L0,-3.0L2.5,-0.5"/>
                </g>
                <g id="arrowDown" xlink:href="#dirArrow" transform="rotate(180) translate(-30 -48)" onmousedown="handlePan(0,1)">
                  <use xlink:href="#rim" fill="#404040">
                        <set attributeName="fill" to="#808080" begin="arrowDown.mouseover" end="arrowDown.mouseout"/>
                  </use>
                  <path fill="none" stroke="white" stroke-width="1.5" d="M0,-3.0v7 M-2.5,-0.5L0,-3.0L2.5,-0.5"/>
                </g>
                <g id="arrowLeft" xlink:href="#dirArrow" transform="rotate(270) translate(-36 17)" onmousedown="handlePan(-1,0)">
                  <use xlink:href="#rim" fill="#404040">
                        <set attributeName="fill" to="#808080" begin="arrowLeft.mouseover" end="arrowLeft.mouseout"/>
                  </use>
                  <path fill="none" stroke="white" stroke-width="1.5" d="M0,-3.0v7 M-2.5,-0.5L0,-3.0L2.5,-0.5"/>
                </g>
        </g>
        <svg viewBox="0 0 15 15" width="100%" height="30px" preserveAspectRatio="xMaxYMin meet">
         <g id="arrow_out" transform="scale(0.3 0.3)">
          <a xlink:href="structo2_1_1header_1_1NameHeader__coll__graph_org.svg" target="_base">
           <rect id="button" ry="5" rx="5" y="6" x="6" height="38" width="38"
                fill="#f2f5e9" fill-opacity="0.5" stroke="#606060" stroke-width="1.0"/>
           <path id="arrow"
             d="M 11.500037,31.436501 C 11.940474,20.09759 22.043105,11.32322 32.158766,21.979434 L 37.068811,17.246167 C 37.068811,17.246167 37.088388,32 37.088388,32 L 22.160133,31.978069 C 22.160133,31.978069 26.997745,27.140456 26.997745,27.140456 C 18.528582,18.264221 13.291696,25.230495 11.500037,31.436501 z"
             style="fill:#404040;"/>
          </a>
         </g>
        </svg>
</svg>
