<?xml version="1.0" encoding="UTF-8" standalone="no"?>
<!DOCTYPE svg PUBLIC "-//W3C//DTD SVG 1.1//EN"
 "http://www.w3.org/Graphics/SVG/1.1/DTD/svg11.dtd">
<!-- Generated by graphviz version 2.36.0 (20140111.2315)
 -->
<!-- Title: o2::header::DataIdentifier Pages: 1 -->
<svg width="621pt" height="760pt"
 viewBox="0.00 0.00 620.64 760.00" xmlns="http://www.w3.org/2000/svg" xmlns:xlink="http://www.w3.org/1999/xlink">
<g id="graph0" class="graph" transform="scale(1 1) rotate(0) translate(4 756)">
<title>o2::header::DataIdentifier</title>
<!-- Node1 -->
<g id="node1" class="node"><title>Node1</title>
<polygon fill="#bfbfbf" stroke="black" points="184.137,-0.5 184.137,-101.5 311.137,-101.5 311.137,-0.5 184.137,-0.5"/>
<text text-anchor="middle" x="247.637" y="-89.5" font-family="Helvetica,sans-Serif" font-size="10.00">o2::header::DataIdentifier</text>
<polyline fill="none" stroke="black" points="184.137,-82.5 311.137,-82.5 "/>
<text text-anchor="middle" x="247.637" y="-70.5" font-family="Helvetica,sans-Serif" font-size="10.00"> </text>
<polyline fill="none" stroke="black" points="184.137,-63.5 311.137,-63.5 "/>
<text text-anchor="start" x="192.137" y="-51.5" font-family="Helvetica,sans-Serif" font-size="10.00">+ DataIdentifier()</text>
<text text-anchor="start" x="192.137" y="-40.5" font-family="Helvetica,sans-Serif" font-size="10.00">+ DataIdentifier()</text>
<text text-anchor="start" x="192.137" y="-29.5" font-family="Helvetica,sans-Serif" font-size="10.00">+ DataIdentifier()</text>
<text text-anchor="start" x="192.137" y="-18.5" font-family="Helvetica,sans-Serif" font-size="10.00">+ operator==()</text>
<text text-anchor="start" x="192.137" y="-7.5" font-family="Helvetica,sans-Serif" font-size="10.00">+ print()</text>
</g>
<!-- Node2 -->
<g id="node2" class="node"><title>Node2</title>
<g id="a_node2"><a xlink:href="../../d9/db3/structo2_1_1header_1_1Descriptor.html" target="_top" xlink:title="{o2::header::Descriptor\l\&lt; gSizeDataOriginString,\l printDataOrigin \&gt;\n||+ Descriptor()\l+ Descriptor()\l+ Descriptor()\l+ Descriptor()\l+ operator=()\l+ operator ItgType()\l+ runtimeInit()\l+ operator==()\l+ operator==()\l+ operator!=()\l+ operator!=()\l+ as()\l+ print()\l}">
<polygon fill="none" stroke="black" points="50.1366,-150.5 50.1366,-361.5 175.137,-361.5 175.137,-150.5 50.1366,-150.5"/>
<text text-anchor="start" x="58.1366" y="-349.5" font-family="Helvetica,sans-Serif" font-size="10.00">o2::header::Descriptor</text>
<text text-anchor="start" x="58.1366" y="-338.5" font-family="Helvetica,sans-Serif" font-size="10.00">&lt; gSizeDataOriginString,</text>
<text text-anchor="middle" x="112.637" y="-327.5" font-family="Helvetica,sans-Serif" font-size="10.00"> printDataOrigin &gt;</text>
<polyline fill="none" stroke="black" points="50.1366,-320.5 175.137,-320.5 "/>
<text text-anchor="middle" x="112.637" y="-308.5" font-family="Helvetica,sans-Serif" font-size="10.00"> </text>
<polyline fill="none" stroke="black" points="50.1366,-301.5 175.137,-301.5 "/>
<text text-anchor="start" x="58.1366" y="-289.5" font-family="Helvetica,sans-Serif" font-size="10.00">+ Descriptor()</text>
<text text-anchor="start" x="58.1366" y="-278.5" font-family="Helvetica,sans-Serif" font-size="10.00">+ Descriptor()</text>
<text text-anchor="start" x="58.1366" y="-267.5" font-family="Helvetica,sans-Serif" font-size="10.00">+ Descriptor()</text>
<text text-anchor="start" x="58.1366" y="-256.5" font-family="Helvetica,sans-Serif" font-size="10.00">+ Descriptor()</text>
<text text-anchor="start" x="58.1366" y="-245.5" font-family="Helvetica,sans-Serif" font-size="10.00">+ operator=()</text>
<text text-anchor="start" x="58.1366" y="-234.5" font-family="Helvetica,sans-Serif" font-size="10.00">+ operator ItgType()</text>
<text text-anchor="start" x="58.1366" y="-223.5" font-family="Helvetica,sans-Serif" font-size="10.00">+ runtimeInit()</text>
<text text-anchor="start" x="58.1366" y="-212.5" font-family="Helvetica,sans-Serif" font-size="10.00">+ operator==()</text>
<text text-anchor="start" x="58.1366" y="-201.5" font-family="Helvetica,sans-Serif" font-size="10.00">+ operator==()</text>
<text text-anchor="start" x="58.1366" y="-190.5" font-family="Helvetica,sans-Serif" font-size="10.00">+ operator!=()</text>
<text text-anchor="start" x="58.1366" y="-179.5" font-family="Helvetica,sans-Serif" font-size="10.00">+ operator!=()</text>
<text text-anchor="start" x="58.1366" y="-168.5" font-family="Helvetica,sans-Serif" font-size="10.00">+ as()</text>
<text text-anchor="start" x="58.1366" y="-157.5" font-family="Helvetica,sans-Serif" font-size="10.00">+ print()</text>
</a>
</g>
</g>
<!-- Node2&#45;&gt;Node1 -->
<g id="edge1" class="edge"><title>Node2&#45;&gt;Node1</title>
<path fill="none" stroke="#404040" d="M175.197,-160.928C186.237,-144.328 197.453,-127.461 207.658,-112.116"/>
<polygon fill="none" stroke="#404040" points="207.901,-111.751 207.893,-104.539 214.546,-101.758 214.554,-108.969 207.901,-111.751"/>
<text text-anchor="middle" x="227.637" y="-123.5" font-family="Helvetica,sans-Serif" font-size="10.00"> +dataOrigin</text>
</g>
<!-- Node3 -->
<g id="node3" class="node"><title>Node3</title>
<polygon fill="none" stroke="#bfbfbf" points="65.6366,-693.5 65.6366,-750.5 103.637,-750.5 103.637,-693.5 65.6366,-693.5"/>
<text text-anchor="middle" x="84.6366" y="-738.5" font-family="Helvetica,sans-Serif" font-size="10.00">Type</text>
<polyline fill="none" stroke="#bfbfbf" points="65.6366,-731.5 103.637,-731.5 "/>
<text text-anchor="middle" x="84.6366" y="-719.5" font-family="Helvetica,sans-Serif" font-size="10.00"> </text>
<polyline fill="none" stroke="#bfbfbf" points="65.6366,-712.5 103.637,-712.5 "/>
<text text-anchor="middle" x="84.6366" y="-700.5" font-family="Helvetica,sans-Serif" font-size="10.00"> </text>
</g>
<!-- Node3&#45;&gt;Node2 -->
<g id="edge2" class="edge"><title>Node3&#45;&gt;Node2</title>
<path fill="none" stroke="#404040" d="M65.6295,-700.508C49.5812,-681.703 27.7953,-652.249 18.6366,-622 -7.37953,-536.074 -4.57798,-506.724 18.6366,-420 24.3648,-398.601 33.654,-377.102 44.2158,-357.056"/>
<polygon fill="none" stroke="#404040" points="44.2809,-356.937 43.6379,-349.754 50.0205,-346.398 50.6635,-353.581 44.2809,-356.937"/>
<text text-anchor="middle" x="28.6366" y="-518.5" font-family="Helvetica,sans-Serif" font-size="10.00"> +itg</text>
</g>
<!-- Node7 -->
<g id="node7" class="node"><title>Node7</title>
<g id="a_node7"><a xlink:href="../../d9/db3/structo2_1_1header_1_1Descriptor.html" target="_top" xlink:title="{o2::header::Descriptor\l\&lt; N, PrinterPolicy \&gt;\n||+ Descriptor()\l+ Descriptor()\l+ Descriptor()\l+ operator=()\l+ operator ItgType()\l+ Descriptor()\l+ runtimeInit()\l+ operator==()\l+ operator!=()\l+ operator==()\l+ operator!=()\l+ as()\l+ print()\l}">
<polygon fill="none" stroke="black" points="221.137,-421 221.137,-621 334.137,-621 334.137,-421 221.137,-421"/>
<text text-anchor="start" x="229.137" y="-609" font-family="Helvetica,sans-Serif" font-size="10.00">o2::header::Descriptor</text>
<text text-anchor="middle" x="277.637" y="-598" font-family="Helvetica,sans-Serif" font-size="10.00">&lt; N, PrinterPolicy &gt;</text>
<polyline fill="none" stroke="black" points="221.137,-591 334.137,-591 "/>
<text text-anchor="middle" x="277.637" y="-579" font-family="Helvetica,sans-Serif" font-size="10.00"> </text>
<polyline fill="none" stroke="black" points="221.137,-572 334.137,-572 "/>
<text text-anchor="start" x="229.137" y="-560" font-family="Helvetica,sans-Serif" font-size="10.00">+ Descriptor()</text>
<text text-anchor="start" x="229.137" y="-549" font-family="Helvetica,sans-Serif" font-size="10.00">+ Descriptor()</text>
<text text-anchor="start" x="229.137" y="-538" font-family="Helvetica,sans-Serif" font-size="10.00">+ Descriptor()</text>
<text text-anchor="start" x="229.137" y="-527" font-family="Helvetica,sans-Serif" font-size="10.00">+ operator=()</text>
<text text-anchor="start" x="229.137" y="-516" font-family="Helvetica,sans-Serif" font-size="10.00">+ operator ItgType()</text>
<text text-anchor="start" x="229.137" y="-505" font-family="Helvetica,sans-Serif" font-size="10.00">+ Descriptor()</text>
<text text-anchor="start" x="229.137" y="-494" font-family="Helvetica,sans-Serif" font-size="10.00">+ runtimeInit()</text>
<text text-anchor="start" x="229.137" y="-483" font-family="Helvetica,sans-Serif" font-size="10.00">+ operator==()</text>
<text text-anchor="start" x="229.137" y="-472" font-family="Helvetica,sans-Serif" font-size="10.00">+ operator!=()</text>
<text text-anchor="start" x="229.137" y="-461" font-family="Helvetica,sans-Serif" font-size="10.00">+ operator==()</text>
<text text-anchor="start" x="229.137" y="-450" font-family="Helvetica,sans-Serif" font-size="10.00">+ operator!=()</text>
<text text-anchor="start" x="229.137" y="-439" font-family="Helvetica,sans-Serif" font-size="10.00">+ as()</text>
<text text-anchor="start" x="229.137" y="-428" font-family="Helvetica,sans-Serif" font-size="10.00">+ print()</text>
</a>
</g>
</g>
<!-- Node3&#45;&gt;Node7 -->
<g id="edge7" class="edge"><title>Node3&#45;&gt;Node7</title>
<path fill="none" stroke="#404040" d="M103.778,-703.106C122.32,-686.114 151.535,-660.233 178.637,-640 190.491,-631.15 195.938,-632.217 206.637,-622 208.638,-620.088 210.62,-618.113 212.578,-616.085"/>
<polygon fill="none" stroke="#404040" points="212.895,-615.74 214.002,-608.614 221.005,-606.895 219.898,-614.021 212.895,-615.74"/>
<text text-anchor="middle" x="188.637" y="-654.5" font-family="Helvetica,sans-Serif" font-size="10.00"> +itg</text>
</g>
<!-- Node8 -->
<g id="node8" class="node"><title>Node8</title>
<g id="a_node8"><a xlink:href="../../d9/db3/structo2_1_1header_1_1Descriptor.html" target="_top" xlink:title="{o2::header::Descriptor\l\&lt; gSizeDataDescriptionString,\l printDataDescription \&gt;\n||+ Descriptor()\l+ Descriptor()\l+ Descriptor()\l+ Descriptor()\l+ operator=()\l+ operator ItgType()\l+ runtimeInit()\l+ operator==()\l+ operator==()\l+ operator!=()\l+ operator!=()\l+ as()\l+ print()\l}">
<polygon fill="none" stroke="black" points="251.137,-150.5 251.137,-361.5 400.137,-361.5 400.137,-150.5 251.137,-150.5"/>
<text text-anchor="start" x="259.137" y="-349.5" font-family="Helvetica,sans-Serif" font-size="10.00">o2::header::Descriptor</text>
<text text-anchor="start" x="259.137" y="-338.5" font-family="Helvetica,sans-Serif" font-size="10.00">&lt; gSizeDataDescriptionString,</text>
<text text-anchor="middle" x="325.637" y="-327.5" font-family="Helvetica,sans-Serif" font-size="10.00"> printDataDescription &gt;</text>
<polyline fill="none" stroke="black" points="251.137,-320.5 400.137,-320.5 "/>
<text text-anchor="middle" x="325.637" y="-308.5" font-family="Helvetica,sans-Serif" font-size="10.00"> </text>
<polyline fill="none" stroke="black" points="251.137,-301.5 400.137,-301.5 "/>
<text text-anchor="start" x="259.137" y="-289.5" font-family="Helvetica,sans-Serif" font-size="10.00">+ Descriptor()</text>
<text text-anchor="start" x="259.137" y="-278.5" font-family="Helvetica,sans-Serif" font-size="10.00">+ Descriptor()</text>
<text text-anchor="start" x="259.137" y="-267.5" font-family="Helvetica,sans-Serif" font-size="10.00">+ Descriptor()</text>
<text text-anchor="start" x="259.137" y="-256.5" font-family="Helvetica,sans-Serif" font-size="10.00">+ Descriptor()</text>
<text text-anchor="start" x="259.137" y="-245.5" font-family="Helvetica,sans-Serif" font-size="10.00">+ operator=()</text>
<text text-anchor="start" x="259.137" y="-234.5" font-family="Helvetica,sans-Serif" font-size="10.00">+ operator ItgType()</text>
<text text-anchor="start" x="259.137" y="-223.5" font-family="Helvetica,sans-Serif" font-size="10.00">+ runtimeInit()</text>
<text text-anchor="start" x="259.137" y="-212.5" font-family="Helvetica,sans-Serif" font-size="10.00">+ operator==()</text>
<text text-anchor="start" x="259.137" y="-201.5" font-family="Helvetica,sans-Serif" font-size="10.00">+ operator==()</text>
<text text-anchor="start" x="259.137" y="-190.5" font-family="Helvetica,sans-Serif" font-size="10.00">+ operator!=()</text>
<text text-anchor="start" x="259.137" y="-179.5" font-family="Helvetica,sans-Serif" font-size="10.00">+ operator!=()</text>
<text text-anchor="start" x="259.137" y="-168.5" font-family="Helvetica,sans-Serif" font-size="10.00">+ as()</text>
<text text-anchor="start" x="259.137" y="-157.5" font-family="Helvetica,sans-Serif" font-size="10.00">+ print()</text>
</a>
</g>
</g>
<!-- Node3&#45;&gt;Node8 -->
<g id="edge12" class="edge"><title>Node3&#45;&gt;Node8</title>
<path fill="none" stroke="#404040" d="M89.2693,-693.254C101.493,-620.685 134.315,-430.147 143.637,-420 163.337,-398.555 182.293,-417.981 206.637,-402 216.054,-395.817 229.073,-382.385 243.06,-366.074"/>
<polygon fill="none" stroke="#404040" points="243.185,-365.925 243.988,-358.759 250.912,-356.744 250.109,-363.91 243.185,-365.925"/>
<text text-anchor="middle" x="153.637" y="-518.5" font-family="Helvetica,sans-Serif" font-size="10.00"> +itg</text>
</g>
<!-- Node4 -->
<g id="node4" class="node"><title>Node4</title>
<polygon fill="none" stroke="#bfbfbf" points="163.137,-693 163.137,-751 192.137,-751 192.137,-693 163.137,-693"/>
<polyline fill="none" stroke="#bfbfbf" points="163.137,-731 192.137,-731 "/>
<text text-anchor="middle" x="177.637" y="-719" font-family="Helvetica,sans-Serif" font-size="10.00"> </text>
<polyline fill="none" stroke="#bfbfbf" points="163.137,-712 192.137,-712 "/>
<text text-anchor="middle" x="177.637" y="-700" font-family="Helvetica,sans-Serif" font-size="10.00"> </text>
</g>
<!-- Node4&#45;&gt;Node2 -->
<g id="edge3" class="edge"><title>Node4&#45;&gt;Node2</title>
<path fill="none" stroke="#404040" d="M170.553,-692.896C164.74,-675.328 154.778,-653.544 138.637,-640 116.001,-621.007 92.479,-645.553 74.6366,-622 21.5772,-551.959 36.7188,-451.445 61.9755,-373.623"/>
<polygon fill="none" stroke="#404040" points="62.1173,-373.2 60.2353,-366.239 65.9372,-361.825 67.8192,-368.786 62.1173,-373.2"/>
<text text-anchor="middle" x="87.1366" y="-518.5" font-family="Helvetica,sans-Serif" font-size="10.00"> +@9</text>
</g>
<!-- Node4&#45;&gt;Node7 -->
<g id="edge8" class="edge"><title>Node4&#45;&gt;Node7</title>
<path fill="none" stroke="#404040" d="M191.752,-692.91C199.979,-676.54 210.944,-654.718 222.281,-632.157"/>
<polygon fill="none" stroke="#404040" points="222.298,-632.123 221.418,-624.966 227.686,-621.401 228.566,-628.558 222.298,-632.123"/>
<text text-anchor="middle" x="229.137" y="-654.5" font-family="Helvetica,sans-Serif" font-size="10.00"> +@9</text>
</g>
<!-- Node4&#45;&gt;Node8 -->
<g id="edge13" class="edge"><title>Node4&#45;&gt;Node8</title>
<path fill="none" stroke="#404040" d="M174.616,-692.697C168.133,-626.332 155.839,-463.052 186.637,-420 199.893,-401.469 216.986,-416.407 234.637,-402 245.519,-393.117 255.485,-382.572 264.503,-371.28"/>
<polygon fill="none" stroke="#404040" points="264.577,-371.183 265.034,-363.986 271.853,-361.64 271.396,-368.837 264.577,-371.183"/>
<text text-anchor="middle" x="199.137" y="-518.5" font-family="Helvetica,sans-Serif" font-size="10.00"> +@9</text>
</g>
<!-- Node5 -->
<g id="node5" class="node"><title>Node5</title>
<polygon fill="none" stroke="#bfbfbf" points="353.137,-693.5 353.137,-750.5 388.137,-750.5 388.137,-693.5 353.137,-693.5"/>
<text text-anchor="middle" x="370.637" y="-738.5" font-family="Helvetica,sans-Serif" font-size="10.00">char</text>
<polyline fill="none" stroke="#bfbfbf" points="353.137,-731.5 388.137,-731.5 "/>
<text text-anchor="middle" x="370.637" y="-719.5" font-family="Helvetica,sans-Serif" font-size="10.00"> </text>
<polyline fill="none" stroke="#bfbfbf" points="353.137,-712.5 388.137,-712.5 "/>
<text text-anchor="middle" x="370.637" y="-700.5" font-family="Helvetica,sans-Serif" font-size="10.00"> </text>
</g>
<!-- Node5&#45;&gt;Node2 -->
<g id="edge4" class="edge"><title>Node5&#45;&gt;Node2</title>
<path fill="none" stroke="#404040" d="M375.907,-693.409C385.116,-637.006 398.245,-506.54 342.637,-420 335.641,-409.113 252.301,-369.331 241.637,-362 222.588,-348.906 202.84,-333.734 184.691,-319.065"/>
<polygon fill="none" stroke="#404040" points="184.658,-319.038 177.48,-318.345 175.359,-311.453 182.536,-312.146 184.658,-319.038"/>
<text text-anchor="middle" x="395.137" y="-518.5" font-family="Helvetica,sans-Serif" font-size="10.00"> +str</text>
</g>
<!-- Node5&#45;&gt;Node7 -->
<g id="edge9" class="edge"><title>Node5&#45;&gt;Node7</title>
<path fill="none" stroke="#404040" d="M352.911,-719.226C327.629,-715.637 282.022,-704.99 261.637,-674 253.605,-661.79 249.77,-647.798 248.697,-633.356"/>
<polygon fill="none" stroke="#404040" points="248.692,-633.145 244.555,-627.239 248.415,-621.148 252.552,-627.054 248.692,-633.145"/>
<text text-anchor="middle" x="272.137" y="-654.5" font-family="Helvetica,sans-Serif" font-size="10.00"> +str</text>
</g>
<!-- Node5&#45;&gt;Node8 -->
<g id="edge14" class="edge"><title>Node5&#45;&gt;Node8</title>
<path fill="none" stroke="#404040" d="M388.57,-705.23C420.13,-677.467 482.318,-622.706 482.637,-622 519.528,-540.152 515.372,-503.597 482.637,-420 467.576,-381.539 438.41,-347.179 409.262,-320.038"/>
<polygon fill="none" stroke="#404040" points="409.122,-319.911 401.991,-318.844 400.233,-311.85 407.365,-312.917 409.122,-319.911"/>
<text text-anchor="middle" x="519.137" y="-518.5" font-family="Helvetica,sans-Serif" font-size="10.00"> +str</text>
</g>
<!-- Node6 -->
<g id="node6" class="node"><title>Node6</title>
<polygon fill="none" stroke="#bfbfbf" points="413.137,-693.5 413.137,-750.5 442.137,-750.5 442.137,-693.5 413.137,-693.5"/>
<text text-anchor="middle" x="427.637" y="-738.5" font-family="Helvetica,sans-Serif" font-size="10.00">int</text>
<polyline fill="none" stroke="#bfbfbf" points="413.137,-731.5 442.137,-731.5 "/>
<text text-anchor="middle" x="427.637" y="-719.5" font-family="Helvetica,sans-Serif" font-size="10.00"> </text>
<polyline fill="none" stroke="#bfbfbf" points="413.137,-712.5 442.137,-712.5 "/>
<text text-anchor="middle" x="427.637" y="-700.5" font-family="Helvetica,sans-Serif" font-size="10.00"> </text>
</g>
<!-- Node6&#45;&gt;Node2 -->
<g id="edge5" class="edge"><title>Node6&#45;&gt;Node2</title>
<path fill="none" stroke="#404040" d="M427.385,-693.443C426.497,-623.111 422.571,-441.009 405.637,-420 387.898,-397.992 370.4,-413.631 344.637,-402 327.891,-394.44 326.487,-387.323 309.637,-380 280.964,-367.539 269.496,-376.186 241.637,-362 221.879,-351.939 202.368,-338.468 184.734,-324.537"/>
<polygon fill="none" stroke="#404040" points="184.467,-324.321 177.287,-323.654 175.141,-316.769 182.321,-317.436 184.467,-324.321"/>
<text text-anchor="middle" x="452.137" y="-529.5" font-family="Helvetica,sans-Serif" font-size="10.00"> +arraySize</text>
<text text-anchor="middle" x="452.137" y="-518.5" font-family="Helvetica,sans-Serif" font-size="10.00">+size</text>
<text text-anchor="middle" x="452.137" y="-507.5" font-family="Helvetica,sans-Serif" font-size="10.00">+bitcount</text>
</g>
<!-- Node6&#45;&gt;Node7 -->
<g id="edge10" class="edge"><title>Node6&#45;&gt;Node7</title>
<path fill="none" stroke="#404040" d="M412.882,-705.691C407.955,-701.001 402.277,-696.022 396.637,-692 382.716,-682.073 374.865,-685.95 362.637,-674 349.865,-661.519 338.462,-646.706 328.477,-631.302"/>
<polygon fill="none" stroke="#404040" points="328.471,-631.293 321.902,-628.32 322.119,-621.112 328.689,-624.085 328.471,-631.293"/>
<text text-anchor="middle" x="388.137" y="-665.5" font-family="Helvetica,sans-Serif" font-size="10.00"> +arraySize</text>
<text text-anchor="middle" x="388.137" y="-654.5" font-family="Helvetica,sans-Serif" font-size="10.00">+size</text>
<text text-anchor="middle" x="388.137" y="-643.5" font-family="Helvetica,sans-Serif" font-size="10.00">+bitcount</text>
</g>
<!-- Node6&#45;&gt;Node8 -->
<g id="edge15" class="edge"><title>Node6&#45;&gt;Node8</title>
<path fill="none" stroke="#404040" d="M442.499,-712.714C466.964,-698.107 514.877,-665.19 533.637,-622 569.404,-539.655 572.917,-500.729 533.637,-420 508.031,-367.375 456.298,-326.723 410.833,-299.178"/>
<polygon fill="none" stroke="#404040" points="410.671,-299.083 403.471,-299.476 400.338,-292.981 407.539,-292.588 410.671,-299.083"/>
<text text-anchor="middle" x="587.137" y="-529.5" font-family="Helvetica,sans-Serif" font-size="10.00"> +arraySize</text>
<text text-anchor="middle" x="587.137" y="-518.5" font-family="Helvetica,sans-Serif" font-size="10.00">+size</text>
<text text-anchor="middle" x="587.137" y="-507.5" font-family="Helvetica,sans-Serif" font-size="10.00">+bitcount</text>
</g>
<!-- Node7&#45;&gt;Node2 -->
<g id="edge6" class="edge"><title>Node7&#45;&gt;Node2</title>
<path fill="none" stroke="orange" d="M212.953,-424.685C210.891,-423.044 208.786,-421.478 206.637,-420 180.17,-401.795 158.334,-425.688 136.637,-402 126.21,-390.616 119.371,-376.515 115.006,-361.616"/>
<polygon fill="orange" stroke="orange" points="210.832,-427.478 220.687,-431.367 215.409,-422.181 210.832,-427.478"/>
<text text-anchor="start" x="136.637" y="-394" font-family="Helvetica,sans-Serif" font-size="10.00"> &lt; gSizeDataOriginString,</text>
<text text-anchor="middle" x="192.637" y="-383" font-family="Helvetica,sans-Serif" font-size="10.00"> printDataOrigin &gt;</text>
</g>
<!-- Node7&#45;&gt;Node8 -->
<g id="edge16" class="edge"><title>Node7&#45;&gt;Node8</title>
<path fill="none" stroke="orange" d="M299.943,-411.071C300.52,-408.016 301.086,-404.987 301.637,-402 304.043,-388.952 306.461,-375.221 308.789,-361.625"/>
<polygon fill="orange" stroke="orange" points="296.504,-410.423 298.066,-420.902 303.38,-411.736 296.504,-410.423"/>
<text text-anchor="start" x="305.637" y="-394" font-family="Helvetica,sans-Serif" font-size="10.00"> &lt; gSizeDataDescriptionString,</text>
<text text-anchor="middle" x="373.637" y="-383" font-family="Helvetica,sans-Serif" font-size="10.00"> printDataDescription &gt;</text>
</g>
<!-- Node8&#45;&gt;Node1 -->
<g id="edge11" class="edge"><title>Node8&#45;&gt;Node1</title>
<path fill="none" stroke="#404040" d="M285.38,-150.23C280.491,-137.505 275.628,-124.85 271.099,-113.064"/>
<polygon fill="none" stroke="#404040" points="270.998,-112.799 265.112,-108.632 266.694,-101.597 272.58,-105.763 270.998,-112.799"/>
<text text-anchor="middle" x="316.637" y="-123.5" font-family="Helvetica,sans-Serif" font-size="10.00"> +dataDescription</text>
</g>
</g>
</svg>
