<?xml version="1.0" encoding="UTF-8" standalone="no"?>
<!DOCTYPE svg PUBLIC "-//W3C//DTD SVG 1.1//EN"
 "http://www.w3.org/Graphics/SVG/1.1/DTD/svg11.dtd">
<!-- Generated by graphviz version 2.36.0 (20140111.2315)
 -->
<!-- Title: /home/travis/build/AliceO2Group/AliceO2/Framework/Core/src/InputRecord.cxx Pages: 1 -->
<!--zoomable 398 -->
<svg id="main" version="1.1" xmlns="http://www.w3.org/2000/svg" xmlns:xlink="http://www.w3.org/1999/xlink" xml:space="preserve" onload="init(evt)">
<style type="text/css"><![CDATA[
.edge:hover path { stroke: red; }
.edge:hover polygon { stroke: red; fill: red; }
]]></style>
<script type="text/javascript"><![CDATA[
var edges = document.getElementsByTagName('g');
if (edges && edges.length) {
  for (var i=0;i<edges.length;i++) {
    if (edges[i].id.substr(0,4)=='edge') {
      edges[i].setAttribute('class','edge');
    }
  }
}
]]></script>
        <defs>
                <circle id="rim" cx="0" cy="0" r="7"/>
                <circle id="rim2" cx="0" cy="0" r="3.5"/>
                <g id="zoomPlus">
                        <use xlink:href="#rim" fill="#404040">
                                <set attributeName="fill" to="#808080" begin="zoomplus.mouseover" end="zoomplus.mouseout"/>
                        </use>
                        <path d="M-4,0h8M0,-4v8" fill="none" stroke="white" stroke-width="1.5" pointer-events="none"/>
                </g>
                <g id="zoomMin">
                        <use xlink:href="#rim" fill="#404040">
                                <set attributeName="fill" to="#808080" begin="zoomminus.mouseover" end="zoomminus.mouseout"/>
                        </use>
                        <path d="M-4,0h8" fill="none" stroke="white" stroke-width="1.5" pointer-events="none"/>
                </g>
                <g id="dirArrow">
                        <path fill="none" stroke="white" stroke-width="1.5" d="M0,-3.0v7 M-2.5,-0.5L0,-3.0L2.5,-0.5"/>
                </g>
               <g id="resetDef">
                       <use xlink:href="#rim2" fill="#404040">
                               <set attributeName="fill" to="#808080" begin="reset.mouseover" end="reset.mouseout"/>
                       </use>
               </g>
        </defs>

<script type="text/javascript">
var viewWidth = 1849;
var viewHeight = 398;
var sectionId = 'dynsection-0';
</script>
<script xlink:href="../../svgpan.js"/>
<svg id="graph" class="graph">
<g id="viewport">
<title>/home/travis/build/AliceO2Group/AliceO2/Framework/Core/src/InputRecord.cxx</title>
<!-- Node1 -->
<g id="node1" class="node"><title>Node1</title>
<polygon fill="#bfbfbf" stroke="black" points="158,-348.5 158,-389.5 342,-389.5 342,-348.5 158,-348.5"/>
<text text-anchor="start" x="166" y="-377.5" font-family="Helvetica,sans-Serif" font-size="10.00">/home/travis/build</text>
<text text-anchor="start" x="166" y="-366.5" font-family="Helvetica,sans-Serif" font-size="10.00">/AliceO2Group/AliceO2</text>
<text text-anchor="middle" x="250" y="-355.5" font-family="Helvetica,sans-Serif" font-size="10.00">/Framework/Core/src/InputRecord.cxx</text>
</g>
<!-- Node2 -->
<g id="node2" class="node"><title>Node2</title>
<g id="a_node2"><a xlink:href="../../d6/d5c/InputRecord_8h.html" target="_top" xlink:title="Framework/InputRecord.h">
<polygon fill="none" stroke="black" points="359,-292.5 359,-311.5 489,-311.5 489,-292.5 359,-292.5"/>
<text text-anchor="middle" x="424" y="-299.5" font-family="Helvetica,sans-Serif" font-size="10.00">Framework/InputRecord.h</text>
</a>
</g>
</g>
<!-- Node1&#45;&gt;Node2 -->
<g id="edge1" class="edge"><title>Node1&#45;&gt;Node2</title>
<path fill="none" stroke="midnightblue" d="M302.206,-348.498C331.192,-337.67 366.347,-324.537 391.423,-315.17"/>
<polygon fill="midnightblue" stroke="midnightblue" points="392.695,-318.431 400.838,-311.652 390.245,-311.873 392.695,-318.431"/>
</g>
<!-- Node8 -->
<g id="node8" class="node"><title>Node8</title>
<polygon fill="none" stroke="#bfbfbf" points="189.5,-68.5 189.5,-87.5 238.5,-87.5 238.5,-68.5 189.5,-68.5"/>
<text text-anchor="middle" x="214" y="-75.5" font-family="Helvetica,sans-Serif" font-size="10.00">cassert</text>
</g>
<!-- Node1&#45;&gt;Node8 -->
<g id="edge65" class="edge"><title>Node1&#45;&gt;Node8</title>
<path fill="none" stroke="midnightblue" d="M209.075,-348.277C160.736,-322.225 83.5377,-271.177 57,-200 44.798,-167.273 51.9875,-148.379 77,-124 104.584,-97.1149 148.498,-86.2916 179.149,-81.9348"/>
<polygon fill="midnightblue" stroke="midnightblue" points="179.904,-85.3676 189.389,-80.6477 179.031,-78.4222 179.904,-85.3676"/>
</g>
<!-- Node25 -->
<g id="node25" class="node"><title>Node25</title>
<polygon fill="none" stroke="#bfbfbf" points="1609.5,-68.5 1609.5,-87.5 1736.5,-87.5 1736.5,-68.5 1609.5,-68.5"/>
<text text-anchor="middle" x="1673" y="-75.5" font-family="Helvetica,sans-Serif" font-size="10.00">fairmq/FairMQMessage.h</text>
</g>
<!-- Node1&#45;&gt;Node25 -->
<g id="edge64" class="edge"><title>Node1&#45;&gt;Node25</title>
<path fill="none" stroke="midnightblue" d="M342.125,-365.849C681.311,-357.333 1841,-322.681 1841,-247 1841,-247 1841,-247 1841,-189 1841,-133.227 1775.39,-104.204 1726.18,-90.2781"/>
<polygon fill="midnightblue" stroke="midnightblue" points="1726.83,-86.8296 1716.26,-87.611 1725.01,-93.5892 1726.83,-86.8296"/>
</g>
<!-- Node39 -->
<g id="node39" class="node"><title>Node39</title>
<g id="a_node39"><a xlink:href="../../d5/d3f/InputSpec_8h.html" target="_top" xlink:title="Framework/InputSpec.h">
<polygon fill="none" stroke="black" points="66.5,-180.5 66.5,-199.5 187.5,-199.5 187.5,-180.5 66.5,-180.5"/>
<text text-anchor="middle" x="127" y="-187.5" font-family="Helvetica,sans-Serif" font-size="10.00">Framework/InputSpec.h</text>
</a>
</g>
</g>
<!-- Node1&#45;&gt;Node39 -->
<g id="edge63" class="edge"><title>Node1&#45;&gt;Node39</title>
<path fill="none" stroke="midnightblue" d="M219.383,-348.355C191.594,-328.665 152.127,-295.632 133,-256 126.073,-241.647 124.946,-223.449 125.337,-209.962"/>
<polygon fill="midnightblue" stroke="midnightblue" points="128.834,-210.116 125.928,-199.927 121.846,-209.704 128.834,-210.116"/>
</g>
<!-- Node3 -->
<g id="node3" class="node"><title>Node3</title>
<g id="a_node3"><a xlink:href="../../d5/dfb/DataRef_8h.html" target="_top" xlink:title="Framework/DataRef.h">
<polygon fill="none" stroke="black" points="581.5,-124.5 581.5,-143.5 694.5,-143.5 694.5,-124.5 581.5,-124.5"/>
<text text-anchor="middle" x="638" y="-131.5" font-family="Helvetica,sans-Serif" font-size="10.00">Framework/DataRef.h</text>
</a>
</g>
</g>
<!-- Node2&#45;&gt;Node3 -->
<g id="edge2" class="edge"><title>Node2&#45;&gt;Node3</title>
<path fill="none" stroke="midnightblue" d="M483.272,-292.466C510.99,-286.094 543.078,-275.051 567,-256 601.329,-228.662 622.505,-179.868 632.038,-153.362"/>
<polygon fill="midnightblue" stroke="midnightblue" points="635.388,-154.385 635.32,-143.79 628.766,-152.115 635.388,-154.385"/>
</g>
<!-- Node4 -->
<g id="node4" class="node"><title>Node4</title>
<g id="a_node4"><a xlink:href="../../d5/db8/DataRefUtils_8h.html" target="_top" xlink:title="Framework/DataRefUtils.h">
<polygon fill="none" stroke="black" points="831,-180.5 831,-199.5 965,-199.5 965,-180.5 831,-180.5"/>
<text text-anchor="middle" x="898" y="-187.5" font-family="Helvetica,sans-Serif" font-size="10.00">Framework/DataRefUtils.h</text>
</a>
</g>
</g>
<!-- Node2&#45;&gt;Node4 -->
<g id="edge3" class="edge"><title>Node2&#45;&gt;Node4</title>
<path fill="none" stroke="midnightblue" d="M463.922,-292.43C505.084,-283.538 571.102,-269.123 628,-256 707.666,-237.626 800.257,-215.074 853.696,-201.941"/>
<polygon fill="midnightblue" stroke="midnightblue" points="854.652,-205.31 863.527,-199.523 852.98,-198.513 854.652,-205.31"/>
</g>
<!-- Node7 -->
<g id="node7" class="node"><title>Node7</title>
<polygon fill="none" stroke="#bfbfbf" points="978,-68.5 978,-87.5 1030,-87.5 1030,-68.5 978,-68.5"/>
<text text-anchor="middle" x="1004" y="-75.5" font-family="Helvetica,sans-Serif" font-size="10.00">memory</text>
</g>
<!-- Node2&#45;&gt;Node7 -->
<g id="edge61" class="edge"><title>Node2&#45;&gt;Node7</title>
<path fill="none" stroke="midnightblue" d="M489.02,-297.846C655.447,-288.24 1089.55,-253.002 1172,-144 1177.36,-136.911 1177.41,-131.052 1172,-124 1170.97,-122.658 1089.02,-101.133 1039.97,-88.3471"/>
<polygon fill="midnightblue" stroke="midnightblue" points="1040.6,-84.8954 1030.04,-85.7618 1038.84,-91.6694 1040.6,-84.8954"/>
</g>
<!-- Node2&#45;&gt;Node8 -->
<g id="edge59" class="edge"><title>Node2&#45;&gt;Node8</title>
<path fill="none" stroke="midnightblue" d="M385.019,-292.498C363.222,-285.898 337.085,-274.633 320,-256 278.207,-210.42 312.55,-173.883 276,-124 266.575,-111.137 252.378,-100.452 239.947,-92.726"/>
<polygon fill="midnightblue" stroke="midnightblue" points="241.694,-89.6928 231.301,-87.6347 238.142,-95.7248 241.694,-89.6928"/>
</g>
<!-- Node9 -->
<g id="node9" class="node"><title>Node9</title>
<polygon fill="none" stroke="#bfbfbf" points="70,-6.5 70,-25.5 116,-25.5 116,-6.5 70,-6.5"/>
<text text-anchor="middle" x="93" y="-13.5" font-family="Helvetica,sans-Serif" font-size="10.00">cstring</text>
</g>
<!-- Node2&#45;&gt;Node9 -->
<g id="edge58" class="edge"><title>Node2&#45;&gt;Node9</title>
<path fill="none" stroke="midnightblue" d="M406.364,-292.387C391.833,-284.561 371.492,-271.833 358,-256 295.065,-182.146 328.72,-120.317 247,-68 199.388,-37.5187 177.857,-52.0548 125,-32 123.15,-31.2981 121.258,-30.5349 119.365,-29.7371"/>
<polygon fill="midnightblue" stroke="midnightblue" points="120.624,-26.4663 110.066,-25.5826 117.768,-32.8574 120.624,-26.4663"/>
</g>
<!-- Node12 -->
<g id="node12" class="node"><title>Node12</title>
<polygon fill="none" stroke="#bfbfbf" points="-0.5,-6.5 -0.5,-25.5 40.5,-25.5 40.5,-6.5 -0.5,-6.5"/>
<text text-anchor="middle" x="20" y="-13.5" font-family="Helvetica,sans-Serif" font-size="10.00">string</text>
</g>
<!-- Node2&#45;&gt;Node12 -->
<g id="edge56" class="edge"><title>Node2&#45;&gt;Node12</title>
<path fill="none" stroke="midnightblue" d="M358.932,-298.143C298.754,-293.836 207.616,-283.044 133,-256 87.6391,-239.56 70.8524,-237.095 40,-200 0.3517,-152.33 9.31051,-71.8137 15.9749,-35.612"/>
<polygon fill="midnightblue" stroke="midnightblue" points="19.4655,-36.0052 17.9936,-25.5131 12.6013,-34.6331 19.4655,-36.0052"/>
</g>
<!-- Node18 -->
<g id="node18" class="node"><title>Node18</title>
<polygon fill="none" stroke="#bfbfbf" points="1466,-6.5 1466,-25.5 1528,-25.5 1528,-6.5 1466,-6.5"/>
<text text-anchor="middle" x="1497" y="-13.5" font-family="Helvetica,sans-Serif" font-size="10.00">type_traits</text>
</g>
<!-- Node2&#45;&gt;Node18 -->
<g id="edge62" class="edge"><title>Node2&#45;&gt;Node18</title>
<path fill="none" stroke="midnightblue" d="M489.123,-299.261C762.466,-291.539 1803,-257.76 1803,-191 1803,-191 1803,-191 1803,-133 1803,-98.6051 1789.5,-87.2496 1761,-68 1725.27,-43.8709 1603.66,-28.0101 1538.7,-21.0481"/>
<polygon fill="midnightblue" stroke="midnightblue" points="1538.71,-17.5304 1528.4,-19.9682 1537.98,-24.4922 1538.71,-17.5304"/>
</g>
<!-- Node20 -->
<g id="node20" class="node"><title>Node20</title>
<polygon fill="none" stroke="#bfbfbf" points="962,-6.5 962,-25.5 1006,-25.5 1006,-6.5 962,-6.5"/>
<text text-anchor="middle" x="984" y="-13.5" font-family="Helvetica,sans-Serif" font-size="10.00">vector</text>
</g>
<!-- Node2&#45;&gt;Node20 -->
<g id="edge57" class="edge"><title>Node2&#45;&gt;Node20</title>
<path fill="none" stroke="midnightblue" d="M414.98,-292.34C406.928,-283.932 395.702,-270.363 391,-256 381.746,-227.733 328.395,-140.441 400,-68 443.208,-24.2872 892.474,-47.3094 952,-32 954.496,-31.3581 957.034,-30.5231 959.533,-29.5756"/>
<polygon fill="midnightblue" stroke="midnightblue" points="961.04,-32.7371 968.81,-25.5346 958.244,-26.3196 961.04,-32.7371"/>
</g>
<!-- Node34 -->
<g id="node34" class="node"><title>Node34</title>
<g id="a_node34"><a xlink:href="../../d0/d95/TypeTraits_8h.html" target="_top" xlink:title="Framework/TypeTraits.h">
<polygon fill="none" stroke="black" points="836.5,-68.5 836.5,-87.5 959.5,-87.5 959.5,-68.5 836.5,-68.5"/>
<text text-anchor="middle" x="898" y="-75.5" font-family="Helvetica,sans-Serif" font-size="10.00">Framework/TypeTraits.h</text>
</a>
</g>
</g>
<!-- Node2&#45;&gt;Node34 -->
<g id="edge54" class="edge"><title>Node2&#45;&gt;Node34</title>
<path fill="none" stroke="midnightblue" d="M467.502,-292.49C489.904,-286.009 516.009,-274.862 533,-256 573.944,-210.549 525.622,-163.891 572,-124 574.41,-121.927 731.1,-100.978 826.343,-88.4069"/>
<polygon fill="midnightblue" stroke="midnightblue" points="827.043,-91.845 836.499,-87.0674 826.127,-84.9051 827.043,-91.845"/>
</g>
<!-- Node38 -->
<g id="node38" class="node"><title>Node38</title>
<g id="a_node38"><a xlink:href="../../d5/d19/InputRoute_8h.html" target="_top" xlink:title="Framework/InputRoute.h">
<polygon fill="none" stroke="black" points="142.5,-236.5 142.5,-255.5 267.5,-255.5 267.5,-236.5 142.5,-236.5"/>
<text text-anchor="middle" x="205" y="-243.5" font-family="Helvetica,sans-Serif" font-size="10.00">Framework/InputRoute.h</text>
</a>
</g>
</g>
<!-- Node2&#45;&gt;Node38 -->
<g id="edge46" class="edge"><title>Node2&#45;&gt;Node38</title>
<path fill="none" stroke="midnightblue" d="M389.299,-292.444C351.415,-283.102 290.651,-268.119 249.338,-257.933"/>
<polygon fill="midnightblue" stroke="midnightblue" points="250.086,-254.512 239.539,-255.516 248.41,-261.309 250.086,-254.512"/>
</g>
<!-- Node43 -->
<g id="node43" class="node"><title>Node43</title>
<polygon fill="none" stroke="#bfbfbf" points="400.5,-236.5 400.5,-255.5 447.5,-255.5 447.5,-236.5 400.5,-236.5"/>
<text text-anchor="middle" x="424" y="-243.5" font-family="Helvetica,sans-Serif" font-size="10.00">iterator</text>
</g>
<!-- Node2&#45;&gt;Node43 -->
<g id="edge55" class="edge"><title>Node2&#45;&gt;Node43</title>
<path fill="none" stroke="midnightblue" d="M424,-292.083C424,-285.006 424,-274.861 424,-265.986"/>
<polygon fill="midnightblue" stroke="midnightblue" points="427.5,-265.751 424,-255.751 420.5,-265.751 427.5,-265.751"/>
</g>
<!-- Node44 -->
<g id="node44" class="node"><title>Node44</title>
<polygon fill="none" stroke="#bfbfbf" points="465.5,-236.5 465.5,-255.5 524.5,-255.5 524.5,-236.5 465.5,-236.5"/>
<text text-anchor="middle" x="495" y="-243.5" font-family="Helvetica,sans-Serif" font-size="10.00">exception</text>
</g>
<!-- Node2&#45;&gt;Node44 -->
<g id="edge60" class="edge"><title>Node2&#45;&gt;Node44</title>
<path fill="none" stroke="midnightblue" d="M435.407,-292.324C446.109,-284.185 462.341,-271.839 475.163,-262.087"/>
<polygon fill="midnightblue" stroke="midnightblue" points="477.544,-264.673 483.385,-255.834 473.307,-259.102 477.544,-264.673"/>
</g>
<!-- Node4&#45;&gt;Node3 -->
<g id="edge4" class="edge"><title>Node4&#45;&gt;Node3</title>
<path fill="none" stroke="midnightblue" d="M856.802,-180.444C811.351,-171.004 738.158,-155.802 689.091,-145.611"/>
<polygon fill="midnightblue" stroke="midnightblue" points="689.508,-142.123 679.005,-143.516 688.084,-148.977 689.508,-142.123"/>
</g>
<!-- Node5 -->
<g id="node5" class="node"><title>Node5</title>
<g id="a_node5"><a xlink:href="../../dc/dcd/DataHeader_8h.html" target="_top" xlink:title="Headers/DataHeader.h">
<polygon fill="none" stroke="black" points="407.5,-124.5 407.5,-143.5 524.5,-143.5 524.5,-124.5 407.5,-124.5"/>
<text text-anchor="middle" x="466" y="-131.5" font-family="Helvetica,sans-Serif" font-size="10.00">Headers/DataHeader.h</text>
</a>
</g>
</g>
<!-- Node4&#45;&gt;Node5 -->
<g id="edge5" class="edge"><title>Node4&#45;&gt;Node5</title>
<path fill="none" stroke="midnightblue" d="M830.974,-180.622C750.406,-170.551 615.922,-153.74 534.641,-143.58"/>
<polygon fill="midnightblue" stroke="midnightblue" points="534.869,-140.081 524.512,-142.314 534.001,-147.027 534.869,-140.081"/>
</g>
<!-- Node11 -->
<g id="node11" class="node"><title>Node11</title>
<polygon fill="none" stroke="#bfbfbf" points="759.5,-68.5 759.5,-87.5 818.5,-87.5 818.5,-68.5 759.5,-68.5"/>
<text text-anchor="middle" x="789" y="-75.5" font-family="Helvetica,sans-Serif" font-size="10.00">stdexcept</text>
</g>
<!-- Node4&#45;&gt;Node11 -->
<g id="edge42" class="edge"><title>Node4&#45;&gt;Node11</title>
<path fill="none" stroke="midnightblue" d="M844.014,-180.477C804.044,-172.936 754.455,-160.556 742,-144 729.122,-126.882 748.691,-106.866 766.362,-93.6164"/>
<polygon fill="midnightblue" stroke="midnightblue" points="768.589,-96.3283 774.734,-87.6977 764.548,-90.6124 768.589,-96.3283"/>
</g>
<!-- Node4&#45;&gt;Node18 -->
<g id="edge44" class="edge"><title>Node4&#45;&gt;Node18</title>
<path fill="none" stroke="midnightblue" d="M965.002,-186.148C1156.33,-177.31 1694.69,-147.334 1745,-88 1750.75,-81.2204 1750.62,-74.8894 1745,-68 1719.41,-36.6152 1602.2,-23.9893 1538.5,-19.3771"/>
<polygon fill="midnightblue" stroke="midnightblue" points="1538.6,-15.8758 1528.38,-18.6794 1538.12,-22.8593 1538.6,-15.8758"/>
</g>
<!-- Node24 -->
<g id="node24" class="node"><title>Node24</title>
<g id="a_node24"><a xlink:href="../../d8/d3c/TMessageSerializer_8h.html" target="_top" xlink:title="Framework/TMessageSerializer.h">
<polygon fill="none" stroke="black" points="1235.5,-124.5 1235.5,-143.5 1398.5,-143.5 1398.5,-124.5 1235.5,-124.5"/>
<text text-anchor="middle" x="1317" y="-131.5" font-family="Helvetica,sans-Serif" font-size="10.00">Framework/TMessageSerializer.h</text>
</a>
</g>
</g>
<!-- Node4&#45;&gt;Node24 -->
<g id="edge26" class="edge"><title>Node4&#45;&gt;Node24</title>
<path fill="none" stroke="midnightblue" d="M964.392,-180.444C1039.48,-170.767 1161.54,-155.035 1240.55,-144.853"/>
<polygon fill="midnightblue" stroke="midnightblue" points="1241.45,-148.266 1250.92,-143.516 1240.55,-141.323 1241.45,-148.266"/>
</g>
<!-- Node33 -->
<g id="node33" class="node"><title>Node33</title>
<g id="a_node33"><a xlink:href="../../d1/d53/SerializationMethods_8h.html" target="_top" xlink:title="Type wrappers for enfording a specific serialization method. ">
<polygon fill="none" stroke="black" points="814.5,-124.5 814.5,-143.5 981.5,-143.5 981.5,-124.5 814.5,-124.5"/>
<text text-anchor="middle" x="898" y="-131.5" font-family="Helvetica,sans-Serif" font-size="10.00">Framework/SerializationMethods.h</text>
</a>
</g>
</g>
<!-- Node4&#45;&gt;Node33 -->
<g id="edge36" class="edge"><title>Node4&#45;&gt;Node33</title>
<path fill="none" stroke="midnightblue" d="M898,-180.083C898,-173.006 898,-162.861 898,-153.986"/>
<polygon fill="midnightblue" stroke="midnightblue" points="901.5,-153.751 898,-143.751 894.5,-153.751 901.5,-153.751"/>
</g>
<!-- Node4&#45;&gt;Node34 -->
<g id="edge40" class="edge"><title>Node4&#45;&gt;Node34</title>
<path fill="none" stroke="midnightblue" d="M931.385,-180.484C964.188,-170.348 1007.03,-151.292 990,-124 980.242,-108.364 963.303,-98.013 946.598,-91.2301"/>
<polygon fill="midnightblue" stroke="midnightblue" points="947.438,-87.8098 936.845,-87.6357 945.018,-94.378 947.438,-87.8098"/>
</g>
<!-- Node35 -->
<g id="node35" class="node"><title>Node35</title>
<polygon fill="none" stroke="#bfbfbf" points="1037,-124.5 1037,-143.5 1093,-143.5 1093,-124.5 1037,-124.5"/>
<text text-anchor="middle" x="1065" y="-131.5" font-family="Helvetica,sans-Serif" font-size="10.00">TClass.h</text>
</g>
<!-- Node4&#45;&gt;Node35 -->
<g id="edge41" class="edge"><title>Node4&#45;&gt;Node35</title>
<path fill="none" stroke="midnightblue" d="M924.462,-180.444C952.678,-171.32 997.54,-156.813 1028.97,-146.651"/>
<polygon fill="midnightblue" stroke="midnightblue" points="1030.22,-149.923 1038.66,-143.516 1028.07,-143.263 1030.22,-149.923"/>
</g>
<!-- Node36 -->
<g id="node36" class="node"><title>Node36</title>
<polygon fill="none" stroke="#bfbfbf" points="1111,-124.5 1111,-143.5 1163,-143.5 1163,-124.5 1111,-124.5"/>
<text text-anchor="middle" x="1137" y="-131.5" font-family="Helvetica,sans-Serif" font-size="10.00">sstream</text>
</g>
<!-- Node4&#45;&gt;Node36 -->
<g id="edge43" class="edge"><title>Node4&#45;&gt;Node36</title>
<path fill="none" stroke="midnightblue" d="M938.13,-180.436C977.051,-172.057 1038.02,-158.736 1100.62,-144.038"/>
<polygon fill="midnightblue" stroke="midnightblue" points="1101.74,-147.369 1110.67,-141.668 1100.14,-140.555 1101.74,-147.369"/>
</g>
<!-- Node37 -->
<g id="node37" class="node"><title>Node37</title>
<polygon fill="none" stroke="#bfbfbf" points="751.5,-124.5 751.5,-143.5 796.5,-143.5 796.5,-124.5 751.5,-124.5"/>
<text text-anchor="middle" x="774" y="-131.5" font-family="Helvetica,sans-Serif" font-size="10.00">gsl/gsl</text>
</g>
<!-- Node4&#45;&gt;Node37 -->
<g id="edge45" class="edge"><title>Node4&#45;&gt;Node37</title>
<path fill="none" stroke="midnightblue" d="M878.352,-180.444C858.035,-171.596 826.097,-157.687 802.902,-147.586"/>
<polygon fill="midnightblue" stroke="midnightblue" points="804.122,-144.3 793.556,-143.516 801.327,-150.718 804.122,-144.3"/>
</g>
<!-- Node6 -->
<g id="node6" class="node"><title>Node6</title>
<polygon fill="none" stroke="#bfbfbf" points="695,-68.5 695,-87.5 741,-87.5 741,-68.5 695,-68.5"/>
<text text-anchor="middle" x="718" y="-75.5" font-family="Helvetica,sans-Serif" font-size="10.00">cstdint</text>
</g>
<!-- Node5&#45;&gt;Node6 -->
<g id="edge6" class="edge"><title>Node5&#45;&gt;Node6</title>
<path fill="none" stroke="midnightblue" d="M511.907,-124.448C556.348,-115.962 625.539,-102.202 685,-88 685.101,-87.9759 685.202,-87.9516 685.304,-87.9273"/>
<polygon fill="midnightblue" stroke="midnightblue" points="686.133,-91.3278 694.969,-85.4818 684.416,-84.5417 686.133,-91.3278"/>
</g>
<!-- Node5&#45;&gt;Node7 -->
<g id="edge7" class="edge"><title>Node5&#45;&gt;Node7</title>
<path fill="none" stroke="midnightblue" d="M524.938,-127.964C644.154,-117.745 907.096,-95.0356 967.795,-87.4722"/>
<polygon fill="midnightblue" stroke="midnightblue" points="968.343,-90.9297 977.754,-86.0628 967.362,-83.9988 968.343,-90.9297"/>
</g>
<!-- Node5&#45;&gt;Node8 -->
<g id="edge8" class="edge"><title>Node5&#45;&gt;Node8</title>
<path fill="none" stroke="midnightblue" d="M426.07,-124.444C377.04,-113.937 294.705,-96.2938 248.369,-86.3647"/>
<polygon fill="midnightblue" stroke="midnightblue" points="249.014,-82.9237 238.503,-84.2506 247.548,-89.7683 249.014,-82.9237"/>
</g>
<!-- Node5&#45;&gt;Node9 -->
<g id="edge9" class="edge"><title>Node5&#45;&gt;Node9</title>
<path fill="none" stroke="midnightblue" d="M449.731,-124.293C423.125,-110.405 368.319,-83.251 319,-68 235.22,-42.0926 208.49,-58.8277 125,-32 122.864,-31.3137 120.686,-30.5175 118.52,-29.6567"/>
<polygon fill="midnightblue" stroke="midnightblue" points="119.848,-26.4173 109.284,-25.6108 117.039,-32.8291 119.848,-26.4173"/>
</g>
<!-- Node10 -->
<g id="node10" class="node"><title>Node10</title>
<polygon fill="none" stroke="#bfbfbf" points="621,-68.5 621,-87.5 677,-87.5 677,-68.5 621,-68.5"/>
<text text-anchor="middle" x="649" y="-75.5" font-family="Helvetica,sans-Serif" font-size="10.00">algorithm</text>
</g>
<!-- Node5&#45;&gt;Node10 -->
<g id="edge10" class="edge"><title>Node5&#45;&gt;Node10</title>
<path fill="none" stroke="midnightblue" d="M494.997,-124.444C526.368,-115.186 576.516,-100.389 611.014,-90.2089"/>
<polygon fill="midnightblue" stroke="midnightblue" points="612.14,-93.5261 620.74,-87.339 610.158,-86.8123 612.14,-93.5261"/>
</g>
<!-- Node5&#45;&gt;Node11 -->
<g id="edge11" class="edge"><title>Node5&#45;&gt;Node11</title>
<path fill="none" stroke="midnightblue" d="M524.68,-124.92C580.062,-117.019 665.629,-104.103 749.307,-88.0189"/>
<polygon fill="midnightblue" stroke="midnightblue" points="750.084,-91.4334 759.235,-86.0936 748.752,-84.5614 750.084,-91.4334"/>
</g>
<!-- Node5&#45;&gt;Node12 -->
<g id="edge12" class="edge"><title>Node5&#45;&gt;Node12</title>
<path fill="none" stroke="midnightblue" d="M438.324,-124.419C388.135,-108.918 283.888,-77.0212 247,-68 165.21,-47.9973 142.129,-54.5366 61,-32 57.4307,-31.0085 53.7298,-29.8488 50.0778,-28.6214"/>
<polygon fill="midnightblue" stroke="midnightblue" points="51.2431,-25.3211 40.6483,-25.2828 48.9067,-31.9197 51.2431,-25.3211"/>
</g>
<!-- Node13 -->
<g id="node13" class="node"><title>Node13</title>
<g id="a_node13"><a xlink:href="../../dc/d03/MemoryResources_8h.html" target="_top" xlink:title="MemoryResources/MemoryResources.h">
<polygon fill="none" stroke="black" points="409.5,-68.5 409.5,-87.5 602.5,-87.5 602.5,-68.5 409.5,-68.5"/>
<text text-anchor="middle" x="506" y="-75.5" font-family="Helvetica,sans-Serif" font-size="10.00">MemoryResources/MemoryResources.h</text>
</a>
</g>
</g>
<!-- Node5&#45;&gt;Node13 -->
<g id="edge13" class="edge"><title>Node5&#45;&gt;Node13</title>
<path fill="none" stroke="midnightblue" d="M472.605,-124.083C478.255,-116.455 486.545,-105.264 493.451,-95.9408"/>
<polygon fill="midnightblue" stroke="midnightblue" points="496.378,-97.87 499.518,-87.7511 490.753,-93.7034 496.378,-97.87"/>
</g>
<!-- Node13&#45;&gt;Node9 -->
<g id="edge18" class="edge"><title>Node13&#45;&gt;Node9</title>
<path fill="none" stroke="midnightblue" d="M409.28,-69.1253C314.388,-60.761 176.64,-46.7347 125,-32 122.66,-31.3324 120.277,-30.5116 117.921,-29.6013"/>
<polygon fill="midnightblue" stroke="midnightblue" points="119.127,-26.3089 108.562,-25.5168 116.327,-32.7246 119.127,-26.3089"/>
</g>
<!-- Node13&#45;&gt;Node12 -->
<g id="edge19" class="edge"><title>Node13&#45;&gt;Node12</title>
<path fill="none" stroke="midnightblue" d="M409.396,-70.0671C298.913,-61.6382 125.045,-46.7091 61,-32 57.311,-31.1528 53.5012,-30.0653 49.7579,-28.8635"/>
<polygon fill="midnightblue" stroke="midnightblue" points="50.7286,-25.4953 40.1338,-25.5021 48.4204,-32.1038 50.7286,-25.4953"/>
</g>
<!-- Node14 -->
<g id="node14" class="node"><title>Node14</title>
<polygon fill="none" stroke="#bfbfbf" points="710,-1 710,-31 810,-31 810,-1 710,-1"/>
<text text-anchor="start" x="718" y="-19" font-family="Helvetica,sans-Serif" font-size="10.00">boost/container/flat</text>
<text text-anchor="middle" x="760" y="-8" font-family="Helvetica,sans-Serif" font-size="10.00">_map.hpp</text>
</g>
<!-- Node13&#45;&gt;Node14 -->
<g id="edge14" class="edge"><title>Node13&#45;&gt;Node14</title>
<path fill="none" stroke="midnightblue" d="M543.598,-68.4785C582.714,-59.5663 645.715,-45.0805 700,-32 700.101,-31.9756 700.202,-31.9512 700.304,-31.9268"/>
<polygon fill="midnightblue" stroke="midnightblue" points="701.036,-35.3508 709.925,-29.5864 699.381,-28.5491 701.036,-35.3508"/>
</g>
<!-- Node15 -->
<g id="node15" class="node"><title>Node15</title>
<polygon fill="none" stroke="#bfbfbf" points="828,-1 828,-31 944,-31 944,-1 828,-1"/>
<text text-anchor="start" x="836" y="-19" font-family="Helvetica,sans-Serif" font-size="10.00">boost/container/pmr</text>
<text text-anchor="middle" x="886" y="-8" font-family="Helvetica,sans-Serif" font-size="10.00">/memory_resource.hpp</text>
</g>
<!-- Node13&#45;&gt;Node15 -->
<g id="edge15" class="edge"><title>Node13&#45;&gt;Node15</title>
<path fill="none" stroke="midnightblue" d="M576.179,-68.4906C637.483,-60.6961 729.07,-48.1824 817.967,-32.1075"/>
<polygon fill="midnightblue" stroke="midnightblue" points="818.743,-35.5238 827.952,-30.2847 817.486,-28.6376 818.743,-35.5238"/>
</g>
<!-- Node16 -->
<g id="node16" class="node"><title>Node16</title>
<polygon fill="none" stroke="#bfbfbf" points="1024,-1 1024,-31 1180,-31 1180,-1 1024,-1"/>
<text text-anchor="start" x="1032" y="-19" font-family="Helvetica,sans-Serif" font-size="10.00">boost/container/pmr</text>
<text text-anchor="middle" x="1102" y="-8" font-family="Helvetica,sans-Serif" font-size="10.00">/monotonic_buffer_resource.hpp</text>
</g>
<!-- Node13&#45;&gt;Node16 -->
<g id="edge16" class="edge"><title>Node13&#45;&gt;Node16</title>
<path fill="none" stroke="midnightblue" d="M602.627,-68.6423C733.809,-57.2687 957.507,-37.7689 1013.69,-31.8176"/>
<polygon fill="midnightblue" stroke="midnightblue" points="1014.3,-35.2707 1023.84,-30.6587 1013.51,-28.3159 1014.3,-35.2707"/>
</g>
<!-- Node17 -->
<g id="node17" class="node"><title>Node17</title>
<polygon fill="none" stroke="#bfbfbf" points="134.5,-1 134.5,-31 267.5,-31 267.5,-1 134.5,-1"/>
<text text-anchor="start" x="142.5" y="-19" font-family="Helvetica,sans-Serif" font-size="10.00">boost/container/pmr</text>
<text text-anchor="middle" x="201" y="-8" font-family="Helvetica,sans-Serif" font-size="10.00">/polymorphic_allocator.hpp</text>
</g>
<!-- Node13&#45;&gt;Node17 -->
<g id="edge17" class="edge"><title>Node13&#45;&gt;Node17</title>
<path fill="none" stroke="midnightblue" d="M462.523,-68.4676C418.528,-59.8311 348.267,-46.0316 277.686,-32.1343"/>
<polygon fill="midnightblue" stroke="midnightblue" points="278.215,-28.6713 267.727,-30.1731 276.863,-35.5394 278.215,-28.6713"/>
</g>
<!-- Node13&#45;&gt;Node18 -->
<g id="edge20" class="edge"><title>Node13&#45;&gt;Node18</title>
<path fill="none" stroke="midnightblue" d="M602.754,-68.676C605.872,-68.4426 608.96,-68.2166 612,-68 936.758,-44.86 1329.14,-25.1368 1455.6,-18.9856"/>
<polygon fill="midnightblue" stroke="midnightblue" points="1455.81,-22.4797 1465.63,-18.4993 1455.47,-15.4879 1455.81,-22.4797"/>
</g>
<!-- Node19 -->
<g id="node19" class="node"><title>Node19</title>
<polygon fill="none" stroke="#bfbfbf" points="286,-6.5 286,-25.5 326,-25.5 326,-6.5 286,-6.5"/>
<text text-anchor="middle" x="306" y="-13.5" font-family="Helvetica,sans-Serif" font-size="10.00">utility</text>
</g>
<!-- Node13&#45;&gt;Node19 -->
<g id="edge21" class="edge"><title>Node13&#45;&gt;Node19</title>
<path fill="none" stroke="midnightblue" d="M463.016,-68.4425C427.93,-60.8073 377.402,-48.3165 335,-32 333.4,-31.3842 331.773,-30.7045 330.148,-29.9846"/>
<polygon fill="midnightblue" stroke="midnightblue" points="331.587,-26.7928 321.061,-25.5867 328.537,-33.0937 331.587,-26.7928"/>
</g>
<!-- Node13&#45;&gt;Node20 -->
<g id="edge22" class="edge"><title>Node13&#45;&gt;Node20</title>
<path fill="none" stroke="midnightblue" d="M598.22,-68.4937C723.85,-56.7892 935.215,-36.6353 952,-32 954.345,-31.3523 956.732,-30.5453 959.091,-29.644"/>
<polygon fill="midnightblue" stroke="midnightblue" points="960.678,-32.7703 968.454,-25.5736 957.887,-26.3507 960.678,-32.7703"/>
</g>
<!-- Node21 -->
<g id="node21" class="node"><title>Node21</title>
<polygon fill="none" stroke="#bfbfbf" points="344.5,-6.5 344.5,-25.5 427.5,-25.5 427.5,-6.5 344.5,-6.5"/>
<text text-anchor="middle" x="386" y="-13.5" font-family="Helvetica,sans-Serif" font-size="10.00">unordered_map</text>
</g>
<!-- Node13&#45;&gt;Node21 -->
<g id="edge23" class="edge"><title>Node13&#45;&gt;Node21</title>
<path fill="none" stroke="midnightblue" d="M488.807,-68.4035C468.757,-58.3787 435.401,-41.7006 412.14,-30.0699"/>
<polygon fill="midnightblue" stroke="midnightblue" points="413.671,-26.9223 403.161,-25.5806 410.54,-33.1833 413.671,-26.9223"/>
</g>
<!-- Node22 -->
<g id="node22" class="node"><title>Node22</title>
<polygon fill="none" stroke="#bfbfbf" points="445.5,-6.5 445.5,-25.5 542.5,-25.5 542.5,-6.5 445.5,-6.5"/>
<text text-anchor="middle" x="494" y="-13.5" font-family="Helvetica,sans-Serif" font-size="10.00">FairMQMessage.h</text>
</g>
<!-- Node13&#45;&gt;Node22 -->
<g id="edge24" class="edge"><title>Node13&#45;&gt;Node22</title>
<path fill="none" stroke="midnightblue" d="M504.281,-68.4035C502.57,-59.849 499.89,-46.4497 497.695,-35.4762"/>
<polygon fill="midnightblue" stroke="midnightblue" points="501.109,-34.7 495.716,-25.5806 494.245,-36.0728 501.109,-34.7"/>
</g>
<!-- Node23 -->
<g id="node23" class="node"><title>Node23</title>
<polygon fill="none" stroke="#bfbfbf" points="560.5,-6.5 560.5,-25.5 691.5,-25.5 691.5,-6.5 560.5,-6.5"/>
<text text-anchor="middle" x="626" y="-13.5" font-family="Helvetica,sans-Serif" font-size="10.00">FairMQTransportFactory.h</text>
</g>
<!-- Node13&#45;&gt;Node23 -->
<g id="edge25" class="edge"><title>Node13&#45;&gt;Node23</title>
<path fill="none" stroke="midnightblue" d="M523.193,-68.4035C543.243,-58.3787 576.599,-41.7006 599.86,-30.0699"/>
<polygon fill="midnightblue" stroke="midnightblue" points="601.46,-33.1833 608.839,-25.5806 598.329,-26.9223 601.46,-33.1833"/>
</g>
<!-- Node24&#45;&gt;Node7 -->
<g id="edge34" class="edge"><title>Node24&#45;&gt;Node7</title>
<path fill="none" stroke="midnightblue" d="M1254.04,-124.481C1199.82,-116.764 1119.28,-104.398 1040.42,-88.1469"/>
<polygon fill="midnightblue" stroke="midnightblue" points="1040.82,-84.6545 1030.31,-86.0405 1039.39,-91.5073 1040.82,-84.6545"/>
</g>
<!-- Node24&#45;&gt;Node25 -->
<g id="edge27" class="edge"><title>Node24&#45;&gt;Node25</title>
<path fill="none" stroke="midnightblue" d="M1373.41,-124.444C1436.81,-114.826 1539.65,-99.2275 1606.8,-89.0409"/>
<polygon fill="midnightblue" stroke="midnightblue" points="1607.49,-92.4766 1616.85,-87.5164 1606.44,-85.5558 1607.49,-92.4766"/>
</g>
<!-- Node26 -->
<g id="node26" class="node"><title>Node26</title>
<polygon fill="none" stroke="#bfbfbf" points="1048.5,-68.5 1048.5,-87.5 1095.5,-87.5 1095.5,-68.5 1048.5,-68.5"/>
<text text-anchor="middle" x="1072" y="-75.5" font-family="Helvetica,sans-Serif" font-size="10.00">TList.h</text>
</g>
<!-- Node24&#45;&gt;Node26 -->
<g id="edge28" class="edge"><title>Node24&#45;&gt;Node26</title>
<path fill="none" stroke="midnightblue" d="M1272.34,-124.456C1231.3,-116.405 1168.58,-103.602 1105.79,-88.3308"/>
<polygon fill="midnightblue" stroke="midnightblue" points="1106.27,-84.8429 1095.72,-85.859 1104.6,-91.6413 1106.27,-84.8429"/>
</g>
<!-- Node27 -->
<g id="node27" class="node"><title>Node27</title>
<polygon fill="none" stroke="#bfbfbf" points="1113.5,-68.5 1113.5,-87.5 1184.5,-87.5 1184.5,-68.5 1113.5,-68.5"/>
<text text-anchor="middle" x="1149" y="-75.5" font-family="Helvetica,sans-Serif" font-size="10.00">TMessage.h</text>
</g>
<!-- Node24&#45;&gt;Node27 -->
<g id="edge29" class="edge"><title>Node24&#45;&gt;Node27</title>
<path fill="none" stroke="midnightblue" d="M1290.38,-124.444C1261.99,-115.32 1216.86,-100.813 1185.25,-90.6509"/>
<polygon fill="midnightblue" stroke="midnightblue" points="1186.09,-87.2445 1175.5,-87.5164 1183.94,-93.9087 1186.09,-87.2445"/>
</g>
<!-- Node28 -->
<g id="node28" class="node"><title>Node28</title>
<polygon fill="none" stroke="#bfbfbf" points="1202.5,-68.5 1202.5,-87.5 1271.5,-87.5 1271.5,-68.5 1202.5,-68.5"/>
<text text-anchor="middle" x="1237" y="-75.5" font-family="Helvetica,sans-Serif" font-size="10.00">TObjArray.h</text>
</g>
<!-- Node24&#45;&gt;Node28 -->
<g id="edge30" class="edge"><title>Node24&#45;&gt;Node28</title>
<path fill="none" stroke="midnightblue" d="M1304.15,-124.324C1291.78,-115.979 1272.87,-103.212 1258.26,-93.3524"/>
<polygon fill="midnightblue" stroke="midnightblue" points="1260.07,-90.3483 1249.82,-87.6545 1256.15,-96.1503 1260.07,-90.3483"/>
</g>
<!-- Node29 -->
<g id="node29" class="node"><title>Node29</title>
<polygon fill="none" stroke="#bfbfbf" points="1289.5,-68.5 1289.5,-87.5 1376.5,-87.5 1376.5,-68.5 1289.5,-68.5"/>
<text text-anchor="middle" x="1333" y="-75.5" font-family="Helvetica,sans-Serif" font-size="10.00">TStreamerInfo.h</text>
</g>
<!-- Node24&#45;&gt;Node29 -->
<g id="edge31" class="edge"><title>Node24&#45;&gt;Node29</title>
<path fill="none" stroke="midnightblue" d="M1319.64,-124.083C1321.79,-116.849 1324.88,-106.409 1327.55,-97.3968"/>
<polygon fill="midnightblue" stroke="midnightblue" points="1330.92,-98.3334 1330.41,-87.7511 1324.21,-96.3447 1330.92,-98.3334"/>
</g>
<!-- Node30 -->
<g id="node30" class="node"><title>Node30</title>
<polygon fill="none" stroke="#bfbfbf" points="1394.5,-68.5 1394.5,-87.5 1457.5,-87.5 1457.5,-68.5 1394.5,-68.5"/>
<text text-anchor="middle" x="1426" y="-75.5" font-family="Helvetica,sans-Serif" font-size="10.00">gsl/gsl_util</text>
</g>
<!-- Node24&#45;&gt;Node30 -->
<g id="edge32" class="edge"><title>Node24&#45;&gt;Node30</title>
<path fill="none" stroke="midnightblue" d="M1334.51,-124.324C1352.07,-115.625 1379.33,-102.12 1399.53,-92.113"/>
<polygon fill="midnightblue" stroke="midnightblue" points="1401.12,-95.23 1408.53,-87.6545 1398.02,-88.9575 1401.12,-95.23"/>
</g>
<!-- Node31 -->
<g id="node31" class="node"><title>Node31</title>
<polygon fill="none" stroke="#bfbfbf" points="1475.5,-68.5 1475.5,-87.5 1528.5,-87.5 1528.5,-68.5 1475.5,-68.5"/>
<text text-anchor="middle" x="1502" y="-75.5" font-family="Helvetica,sans-Serif" font-size="10.00">gsl/span</text>
</g>
<!-- Node24&#45;&gt;Node31 -->
<g id="edge33" class="edge"><title>Node24&#45;&gt;Node31</title>
<path fill="none" stroke="midnightblue" d="M1346.31,-124.444C1378.58,-115.024 1430.51,-99.8679 1465.42,-89.6774"/>
<polygon fill="midnightblue" stroke="midnightblue" points="1466.61,-92.977 1475.23,-86.8151 1464.65,-86.2574 1466.61,-92.977"/>
</g>
<!-- Node32 -->
<g id="node32" class="node"><title>Node32</title>
<polygon fill="none" stroke="#bfbfbf" points="1547,-68.5 1547,-87.5 1591,-87.5 1591,-68.5 1547,-68.5"/>
<text text-anchor="middle" x="1569" y="-75.5" font-family="Helvetica,sans-Serif" font-size="10.00">mutex</text>
</g>
<!-- Node24&#45;&gt;Node32 -->
<g id="edge35" class="edge"><title>Node24&#45;&gt;Node32</title>
<path fill="none" stroke="midnightblue" d="M1363.57,-124.489C1406.15,-116.478 1471.08,-103.697 1536.95,-87.86"/>
<polygon fill="midnightblue" stroke="midnightblue" points="1537.78,-91.2602 1546.67,-85.5015 1536.13,-84.4575 1537.78,-91.2602"/>
</g>
<!-- Node33&#45;&gt;Node34 -->
<g id="edge37" class="edge"><title>Node33&#45;&gt;Node34</title>
<path fill="none" stroke="midnightblue" d="M898,-124.083C898,-117.006 898,-106.861 898,-97.9865"/>
<polygon fill="midnightblue" stroke="midnightblue" points="901.5,-97.751 898,-87.7511 894.5,-97.7511 901.5,-97.751"/>
</g>
<!-- Node34&#45;&gt;Node18 -->
<g id="edge38" class="edge"><title>Node34&#45;&gt;Node18</title>
<path fill="none" stroke="midnightblue" d="M959.56,-69.0827C962.752,-68.7079 965.913,-68.3447 969,-68 1149.96,-47.7962 1366.34,-28.3797 1455.49,-20.5855"/>
<polygon fill="midnightblue" stroke="midnightblue" points="1456.06,-24.0489 1465.72,-19.6933 1455.46,-17.0754 1456.06,-24.0489"/>
</g>
<!-- Node34&#45;&gt;Node20 -->
<g id="edge39" class="edge"><title>Node34&#45;&gt;Node20</title>
<path fill="none" stroke="midnightblue" d="M910.322,-68.4035C924.116,-58.7797 946.699,-43.0242 963.232,-31.4891"/>
<polygon fill="midnightblue" stroke="midnightblue" points="965.503,-34.1729 971.701,-25.5806 961.497,-28.432 965.503,-34.1729"/>
</g>
<!-- Node38&#45;&gt;Node12 -->
<g id="edge53" class="edge"><title>Node38&#45;&gt;Node12</title>
<path fill="none" stroke="midnightblue" d="M159.498,-236.461C121.329,-228.378 70.8844,-215.234 57,-200 14.6408,-153.523 15.2343,-72.3919 18.0061,-35.822"/>
<polygon fill="midnightblue" stroke="midnightblue" points="21.5142,-35.8899 18.9309,-25.6149 14.5427,-35.2583 21.5142,-35.8899"/>
</g>
<!-- Node38&#45;&gt;Node39 -->
<g id="edge47" class="edge"><title>Node38&#45;&gt;Node39</title>
<path fill="none" stroke="midnightblue" d="M192.468,-236.324C180.414,-227.979 161.973,-215.212 147.731,-205.352"/>
<polygon fill="midnightblue" stroke="midnightblue" points="149.715,-202.469 139.501,-199.655 145.731,-208.224 149.715,-202.469"/>
</g>
<!-- Node42 -->
<g id="node42" class="node"><title>Node42</title>
<polygon fill="none" stroke="#bfbfbf" points="205.5,-180.5 205.5,-199.5 254.5,-199.5 254.5,-180.5 205.5,-180.5"/>
<text text-anchor="middle" x="230" y="-187.5" font-family="Helvetica,sans-Serif" font-size="10.00">cstddef</text>
</g>
<!-- Node38&#45;&gt;Node42 -->
<g id="edge52" class="edge"><title>Node38&#45;&gt;Node42</title>
<path fill="none" stroke="midnightblue" d="M209.128,-236.083C212.514,-228.77 217.416,-218.181 221.619,-209.103"/>
<polygon fill="midnightblue" stroke="midnightblue" points="224.923,-210.296 225.949,-199.751 218.571,-207.355 224.923,-210.296"/>
</g>
<!-- Node39&#45;&gt;Node5 -->
<g id="edge51" class="edge"><title>Node39&#45;&gt;Node5</title>
<path fill="none" stroke="midnightblue" d="M180.716,-180.444C240.969,-170.846 338.614,-155.292 402.571,-145.104"/>
<polygon fill="midnightblue" stroke="midnightblue" points="403.211,-148.546 412.536,-143.516 402.11,-141.633 403.211,-148.546"/>
</g>
<!-- Node39&#45;&gt;Node12 -->
<g id="edge48" class="edge"><title>Node39&#45;&gt;Node12</title>
<path fill="none" stroke="midnightblue" d="M114.558,-180.183C103.536,-171.866 87.5946,-158.533 77,-144 51.5874,-109.141 33.9013,-61.149 25.5219,-35.2863"/>
<polygon fill="midnightblue" stroke="midnightblue" points="28.8354,-34.1557 22.5051,-25.6599 22.1558,-36.249 28.8354,-34.1557"/>
</g>
<!-- Node40 -->
<g id="node40" class="node"><title>Node40</title>
<polygon fill="none" stroke="#bfbfbf" points="86,-124.5 86,-143.5 138,-143.5 138,-124.5 86,-124.5"/>
<text text-anchor="middle" x="112" y="-131.5" font-family="Helvetica,sans-Serif" font-size="10.00">ostream</text>
</g>
<!-- Node39&#45;&gt;Node40 -->
<g id="edge49" class="edge"><title>Node39&#45;&gt;Node40</title>
<path fill="none" stroke="midnightblue" d="M124.523,-180.083C122.514,-172.849 119.614,-162.409 117.11,-153.397"/>
<polygon fill="midnightblue" stroke="midnightblue" points="120.48,-152.449 114.431,-143.751 113.735,-154.323 120.48,-152.449"/>
</g>
<!-- Node41 -->
<g id="node41" class="node"><title>Node41</title>
<g id="a_node41"><a xlink:href="../../dc/dca/Lifetime_8h.html" target="_top" xlink:title="Framework/Lifetime.h">
<polygon fill="none" stroke="black" points="156.5,-124.5 156.5,-143.5 267.5,-143.5 267.5,-124.5 156.5,-124.5"/>
<text text-anchor="middle" x="212" y="-131.5" font-family="Helvetica,sans-Serif" font-size="10.00">Framework/Lifetime.h</text>
</a>
</g>
</g>
<!-- Node39&#45;&gt;Node41 -->
<g id="edge50" class="edge"><title>Node39&#45;&gt;Node41</title>
<path fill="none" stroke="midnightblue" d="M140.657,-180.324C153.916,-171.9 174.268,-158.971 189.846,-149.074"/>
<polygon fill="midnightblue" stroke="midnightblue" points="191.813,-151.971 198.377,-143.655 188.06,-146.063 191.813,-151.971"/>
</g>
</g>
</svg>
        <g id="navigator" transform="translate(0 0)" fill="#404254">
                <rect fill="#f2f5e9" fill-opacity="0.5" stroke="#606060" stroke-width=".5" x="0" y="0" width="60" height="60"/>
                <use id="zoomplus" xlink:href="#zoomPlus" x="17" y="9" onmousedown="handleZoom(evt,'in')"/>
                <use id="zoomminus" xlink:href="#zoomMin" x="42" y="9" onmousedown="handleZoom(evt,'out')"/>
                <use id="reset" xlink:href="#resetDef" x="30" y="36" onmousedown="handleReset()"/>
                <g id="arrowUp" xlink:href="#dirArrow" transform="translate(30 24)" onmousedown="handlePan(0,-1)">
                  <use xlink:href="#rim" fill="#404040">
                        <set attributeName="fill" to="#808080" begin="arrowUp.mouseover" end="arrowUp.mouseout"/>
                  </use>
                  <path fill="none" stroke="white" stroke-width="1.5" d="M0,-3.0v7 M-2.5,-0.5L0,-3.0L2.5,-0.5"/>
                </g>
                <g id="arrowRight" xlink:href="#dirArrow" transform="rotate(90) translate(36 -43)" onmousedown="handlePan(1,0)">
                  <use xlink:href="#rim" fill="#404040">
                        <set attributeName="fill" to="#808080" begin="arrowRight.mouseover" end="arrowRight.mouseout"/>
                  </use>
                  <path fill="none" stroke="white" stroke-width="1.5" d="M0,-3.0v7 M-2.5,-0.5L0,-3.0L2.5,-0.5"/>
                </g>
                <g id="arrowDown" xlink:href="#dirArrow" transform="rotate(180) translate(-30 -48)" onmousedown="handlePan(0,1)">
                  <use xlink:href="#rim" fill="#404040">
                        <set attributeName="fill" to="#808080" begin="arrowDown.mouseover" end="arrowDown.mouseout"/>
                  </use>
                  <path fill="none" stroke="white" stroke-width="1.5" d="M0,-3.0v7 M-2.5,-0.5L0,-3.0L2.5,-0.5"/>
                </g>
                <g id="arrowLeft" xlink:href="#dirArrow" transform="rotate(270) translate(-36 17)" onmousedown="handlePan(-1,0)">
                  <use xlink:href="#rim" fill="#404040">
                        <set attributeName="fill" to="#808080" begin="arrowLeft.mouseover" end="arrowLeft.mouseout"/>
                  </use>
                  <path fill="none" stroke="white" stroke-width="1.5" d="M0,-3.0v7 M-2.5,-0.5L0,-3.0L2.5,-0.5"/>
                </g>
        </g>
        <svg viewBox="0 0 15 15" width="100%" height="30px" preserveAspectRatio="xMaxYMin meet">
         <g id="arrow_out" transform="scale(0.3 0.3)">
          <a xlink:href="InputRecord_8cxx__incl_org.svg" target="_base">
           <rect id="button" ry="5" rx="5" y="6" x="6" height="38" width="38"
                fill="#f2f5e9" fill-opacity="0.5" stroke="#606060" stroke-width="1.0"/>
           <path id="arrow"
             d="M 11.500037,31.436501 C 11.940474,20.09759 22.043105,11.32322 32.158766,21.979434 L 37.068811,17.246167 C 37.068811,17.246167 37.088388,32 37.088388,32 L 22.160133,31.978069 C 22.160133,31.978069 26.997745,27.140456 26.997745,27.140456 C 18.528582,18.264221 13.291696,25.230495 11.500037,31.436501 z"
             style="fill:#404040;"/>
          </a>
         </g>
        </svg>
</svg>
