<?xml version="1.0" encoding="UTF-8" standalone="no"?>
<!DOCTYPE svg PUBLIC "-//W3C//DTD SVG 1.1//EN"
 "http://www.w3.org/Graphics/SVG/1.1/DTD/svg11.dtd">
<!-- Generated by graphviz version 2.36.0 (20140111.2315)
 -->
<!-- Title: o2::header::HeartbeatFrameEnvelope Pages: 1 -->
<svg width="1607pt" height="998pt"
 viewBox="0.00 0.00 1607.15 998.00" xmlns="http://www.w3.org/2000/svg" xmlns:xlink="http://www.w3.org/1999/xlink">
<g id="graph0" class="graph" transform="scale(1 1) rotate(0) translate(4 994)">
<title>o2::header::HeartbeatFrameEnvelope</title>
<!-- Node1 -->
<g id="node1" class="node"><title>Node1</title>
<polygon fill="#bfbfbf" stroke="black" points="815.523,-0.5 815.523,-79.5 958.523,-79.5 958.523,-0.5 815.523,-0.5"/>
<text text-anchor="start" x="823.523" y="-67.5" font-family="Helvetica,sans-Serif" font-size="10.00">o2::header::HeartbeatFrame</text>
<text text-anchor="middle" x="887.023" y="-56.5" font-family="Helvetica,sans-Serif" font-size="10.00">Envelope</text>
<polyline fill="none" stroke="black" points="815.523,-49.5 958.523,-49.5 "/>
<text text-anchor="middle" x="887.023" y="-37.5" font-family="Helvetica,sans-Serif" font-size="10.00"> </text>
<polyline fill="none" stroke="black" points="815.523,-30.5 958.523,-30.5 "/>
<text text-anchor="start" x="823.523" y="-18.5" font-family="Helvetica,sans-Serif" font-size="10.00">+ HeartbeatFrameEnvelope()</text>
<text text-anchor="start" x="823.523" y="-7.5" font-family="Helvetica,sans-Serif" font-size="10.00">+ HeartbeatFrameEnvelope()</text>
</g>
<!-- Node2 -->
<g id="node2" class="node"><title>Node2</title>
<g id="a_node2"><a xlink:href="../../d8/dbd/structo2_1_1header_1_1BaseHeader.html" target="_top" xlink:title="the base header struct Every header type must begin (i.e. derive) with this. Don&#39;t use this struct di...">
<polygon fill="none" stroke="black" points="631.023,-128.5 631.023,-273.5 753.023,-273.5 753.023,-128.5 631.023,-128.5"/>
<text text-anchor="middle" x="692.023" y="-261.5" font-family="Helvetica,sans-Serif" font-size="10.00">o2::header::BaseHeader</text>
<polyline fill="none" stroke="black" points="631.023,-254.5 753.023,-254.5 "/>
<text text-anchor="middle" x="692.023" y="-242.5" font-family="Helvetica,sans-Serif" font-size="10.00"> </text>
<polyline fill="none" stroke="black" points="631.023,-235.5 753.023,-235.5 "/>
<text text-anchor="start" x="639.023" y="-223.5" font-family="Helvetica,sans-Serif" font-size="10.00">+ BaseHeader()</text>
<text text-anchor="start" x="639.023" y="-212.5" font-family="Helvetica,sans-Serif" font-size="10.00">+ BaseHeader()</text>
<text text-anchor="start" x="639.023" y="-201.5" font-family="Helvetica,sans-Serif" font-size="10.00">+ BaseHeader()</text>
<text text-anchor="start" x="639.023" y="-190.5" font-family="Helvetica,sans-Serif" font-size="10.00">+ size()</text>
<text text-anchor="start" x="639.023" y="-179.5" font-family="Helvetica,sans-Serif" font-size="10.00">+ data()</text>
<text text-anchor="start" x="639.023" y="-168.5" font-family="Helvetica,sans-Serif" font-size="10.00">+ next()</text>
<text text-anchor="start" x="639.023" y="-157.5" font-family="Helvetica,sans-Serif" font-size="10.00">+ next()</text>
<text text-anchor="start" x="639.023" y="-146.5" font-family="Helvetica,sans-Serif" font-size="10.00">+ get()</text>
<text text-anchor="start" x="639.023" y="-135.5" font-family="Helvetica,sans-Serif" font-size="10.00">+ get()</text>
</a>
</g>
</g>
<!-- Node2&#45;&gt;Node1 -->
<g id="edge1" class="edge"><title>Node2&#45;&gt;Node1</title>
<path fill="none" stroke="midnightblue" d="M761.154,-143.632C787.159,-122.428 816.113,-98.819 839.689,-79.5957"/>
<polygon fill="none" stroke="midnightblue" points="758.726,-141.096 753.188,-150.128 763.15,-146.521 758.726,-141.096"/>
</g>
<!-- Node3 -->
<g id="node3" class="node"><title>Node3</title>
<g id="a_node3"><a xlink:href="../../d9/db3/structo2_1_1header_1_1Descriptor.html" target="_top" xlink:title="{o2::header::Descriptor\l\&lt; gSizeHeaderDescriptionString \&gt;\n||+ Descriptor()\l+ Descriptor()\l+ Descriptor()\l+ Descriptor()\l+ operator=()\l+ operator ItgType()\l+ runtimeInit()\l+ operator==()\l+ operator==()\l+ operator!=()\l+ operator!=()\l+ as()\l+ print()\l}">
<polygon fill="none" stroke="black" points="434.023,-399 434.023,-599 600.023,-599 600.023,-399 434.023,-399"/>
<text text-anchor="start" x="442.023" y="-587" font-family="Helvetica,sans-Serif" font-size="10.00">o2::header::Descriptor</text>
<text text-anchor="middle" x="517.023" y="-576" font-family="Helvetica,sans-Serif" font-size="10.00">&lt; gSizeHeaderDescriptionString &gt;</text>
<polyline fill="none" stroke="black" points="434.023,-569 600.023,-569 "/>
<text text-anchor="middle" x="517.023" y="-557" font-family="Helvetica,sans-Serif" font-size="10.00"> </text>
<polyline fill="none" stroke="black" points="434.023,-550 600.023,-550 "/>
<text text-anchor="start" x="442.023" y="-538" font-family="Helvetica,sans-Serif" font-size="10.00">+ Descriptor()</text>
<text text-anchor="start" x="442.023" y="-527" font-family="Helvetica,sans-Serif" font-size="10.00">+ Descriptor()</text>
<text text-anchor="start" x="442.023" y="-516" font-family="Helvetica,sans-Serif" font-size="10.00">+ Descriptor()</text>
<text text-anchor="start" x="442.023" y="-505" font-family="Helvetica,sans-Serif" font-size="10.00">+ Descriptor()</text>
<text text-anchor="start" x="442.023" y="-494" font-family="Helvetica,sans-Serif" font-size="10.00">+ operator=()</text>
<text text-anchor="start" x="442.023" y="-483" font-family="Helvetica,sans-Serif" font-size="10.00">+ operator ItgType()</text>
<text text-anchor="start" x="442.023" y="-472" font-family="Helvetica,sans-Serif" font-size="10.00">+ runtimeInit()</text>
<text text-anchor="start" x="442.023" y="-461" font-family="Helvetica,sans-Serif" font-size="10.00">+ operator==()</text>
<text text-anchor="start" x="442.023" y="-450" font-family="Helvetica,sans-Serif" font-size="10.00">+ operator==()</text>
<text text-anchor="start" x="442.023" y="-439" font-family="Helvetica,sans-Serif" font-size="10.00">+ operator!=()</text>
<text text-anchor="start" x="442.023" y="-428" font-family="Helvetica,sans-Serif" font-size="10.00">+ operator!=()</text>
<text text-anchor="start" x="442.023" y="-417" font-family="Helvetica,sans-Serif" font-size="10.00">+ as()</text>
<text text-anchor="start" x="442.023" y="-406" font-family="Helvetica,sans-Serif" font-size="10.00">+ print()</text>
</a>
</g>
</g>
<!-- Node3&#45;&gt;Node2 -->
<g id="edge2" class="edge"><title>Node3&#45;&gt;Node2</title>
<path fill="none" stroke="#404040" d="M534.011,-398.816C543.341,-363.036 557.557,-323.697 579.023,-292 590.262,-275.405 605.496,-260.401 621.135,-247.611"/>
<polygon fill="none" stroke="#404040" points="621.459,-247.356 623.704,-240.503 630.893,-239.939 628.648,-246.792 621.459,-247.356"/>
<text text-anchor="middle" x="607.523" y="-333.5" font-family="Helvetica,sans-Serif" font-size="10.00"> +description</text>
</g>
<!-- Node4 -->
<g id="node4" class="node"><title>Node4</title>
<polygon fill="none" stroke="#bfbfbf" points="277.023,-931.5 277.023,-988.5 315.023,-988.5 315.023,-931.5 277.023,-931.5"/>
<text text-anchor="middle" x="296.023" y="-976.5" font-family="Helvetica,sans-Serif" font-size="10.00">Type</text>
<polyline fill="none" stroke="#bfbfbf" points="277.023,-969.5 315.023,-969.5 "/>
<text text-anchor="middle" x="296.023" y="-957.5" font-family="Helvetica,sans-Serif" font-size="10.00"> </text>
<polyline fill="none" stroke="#bfbfbf" points="277.023,-950.5 315.023,-950.5 "/>
<text text-anchor="middle" x="296.023" y="-938.5" font-family="Helvetica,sans-Serif" font-size="10.00"> </text>
</g>
<!-- Node4&#45;&gt;Node3 -->
<g id="edge3" class="edge"><title>Node4&#45;&gt;Node3</title>
<path fill="none" stroke="#404040" d="M315.285,-934.681C329.712,-915.405 348.963,-887.265 361.023,-860 398.525,-775.219 355.174,-730.441 413.023,-658 423.939,-644.331 435.761,-652.474 448.023,-640 456.968,-630.901 464.956,-620.413 472.038,-609.355"/>
<polygon fill="none" stroke="#404040" points="472.059,-609.32 471.755,-602.115 478.288,-599.063 478.593,-606.267 472.059,-609.32"/>
<text text-anchor="middle" x="423.023" y="-756.5" font-family="Helvetica,sans-Serif" font-size="10.00"> +itg</text>
</g>
<!-- Node8 -->
<g id="node8" class="node"><title>Node8</title>
<g id="a_node8"><a xlink:href="../../d9/db3/structo2_1_1header_1_1Descriptor.html" target="_top" xlink:title="{o2::header::Descriptor\l\&lt; N, PrinterPolicy \&gt;\n||+ Descriptor()\l+ Descriptor()\l+ Descriptor()\l+ operator=()\l+ operator ItgType()\l+ Descriptor()\l+ runtimeInit()\l+ operator==()\l+ operator!=()\l+ operator==()\l+ operator!=()\l+ as()\l+ print()\l}">
<polygon fill="none" stroke="black" points="239.523,-659 239.523,-859 352.523,-859 352.523,-659 239.523,-659"/>
<text text-anchor="start" x="247.523" y="-847" font-family="Helvetica,sans-Serif" font-size="10.00">o2::header::Descriptor</text>
<text text-anchor="middle" x="296.023" y="-836" font-family="Helvetica,sans-Serif" font-size="10.00">&lt; N, PrinterPolicy &gt;</text>
<polyline fill="none" stroke="black" points="239.523,-829 352.523,-829 "/>
<text text-anchor="middle" x="296.023" y="-817" font-family="Helvetica,sans-Serif" font-size="10.00"> </text>
<polyline fill="none" stroke="black" points="239.523,-810 352.523,-810 "/>
<text text-anchor="start" x="247.523" y="-798" font-family="Helvetica,sans-Serif" font-size="10.00">+ Descriptor()</text>
<text text-anchor="start" x="247.523" y="-787" font-family="Helvetica,sans-Serif" font-size="10.00">+ Descriptor()</text>
<text text-anchor="start" x="247.523" y="-776" font-family="Helvetica,sans-Serif" font-size="10.00">+ Descriptor()</text>
<text text-anchor="start" x="247.523" y="-765" font-family="Helvetica,sans-Serif" font-size="10.00">+ operator=()</text>
<text text-anchor="start" x="247.523" y="-754" font-family="Helvetica,sans-Serif" font-size="10.00">+ operator ItgType()</text>
<text text-anchor="start" x="247.523" y="-743" font-family="Helvetica,sans-Serif" font-size="10.00">+ Descriptor()</text>
<text text-anchor="start" x="247.523" y="-732" font-family="Helvetica,sans-Serif" font-size="10.00">+ runtimeInit()</text>
<text text-anchor="start" x="247.523" y="-721" font-family="Helvetica,sans-Serif" font-size="10.00">+ operator==()</text>
<text text-anchor="start" x="247.523" y="-710" font-family="Helvetica,sans-Serif" font-size="10.00">+ operator!=()</text>
<text text-anchor="start" x="247.523" y="-699" font-family="Helvetica,sans-Serif" font-size="10.00">+ operator==()</text>
<text text-anchor="start" x="247.523" y="-688" font-family="Helvetica,sans-Serif" font-size="10.00">+ operator!=()</text>
<text text-anchor="start" x="247.523" y="-677" font-family="Helvetica,sans-Serif" font-size="10.00">+ as()</text>
<text text-anchor="start" x="247.523" y="-666" font-family="Helvetica,sans-Serif" font-size="10.00">+ print()</text>
</a>
</g>
</g>
<!-- Node4&#45;&gt;Node8 -->
<g id="edge8" class="edge"><title>Node4&#45;&gt;Node8</title>
<path fill="none" stroke="#404040" d="M296.023,-931.33C296.023,-915.216 296.023,-893.721 296.023,-871.415"/>
<polygon fill="none" stroke="#404040" points="296.024,-871.336 292.024,-865.336 296.023,-859.336 300.024,-865.336 296.024,-871.336"/>
<text text-anchor="middle" x="306.023" y="-892.5" font-family="Helvetica,sans-Serif" font-size="10.00"> +itg</text>
</g>
<!-- Node10 -->
<g id="node10" class="node"><title>Node10</title>
<g id="a_node10"><a xlink:href="../../d9/db3/structo2_1_1header_1_1Descriptor.html" target="_top" xlink:title="{o2::header::Descriptor\l\&lt; gSizeSerializationMethodString \&gt;\n||+ Descriptor()\l+ Descriptor()\l+ Descriptor()\l+ Descriptor()\l+ operator=()\l+ operator ItgType()\l+ runtimeInit()\l+ operator==()\l+ operator==()\l+ operator!=()\l+ operator!=()\l+ as()\l+ print()\l}">
<polygon fill="none" stroke="black" points="81.0235,-399 81.0235,-599 251.023,-599 251.023,-399 81.0235,-399"/>
<text text-anchor="start" x="89.0235" y="-587" font-family="Helvetica,sans-Serif" font-size="10.00">o2::header::Descriptor</text>
<text text-anchor="middle" x="166.023" y="-576" font-family="Helvetica,sans-Serif" font-size="10.00">&lt; gSizeSerializationMethodString &gt;</text>
<polyline fill="none" stroke="black" points="81.0235,-569 251.023,-569 "/>
<text text-anchor="middle" x="166.023" y="-557" font-family="Helvetica,sans-Serif" font-size="10.00"> </text>
<polyline fill="none" stroke="black" points="81.0235,-550 251.023,-550 "/>
<text text-anchor="start" x="89.0235" y="-538" font-family="Helvetica,sans-Serif" font-size="10.00">+ Descriptor()</text>
<text text-anchor="start" x="89.0235" y="-527" font-family="Helvetica,sans-Serif" font-size="10.00">+ Descriptor()</text>
<text text-anchor="start" x="89.0235" y="-516" font-family="Helvetica,sans-Serif" font-size="10.00">+ Descriptor()</text>
<text text-anchor="start" x="89.0235" y="-505" font-family="Helvetica,sans-Serif" font-size="10.00">+ Descriptor()</text>
<text text-anchor="start" x="89.0235" y="-494" font-family="Helvetica,sans-Serif" font-size="10.00">+ operator=()</text>
<text text-anchor="start" x="89.0235" y="-483" font-family="Helvetica,sans-Serif" font-size="10.00">+ operator ItgType()</text>
<text text-anchor="start" x="89.0235" y="-472" font-family="Helvetica,sans-Serif" font-size="10.00">+ runtimeInit()</text>
<text text-anchor="start" x="89.0235" y="-461" font-family="Helvetica,sans-Serif" font-size="10.00">+ operator==()</text>
<text text-anchor="start" x="89.0235" y="-450" font-family="Helvetica,sans-Serif" font-size="10.00">+ operator==()</text>
<text text-anchor="start" x="89.0235" y="-439" font-family="Helvetica,sans-Serif" font-size="10.00">+ operator!=()</text>
<text text-anchor="start" x="89.0235" y="-428" font-family="Helvetica,sans-Serif" font-size="10.00">+ operator!=()</text>
<text text-anchor="start" x="89.0235" y="-417" font-family="Helvetica,sans-Serif" font-size="10.00">+ as()</text>
<text text-anchor="start" x="89.0235" y="-406" font-family="Helvetica,sans-Serif" font-size="10.00">+ print()</text>
</a>
</g>
</g>
<!-- Node4&#45;&gt;Node10 -->
<g id="edge17" class="edge"><title>Node4&#45;&gt;Node10</title>
<path fill="none" stroke="#404040" d="M284.427,-931.147C275.356,-912.979 260.928,-890.411 241.023,-878 192.648,-847.837 151.399,-903.047 114.023,-860 55.1635,-792.209 99.8112,-746.646 114.023,-658 116.501,-642.549 120.259,-626.56 124.645,-610.953"/>
<polygon fill="none" stroke="#404040" points="124.741,-610.625 122.587,-603.743 128.111,-599.108 130.265,-605.99 124.741,-610.625"/>
<text text-anchor="middle" x="124.023" y="-756.5" font-family="Helvetica,sans-Serif" font-size="10.00"> +itg</text>
</g>
<!-- Node5 -->
<g id="node5" class="node"><title>Node5</title>
<polygon fill="none" stroke="#bfbfbf" points="719.523,-931 719.523,-989 748.523,-989 748.523,-931 719.523,-931"/>
<polyline fill="none" stroke="#bfbfbf" points="719.523,-969 748.523,-969 "/>
<text text-anchor="middle" x="734.023" y="-957" font-family="Helvetica,sans-Serif" font-size="10.00"> </text>
<polyline fill="none" stroke="#bfbfbf" points="719.523,-950 748.523,-950 "/>
<text text-anchor="middle" x="734.023" y="-938" font-family="Helvetica,sans-Serif" font-size="10.00"> </text>
</g>
<!-- Node5&#45;&gt;Node2 -->
<g id="edge12" class="edge"><title>Node5&#45;&gt;Node2</title>
<path fill="none" stroke="#404040" d="M743.501,-930.914C745.269,-924.744 746.909,-918.201 748.023,-912 796.758,-640.785 826.001,-555.392 745.023,-292 744.285,-289.596 743.47,-287.189 742.591,-284.786"/>
<polygon fill="none" stroke="#404040" points="742.56,-284.709 736.594,-280.658 738.038,-273.593 744.004,-277.644 742.56,-284.709"/>
<text text-anchor="middle" x="810.523" y="-626.5" font-family="Helvetica,sans-Serif" font-size="10.00"> +@11</text>
</g>
<!-- Node5&#45;&gt;Node2 -->
<g id="edge14" class="edge"><title>Node5&#45;&gt;Node2</title>
<path fill="none" stroke="#404040" d="M732.454,-930.706C726.613,-825.439 705.998,-453.88 696.67,-285.745"/>
<polygon fill="none" stroke="#404040" points="696.656,-285.494 692.33,-279.725 695.991,-273.512 700.317,-279.281 696.656,-285.494"/>
<text text-anchor="middle" x="731.523" y="-626.5" font-family="Helvetica,sans-Serif" font-size="10.00"> +@13</text>
</g>
<!-- Node5&#45;&gt;Node3 -->
<g id="edge4" class="edge"><title>Node5&#45;&gt;Node3</title>
<path fill="none" stroke="#404040" d="M720.776,-930.978C691.358,-868.755 619.242,-716.213 569.216,-610.399"/>
<polygon fill="none" stroke="#404040" points="569.12,-610.195 562.94,-606.481 563.991,-599.347 570.172,-603.061 569.12,-610.195"/>
<text text-anchor="middle" x="700.523" y="-756.5" font-family="Helvetica,sans-Serif" font-size="10.00"> +@9</text>
</g>
<!-- Node5&#45;&gt;Node8 -->
<g id="edge9" class="edge"><title>Node5&#45;&gt;Node8</title>
<path fill="none" stroke="#404040" d="M719.385,-955.555C688.475,-948.203 614.349,-930.16 553.023,-912 507.205,-898.432 497.004,-891.008 451.023,-878 417.206,-868.433 403.631,-878.936 374.023,-860 369.746,-857.264 365.606,-854.21 361.613,-850.916"/>
<polygon fill="none" stroke="#404040" points="361.518,-850.831 354.379,-849.815 352.57,-842.835 359.709,-843.85 361.518,-850.831"/>
<text text-anchor="middle" x="565.523" y="-892.5" font-family="Helvetica,sans-Serif" font-size="10.00"> +@9</text>
</g>
<!-- Node5&#45;&gt;Node10 -->
<g id="edge18" class="edge"><title>Node5&#45;&gt;Node10</title>
<path fill="none" stroke="#404040" d="M719.459,-950.09C692.43,-933.864 632.311,-899.218 578.023,-878 549.705,-866.932 531.762,-883.127 512.023,-860 482.71,-825.654 502.765,-701.319 490.023,-658 484.415,-638.932 486.383,-629.288 470.023,-618 437.3,-595.421 328.858,-614.961 292.023,-600 281.558,-595.749 271.253,-590.345 261.321,-584.258"/>
<polygon fill="none" stroke="#404040" points="261.204,-584.183 253.994,-584.298 251.114,-577.687 258.324,-577.572 261.204,-584.183"/>
<text text-anchor="middle" x="524.523" y="-756.5" font-family="Helvetica,sans-Serif" font-size="10.00"> +@9</text>
</g>
<!-- Node11 -->
<g id="node11" class="node"><title>Node11</title>
<g id="a_node11"><a xlink:href="../../dd/da3/structo2_1_1header_1_1HeartbeatHeader.html" target="_top" xlink:title="{o2::header::HeartbeatHeader\n||+ operator bool()\l+ operator\&lt;()\l+ operator uint64_t()\l}">
<polygon fill="none" stroke="black" points="953.523,-161.5 953.523,-240.5 1096.52,-240.5 1096.52,-161.5 953.523,-161.5"/>
<text text-anchor="middle" x="1025.02" y="-228.5" font-family="Helvetica,sans-Serif" font-size="10.00">o2::header::HeartbeatHeader</text>
<polyline fill="none" stroke="black" points="953.523,-221.5 1096.52,-221.5 "/>
<text text-anchor="middle" x="1025.02" y="-209.5" font-family="Helvetica,sans-Serif" font-size="10.00"> </text>
<polyline fill="none" stroke="black" points="953.523,-202.5 1096.52,-202.5 "/>
<text text-anchor="start" x="961.523" y="-190.5" font-family="Helvetica,sans-Serif" font-size="10.00">+ operator bool()</text>
<text text-anchor="start" x="961.523" y="-179.5" font-family="Helvetica,sans-Serif" font-size="10.00">+ operator&lt;()</text>
<text text-anchor="start" x="961.523" y="-168.5" font-family="Helvetica,sans-Serif" font-size="10.00">+ operator uint64_t()</text>
</a>
</g>
</g>
<!-- Node5&#45;&gt;Node11 -->
<g id="edge28" class="edge"><title>Node5&#45;&gt;Node11</title>
<path fill="none" stroke="#404040" d="M748.627,-938.777C785.944,-885.998 885.153,-738.557 932.023,-600 976.462,-468.632 940.6,-424.35 982.023,-292 986.224,-278.579 992.087,-264.616 998.134,-251.805"/>
<polygon fill="none" stroke="#404040" points="998.199,-251.672 997.234,-244.526 1003.46,-240.887 1004.42,-248.033 998.199,-251.672"/>
<text text-anchor="middle" x="940.523" y="-626.5" font-family="Helvetica,sans-Serif" font-size="10.00"> +@17</text>
</g>
<!-- Node15 -->
<g id="node15" class="node"><title>Node15</title>
<g id="a_node15"><a xlink:href="../../d1/dfe/structo2_1_1header_1_1HeartbeatTrailer.html" target="_top" xlink:title="{o2::header::HeartbeatTrailer\n||+ operator bool()\l+ operator uint64_t()\l}">
<polygon fill="none" stroke="black" points="1284.02,-167 1284.02,-235 1422.02,-235 1422.02,-167 1284.02,-167"/>
<text text-anchor="middle" x="1353.02" y="-223" font-family="Helvetica,sans-Serif" font-size="10.00">o2::header::HeartbeatTrailer</text>
<polyline fill="none" stroke="black" points="1284.02,-216 1422.02,-216 "/>
<text text-anchor="middle" x="1353.02" y="-204" font-family="Helvetica,sans-Serif" font-size="10.00"> </text>
<polyline fill="none" stroke="black" points="1284.02,-197 1422.02,-197 "/>
<text text-anchor="start" x="1292.02" y="-185" font-family="Helvetica,sans-Serif" font-size="10.00">+ operator bool()</text>
<text text-anchor="start" x="1292.02" y="-174" font-family="Helvetica,sans-Serif" font-size="10.00">+ operator uint64_t()</text>
</a>
</g>
</g>
<!-- Node5&#45;&gt;Node15 -->
<g id="edge35" class="edge"><title>Node5&#45;&gt;Node15</title>
<path fill="none" stroke="#404040" d="M748.656,-955.747C830.874,-936.77 1239.72,-833.044 1466.02,-600 1566.29,-496.749 1645.56,-411.95 1566.02,-292 1536.73,-247.816 1480.97,-225.267 1433.86,-213.791"/>
<polygon fill="none" stroke="#404040" points="1433.79,-213.774 1427.05,-216.339 1422.09,-211.105 1428.83,-208.54 1433.79,-213.774"/>
<text text-anchor="middle" x="1457.52" y="-626.5" font-family="Helvetica,sans-Serif" font-size="10.00"> +@21</text>
</g>
<!-- Node6 -->
<g id="node6" class="node"><title>Node6</title>
<polygon fill="none" stroke="#bfbfbf" points="496.523,-931.5 496.523,-988.5 531.523,-988.5 531.523,-931.5 496.523,-931.5"/>
<text text-anchor="middle" x="514.023" y="-976.5" font-family="Helvetica,sans-Serif" font-size="10.00">char</text>
<polyline fill="none" stroke="#bfbfbf" points="496.523,-969.5 531.523,-969.5 "/>
<text text-anchor="middle" x="514.023" y="-957.5" font-family="Helvetica,sans-Serif" font-size="10.00"> </text>
<polyline fill="none" stroke="#bfbfbf" points="496.523,-950.5 531.523,-950.5 "/>
<text text-anchor="middle" x="514.023" y="-938.5" font-family="Helvetica,sans-Serif" font-size="10.00"> </text>
</g>
<!-- Node6&#45;&gt;Node2 -->
<g id="edge15" class="edge"><title>Node6&#45;&gt;Node2</title>
<path fill="none" stroke="#404040" d="M531.657,-953.952C565.594,-943.168 639.26,-914.326 669.023,-860 712.16,-781.264 703.38,-740.944 669.023,-658 664.694,-647.547 655.353,-650.453 651.023,-640 602.934,-523.901 633.598,-376.106 661.648,-285.318"/>
<polygon fill="none" stroke="#404040" points="661.698,-285.158 659.692,-278.231 665.314,-273.715 667.32,-280.642 661.698,-285.158"/>
<text text-anchor="middle" x="681.523" y="-626.5" font-family="Helvetica,sans-Serif" font-size="10.00"> +magicString</text>
</g>
<!-- Node6&#45;&gt;Node3 -->
<g id="edge5" class="edge"><title>Node6&#45;&gt;Node3</title>
<path fill="none" stroke="#404040" d="M531.692,-943.433C539.865,-935.043 548.705,-923.968 553.023,-912 558.153,-897.786 553.435,-893.106 553.023,-878 550.356,-780.113 551.055,-755.408 541.023,-658 539.461,-642.825 537.462,-626.879 535.287,-611.195"/>
<polygon fill="none" stroke="#404040" points="535.281,-611.15 530.477,-605.772 533.594,-599.269 538.397,-604.647 535.281,-611.15"/>
<text text-anchor="middle" x="563.523" y="-756.5" font-family="Helvetica,sans-Serif" font-size="10.00"> +str</text>
</g>
<!-- Node6&#45;&gt;Node8 -->
<g id="edge10" class="edge"><title>Node6&#45;&gt;Node8</title>
<path fill="none" stroke="#404040" d="M496.259,-951.402C477.816,-943.093 448.563,-928.711 426.023,-912 402.12,-894.278 379.653,-871.389 360.339,-848.778"/>
<polygon fill="none" stroke="#404040" points="360.243,-848.663 353.324,-846.63 352.54,-839.462 359.459,-841.495 360.243,-848.663"/>
<text text-anchor="middle" x="436.523" y="-892.5" font-family="Helvetica,sans-Serif" font-size="10.00"> +str</text>
</g>
<!-- Node6&#45;&gt;Node10 -->
<g id="edge19" class="edge"><title>Node6&#45;&gt;Node10</title>
<path fill="none" stroke="#404040" d="M496.125,-942.353C488.316,-934.021 479.856,-923.311 475.023,-912 465.883,-890.606 471.172,-883.165 469.023,-860 466.534,-833.16 470.789,-637.35 452.023,-618 424.345,-589.46 310.262,-616.352 274.023,-600 269.878,-598.13 265.787,-596.036 261.763,-593.759"/>
<polygon fill="none" stroke="#404040" points="261.508,-593.603 254.302,-593.878 251.276,-587.332 258.482,-587.057 261.508,-593.603"/>
<text text-anchor="middle" x="479.523" y="-756.5" font-family="Helvetica,sans-Serif" font-size="10.00"> +str</text>
</g>
<!-- Node7 -->
<g id="node7" class="node"><title>Node7</title>
<polygon fill="none" stroke="#bfbfbf" points="141.523,-931.5 141.523,-988.5 170.523,-988.5 170.523,-931.5 141.523,-931.5"/>
<text text-anchor="middle" x="156.023" y="-976.5" font-family="Helvetica,sans-Serif" font-size="10.00">int</text>
<polyline fill="none" stroke="#bfbfbf" points="141.523,-969.5 170.523,-969.5 "/>
<text text-anchor="middle" x="156.023" y="-957.5" font-family="Helvetica,sans-Serif" font-size="10.00"> </text>
<polyline fill="none" stroke="#bfbfbf" points="141.523,-950.5 170.523,-950.5 "/>
<text text-anchor="middle" x="156.023" y="-938.5" font-family="Helvetica,sans-Serif" font-size="10.00"> </text>
</g>
<!-- Node7&#45;&gt;Node3 -->
<g id="edge6" class="edge"><title>Node7&#45;&gt;Node3</title>
<path fill="none" stroke="#404040" d="M153.033,-931.306C144.994,-854.11 124.913,-640.678 146.023,-618 165.074,-597.534 371.09,-610.453 397.023,-600 406.054,-596.36 414.911,-591.774 423.467,-586.579"/>
<polygon fill="none" stroke="#404040" points="423.655,-586.459 426.535,-579.848 433.745,-579.963 430.865,-586.574 423.655,-586.459"/>
<text text-anchor="middle" x="171.523" y="-767.5" font-family="Helvetica,sans-Serif" font-size="10.00"> +arraySize</text>
<text text-anchor="middle" x="171.523" y="-756.5" font-family="Helvetica,sans-Serif" font-size="10.00">+size</text>
<text text-anchor="middle" x="171.523" y="-745.5" font-family="Helvetica,sans-Serif" font-size="10.00">+bitcount</text>
</g>
<!-- Node7&#45;&gt;Node8 -->
<g id="edge11" class="edge"><title>Node7&#45;&gt;Node8</title>
<path fill="none" stroke="#404040" d="M170.741,-938.08C185.502,-917.099 209.266,-883.32 232.15,-850.792"/>
<polygon fill="none" stroke="#404040" points="232.308,-850.567 232.489,-843.358 239.213,-840.753 239.032,-847.961 232.308,-850.567"/>
<text text-anchor="middle" x="235.523" y="-903.5" font-family="Helvetica,sans-Serif" font-size="10.00"> +arraySize</text>
<text text-anchor="middle" x="235.523" y="-892.5" font-family="Helvetica,sans-Serif" font-size="10.00">+size</text>
<text text-anchor="middle" x="235.523" y="-881.5" font-family="Helvetica,sans-Serif" font-size="10.00">+bitcount</text>
</g>
<!-- Node7&#45;&gt;Node10 -->
<g id="edge20" class="edge"><title>Node7&#45;&gt;Node10</title>
<path fill="none" stroke="#404040" d="M141.251,-953.036C112.838,-940.647 51.2449,-909.121 27.0235,-860 -12.6813,-779.479 -4.66644,-741.999 27.0235,-658 37.1227,-631.23 54.0507,-606.053 72.6844,-583.999"/>
<polygon fill="none" stroke="#404040" points="72.8707,-583.786 73.8011,-576.635 80.7597,-574.743 79.8293,-581.894 72.8707,-583.786"/>
<text text-anchor="middle" x="52.5235" y="-767.5" font-family="Helvetica,sans-Serif" font-size="10.00"> +arraySize</text>
<text text-anchor="middle" x="52.5235" y="-756.5" font-family="Helvetica,sans-Serif" font-size="10.00">+size</text>
<text text-anchor="middle" x="52.5235" y="-745.5" font-family="Helvetica,sans-Serif" font-size="10.00">+bitcount</text>
</g>
<!-- Node8&#45;&gt;Node1 -->
<g id="edge36" class="edge"><title>Node8&#45;&gt;Node1</title>
<path fill="none" stroke="#404040" d="M239.315,-688.981C227.556,-677.507 214.586,-666.572 201.023,-658 179.282,-644.258 169.654,-650.156 146.023,-640 111.675,-625.238 91.1688,-632.112 72.0235,-600 1.92001,-482.417 -7.78528,-401.009 75.0235,-292 164.764,-173.866 614.521,-86.4528 803.349,-54.3865"/>
<polygon fill="none" stroke="#404040" points="803.569,-54.3493 808.821,-49.4076 815.402,-52.3546 810.151,-57.2963 803.569,-54.3493"/>
<text text-anchor="middle" x="123.523" y="-339" font-family="Helvetica,sans-Serif" font-size="10.00"> +sHeaderType</text>
<text text-anchor="middle" x="123.523" y="-328" font-family="Helvetica,sans-Serif" font-size="10.00">+sSerializationMethod</text>
</g>
<!-- Node8&#45;&gt;Node2 -->
<g id="edge22" class="edge"><title>Node8&#45;&gt;Node2</title>
<path fill="none" stroke="#404040" d="M294.506,-658.752C294.93,-567.223 300.701,-439.454 328.023,-398 395.173,-296.121 533.661,-243.118 619.126,-219.004"/>
<polygon fill="none" stroke="#404040" points="619.25,-218.97 623.976,-213.523 630.821,-215.791 626.095,-221.237 619.25,-218.97"/>
<text text-anchor="middle" x="376.523" y="-502" font-family="Helvetica,sans-Serif" font-size="10.00"> +sHeaderType</text>
<text text-anchor="middle" x="376.523" y="-491" font-family="Helvetica,sans-Serif" font-size="10.00">+sSerializationMethod</text>
</g>
<!-- Node8&#45;&gt;Node3 -->
<g id="edge7" class="edge"><title>Node8&#45;&gt;Node3</title>
<path fill="none" stroke="orange" d="M309.638,-649.394C314.64,-637.789 321.27,-626.968 330.023,-618 351.561,-595.935 369.654,-614.2 397.023,-600 409.541,-593.506 421.924,-585.524 433.712,-576.926"/>
<polygon fill="orange" stroke="orange" points="306.324,-648.259 305.967,-658.848 312.85,-650.793 306.324,-648.259"/>
<text text-anchor="start" x="330.023" y="-632" font-family="Helvetica,sans-Serif" font-size="10.00"> &lt; gSizeHeaderDescription</text>
<text text-anchor="middle" x="389.023" y="-621" font-family="Helvetica,sans-Serif" font-size="10.00">String &gt;</text>
</g>
<!-- Node8&#45;&gt;Node10 -->
<g id="edge21" class="edge"><title>Node8&#45;&gt;Node10</title>
<path fill="none" stroke="orange" d="M232.302,-675.206C225.537,-668.911 218.413,-663.053 211.023,-658 190.835,-644.195 173.209,-659.922 159.023,-640 150.483,-628.007 146.371,-613.863 145.07,-599.255"/>
<polygon fill="orange" stroke="orange" points="229.885,-677.738 239.497,-682.193 234.761,-672.716 229.885,-677.738"/>
<text text-anchor="start" x="159.023" y="-632" font-family="Helvetica,sans-Serif" font-size="10.00"> &lt; gSizeSerializationMethod</text>
<text text-anchor="middle" x="220.523" y="-621" font-family="Helvetica,sans-Serif" font-size="10.00">String &gt;</text>
</g>
<!-- Node9 -->
<g id="node9" class="node"><title>Node9</title>
<polygon fill="none" stroke="#bfbfbf" points="872.523,-470.5 872.523,-527.5 923.523,-527.5 923.523,-470.5 872.523,-470.5"/>
<text text-anchor="middle" x="898.023" y="-515.5" font-family="Helvetica,sans-Serif" font-size="10.00">uint32_t</text>
<polyline fill="none" stroke="#bfbfbf" points="872.523,-508.5 923.523,-508.5 "/>
<text text-anchor="middle" x="898.023" y="-496.5" font-family="Helvetica,sans-Serif" font-size="10.00"> </text>
<polyline fill="none" stroke="#bfbfbf" points="872.523,-489.5 923.523,-489.5 "/>
<text text-anchor="middle" x="898.023" y="-477.5" font-family="Helvetica,sans-Serif" font-size="10.00"> </text>
</g>
<!-- Node9&#45;&gt;Node1 -->
<g id="edge29" class="edge"><title>Node9&#45;&gt;Node1</title>
<path fill="none" stroke="#404040" d="M897.36,-470.442C895.56,-395.661 890.564,-188.075 888.24,-91.5528"/>
<polygon fill="none" stroke="#404040" points="888.24,-91.5175 884.096,-85.6155 887.951,-79.521 892.094,-85.423 888.24,-91.5175"/>
<text text-anchor="middle" x="917.023" y="-198.5" font-family="Helvetica,sans-Serif" font-size="10.00"> +sVersion</text>
</g>
<!-- Node9&#45;&gt;Node2 -->
<g id="edge13" class="edge"><title>Node9&#45;&gt;Node2</title>
<path fill="none" stroke="#404040" d="M872.175,-475.738C848.228,-453.74 813.339,-417.959 793.023,-380 773.948,-344.359 788.865,-327.765 770.023,-292 767.117,-286.482 763.812,-281.015 760.243,-275.663"/>
<polygon fill="none" stroke="#404040" points="760.011,-275.334 753.283,-272.739 753.091,-265.531 759.819,-268.126 760.011,-275.334"/>
<text text-anchor="middle" x="833.023" y="-372" font-family="Helvetica,sans-Serif" font-size="10.00"> +headerVersion</text>
<text text-anchor="middle" x="833.023" y="-361" font-family="Helvetica,sans-Serif" font-size="10.00">+headerSize</text>
<text text-anchor="middle" x="833.023" y="-350" font-family="Helvetica,sans-Serif" font-size="10.00">+sMagicString</text>
<text text-anchor="middle" x="833.023" y="-339" font-family="Helvetica,sans-Serif" font-size="10.00">+flagsNextHeader</text>
<text text-anchor="middle" x="833.023" y="-328" font-family="Helvetica,sans-Serif" font-size="10.00">+magicStringInt</text>
<text text-anchor="middle" x="833.023" y="-317" font-family="Helvetica,sans-Serif" font-size="10.00">+flagsUnused</text>
<text text-anchor="middle" x="833.023" y="-306" font-family="Helvetica,sans-Serif" font-size="10.00">+flags</text>
<text text-anchor="middle" x="833.023" y="-295" font-family="Helvetica,sans-Serif" font-size="10.00">+sVersion</text>
</g>
<!-- Node9&#45;&gt;Node11 -->
<g id="edge24" class="edge"><title>Node9&#45;&gt;Node11</title>
<path fill="none" stroke="#404040" d="M898.636,-470.402C900.121,-421.594 905.064,-322.335 921.023,-292 922.693,-288.826 945.704,-268.807 969.657,-248.453"/>
<polygon fill="none" stroke="#404040" points="969.685,-248.429 971.677,-241.498 978.84,-240.67 976.849,-247.601 969.685,-248.429"/>
<text text-anchor="middle" x="935.023" y="-333.5" font-family="Helvetica,sans-Serif" font-size="10.00"> +orbit</text>
</g>
<!-- Node9&#45;&gt;Node15 -->
<g id="edge31" class="edge"><title>Node9&#45;&gt;Node15</title>
<path fill="none" stroke="#404040" d="M923.795,-486.52C960.001,-468.997 1025.26,-432.041 1059.02,-380 1080.8,-346.432 1051.23,-321.721 1078.02,-292 1091.49,-277.058 1195.77,-245.579 1271.95,-224.107"/>
<polygon fill="none" stroke="#404040" points="1272.36,-223.992 1277.05,-218.52 1283.91,-220.751 1279.21,-226.223 1272.36,-223.992"/>
<text text-anchor="middle" x="1105.52" y="-339" font-family="Helvetica,sans-Serif" font-size="10.00"> +status</text>
<text text-anchor="middle" x="1105.52" y="-328" font-family="Helvetica,sans-Serif" font-size="10.00">+dataLength</text>
</g>
<!-- Node10&#45;&gt;Node2 -->
<g id="edge16" class="edge"><title>Node10&#45;&gt;Node2</title>
<path fill="none" stroke="#404040" d="M170.474,-398.891C177.26,-360.529 191.619,-319.358 221.023,-292 277.757,-239.217 501.048,-215.608 618.656,-206.655"/>
<polygon fill="none" stroke="#404040" points="618.766,-206.647 624.454,-202.214 630.733,-205.759 625.046,-210.192 618.766,-206.647"/>
<text text-anchor="middle" x="251.523" y="-333.5" font-family="Helvetica,sans-Serif" font-size="10.00"> +serialization</text>
</g>
<!-- Node11&#45;&gt;Node1 -->
<g id="edge23" class="edge"><title>Node11&#45;&gt;Node1</title>
<path fill="none" stroke="#404040" d="M991.265,-161.104C972.399,-139.368 948.729,-112.096 928.715,-89.0357"/>
<polygon fill="none" stroke="#404040" points="928.538,-88.8321 921.584,-86.9227 920.672,-79.7695 927.626,-81.6789 928.538,-88.8321"/>
<text text-anchor="middle" x="963.523" y="-101.5" font-family="Helvetica,sans-Serif" font-size="10.00"> +header</text>
</g>
<!-- Node12 -->
<g id="node12" class="node"><title>Node12</title>
<polygon fill="none" stroke="#bfbfbf" points="1132.52,-470.5 1132.52,-527.5 1183.52,-527.5 1183.52,-470.5 1132.52,-470.5"/>
<text text-anchor="middle" x="1158.02" y="-515.5" font-family="Helvetica,sans-Serif" font-size="10.00">uint64_t</text>
<polyline fill="none" stroke="#bfbfbf" points="1132.52,-508.5 1183.52,-508.5 "/>
<text text-anchor="middle" x="1158.02" y="-496.5" font-family="Helvetica,sans-Serif" font-size="10.00"> </text>
<polyline fill="none" stroke="#bfbfbf" points="1132.52,-489.5 1183.52,-489.5 "/>
<text text-anchor="middle" x="1158.02" y="-477.5" font-family="Helvetica,sans-Serif" font-size="10.00"> </text>
</g>
<!-- Node12&#45;&gt;Node11 -->
<g id="edge25" class="edge"><title>Node12&#45;&gt;Node11</title>
<path fill="none" stroke="#404040" d="M1132.28,-488.09C1094.5,-471.967 1025.46,-436.102 997.023,-380 976.794,-340.093 987.908,-289.219 1001.66,-252.088"/>
<polygon fill="none" stroke="#404040" points="1001.8,-251.72 1000.26,-244.674 1006.18,-240.546 1007.71,-247.592 1001.8,-251.72"/>
<text text-anchor="middle" x="1028.02" y="-333.5" font-family="Helvetica,sans-Serif" font-size="10.00"> +headerWord</text>
</g>
<!-- Node12&#45;&gt;Node15 -->
<g id="edge32" class="edge"><title>Node12&#45;&gt;Node15</title>
<path fill="none" stroke="#404040" d="M1174.41,-470.159C1187.73,-448.926 1207.89,-419.731 1230.02,-398 1240.05,-388.154 1247.97,-391.516 1256.02,-380 1279.2,-346.876 1260.65,-328.007 1279.02,-292 1287.54,-275.311 1299.58,-258.917 1311.48,-244.789"/>
<polygon fill="none" stroke="#404040" points="1311.78,-244.449 1312.7,-237.296 1319.65,-235.394 1318.73,-242.546 1311.78,-244.449"/>
<text text-anchor="middle" x="1307.52" y="-333.5" font-family="Helvetica,sans-Serif" font-size="10.00"> +trailerWord</text>
</g>
<!-- Node13 -->
<g id="node13" class="node"><title>Node13</title>
<polygon fill="none" stroke="#bfbfbf" points="1406.52,-470.5 1406.52,-527.5 1457.52,-527.5 1457.52,-470.5 1406.52,-470.5"/>
<text text-anchor="middle" x="1432.02" y="-515.5" font-family="Helvetica,sans-Serif" font-size="10.00">uint16_t</text>
<polyline fill="none" stroke="#bfbfbf" points="1406.52,-508.5 1457.52,-508.5 "/>
<text text-anchor="middle" x="1432.02" y="-496.5" font-family="Helvetica,sans-Serif" font-size="10.00"> </text>
<polyline fill="none" stroke="#bfbfbf" points="1406.52,-489.5 1457.52,-489.5 "/>
<text text-anchor="middle" x="1432.02" y="-477.5" font-family="Helvetica,sans-Serif" font-size="10.00"> </text>
</g>
<!-- Node13&#45;&gt;Node11 -->
<g id="edge26" class="edge"><title>Node13&#45;&gt;Node11</title>
<path fill="none" stroke="#404040" d="M1409.57,-470.088C1392.21,-447.166 1368.87,-413.184 1355.02,-380 1339.61,-343.075 1363.32,-321.253 1336.02,-292 1335.52,-291.457 1200.11,-252.399 1108.16,-225.92"/>
<polygon fill="none" stroke="#404040" points="1108.14,-225.916 1101.27,-228.1 1096.61,-222.596 1103.48,-220.412 1108.14,-225.916"/>
<text text-anchor="middle" x="1378.52" y="-339" font-family="Helvetica,sans-Serif" font-size="10.00"> +reserved</text>
<text text-anchor="middle" x="1378.52" y="-328" font-family="Helvetica,sans-Serif" font-size="10.00">+bcid</text>
</g>
<!-- Node13&#45;&gt;Node15 -->
<g id="edge33" class="edge"><title>Node13&#45;&gt;Node15</title>
<path fill="none" stroke="#404040" d="M1451.01,-470.19C1476.46,-429.163 1515.03,-350.919 1484.02,-292 1472.54,-270.171 1453.1,-252.612 1432.66,-239.004"/>
<polygon fill="none" stroke="#404040" points="1432.4,-238.841 1425.19,-239.026 1422.25,-232.443 1429.46,-232.258 1432.4,-238.841"/>
<text text-anchor="middle" x="1528.52" y="-350" font-family="Helvetica,sans-Serif" font-size="10.00"> +hbfTruncated</text>
<text text-anchor="middle" x="1528.52" y="-339" font-family="Helvetica,sans-Serif" font-size="10.00">+hbfStatus</text>
<text text-anchor="middle" x="1528.52" y="-328" font-family="Helvetica,sans-Serif" font-size="10.00">+trailerLength</text>
<text text-anchor="middle" x="1528.52" y="-317" font-family="Helvetica,sans-Serif" font-size="10.00">+hbAccept</text>
</g>
<!-- Node14 -->
<g id="node14" class="node"><title>Node14</title>
<polygon fill="none" stroke="#bfbfbf" points="1239.02,-470.5 1239.02,-527.5 1285.02,-527.5 1285.02,-470.5 1239.02,-470.5"/>
<text text-anchor="middle" x="1262.02" y="-515.5" font-family="Helvetica,sans-Serif" font-size="10.00">uint8_t</text>
<polyline fill="none" stroke="#bfbfbf" points="1239.02,-508.5 1285.02,-508.5 "/>
<text text-anchor="middle" x="1262.02" y="-496.5" font-family="Helvetica,sans-Serif" font-size="10.00"> </text>
<polyline fill="none" stroke="#bfbfbf" points="1239.02,-489.5 1285.02,-489.5 "/>
<text text-anchor="middle" x="1262.02" y="-477.5" font-family="Helvetica,sans-Serif" font-size="10.00"> </text>
</g>
<!-- Node14&#45;&gt;Node11 -->
<g id="edge27" class="edge"><title>Node14&#45;&gt;Node11</title>
<path fill="none" stroke="#404040" d="M1247.59,-470.119C1235.19,-448.302 1215.61,-418.35 1192.02,-398 1178.48,-386.314 1166.99,-394.133 1156.02,-380 1131.49,-348.388 1158.05,-326.043 1137.02,-292 1126.82,-275.479 1112.47,-260.684 1097.43,-248.092"/>
<polygon fill="none" stroke="#404040" points="1097.37,-248.047 1090.19,-247.415 1088.01,-240.541 1095.19,-241.173 1097.37,-248.047"/>
<text text-anchor="middle" x="1204.02" y="-350" font-family="Helvetica,sans-Serif" font-size="10.00"> +triggerType</text>
<text text-anchor="middle" x="1204.02" y="-339" font-family="Helvetica,sans-Serif" font-size="10.00">+headerLength</text>
<text text-anchor="middle" x="1204.02" y="-328" font-family="Helvetica,sans-Serif" font-size="10.00">+blockType</text>
<text text-anchor="middle" x="1204.02" y="-317" font-family="Helvetica,sans-Serif" font-size="10.00">+reservedTriggerType</text>
</g>
<!-- Node14&#45;&gt;Node15 -->
<g id="edge34" class="edge"><title>Node14&#45;&gt;Node15</title>
<path fill="none" stroke="#404040" d="M1285.13,-487.308C1319.03,-470.174 1380.92,-433.022 1406.02,-380 1422.76,-344.65 1416.31,-329.735 1406.02,-292 1401.62,-275.828 1393.48,-259.601 1384.89,-245.467"/>
<polygon fill="none" stroke="#404040" points="1384.73,-245.22 1378.13,-242.311 1378.28,-235.102 1384.87,-238.01 1384.73,-245.22"/>
<text text-anchor="middle" x="1443.52" y="-333.5" font-family="Helvetica,sans-Serif" font-size="10.00"> +blockType</text>
</g>
<!-- Node15&#45;&gt;Node1 -->
<g id="edge30" class="edge"><title>Node15&#45;&gt;Node1</title>
<path fill="none" stroke="#404040" d="M1284.01,-176.453C1200.4,-147.923 1059.63,-99.8923 970.128,-69.3554"/>
<polygon fill="none" stroke="#404040" points="970.021,-69.3189 963.051,-71.1671 958.664,-65.4438 965.634,-63.5957 970.021,-69.3189"/>
<text text-anchor="middle" x="1096.02" y="-101.5" font-family="Helvetica,sans-Serif" font-size="10.00"> +trailer</text>
</g>
</g>
</svg>
