<?xml version="1.0" encoding="UTF-8" standalone="no"?>
<!DOCTYPE svg PUBLIC "-//W3C//DTD SVG 1.1//EN"
 "http://www.w3.org/Graphics/SVG/1.1/DTD/svg11.dtd">
<!-- Generated by graphviz version 2.36.0 (20140111.2315)
 -->
<!-- Title: o2::memoryResources::FairMQMemoryResource Pages: 1 -->
<svg width="315pt" height="400pt"
 viewBox="0.00 0.00 315.00 400.00" xmlns="http://www.w3.org/2000/svg" xmlns:xlink="http://www.w3.org/1999/xlink">
<g id="graph0" class="graph" transform="scale(1 1) rotate(0) translate(4 396)">
<title>o2::memoryResources::FairMQMemoryResource</title>
<!-- Node1 -->
<g id="node1" class="node"><title>Node1</title>
<polygon fill="#bfbfbf" stroke="black" points="80.5,-195 80.5,-285 215.5,-285 215.5,-195 80.5,-195"/>
<text text-anchor="start" x="88.5" y="-273" font-family="Helvetica,sans-Serif" font-size="10.00">o2::memoryResources</text>
<text text-anchor="middle" x="148" y="-262" font-family="Helvetica,sans-Serif" font-size="10.00">::FairMQMemoryResource</text>
<polyline fill="none" stroke="black" points="80.5,-255 215.5,-255 "/>
<text text-anchor="middle" x="148" y="-243" font-family="Helvetica,sans-Serif" font-size="10.00"> </text>
<polyline fill="none" stroke="black" points="80.5,-236 215.5,-236 "/>
<text text-anchor="start" x="88.5" y="-224" font-family="Helvetica,sans-Serif" font-size="10.00">+ getMessage()</text>
<text text-anchor="start" x="88.5" y="-213" font-family="Helvetica,sans-Serif" font-size="10.00">+ getTransportFactory()</text>
<text text-anchor="start" x="88.5" y="-202" font-family="Helvetica,sans-Serif" font-size="10.00">+ getNumberOfMessages()</text>
</g>
<!-- Node3 -->
<g id="node3" class="node"><title>Node3</title>
<g id="a_node3"><a xlink:href="../../df/d21/classo2_1_1memoryResources_1_1ChannelResource.html" target="_top" xlink:title="{o2::memoryResources\l::ChannelResource\n|# factory\l# messageMap\l|+ ChannelResource()\l+ ChannelResource()\l+ getMessage()\l+ getTransportFactory()\l+ getNumberOfMessages()\l# do_allocate()\l# do_deallocate()\l# do_is_equal()\l}">
<polygon fill="none" stroke="black" points="-0.5,-1 -0.5,-157 134.5,-157 134.5,-1 -0.5,-1"/>
<text text-anchor="start" x="7.5" y="-145" font-family="Helvetica,sans-Serif" font-size="10.00">o2::memoryResources</text>
<text text-anchor="middle" x="67" y="-134" font-family="Helvetica,sans-Serif" font-size="10.00">::ChannelResource</text>
<polyline fill="none" stroke="black" points="-0.5,-127 134.5,-127 "/>
<text text-anchor="start" x="7.5" y="-115" font-family="Helvetica,sans-Serif" font-size="10.00"># factory</text>
<text text-anchor="start" x="7.5" y="-104" font-family="Helvetica,sans-Serif" font-size="10.00"># messageMap</text>
<polyline fill="none" stroke="black" points="-0.5,-97 134.5,-97 "/>
<text text-anchor="start" x="7.5" y="-85" font-family="Helvetica,sans-Serif" font-size="10.00">+ ChannelResource()</text>
<text text-anchor="start" x="7.5" y="-74" font-family="Helvetica,sans-Serif" font-size="10.00">+ ChannelResource()</text>
<text text-anchor="start" x="7.5" y="-63" font-family="Helvetica,sans-Serif" font-size="10.00">+ getMessage()</text>
<text text-anchor="start" x="7.5" y="-52" font-family="Helvetica,sans-Serif" font-size="10.00">+ getTransportFactory()</text>
<text text-anchor="start" x="7.5" y="-41" font-family="Helvetica,sans-Serif" font-size="10.00">+ getNumberOfMessages()</text>
<text text-anchor="start" x="7.5" y="-30" font-family="Helvetica,sans-Serif" font-size="10.00"># do_allocate()</text>
<text text-anchor="start" x="7.5" y="-19" font-family="Helvetica,sans-Serif" font-size="10.00"># do_deallocate()</text>
<text text-anchor="start" x="7.5" y="-8" font-family="Helvetica,sans-Serif" font-size="10.00"># do_is_equal()</text>
</a>
</g>
</g>
<!-- Node1&#45;&gt;Node3 -->
<g id="edge2" class="edge"><title>Node1&#45;&gt;Node3</title>
<path fill="none" stroke="midnightblue" d="M120.868,-185.74C116.199,-176.576 111.263,-166.887 106.35,-157.242"/>
<polygon fill="none" stroke="midnightblue" points="117.779,-187.388 125.437,-194.71 124.016,-184.21 117.779,-187.388"/>
</g>
<!-- Node4 -->
<g id="node4" class="node"><title>Node4</title>
<g id="a_node4"><a xlink:href="../../dd/d7e/classo2_1_1memoryResources_1_1SpectatorMessageResource.html" target="_top" xlink:title="{o2::memoryResources\l::SpectatorMessageResource\n|# message\l|+ SpectatorMessageResource()\l+ SpectatorMessageResource()\l+ getMessage()\l+ getTransportFactory()\l+ getNumberOfMessages()\l# do_allocate()\l# do_deallocate()\l# do_is_equal()\l}">
<polygon fill="none" stroke="black" points="152.5,-6.5 152.5,-151.5 307.5,-151.5 307.5,-6.5 152.5,-6.5"/>
<text text-anchor="start" x="160.5" y="-139.5" font-family="Helvetica,sans-Serif" font-size="10.00">o2::memoryResources</text>
<text text-anchor="middle" x="230" y="-128.5" font-family="Helvetica,sans-Serif" font-size="10.00">::SpectatorMessageResource</text>
<polyline fill="none" stroke="black" points="152.5,-121.5 307.5,-121.5 "/>
<text text-anchor="start" x="160.5" y="-109.5" font-family="Helvetica,sans-Serif" font-size="10.00"># message</text>
<polyline fill="none" stroke="black" points="152.5,-102.5 307.5,-102.5 "/>
<text text-anchor="start" x="160.5" y="-90.5" font-family="Helvetica,sans-Serif" font-size="10.00">+ SpectatorMessageResource()</text>
<text text-anchor="start" x="160.5" y="-79.5" font-family="Helvetica,sans-Serif" font-size="10.00">+ SpectatorMessageResource()</text>
<text text-anchor="start" x="160.5" y="-68.5" font-family="Helvetica,sans-Serif" font-size="10.00">+ getMessage()</text>
<text text-anchor="start" x="160.5" y="-57.5" font-family="Helvetica,sans-Serif" font-size="10.00">+ getTransportFactory()</text>
<text text-anchor="start" x="160.5" y="-46.5" font-family="Helvetica,sans-Serif" font-size="10.00">+ getNumberOfMessages()</text>
<text text-anchor="start" x="160.5" y="-35.5" font-family="Helvetica,sans-Serif" font-size="10.00"># do_allocate()</text>
<text text-anchor="start" x="160.5" y="-24.5" font-family="Helvetica,sans-Serif" font-size="10.00"># do_deallocate()</text>
<text text-anchor="start" x="160.5" y="-13.5" font-family="Helvetica,sans-Serif" font-size="10.00"># do_is_equal()</text>
</a>
</g>
</g>
<!-- Node1&#45;&gt;Node4 -->
<g id="edge3" class="edge"><title>Node1&#45;&gt;Node4</title>
<path fill="none" stroke="midnightblue" d="M175.463,-185.75C181.084,-174.85 187.087,-163.209 192.98,-151.783"/>
<polygon fill="none" stroke="midnightblue" points="172.315,-184.218 170.842,-194.71 178.536,-187.426 172.315,-184.218"/>
</g>
<!-- Node2 -->
<g id="node2" class="node"><title>Node2</title>
<polygon fill="none" stroke="#bfbfbf" points="93.5,-323 93.5,-391 202.5,-391 202.5,-323 93.5,-323"/>
<text text-anchor="start" x="101.5" y="-379" font-family="Helvetica,sans-Serif" font-size="10.00">boost::container::pmr</text>
<text text-anchor="middle" x="148" y="-368" font-family="Helvetica,sans-Serif" font-size="10.00">::memory_resource</text>
<polyline fill="none" stroke="#bfbfbf" points="93.5,-361 202.5,-361 "/>
<text text-anchor="middle" x="148" y="-349" font-family="Helvetica,sans-Serif" font-size="10.00"> </text>
<polyline fill="none" stroke="#bfbfbf" points="93.5,-342 202.5,-342 "/>
<text text-anchor="middle" x="148" y="-330" font-family="Helvetica,sans-Serif" font-size="10.00"> </text>
</g>
<!-- Node2&#45;&gt;Node1 -->
<g id="edge1" class="edge"><title>Node2&#45;&gt;Node1</title>
<path fill="none" stroke="midnightblue" d="M148,-312.555C148,-303.646 148,-294.257 148,-285.318"/>
<polygon fill="none" stroke="midnightblue" points="144.5,-312.737 148,-322.737 151.5,-312.737 144.5,-312.737"/>
</g>
</g>
</svg>
