<?xml version="1.0" encoding="UTF-8" standalone="no"?>
<!DOCTYPE svg PUBLIC "-//W3C//DTD SVG 1.1//EN"
 "http://www.w3.org/Graphics/SVG/1.1/DTD/svg11.dtd">
<!-- Generated by graphviz version 2.36.0 (20140111.2315)
 -->
<!-- Title: o2::framework::Output Pages: 1 -->
<svg width="611pt" height="350pt"
 viewBox="0.00 0.00 611.00 350.00" xmlns="http://www.w3.org/2000/svg" xmlns:xlink="http://www.w3.org/1999/xlink">
<g id="graph0" class="graph" transform="scale(1 1) rotate(0) translate(4 346)">
<title>o2::framework::Output</title>
<!-- Node1 -->
<g id="node1" class="node"><title>Node1</title>
<polygon fill="#bfbfbf" stroke="black" points="211,-1 211,-113 325,-113 325,-1 211,-1"/>
<text text-anchor="middle" x="268" y="-101" font-family="Helvetica,sans-Serif" font-size="10.00">o2::framework::Output</text>
<polyline fill="none" stroke="black" points="211,-94 325,-94 "/>
<text text-anchor="middle" x="268" y="-82" font-family="Helvetica,sans-Serif" font-size="10.00"> </text>
<polyline fill="none" stroke="black" points="211,-75 325,-75 "/>
<text text-anchor="start" x="219" y="-63" font-family="Helvetica,sans-Serif" font-size="10.00">+ Output()</text>
<text text-anchor="start" x="219" y="-52" font-family="Helvetica,sans-Serif" font-size="10.00">+ Output()</text>
<text text-anchor="start" x="219" y="-41" font-family="Helvetica,sans-Serif" font-size="10.00">+ Output()</text>
<text text-anchor="start" x="219" y="-30" font-family="Helvetica,sans-Serif" font-size="10.00">+ Output()</text>
<text text-anchor="start" x="219" y="-19" font-family="Helvetica,sans-Serif" font-size="10.00">+ Output()</text>
<text text-anchor="start" x="219" y="-8" font-family="Helvetica,sans-Serif" font-size="10.00">+ operator==()</text>
</g>
<!-- Node2 -->
<g id="node2" class="node"><title>Node2</title>
<polygon fill="none" stroke="#bfbfbf" points="-0.5,-223.5 -0.5,-280.5 50.5,-280.5 50.5,-223.5 -0.5,-223.5"/>
<text text-anchor="middle" x="25" y="-268.5" font-family="Helvetica,sans-Serif" font-size="10.00">uint64_t</text>
<polyline fill="none" stroke="#bfbfbf" points="-0.5,-261.5 50.5,-261.5 "/>
<text text-anchor="middle" x="25" y="-249.5" font-family="Helvetica,sans-Serif" font-size="10.00"> </text>
<polyline fill="none" stroke="#bfbfbf" points="-0.5,-242.5 50.5,-242.5 "/>
<text text-anchor="middle" x="25" y="-230.5" font-family="Helvetica,sans-Serif" font-size="10.00"> </text>
</g>
<!-- Node2&#45;&gt;Node1 -->
<g id="edge1" class="edge"><title>Node2&#45;&gt;Node1</title>
<path fill="none" stroke="#404040" d="M30.3822,-223.304C35.3141,-204.161 44.3108,-179.151 60,-162 97.3519,-121.168 154.335,-94.2462 199.219,-78.0446"/>
<polygon fill="none" stroke="#404040" points="199.315,-78.0111 203.661,-72.2568 210.644,-74.0553 206.298,-79.8096 199.315,-78.0111"/>
<text text-anchor="middle" x="117" y="-135.5" font-family="Helvetica,sans-Serif" font-size="10.00"> +subSpec</text>
</g>
<!-- Node3 -->
<g id="node3" class="node"><title>Node3</title>
<polygon fill="none" stroke="#bfbfbf" points="69,-218 69,-286 211,-286 211,-218 69,-218"/>
<text text-anchor="start" x="77" y="-274" font-family="Helvetica,sans-Serif" font-size="10.00">Descriptor&lt; gSizeDataOrigin</text>
<text text-anchor="middle" x="140" y="-263" font-family="Helvetica,sans-Serif" font-size="10.00">String, printDataOrigin &gt;</text>
<polyline fill="none" stroke="#bfbfbf" points="69,-256 211,-256 "/>
<text text-anchor="middle" x="140" y="-244" font-family="Helvetica,sans-Serif" font-size="10.00"> </text>
<polyline fill="none" stroke="#bfbfbf" points="69,-237 211,-237 "/>
<text text-anchor="middle" x="140" y="-225" font-family="Helvetica,sans-Serif" font-size="10.00"> </text>
</g>
<!-- Node3&#45;&gt;Node1 -->
<g id="edge2" class="edge"><title>Node3&#45;&gt;Node1</title>
<path fill="none" stroke="#404040" d="M162.004,-217.822C179.161,-191.953 203.526,-155.215 224.571,-123.483"/>
<polygon fill="none" stroke="#404040" points="224.641,-123.377 224.624,-116.166 231.273,-113.377 231.291,-120.588 224.641,-123.377"/>
<text text-anchor="middle" x="232.5" y="-135.5" font-family="Helvetica,sans-Serif" font-size="10.00"> +origin</text>
</g>
<!-- Node4 -->
<g id="node4" class="node"><title>Node4</title>
<polygon fill="none" stroke="#bfbfbf" points="229,-223.5 229,-280.5 307,-280.5 307,-223.5 229,-223.5"/>
<text text-anchor="middle" x="268" y="-268.5" font-family="Helvetica,sans-Serif" font-size="10.00">enum Lifetime</text>
<polyline fill="none" stroke="#bfbfbf" points="229,-261.5 307,-261.5 "/>
<text text-anchor="middle" x="268" y="-249.5" font-family="Helvetica,sans-Serif" font-size="10.00"> </text>
<polyline fill="none" stroke="#bfbfbf" points="229,-242.5 307,-242.5 "/>
<text text-anchor="middle" x="268" y="-230.5" font-family="Helvetica,sans-Serif" font-size="10.00"> </text>
</g>
<!-- Node4&#45;&gt;Node1 -->
<g id="edge3" class="edge"><title>Node4&#45;&gt;Node1</title>
<path fill="none" stroke="#404040" d="M268,-223.348C268,-197.819 268,-158.878 268,-125.198"/>
<polygon fill="none" stroke="#404040" points="268,-125.062 264,-119.062 268,-113.062 272,-119.062 268,-125.062"/>
<text text-anchor="middle" x="288.5" y="-135.5" font-family="Helvetica,sans-Serif" font-size="10.00"> +lifetime</text>
</g>
<!-- Node5 -->
<g id="node5" class="node"><title>Node5</title>
<polygon fill="none" stroke="#bfbfbf" points="325,-218 325,-286 491,-286 491,-218 325,-218"/>
<text text-anchor="start" x="333" y="-274" font-family="Helvetica,sans-Serif" font-size="10.00">Descriptor&lt; gSizeDataDescription</text>
<text text-anchor="middle" x="408" y="-263" font-family="Helvetica,sans-Serif" font-size="10.00">String, printDataDescription &gt;</text>
<polyline fill="none" stroke="#bfbfbf" points="325,-256 491,-256 "/>
<text text-anchor="middle" x="408" y="-244" font-family="Helvetica,sans-Serif" font-size="10.00"> </text>
<polyline fill="none" stroke="#bfbfbf" points="325,-237 491,-237 "/>
<text text-anchor="middle" x="408" y="-225" font-family="Helvetica,sans-Serif" font-size="10.00"> </text>
</g>
<!-- Node5&#45;&gt;Node1 -->
<g id="edge4" class="edge"><title>Node5&#45;&gt;Node1</title>
<path fill="none" stroke="#404040" d="M383.933,-217.822C365.168,-191.953 338.518,-155.215 315.501,-123.483"/>
<polygon fill="none" stroke="#404040" points="315.216,-123.09 308.455,-120.582 308.17,-113.377 314.931,-115.885 315.216,-123.09"/>
<text text-anchor="middle" x="358.5" y="-135.5" font-family="Helvetica,sans-Serif" font-size="10.00"> +description</text>
</g>
<!-- Node6 -->
<g id="node6" class="node"><title>Node6</title>
<g id="a_node6"><a xlink:href="../../d0/d66/structo2_1_1header_1_1Stack.html" target="_top" xlink:title="a move&#45;only header stack with serialized headers This is the flat buffer where all the headers in a m...">
<polygon fill="none" stroke="black" points="509,-163 509,-341 603,-341 603,-163 509,-163"/>
<text text-anchor="middle" x="556" y="-329" font-family="Helvetica,sans-Serif" font-size="10.00">o2::header::Stack</text>
<polyline fill="none" stroke="black" points="509,-322 603,-322 "/>
<text text-anchor="middle" x="556" y="-310" font-family="Helvetica,sans-Serif" font-size="10.00"> </text>
<polyline fill="none" stroke="black" points="509,-303 603,-303 "/>
<text text-anchor="start" x="517" y="-291" font-family="Helvetica,sans-Serif" font-size="10.00">+ Stack()</text>
<text text-anchor="start" x="517" y="-280" font-family="Helvetica,sans-Serif" font-size="10.00">+ Stack()</text>
<text text-anchor="start" x="517" y="-269" font-family="Helvetica,sans-Serif" font-size="10.00">+ Stack()</text>
<text text-anchor="start" x="517" y="-258" font-family="Helvetica,sans-Serif" font-size="10.00">+ operator=()</text>
<text text-anchor="start" x="517" y="-247" font-family="Helvetica,sans-Serif" font-size="10.00">+ operator=()</text>
<text text-anchor="start" x="517" y="-236" font-family="Helvetica,sans-Serif" font-size="10.00">+ data()</text>
<text text-anchor="start" x="517" y="-225" font-family="Helvetica,sans-Serif" font-size="10.00">+ size()</text>
<text text-anchor="start" x="517" y="-214" font-family="Helvetica,sans-Serif" font-size="10.00">+ get_allocator()</text>
<text text-anchor="start" x="517" y="-203" font-family="Helvetica,sans-Serif" font-size="10.00">+ getFreefnHint()</text>
<text text-anchor="start" x="517" y="-192" font-family="Helvetica,sans-Serif" font-size="10.00">+ Stack()</text>
<text text-anchor="start" x="517" y="-181" font-family="Helvetica,sans-Serif" font-size="10.00">+ Stack()</text>
<text text-anchor="start" x="517" y="-170" font-family="Helvetica,sans-Serif" font-size="10.00">+ getFreefn()</text>
</a>
</g>
</g>
<!-- Node6&#45;&gt;Node1 -->
<g id="edge5" class="edge"><title>Node6&#45;&gt;Node1</title>
<path fill="none" stroke="#404040" d="M508.769,-170.461C505.956,-167.473 503.032,-164.634 500,-162 452.648,-120.862 386.378,-93.349 336.784,-77.0108"/>
<polygon fill="none" stroke="#404040" points="336.623,-76.9593 329.688,-78.9364 325.196,-73.2955 332.13,-71.3184 336.623,-76.9593"/>
<text text-anchor="middle" x="504.5" y="-135.5" font-family="Helvetica,sans-Serif" font-size="10.00"> +metaHeader</text>
</g>
</g>
</svg>
