<?xml version="1.0" encoding="UTF-8" standalone="no"?>
<!DOCTYPE svg PUBLIC "-//W3C//DTD SVG 1.1//EN"
 "http://www.w3.org/Graphics/SVG/1.1/DTD/svg11.dtd">
<!-- Generated by graphviz version 2.36.0 (20140111.2315)
 -->
<!-- Title: o2::framework::Output Pages: 1 -->
<!--zoomable 350 -->
<svg id="main" version="1.1" xmlns="http://www.w3.org/2000/svg" xmlns:xlink="http://www.w3.org/1999/xlink" xml:space="preserve" onload="init(evt)">
<style type="text/css"><![CDATA[
.edge:hover path { stroke: red; }
.edge:hover polygon { stroke: red; fill: red; }
]]></style>
<script type="text/javascript"><![CDATA[
var edges = document.getElementsByTagName('g');
if (edges && edges.length) {
  for (var i=0;i<edges.length;i++) {
    if (edges[i].id.substr(0,4)=='edge') {
      edges[i].setAttribute('class','edge');
    }
  }
}
]]></script>
        <defs>
                <circle id="rim" cx="0" cy="0" r="7"/>
                <circle id="rim2" cx="0" cy="0" r="3.5"/>
                <g id="zoomPlus">
                        <use xlink:href="#rim" fill="#404040">
                                <set attributeName="fill" to="#808080" begin="zoomplus.mouseover" end="zoomplus.mouseout"/>
                        </use>
                        <path d="M-4,0h8M0,-4v8" fill="none" stroke="white" stroke-width="1.5" pointer-events="none"/>
                </g>
                <g id="zoomMin">
                        <use xlink:href="#rim" fill="#404040">
                                <set attributeName="fill" to="#808080" begin="zoomminus.mouseover" end="zoomminus.mouseout"/>
                        </use>
                        <path d="M-4,0h8" fill="none" stroke="white" stroke-width="1.5" pointer-events="none"/>
                </g>
                <g id="dirArrow">
                        <path fill="none" stroke="white" stroke-width="1.5" d="M0,-3.0v7 M-2.5,-0.5L0,-3.0L2.5,-0.5"/>
                </g>
               <g id="resetDef">
                       <use xlink:href="#rim2" fill="#404040">
                               <set attributeName="fill" to="#808080" begin="reset.mouseover" end="reset.mouseout"/>
                       </use>
               </g>
        </defs>

<script type="text/javascript">
var viewWidth = 611;
var viewHeight = 350;
var sectionId = 'dynsection-0';
</script>
<script xlink:href="../../svgpan.js"/>
<svg id="graph" class="graph">
<g id="viewport">
<title>o2::framework::Output</title>
<!-- Node1 -->
<g id="node1" class="node"><title>Node1</title>
<polygon fill="#bfbfbf" stroke="black" points="211,-1 211,-113 325,-113 325,-1 211,-1"/>
<text text-anchor="middle" x="268" y="-101" font-family="Helvetica,sans-Serif" font-size="10.00">o2::framework::Output</text>
<polyline fill="none" stroke="black" points="211,-94 325,-94 "/>
<text text-anchor="middle" x="268" y="-82" font-family="Helvetica,sans-Serif" font-size="10.00"> </text>
<polyline fill="none" stroke="black" points="211,-75 325,-75 "/>
<text text-anchor="start" x="219" y="-63" font-family="Helvetica,sans-Serif" font-size="10.00">+ Output()</text>
<text text-anchor="start" x="219" y="-52" font-family="Helvetica,sans-Serif" font-size="10.00">+ Output()</text>
<text text-anchor="start" x="219" y="-41" font-family="Helvetica,sans-Serif" font-size="10.00">+ Output()</text>
<text text-anchor="start" x="219" y="-30" font-family="Helvetica,sans-Serif" font-size="10.00">+ Output()</text>
<text text-anchor="start" x="219" y="-19" font-family="Helvetica,sans-Serif" font-size="10.00">+ Output()</text>
<text text-anchor="start" x="219" y="-8" font-family="Helvetica,sans-Serif" font-size="10.00">+ operator==()</text>
</g>
<!-- Node2 -->
<g id="node2" class="node"><title>Node2</title>
<polygon fill="none" stroke="#bfbfbf" points="-0.5,-223.5 -0.5,-280.5 50.5,-280.5 50.5,-223.5 -0.5,-223.5"/>
<text text-anchor="middle" x="25" y="-268.5" font-family="Helvetica,sans-Serif" font-size="10.00">uint64_t</text>
<polyline fill="none" stroke="#bfbfbf" points="-0.5,-261.5 50.5,-261.5 "/>
<text text-anchor="middle" x="25" y="-249.5" font-family="Helvetica,sans-Serif" font-size="10.00"> </text>
<polyline fill="none" stroke="#bfbfbf" points="-0.5,-242.5 50.5,-242.5 "/>
<text text-anchor="middle" x="25" y="-230.5" font-family="Helvetica,sans-Serif" font-size="10.00"> </text>
</g>
<!-- Node2&#45;&gt;Node1 -->
<g id="edge1" class="edge"><title>Node2&#45;&gt;Node1</title>
<path fill="none" stroke="#404040" d="M30.3822,-223.304C35.3141,-204.161 44.3108,-179.151 60,-162 97.3519,-121.168 154.335,-94.2462 199.219,-78.0446"/>
<polygon fill="none" stroke="#404040" points="199.315,-78.0111 203.661,-72.2568 210.644,-74.0553 206.298,-79.8096 199.315,-78.0111"/>
<text text-anchor="middle" x="117" y="-135.5" font-family="Helvetica,sans-Serif" font-size="10.00"> +subSpec</text>
</g>
<!-- Node3 -->
<g id="node3" class="node"><title>Node3</title>
<polygon fill="none" stroke="#bfbfbf" points="69,-218 69,-286 211,-286 211,-218 69,-218"/>
<text text-anchor="start" x="77" y="-274" font-family="Helvetica,sans-Serif" font-size="10.00">Descriptor&lt; gSizeDataOrigin</text>
<text text-anchor="middle" x="140" y="-263" font-family="Helvetica,sans-Serif" font-size="10.00">String, printDataOrigin &gt;</text>
<polyline fill="none" stroke="#bfbfbf" points="69,-256 211,-256 "/>
<text text-anchor="middle" x="140" y="-244" font-family="Helvetica,sans-Serif" font-size="10.00"> </text>
<polyline fill="none" stroke="#bfbfbf" points="69,-237 211,-237 "/>
<text text-anchor="middle" x="140" y="-225" font-family="Helvetica,sans-Serif" font-size="10.00"> </text>
</g>
<!-- Node3&#45;&gt;Node1 -->
<g id="edge2" class="edge"><title>Node3&#45;&gt;Node1</title>
<path fill="none" stroke="#404040" d="M162.004,-217.822C179.161,-191.953 203.526,-155.215 224.571,-123.483"/>
<polygon fill="none" stroke="#404040" points="224.641,-123.377 224.624,-116.166 231.273,-113.377 231.291,-120.588 224.641,-123.377"/>
<text text-anchor="middle" x="232.5" y="-135.5" font-family="Helvetica,sans-Serif" font-size="10.00"> +origin</text>
</g>
<!-- Node4 -->
<g id="node4" class="node"><title>Node4</title>
<polygon fill="none" stroke="#bfbfbf" points="229,-223.5 229,-280.5 307,-280.5 307,-223.5 229,-223.5"/>
<text text-anchor="middle" x="268" y="-268.5" font-family="Helvetica,sans-Serif" font-size="10.00">enum Lifetime</text>
<polyline fill="none" stroke="#bfbfbf" points="229,-261.5 307,-261.5 "/>
<text text-anchor="middle" x="268" y="-249.5" font-family="Helvetica,sans-Serif" font-size="10.00"> </text>
<polyline fill="none" stroke="#bfbfbf" points="229,-242.5 307,-242.5 "/>
<text text-anchor="middle" x="268" y="-230.5" font-family="Helvetica,sans-Serif" font-size="10.00"> </text>
</g>
<!-- Node4&#45;&gt;Node1 -->
<g id="edge3" class="edge"><title>Node4&#45;&gt;Node1</title>
<path fill="none" stroke="#404040" d="M268,-223.348C268,-197.819 268,-158.878 268,-125.198"/>
<polygon fill="none" stroke="#404040" points="268,-125.062 264,-119.062 268,-113.062 272,-119.062 268,-125.062"/>
<text text-anchor="middle" x="288.5" y="-135.5" font-family="Helvetica,sans-Serif" font-size="10.00"> +lifetime</text>
</g>
<!-- Node5 -->
<g id="node5" class="node"><title>Node5</title>
<polygon fill="none" stroke="#bfbfbf" points="325,-218 325,-286 491,-286 491,-218 325,-218"/>
<text text-anchor="start" x="333" y="-274" font-family="Helvetica,sans-Serif" font-size="10.00">Descriptor&lt; gSizeDataDescription</text>
<text text-anchor="middle" x="408" y="-263" font-family="Helvetica,sans-Serif" font-size="10.00">String, printDataDescription &gt;</text>
<polyline fill="none" stroke="#bfbfbf" points="325,-256 491,-256 "/>
<text text-anchor="middle" x="408" y="-244" font-family="Helvetica,sans-Serif" font-size="10.00"> </text>
<polyline fill="none" stroke="#bfbfbf" points="325,-237 491,-237 "/>
<text text-anchor="middle" x="408" y="-225" font-family="Helvetica,sans-Serif" font-size="10.00"> </text>
</g>
<!-- Node5&#45;&gt;Node1 -->
<g id="edge4" class="edge"><title>Node5&#45;&gt;Node1</title>
<path fill="none" stroke="#404040" d="M383.933,-217.822C365.168,-191.953 338.518,-155.215 315.501,-123.483"/>
<polygon fill="none" stroke="#404040" points="315.216,-123.09 308.455,-120.582 308.17,-113.377 314.931,-115.885 315.216,-123.09"/>
<text text-anchor="middle" x="358.5" y="-135.5" font-family="Helvetica,sans-Serif" font-size="10.00"> +description</text>
</g>
<!-- Node6 -->
<g id="node6" class="node"><title>Node6</title>
<g id="a_node6"><a xlink:href="../../d0/d66/structo2_1_1header_1_1Stack.html" target="_top" xlink:title="a move&#45;only header stack with serialized headers This is the flat buffer where all the headers in a m...">
<polygon fill="none" stroke="black" points="509,-163 509,-341 603,-341 603,-163 509,-163"/>
<text text-anchor="middle" x="556" y="-329" font-family="Helvetica,sans-Serif" font-size="10.00">o2::header::Stack</text>
<polyline fill="none" stroke="black" points="509,-322 603,-322 "/>
<text text-anchor="middle" x="556" y="-310" font-family="Helvetica,sans-Serif" font-size="10.00"> </text>
<polyline fill="none" stroke="black" points="509,-303 603,-303 "/>
<text text-anchor="start" x="517" y="-291" font-family="Helvetica,sans-Serif" font-size="10.00">+ Stack()</text>
<text text-anchor="start" x="517" y="-280" font-family="Helvetica,sans-Serif" font-size="10.00">+ Stack()</text>
<text text-anchor="start" x="517" y="-269" font-family="Helvetica,sans-Serif" font-size="10.00">+ Stack()</text>
<text text-anchor="start" x="517" y="-258" font-family="Helvetica,sans-Serif" font-size="10.00">+ operator=()</text>
<text text-anchor="start" x="517" y="-247" font-family="Helvetica,sans-Serif" font-size="10.00">+ operator=()</text>
<text text-anchor="start" x="517" y="-236" font-family="Helvetica,sans-Serif" font-size="10.00">+ data()</text>
<text text-anchor="start" x="517" y="-225" font-family="Helvetica,sans-Serif" font-size="10.00">+ size()</text>
<text text-anchor="start" x="517" y="-214" font-family="Helvetica,sans-Serif" font-size="10.00">+ get_allocator()</text>
<text text-anchor="start" x="517" y="-203" font-family="Helvetica,sans-Serif" font-size="10.00">+ getFreefnHint()</text>
<text text-anchor="start" x="517" y="-192" font-family="Helvetica,sans-Serif" font-size="10.00">+ Stack()</text>
<text text-anchor="start" x="517" y="-181" font-family="Helvetica,sans-Serif" font-size="10.00">+ Stack()</text>
<text text-anchor="start" x="517" y="-170" font-family="Helvetica,sans-Serif" font-size="10.00">+ getFreefn()</text>
</a>
</g>
</g>
<!-- Node6&#45;&gt;Node1 -->
<g id="edge5" class="edge"><title>Node6&#45;&gt;Node1</title>
<path fill="none" stroke="#404040" d="M508.769,-170.461C505.956,-167.473 503.032,-164.634 500,-162 452.648,-120.862 386.378,-93.349 336.784,-77.0108"/>
<polygon fill="none" stroke="#404040" points="336.623,-76.9593 329.688,-78.9364 325.196,-73.2955 332.13,-71.3184 336.623,-76.9593"/>
<text text-anchor="middle" x="504.5" y="-135.5" font-family="Helvetica,sans-Serif" font-size="10.00"> +metaHeader</text>
</g>
</g>
</svg>
        <g id="navigator" transform="translate(0 0)" fill="#404254">
                <rect fill="#f2f5e9" fill-opacity="0.5" stroke="#606060" stroke-width=".5" x="0" y="0" width="60" height="60"/>
                <use id="zoomplus" xlink:href="#zoomPlus" x="17" y="9" onmousedown="handleZoom(evt,'in')"/>
                <use id="zoomminus" xlink:href="#zoomMin" x="42" y="9" onmousedown="handleZoom(evt,'out')"/>
                <use id="reset" xlink:href="#resetDef" x="30" y="36" onmousedown="handleReset()"/>
                <g id="arrowUp" xlink:href="#dirArrow" transform="translate(30 24)" onmousedown="handlePan(0,-1)">
                  <use xlink:href="#rim" fill="#404040">
                        <set attributeName="fill" to="#808080" begin="arrowUp.mouseover" end="arrowUp.mouseout"/>
                  </use>
                  <path fill="none" stroke="white" stroke-width="1.5" d="M0,-3.0v7 M-2.5,-0.5L0,-3.0L2.5,-0.5"/>
                </g>
                <g id="arrowRight" xlink:href="#dirArrow" transform="rotate(90) translate(36 -43)" onmousedown="handlePan(1,0)">
                  <use xlink:href="#rim" fill="#404040">
                        <set attributeName="fill" to="#808080" begin="arrowRight.mouseover" end="arrowRight.mouseout"/>
                  </use>
                  <path fill="none" stroke="white" stroke-width="1.5" d="M0,-3.0v7 M-2.5,-0.5L0,-3.0L2.5,-0.5"/>
                </g>
                <g id="arrowDown" xlink:href="#dirArrow" transform="rotate(180) translate(-30 -48)" onmousedown="handlePan(0,1)">
                  <use xlink:href="#rim" fill="#404040">
                        <set attributeName="fill" to="#808080" begin="arrowDown.mouseover" end="arrowDown.mouseout"/>
                  </use>
                  <path fill="none" stroke="white" stroke-width="1.5" d="M0,-3.0v7 M-2.5,-0.5L0,-3.0L2.5,-0.5"/>
                </g>
                <g id="arrowLeft" xlink:href="#dirArrow" transform="rotate(270) translate(-36 17)" onmousedown="handlePan(-1,0)">
                  <use xlink:href="#rim" fill="#404040">
                        <set attributeName="fill" to="#808080" begin="arrowLeft.mouseover" end="arrowLeft.mouseout"/>
                  </use>
                  <path fill="none" stroke="white" stroke-width="1.5" d="M0,-3.0v7 M-2.5,-0.5L0,-3.0L2.5,-0.5"/>
                </g>
        </g>
        <svg viewBox="0 0 15 15" width="100%" height="30px" preserveAspectRatio="xMaxYMin meet">
         <g id="arrow_out" transform="scale(0.3 0.3)">
          <a xlink:href="structo2_1_1framework_1_1Output__coll__graph_org.svg" target="_base">
           <rect id="button" ry="5" rx="5" y="6" x="6" height="38" width="38"
                fill="#f2f5e9" fill-opacity="0.5" stroke="#606060" stroke-width="1.0"/>
           <path id="arrow"
             d="M 11.500037,31.436501 C 11.940474,20.09759 22.043105,11.32322 32.158766,21.979434 L 37.068811,17.246167 C 37.068811,17.246167 37.088388,32 37.088388,32 L 22.160133,31.978069 C 22.160133,31.978069 26.997745,27.140456 26.997745,27.140456 C 18.528582,18.264221 13.291696,25.230495 11.500037,31.436501 z"
             style="fill:#404040;"/>
          </a>
         </g>
        </svg>
</svg>
