<?xml version="1.0" encoding="UTF-8" standalone="no"?>
<!DOCTYPE svg PUBLIC "-//W3C//DTD SVG 1.1//EN"
 "http://www.w3.org/Graphics/SVG/1.1/DTD/svg11.dtd">
<!-- Generated by graphviz version 2.36.0 (20140111.2315)
 -->
<!-- Title: /home/travis/build/AliceO2Group/AliceO2/DataFormats/Reconstruction Pages: 1 -->
<svg width="343pt" height="231pt"
 viewBox="0.00 0.00 343.00 231.00" xmlns="http://www.w3.org/2000/svg" xmlns:xlink="http://www.w3.org/1999/xlink">
<g id="graph0" class="graph" transform="scale(1 1) rotate(0) translate(4 227)">
<title>/home/travis/build/AliceO2Group/AliceO2/DataFormats/Reconstruction</title>
<g id="clust1" class="cluster"><title>clusterdir_2171f7ec022c5423887b07c69b2f5b48</title>
<g id="a_clust1"><a xlink:href="dir_2171f7ec022c5423887b07c69b2f5b48.html" target="_top" xlink:title="DataFormats">
<polygon fill="#ddddee" stroke="black" points="8,-56 8,-215 268,-215 268,-56 8,-56"/>
<text text-anchor="middle" x="138" y="-203" font-family="Helvetica,sans-Serif" font-size="10.00">DataFormats</text>
</a>
</g>
</g>
<g id="clust2" class="cluster"><title>clusterdir_d269712cc31e133b892a3b3f6424741a</title>
<g id="a_clust2"><a xlink:href="dir_d269712cc31e133b892a3b3f6424741a.html" target="_top">
<polygon fill="#eeeeff" stroke="black" points="16,-64 16,-188 260,-188 260,-64 16,-64"/>
</a>
</g>
</g>
<!-- dir_d269712cc31e133b892a3b3f6424741a -->
<g id="node1" class="node"><title>dir_d269712cc31e133b892a3b3f6424741a</title>
<text text-anchor="middle" x="210" y="-159.5" font-family="Helvetica,sans-Serif" font-size="10.00">Reconstruction</text>
</g>
<!-- dir_99c43ad88135ecdb15d6d5c818628268 -->
<g id="node2" class="node"><title>dir_99c43ad88135ecdb15d6d5c818628268</title>
<g id="a_node2"><a xlink:href="dir_99c43ad88135ecdb15d6d5c818628268.html" target="_top" xlink:title="include">
<polygon fill="white" stroke="red" points="150,-108 96,-108 96,-72 150,-72 150,-108"/>
<text text-anchor="middle" x="123" y="-87.5" font-family="Helvetica,sans-Serif" font-size="10.00">include</text>
</a>
</g>
</g>
<!-- dir_4ab6b4cc6a7edbff49100e9123df213f -->
<g id="node5" class="node"><title>dir_4ab6b4cc6a7edbff49100e9123df213f</title>
<g id="a_node5"><a xlink:href="dir_4ab6b4cc6a7edbff49100e9123df213f.html" target="_top" xlink:title="Common">
<polygon fill="none" stroke="red" points="333.5,-180 278.5,-180 278.5,-144 333.5,-144 333.5,-180"/>
<text text-anchor="middle" x="306" y="-159.5" font-family="Helvetica,sans-Serif" font-size="10.00">Common</text>
</a>
</g>
</g>
<!-- dir_99c43ad88135ecdb15d6d5c818628268&#45;&gt;dir_4ab6b4cc6a7edbff49100e9123df213f -->
<g id="edge9" class="edge"><title>dir_99c43ad88135ecdb15d6d5c818628268&#45;&gt;dir_4ab6b4cc6a7edbff49100e9123df213f</title>
<path fill="none" stroke="black" d="M150.056,-103.613C176.891,-114.204 218.701,-129.834 255,-144 259.438,-145.732 264.127,-147.596 268.819,-149.432"/>
<polygon fill="black" stroke="black" points="267.784,-152.784 278.374,-153.113 270.3,-146.252 267.784,-152.784"/>
<g id="a_edge9&#45;headlabel"><a xlink:href="dir_000101_000016.html" target="_top" xlink:title="5">
<text text-anchor="middle" x="263.409" y="-151.642" font-family="Helvetica,sans-Serif" font-size="10.00">5</text>
</a>
</g>
</g>
<!-- dir_2801adc79bf3c286b1b479858d2cade4 -->
<g id="node6" class="node"><title>dir_2801adc79bf3c286b1b479858d2cade4</title>
<g id="a_node6"><a xlink:href="dir_2801adc79bf3c286b1b479858d2cade4.html" target="_top" xlink:title="Detectors">
<polygon fill="none" stroke="red" points="335.25,-108 276.75,-108 276.75,-72 335.25,-72 335.25,-108"/>
<text text-anchor="middle" x="306" y="-87.5" font-family="Helvetica,sans-Serif" font-size="10.00">Detectors</text>
</a>
</g>
</g>
<!-- dir_99c43ad88135ecdb15d6d5c818628268&#45;&gt;dir_2801adc79bf3c286b1b479858d2cade4 -->
<g id="edge10" class="edge"><title>dir_99c43ad88135ecdb15d6d5c818628268&#45;&gt;dir_2801adc79bf3c286b1b479858d2cade4</title>
<path fill="none" stroke="black" d="M150.164,-90C188.814,-90 227.465,-90 266.115,-90"/>
<polygon fill="black" stroke="black" points="266.476,-93.5001 276.476,-90 266.476,-86.5001 266.476,-93.5001"/>
<g id="a_edge10&#45;headlabel"><a xlink:href="dir_000101_000066.html" target="_top" xlink:title="1">
<text text-anchor="middle" x="262.882" y="-93.8393" font-family="Helvetica,sans-Serif" font-size="10.00">1</text>
</a>
</g>
</g>
<!-- dir_7924ba4398ae4560cd37376e44666c6d -->
<g id="node7" class="node"><title>dir_7924ba4398ae4560cd37376e44666c6d</title>
<g id="a_node7"><a xlink:href="dir_7924ba4398ae4560cd37376e44666c6d.html" target="_top" xlink:title="common">
<polygon fill="none" stroke="red" points="150,-36 96,-36 96,-0 150,-0 150,-36"/>
<text text-anchor="middle" x="123" y="-15.5" font-family="Helvetica,sans-Serif" font-size="10.00">common</text>
</a>
</g>
</g>
<!-- dir_99c43ad88135ecdb15d6d5c818628268&#45;&gt;dir_7924ba4398ae4560cd37376e44666c6d -->
<g id="edge11" class="edge"><title>dir_99c43ad88135ecdb15d6d5c818628268&#45;&gt;dir_7924ba4398ae4560cd37376e44666c6d</title>
<path fill="none" stroke="black" d="M123,-71.6966C123,-63.9827 123,-54.7125 123,-46.1124"/>
<polygon fill="black" stroke="black" points="126.5,-46.1043 123,-36.1043 119.5,-46.1044 126.5,-46.1043"/>
<g id="a_edge11&#45;headlabel"><a xlink:href="dir_000101_000057.html" target="_top" xlink:title="3">
<text text-anchor="middle" x="129.339" y="-47.199" font-family="Helvetica,sans-Serif" font-size="10.00">3</text>
</a>
</g>
</g>
<!-- dir_46bf9eb01275b6b66c6fbadfa4838276 -->
<g id="node3" class="node"><title>dir_46bf9eb01275b6b66c6fbadfa4838276</title>
<g id="a_node3"><a xlink:href="dir_46bf9eb01275b6b66c6fbadfa4838276.html" target="_top" xlink:title="src">
<polygon fill="white" stroke="black" points="150,-180 96,-180 96,-144 150,-144 150,-180"/>
<text text-anchor="middle" x="123" y="-159.5" font-family="Helvetica,sans-Serif" font-size="10.00">src</text>
</a>
</g>
</g>
<!-- dir_46bf9eb01275b6b66c6fbadfa4838276&#45;&gt;dir_99c43ad88135ecdb15d6d5c818628268 -->
<g id="edge3" class="edge"><title>dir_46bf9eb01275b6b66c6fbadfa4838276&#45;&gt;dir_99c43ad88135ecdb15d6d5c818628268</title>
<path fill="none" stroke="black" d="M123,-143.697C123,-135.983 123,-126.712 123,-118.112"/>
<polygon fill="black" stroke="black" points="126.5,-118.104 123,-108.104 119.5,-118.104 126.5,-118.104"/>
<g id="a_edge3&#45;headlabel"><a xlink:href="dir_000108_000101.html" target="_top" xlink:title="4">
<text text-anchor="middle" x="129.339" y="-119.199" font-family="Helvetica,sans-Serif" font-size="10.00">4</text>
</a>
</g>
</g>
<!-- dir_c5b7346fd504360471cc9fe5be83ae72 -->
<g id="node4" class="node"><title>dir_c5b7346fd504360471cc9fe5be83ae72</title>
<g id="a_node4"><a xlink:href="dir_c5b7346fd504360471cc9fe5be83ae72.html" target="_top" xlink:title="test">
<polygon fill="white" stroke="black" points="78,-180 24,-180 24,-144 78,-144 78,-180"/>
<text text-anchor="middle" x="51" y="-159.5" font-family="Helvetica,sans-Serif" font-size="10.00">test</text>
</a>
</g>
</g>
<!-- dir_c5b7346fd504360471cc9fe5be83ae72&#45;&gt;dir_99c43ad88135ecdb15d6d5c818628268 -->
<g id="edge8" class="edge"><title>dir_c5b7346fd504360471cc9fe5be83ae72&#45;&gt;dir_99c43ad88135ecdb15d6d5c818628268</title>
<path fill="none" stroke="black" d="M68.7978,-143.697C77.604,-135.135 88.3821,-124.656 98.0011,-115.304"/>
<polygon fill="black" stroke="black" points="100.677,-117.585 105.407,-108.104 95.7972,-112.566 100.677,-117.585"/>
<g id="a_edge8&#45;headlabel"><a xlink:href="dir_000143_000101.html" target="_top" xlink:title="1">
<text text-anchor="middle" x="100.079" y="-119.626" font-family="Helvetica,sans-Serif" font-size="10.00">1</text>
</a>
</g>
</g>
<!-- dir_c5b7346fd504360471cc9fe5be83ae72&#45;&gt;dir_7924ba4398ae4560cd37376e44666c6d -->
<g id="edge7" class="edge"><title>dir_c5b7346fd504360471cc9fe5be83ae72&#45;&gt;dir_7924ba4398ae4560cd37376e44666c6d</title>
<path fill="none" stroke="black" d="M54.4793,-143.626C59.361,-121.931 69.6469,-84.2403 87,-56 89.6188,-51.7381 92.8069,-47.5759 96.1915,-43.6725"/>
<polygon fill="black" stroke="black" points="99.0224,-45.7695 103.296,-36.0746 93.9093,-40.9887 99.0224,-45.7695"/>
<g id="a_edge7&#45;headlabel"><a xlink:href="dir_000143_000057.html" target="_top" xlink:title="1">
<text text-anchor="middle" x="98.6414" y="-47.8343" font-family="Helvetica,sans-Serif" font-size="10.00">1</text>
</a>
</g>
</g>
<!-- dir_4ab6b4cc6a7edbff49100e9123df213f&#45;&gt;dir_99c43ad88135ecdb15d6d5c818628268 -->
<g id="edge2" class="edge"><title>dir_4ab6b4cc6a7edbff49100e9123df213f&#45;&gt;dir_99c43ad88135ecdb15d6d5c818628268</title>
<path fill="none" stroke="black" d="M278.364,-146.111C276.557,-145.393 274.759,-144.686 273,-144 234.915,-129.137 190.765,-112.663 160.109,-102.087"/>
<polygon fill="black" stroke="black" points="160.853,-98.6436 150.259,-98.7379 158.599,-105.271 160.853,-98.6436"/>
<g id="a_edge2&#45;headlabel"><a xlink:href="dir_000016_000101.html" target="_top" xlink:title="1">
<text text-anchor="middle" x="165.17" y="-94.6126" font-family="Helvetica,sans-Serif" font-size="10.00">1</text>
</a>
</g>
</g>
<!-- dir_4ab6b4cc6a7edbff49100e9123df213f&#45;&gt;dir_2801adc79bf3c286b1b479858d2cade4 -->
<g id="edge1" class="edge"><title>dir_4ab6b4cc6a7edbff49100e9123df213f&#45;&gt;dir_2801adc79bf3c286b1b479858d2cade4</title>
<path fill="none" stroke="black" d="M300.084,-143.697C299.289,-135.983 299.062,-126.712 299.405,-118.112"/>
<polygon fill="black" stroke="black" points="302.898,-118.324 300.105,-108.104 295.915,-117.836 302.898,-118.324"/>
<g id="a_edge1&#45;headlabel"><a xlink:href="dir_000016_000066.html" target="_top" xlink:title="1">
<text text-anchor="middle" x="305.48" y="-119.608" font-family="Helvetica,sans-Serif" font-size="10.00">1</text>
</a>
</g>
</g>
<!-- dir_2801adc79bf3c286b1b479858d2cade4&#45;&gt;dir_99c43ad88135ecdb15d6d5c818628268 -->
<g id="edge6" class="edge"><title>dir_2801adc79bf3c286b1b479858d2cade4&#45;&gt;dir_99c43ad88135ecdb15d6d5c818628268</title>
<path fill="none" stroke="black" d="M276.476,-90C237.826,-90 199.176,-90 160.526,-90"/>
<polygon fill="black" stroke="black" points="160.164,-86.5001 150.164,-90 160.164,-93.5001 160.164,-86.5001"/>
<g id="a_edge6&#45;headlabel"><a xlink:href="dir_000066_000101.html" target="_top" xlink:title="4">
<text text-anchor="middle" x="163.759" y="-81.1607" font-family="Helvetica,sans-Serif" font-size="10.00">4</text>
</a>
</g>
</g>
<!-- dir_2801adc79bf3c286b1b479858d2cade4&#45;&gt;dir_4ab6b4cc6a7edbff49100e9123df213f -->
<g id="edge4" class="edge"><title>dir_2801adc79bf3c286b1b479858d2cade4&#45;&gt;dir_4ab6b4cc6a7edbff49100e9123df213f</title>
<path fill="none" stroke="black" d="M311.895,-108.104C312.701,-115.791 312.937,-125.054 312.604,-133.665"/>
<polygon fill="black" stroke="black" points="309.109,-133.48 311.916,-143.697 316.092,-133.96 309.109,-133.48"/>
<g id="a_edge4&#45;headlabel"><a xlink:href="dir_000066_000016.html" target="_top" xlink:title="9">
<text text-anchor="middle" x="306.522" y="-127.2" font-family="Helvetica,sans-Serif" font-size="10.00">9</text>
</a>
</g>
</g>
<!-- dir_2801adc79bf3c286b1b479858d2cade4&#45;&gt;dir_7924ba4398ae4560cd37376e44666c6d -->
<g id="edge5" class="edge"><title>dir_2801adc79bf3c286b1b479858d2cade4&#45;&gt;dir_7924ba4398ae4560cd37376e44666c6d</title>
<path fill="none" stroke="black" d="M287.47,-71.7705C280.529,-66.0659 272.304,-60.1276 264,-56 230.898,-39.5463 189.669,-29.8234 160.362,-24.5069"/>
<polygon fill="black" stroke="black" points="160.591,-20.9947 150.142,-22.7432 159.401,-27.8928 160.591,-20.9947"/>
<g id="a_edge5&#45;headlabel"><a xlink:href="dir_000066_000057.html" target="_top" xlink:title="1">
<text text-anchor="middle" x="164.616" y="-16.3079" font-family="Helvetica,sans-Serif" font-size="10.00">1</text>
</a>
</g>
</g>
</g>
</svg>
