<?xml version="1.0" encoding="UTF-8" standalone="no"?>
<!DOCTYPE svg PUBLIC "-//W3C//DTD SVG 1.1//EN"
 "http://www.w3.org/Graphics/SVG/1.1/DTD/svg11.dtd">
<!-- Generated by graphviz version 2.36.0 (20140111.2315)
 -->
<!-- Title: /home/travis/build/AliceO2Group/AliceO2/Framework/TestWorkflows/src Pages: 1 -->
<svg width="209pt" height="439pt"
 viewBox="0.00 0.00 209.25 439.00" xmlns="http://www.w3.org/2000/svg" xmlns:xlink="http://www.w3.org/1999/xlink">
<g id="graph0" class="graph" transform="scale(1 1) rotate(0) translate(4 435)">
<title>/home/travis/build/AliceO2Group/AliceO2/Framework/TestWorkflows/src</title>
<g id="clust1" class="cluster"><title>clusterdir_a8f73827fca2a0188d35dc47dc5b0ea3</title>
<g id="a_clust1"><a xlink:href="dir_a8f73827fca2a0188d35dc47dc5b0ea3.html" target="_top" xlink:title="TestWorkflows">
<polygon fill="#ddddee" stroke="black" points="43,-352 43,-423 126,-423 126,-352 43,-352"/>
<text text-anchor="middle" x="84.5" y="-411" font-family="Helvetica,sans-Serif" font-size="10.00">TestWorkflows</text>
</a>
</g>
</g>
<!-- dir_80c3b7d4c168c9aa75dd1ba81b9fa387 -->
<g id="node1" class="node"><title>dir_80c3b7d4c168c9aa75dd1ba81b9fa387</title>
<g id="a_node1"><a xlink:href="dir_80c3b7d4c168c9aa75dd1ba81b9fa387.html" target="_top" xlink:title="src">
<polygon fill="#eeeeff" stroke="black" points="111,-396 57,-396 57,-360 111,-360 111,-396"/>
<text text-anchor="middle" x="84" y="-375.5" font-family="Helvetica,sans-Serif" font-size="10.00">src</text>
</a>
</g>
</g>
<!-- dir_0b342c6c6b7d2278121a0bb9c4985063 -->
<g id="node2" class="node"><title>dir_0b342c6c6b7d2278121a0bb9c4985063</title>
<g id="a_node2"><a xlink:href="dir_0b342c6c6b7d2278121a0bb9c4985063.html" target="_top" xlink:title="Generators">
<polygon fill="none" stroke="red" points="177.25,-324 112.75,-324 112.75,-288 177.25,-288 177.25,-324"/>
<text text-anchor="middle" x="145" y="-303.5" font-family="Helvetica,sans-Serif" font-size="10.00">Generators</text>
</a>
</g>
</g>
<!-- dir_80c3b7d4c168c9aa75dd1ba81b9fa387&#45;&gt;dir_0b342c6c6b7d2278121a0bb9c4985063 -->
<g id="edge1" class="edge"><title>dir_80c3b7d4c168c9aa75dd1ba81b9fa387&#45;&gt;dir_0b342c6c6b7d2278121a0bb9c4985063</title>
<path fill="none" stroke="black" d="M99.0787,-359.697C106.392,-351.305 115.31,-341.07 123.335,-331.861"/>
<polygon fill="black" stroke="black" points="126.164,-333.943 130.095,-324.104 120.886,-329.344 126.164,-333.943"/>
<g id="a_edge1&#45;headlabel"><a xlink:href="dir_000368_000384.html" target="_top" xlink:title="1">
<text text-anchor="middle" x="125.943" y="-336.018" font-family="Helvetica,sans-Serif" font-size="10.00">1</text>
</a>
</g>
</g>
<!-- dir_4ab6b4cc6a7edbff49100e9123df213f -->
<g id="node3" class="node"><title>dir_4ab6b4cc6a7edbff49100e9123df213f</title>
<g id="a_node3"><a xlink:href="dir_4ab6b4cc6a7edbff49100e9123df213f.html" target="_top" xlink:title="Common">
<polygon fill="none" stroke="red" points="129.5,-252 74.5,-252 74.5,-216 129.5,-216 129.5,-252"/>
<text text-anchor="middle" x="102" y="-231.5" font-family="Helvetica,sans-Serif" font-size="10.00">Common</text>
</a>
</g>
</g>
<!-- dir_80c3b7d4c168c9aa75dd1ba81b9fa387&#45;&gt;dir_4ab6b4cc6a7edbff49100e9123df213f -->
<g id="edge2" class="edge"><title>dir_80c3b7d4c168c9aa75dd1ba81b9fa387&#45;&gt;dir_4ab6b4cc6a7edbff49100e9123df213f</title>
<path fill="none" stroke="black" d="M86.1712,-359.871C89.239,-335.67 94.8747,-291.211 98.5276,-262.393"/>
<polygon fill="black" stroke="black" points="102.036,-262.55 99.8211,-252.189 95.0912,-261.67 102.036,-262.55"/>
<g id="a_edge2&#45;headlabel"><a xlink:href="dir_000368_000016.html" target="_top" xlink:title="2">
<text text-anchor="middle" x="104.4" y="-263.973" font-family="Helvetica,sans-Serif" font-size="10.00">2</text>
</a>
</g>
</g>
<!-- dir_9f165b2481dacfe69aa54d326bd5cd47 -->
<g id="node4" class="node"><title>dir_9f165b2481dacfe69aa54d326bd5cd47</title>
<g id="a_node4"><a xlink:href="dir_9f165b2481dacfe69aa54d326bd5cd47.html" target="_top" xlink:title="Core">
<polygon fill="none" stroke="red" points="92,-36 38,-36 38,-0 92,-0 92,-36"/>
<text text-anchor="middle" x="65" y="-15.5" font-family="Helvetica,sans-Serif" font-size="10.00">Core</text>
</a>
</g>
</g>
<!-- dir_80c3b7d4c168c9aa75dd1ba81b9fa387&#45;&gt;dir_9f165b2481dacfe69aa54d326bd5cd47 -->
<g id="edge3" class="edge"><title>dir_80c3b7d4c168c9aa75dd1ba81b9fa387&#45;&gt;dir_9f165b2481dacfe69aa54d326bd5cd47</title>
<path fill="none" stroke="black" d="M65.3577,-359.685C40.6106,-334.72 0,-285.985 0,-235 0,-235 0,-235 0,-161 0,-116.963 26.1651,-71.6447 45.2939,-44.3977"/>
<polygon fill="black" stroke="black" points="48.1906,-46.3648 51.2152,-36.2108 42.5187,-42.2624 48.1906,-46.3648"/>
<g id="a_edge3&#45;headlabel"><a xlink:href="dir_000368_000370.html" target="_top" xlink:title="62">
<text text-anchor="middle" x="48.3847" y="-48.4413" font-family="Helvetica,sans-Serif" font-size="10.00">62</text>
</a>
</g>
</g>
<!-- dir_051dca18e802f8e9474f2e30d29c04e0 -->
<g id="node5" class="node"><title>dir_051dca18e802f8e9474f2e30d29c04e0</title>
<g id="a_node5"><a xlink:href="dir_051dca18e802f8e9474f2e30d29c04e0.html" target="_top" xlink:title="Detectors">
<polygon fill="none" stroke="red" points="155.25,-108 96.75,-108 96.75,-72 155.25,-72 155.25,-108"/>
<text text-anchor="middle" x="126" y="-87.5" font-family="Helvetica,sans-Serif" font-size="10.00">Detectors</text>
</a>
</g>
</g>
<!-- dir_80c3b7d4c168c9aa75dd1ba81b9fa387&#45;&gt;dir_051dca18e802f8e9474f2e30d29c04e0 -->
<g id="edge4" class="edge"><title>dir_80c3b7d4c168c9aa75dd1ba81b9fa387&#45;&gt;dir_051dca18e802f8e9474f2e30d29c04e0</title>
<path fill="none" stroke="black" d="M111.135,-371.237C135.498,-364.469 169.84,-350.609 186,-324 227.063,-256.389 174.54,-161.304 144.42,-116.392"/>
<polygon fill="black" stroke="black" points="147.274,-114.365 138.729,-108.101 141.503,-118.327 147.274,-114.365"/>
<g id="a_edge4&#45;headlabel"><a xlink:href="dir_000368_000028.html" target="_top" xlink:title="4">
<text text-anchor="middle" x="151.649" y="-113.222" font-family="Helvetica,sans-Serif" font-size="10.00">4</text>
</a>
</g>
</g>
<!-- dir_2171f7ec022c5423887b07c69b2f5b48 -->
<g id="node6" class="node"><title>dir_2171f7ec022c5423887b07c69b2f5b48</title>
<g id="a_node6"><a xlink:href="dir_2171f7ec022c5423887b07c69b2f5b48.html" target="_top" xlink:title="DataFormats">
<polygon fill="none" stroke="red" points="102,-180 28,-180 28,-144 102,-144 102,-180"/>
<text text-anchor="middle" x="65" y="-159.5" font-family="Helvetica,sans-Serif" font-size="10.00">DataFormats</text>
</a>
</g>
</g>
<!-- dir_80c3b7d4c168c9aa75dd1ba81b9fa387&#45;&gt;dir_2171f7ec022c5423887b07c69b2f5b48 -->
<g id="edge5" class="edge"><title>dir_80c3b7d4c168c9aa75dd1ba81b9fa387&#45;&gt;dir_2171f7ec022c5423887b07c69b2f5b48</title>
<path fill="none" stroke="black" d="M80.525,-359.704C75.8897,-335.667 67.9276,-290.742 65,-252 63.438,-231.33 63.5132,-207.882 63.9385,-190.245"/>
<polygon fill="black" stroke="black" points="67.4416,-190.189 64.2371,-180.091 60.4446,-189.983 67.4416,-190.189"/>
<g id="a_edge5&#45;headlabel"><a xlink:href="dir_000368_000056.html" target="_top" xlink:title="2">
<text text-anchor="middle" x="70.1741" y="-191.366" font-family="Helvetica,sans-Serif" font-size="10.00">2</text>
</a>
</g>
</g>
<!-- dir_0b342c6c6b7d2278121a0bb9c4985063&#45;&gt;dir_4ab6b4cc6a7edbff49100e9123df213f -->
<g id="edge6" class="edge"><title>dir_0b342c6c6b7d2278121a0bb9c4985063&#45;&gt;dir_4ab6b4cc6a7edbff49100e9123df213f</title>
<path fill="none" stroke="black" d="M134.371,-287.697C129.372,-279.559 123.309,-269.689 117.788,-260.701"/>
<polygon fill="black" stroke="black" points="120.723,-258.793 112.507,-252.104 114.759,-262.457 120.723,-258.793"/>
<g id="a_edge6&#45;headlabel"><a xlink:href="dir_000384_000016.html" target="_top" xlink:title="1">
<text text-anchor="middle" x="125.024" y="-257.87" font-family="Helvetica,sans-Serif" font-size="10.00">1</text>
</a>
</g>
</g>
<!-- dir_4ab6b4cc6a7edbff49100e9123df213f&#45;&gt;dir_2171f7ec022c5423887b07c69b2f5b48 -->
<g id="edge7" class="edge"><title>dir_4ab6b4cc6a7edbff49100e9123df213f&#45;&gt;dir_2171f7ec022c5423887b07c69b2f5b48</title>
<path fill="none" stroke="black" d="M86.9382,-215.697C81.9045,-207.728 76.6004,-198.1 72.3229,-189.264"/>
<polygon fill="black" stroke="black" points="75.4796,-187.751 68.1458,-180.104 69.1106,-190.655 75.4796,-187.751"/>
<g id="a_edge7&#45;headlabel"><a xlink:href="dir_000016_000056.html" target="_top" xlink:title="2">
<text text-anchor="middle" x="79.5543" y="-187.343" font-family="Helvetica,sans-Serif" font-size="10.00">2</text>
</a>
</g>
</g>
<!-- dir_9f165b2481dacfe69aa54d326bd5cd47&#45;&gt;dir_2171f7ec022c5423887b07c69b2f5b48 -->
<g id="edge8" class="edge"><title>dir_9f165b2481dacfe69aa54d326bd5cd47&#45;&gt;dir_2171f7ec022c5423887b07c69b2f5b48</title>
<path fill="none" stroke="black" d="M65,-36.1893C65,-60.4244 65,-104.888 65,-133.679"/>
<polygon fill="black" stroke="black" points="61.5001,-133.871 65,-143.871 68.5001,-133.872 61.5001,-133.871"/>
<g id="a_edge8&#45;headlabel"><a xlink:href="dir_000370_000056.html" target="_top" xlink:title="17">
<text text-anchor="middle" x="58.6607" y="-127.777" font-family="Helvetica,sans-Serif" font-size="10.00">17</text>
</a>
</g>
</g>
<!-- dir_051dca18e802f8e9474f2e30d29c04e0&#45;&gt;dir_0b342c6c6b7d2278121a0bb9c4985063 -->
<g id="edge9" class="edge"><title>dir_051dca18e802f8e9474f2e30d29c04e0&#45;&gt;dir_0b342c6c6b7d2278121a0bb9c4985063</title>
<path fill="none" stroke="black" d="M127.764,-108.382C130.192,-132.519 134.643,-177.558 138,-216 139.809,-236.714 141.644,-260.16 142.982,-277.785"/>
<polygon fill="black" stroke="black" points="139.504,-278.222 143.745,-287.931 146.485,-277.696 139.504,-278.222"/>
<g id="a_edge9&#45;headlabel"><a xlink:href="dir_000028_000384.html" target="_top" xlink:title="1">
<text text-anchor="middle" x="136.403" y="-272.35" font-family="Helvetica,sans-Serif" font-size="10.00">1</text>
</a>
</g>
</g>
<!-- dir_051dca18e802f8e9474f2e30d29c04e0&#45;&gt;dir_4ab6b4cc6a7edbff49100e9123df213f -->
<g id="edge10" class="edge"><title>dir_051dca18e802f8e9474f2e30d29c04e0&#45;&gt;dir_4ab6b4cc6a7edbff49100e9123df213f</title>
<path fill="none" stroke="black" d="M123.131,-108.063C120.116,-125.979 115.234,-154.971 111,-180 109.577,-188.412 108.023,-197.573 106.612,-205.877"/>
<polygon fill="black" stroke="black" points="103.148,-205.37 104.924,-215.815 110.05,-206.543 103.148,-205.37"/>
<g id="a_edge10&#45;headlabel"><a xlink:href="dir_000028_000016.html" target="_top" xlink:title="60">
<text text-anchor="middle" x="100.951" y="-198.851" font-family="Helvetica,sans-Serif" font-size="10.00">60</text>
</a>
</g>
</g>
<!-- dir_051dca18e802f8e9474f2e30d29c04e0&#45;&gt;dir_9f165b2481dacfe69aa54d326bd5cd47 -->
<g id="edge11" class="edge"><title>dir_051dca18e802f8e9474f2e30d29c04e0&#45;&gt;dir_9f165b2481dacfe69aa54d326bd5cd47</title>
<path fill="none" stroke="black" d="M110.921,-71.6966C103.608,-63.3046 94.69,-53.0705 86.6649,-43.8613"/>
<polygon fill="black" stroke="black" points="89.1137,-41.344 79.9052,-36.1043 83.8363,-45.9429 89.1137,-41.344"/>
<g id="a_edge11&#45;headlabel"><a xlink:href="dir_000028_000370.html" target="_top" xlink:title="12">
<text text-anchor="middle" x="93.6158" y="-39.6887" font-family="Helvetica,sans-Serif" font-size="10.00">12</text>
</a>
</g>
</g>
<!-- dir_051dca18e802f8e9474f2e30d29c04e0&#45;&gt;dir_2171f7ec022c5423887b07c69b2f5b48 -->
<g id="edge12" class="edge"><title>dir_051dca18e802f8e9474f2e30d29c04e0&#45;&gt;dir_2171f7ec022c5423887b07c69b2f5b48</title>
<path fill="none" stroke="black" d="M116.99,-108.104C110.514,-116.552 101.693,-126.901 93.1009,-136.199"/>
<polygon fill="black" stroke="black" points="90.3334,-134.031 85.9944,-143.697 95.4139,-138.846 90.3334,-134.031"/>
<g id="a_edge12&#45;headlabel"><a xlink:href="dir_000028_000056.html" target="_top" xlink:title="245">
<text text-anchor="middle" x="90.7454" y="-126.969" font-family="Helvetica,sans-Serif" font-size="10.00">245</text>
</a>
</g>
</g>
<!-- dir_2171f7ec022c5423887b07c69b2f5b48&#45;&gt;dir_4ab6b4cc6a7edbff49100e9123df213f -->
<g id="edge13" class="edge"><title>dir_2171f7ec022c5423887b07c69b2f5b48&#45;&gt;dir_4ab6b4cc6a7edbff49100e9123df213f</title>
<path fill="none" stroke="black" d="M79.9359,-180.104C84.965,-188.045 90.2754,-197.666 94.5698,-206.515"/>
<polygon fill="black" stroke="black" points="91.4272,-208.059 98.7697,-215.697 97.7929,-205.147 91.4272,-208.059"/>
<g id="a_edge13&#45;headlabel"><a xlink:href="dir_000056_000016.html" target="_top" xlink:title="18">
<text text-anchor="middle" x="87.3501" y="-203.471" font-family="Helvetica,sans-Serif" font-size="10.00">18</text>
</a>
</g>
</g>
<!-- dir_2171f7ec022c5423887b07c69b2f5b48&#45;&gt;dir_051dca18e802f8e9474f2e30d29c04e0 -->
<g id="edge14" class="edge"><title>dir_2171f7ec022c5423887b07c69b2f5b48&#45;&gt;dir_051dca18e802f8e9474f2e30d29c04e0</title>
<path fill="none" stroke="black" d="M74.1629,-143.697C80.6755,-135.22 89.5131,-124.864 98.1011,-115.583"/>
<polygon fill="black" stroke="black" points="100.854,-117.767 105.2,-108.104 95.7767,-112.947 100.854,-117.767"/>
<g id="a_edge14&#45;headlabel"><a xlink:href="dir_000056_000028.html" target="_top" xlink:title="1">
<text text-anchor="middle" x="100.438" y="-119.829" font-family="Helvetica,sans-Serif" font-size="10.00">1</text>
</a>
</g>
</g>
</g>
</svg>
