<?xml version="1.0" encoding="UTF-8" standalone="no"?>
<!DOCTYPE svg PUBLIC "-//W3C//DTD SVG 1.1//EN"
 "http://www.w3.org/Graphics/SVG/1.1/DTD/svg11.dtd">
<!-- Generated by graphviz version 2.36.0 (20140111.2315)
 -->
<!-- Title: /home/travis/build/AliceO2Group/AliceO2/Steer Pages: 1 -->
<svg width="459pt" height="348pt"
 viewBox="0.00 0.00 458.98 348.00" xmlns="http://www.w3.org/2000/svg" xmlns:xlink="http://www.w3.org/1999/xlink">
<g id="graph0" class="graph" transform="scale(1 1) rotate(0) translate(4 344)">
<title>/home/travis/build/AliceO2Group/AliceO2/Steer</title>
<g id="clust1" class="cluster"><title>clusterdir_40b4a122691869ee86baf7f2711ed718</title>
<g id="a_clust1"><a xlink:href="dir_40b4a122691869ee86baf7f2711ed718.html" target="_top">
<polygon fill="#eeeeff" stroke="black" points="8,-208 8,-332 334,-332 334,-208 8,-208"/>
</a>
</g>
</g>
<!-- dir_40b4a122691869ee86baf7f2711ed718 -->
<g id="node1" class="node"><title>dir_40b4a122691869ee86baf7f2711ed718</title>
<text text-anchor="middle" x="299" y="-303.5" font-family="Helvetica,sans-Serif" font-size="10.00">Steer</text>
</g>
<!-- dir_a195a20aec66d1e163ba7321e47c9d6e -->
<g id="node2" class="node"><title>dir_a195a20aec66d1e163ba7321e47c9d6e</title>
<g id="a_node2"><a xlink:href="dir_a195a20aec66d1e163ba7321e47c9d6e.html" target="_top" xlink:title="DigitizerWorkflow">
<polygon fill="white" stroke="red" points="182,-324 88,-324 88,-288 182,-288 182,-324"/>
<text text-anchor="middle" x="135" y="-303.5" font-family="Helvetica,sans-Serif" font-size="10.00">DigitizerWorkflow</text>
</a>
</g>
</g>
<!-- dir_a1435872ec32250c24e4b9798bc29a35 -->
<g id="node3" class="node"><title>dir_a1435872ec32250c24e4b9798bc29a35</title>
<g id="a_node3"><a xlink:href="dir_a1435872ec32250c24e4b9798bc29a35.html" target="_top" xlink:title="include">
<polygon fill="white" stroke="red" points="186,-252 132,-252 132,-216 186,-216 186,-252"/>
<text text-anchor="middle" x="159" y="-231.5" font-family="Helvetica,sans-Serif" font-size="10.00">include</text>
</a>
</g>
</g>
<!-- dir_a195a20aec66d1e163ba7321e47c9d6e&#45;&gt;dir_a1435872ec32250c24e4b9798bc29a35 -->
<g id="edge7" class="edge"><title>dir_a195a20aec66d1e163ba7321e47c9d6e&#45;&gt;dir_a1435872ec32250c24e4b9798bc29a35</title>
<path fill="none" stroke="black" d="M140.933,-287.697C143.606,-279.898 146.826,-270.509 149.801,-261.829"/>
<polygon fill="black" stroke="black" points="153.203,-262.699 153.136,-252.104 146.582,-260.429 153.203,-262.699"/>
<g id="a_edge7&#45;headlabel"><a xlink:href="dir_000390_000392.html" target="_top" xlink:title="4">
<text text-anchor="middle" x="154.723" y="-264.52" font-family="Helvetica,sans-Serif" font-size="10.00">4</text>
</a>
</g>
</g>
<!-- dir_051dca18e802f8e9474f2e30d29c04e0 -->
<g id="node7" class="node"><title>dir_051dca18e802f8e9474f2e30d29c04e0</title>
<g id="a_node7"><a xlink:href="dir_051dca18e802f8e9474f2e30d29c04e0.html" target="_top" xlink:title="Detectors">
<polygon fill="none" stroke="red" points="401.25,-252 342.75,-252 342.75,-216 401.25,-216 401.25,-252"/>
<text text-anchor="middle" x="372" y="-231.5" font-family="Helvetica,sans-Serif" font-size="10.00">Detectors</text>
</a>
</g>
</g>
<!-- dir_a195a20aec66d1e163ba7321e47c9d6e&#45;&gt;dir_051dca18e802f8e9474f2e30d29c04e0 -->
<g id="edge6" class="edge"><title>dir_a195a20aec66d1e163ba7321e47c9d6e&#45;&gt;dir_051dca18e802f8e9474f2e30d29c04e0</title>
<path fill="none" stroke="black" d="M182.304,-290.442C185.242,-289.599 188.158,-288.779 191,-288 252.705,-271.092 272.895,-274.755 332.932,-253.682"/>
<polygon fill="black" stroke="black" points="334.281,-256.916 342.504,-250.235 331.909,-250.33 334.281,-256.916"/>
<g id="a_edge6&#45;headlabel"><a xlink:href="dir_000390_000028.html" target="_top" xlink:title="11">
<text text-anchor="middle" x="331.861" y="-258.305" font-family="Helvetica,sans-Serif" font-size="10.00">11</text>
</a>
</g>
</g>
<!-- dir_bcbb2cf9a3d3d83e5515c82071a07177 -->
<g id="node8" class="node"><title>dir_bcbb2cf9a3d3d83e5515c82071a07177</title>
<g id="a_node8"><a xlink:href="dir_bcbb2cf9a3d3d83e5515c82071a07177.html" target="_top" xlink:title="Framework">
<polygon fill="none" stroke="red" points="307.25,-180 242.75,-180 242.75,-144 307.25,-144 307.25,-180"/>
<text text-anchor="middle" x="275" y="-159.5" font-family="Helvetica,sans-Serif" font-size="10.00">Framework</text>
</a>
</g>
</g>
<!-- dir_a195a20aec66d1e163ba7321e47c9d6e&#45;&gt;dir_bcbb2cf9a3d3d83e5515c82071a07177 -->
<g id="edge8" class="edge"><title>dir_a195a20aec66d1e163ba7321e47c9d6e&#45;&gt;dir_bcbb2cf9a3d3d83e5515c82071a07177</title>
<path fill="none" stroke="black" d="M175.962,-287.984C193.559,-279.18 213.391,-267.085 228,-252 245.287,-234.149 257.871,-208.666 265.643,-189.539"/>
<polygon fill="black" stroke="black" points="268.916,-190.779 269.269,-180.19 262.39,-188.249 268.916,-190.779"/>
<g id="a_edge8&#45;headlabel"><a xlink:href="dir_000390_000037.html" target="_top" xlink:title="21">
<text text-anchor="middle" x="270.264" y="-192.657" font-family="Helvetica,sans-Serif" font-size="10.00">21</text>
</a>
</g>
</g>
<!-- dir_2171f7ec022c5423887b07c69b2f5b48 -->
<g id="node9" class="node"><title>dir_2171f7ec022c5423887b07c69b2f5b48</title>
<g id="a_node9"><a xlink:href="dir_2171f7ec022c5423887b07c69b2f5b48.html" target="_top" xlink:title="DataFormats">
<polygon fill="none" stroke="red" points="355,-36 281,-36 281,-0 355,-0 355,-36"/>
<text text-anchor="middle" x="318" y="-15.5" font-family="Helvetica,sans-Serif" font-size="10.00">DataFormats</text>
</a>
</g>
</g>
<!-- dir_a195a20aec66d1e163ba7321e47c9d6e&#45;&gt;dir_2171f7ec022c5423887b07c69b2f5b48 -->
<g id="edge9" class="edge"><title>dir_a195a20aec66d1e163ba7321e47c9d6e&#45;&gt;dir_2171f7ec022c5423887b07c69b2f5b48</title>
<path fill="none" stroke="black" d="M130.131,-287.979C127.436,-277.665 124.363,-264.189 123,-252 113.748,-169.244 115.817,-130.579 175,-72 200.782,-46.4809 239.928,-33.0962 270.748,-26.1668"/>
<polygon fill="black" stroke="black" points="271.777,-29.5276 280.85,-24.0562 270.345,-22.6755 271.777,-29.5276"/>
<g id="a_edge9&#45;headlabel"><a xlink:href="dir_000390_000056.html" target="_top" xlink:title="5">
<text text-anchor="middle" x="268.839" y="-30.5419" font-family="Helvetica,sans-Serif" font-size="10.00">5</text>
</a>
</g>
</g>
<!-- dir_a1435872ec32250c24e4b9798bc29a35&#45;&gt;dir_2171f7ec022c5423887b07c69b2f5b48 -->
<g id="edge10" class="edge"><title>dir_a1435872ec32250c24e4b9798bc29a35&#45;&gt;dir_2171f7ec022c5423887b07c69b2f5b48</title>
<path fill="none" stroke="black" d="M158.725,-215.792C159.12,-183.759 164.366,-114.392 200,-72 218.035,-50.5448 246.531,-37.4125 271.001,-29.5873"/>
<polygon fill="black" stroke="black" points="272.268,-32.8619 280.848,-26.6472 270.265,-26.1545 272.268,-32.8619"/>
<g id="a_edge10&#45;headlabel"><a xlink:href="dir_000392_000056.html" target="_top" xlink:title="3">
<text text-anchor="middle" x="269.636" y="-34.1108" font-family="Helvetica,sans-Serif" font-size="10.00">3</text>
</a>
</g>
</g>
<!-- dir_1ae1fa476fa4d5193a25cdc506b38de2 -->
<g id="node4" class="node"><title>dir_1ae1fa476fa4d5193a25cdc506b38de2</title>
<g id="a_node4"><a xlink:href="dir_1ae1fa476fa4d5193a25cdc506b38de2.html" target="_top" xlink:title="src">
<polygon fill="white" stroke="black" points="254,-324 200,-324 200,-288 254,-288 254,-324"/>
<text text-anchor="middle" x="227" y="-303.5" font-family="Helvetica,sans-Serif" font-size="10.00">src</text>
</a>
</g>
</g>
<!-- dir_1ae1fa476fa4d5193a25cdc506b38de2&#45;&gt;dir_a1435872ec32250c24e4b9798bc29a35 -->
<g id="edge18" class="edge"><title>dir_1ae1fa476fa4d5193a25cdc506b38de2&#45;&gt;dir_a1435872ec32250c24e4b9798bc29a35</title>
<path fill="none" stroke="black" d="M210.191,-287.697C201.874,-279.135 191.695,-268.656 182.61,-259.304"/>
<polygon fill="black" stroke="black" points="185.094,-256.838 175.616,-252.104 180.073,-261.716 185.094,-256.838"/>
<g id="a_edge18&#45;headlabel"><a xlink:href="dir_000394_000392.html" target="_top" xlink:title="3">
<text text-anchor="middle" x="189.635" y="-254.938" font-family="Helvetica,sans-Serif" font-size="10.00">3</text>
</a>
</g>
</g>
<!-- dir_4ab6b4cc6a7edbff49100e9123df213f -->
<g id="node6" class="node"><title>dir_4ab6b4cc6a7edbff49100e9123df213f</title>
<g id="a_node6"><a xlink:href="dir_4ab6b4cc6a7edbff49100e9123df213f.html" target="_top" xlink:title="Common">
<polygon fill="none" stroke="red" points="345.5,-108 290.5,-108 290.5,-72 345.5,-72 345.5,-108"/>
<text text-anchor="middle" x="318" y="-87.5" font-family="Helvetica,sans-Serif" font-size="10.00">Common</text>
</a>
</g>
</g>
<!-- dir_1ae1fa476fa4d5193a25cdc506b38de2&#45;&gt;dir_4ab6b4cc6a7edbff49100e9123df213f -->
<g id="edge16" class="edge"><title>dir_1ae1fa476fa4d5193a25cdc506b38de2&#45;&gt;dir_4ab6b4cc6a7edbff49100e9123df213f</title>
<path fill="none" stroke="black" d="M254.278,-291.425C257.189,-290.185 260.134,-289.016 263,-288 326.398,-265.526 368.478,-304.918 410,-252 445.158,-207.192 387.784,-147.424 348.981,-114.773"/>
<polygon fill="black" stroke="black" points="350.97,-111.877 341.022,-108.232 346.526,-117.285 350.97,-111.877"/>
<g id="a_edge16&#45;headlabel"><a xlink:href="dir_000394_000016.html" target="_top" xlink:title="1">
<text text-anchor="middle" x="355.55" y="-109.466" font-family="Helvetica,sans-Serif" font-size="10.00">1</text>
</a>
</g>
</g>
<!-- dir_1ae1fa476fa4d5193a25cdc506b38de2&#45;&gt;dir_051dca18e802f8e9474f2e30d29c04e0 -->
<g id="edge17" class="edge"><title>dir_1ae1fa476fa4d5193a25cdc506b38de2&#45;&gt;dir_051dca18e802f8e9474f2e30d29c04e0</title>
<path fill="none" stroke="black" d="M254.436,-292.07C274.832,-282.421 303.569,-268.749 333.422,-254.219"/>
<polygon fill="black" stroke="black" points="335.261,-257.215 342.714,-249.685 332.192,-250.924 335.261,-257.215"/>
<g id="a_edge17&#45;headlabel"><a xlink:href="dir_000394_000028.html" target="_top" xlink:title="3">
<text text-anchor="middle" x="333.275" y="-258.843" font-family="Helvetica,sans-Serif" font-size="10.00">3</text>
</a>
</g>
</g>
<!-- dir_1ae1fa476fa4d5193a25cdc506b38de2&#45;&gt;dir_2171f7ec022c5423887b07c69b2f5b48 -->
<g id="edge19" class="edge"><title>dir_1ae1fa476fa4d5193a25cdc506b38de2&#45;&gt;dir_2171f7ec022c5423887b07c69b2f5b48</title>
<path fill="none" stroke="black" d="M254.251,-291.346C257.167,-290.122 260.12,-288.978 263,-288 334.483,-263.725 381.612,-310.767 429,-252 480.972,-187.549 428.775,-139.621 381,-72 373.191,-60.9466 362.539,-50.8191 352.217,-42.4449"/>
<polygon fill="black" stroke="black" points="354.115,-39.4877 344.07,-36.1206 349.823,-45.0173 354.115,-39.4877"/>
<g id="a_edge19&#45;headlabel"><a xlink:href="dir_000394_000056.html" target="_top" xlink:title="1">
<text text-anchor="middle" x="358.696" y="-36.949" font-family="Helvetica,sans-Serif" font-size="10.00">1</text>
</a>
</g>
</g>
<!-- dir_f13782f4c5058c6a54ef5ebfe220c937 -->
<g id="node5" class="node"><title>dir_f13782f4c5058c6a54ef5ebfe220c937</title>
<g id="a_node5"><a xlink:href="dir_f13782f4c5058c6a54ef5ebfe220c937.html" target="_top" xlink:title="test">
<polygon fill="white" stroke="black" points="70,-324 16,-324 16,-288 70,-288 70,-324"/>
<text text-anchor="middle" x="43" y="-303.5" font-family="Helvetica,sans-Serif" font-size="10.00">test</text>
</a>
</g>
</g>
<!-- dir_f13782f4c5058c6a54ef5ebfe220c937&#45;&gt;dir_a1435872ec32250c24e4b9798bc29a35 -->
<g id="edge11" class="edge"><title>dir_f13782f4c5058c6a54ef5ebfe220c937&#45;&gt;dir_a1435872ec32250c24e4b9798bc29a35</title>
<path fill="none" stroke="black" d="M70.1968,-288.588C86.0498,-279.022 106.228,-266.845 123.342,-256.518"/>
<polygon fill="black" stroke="black" points="125.22,-259.472 131.974,-251.309 121.603,-253.479 125.22,-259.472"/>
<g id="a_edge11&#45;headlabel"><a xlink:href="dir_000395_000392.html" target="_top" xlink:title="2">
<text text-anchor="middle" x="123.609" y="-261.261" font-family="Helvetica,sans-Serif" font-size="10.00">2</text>
</a>
</g>
</g>
<!-- dir_f13782f4c5058c6a54ef5ebfe220c937&#45;&gt;dir_2171f7ec022c5423887b07c69b2f5b48 -->
<g id="edge12" class="edge"><title>dir_f13782f4c5058c6a54ef5ebfe220c937&#45;&gt;dir_2171f7ec022c5423887b07c69b2f5b48</title>
<path fill="none" stroke="black" d="M70.3441,-291.603C73.2423,-290.329 76.1658,-289.103 79,-288 129.308,-268.427 156.122,-289.45 195,-252 231.647,-216.698 212.88,-190.738 233,-144 247.226,-110.954 249.528,-101.586 270,-72 276.814,-62.1521 285.309,-52.2001 293.25,-43.6209"/>
<polygon fill="black" stroke="black" points="295.977,-45.8325 300.323,-36.1703 290.9,-41.013 295.977,-45.8325"/>
<g id="a_edge12&#45;headlabel"><a xlink:href="dir_000395_000056.html" target="_top" xlink:title="1">
<text text-anchor="middle" x="295.561" y="-47.8942" font-family="Helvetica,sans-Serif" font-size="10.00">1</text>
</a>
</g>
</g>
<!-- dir_4ab6b4cc6a7edbff49100e9123df213f&#45;&gt;dir_2171f7ec022c5423887b07c69b2f5b48 -->
<g id="edge1" class="edge"><title>dir_4ab6b4cc6a7edbff49100e9123df213f&#45;&gt;dir_2171f7ec022c5423887b07c69b2f5b48</title>
<path fill="none" stroke="black" d="M312.084,-71.6966C311.289,-63.9827 311.062,-54.7125 311.405,-46.1124"/>
<polygon fill="black" stroke="black" points="314.898,-46.3243 312.105,-36.1043 307.915,-45.8356 314.898,-46.3243"/>
<g id="a_edge1&#45;headlabel"><a xlink:href="dir_000016_000056.html" target="_top" xlink:title="2">
<text text-anchor="middle" x="317.48" y="-47.6083" font-family="Helvetica,sans-Serif" font-size="10.00">2</text>
</a>
</g>
</g>
<!-- dir_051dca18e802f8e9474f2e30d29c04e0&#45;&gt;dir_a1435872ec32250c24e4b9798bc29a35 -->
<g id="edge3" class="edge"><title>dir_051dca18e802f8e9474f2e30d29c04e0&#45;&gt;dir_a1435872ec32250c24e4b9798bc29a35</title>
<path fill="none" stroke="black" d="M342.581,-234C293.764,-234 244.947,-234 196.13,-234"/>
<polygon fill="black" stroke="black" points="196.041,-230.5 186.041,-234 196.041,-237.5 196.041,-230.5"/>
<g id="a_edge3&#45;headlabel"><a xlink:href="dir_000028_000392.html" target="_top" xlink:title="2">
<text text-anchor="middle" x="199.636" y="-225.161" font-family="Helvetica,sans-Serif" font-size="10.00">2</text>
</a>
</g>
</g>
<!-- dir_051dca18e802f8e9474f2e30d29c04e0&#45;&gt;dir_4ab6b4cc6a7edbff49100e9123df213f -->
<g id="edge2" class="edge"><title>dir_051dca18e802f8e9474f2e30d29c04e0&#45;&gt;dir_4ab6b4cc6a7edbff49100e9123df213f</title>
<path fill="none" stroke="black" d="M365.486,-215.871C356.202,-191.457 339.077,-146.426 328.129,-117.635"/>
<polygon fill="black" stroke="black" points="331.363,-116.292 324.537,-108.189 324.82,-118.78 331.363,-116.292"/>
<g id="a_edge2&#45;headlabel"><a xlink:href="dir_000028_000016.html" target="_top" xlink:title="60">
<text text-anchor="middle" x="335.294" y="-116.143" font-family="Helvetica,sans-Serif" font-size="10.00">60</text>
</a>
</g>
</g>
<!-- dir_051dca18e802f8e9474f2e30d29c04e0&#45;&gt;dir_bcbb2cf9a3d3d83e5515c82071a07177 -->
<g id="edge4" class="edge"><title>dir_051dca18e802f8e9474f2e30d29c04e0&#45;&gt;dir_bcbb2cf9a3d3d83e5515c82071a07177</title>
<path fill="none" stroke="black" d="M342.376,-217.618C337.83,-214.428 333.271,-211.096 329,-208 319.167,-200.874 308.429,-193.173 299.043,-186.191"/>
<polygon fill="black" stroke="black" points="300.959,-183.251 290.87,-180.017 296.74,-188.837 300.959,-183.251"/>
<g id="a_edge4&#45;headlabel"><a xlink:href="dir_000028_000037.html" target="_top" xlink:title="14">
<text text-anchor="middle" x="305.538" y="-180.652" font-family="Helvetica,sans-Serif" font-size="10.00">14</text>
</a>
</g>
</g>
<!-- dir_051dca18e802f8e9474f2e30d29c04e0&#45;&gt;dir_2171f7ec022c5423887b07c69b2f5b48 -->
<g id="edge5" class="edge"><title>dir_051dca18e802f8e9474f2e30d29c04e0&#45;&gt;dir_2171f7ec022c5423887b07c69b2f5b48</title>
<path fill="none" stroke="black" d="M367.355,-215.935C364.456,-185.854 363.427,-121.861 345,-72 341.489,-62.4989 335.92,-53.051 330.608,-44.8205"/>
<polygon fill="black" stroke="black" points="333.489,-42.8321 325.053,-36.4226 327.65,-46.694 333.489,-42.8321"/>
<g id="a_edge5&#45;headlabel"><a xlink:href="dir_000028_000056.html" target="_top" xlink:title="245">
<text text-anchor="middle" x="337.84" y="-41.7638" font-family="Helvetica,sans-Serif" font-size="10.00">245</text>
</a>
</g>
</g>
<!-- dir_bcbb2cf9a3d3d83e5515c82071a07177&#45;&gt;dir_4ab6b4cc6a7edbff49100e9123df213f -->
<g id="edge13" class="edge"><title>dir_bcbb2cf9a3d3d83e5515c82071a07177&#45;&gt;dir_4ab6b4cc6a7edbff49100e9123df213f</title>
<path fill="none" stroke="black" d="M285.629,-143.697C290.628,-135.559 296.691,-125.689 302.212,-116.701"/>
<polygon fill="black" stroke="black" points="305.241,-118.457 307.493,-108.104 299.277,-114.793 305.241,-118.457"/>
<g id="a_edge13&#45;headlabel"><a xlink:href="dir_000037_000016.html" target="_top" xlink:title="2">
<text text-anchor="middle" x="305.779" y="-120.506" font-family="Helvetica,sans-Serif" font-size="10.00">2</text>
</a>
</g>
</g>
<!-- dir_bcbb2cf9a3d3d83e5515c82071a07177&#45;&gt;dir_051dca18e802f8e9474f2e30d29c04e0 -->
<g id="edge14" class="edge"><title>dir_bcbb2cf9a3d3d83e5515c82071a07177&#45;&gt;dir_051dca18e802f8e9474f2e30d29c04e0</title>
<path fill="none" stroke="black" d="M307.107,-180.017C319.769,-188.405 334.158,-198.693 347,-208 347.753,-208.546 348.514,-209.098 349.281,-209.656"/>
<polygon fill="black" stroke="black" points="347.393,-212.614 357.515,-215.744 351.555,-206.985 347.393,-212.614"/>
<g id="a_edge14&#45;headlabel"><a xlink:href="dir_000037_000028.html" target="_top" xlink:title="4">
<text text-anchor="middle" x="342.815" y="-210.26" font-family="Helvetica,sans-Serif" font-size="10.00">4</text>
</a>
</g>
</g>
<!-- dir_bcbb2cf9a3d3d83e5515c82071a07177&#45;&gt;dir_2171f7ec022c5423887b07c69b2f5b48 -->
<g id="edge15" class="edge"><title>dir_bcbb2cf9a3d3d83e5515c82071a07177&#45;&gt;dir_2171f7ec022c5423887b07c69b2f5b48</title>
<path fill="none" stroke="black" d="M273.482,-143.724C272.479,-125.382 272.62,-95.8114 281,-72 284.428,-62.2581 290.174,-52.671 296.127,-44.3863"/>
<polygon fill="black" stroke="black" points="299.034,-46.3457 302.317,-36.2725 293.469,-42.0996 299.034,-46.3457"/>
<g id="a_edge15&#45;headlabel"><a xlink:href="dir_000037_000056.html" target="_top" xlink:title="22">
<text text-anchor="middle" x="299.111" y="-48.4257" font-family="Helvetica,sans-Serif" font-size="10.00">22</text>
</a>
</g>
</g>
<!-- dir_2171f7ec022c5423887b07c69b2f5b48&#45;&gt;dir_4ab6b4cc6a7edbff49100e9123df213f -->
<g id="edge20" class="edge"><title>dir_2171f7ec022c5423887b07c69b2f5b48&#45;&gt;dir_4ab6b4cc6a7edbff49100e9123df213f</title>
<path fill="none" stroke="black" d="M323.895,-36.1043C324.701,-43.7913 324.937,-53.0537 324.604,-61.6651"/>
<polygon fill="black" stroke="black" points="321.109,-61.4805 323.916,-71.6966 328.092,-61.9597 321.109,-61.4805"/>
<g id="a_edge20&#45;headlabel"><a xlink:href="dir_000056_000016.html" target="_top" xlink:title="18">
<text text-anchor="middle" x="318.522" y="-55.2" font-family="Helvetica,sans-Serif" font-size="10.00">18</text>
</a>
</g>
</g>
<!-- dir_2171f7ec022c5423887b07c69b2f5b48&#45;&gt;dir_051dca18e802f8e9474f2e30d29c04e0 -->
<g id="edge21" class="edge"><title>dir_2171f7ec022c5423887b07c69b2f5b48&#45;&gt;dir_051dca18e802f8e9474f2e30d29c04e0</title>
<path fill="none" stroke="black" d="M341.007,-36.4226C349.623,-46.2232 358.219,-59.0623 363,-72 379.556,-116.797 382.068,-173.001 379.256,-205.77"/>
<polygon fill="black" stroke="black" points="375.753,-205.606 378.111,-215.935 382.709,-206.389 375.753,-205.606"/>
<g id="a_edge21&#45;headlabel"><a xlink:href="dir_000056_000028.html" target="_top" xlink:title="1">
<text text-anchor="middle" x="373.334" y="-199.216" font-family="Helvetica,sans-Serif" font-size="10.00">1</text>
</a>
</g>
</g>
</g>
</svg>
