<?xml version="1.0" encoding="UTF-8" standalone="no"?>
<!DOCTYPE svg PUBLIC "-//W3C//DTD SVG 1.1//EN"
 "http://www.w3.org/Graphics/SVG/1.1/DTD/svg11.dtd">
<!-- Generated by graphviz version 2.36.0 (20140111.2315)
 -->
<!-- Title: /home/travis/build/AliceO2Group/AliceO2/Utilities Pages: 1 -->
<!--zoomable 204 -->
<svg id="main" version="1.1" xmlns="http://www.w3.org/2000/svg" xmlns:xlink="http://www.w3.org/1999/xlink" xml:space="preserve" onload="init(evt)">
<style type="text/css"><![CDATA[
.edge:hover path { stroke: red; }
.edge:hover polygon { stroke: red; fill: red; }
]]></style>
<script type="text/javascript"><![CDATA[
var edges = document.getElementsByTagName('g');
if (edges && edges.length) {
  for (var i=0;i<edges.length;i++) {
    if (edges[i].id.substr(0,4)=='edge') {
      edges[i].setAttribute('class','edge');
    }
  }
}
]]></script>
        <defs>
                <circle id="rim" cx="0" cy="0" r="7"/>
                <circle id="rim2" cx="0" cy="0" r="3.5"/>
                <g id="zoomPlus">
                        <use xlink:href="#rim" fill="#404040">
                                <set attributeName="fill" to="#808080" begin="zoomplus.mouseover" end="zoomplus.mouseout"/>
                        </use>
                        <path d="M-4,0h8M0,-4v8" fill="none" stroke="white" stroke-width="1.5" pointer-events="none"/>
                </g>
                <g id="zoomMin">
                        <use xlink:href="#rim" fill="#404040">
                                <set attributeName="fill" to="#808080" begin="zoomminus.mouseover" end="zoomminus.mouseout"/>
                        </use>
                        <path d="M-4,0h8" fill="none" stroke="white" stroke-width="1.5" pointer-events="none"/>
                </g>
                <g id="dirArrow">
                        <path fill="none" stroke="white" stroke-width="1.5" d="M0,-3.0v7 M-2.5,-0.5L0,-3.0L2.5,-0.5"/>
                </g>
               <g id="resetDef">
                       <use xlink:href="#rim2" fill="#404040">
                               <set attributeName="fill" to="#808080" begin="reset.mouseover" end="reset.mouseout"/>
                       </use>
               </g>
        </defs>

<script type="text/javascript">
var viewWidth = 1016;
var viewHeight = 204;
var sectionId = 'dynsection-0';
</script>
<script xlink:href="svgpan.js"/>
<svg id="graph" class="graph">
<g id="viewport">
<title>/home/travis/build/AliceO2Group/AliceO2/Utilities</title>
<g id="clust1" class="cluster"><title>clusterdir_b05a5fa85f84bfc9013183c9d87f9a36</title>
<g id="a_clust1"><a xlink:href="dir_b05a5fa85f84bfc9013183c9d87f9a36.html" target="_top">
<polygon fill="#eeeeff" stroke="black" points="8,-64 8,-188 821,-188 821,-64 8,-64"/>
</a>
</g>
</g>
<!-- dir_b05a5fa85f84bfc9013183c9d87f9a36 -->
<g id="node1" class="node"><title>dir_b05a5fa85f84bfc9013183c9d87f9a36</title>
<text text-anchor="middle" x="786" y="-159.5" font-family="Helvetica,sans-Serif" font-size="10.00">Utilities</text>
</g>
<!-- dir_89404594baeba009a250b72877027579 -->
<g id="node2" class="node"><title>dir_89404594baeba009a250b72877027579</title>
<g id="a_node2"><a xlink:href="dir_89404594baeba009a250b72877027579.html" target="_top" xlink:title="aliceHLTwrapper">
<polygon fill="white" stroke="red" points="303,-180 213,-180 213,-144 303,-144 303,-180"/>
<text text-anchor="middle" x="258" y="-159.5" font-family="Helvetica,sans-Serif" font-size="10.00">aliceHLTwrapper</text>
</a>
</g>
</g>
<!-- dir_2171f7ec022c5423887b07c69b2f5b48 -->
<g id="node13" class="node"><title>dir_2171f7ec022c5423887b07c69b2f5b48</title>
<g id="a_node13"><a xlink:href="dir_2171f7ec022c5423887b07c69b2f5b48.html" target="_top" xlink:title="DataFormats">
<polygon fill="none" stroke="red" points="561,-36 487,-36 487,-0 561,-0 561,-36"/>
<text text-anchor="middle" x="524" y="-15.5" font-family="Helvetica,sans-Serif" font-size="10.00">DataFormats</text>
</a>
</g>
</g>
<!-- dir_89404594baeba009a250b72877027579&#45;&gt;dir_2171f7ec022c5423887b07c69b2f5b48 -->
<g id="edge10" class="edge"><title>dir_89404594baeba009a250b72877027579&#45;&gt;dir_2171f7ec022c5423887b07c69b2f5b48</title>
<path fill="none" stroke="black" d="M290.086,-143.871C338.316,-118.124 429.498,-69.4483 482.654,-41.0717"/>
<polygon fill="black" stroke="black" points="484.627,-43.9862 491.8,-36.1893 481.33,-37.811 484.627,-43.9862"/>
<g id="a_edge10&#45;headlabel"><a xlink:href="dir_000396_000056.html" target="_top" xlink:title="4">
<text text-anchor="middle" x="482.793" y="-45.6837" font-family="Helvetica,sans-Serif" font-size="10.00">4</text>
</a>
</g>
</g>
<!-- dir_e739392ef12c0b48c71c218f1fc8a69d -->
<g id="node3" class="node"><title>dir_e739392ef12c0b48c71c218f1fc8a69d</title>
<g id="a_node3"><a xlink:href="dir_e739392ef12c0b48c71c218f1fc8a69d.html" target="_top" xlink:title="DataCompression">
<polygon fill="white" stroke="red" points="668.25,-180 573.75,-180 573.75,-144 668.25,-144 668.25,-180"/>
<text text-anchor="middle" x="621" y="-159.5" font-family="Helvetica,sans-Serif" font-size="10.00">DataCompression</text>
</a>
</g>
</g>
<!-- dir_8ba487e25de5ee77e05e9dce7582cb98 -->
<g id="node11" class="node"><title>dir_8ba487e25de5ee77e05e9dce7582cb98</title>
<g id="a_node11"><a xlink:href="dir_8ba487e25de5ee77e05e9dce7582cb98.html" target="_top" xlink:title="Algorithm">
<polygon fill="none" stroke="red" points="886.5,-108 829.5,-108 829.5,-72 886.5,-72 886.5,-108"/>
<text text-anchor="middle" x="858" y="-87.5" font-family="Helvetica,sans-Serif" font-size="10.00">Algorithm</text>
</a>
</g>
</g>
<!-- dir_e739392ef12c0b48c71c218f1fc8a69d&#45;&gt;dir_8ba487e25de5ee77e05e9dce7582cb98 -->
<g id="edge12" class="edge"><title>dir_e739392ef12c0b48c71c218f1fc8a69d&#45;&gt;dir_8ba487e25de5ee77e05e9dce7582cb98</title>
<path fill="none" stroke="black" d="M668.535,-146.631C671.733,-145.723 674.911,-144.838 678,-144 739.746,-127.243 760.026,-131.113 819.849,-109.742"/>
<polygon fill="black" stroke="black" points="821.202,-112.974 829.385,-106.245 818.791,-106.402 821.202,-112.974"/>
<g id="a_edge12&#45;headlabel"><a xlink:href="dir_000401_000000.html" target="_top" xlink:title="1">
<text text-anchor="middle" x="818.804" y="-114.377" font-family="Helvetica,sans-Serif" font-size="10.00">1</text>
</a>
</g>
</g>
<!-- dir_47364d143a6f2085f762c4e9d70a45c1 -->
<g id="node4" class="node"><title>dir_47364d143a6f2085f762c4e9d70a45c1</title>
<g id="a_node4"><a xlink:href="dir_47364d143a6f2085f762c4e9d70a45c1.html" target="_top" xlink:title="DataFlow">
<polygon fill="white" stroke="red" points="194.25,-180 135.75,-180 135.75,-144 194.25,-144 194.25,-180"/>
<text text-anchor="middle" x="165" y="-159.5" font-family="Helvetica,sans-Serif" font-size="10.00">DataFlow</text>
</a>
</g>
</g>
<!-- dir_f35ccb320b67f1c85d228c773db13bda -->
<g id="node7" class="node"><title>dir_f35ccb320b67f1c85d228c773db13bda</title>
<g id="a_node7"><a xlink:href="dir_f35ccb320b67f1c85d228c773db13bda.html" target="_top" xlink:title="O2Device">
<polygon fill="white" stroke="red" points="222.5,-108 163.5,-108 163.5,-72 222.5,-72 222.5,-108"/>
<text text-anchor="middle" x="193" y="-87.5" font-family="Helvetica,sans-Serif" font-size="10.00">O2Device</text>
</a>
</g>
</g>
<!-- dir_47364d143a6f2085f762c4e9d70a45c1&#45;&gt;dir_f35ccb320b67f1c85d228c773db13bda -->
<g id="edge3" class="edge"><title>dir_47364d143a6f2085f762c4e9d70a45c1&#45;&gt;dir_f35ccb320b67f1c85d228c773db13bda</title>
<path fill="none" stroke="black" d="M171.921,-143.697C175.075,-135.813 178.878,-126.304 182.381,-117.546"/>
<polygon fill="black" stroke="black" points="185.694,-118.689 186.158,-108.104 179.195,-116.089 185.694,-118.689"/>
<g id="a_edge3&#45;headlabel"><a xlink:href="dir_000358_000412.html" target="_top" xlink:title="6">
<text text-anchor="middle" x="186.995" y="-120.581" font-family="Helvetica,sans-Serif" font-size="10.00">6</text>
</a>
</g>
</g>
<!-- dir_47364d143a6f2085f762c4e9d70a45c1&#45;&gt;dir_2171f7ec022c5423887b07c69b2f5b48 -->
<g id="edge4" class="edge"><title>dir_47364d143a6f2085f762c4e9d70a45c1&#45;&gt;dir_2171f7ec022c5423887b07c69b2f5b48</title>
<path fill="none" stroke="black" d="M193.903,-143.914C230.578,-122.804 296.264,-86.882 356,-64 395.736,-48.7791 442.632,-36.6796 476.765,-28.8773"/>
<polygon fill="black" stroke="black" points="477.936,-32.2015 486.926,-26.5952 476.402,-25.3717 477.936,-32.2015"/>
<g id="a_edge4&#45;headlabel"><a xlink:href="dir_000358_000056.html" target="_top" xlink:title="31">
<text text-anchor="middle" x="475.051" y="-33.2594" font-family="Helvetica,sans-Serif" font-size="10.00">31</text>
</a>
</g>
</g>
<!-- dir_0c219a87dc857607d01a5568196ad92e -->
<g id="node5" class="node"><title>dir_0c219a87dc857607d01a5568196ad92e</title>
<g id="a_node5"><a xlink:href="dir_0c219a87dc857607d01a5568196ad92e.html" target="_top" xlink:title="hough">
<polygon fill="white" stroke="black" points="475,-180 421,-180 421,-144 475,-144 475,-180"/>
<text text-anchor="middle" x="448" y="-159.5" font-family="Helvetica,sans-Serif" font-size="10.00">hough</text>
</a>
</g>
</g>
<!-- dir_7689f0333efaa52ae71a33d099d65f30 -->
<g id="node6" class="node"><title>dir_7689f0333efaa52ae71a33d099d65f30</title>
<g id="a_node6"><a xlink:href="dir_7689f0333efaa52ae71a33d099d65f30.html" target="_top" xlink:title="MCStepLogger">
<polygon fill="white" stroke="red" points="403,-180 321,-180 321,-144 403,-144 403,-180"/>
<text text-anchor="middle" x="362" y="-159.5" font-family="Helvetica,sans-Serif" font-size="10.00">MCStepLogger</text>
</a>
</g>
</g>
<!-- dir_f35ccb320b67f1c85d228c773db13bda&#45;&gt;dir_2171f7ec022c5423887b07c69b2f5b48 -->
<g id="edge9" class="edge"><title>dir_f35ccb320b67f1c85d228c773db13bda&#45;&gt;dir_2171f7ec022c5423887b07c69b2f5b48</title>
<path fill="none" stroke="black" d="M222.514,-77.7101C235.678,-72.9826 251.468,-67.7311 266,-64 338.665,-45.3437 424.839,-32.0426 476.921,-24.9438"/>
<polygon fill="black" stroke="black" points="477.424,-28.4077 486.869,-23.6069 476.492,-21.4701 477.424,-28.4077"/>
<g id="a_edge9&#45;headlabel"><a xlink:href="dir_000412_000056.html" target="_top" xlink:title="3">
<text text-anchor="middle" x="474.24" y="-29.2004" font-family="Helvetica,sans-Serif" font-size="10.00">3</text>
</a>
</g>
</g>
<!-- dir_128e7457a060fa7b176dc57431c84710 -->
<g id="node8" class="node"><title>dir_128e7457a060fa7b176dc57431c84710</title>
<g id="a_node8"><a xlink:href="dir_128e7457a060fa7b176dc57431c84710.html" target="_top" xlink:title="O2MessageMonitor">
<polygon fill="white" stroke="red" points="117.25,-180 16.75,-180 16.75,-144 117.25,-144 117.25,-180"/>
<text text-anchor="middle" x="67" y="-159.5" font-family="Helvetica,sans-Serif" font-size="10.00">O2MessageMonitor</text>
</a>
</g>
</g>
<!-- dir_128e7457a060fa7b176dc57431c84710&#45;&gt;dir_f35ccb320b67f1c85d228c773db13bda -->
<g id="edge8" class="edge"><title>dir_128e7457a060fa7b176dc57431c84710&#45;&gt;dir_f35ccb320b67f1c85d228c773db13bda</title>
<path fill="none" stroke="black" d="M97.8231,-143.876C114.822,-134.432 136.094,-122.614 154.214,-112.548"/>
<polygon fill="black" stroke="black" points="156.321,-115.381 163.363,-107.465 152.921,-109.262 156.321,-115.381"/>
<g id="a_edge8&#45;headlabel"><a xlink:href="dir_000417_000412.html" target="_top" xlink:title="1">
<text text-anchor="middle" x="154.558" y="-117.109" font-family="Helvetica,sans-Serif" font-size="10.00">1</text>
</a>
</g>
</g>
<!-- dir_5d0813f9033df95284de52361814c1a3 -->
<g id="node9" class="node"><title>dir_5d0813f9033df95284de52361814c1a3</title>
<g id="a_node9"><a xlink:href="dir_5d0813f9033df95284de52361814c1a3.html" target="_top" xlink:title="Publishers">
<polygon fill="white" stroke="red" points="554.5,-180 493.5,-180 493.5,-144 554.5,-144 554.5,-180"/>
<text text-anchor="middle" x="524" y="-159.5" font-family="Helvetica,sans-Serif" font-size="10.00">Publishers</text>
</a>
</g>
</g>
<!-- dir_5d0813f9033df95284de52361814c1a3&#45;&gt;dir_f35ccb320b67f1c85d228c773db13bda -->
<g id="edge1" class="edge"><title>dir_5d0813f9033df95284de52361814c1a3&#45;&gt;dir_f35ccb320b67f1c85d228c773db13bda</title>
<path fill="none" stroke="black" d="M493.241,-147.129C490.152,-145.978 487.036,-144.909 484,-144 396.242,-117.715 289.48,-102.326 232.817,-95.412"/>
<polygon fill="black" stroke="black" points="233.181,-91.9306 222.836,-94.2188 232.35,-98.8811 233.181,-91.9306"/>
<g id="a_edge1&#45;headlabel"><a xlink:href="dir_000422_000412.html" target="_top" xlink:title="1">
<text text-anchor="middle" x="237.087" y="-87.038" font-family="Helvetica,sans-Serif" font-size="10.00">1</text>
</a>
</g>
</g>
<!-- dir_5d0813f9033df95284de52361814c1a3&#45;&gt;dir_2171f7ec022c5423887b07c69b2f5b48 -->
<g id="edge2" class="edge"><title>dir_5d0813f9033df95284de52361814c1a3&#45;&gt;dir_2171f7ec022c5423887b07c69b2f5b48</title>
<path fill="none" stroke="black" d="M524,-143.871C524,-119.67 524,-75.2108 524,-46.3932"/>
<polygon fill="black" stroke="black" points="527.5,-46.1892 524,-36.1893 520.5,-46.1893 527.5,-46.1892"/>
<g id="a_edge2&#45;headlabel"><a xlink:href="dir_000422_000056.html" target="_top" xlink:title="5">
<text text-anchor="middle" x="530.339" y="-47.2839" font-family="Helvetica,sans-Serif" font-size="10.00">5</text>
</a>
</g>
</g>
<!-- dir_47a906a1cbf8a6449f7ddaf217b22a51 -->
<g id="node10" class="node"><title>dir_47a906a1cbf8a6449f7ddaf217b22a51</title>
<g id="a_node10"><a xlink:href="dir_47a906a1cbf8a6449f7ddaf217b22a51.html" target="_top" xlink:title="QC">
<polygon fill="white" stroke="red" points="741,-180 687,-180 687,-144 741,-144 741,-180"/>
<text text-anchor="middle" x="714" y="-159.5" font-family="Helvetica,sans-Serif" font-size="10.00">QC</text>
</a>
</g>
</g>
<!-- dir_bcbb2cf9a3d3d83e5515c82071a07177 -->
<g id="node12" class="node"><title>dir_bcbb2cf9a3d3d83e5515c82071a07177</title>
<g id="a_node12"><a xlink:href="dir_bcbb2cf9a3d3d83e5515c82071a07177.html" target="_top" xlink:title="Framework">
<polygon fill="none" stroke="red" points="1008.25,-108 943.75,-108 943.75,-72 1008.25,-72 1008.25,-108"/>
<text text-anchor="middle" x="976" y="-87.5" font-family="Helvetica,sans-Serif" font-size="10.00">Framework</text>
</a>
</g>
</g>
<!-- dir_47a906a1cbf8a6449f7ddaf217b22a51&#45;&gt;dir_bcbb2cf9a3d3d83e5515c82071a07177 -->
<g id="edge6" class="edge"><title>dir_47a906a1cbf8a6449f7ddaf217b22a51&#45;&gt;dir_bcbb2cf9a3d3d83e5515c82071a07177</title>
<path fill="none" stroke="black" d="M741.236,-147.301C744.155,-146.086 747.113,-144.956 750,-144 827.034,-118.487 850.852,-129.861 929,-108 930.637,-107.542 932.299,-107.054 933.973,-106.545"/>
<polygon fill="black" stroke="black" points="935.152,-109.842 943.587,-103.432 932.995,-103.182 935.152,-109.842"/>
<g id="a_edge6&#45;headlabel"><a xlink:href="dir_000426_000037.html" target="_top" xlink:title="7">
<text text-anchor="middle" x="932.606" y="-111.15" font-family="Helvetica,sans-Serif" font-size="10.00">7</text>
</a>
</g>
</g>
<!-- dir_47a906a1cbf8a6449f7ddaf217b22a51&#45;&gt;dir_2171f7ec022c5423887b07c69b2f5b48 -->
<g id="edge7" class="edge"><title>dir_47a906a1cbf8a6449f7ddaf217b22a51&#45;&gt;dir_2171f7ec022c5423887b07c69b2f5b48</title>
<path fill="none" stroke="black" d="M741.281,-147.434C744.192,-146.193 747.135,-145.021 750,-144 812.549,-121.714 854.094,-160.304 895,-108 907.047,-92.596 907.969,-78.6367 895,-64 873.875,-40.1575 666.826,-26.4134 571.546,-21.3053"/>
<polygon fill="black" stroke="black" points="571.487,-17.7975 561.317,-20.7672 571.119,-24.7878 571.487,-17.7975"/>
<g id="a_edge7&#45;headlabel"><a xlink:href="dir_000426_000056.html" target="_top" xlink:title="1">
<text text-anchor="middle" x="575.226" y="-12.6509" font-family="Helvetica,sans-Serif" font-size="10.00">1</text>
</a>
</g>
</g>
<!-- dir_8ba487e25de5ee77e05e9dce7582cb98&#45;&gt;dir_2171f7ec022c5423887b07c69b2f5b48 -->
<g id="edge5" class="edge"><title>dir_8ba487e25de5ee77e05e9dce7582cb98&#45;&gt;dir_2171f7ec022c5423887b07c69b2f5b48</title>
<path fill="none" stroke="black" d="M838.755,-71.9315C834.467,-68.8633 829.77,-66.0075 825,-64 740.522,-28.4458 632.328,-20.4132 571.344,-18.9294"/>
<polygon fill="black" stroke="black" points="571.314,-15.4283 561.248,-18.7336 571.178,-22.427 571.314,-15.4283"/>
<g id="a_edge5&#45;headlabel"><a xlink:href="dir_000000_000056.html" target="_top" xlink:title="7">
<text text-anchor="middle" x="574.963" y="-10.1592" font-family="Helvetica,sans-Serif" font-size="10.00">7</text>
</a>
</g>
</g>
<!-- dir_bcbb2cf9a3d3d83e5515c82071a07177&#45;&gt;dir_2171f7ec022c5423887b07c69b2f5b48 -->
<g id="edge11" class="edge"><title>dir_bcbb2cf9a3d3d83e5515c82071a07177&#45;&gt;dir_2171f7ec022c5423887b07c69b2f5b48</title>
<path fill="none" stroke="black" d="M948.167,-71.9933C942.038,-68.8811 935.446,-65.9922 929,-64 804.087,-25.3936 648.46,-19.0759 571.563,-18.5477"/>
<polygon fill="black" stroke="black" points="571.259,-15.0467 561.246,-18.5089 571.233,-22.0466 571.259,-15.0467"/>
<g id="a_edge11&#45;headlabel"><a xlink:href="dir_000037_000056.html" target="_top" xlink:title="22">
<text text-anchor="middle" x="574.864" y="-9.72086" font-family="Helvetica,sans-Serif" font-size="10.00">22</text>
</a>
</g>
</g>
</g>
</svg>
        <g id="navigator" transform="translate(0 0)" fill="#404254">
                <rect fill="#f2f5e9" fill-opacity="0.5" stroke="#606060" stroke-width=".5" x="0" y="0" width="60" height="60"/>
                <use id="zoomplus" xlink:href="#zoomPlus" x="17" y="9" onmousedown="handleZoom(evt,'in')"/>
                <use id="zoomminus" xlink:href="#zoomMin" x="42" y="9" onmousedown="handleZoom(evt,'out')"/>
                <use id="reset" xlink:href="#resetDef" x="30" y="36" onmousedown="handleReset()"/>
                <g id="arrowUp" xlink:href="#dirArrow" transform="translate(30 24)" onmousedown="handlePan(0,-1)">
                  <use xlink:href="#rim" fill="#404040">
                        <set attributeName="fill" to="#808080" begin="arrowUp.mouseover" end="arrowUp.mouseout"/>
                  </use>
                  <path fill="none" stroke="white" stroke-width="1.5" d="M0,-3.0v7 M-2.5,-0.5L0,-3.0L2.5,-0.5"/>
                </g>
                <g id="arrowRight" xlink:href="#dirArrow" transform="rotate(90) translate(36 -43)" onmousedown="handlePan(1,0)">
                  <use xlink:href="#rim" fill="#404040">
                        <set attributeName="fill" to="#808080" begin="arrowRight.mouseover" end="arrowRight.mouseout"/>
                  </use>
                  <path fill="none" stroke="white" stroke-width="1.5" d="M0,-3.0v7 M-2.5,-0.5L0,-3.0L2.5,-0.5"/>
                </g>
                <g id="arrowDown" xlink:href="#dirArrow" transform="rotate(180) translate(-30 -48)" onmousedown="handlePan(0,1)">
                  <use xlink:href="#rim" fill="#404040">
                        <set attributeName="fill" to="#808080" begin="arrowDown.mouseover" end="arrowDown.mouseout"/>
                  </use>
                  <path fill="none" stroke="white" stroke-width="1.5" d="M0,-3.0v7 M-2.5,-0.5L0,-3.0L2.5,-0.5"/>
                </g>
                <g id="arrowLeft" xlink:href="#dirArrow" transform="rotate(270) translate(-36 17)" onmousedown="handlePan(-1,0)">
                  <use xlink:href="#rim" fill="#404040">
                        <set attributeName="fill" to="#808080" begin="arrowLeft.mouseover" end="arrowLeft.mouseout"/>
                  </use>
                  <path fill="none" stroke="white" stroke-width="1.5" d="M0,-3.0v7 M-2.5,-0.5L0,-3.0L2.5,-0.5"/>
                </g>
        </g>
        <svg viewBox="0 0 15 15" width="100%" height="30px" preserveAspectRatio="xMaxYMin meet">
         <g id="arrow_out" transform="scale(0.3 0.3)">
          <a xlink:href="dir_b05a5fa85f84bfc9013183c9d87f9a36_dep_org.svg" target="_base">
           <rect id="button" ry="5" rx="5" y="6" x="6" height="38" width="38"
                fill="#f2f5e9" fill-opacity="0.5" stroke="#606060" stroke-width="1.0"/>
           <path id="arrow"
             d="M 11.500037,31.436501 C 11.940474,20.09759 22.043105,11.32322 32.158766,21.979434 L 37.068811,17.246167 C 37.068811,17.246167 37.088388,32 37.088388,32 L 22.160133,31.978069 C 22.160133,31.978069 26.997745,27.140456 26.997745,27.140456 C 18.528582,18.264221 13.291696,25.230495 11.500037,31.436501 z"
             style="fill:#404040;"/>
          </a>
         </g>
        </svg>
</svg>
