<?xml version="1.0" encoding="UTF-8" standalone="no"?>
<!DOCTYPE svg PUBLIC "-//W3C//DTD SVG 1.1//EN"
 "http://www.w3.org/Graphics/SVG/1.1/DTD/svg11.dtd">
<!-- Generated by graphviz version 2.36.0 (20140111.2315)
 -->
<!-- Title: /home/travis/build/AliceO2Group/AliceO2/Framework/Utils Pages: 1 -->
<svg width="254pt" height="303pt"
 viewBox="0.00 0.00 254.00 303.00" xmlns="http://www.w3.org/2000/svg" xmlns:xlink="http://www.w3.org/1999/xlink">
<g id="graph0" class="graph" transform="scale(1 1) rotate(0) translate(4 299)">
<title>/home/travis/build/AliceO2Group/AliceO2/Framework/Utils</title>
<g id="clust1" class="cluster"><title>clusterdir_bcbb2cf9a3d3d83e5515c82071a07177</title>
<g id="a_clust1"><a xlink:href="dir_bcbb2cf9a3d3d83e5515c82071a07177.html" target="_top" xlink:title="Framework">
<polygon fill="#ddddee" stroke="black" points="8,-128 8,-287 238,-287 238,-128 8,-128"/>
<text text-anchor="middle" x="123" y="-275" font-family="Helvetica,sans-Serif" font-size="10.00">Framework</text>
</a>
</g>
</g>
<g id="clust2" class="cluster"><title>clusterdir_86f64936653d09622c529b3cc7c8edcd</title>
<g id="a_clust2"><a xlink:href="dir_86f64936653d09622c529b3cc7c8edcd.html" target="_top">
<polygon fill="#eeeeff" stroke="black" points="16,-136 16,-260 230,-260 230,-136 16,-136"/>
</a>
</g>
</g>
<!-- dir_86f64936653d09622c529b3cc7c8edcd -->
<g id="node1" class="node"><title>dir_86f64936653d09622c529b3cc7c8edcd</title>
<text text-anchor="middle" x="195" y="-231.5" font-family="Helvetica,sans-Serif" font-size="10.00">Utils</text>
</g>
<!-- dir_de9651cf711cd4bea71a7a8d6bfef94c -->
<g id="node2" class="node"><title>dir_de9651cf711cd4bea71a7a8d6bfef94c</title>
<g id="a_node2"><a xlink:href="dir_de9651cf711cd4bea71a7a8d6bfef94c.html" target="_top" xlink:title="include">
<polygon fill="white" stroke="red" points="78,-180 24,-180 24,-144 78,-144 78,-180"/>
<text text-anchor="middle" x="51" y="-159.5" font-family="Helvetica,sans-Serif" font-size="10.00">include</text>
</a>
</g>
</g>
<!-- dir_9f165b2481dacfe69aa54d326bd5cd47 -->
<g id="node5" class="node"><title>dir_9f165b2481dacfe69aa54d326bd5cd47</title>
<g id="a_node5"><a xlink:href="dir_9f165b2481dacfe69aa54d326bd5cd47.html" target="_top" xlink:title="Core">
<polygon fill="none" stroke="red" points="188,-108 134,-108 134,-72 188,-72 188,-108"/>
<text text-anchor="middle" x="161" y="-87.5" font-family="Helvetica,sans-Serif" font-size="10.00">Core</text>
</a>
</g>
</g>
<!-- dir_de9651cf711cd4bea71a7a8d6bfef94c&#45;&gt;dir_9f165b2481dacfe69aa54d326bd5cd47 -->
<g id="edge8" class="edge"><title>dir_de9651cf711cd4bea71a7a8d6bfef94c&#45;&gt;dir_9f165b2481dacfe69aa54d326bd5cd47</title>
<path fill="none" stroke="black" d="M77.909,-143.876C92.1584,-134.808 109.846,-123.552 125.236,-113.759"/>
<polygon fill="black" stroke="black" points="127.43,-116.511 133.988,-108.19 123.672,-110.606 127.43,-116.511"/>
<g id="a_edge8&#45;headlabel"><a xlink:href="dir_000039_000370.html" target="_top" xlink:title="7">
<text text-anchor="middle" x="125.922" y="-118.337" font-family="Helvetica,sans-Serif" font-size="10.00">7</text>
</a>
</g>
</g>
<!-- dir_9d9deac5aa928bccabe3328cf9e31ff3 -->
<g id="node3" class="node"><title>dir_9d9deac5aa928bccabe3328cf9e31ff3</title>
<g id="a_node3"><a xlink:href="dir_9d9deac5aa928bccabe3328cf9e31ff3.html" target="_top" xlink:title="src">
<polygon fill="white" stroke="black" points="78,-252 24,-252 24,-216 78,-216 78,-252"/>
<text text-anchor="middle" x="51" y="-231.5" font-family="Helvetica,sans-Serif" font-size="10.00">src</text>
</a>
</g>
</g>
<!-- dir_9d9deac5aa928bccabe3328cf9e31ff3&#45;&gt;dir_de9651cf711cd4bea71a7a8d6bfef94c -->
<g id="edge2" class="edge"><title>dir_9d9deac5aa928bccabe3328cf9e31ff3&#45;&gt;dir_de9651cf711cd4bea71a7a8d6bfef94c</title>
<path fill="none" stroke="black" d="M51,-215.697C51,-207.983 51,-198.712 51,-190.112"/>
<polygon fill="black" stroke="black" points="54.5001,-190.104 51,-180.104 47.5001,-190.104 54.5001,-190.104"/>
<g id="a_edge2&#45;headlabel"><a xlink:href="dir_000382_000039.html" target="_top" xlink:title="5">
<text text-anchor="middle" x="57.3393" y="-191.199" font-family="Helvetica,sans-Serif" font-size="10.00">5</text>
</a>
</g>
</g>
<!-- dir_9d9deac5aa928bccabe3328cf9e31ff3&#45;&gt;dir_9f165b2481dacfe69aa54d326bd5cd47 -->
<g id="edge1" class="edge"><title>dir_9d9deac5aa928bccabe3328cf9e31ff3&#45;&gt;dir_9f165b2481dacfe69aa54d326bd5cd47</title>
<path fill="none" stroke="black" d="M78.134,-216.705C92.0265,-207.322 108.408,-194.52 120,-180 134.867,-161.379 145.738,-136.493 152.537,-117.771"/>
<polygon fill="black" stroke="black" points="155.927,-118.677 155.894,-108.083 149.312,-116.385 155.927,-118.677"/>
<g id="a_edge1&#45;headlabel"><a xlink:href="dir_000382_000370.html" target="_top" xlink:title="5">
<text text-anchor="middle" x="157.432" y="-120.504" font-family="Helvetica,sans-Serif" font-size="10.00">5</text>
</a>
</g>
</g>
<!-- dir_2171f7ec022c5423887b07c69b2f5b48 -->
<g id="node6" class="node"><title>dir_2171f7ec022c5423887b07c69b2f5b48</title>
<g id="a_node6"><a xlink:href="dir_2171f7ec022c5423887b07c69b2f5b48.html" target="_top" xlink:title="DataFormats">
<polygon fill="none" stroke="red" points="198,-36 124,-36 124,-0 198,-0 198,-36"/>
<text text-anchor="middle" x="161" y="-15.5" font-family="Helvetica,sans-Serif" font-size="10.00">DataFormats</text>
</a>
</g>
</g>
<!-- dir_9d9deac5aa928bccabe3328cf9e31ff3&#45;&gt;dir_2171f7ec022c5423887b07c69b2f5b48 -->
<g id="edge3" class="edge"><title>dir_9d9deac5aa928bccabe3328cf9e31ff3&#45;&gt;dir_2171f7ec022c5423887b07c69b2f5b48</title>
<path fill="none" stroke="black" d="M64.5356,-215.558C71.8644,-205.546 80.684,-192.512 87,-180 109.931,-134.575 102.069,-117.425 125,-72 129.688,-62.7141 135.754,-53.14 141.567,-44.7274"/>
<polygon fill="black" stroke="black" points="144.517,-46.6186 147.464,-36.4419 138.814,-42.5595 144.517,-46.6186"/>
<g id="a_edge3&#45;headlabel"><a xlink:href="dir_000382_000056.html" target="_top" xlink:title="1">
<text text-anchor="middle" x="144.746" y="-48.6935" font-family="Helvetica,sans-Serif" font-size="10.00">1</text>
</a>
</g>
</g>
<!-- dir_134f24c2e8183f3bd0d900e20fafb8e9 -->
<g id="node4" class="node"><title>dir_134f24c2e8183f3bd0d900e20fafb8e9</title>
<g id="a_node4"><a xlink:href="dir_134f24c2e8183f3bd0d900e20fafb8e9.html" target="_top" xlink:title="test">
<polygon fill="white" stroke="black" points="150,-252 96,-252 96,-216 150,-216 150,-252"/>
<text text-anchor="middle" x="123" y="-231.5" font-family="Helvetica,sans-Serif" font-size="10.00">test</text>
</a>
</g>
</g>
<!-- dir_134f24c2e8183f3bd0d900e20fafb8e9&#45;&gt;dir_de9651cf711cd4bea71a7a8d6bfef94c -->
<g id="edge5" class="edge"><title>dir_134f24c2e8183f3bd0d900e20fafb8e9&#45;&gt;dir_de9651cf711cd4bea71a7a8d6bfef94c</title>
<path fill="none" stroke="black" d="M105.202,-215.697C96.396,-207.135 85.6179,-196.656 75.9989,-187.304"/>
<polygon fill="black" stroke="black" points="78.2028,-184.566 68.593,-180.104 73.3232,-189.585 78.2028,-184.566"/>
<g id="a_edge5&#45;headlabel"><a xlink:href="dir_000383_000039.html" target="_top" xlink:title="7">
<text text-anchor="middle" x="82.7593" y="-182.536" font-family="Helvetica,sans-Serif" font-size="10.00">7</text>
</a>
</g>
</g>
<!-- dir_134f24c2e8183f3bd0d900e20fafb8e9&#45;&gt;dir_9f165b2481dacfe69aa54d326bd5cd47 -->
<g id="edge4" class="edge"><title>dir_134f24c2e8183f3bd0d900e20fafb8e9&#45;&gt;dir_9f165b2481dacfe69aa54d326bd5cd47</title>
<path fill="none" stroke="black" d="M138.007,-215.649C145.505,-205.869 153.846,-193.027 158,-180 164.37,-160.024 164.832,-136.235 163.859,-118.279"/>
<polygon fill="black" stroke="black" points="167.342,-117.919 163.131,-108.197 160.36,-118.423 167.342,-117.919"/>
<g id="a_edge4&#45;headlabel"><a xlink:href="dir_000383_000370.html" target="_top" xlink:title="37">
<text text-anchor="middle" x="170.433" y="-118.8" font-family="Helvetica,sans-Serif" font-size="10.00">37</text>
</a>
</g>
</g>
<!-- dir_134f24c2e8183f3bd0d900e20fafb8e9&#45;&gt;dir_2171f7ec022c5423887b07c69b2f5b48 -->
<g id="edge6" class="edge"><title>dir_134f24c2e8183f3bd0d900e20fafb8e9&#45;&gt;dir_2171f7ec022c5423887b07c69b2f5b48</title>
<path fill="none" stroke="black" d="M144.714,-215.866C155.495,-206.338 167.912,-193.66 176,-180 192.983,-151.318 192.286,-140.998 197,-108 199.263,-92.1608 201.703,-87.2933 197,-72 193.991,-62.2153 188.493,-52.6161 182.684,-44.3336"/>
<polygon fill="black" stroke="black" points="185.407,-42.1306 176.61,-36.2264 179.805,-46.3279 185.407,-42.1306"/>
<g id="a_edge6&#45;headlabel"><a xlink:href="dir_000383_000056.html" target="_top" xlink:title="2">
<text text-anchor="middle" x="189.835" y="-40.8048" font-family="Helvetica,sans-Serif" font-size="10.00">2</text>
</a>
</g>
</g>
<!-- dir_9f165b2481dacfe69aa54d326bd5cd47&#45;&gt;dir_2171f7ec022c5423887b07c69b2f5b48 -->
<g id="edge7" class="edge"><title>dir_9f165b2481dacfe69aa54d326bd5cd47&#45;&gt;dir_2171f7ec022c5423887b07c69b2f5b48</title>
<path fill="none" stroke="black" d="M161,-71.6966C161,-63.9827 161,-54.7125 161,-46.1124"/>
<polygon fill="black" stroke="black" points="164.5,-46.1043 161,-36.1043 157.5,-46.1044 164.5,-46.1043"/>
<g id="a_edge7&#45;headlabel"><a xlink:href="dir_000370_000056.html" target="_top" xlink:title="17">
<text text-anchor="middle" x="167.339" y="-47.199" font-family="Helvetica,sans-Serif" font-size="10.00">17</text>
</a>
</g>
</g>
</g>
</svg>
