<?xml version="1.0" encoding="UTF-8" standalone="no"?>
<!DOCTYPE svg PUBLIC "-//W3C//DTD SVG 1.1//EN"
 "http://www.w3.org/Graphics/SVG/1.1/DTD/svg11.dtd">
<!-- Generated by graphviz version 2.36.0 (20140111.2315)
 -->
<!-- Title: /home/travis/build/AliceO2Group/AliceO2/Detectors/FIT/simulation/src Pages: 1 -->
<svg width="163pt" height="223pt"
 viewBox="0.00 0.00 163.00 223.00" xmlns="http://www.w3.org/2000/svg" xmlns:xlink="http://www.w3.org/1999/xlink">
<g id="graph0" class="graph" transform="scale(1 1) rotate(0) translate(4 219)">
<title>/home/travis/build/AliceO2Group/AliceO2/Detectors/FIT/simulation/src</title>
<g id="clust1" class="cluster"><title>clusterdir_d961a1fccbdc187b00f8f36febec53be</title>
<g id="a_clust1"><a xlink:href="dir_d961a1fccbdc187b00f8f36febec53be.html" target="_top" xlink:title="simulation">
<polygon fill="#ddddee" stroke="black" points="66,-136 66,-207 136,-207 136,-136 66,-136"/>
<text text-anchor="middle" x="101" y="-195" font-family="Helvetica,sans-Serif" font-size="10.00">simulation</text>
</a>
</g>
</g>
<!-- dir_3577dabb8da6e7e9f48138bf5363df09 -->
<g id="node1" class="node"><title>dir_3577dabb8da6e7e9f48138bf5363df09</title>
<g id="a_node1"><a xlink:href="dir_3577dabb8da6e7e9f48138bf5363df09.html" target="_top" xlink:title="src">
<polygon fill="#eeeeff" stroke="black" points="128,-180 74,-180 74,-144 128,-144 128,-180"/>
<text text-anchor="middle" x="101" y="-159.5" font-family="Helvetica,sans-Serif" font-size="10.00">src</text>
</a>
</g>
</g>
<!-- dir_4ab6b4cc6a7edbff49100e9123df213f -->
<g id="node2" class="node"><title>dir_4ab6b4cc6a7edbff49100e9123df213f</title>
<g id="a_node2"><a xlink:href="dir_4ab6b4cc6a7edbff49100e9123df213f.html" target="_top" xlink:title="Common">
<polygon fill="none" stroke="red" points="55.5,-108 0.5,-108 0.5,-72 55.5,-72 55.5,-108"/>
<text text-anchor="middle" x="28" y="-87.5" font-family="Helvetica,sans-Serif" font-size="10.00">Common</text>
</a>
</g>
</g>
<!-- dir_3577dabb8da6e7e9f48138bf5363df09&#45;&gt;dir_4ab6b4cc6a7edbff49100e9123df213f -->
<g id="edge1" class="edge"><title>dir_3577dabb8da6e7e9f48138bf5363df09&#45;&gt;dir_4ab6b4cc6a7edbff49100e9123df213f</title>
<path fill="none" stroke="black" d="M82.9551,-143.697C73.9381,-135.05 62.8821,-124.449 53.0568,-115.027"/>
<polygon fill="black" stroke="black" points="55.4777,-112.499 45.8374,-108.104 50.6328,-117.552 55.4777,-112.499"/>
<g id="a_edge1&#45;headlabel"><a xlink:href="dir_000194_000016.html" target="_top" xlink:title="1">
<text text-anchor="middle" x="60.0373" y="-110.438" font-family="Helvetica,sans-Serif" font-size="10.00">1</text>
</a>
</g>
</g>
<!-- dir_2465f3075ac35f5821daf5bc0e4d2732 -->
<g id="node3" class="node"><title>dir_2465f3075ac35f5821daf5bc0e4d2732</title>
<g id="a_node3"><a xlink:href="dir_2465f3075ac35f5821daf5bc0e4d2732.html" target="_top" xlink:title="include">
<polygon fill="none" stroke="red" points="128,-108 74,-108 74,-72 128,-72 128,-108"/>
<text text-anchor="middle" x="101" y="-87.5" font-family="Helvetica,sans-Serif" font-size="10.00">include</text>
</a>
</g>
</g>
<!-- dir_3577dabb8da6e7e9f48138bf5363df09&#45;&gt;dir_2465f3075ac35f5821daf5bc0e4d2732 -->
<g id="edge2" class="edge"><title>dir_3577dabb8da6e7e9f48138bf5363df09&#45;&gt;dir_2465f3075ac35f5821daf5bc0e4d2732</title>
<path fill="none" stroke="black" d="M101,-143.697C101,-135.983 101,-126.712 101,-118.112"/>
<polygon fill="black" stroke="black" points="104.5,-118.104 101,-108.104 97.5001,-118.104 104.5,-118.104"/>
<g id="a_edge2&#45;headlabel"><a xlink:href="dir_000194_000162.html" target="_top" xlink:title="3">
<text text-anchor="middle" x="107.339" y="-119.199" font-family="Helvetica,sans-Serif" font-size="10.00">3</text>
</a>
</g>
</g>
<!-- dir_efd5be80f1ea96799fa313034d485898 -->
<g id="node4" class="node"><title>dir_efd5be80f1ea96799fa313034d485898</title>
<g id="a_node4"><a xlink:href="dir_efd5be80f1ea96799fa313034d485898.html" target="_top" xlink:title="base">
<polygon fill="none" stroke="red" points="155,-36 101,-36 101,-0 155,-0 155,-36"/>
<text text-anchor="middle" x="128" y="-15.5" font-family="Helvetica,sans-Serif" font-size="10.00">base</text>
</a>
</g>
</g>
<!-- dir_3577dabb8da6e7e9f48138bf5363df09&#45;&gt;dir_efd5be80f1ea96799fa313034d485898 -->
<g id="edge3" class="edge"><title>dir_3577dabb8da6e7e9f48138bf5363df09&#45;&gt;dir_efd5be80f1ea96799fa313034d485898</title>
<path fill="none" stroke="black" d="M116.61,-143.774C124.373,-134.03 132.946,-121.184 137,-108 143.22,-87.7736 140.269,-63.865 136.147,-45.9241"/>
<polygon fill="black" stroke="black" points="139.51,-44.9471 133.646,-36.1232 132.728,-46.6782 139.51,-44.9471"/>
<g id="a_edge3&#45;headlabel"><a xlink:href="dir_000194_000203.html" target="_top" xlink:title="1">
<text text-anchor="middle" x="143.15" y="-45.228" font-family="Helvetica,sans-Serif" font-size="10.00">1</text>
</a>
</g>
</g>
<!-- dir_2465f3075ac35f5821daf5bc0e4d2732&#45;&gt;dir_efd5be80f1ea96799fa313034d485898 -->
<g id="edge4" class="edge"><title>dir_2465f3075ac35f5821daf5bc0e4d2732&#45;&gt;dir_efd5be80f1ea96799fa313034d485898</title>
<path fill="none" stroke="black" d="M107.674,-71.6966C110.715,-63.8132 114.383,-54.3042 117.761,-45.5464"/>
<polygon fill="black" stroke="black" points="121.069,-46.6939 121.403,-36.1043 114.538,-44.1748 121.069,-46.6939"/>
<g id="a_edge4&#45;headlabel"><a xlink:href="dir_000162_000203.html" target="_top" xlink:title="3">
<text text-anchor="middle" x="122.425" y="-48.5695" font-family="Helvetica,sans-Serif" font-size="10.00">3</text>
</a>
</g>
</g>
</g>
</svg>
