<?xml version="1.0" encoding="UTF-8" standalone="no"?>
<!DOCTYPE svg PUBLIC "-//W3C//DTD SVG 1.1//EN"
 "http://www.w3.org/Graphics/SVG/1.1/DTD/svg11.dtd">
<!-- Generated by graphviz version 2.36.0 (20140111.2315)
 -->
<!-- Title: /home/travis/build/AliceO2Group/AliceO2/DataFormats/simulation/include Pages: 1 -->
<svg width="299pt" height="177pt"
 viewBox="0.00 0.00 299.00 177.08" xmlns="http://www.w3.org/2000/svg" xmlns:xlink="http://www.w3.org/1999/xlink">
<g id="graph0" class="graph" transform="scale(1 1) rotate(0) translate(4 173.08)">
<title>/home/travis/build/AliceO2Group/AliceO2/DataFormats/simulation/include</title>
<g id="clust1" class="cluster"><title>clusterdir_047746f9f311f49446db9474b7431d0d</title>
<g id="a_clust1"><a xlink:href="dir_047746f9f311f49446db9474b7431d0d.html" target="_top" xlink:title="simulation">
<polygon fill="#ddddee" stroke="black" points="8,-56 8,-143 226,-143 226,-56 8,-56"/>
<text text-anchor="middle" x="117" y="-131" font-family="Helvetica,sans-Serif" font-size="10.00">simulation</text>
</a>
</g>
</g>
<g id="clust2" class="cluster"><title>clusterdir_e977c6a9672cee72083a88d55f0ce0c6</title>
<g id="a_clust2"><a xlink:href="dir_e977c6a9672cee72083a88d55f0ce0c6.html" target="_top">
<polygon fill="#eeeeff" stroke="black" points="16,-64 16,-116 218,-116 218,-64 16,-64"/>
</a>
</g>
</g>
<!-- dir_e977c6a9672cee72083a88d55f0ce0c6 -->
<g id="node1" class="node"><title>dir_e977c6a9672cee72083a88d55f0ce0c6</title>
<text text-anchor="middle" x="183" y="-87.5" font-family="Helvetica,sans-Serif" font-size="10.00">include</text>
</g>
<!-- dir_af0e56203f4f35107f06f72cd061d1bf -->
<g id="node2" class="node"><title>dir_af0e56203f4f35107f06f72cd061d1bf</title>
<g id="a_node2"><a xlink:href="dir_af0e56203f4f35107f06f72cd061d1bf.html" target="_top" xlink:title="SimulationDataFormat">
<polygon fill="white" stroke="black" points="138,-108 24,-108 24,-72 138,-72 138,-108"/>
<text text-anchor="middle" x="81" y="-87.5" font-family="Helvetica,sans-Serif" font-size="10.00">SimulationDataFormat</text>
</a>
</g>
</g>
<!-- dir_4ab6b4cc6a7edbff49100e9123df213f -->
<g id="node3" class="node"><title>dir_4ab6b4cc6a7edbff49100e9123df213f</title>
<g id="a_node3"><a xlink:href="dir_4ab6b4cc6a7edbff49100e9123df213f.html" target="_top" xlink:title="Common">
<polygon fill="none" stroke="red" points="289.5,-108 234.5,-108 234.5,-72 289.5,-72 289.5,-108"/>
<text text-anchor="middle" x="262" y="-87.5" font-family="Helvetica,sans-Serif" font-size="10.00">Common</text>
</a>
</g>
</g>
<!-- dir_af0e56203f4f35107f06f72cd061d1bf&#45;&gt;dir_4ab6b4cc6a7edbff49100e9123df213f -->
<g id="edge1" class="edge"><title>dir_af0e56203f4f35107f06f72cd061d1bf&#45;&gt;dir_4ab6b4cc6a7edbff49100e9123df213f</title>
<path fill="none" stroke="black" d="M93.7358,-108.313C106.997,-125.618 129.515,-150.452 156,-161 179.536,-170.373 190.569,-172.774 213,-161 230.461,-151.835 242.923,-133.315 250.909,-117.488"/>
<polygon fill="black" stroke="black" points="254.239,-118.63 255.308,-108.089 247.899,-115.662 254.239,-118.63"/>
<g id="a_edge1&#45;headlabel"><a xlink:href="dir_000146_000016.html" target="_top" xlink:title="1">
<text text-anchor="middle" x="255.287" y="-120.589" font-family="Helvetica,sans-Serif" font-size="10.00">1</text>
</a>
</g>
</g>
<!-- dir_2801adc79bf3c286b1b479858d2cade4 -->
<g id="node4" class="node"><title>dir_2801adc79bf3c286b1b479858d2cade4</title>
<g id="a_node4"><a xlink:href="dir_2801adc79bf3c286b1b479858d2cade4.html" target="_top" xlink:title="Detectors">
<polygon fill="none" stroke="red" points="291.25,-36 232.75,-36 232.75,-0 291.25,-0 291.25,-36"/>
<text text-anchor="middle" x="262" y="-15.5" font-family="Helvetica,sans-Serif" font-size="10.00">Detectors</text>
</a>
</g>
</g>
<!-- dir_af0e56203f4f35107f06f72cd061d1bf&#45;&gt;dir_2801adc79bf3c286b1b479858d2cade4 -->
<g id="edge2" class="edge"><title>dir_af0e56203f4f35107f06f72cd061d1bf&#45;&gt;dir_2801adc79bf3c286b1b479858d2cade4</title>
<path fill="none" stroke="black" d="M104.248,-71.8869C114.485,-66.4492 126.613,-60.6468 138,-56 165.478,-44.7865 197.715,-34.6648 222.575,-27.854"/>
<polygon fill="black" stroke="black" points="223.639,-31.1928 232.398,-25.2333 221.834,-24.4293 223.639,-31.1928"/>
<g id="a_edge2&#45;headlabel"><a xlink:href="dir_000146_000066.html" target="_top" xlink:title="2">
<text text-anchor="middle" x="220.897" y="-32.3626" font-family="Helvetica,sans-Serif" font-size="10.00">2</text>
</a>
</g>
</g>
<!-- dir_4ab6b4cc6a7edbff49100e9123df213f&#45;&gt;dir_2801adc79bf3c286b1b479858d2cade4 -->
<g id="edge3" class="edge"><title>dir_4ab6b4cc6a7edbff49100e9123df213f&#45;&gt;dir_2801adc79bf3c286b1b479858d2cade4</title>
<path fill="none" stroke="black" d="M256.084,-71.6966C255.289,-63.9827 255.062,-54.7125 255.405,-46.1124"/>
<polygon fill="black" stroke="black" points="258.898,-46.3243 256.105,-36.1043 251.915,-45.8356 258.898,-46.3243"/>
<g id="a_edge3&#45;headlabel"><a xlink:href="dir_000016_000066.html" target="_top" xlink:title="1">
<text text-anchor="middle" x="261.48" y="-47.6083" font-family="Helvetica,sans-Serif" font-size="10.00">1</text>
</a>
</g>
</g>
<!-- dir_2801adc79bf3c286b1b479858d2cade4&#45;&gt;dir_af0e56203f4f35107f06f72cd061d1bf -->
<g id="edge4" class="edge"><title>dir_2801adc79bf3c286b1b479858d2cade4&#45;&gt;dir_af0e56203f4f35107f06f72cd061d1bf</title>
<path fill="none" stroke="black" d="M232.51,-29.4246C210.955,-36.1735 181.438,-45.6189 156,-56 147.638,-59.4125 138.876,-63.4482 130.381,-67.505"/>
<polygon fill="black" stroke="black" points="128.784,-64.3891 121.299,-71.8869 131.826,-70.6937 128.784,-64.3891"/>
<g id="a_edge4&#45;headlabel"><a xlink:href="dir_000066_000146.html" target="_top" xlink:title="2">
<text text-anchor="middle" x="130.788" y="-57.77" font-family="Helvetica,sans-Serif" font-size="10.00">2</text>
</a>
</g>
</g>
<!-- dir_2801adc79bf3c286b1b479858d2cade4&#45;&gt;dir_4ab6b4cc6a7edbff49100e9123df213f -->
<g id="edge5" class="edge"><title>dir_2801adc79bf3c286b1b479858d2cade4&#45;&gt;dir_4ab6b4cc6a7edbff49100e9123df213f</title>
<path fill="none" stroke="black" d="M267.895,-36.1043C268.701,-43.7913 268.937,-53.0537 268.604,-61.6651"/>
<polygon fill="black" stroke="black" points="265.109,-61.4805 267.916,-71.6966 272.092,-61.9597 265.109,-61.4805"/>
<g id="a_edge5&#45;headlabel"><a xlink:href="dir_000066_000016.html" target="_top" xlink:title="9">
<text text-anchor="middle" x="262.522" y="-55.2" font-family="Helvetica,sans-Serif" font-size="10.00">9</text>
</a>
</g>
</g>
</g>
</svg>
