<?xml version="1.0" encoding="UTF-8" standalone="no"?>
<!DOCTYPE svg PUBLIC "-//W3C//DTD SVG 1.1//EN"
 "http://www.w3.org/Graphics/SVG/1.1/DTD/svg11.dtd">
<!-- Generated by graphviz version 2.36.0 (20140111.2315)
 -->
<!-- Title: /home/travis/build/AliceO2Group/AliceO2/DataFormats Pages: 1 -->
<svg width="435pt" height="320pt"
 viewBox="0.00 0.00 435.08 320.05" xmlns="http://www.w3.org/2000/svg" xmlns:xlink="http://www.w3.org/1999/xlink">
<g id="graph0" class="graph" transform="scale(1 1) rotate(0) translate(4 316.055)">
<title>/home/travis/build/AliceO2Group/AliceO2/DataFormats</title>
<g id="clust1" class="cluster"><title>clusterdir_2171f7ec022c5423887b07c69b2f5b48</title>
<g id="a_clust1"><a xlink:href="dir_2171f7ec022c5423887b07c69b2f5b48.html" target="_top">
<polygon fill="#eeeeff" stroke="black" points="8,-8 8,-276 340,-276 340,-8 8,-8"/>
</a>
</g>
</g>
<!-- dir_2171f7ec022c5423887b07c69b2f5b48 -->
<g id="node1" class="node"><title>dir_2171f7ec022c5423887b07c69b2f5b48</title>
<text text-anchor="middle" x="295" y="-247.5" font-family="Helvetica,sans-Serif" font-size="10.00">DataFormats</text>
</g>
<!-- dir_7924ba4398ae4560cd37376e44666c6d -->
<g id="node2" class="node"><title>dir_7924ba4398ae4560cd37376e44666c6d</title>
<g id="a_node2"><a xlink:href="dir_7924ba4398ae4560cd37376e44666c6d.html" target="_top" xlink:title="common">
<polygon fill="white" stroke="red" points="237,-52 183,-52 183,-16 237,-16 237,-52"/>
<text text-anchor="middle" x="210" y="-31.5" font-family="Helvetica,sans-Serif" font-size="10.00">common</text>
</a>
</g>
</g>
<!-- dir_2801adc79bf3c286b1b479858d2cade4 -->
<g id="node3" class="node"><title>dir_2801adc79bf3c286b1b479858d2cade4</title>
<g id="a_node3"><a xlink:href="dir_2801adc79bf3c286b1b479858d2cade4.html" target="_top" xlink:title="Detectors">
<polygon fill="white" stroke="red" points="225.25,-196 166.75,-196 166.75,-160 225.25,-160 225.25,-196"/>
<text text-anchor="middle" x="196" y="-175.5" font-family="Helvetica,sans-Serif" font-size="10.00">Detectors</text>
</a>
</g>
</g>
<!-- dir_2801adc79bf3c286b1b479858d2cade4&#45;&gt;dir_7924ba4398ae4560cd37376e44666c6d -->
<g id="edge9" class="edge"><title>dir_2801adc79bf3c286b1b479858d2cade4&#45;&gt;dir_7924ba4398ae4560cd37376e44666c6d</title>
<path fill="none" stroke="black" d="M179.963,-159.846C171.986,-150.124 163.175,-137.274 159,-124 154.199,-108.737 153.019,-102.84 159,-88 163.349,-77.209 171.062,-67.3859 179.194,-59.2085"/>
<polygon fill="black" stroke="black" points="181.79,-61.572 186.695,-52.1808 177.004,-56.4636 181.79,-61.572"/>
<g id="a_edge9&#45;headlabel"><a xlink:href="dir_000066_000057.html" target="_top" xlink:title="1">
<text text-anchor="middle" x="181.108" y="-63.6016" font-family="Helvetica,sans-Serif" font-size="10.00">1</text>
</a>
</g>
</g>
<!-- dir_d269712cc31e133b892a3b3f6424741a -->
<g id="node8" class="node"><title>dir_d269712cc31e133b892a3b3f6424741a</title>
<g id="a_node8"><a xlink:href="dir_d269712cc31e133b892a3b3f6424741a.html" target="_top" xlink:title="Reconstruction">
<polygon fill="white" stroke="red" points="251.25,-124 168.75,-124 168.75,-88 251.25,-88 251.25,-124"/>
<text text-anchor="middle" x="210" y="-103.5" font-family="Helvetica,sans-Serif" font-size="10.00">Reconstruction</text>
</a>
</g>
</g>
<!-- dir_2801adc79bf3c286b1b479858d2cade4&#45;&gt;dir_d269712cc31e133b892a3b3f6424741a -->
<g id="edge6" class="edge"><title>dir_2801adc79bf3c286b1b479858d2cade4&#45;&gt;dir_d269712cc31e133b892a3b3f6424741a</title>
<path fill="none" stroke="black" d="M193.545,-159.697C194.3,-151.898 195.955,-142.509 198.05,-133.829"/>
<polygon fill="black" stroke="black" points="201.448,-134.672 200.684,-124.104 194.692,-132.842 201.448,-134.672"/>
<g id="a_edge6&#45;headlabel"><a xlink:href="dir_000066_000100.html" target="_top" xlink:title="4">
<text text-anchor="middle" x="203.249" y="-136.383" font-family="Helvetica,sans-Serif" font-size="10.00">4</text>
</a>
</g>
</g>
<!-- dir_047746f9f311f49446db9474b7431d0d -->
<g id="node9" class="node"><title>dir_047746f9f311f49446db9474b7431d0d</title>
<g id="a_node9"><a xlink:href="dir_047746f9f311f49446db9474b7431d0d.html" target="_top" xlink:title="simulation">
<polygon fill="white" stroke="red" points="330.25,-124 269.75,-124 269.75,-88 330.25,-88 330.25,-124"/>
<text text-anchor="middle" x="300" y="-103.5" font-family="Helvetica,sans-Serif" font-size="10.00">simulation</text>
</a>
</g>
</g>
<!-- dir_2801adc79bf3c286b1b479858d2cade4&#45;&gt;dir_047746f9f311f49446db9474b7431d0d -->
<g id="edge8" class="edge"><title>dir_2801adc79bf3c286b1b479858d2cade4&#45;&gt;dir_047746f9f311f49446db9474b7431d0d</title>
<path fill="none" stroke="black" d="M215.792,-159.697C228.519,-150.491 245.35,-139.069 260.663,-129.215"/>
<polygon fill="black" stroke="black" points="262.899,-131.941 269.46,-123.622 259.144,-126.033 262.899,-131.941"/>
<g id="a_edge8&#45;headlabel"><a xlink:href="dir_000066_000144.html" target="_top" xlink:title="2">
<text text-anchor="middle" x="261.388" y="-133.765" font-family="Helvetica,sans-Serif" font-size="10.00">2</text>
</a>
</g>
</g>
<!-- dir_4ab6b4cc6a7edbff49100e9123df213f -->
<g id="node11" class="node"><title>dir_4ab6b4cc6a7edbff49100e9123df213f</title>
<g id="a_node11"><a xlink:href="dir_4ab6b4cc6a7edbff49100e9123df213f.html" target="_top" xlink:title="Common">
<polygon fill="none" stroke="red" points="404.5,-124 349.5,-124 349.5,-88 404.5,-88 404.5,-124"/>
<text text-anchor="middle" x="377" y="-103.5" font-family="Helvetica,sans-Serif" font-size="10.00">Common</text>
</a>
</g>
</g>
<!-- dir_2801adc79bf3c286b1b479858d2cade4&#45;&gt;dir_4ab6b4cc6a7edbff49100e9123df213f -->
<g id="edge7" class="edge"><title>dir_2801adc79bf3c286b1b479858d2cade4&#45;&gt;dir_4ab6b4cc6a7edbff49100e9123df213f</title>
<path fill="none" stroke="black" d="M225.372,-162.085C227.268,-161.374 229.154,-160.676 231,-160 276.931,-143.183 290.034,-143.249 335,-124 336.589,-123.32 338.206,-122.596 339.84,-121.845"/>
<polygon fill="black" stroke="black" points="341.751,-124.812 349.281,-117.358 338.747,-118.489 341.751,-124.812"/>
<g id="a_edge7&#45;headlabel"><a xlink:href="dir_000066_000016.html" target="_top" xlink:title="9">
<text text-anchor="middle" x="339.723" y="-126.419" font-family="Helvetica,sans-Serif" font-size="10.00">9</text>
</a>
</g>
</g>
<!-- dir_183e7c4434404fe9096e1bd8673e1fcf -->
<g id="node4" class="node"><title>dir_183e7c4434404fe9096e1bd8673e1fcf</title>
<g id="a_node4"><a xlink:href="dir_183e7c4434404fe9096e1bd8673e1fcf.html" target="_top" xlink:title="Headers">
<polygon fill="white" stroke="red" points="100,-196 46,-196 46,-160 100,-160 100,-196"/>
<text text-anchor="middle" x="73" y="-175.5" font-family="Helvetica,sans-Serif" font-size="10.00">Headers</text>
</a>
</g>
</g>
<!-- dir_0b530fc7dcf9a7fe279ee6facafec658 -->
<g id="node6" class="node"><title>dir_0b530fc7dcf9a7fe279ee6facafec658</title>
<g id="a_node6"><a xlink:href="dir_0b530fc7dcf9a7fe279ee6facafec658.html" target="_top" xlink:title="MemoryResources">
<polygon fill="white" stroke="red" points="122.25,-124 23.75,-124 23.75,-88 122.25,-88 122.25,-124"/>
<text text-anchor="middle" x="73" y="-103.5" font-family="Helvetica,sans-Serif" font-size="10.00">MemoryResources</text>
</a>
</g>
</g>
<!-- dir_183e7c4434404fe9096e1bd8673e1fcf&#45;&gt;dir_0b530fc7dcf9a7fe279ee6facafec658 -->
<g id="edge17" class="edge"><title>dir_183e7c4434404fe9096e1bd8673e1fcf&#45;&gt;dir_0b530fc7dcf9a7fe279ee6facafec658</title>
<path fill="none" stroke="black" d="M73,-159.697C73,-151.983 73,-142.712 73,-134.112"/>
<polygon fill="black" stroke="black" points="76.5001,-134.104 73,-124.104 69.5001,-134.104 76.5001,-134.104"/>
<g id="a_edge17&#45;headlabel"><a xlink:href="dir_000060_000129.html" target="_top" xlink:title="1">
<text text-anchor="middle" x="79.3393" y="-135.199" font-family="Helvetica,sans-Serif" font-size="10.00">1</text>
</a>
</g>
</g>
<!-- dir_dfa95816b29f32ea9733fcc47ad2b363 -->
<g id="node5" class="node"><title>dir_dfa95816b29f32ea9733fcc47ad2b363</title>
<g id="a_node5"><a xlink:href="dir_dfa95816b29f32ea9733fcc47ad2b363.html" target="_top" xlink:title="Legacy">
<polygon fill="white" stroke="red" points="240,-268 186,-268 186,-232 240,-232 240,-268"/>
<text text-anchor="middle" x="213" y="-247.5" font-family="Helvetica,sans-Serif" font-size="10.00">Legacy</text>
</a>
</g>
</g>
<!-- dir_d462256f2f72f303235b8fb5b5a9f479 -->
<g id="node7" class="node"><title>dir_d462256f2f72f303235b8fb5b5a9f479</title>
<g id="a_node7"><a xlink:href="dir_d462256f2f72f303235b8fb5b5a9f479.html" target="_top" xlink:title="Parameters">
<polygon fill="white" stroke="red" points="167.25,-268 100.75,-268 100.75,-232 167.25,-232 167.25,-268"/>
<text text-anchor="middle" x="134" y="-247.5" font-family="Helvetica,sans-Serif" font-size="10.00">Parameters</text>
</a>
</g>
</g>
<!-- dir_d462256f2f72f303235b8fb5b5a9f479&#45;&gt;dir_2801adc79bf3c286b1b479858d2cade4 -->
<g id="edge22" class="edge"><title>dir_d462256f2f72f303235b8fb5b5a9f479&#45;&gt;dir_2801adc79bf3c286b1b479858d2cade4</title>
<path fill="none" stroke="black" d="M149.326,-231.697C156.759,-223.305 165.823,-213.07 173.98,-203.861"/>
<polygon fill="black" stroke="black" points="176.84,-205.911 180.85,-196.104 171.6,-201.27 176.84,-205.911"/>
<g id="a_edge22&#45;headlabel"><a xlink:href="dir_000134_000066.html" target="_top" xlink:title="1">
<text text-anchor="middle" x="176.582" y="-207.984" font-family="Helvetica,sans-Serif" font-size="10.00">1</text>
</a>
</g>
</g>
<!-- dir_d462256f2f72f303235b8fb5b5a9f479&#45;&gt;dir_4ab6b4cc6a7edbff49100e9123df213f -->
<g id="edge21" class="edge"><title>dir_d462256f2f72f303235b8fb5b5a9f479&#45;&gt;dir_4ab6b4cc6a7edbff49100e9123df213f</title>
<path fill="none" stroke="black" d="M167.65,-231.906C187.199,-221.791 212.199,-208.541 234,-196 271.557,-174.394 313.544,-147.984 342.251,-129.569"/>
<polygon fill="black" stroke="black" points="344.198,-132.478 350.714,-124.124 340.411,-126.591 344.198,-132.478"/>
<g id="a_edge21&#45;headlabel"><a xlink:href="dir_000134_000016.html" target="_top" xlink:title="3">
<text text-anchor="middle" x="342.711" y="-134.311" font-family="Helvetica,sans-Serif" font-size="10.00">3</text>
</a>
</g>
</g>
<!-- dir_d269712cc31e133b892a3b3f6424741a&#45;&gt;dir_7924ba4398ae4560cd37376e44666c6d -->
<g id="edge3" class="edge"><title>dir_d269712cc31e133b892a3b3f6424741a&#45;&gt;dir_7924ba4398ae4560cd37376e44666c6d</title>
<path fill="none" stroke="black" d="M210,-87.6966C210,-79.9827 210,-70.7125 210,-62.1124"/>
<polygon fill="black" stroke="black" points="213.5,-62.1043 210,-52.1043 206.5,-62.1044 213.5,-62.1043"/>
<g id="a_edge3&#45;headlabel"><a xlink:href="dir_000100_000057.html" target="_top" xlink:title="4">
<text text-anchor="middle" x="216.339" y="-63.199" font-family="Helvetica,sans-Serif" font-size="10.00">4</text>
</a>
</g>
</g>
<!-- dir_d269712cc31e133b892a3b3f6424741a&#45;&gt;dir_2801adc79bf3c286b1b479858d2cade4 -->
<g id="edge2" class="edge"><title>dir_d269712cc31e133b892a3b3f6424741a&#45;&gt;dir_2801adc79bf3c286b1b479858d2cade4</title>
<path fill="none" stroke="black" d="M212.474,-124.104C211.734,-131.876 210.09,-141.257 208.003,-149.949"/>
<polygon fill="black" stroke="black" points="204.599,-149.13 205.376,-159.697 211.358,-150.952 204.599,-149.13"/>
<g id="a_edge2&#45;headlabel"><a xlink:href="dir_000100_000066.html" target="_top" xlink:title="1">
<text text-anchor="middle" x="202.793" y="-142.421" font-family="Helvetica,sans-Serif" font-size="10.00">1</text>
</a>
</g>
</g>
<!-- dir_d269712cc31e133b892a3b3f6424741a&#45;&gt;dir_4ab6b4cc6a7edbff49100e9123df213f -->
<g id="edge1" class="edge"><title>dir_d269712cc31e133b892a3b3f6424741a&#45;&gt;dir_4ab6b4cc6a7edbff49100e9123df213f</title>
<path fill="none" stroke="black" d="M233.001,-124.097C243.382,-131.15 256.177,-138.397 269,-142 297.24,-149.935 307.489,-152.177 335,-142 341.657,-139.537 347.971,-135.496 353.585,-130.993"/>
<polygon fill="black" stroke="black" points="356.097,-133.443 361.267,-124.195 351.459,-128.201 356.097,-133.443"/>
<g id="a_edge1&#45;headlabel"><a xlink:href="dir_000100_000016.html" target="_top" xlink:title="5">
<text text-anchor="middle" x="355.287" y="-135.452" font-family="Helvetica,sans-Serif" font-size="10.00">5</text>
</a>
</g>
</g>
<!-- dir_047746f9f311f49446db9474b7431d0d&#45;&gt;dir_2801adc79bf3c286b1b479858d2cade4 -->
<g id="edge19" class="edge"><title>dir_047746f9f311f49446db9474b7431d0d&#45;&gt;dir_2801adc79bf3c286b1b479858d2cade4</title>
<path fill="none" stroke="black" d="M280.566,-124.044C267.407,-133.577 249.75,-145.547 233.924,-155.693"/>
<polygon fill="black" stroke="black" points="231.936,-152.809 225.36,-161.116 235.681,-158.723 231.936,-152.809"/>
<g id="a_edge19&#45;headlabel"><a xlink:href="dir_000144_000066.html" target="_top" xlink:title="4">
<text text-anchor="middle" x="233.454" y="-145.987" font-family="Helvetica,sans-Serif" font-size="10.00">4</text>
</a>
</g>
</g>
<!-- dir_047746f9f311f49446db9474b7431d0d&#45;&gt;dir_4ab6b4cc6a7edbff49100e9123df213f -->
<g id="edge18" class="edge"><title>dir_047746f9f311f49446db9474b7431d0d&#45;&gt;dir_4ab6b4cc6a7edbff49100e9123df213f</title>
<path fill="none" stroke="black" d="M330.379,-106C333.338,-106 336.298,-106 339.257,-106"/>
<polygon fill="black" stroke="black" points="339.319,-109.5 349.319,-106 339.319,-102.5 339.319,-109.5"/>
<g id="a_edge18&#45;headlabel"><a xlink:href="dir_000144_000016.html" target="_top" xlink:title="1">
<text text-anchor="middle" x="335.724" y="-109.839" font-family="Helvetica,sans-Serif" font-size="10.00">1</text>
</a>
</g>
</g>
<!-- dir_051dca18e802f8e9474f2e30d29c04e0 -->
<g id="node12" class="node"><title>dir_051dca18e802f8e9474f2e30d29c04e0</title>
<g id="a_node12"><a xlink:href="dir_051dca18e802f8e9474f2e30d29c04e0.html" target="_top" xlink:title="Detectors">
<polygon fill="none" stroke="red" points="409.25,-268 350.75,-268 350.75,-232 409.25,-232 409.25,-268"/>
<text text-anchor="middle" x="380" y="-247.5" font-family="Helvetica,sans-Serif" font-size="10.00">Detectors</text>
</a>
</g>
</g>
<!-- dir_047746f9f311f49446db9474b7431d0d&#45;&gt;dir_051dca18e802f8e9474f2e30d29c04e0 -->
<g id="edge20" class="edge"><title>dir_047746f9f311f49446db9474b7431d0d&#45;&gt;dir_051dca18e802f8e9474f2e30d29c04e0</title>
<path fill="none" stroke="black" d="M307.598,-124.094C315.879,-142.284 329.848,-171.729 344,-196 349.323,-205.129 355.653,-214.781 361.509,-223.311"/>
<polygon fill="black" stroke="black" points="358.787,-225.526 367.379,-231.725 364.528,-221.521 358.787,-225.526"/>
<g id="a_edge20&#45;headlabel"><a xlink:href="dir_000144_000028.html" target="_top" xlink:title="1">
<text text-anchor="middle" x="354.402" y="-221.702" font-family="Helvetica,sans-Serif" font-size="10.00">1</text>
</a>
</g>
</g>
<!-- dir_938f0f489a9afdd9521c88acbea7d897 -->
<g id="node10" class="node"><title>dir_938f0f489a9afdd9521c88acbea7d897</title>
<g id="a_node10"><a xlink:href="dir_938f0f489a9afdd9521c88acbea7d897.html" target="_top" xlink:title="TimeFrame">
<polygon fill="white" stroke="red" points="82,-268 16,-268 16,-232 82,-232 82,-268"/>
<text text-anchor="middle" x="49" y="-247.5" font-family="Helvetica,sans-Serif" font-size="10.00">TimeFrame</text>
</a>
</g>
</g>
<!-- dir_938f0f489a9afdd9521c88acbea7d897&#45;&gt;dir_183e7c4434404fe9096e1bd8673e1fcf -->
<g id="edge23" class="edge"><title>dir_938f0f489a9afdd9521c88acbea7d897&#45;&gt;dir_183e7c4434404fe9096e1bd8673e1fcf</title>
<path fill="none" stroke="black" d="M54.9326,-231.697C57.6064,-223.898 60.8256,-214.509 63.8014,-205.829"/>
<polygon fill="black" stroke="black" points="67.2032,-206.699 67.1357,-196.104 60.5815,-204.429 67.2032,-206.699"/>
<g id="a_edge23&#45;headlabel"><a xlink:href="dir_000149_000060.html" target="_top" xlink:title="2">
<text text-anchor="middle" x="68.7232" y="-208.52" font-family="Helvetica,sans-Serif" font-size="10.00">2</text>
</a>
</g>
</g>
<!-- dir_4ab6b4cc6a7edbff49100e9123df213f&#45;&gt;dir_2801adc79bf3c286b1b479858d2cade4 -->
<g id="edge5" class="edge"><title>dir_4ab6b4cc6a7edbff49100e9123df213f&#45;&gt;dir_2801adc79bf3c286b1b479858d2cade4</title>
<path fill="none" stroke="black" d="M352.737,-124.113C307.982,-143.249 294.842,-143.216 249,-160 244.525,-161.638 239.812,-163.41 235.093,-165.17"/>
<polygon fill="black" stroke="black" points="233.645,-161.974 225.476,-168.72 236.069,-168.541 233.645,-161.974"/>
<g id="a_edge5&#45;headlabel"><a xlink:href="dir_000016_000066.html" target="_top" xlink:title="1">
<text text-anchor="middle" x="236.035" y="-155.565" font-family="Helvetica,sans-Serif" font-size="10.00">1</text>
</a>
</g>
</g>
<!-- dir_4ab6b4cc6a7edbff49100e9123df213f&#45;&gt;dir_d269712cc31e133b892a3b3f6424741a -->
<g id="edge4" class="edge"><title>dir_4ab6b4cc6a7edbff49100e9123df213f&#45;&gt;dir_d269712cc31e133b892a3b3f6424741a</title>
<path fill="none" stroke="black" d="M361.267,-124.195C354.056,-131.173 344.908,-138.335 335,-142 307.489,-152.177 297.24,-149.935 269,-142 259.483,-139.326 249.982,-134.645 241.471,-129.525"/>
<polygon fill="black" stroke="black" points="243.309,-126.546 233.001,-124.097 239.532,-132.44 243.309,-126.546"/>
<g id="a_edge4&#45;headlabel"><a xlink:href="dir_000016_000100.html" target="_top" xlink:title="1">
<text text-anchor="middle" x="247.868" y="-123.595" font-family="Helvetica,sans-Serif" font-size="10.00">1</text>
</a>
</g>
</g>
<!-- dir_051dca18e802f8e9474f2e30d29c04e0&#45;&gt;dir_7924ba4398ae4560cd37376e44666c6d -->
<g id="edge16" class="edge"><title>dir_051dca18e802f8e9474f2e30d29c04e0&#45;&gt;dir_7924ba4398ae4560cd37376e44666c6d</title>
<path fill="none" stroke="black" d="M391.435,-231.973C411.182,-200.24 446.489,-131.355 413,-88 392.908,-61.9889 300.26,-46.3121 247.339,-39.3257"/>
<polygon fill="black" stroke="black" points="247.681,-35.8411 237.318,-38.0438 246.793,-42.7845 247.681,-35.8411"/>
<g id="a_edge16&#45;headlabel"><a xlink:href="dir_000028_000057.html" target="_top" xlink:title="7">
<text text-anchor="middle" x="251.607" y="-30.9807" font-family="Helvetica,sans-Serif" font-size="10.00">7</text>
</a>
</g>
</g>
<!-- dir_051dca18e802f8e9474f2e30d29c04e0&#45;&gt;dir_2801adc79bf3c286b1b479858d2cade4 -->
<g id="edge12" class="edge"><title>dir_051dca18e802f8e9474f2e30d29c04e0&#45;&gt;dir_2801adc79bf3c286b1b479858d2cade4</title>
<path fill="none" stroke="black" d="M350.635,-234.848C348.401,-233.859 346.171,-232.899 344,-232 307.638,-216.946 265.282,-202.035 235.222,-191.882"/>
<polygon fill="black" stroke="black" points="236.119,-188.492 225.525,-188.629 233.892,-195.128 236.119,-188.492"/>
<g id="a_edge12&#45;headlabel"><a xlink:href="dir_000028_000066.html" target="_top" xlink:title="115">
<text text-anchor="middle" x="240.43" y="-184.444" font-family="Helvetica,sans-Serif" font-size="10.00">115</text>
</a>
</g>
</g>
<!-- dir_051dca18e802f8e9474f2e30d29c04e0&#45;&gt;dir_183e7c4434404fe9096e1bd8673e1fcf -->
<g id="edge13" class="edge"><title>dir_051dca18e802f8e9474f2e30d29c04e0&#45;&gt;dir_183e7c4434404fe9096e1bd8673e1fcf</title>
<path fill="none" stroke="black" d="M350.376,-234.308C348.242,-233.467 346.102,-232.687 344,-232 263.545,-205.723 240.034,-212.394 157,-196 141.73,-192.985 124.913,-189.595 110.364,-186.641"/>
<polygon fill="black" stroke="black" points="110.722,-183.142 100.225,-184.578 109.326,-190.001 110.722,-183.142"/>
<g id="a_edge13&#45;headlabel"><a xlink:href="dir_000028_000060.html" target="_top" xlink:title="5">
<text text-anchor="middle" x="114.81" y="-178.576" font-family="Helvetica,sans-Serif" font-size="10.00">5</text>
</a>
</g>
</g>
<!-- dir_051dca18e802f8e9474f2e30d29c04e0&#45;&gt;dir_d462256f2f72f303235b8fb5b5a9f479 -->
<g id="edge15" class="edge"><title>dir_051dca18e802f8e9474f2e30d29c04e0&#45;&gt;dir_d462256f2f72f303235b8fb5b5a9f479</title>
<path fill="none" stroke="black" d="M367.213,-268.04C359.201,-277.721 347.951,-288.721 335,-294 273.677,-318.998 248.182,-316.778 186,-294 175.118,-290.014 164.947,-282.631 156.537,-275.037"/>
<polygon fill="black" stroke="black" points="158.967,-272.518 149.34,-268.095 154.108,-277.557 158.967,-272.518"/>
<g id="a_edge15&#45;headlabel"><a xlink:href="dir_000028_000134.html" target="_top" xlink:title="2">
<text text-anchor="middle" x="163.525" y="-270.47" font-family="Helvetica,sans-Serif" font-size="10.00">2</text>
</a>
</g>
</g>
<!-- dir_051dca18e802f8e9474f2e30d29c04e0&#45;&gt;dir_d269712cc31e133b892a3b3f6424741a -->
<g id="edge10" class="edge"><title>dir_051dca18e802f8e9474f2e30d29c04e0&#45;&gt;dir_d269712cc31e133b892a3b3f6424741a</title>
<path fill="none" stroke="black" d="M359.494,-231.871C329.244,-206.604 272.558,-159.254 238.348,-130.679"/>
<polygon fill="black" stroke="black" points="240.497,-127.914 230.579,-124.189 236.01,-133.286 240.497,-127.914"/>
<g id="a_edge10&#45;headlabel"><a xlink:href="dir_000028_000100.html" target="_top" xlink:title="9">
<text text-anchor="middle" x="245.076" y="-125.539" font-family="Helvetica,sans-Serif" font-size="10.00">9</text>
</a>
</g>
</g>
<!-- dir_051dca18e802f8e9474f2e30d29c04e0&#45;&gt;dir_047746f9f311f49446db9474b7431d0d -->
<g id="edge14" class="edge"><title>dir_051dca18e802f8e9474f2e30d29c04e0&#45;&gt;dir_047746f9f311f49446db9474b7431d0d</title>
<path fill="none" stroke="black" d="M374.826,-231.87C368.852,-213.391 358.022,-183.465 344,-160 338.143,-150.198 330.533,-140.334 323.294,-131.819"/>
<polygon fill="black" stroke="black" points="325.761,-129.324 316.536,-124.114 320.499,-133.94 325.761,-129.324"/>
<g id="a_edge14&#45;headlabel"><a xlink:href="dir_000028_000144.html" target="_top" xlink:title="107">
<text text-anchor="middle" x="330.266" y="-127.654" font-family="Helvetica,sans-Serif" font-size="10.00">107</text>
</a>
</g>
</g>
<!-- dir_051dca18e802f8e9474f2e30d29c04e0&#45;&gt;dir_4ab6b4cc6a7edbff49100e9123df213f -->
<g id="edge11" class="edge"><title>dir_051dca18e802f8e9474f2e30d29c04e0&#45;&gt;dir_4ab6b4cc6a7edbff49100e9123df213f</title>
<path fill="none" stroke="black" d="M381.087,-231.929C382.064,-214.007 383.177,-185.01 382,-160 381.607,-151.655 380.868,-142.596 380.077,-134.367"/>
<polygon fill="black" stroke="black" points="383.532,-133.748 379.031,-124.157 376.569,-134.462 383.532,-133.748"/>
<g id="a_edge11&#45;headlabel"><a xlink:href="dir_000028_000016.html" target="_top" xlink:title="60">
<text text-anchor="middle" x="386.723" y="-134.534" font-family="Helvetica,sans-Serif" font-size="10.00">60</text>
</a>
</g>
</g>
</g>
</svg>
