<?xml version="1.0" encoding="UTF-8" standalone="no"?>
<!DOCTYPE svg PUBLIC "-//W3C//DTD SVG 1.1//EN"
 "http://www.w3.org/Graphics/SVG/1.1/DTD/svg11.dtd">
<!-- Generated by graphviz version 2.36.0 (20140111.2315)
 -->
<!-- Title: /home/travis/build/AliceO2Group/AliceO2/Framework Pages: 1 -->
<svg width="496pt" height="348pt"
 viewBox="0.00 0.00 496.00 348.00" xmlns="http://www.w3.org/2000/svg" xmlns:xlink="http://www.w3.org/1999/xlink">
<g id="graph0" class="graph" transform="scale(1 1) rotate(0) translate(4 344)">
<title>/home/travis/build/AliceO2Group/AliceO2/Framework</title>
<g id="clust1" class="cluster"><title>clusterdir_bcbb2cf9a3d3d83e5515c82071a07177</title>
<g id="a_clust1"><a xlink:href="dir_bcbb2cf9a3d3d83e5515c82071a07177.html" target="_top">
<polygon fill="#eeeeff" stroke="black" points="8,-136 8,-332 348,-332 348,-136 8,-136"/>
</a>
</g>
</g>
<!-- dir_bcbb2cf9a3d3d83e5515c82071a07177 -->
<g id="node1" class="node"><title>dir_bcbb2cf9a3d3d83e5515c82071a07177</title>
<text text-anchor="middle" x="307" y="-303.5" font-family="Helvetica,sans-Serif" font-size="10.00">Framework</text>
</g>
<!-- dir_b315c7ac2f7d253010ed820f5520e66b -->
<g id="node2" class="node"><title>dir_b315c7ac2f7d253010ed820f5520e66b</title>
<g id="a_node2"><a xlink:href="dir_b315c7ac2f7d253010ed820f5520e66b.html" target="_top" xlink:title="ArrowTests">
<polygon fill="white" stroke="red" points="256.25,-324 189.75,-324 189.75,-288 256.25,-288 256.25,-324"/>
<text text-anchor="middle" x="223" y="-303.5" font-family="Helvetica,sans-Serif" font-size="10.00">ArrowTests</text>
</a>
</g>
</g>
<!-- dir_9f165b2481dacfe69aa54d326bd5cd47 -->
<g id="node3" class="node"><title>dir_9f165b2481dacfe69aa54d326bd5cd47</title>
<g id="a_node3"><a xlink:href="dir_9f165b2481dacfe69aa54d326bd5cd47.html" target="_top" xlink:title="Core">
<polygon fill="white" stroke="red" points="170,-252 116,-252 116,-216 170,-216 170,-252"/>
<text text-anchor="middle" x="143" y="-231.5" font-family="Helvetica,sans-Serif" font-size="10.00">Core</text>
</a>
</g>
</g>
<!-- dir_f0af9df59806ed8bcb6931e6b1774828 -->
<g id="node4" class="node"><title>dir_f0af9df59806ed8bcb6931e6b1774828</title>
<g id="a_node4"><a xlink:href="dir_f0af9df59806ed8bcb6931e6b1774828.html" target="_top" xlink:title="DebugGUI">
<polygon fill="white" stroke="red" points="174.25,-180 111.75,-180 111.75,-144 174.25,-144 174.25,-180"/>
<text text-anchor="middle" x="143" y="-159.5" font-family="Helvetica,sans-Serif" font-size="10.00">DebugGUI</text>
</a>
</g>
</g>
<!-- dir_9f165b2481dacfe69aa54d326bd5cd47&#45;&gt;dir_f0af9df59806ed8bcb6931e6b1774828 -->
<g id="edge8" class="edge"><title>dir_9f165b2481dacfe69aa54d326bd5cd47&#45;&gt;dir_f0af9df59806ed8bcb6931e6b1774828</title>
<path fill="none" stroke="black" d="M143,-215.697C143,-207.983 143,-198.712 143,-190.112"/>
<polygon fill="black" stroke="black" points="146.5,-190.104 143,-180.104 139.5,-190.104 146.5,-190.104"/>
<g id="a_edge8&#45;headlabel"><a xlink:href="dir_000370_000375.html" target="_top" xlink:title="3">
<text text-anchor="middle" x="149.339" y="-191.199" font-family="Helvetica,sans-Serif" font-size="10.00">3</text>
</a>
</g>
</g>
<!-- dir_2171f7ec022c5423887b07c69b2f5b48 -->
<g id="node10" class="node"><title>dir_2171f7ec022c5423887b07c69b2f5b48</title>
<g id="a_node10"><a xlink:href="dir_2171f7ec022c5423887b07c69b2f5b48.html" target="_top" xlink:title="DataFormats">
<polygon fill="none" stroke="red" points="430,-252 356,-252 356,-216 430,-216 430,-252"/>
<text text-anchor="middle" x="393" y="-231.5" font-family="Helvetica,sans-Serif" font-size="10.00">DataFormats</text>
</a>
</g>
</g>
<!-- dir_9f165b2481dacfe69aa54d326bd5cd47&#45;&gt;dir_2171f7ec022c5423887b07c69b2f5b48 -->
<g id="edge9" class="edge"><title>dir_9f165b2481dacfe69aa54d326bd5cd47&#45;&gt;dir_2171f7ec022c5423887b07c69b2f5b48</title>
<path fill="none" stroke="black" d="M170.344,-234C228.719,-234 287.094,-234 345.469,-234"/>
<polygon fill="black" stroke="black" points="345.601,-237.5 355.601,-234 345.601,-230.5 345.601,-237.5"/>
<g id="a_edge9&#45;headlabel"><a xlink:href="dir_000370_000056.html" target="_top" xlink:title="17">
<text text-anchor="middle" x="342.006" y="-237.839" font-family="Helvetica,sans-Serif" font-size="10.00">17</text>
</a>
</g>
</g>
<!-- dir_a8f73827fca2a0188d35dc47dc5b0ea3 -->
<g id="node5" class="node"><title>dir_a8f73827fca2a0188d35dc47dc5b0ea3</title>
<g id="a_node5"><a xlink:href="dir_a8f73827fca2a0188d35dc47dc5b0ea3.html" target="_top" xlink:title="TestWorkflows">
<polygon fill="white" stroke="red" points="171.25,-324 88.75,-324 88.75,-288 171.25,-288 171.25,-324"/>
<text text-anchor="middle" x="130" y="-303.5" font-family="Helvetica,sans-Serif" font-size="10.00">TestWorkflows</text>
</a>
</g>
</g>
<!-- dir_a8f73827fca2a0188d35dc47dc5b0ea3&#45;&gt;dir_9f165b2481dacfe69aa54d326bd5cd47 -->
<g id="edge3" class="edge"><title>dir_a8f73827fca2a0188d35dc47dc5b0ea3&#45;&gt;dir_9f165b2481dacfe69aa54d326bd5cd47</title>
<path fill="none" stroke="black" d="M133.213,-287.697C134.646,-279.983 136.368,-270.712 137.965,-262.112"/>
<polygon fill="black" stroke="black" points="141.439,-262.575 139.823,-252.104 134.556,-261.297 141.439,-262.575"/>
<g id="a_edge3&#45;headlabel"><a xlink:href="dir_000367_000370.html" target="_top" xlink:title="65">
<text text-anchor="middle" x="143.574" y="-264.128" font-family="Helvetica,sans-Serif" font-size="10.00">65</text>
</a>
</g>
</g>
<!-- dir_0b342c6c6b7d2278121a0bb9c4985063 -->
<g id="node7" class="node"><title>dir_0b342c6c6b7d2278121a0bb9c4985063</title>
<g id="a_node7"><a xlink:href="dir_0b342c6c6b7d2278121a0bb9c4985063.html" target="_top" xlink:title="Generators">
<polygon fill="none" stroke="red" points="415.25,-108 350.75,-108 350.75,-72 415.25,-72 415.25,-108"/>
<text text-anchor="middle" x="383" y="-87.5" font-family="Helvetica,sans-Serif" font-size="10.00">Generators</text>
</a>
</g>
</g>
<!-- dir_a8f73827fca2a0188d35dc47dc5b0ea3&#45;&gt;dir_0b342c6c6b7d2278121a0bb9c4985063 -->
<g id="edge1" class="edge"><title>dir_a8f73827fca2a0188d35dc47dc5b0ea3&#45;&gt;dir_0b342c6c6b7d2278121a0bb9c4985063</title>
<path fill="none" stroke="black" d="M171.295,-290.286C174.223,-289.451 177.145,-288.677 180,-288 236.54,-274.587 400.844,-295.826 439,-252 454.975,-233.651 437.169,-162.438 424,-136 420.355,-128.683 415.171,-121.68 409.709,-115.469"/>
<polygon fill="black" stroke="black" points="412.14,-112.945 402.738,-108.061 407.042,-117.742 412.14,-112.945"/>
<g id="a_edge1&#45;headlabel"><a xlink:href="dir_000367_000384.html" target="_top" xlink:title="1">
<text text-anchor="middle" x="416.671" y="-111.117" font-family="Helvetica,sans-Serif" font-size="10.00">1</text>
</a>
</g>
</g>
<!-- dir_4ab6b4cc6a7edbff49100e9123df213f -->
<g id="node8" class="node"><title>dir_4ab6b4cc6a7edbff49100e9123df213f</title>
<g id="a_node8"><a xlink:href="dir_4ab6b4cc6a7edbff49100e9123df213f.html" target="_top" xlink:title="Common">
<polygon fill="none" stroke="red" points="480.5,-36 425.5,-36 425.5,-0 480.5,-0 480.5,-36"/>
<text text-anchor="middle" x="453" y="-15.5" font-family="Helvetica,sans-Serif" font-size="10.00">Common</text>
</a>
</g>
</g>
<!-- dir_a8f73827fca2a0188d35dc47dc5b0ea3&#45;&gt;dir_4ab6b4cc6a7edbff49100e9123df213f -->
<g id="edge2" class="edge"><title>dir_a8f73827fca2a0188d35dc47dc5b0ea3&#45;&gt;dir_4ab6b4cc6a7edbff49100e9123df213f</title>
<path fill="none" stroke="black" d="M171.288,-290.257C174.218,-289.429 177.142,-288.665 180,-288 240.46,-273.94 414.131,-296.892 457,-252 510.344,-196.138 481.898,-94.0055 463.987,-45.6877"/>
<polygon fill="black" stroke="black" points="467.208,-44.3126 460.358,-36.2301 460.672,-46.8202 467.208,-44.3126"/>
<g id="a_edge2&#45;headlabel"><a xlink:href="dir_000367_000016.html" target="_top" xlink:title="2">
<text text-anchor="middle" x="471.146" y="-44.1515" font-family="Helvetica,sans-Serif" font-size="10.00">2</text>
</a>
</g>
</g>
<!-- dir_051dca18e802f8e9474f2e30d29c04e0 -->
<g id="node9" class="node"><title>dir_051dca18e802f8e9474f2e30d29c04e0</title>
<g id="a_node9"><a xlink:href="dir_051dca18e802f8e9474f2e30d29c04e0.html" target="_top" xlink:title="Detectors">
<polygon fill="none" stroke="red" points="415.25,-180 356.75,-180 356.75,-144 415.25,-144 415.25,-180"/>
<text text-anchor="middle" x="386" y="-159.5" font-family="Helvetica,sans-Serif" font-size="10.00">Detectors</text>
</a>
</g>
</g>
<!-- dir_a8f73827fca2a0188d35dc47dc5b0ea3&#45;&gt;dir_051dca18e802f8e9474f2e30d29c04e0 -->
<g id="edge4" class="edge"><title>dir_a8f73827fca2a0188d35dc47dc5b0ea3&#45;&gt;dir_051dca18e802f8e9474f2e30d29c04e0</title>
<path fill="none" stroke="black" d="M171.443,-289.921C204.384,-277.692 247.565,-261.052 264,-252 298.306,-233.105 334.118,-205.955 357.996,-186.619"/>
<polygon fill="black" stroke="black" points="360.4,-189.174 365.922,-180.132 355.967,-183.757 360.4,-189.174"/>
<g id="a_edge4&#45;headlabel"><a xlink:href="dir_000367_000028.html" target="_top" xlink:title="4">
<text text-anchor="middle" x="359.417" y="-191.148" font-family="Helvetica,sans-Serif" font-size="10.00">4</text>
</a>
</g>
</g>
<!-- dir_a8f73827fca2a0188d35dc47dc5b0ea3&#45;&gt;dir_2171f7ec022c5423887b07c69b2f5b48 -->
<g id="edge5" class="edge"><title>dir_a8f73827fca2a0188d35dc47dc5b0ea3&#45;&gt;dir_2171f7ec022c5423887b07c69b2f5b48</title>
<path fill="none" stroke="black" d="M171.351,-290.509C174.266,-289.62 177.17,-288.774 180,-288 252.096,-268.277 275.387,-274.451 345.79,-253.798"/>
<polygon fill="black" stroke="black" points="347.003,-257.088 355.566,-250.849 344.982,-250.386 347.003,-257.088"/>
<g id="a_edge5&#45;headlabel"><a xlink:href="dir_000367_000056.html" target="_top" xlink:title="2">
<text text-anchor="middle" x="344.382" y="-258.344" font-family="Helvetica,sans-Serif" font-size="10.00">2</text>
</a>
</g>
</g>
<!-- dir_86f64936653d09622c529b3cc7c8edcd -->
<g id="node6" class="node"><title>dir_86f64936653d09622c529b3cc7c8edcd</title>
<g id="a_node6"><a xlink:href="dir_86f64936653d09622c529b3cc7c8edcd.html" target="_top" xlink:title="Utils">
<polygon fill="white" stroke="red" points="70,-324 16,-324 16,-288 70,-288 70,-324"/>
<text text-anchor="middle" x="43" y="-303.5" font-family="Helvetica,sans-Serif" font-size="10.00">Utils</text>
</a>
</g>
</g>
<!-- dir_86f64936653d09622c529b3cc7c8edcd&#45;&gt;dir_9f165b2481dacfe69aa54d326bd5cd47 -->
<g id="edge15" class="edge"><title>dir_86f64936653d09622c529b3cc7c8edcd&#45;&gt;dir_9f165b2481dacfe69aa54d326bd5cd47</title>
<path fill="none" stroke="black" d="M67.4628,-287.876C80.2956,-278.893 96.1964,-267.763 110.094,-258.034"/>
<polygon fill="black" stroke="black" points="112.258,-260.792 118.443,-252.19 108.244,-255.057 112.258,-260.792"/>
<g id="a_edge15&#45;headlabel"><a xlink:href="dir_000038_000370.html" target="_top" xlink:title="49">
<text text-anchor="middle" x="110.941" y="-262.679" font-family="Helvetica,sans-Serif" font-size="10.00">49</text>
</a>
</g>
</g>
<!-- dir_86f64936653d09622c529b3cc7c8edcd&#45;&gt;dir_2171f7ec022c5423887b07c69b2f5b48 -->
<g id="edge16" class="edge"><title>dir_86f64936653d09622c529b3cc7c8edcd&#45;&gt;dir_2171f7ec022c5423887b07c69b2f5b48</title>
<path fill="none" stroke="black" d="M70.1727,-291.1C73.1043,-289.924 76.0825,-288.858 79,-288 193.197,-254.401 231.691,-282.103 345.794,-253.514"/>
<polygon fill="black" stroke="black" points="346.801,-256.869 355.6,-250.967 345.041,-250.094 346.801,-256.869"/>
<g id="a_edge16&#45;headlabel"><a xlink:href="dir_000038_000056.html" target="_top" xlink:title="3">
<text text-anchor="middle" x="344.036" y="-258.02" font-family="Helvetica,sans-Serif" font-size="10.00">3</text>
</a>
</g>
</g>
<!-- dir_0b342c6c6b7d2278121a0bb9c4985063&#45;&gt;dir_4ab6b4cc6a7edbff49100e9123df213f -->
<g id="edge6" class="edge"><title>dir_0b342c6c6b7d2278121a0bb9c4985063&#45;&gt;dir_4ab6b4cc6a7edbff49100e9123df213f</title>
<path fill="none" stroke="black" d="M400.303,-71.6966C408.865,-63.135 419.344,-52.6562 428.696,-43.3045"/>
<polygon fill="black" stroke="black" points="431.299,-45.6503 435.896,-36.1043 426.35,-40.7005 431.299,-45.6503"/>
<g id="a_edge6&#45;headlabel"><a xlink:href="dir_000384_000016.html" target="_top" xlink:title="1">
<text text-anchor="middle" x="430.765" y="-47.6997" font-family="Helvetica,sans-Serif" font-size="10.00">1</text>
</a>
</g>
</g>
<!-- dir_4ab6b4cc6a7edbff49100e9123df213f&#45;&gt;dir_2171f7ec022c5423887b07c69b2f5b48 -->
<g id="edge7" class="edge"><title>dir_4ab6b4cc6a7edbff49100e9123df213f&#45;&gt;dir_2171f7ec022c5423887b07c69b2f5b48</title>
<path fill="none" stroke="black" d="M457.299,-36.4418C458.466,-66.5621 451.496,-129.912 433,-180 429.547,-189.351 424.48,-198.943 419,-207.352"/>
<polygon fill="black" stroke="black" points="416.072,-205.431 413.191,-215.626 421.801,-209.453 416.072,-205.431"/>
<g id="a_edge7&#45;headlabel"><a xlink:href="dir_000016_000056.html" target="_top" xlink:title="2">
<text text-anchor="middle" x="415.814" y="-198.358" font-family="Helvetica,sans-Serif" font-size="10.00">2</text>
</a>
</g>
</g>
<!-- dir_051dca18e802f8e9474f2e30d29c04e0&#45;&gt;dir_9f165b2481dacfe69aa54d326bd5cd47 -->
<g id="edge12" class="edge"><title>dir_051dca18e802f8e9474f2e30d29c04e0&#45;&gt;dir_9f165b2481dacfe69aa54d326bd5cd47</title>
<path fill="none" stroke="black" d="M356.498,-178.22C354.99,-178.85 353.485,-179.448 352,-180 293.494,-201.755 222.531,-217.656 180.162,-226.099"/>
<polygon fill="black" stroke="black" points="179.428,-222.676 170.288,-228.034 180.775,-229.545 179.428,-222.676"/>
<g id="a_edge12&#45;headlabel"><a xlink:href="dir_000028_000370.html" target="_top" xlink:title="12">
<text text-anchor="middle" x="182.409" y="-216.698" font-family="Helvetica,sans-Serif" font-size="10.00">12</text>
</a>
</g>
</g>
<!-- dir_051dca18e802f8e9474f2e30d29c04e0&#45;&gt;dir_86f64936653d09622c529b3cc7c8edcd -->
<g id="edge13" class="edge"><title>dir_051dca18e802f8e9474f2e30d29c04e0&#45;&gt;dir_86f64936653d09622c529b3cc7c8edcd</title>
<path fill="none" stroke="black" d="M356.394,-177.967C354.913,-178.664 353.442,-179.346 352,-180 313.519,-197.461 303.012,-199.76 264,-216 226.124,-231.767 217.204,-237.046 179,-252 137.762,-268.141 124.3,-269.745 79.4159,-288.023"/>
<polygon fill="black" stroke="black" points="77.9096,-284.858 70.0024,-291.91 80.5813,-291.328 77.9096,-284.858"/>
<g id="a_edge13&#45;headlabel"><a xlink:href="dir_000028_000038.html" target="_top" xlink:title="2">
<text text-anchor="middle" x="80.1484" y="-278.362" font-family="Helvetica,sans-Serif" font-size="10.00">2</text>
</a>
</g>
</g>
<!-- dir_051dca18e802f8e9474f2e30d29c04e0&#45;&gt;dir_0b342c6c6b7d2278121a0bb9c4985063 -->
<g id="edge10" class="edge"><title>dir_051dca18e802f8e9474f2e30d29c04e0&#45;&gt;dir_0b342c6c6b7d2278121a0bb9c4985063</title>
<path fill="none" stroke="black" d="M385.258,-143.697C384.928,-135.983 384.531,-126.712 384.162,-118.112"/>
<polygon fill="black" stroke="black" points="387.658,-117.945 383.733,-108.104 380.665,-118.245 387.658,-117.945"/>
<g id="a_edge10&#45;headlabel"><a xlink:href="dir_000028_000384.html" target="_top" xlink:title="1">
<text text-anchor="middle" x="390.649" y="-118.915" font-family="Helvetica,sans-Serif" font-size="10.00">1</text>
</a>
</g>
</g>
<!-- dir_051dca18e802f8e9474f2e30d29c04e0&#45;&gt;dir_4ab6b4cc6a7edbff49100e9123df213f -->
<g id="edge11" class="edge"><title>dir_051dca18e802f8e9474f2e30d29c04e0&#45;&gt;dir_4ab6b4cc6a7edbff49100e9123df213f</title>
<path fill="none" stroke="black" d="M366.522,-143.738C348.275,-125.407 325.904,-95.8451 341,-72 357.253,-46.3273 389.668,-32.8497 415.461,-25.9254"/>
<polygon fill="black" stroke="black" points="416.453,-29.2858 425.33,-23.5011 414.783,-22.4879 416.453,-29.2858"/>
<g id="a_edge11&#45;headlabel"><a xlink:href="dir_000028_000016.html" target="_top" xlink:title="60">
<text text-anchor="middle" x="413.64" y="-30.4006" font-family="Helvetica,sans-Serif" font-size="10.00">60</text>
</a>
</g>
</g>
<!-- dir_051dca18e802f8e9474f2e30d29c04e0&#45;&gt;dir_2171f7ec022c5423887b07c69b2f5b48 -->
<g id="edge14" class="edge"><title>dir_051dca18e802f8e9474f2e30d29c04e0&#45;&gt;dir_2171f7ec022c5423887b07c69b2f5b48</title>
<path fill="none" stroke="black" d="M393.605,-180.104C395.18,-187.791 396.342,-197.054 396.871,-205.665"/>
<polygon fill="black" stroke="black" points="393.373,-205.811 397.185,-215.697 400.37,-205.592 393.373,-205.811"/>
<g id="a_edge14&#45;headlabel"><a xlink:href="dir_000028_000056.html" target="_top" xlink:title="245">
<text text-anchor="middle" x="390.423" y="-199.808" font-family="Helvetica,sans-Serif" font-size="10.00">245</text>
</a>
</g>
</g>
<!-- dir_2171f7ec022c5423887b07c69b2f5b48&#45;&gt;dir_4ab6b4cc6a7edbff49100e9123df213f -->
<g id="edge17" class="edge"><title>dir_2171f7ec022c5423887b07c69b2f5b48&#45;&gt;dir_4ab6b4cc6a7edbff49100e9123df213f</title>
<path fill="none" stroke="black" d="M397.337,-215.626C402.765,-205.636 410.347,-192.6 415,-180 431.617,-134.999 438.931,-79.2932 444.569,-46.5987"/>
<polygon fill="black" stroke="black" points="448.071,-46.9086 446.428,-36.4418 441.185,-45.6483 448.071,-46.9086"/>
<g id="a_edge17&#45;headlabel"><a xlink:href="dir_000056_000016.html" target="_top" xlink:title="18">
<text text-anchor="middle" x="450.216" y="-48.4556" font-family="Helvetica,sans-Serif" font-size="10.00">18</text>
</a>
</g>
</g>
<!-- dir_2171f7ec022c5423887b07c69b2f5b48&#45;&gt;dir_051dca18e802f8e9474f2e30d29c04e0 -->
<g id="edge18" class="edge"><title>dir_2171f7ec022c5423887b07c69b2f5b48&#45;&gt;dir_051dca18e802f8e9474f2e30d29c04e0</title>
<path fill="none" stroke="black" d="M385.354,-215.697C383.787,-207.983 382.633,-198.712 382.116,-190.112"/>
<polygon fill="black" stroke="black" points="385.614,-189.995 381.815,-180.104 378.617,-190.205 385.614,-189.995"/>
<g id="a_edge18&#45;headlabel"><a xlink:href="dir_000056_000028.html" target="_top" xlink:title="1">
<text text-anchor="middle" x="388.56" y="-191.003" font-family="Helvetica,sans-Serif" font-size="10.00">1</text>
</a>
</g>
</g>
</g>
</svg>
