<?xml version="1.0" encoding="UTF-8" standalone="no"?>
<!DOCTYPE svg PUBLIC "-//W3C//DTD SVG 1.1//EN"
 "http://www.w3.org/Graphics/SVG/1.1/DTD/svg11.dtd">
<!-- Generated by graphviz version 2.36.0 (20140111.2315)
 -->
<!-- Title: /home/travis/build/AliceO2Group/AliceO2/Detectors/MUON Pages: 1 -->
<svg width="254pt" height="303pt"
 viewBox="0.00 0.00 254.00 303.00" xmlns="http://www.w3.org/2000/svg" xmlns:xlink="http://www.w3.org/1999/xlink">
<g id="graph0" class="graph" transform="scale(1 1) rotate(0) translate(4 299)">
<title>/home/travis/build/AliceO2Group/AliceO2/Detectors/MUON</title>
<g id="clust1" class="cluster"><title>clusterdir_051dca18e802f8e9474f2e30d29c04e0</title>
<g id="a_clust1"><a xlink:href="dir_051dca18e802f8e9474f2e30d29c04e0.html" target="_top" xlink:title="Detectors">
<polygon fill="#ddddee" stroke="black" points="8,-200 8,-287 238,-287 238,-200 8,-200"/>
<text text-anchor="middle" x="123" y="-275" font-family="Helvetica,sans-Serif" font-size="10.00">Detectors</text>
</a>
</g>
</g>
<g id="clust2" class="cluster"><title>clusterdir_1cc233fd3b1202b9dad36810b41b97af</title>
<g id="a_clust2"><a xlink:href="dir_1cc233fd3b1202b9dad36810b41b97af.html" target="_top">
<polygon fill="#eeeeff" stroke="black" points="16,-208 16,-260 230,-260 230,-208 16,-208"/>
</a>
</g>
</g>
<!-- dir_1cc233fd3b1202b9dad36810b41b97af -->
<g id="node1" class="node"><title>dir_1cc233fd3b1202b9dad36810b41b97af</title>
<text text-anchor="middle" x="195" y="-231.5" font-family="Helvetica,sans-Serif" font-size="10.00">MUON</text>
</g>
<!-- dir_061f7088060f41729027f6c2fce0273e -->
<g id="node2" class="node"><title>dir_061f7088060f41729027f6c2fce0273e</title>
<g id="a_node2"><a xlink:href="dir_061f7088060f41729027f6c2fce0273e.html" target="_top" xlink:title="MCH">
<polygon fill="white" stroke="red" points="78,-252 24,-252 24,-216 78,-216 78,-252"/>
<text text-anchor="middle" x="51" y="-231.5" font-family="Helvetica,sans-Serif" font-size="10.00">MCH</text>
</a>
</g>
</g>
<!-- dir_4ab6b4cc6a7edbff49100e9123df213f -->
<g id="node4" class="node"><title>dir_4ab6b4cc6a7edbff49100e9123df213f</title>
<g id="a_node4"><a xlink:href="dir_4ab6b4cc6a7edbff49100e9123df213f.html" target="_top" xlink:title="Common">
<polygon fill="none" stroke="red" points="151.5,-180 96.5,-180 96.5,-144 151.5,-144 151.5,-180"/>
<text text-anchor="middle" x="124" y="-159.5" font-family="Helvetica,sans-Serif" font-size="10.00">Common</text>
</a>
</g>
</g>
<!-- dir_061f7088060f41729027f6c2fce0273e&#45;&gt;dir_4ab6b4cc6a7edbff49100e9123df213f -->
<g id="edge7" class="edge"><title>dir_061f7088060f41729027f6c2fce0273e&#45;&gt;dir_4ab6b4cc6a7edbff49100e9123df213f</title>
<path fill="none" stroke="black" d="M69.0449,-215.697C78.0619,-207.05 89.1179,-196.449 98.9432,-187.027"/>
<polygon fill="black" stroke="black" points="101.367,-189.552 106.163,-180.104 96.5223,-184.499 101.367,-189.552"/>
<g id="a_edge7&#45;headlabel"><a xlink:href="dir_000138_000016.html" target="_top" xlink:title="1">
<text text-anchor="middle" x="100.738" y="-191.589" font-family="Helvetica,sans-Serif" font-size="10.00">1</text>
</a>
</g>
</g>
<!-- dir_b05a5fa85f84bfc9013183c9d87f9a36 -->
<g id="node5" class="node"><title>dir_b05a5fa85f84bfc9013183c9d87f9a36</title>
<g id="a_node5"><a xlink:href="dir_b05a5fa85f84bfc9013183c9d87f9a36.html" target="_top" xlink:title="Utilities">
<polygon fill="none" stroke="red" points="78,-180 24,-180 24,-144 78,-144 78,-180"/>
<text text-anchor="middle" x="51" y="-159.5" font-family="Helvetica,sans-Serif" font-size="10.00">Utilities</text>
</a>
</g>
</g>
<!-- dir_061f7088060f41729027f6c2fce0273e&#45;&gt;dir_b05a5fa85f84bfc9013183c9d87f9a36 -->
<g id="edge8" class="edge"><title>dir_061f7088060f41729027f6c2fce0273e&#45;&gt;dir_b05a5fa85f84bfc9013183c9d87f9a36</title>
<path fill="none" stroke="black" d="M51,-215.697C51,-207.983 51,-198.712 51,-190.112"/>
<polygon fill="black" stroke="black" points="54.5001,-190.104 51,-180.104 47.5001,-190.104 54.5001,-190.104"/>
<g id="a_edge8&#45;headlabel"><a xlink:href="dir_000138_000357.html" target="_top" xlink:title="4">
<text text-anchor="middle" x="57.3393" y="-191.199" font-family="Helvetica,sans-Serif" font-size="10.00">4</text>
</a>
</g>
</g>
<!-- dir_37c90836491b695b472bf98d1be8336b -->
<g id="node6" class="node"><title>dir_37c90836491b695b472bf98d1be8336b</title>
<g id="a_node6"><a xlink:href="dir_37c90836491b695b472bf98d1be8336b.html" target="_top" xlink:title="Base">
<polygon fill="none" stroke="red" points="86,-36 32,-36 32,-0 86,-0 86,-36"/>
<text text-anchor="middle" x="59" y="-15.5" font-family="Helvetica,sans-Serif" font-size="10.00">Base</text>
</a>
</g>
</g>
<!-- dir_061f7088060f41729027f6c2fce0273e&#45;&gt;dir_37c90836491b695b472bf98d1be8336b -->
<g id="edge9" class="edge"><title>dir_061f7088060f41729027f6c2fce0273e&#45;&gt;dir_37c90836491b695b472bf98d1be8336b</title>
<path fill="none" stroke="black" d="M31.9609,-215.837C22.824,-206.3 12.8317,-193.624 8,-180 2.6521,-164.92 7.44545,-159.99 8,-144 9.11178,-111.942 0.743258,-101.643 13,-72 17.3041,-61.5905 24.499,-51.7871 31.9353,-43.5097"/>
<polygon fill="black" stroke="black" points="34.668,-45.7163 39.0524,-36.0712 29.6102,-40.877 34.668,-45.7163"/>
<g id="a_edge9&#45;headlabel"><a xlink:href="dir_000138_000154.html" target="_top" xlink:title="4">
<text text-anchor="middle" x="34.2345" y="-47.7764" font-family="Helvetica,sans-Serif" font-size="10.00">4</text>
</a>
</g>
</g>
<!-- dir_2171f7ec022c5423887b07c69b2f5b48 -->
<g id="node7" class="node"><title>dir_2171f7ec022c5423887b07c69b2f5b48</title>
<g id="a_node7"><a xlink:href="dir_2171f7ec022c5423887b07c69b2f5b48.html" target="_top" xlink:title="DataFormats">
<polygon fill="none" stroke="red" points="96,-108 22,-108 22,-72 96,-72 96,-108"/>
<text text-anchor="middle" x="59" y="-87.5" font-family="Helvetica,sans-Serif" font-size="10.00">DataFormats</text>
</a>
</g>
</g>
<!-- dir_061f7088060f41729027f6c2fce0273e&#45;&gt;dir_2171f7ec022c5423887b07c69b2f5b48 -->
<g id="edge10" class="edge"><title>dir_061f7088060f41729027f6c2fce0273e&#45;&gt;dir_2171f7ec022c5423887b07c69b2f5b48</title>
<path fill="none" stroke="black" d="M35.3901,-215.774C27.6271,-206.03 19.0541,-193.184 15,-180 10.2972,-164.707 9.56718,-159.049 15,-144 18.7542,-133.6 25.5356,-123.8 32.6679,-115.522"/>
<polygon fill="black" stroke="black" points="35.3217,-117.807 39.5263,-108.082 30.1749,-113.062 35.3217,-117.807"/>
<g id="a_edge10&#45;headlabel"><a xlink:href="dir_000138_000056.html" target="_top" xlink:title="3">
<text text-anchor="middle" x="34.9729" y="-119.874" font-family="Helvetica,sans-Serif" font-size="10.00">3</text>
</a>
</g>
</g>
<!-- dir_9e24c537087392bd208449d0b48c466c -->
<g id="node3" class="node"><title>dir_9e24c537087392bd208449d0b48c466c</title>
<g id="a_node3"><a xlink:href="dir_9e24c537087392bd208449d0b48c466c.html" target="_top" xlink:title="MID">
<polygon fill="white" stroke="red" points="150,-252 96,-252 96,-216 150,-216 150,-252"/>
<text text-anchor="middle" x="123" y="-231.5" font-family="Helvetica,sans-Serif" font-size="10.00">MID</text>
</a>
</g>
</g>
<!-- dir_9e24c537087392bd208449d0b48c466c&#45;&gt;dir_4ab6b4cc6a7edbff49100e9123df213f -->
<g id="edge1" class="edge"><title>dir_9e24c537087392bd208449d0b48c466c&#45;&gt;dir_4ab6b4cc6a7edbff49100e9123df213f</title>
<path fill="none" stroke="black" d="M123.247,-215.697C123.357,-207.983 123.49,-198.712 123.613,-190.112"/>
<polygon fill="black" stroke="black" points="127.112,-190.153 123.756,-180.104 120.113,-190.053 127.112,-190.153"/>
<g id="a_edge1&#45;headlabel"><a xlink:href="dir_000119_000016.html" target="_top" xlink:title="3">
<text text-anchor="middle" x="129.9" y="-191.288" font-family="Helvetica,sans-Serif" font-size="10.00">3</text>
</a>
</g>
</g>
<!-- dir_9e24c537087392bd208449d0b48c466c&#45;&gt;dir_2171f7ec022c5423887b07c69b2f5b48 -->
<g id="edge2" class="edge"><title>dir_9e24c537087392bd208449d0b48c466c&#45;&gt;dir_2171f7ec022c5423887b07c69b2f5b48</title>
<path fill="none" stroke="black" d="M139.402,-215.878C155.02,-197.405 174.198,-167.485 160,-144 148.06,-124.251 126.059,-111.499 105.632,-103.466"/>
<polygon fill="black" stroke="black" points="106.686,-100.125 96.092,-99.9957 104.293,-106.703 106.686,-100.125"/>
<g id="a_edge2&#45;headlabel"><a xlink:href="dir_000119_000056.html" target="_top" xlink:title="14">
<text text-anchor="middle" x="111.035" y="-96.1855" font-family="Helvetica,sans-Serif" font-size="10.00">14</text>
</a>
</g>
</g>
<!-- dir_4ab6b4cc6a7edbff49100e9123df213f&#45;&gt;dir_2171f7ec022c5423887b07c69b2f5b48 -->
<g id="edge3" class="edge"><title>dir_4ab6b4cc6a7edbff49100e9123df213f&#45;&gt;dir_2171f7ec022c5423887b07c69b2f5b48</title>
<path fill="none" stroke="black" d="M102.017,-143.697C93.3586,-135.305 83.6635,-125.07 75.5938,-115.861"/>
<polygon fill="black" stroke="black" points="78.136,-113.448 68.9876,-108.104 72.8067,-117.987 78.136,-113.448"/>
<g id="a_edge3&#45;headlabel"><a xlink:href="dir_000016_000056.html" target="_top" xlink:title="2">
<text text-anchor="middle" x="82.6282" y="-111.844" font-family="Helvetica,sans-Serif" font-size="10.00">2</text>
</a>
</g>
</g>
<!-- dir_b05a5fa85f84bfc9013183c9d87f9a36&#45;&gt;dir_2171f7ec022c5423887b07c69b2f5b48 -->
<g id="edge4" class="edge"><title>dir_b05a5fa85f84bfc9013183c9d87f9a36&#45;&gt;dir_2171f7ec022c5423887b07c69b2f5b48</title>
<path fill="none" stroke="black" d="M52.9775,-143.697C53.8591,-135.983 54.9186,-126.712 55.9014,-118.112"/>
<polygon fill="black" stroke="black" points="59.387,-118.437 57.0452,-108.104 52.4323,-117.642 59.387,-118.437"/>
<g id="a_edge4&#45;headlabel"><a xlink:href="dir_000357_000056.html" target="_top" xlink:title="44">
<text text-anchor="middle" x="61.7999" y="-119.831" font-family="Helvetica,sans-Serif" font-size="10.00">44</text>
</a>
</g>
</g>
<!-- dir_37c90836491b695b472bf98d1be8336b&#45;&gt;dir_4ab6b4cc6a7edbff49100e9123df213f -->
<g id="edge5" class="edge"><title>dir_37c90836491b695b472bf98d1be8336b&#45;&gt;dir_4ab6b4cc6a7edbff49100e9123df213f</title>
<path fill="none" stroke="black" d="M78.1639,-36.4281C87.6088,-46.0375 98.3669,-58.6979 105,-72 114.666,-91.3839 119.428,-115.531 121.767,-133.78"/>
<polygon fill="black" stroke="black" points="118.293,-134.213 122.882,-143.763 125.25,-133.436 118.293,-134.213"/>
<g id="a_edge5&#45;headlabel"><a xlink:href="dir_000154_000016.html" target="_top" xlink:title="5">
<text text-anchor="middle" x="115.072" y="-128.456" font-family="Helvetica,sans-Serif" font-size="10.00">5</text>
</a>
</g>
</g>
<!-- dir_37c90836491b695b472bf98d1be8336b&#45;&gt;dir_2171f7ec022c5423887b07c69b2f5b48 -->
<g id="edge6" class="edge"><title>dir_37c90836491b695b472bf98d1be8336b&#45;&gt;dir_2171f7ec022c5423887b07c69b2f5b48</title>
<path fill="none" stroke="black" d="M64.895,-36.1043C65.7005,-43.7913 65.9369,-53.0537 65.604,-61.6651"/>
<polygon fill="black" stroke="black" points="62.1085,-61.4805 64.9157,-71.6966 69.0921,-61.9597 62.1085,-61.4805"/>
<g id="a_edge6&#45;headlabel"><a xlink:href="dir_000154_000056.html" target="_top" xlink:title="5">
<text text-anchor="middle" x="59.5219" y="-55.2" font-family="Helvetica,sans-Serif" font-size="10.00">5</text>
</a>
</g>
</g>
<!-- dir_2171f7ec022c5423887b07c69b2f5b48&#45;&gt;dir_4ab6b4cc6a7edbff49100e9123df213f -->
<g id="edge11" class="edge"><title>dir_2171f7ec022c5423887b07c69b2f5b48&#45;&gt;dir_4ab6b4cc6a7edbff49100e9123df213f</title>
<path fill="none" stroke="black" d="M80.7776,-108.104C89.4193,-116.467 99.1189,-126.694 107.214,-135.92"/>
<polygon fill="black" stroke="black" points="104.696,-138.36 113.848,-143.697 110.021,-133.817 104.696,-138.36"/>
<g id="a_edge11&#45;headlabel"><a xlink:href="dir_000056_000016.html" target="_top" xlink:title="18">
<text text-anchor="middle" x="100.203" y="-134.968" font-family="Helvetica,sans-Serif" font-size="10.00">18</text>
</a>
</g>
</g>
<!-- dir_2171f7ec022c5423887b07c69b2f5b48&#45;&gt;dir_37c90836491b695b472bf98d1be8336b -->
<g id="edge12" class="edge"><title>dir_2171f7ec022c5423887b07c69b2f5b48&#45;&gt;dir_37c90836491b695b472bf98d1be8336b</title>
<path fill="none" stroke="black" d="M53.0843,-71.6966C52.2886,-63.9827 52.0621,-54.7125 52.4047,-46.1124"/>
<polygon fill="black" stroke="black" points="55.8984,-46.3243 53.105,-36.1043 48.9154,-45.8356 55.8984,-46.3243"/>
<g id="a_edge12&#45;headlabel"><a xlink:href="dir_000056_000154.html" target="_top" xlink:title="1">
<text text-anchor="middle" x="58.4799" y="-47.6083" font-family="Helvetica,sans-Serif" font-size="10.00">1</text>
</a>
</g>
</g>
</g>
</svg>
