<?xml version="1.0" encoding="UTF-8" standalone="no"?>
<!DOCTYPE svg PUBLIC "-//W3C//DTD SVG 1.1//EN"
 "http://www.w3.org/Graphics/SVG/1.1/DTD/svg11.dtd">
<!-- Generated by graphviz version 2.36.0 (20140111.2315)
 -->
<!-- Title: /home/travis/build/AliceO2Group/AliceO2/Steer/src Pages: 1 -->
<svg width="163pt" height="367pt"
 viewBox="0.00 0.00 163.00 367.00" xmlns="http://www.w3.org/2000/svg" xmlns:xlink="http://www.w3.org/1999/xlink">
<g id="graph0" class="graph" transform="scale(1 1) rotate(0) translate(4 363)">
<title>/home/travis/build/AliceO2Group/AliceO2/Steer/src</title>
<g id="clust1" class="cluster"><title>clusterdir_40b4a122691869ee86baf7f2711ed718</title>
<g id="a_clust1"><a xlink:href="dir_40b4a122691869ee86baf7f2711ed718.html" target="_top" xlink:title="Steer">
<polygon fill="#ddddee" stroke="black" points="77,-280 77,-351 147,-351 147,-280 77,-280"/>
<text text-anchor="middle" x="112" y="-339" font-family="Helvetica,sans-Serif" font-size="10.00">Steer</text>
</a>
</g>
</g>
<!-- dir_1ae1fa476fa4d5193a25cdc506b38de2 -->
<g id="node1" class="node"><title>dir_1ae1fa476fa4d5193a25cdc506b38de2</title>
<g id="a_node1"><a xlink:href="dir_1ae1fa476fa4d5193a25cdc506b38de2.html" target="_top" xlink:title="src">
<polygon fill="#eeeeff" stroke="black" points="139,-324 85,-324 85,-288 139,-288 139,-324"/>
<text text-anchor="middle" x="112" y="-303.5" font-family="Helvetica,sans-Serif" font-size="10.00">src</text>
</a>
</g>
</g>
<!-- dir_4ab6b4cc6a7edbff49100e9123df213f -->
<g id="node2" class="node"><title>dir_4ab6b4cc6a7edbff49100e9123df213f</title>
<g id="a_node2"><a xlink:href="dir_4ab6b4cc6a7edbff49100e9123df213f.html" target="_top" xlink:title="Common">
<polygon fill="none" stroke="red" points="111.5,-252 56.5,-252 56.5,-216 111.5,-216 111.5,-252"/>
<text text-anchor="middle" x="84" y="-231.5" font-family="Helvetica,sans-Serif" font-size="10.00">Common</text>
</a>
</g>
</g>
<!-- dir_1ae1fa476fa4d5193a25cdc506b38de2&#45;&gt;dir_4ab6b4cc6a7edbff49100e9123df213f -->
<g id="edge6" class="edge"><title>dir_1ae1fa476fa4d5193a25cdc506b38de2&#45;&gt;dir_4ab6b4cc6a7edbff49100e9123df213f</title>
<path fill="none" stroke="black" d="M105.079,-287.697C101.925,-279.813 98.1217,-270.304 94.6186,-261.546"/>
<polygon fill="black" stroke="black" points="97.8054,-260.089 90.8417,-252.104 91.306,-262.689 97.8054,-260.089"/>
<g id="a_edge6&#45;headlabel"><a xlink:href="dir_000394_000016.html" target="_top" xlink:title="1">
<text text-anchor="middle" x="101.777" y="-259.872" font-family="Helvetica,sans-Serif" font-size="10.00">1</text>
</a>
</g>
</g>
<!-- dir_051dca18e802f8e9474f2e30d29c04e0 -->
<g id="node3" class="node"><title>dir_051dca18e802f8e9474f2e30d29c04e0</title>
<g id="a_node3"><a xlink:href="dir_051dca18e802f8e9474f2e30d29c04e0.html" target="_top" xlink:title="Detectors">
<polygon fill="none" stroke="red" points="128.25,-108 69.75,-108 69.75,-72 128.25,-72 128.25,-108"/>
<text text-anchor="middle" x="99" y="-87.5" font-family="Helvetica,sans-Serif" font-size="10.00">Detectors</text>
</a>
</g>
</g>
<!-- dir_1ae1fa476fa4d5193a25cdc506b38de2&#45;&gt;dir_051dca18e802f8e9474f2e30d29c04e0 -->
<g id="edge7" class="edge"><title>dir_1ae1fa476fa4d5193a25cdc506b38de2&#45;&gt;dir_051dca18e802f8e9474f2e30d29c04e0</title>
<path fill="none" stroke="black" d="M115.248,-287.888C117.046,-277.542 119.095,-264.063 120,-252 123.544,-204.774 113.392,-150.192 105.994,-118.249"/>
<polygon fill="black" stroke="black" points="109.35,-117.236 103.614,-108.328 102.543,-118.868 109.35,-117.236"/>
<g id="a_edge7&#45;headlabel"><a xlink:href="dir_000394_000028.html" target="_top" xlink:title="3">
<text text-anchor="middle" x="112.949" y="-117.569" font-family="Helvetica,sans-Serif" font-size="10.00">3</text>
</a>
</g>
</g>
<!-- dir_a1435872ec32250c24e4b9798bc29a35 -->
<g id="node4" class="node"><title>dir_a1435872ec32250c24e4b9798bc29a35</title>
<g id="a_node4"><a xlink:href="dir_a1435872ec32250c24e4b9798bc29a35.html" target="_top" xlink:title="include">
<polygon fill="none" stroke="red" points="126,-36 72,-36 72,-0 126,-0 126,-36"/>
<text text-anchor="middle" x="99" y="-15.5" font-family="Helvetica,sans-Serif" font-size="10.00">include</text>
</a>
</g>
</g>
<!-- dir_1ae1fa476fa4d5193a25cdc506b38de2&#45;&gt;dir_a1435872ec32250c24e4b9798bc29a35 -->
<g id="edge8" class="edge"><title>dir_1ae1fa476fa4d5193a25cdc506b38de2&#45;&gt;dir_a1435872ec32250c24e4b9798bc29a35</title>
<path fill="none" stroke="black" d="M121.477,-287.914C126.553,-277.802 132.303,-264.552 135,-252 151.808,-173.781 161.484,-148.167 137,-72 133.811,-62.0801 128.004,-52.4429 121.873,-44.1672"/>
<polygon fill="black" stroke="black" points="124.418,-41.7434 115.463,-36.0811 118.933,-46.0919 124.418,-41.7434"/>
<g id="a_edge8&#45;headlabel"><a xlink:href="dir_000394_000392.html" target="_top" xlink:title="3">
<text text-anchor="middle" x="128.876" y="-40.2966" font-family="Helvetica,sans-Serif" font-size="10.00">3</text>
</a>
</g>
</g>
<!-- dir_2171f7ec022c5423887b07c69b2f5b48 -->
<g id="node5" class="node"><title>dir_2171f7ec022c5423887b07c69b2f5b48</title>
<g id="a_node5"><a xlink:href="dir_2171f7ec022c5423887b07c69b2f5b48.html" target="_top" xlink:title="DataFormats">
<polygon fill="none" stroke="red" points="74,-180 0,-180 0,-144 74,-144 74,-180"/>
<text text-anchor="middle" x="37" y="-159.5" font-family="Helvetica,sans-Serif" font-size="10.00">DataFormats</text>
</a>
</g>
</g>
<!-- dir_1ae1fa476fa4d5193a25cdc506b38de2&#45;&gt;dir_2171f7ec022c5423887b07c69b2f5b48 -->
<g id="edge9" class="edge"><title>dir_1ae1fa476fa4d5193a25cdc506b38de2&#45;&gt;dir_2171f7ec022c5423887b07c69b2f5b48</title>
<path fill="none" stroke="black" d="M84.8726,-289.901C71.1657,-280.781 55.6453,-267.851 47,-252 36.731,-233.172 34.6247,-208.797 34.8662,-190.317"/>
<polygon fill="black" stroke="black" points="38.3681,-190.326 35.2357,-180.205 31.3728,-190.07 38.3681,-190.326"/>
<g id="a_edge9&#45;headlabel"><a xlink:href="dir_000394_000056.html" target="_top" xlink:title="1">
<text text-anchor="middle" x="41.0743" y="-191.522" font-family="Helvetica,sans-Serif" font-size="10.00">1</text>
</a>
</g>
</g>
<!-- dir_4ab6b4cc6a7edbff49100e9123df213f&#45;&gt;dir_2171f7ec022c5423887b07c69b2f5b48 -->
<g id="edge1" class="edge"><title>dir_4ab6b4cc6a7edbff49100e9123df213f&#45;&gt;dir_2171f7ec022c5423887b07c69b2f5b48</title>
<path fill="none" stroke="black" d="M66.4663,-215.697C60.163,-207.559 53.3301,-197.689 47.7229,-188.701"/>
<polygon fill="black" stroke="black" points="50.7213,-186.896 42.5893,-180.104 44.7113,-190.485 50.7213,-186.896"/>
<g id="a_edge1&#45;headlabel"><a xlink:href="dir_000016_000056.html" target="_top" xlink:title="2">
<text text-anchor="middle" x="55.0019" y="-186.026" font-family="Helvetica,sans-Serif" font-size="10.00">2</text>
</a>
</g>
</g>
<!-- dir_051dca18e802f8e9474f2e30d29c04e0&#45;&gt;dir_4ab6b4cc6a7edbff49100e9123df213f -->
<g id="edge2" class="edge"><title>dir_051dca18e802f8e9474f2e30d29c04e0&#45;&gt;dir_4ab6b4cc6a7edbff49100e9123df213f</title>
<path fill="none" stroke="black" d="M97.1842,-108.189C94.6242,-132.424 89.9274,-176.888 86.886,-205.679"/>
<polygon fill="black" stroke="black" points="83.3793,-205.559 85.8094,-215.871 90.3406,-206.295 83.3793,-205.559"/>
<g id="a_edge2&#45;headlabel"><a xlink:href="dir_000028_000016.html" target="_top" xlink:title="60">
<text text-anchor="middle" x="80.9333" y="-199.186" font-family="Helvetica,sans-Serif" font-size="10.00">60</text>
</a>
</g>
</g>
<!-- dir_051dca18e802f8e9474f2e30d29c04e0&#45;&gt;dir_a1435872ec32250c24e4b9798bc29a35 -->
<g id="edge3" class="edge"><title>dir_051dca18e802f8e9474f2e30d29c04e0&#45;&gt;dir_a1435872ec32250c24e4b9798bc29a35</title>
<path fill="none" stroke="black" d="M99,-71.6966C99,-63.9827 99,-54.7125 99,-46.1124"/>
<polygon fill="black" stroke="black" points="102.5,-46.1043 99,-36.1043 95.5001,-46.1044 102.5,-46.1043"/>
<g id="a_edge3&#45;headlabel"><a xlink:href="dir_000028_000392.html" target="_top" xlink:title="2">
<text text-anchor="middle" x="105.339" y="-47.199" font-family="Helvetica,sans-Serif" font-size="10.00">2</text>
</a>
</g>
</g>
<!-- dir_051dca18e802f8e9474f2e30d29c04e0&#45;&gt;dir_2171f7ec022c5423887b07c69b2f5b48 -->
<g id="edge4" class="edge"><title>dir_051dca18e802f8e9474f2e30d29c04e0&#45;&gt;dir_2171f7ec022c5423887b07c69b2f5b48</title>
<path fill="none" stroke="black" d="M89.7455,-108.104C83.0829,-116.636 74.0002,-127.108 65.1936,-136.478"/>
<polygon fill="black" stroke="black" points="62.6571,-134.066 58.2416,-143.697 67.6992,-138.921 62.6571,-134.066"/>
<g id="a_edge4&#45;headlabel"><a xlink:href="dir_000028_000056.html" target="_top" xlink:title="245">
<text text-anchor="middle" x="63.1053" y="-127.007" font-family="Helvetica,sans-Serif" font-size="10.00">245</text>
</a>
</g>
</g>
<!-- dir_a1435872ec32250c24e4b9798bc29a35&#45;&gt;dir_2171f7ec022c5423887b07c69b2f5b48 -->
<g id="edge5" class="edge"><title>dir_a1435872ec32250c24e4b9798bc29a35&#45;&gt;dir_2171f7ec022c5423887b07c69b2f5b48</title>
<path fill="none" stroke="black" d="M83.8228,-36.0633C75.7227,-45.9568 66.1785,-58.9991 60,-72 50.609,-91.7608 44.6801,-115.881 41.1985,-134.024"/>
<polygon fill="black" stroke="black" points="37.7408,-133.477 39.4237,-143.937 44.6313,-134.711 37.7408,-133.477"/>
<g id="a_edge5&#45;headlabel"><a xlink:href="dir_000392_000056.html" target="_top" xlink:title="3">
<text text-anchor="middle" x="35.5794" y="-126.938" font-family="Helvetica,sans-Serif" font-size="10.00">3</text>
</a>
</g>
</g>
<!-- dir_2171f7ec022c5423887b07c69b2f5b48&#45;&gt;dir_4ab6b4cc6a7edbff49100e9123df213f -->
<g id="edge10" class="edge"><title>dir_2171f7ec022c5423887b07c69b2f5b48&#45;&gt;dir_4ab6b4cc6a7edbff49100e9123df213f</title>
<path fill="none" stroke="black" d="M54.3794,-180.104C60.6739,-188.214 67.5124,-198.076 73.1394,-207.078"/>
<polygon fill="black" stroke="black" points="70.1588,-208.914 78.2977,-215.697 76.1652,-205.319 70.1588,-208.914"/>
<g id="a_edge10&#45;headlabel"><a xlink:href="dir_000056_000016.html" target="_top" xlink:title="18">
<text text-anchor="middle" x="65.8766" y="-204.787" font-family="Helvetica,sans-Serif" font-size="10.00">18</text>
</a>
</g>
</g>
<!-- dir_2171f7ec022c5423887b07c69b2f5b48&#45;&gt;dir_051dca18e802f8e9474f2e30d29c04e0 -->
<g id="edge11" class="edge"><title>dir_2171f7ec022c5423887b07c69b2f5b48&#45;&gt;dir_051dca18e802f8e9474f2e30d29c04e0</title>
<path fill="none" stroke="black" d="M46.4101,-143.697C53.1101,-135.135 62.2093,-124.656 71.0115,-115.304"/>
<polygon fill="black" stroke="black" points="73.5328,-117.732 77.9554,-108.104 68.4942,-112.873 73.5328,-117.732"/>
<g id="a_edge11&#45;headlabel"><a xlink:href="dir_000056_000028.html" target="_top" xlink:title="1">
<text text-anchor="middle" x="73.0812" y="-119.79" font-family="Helvetica,sans-Serif" font-size="10.00">1</text>
</a>
</g>
</g>
</g>
</svg>
