<?xml version="1.0" encoding="UTF-8" standalone="no"?>
<!DOCTYPE svg PUBLIC "-//W3C//DTD SVG 1.1//EN"
 "http://www.w3.org/Graphics/SVG/1.1/DTD/svg11.dtd">
<!-- Generated by graphviz version 2.36.0 (20140111.2315)
 -->
<!-- Title: /home/travis/build/AliceO2Group/AliceO2/DataFormats/simulation/include/SimulationDataFormat Pages: 1 -->
<svg width="154pt" height="223pt"
 viewBox="0.00 0.00 154.00 223.00" xmlns="http://www.w3.org/2000/svg" xmlns:xlink="http://www.w3.org/1999/xlink">
<g id="graph0" class="graph" transform="scale(1 1) rotate(0) translate(4 219)">
<title>/home/travis/build/AliceO2Group/AliceO2/DataFormats/simulation/include/SimulationDataFormat</title>
<g id="clust1" class="cluster"><title>clusterdir_e977c6a9672cee72083a88d55f0ce0c6</title>
<g id="a_clust1"><a xlink:href="dir_e977c6a9672cee72083a88d55f0ce0c6.html" target="_top" xlink:title="include">
<polygon fill="#ddddee" stroke="black" points="8,-136 8,-207 138,-207 138,-136 8,-136"/>
<text text-anchor="middle" x="73" y="-195" font-family="Helvetica,sans-Serif" font-size="10.00">include</text>
</a>
</g>
</g>
<!-- dir_af0e56203f4f35107f06f72cd061d1bf -->
<g id="node1" class="node"><title>dir_af0e56203f4f35107f06f72cd061d1bf</title>
<g id="a_node1"><a xlink:href="dir_af0e56203f4f35107f06f72cd061d1bf.html" target="_top" xlink:title="SimulationDataFormat">
<polygon fill="#eeeeff" stroke="black" points="130,-180 16,-180 16,-144 130,-144 130,-180"/>
<text text-anchor="middle" x="73" y="-159.5" font-family="Helvetica,sans-Serif" font-size="10.00">SimulationDataFormat</text>
</a>
</g>
</g>
<!-- dir_4ab6b4cc6a7edbff49100e9123df213f -->
<g id="node2" class="node"><title>dir_4ab6b4cc6a7edbff49100e9123df213f</title>
<g id="a_node2"><a xlink:href="dir_4ab6b4cc6a7edbff49100e9123df213f.html" target="_top" xlink:title="Common">
<polygon fill="none" stroke="red" points="72.5,-108 17.5,-108 17.5,-72 72.5,-72 72.5,-108"/>
<text text-anchor="middle" x="45" y="-87.5" font-family="Helvetica,sans-Serif" font-size="10.00">Common</text>
</a>
</g>
</g>
<!-- dir_af0e56203f4f35107f06f72cd061d1bf&#45;&gt;dir_4ab6b4cc6a7edbff49100e9123df213f -->
<g id="edge1" class="edge"><title>dir_af0e56203f4f35107f06f72cd061d1bf&#45;&gt;dir_4ab6b4cc6a7edbff49100e9123df213f</title>
<path fill="none" stroke="black" d="M66.0786,-143.697C62.9253,-135.813 59.1217,-126.304 55.6186,-117.546"/>
<polygon fill="black" stroke="black" points="58.8054,-116.089 51.8417,-108.104 52.306,-118.689 58.8054,-116.089"/>
<g id="a_edge1&#45;headlabel"><a xlink:href="dir_000146_000016.html" target="_top" xlink:title="1">
<text text-anchor="middle" x="62.7765" y="-115.872" font-family="Helvetica,sans-Serif" font-size="10.00">1</text>
</a>
</g>
</g>
<!-- dir_2801adc79bf3c286b1b479858d2cade4 -->
<g id="node3" class="node"><title>dir_2801adc79bf3c286b1b479858d2cade4</title>
<g id="a_node3"><a xlink:href="dir_2801adc79bf3c286b1b479858d2cade4.html" target="_top" xlink:title="Detectors">
<polygon fill="none" stroke="red" points="74.25,-36 15.75,-36 15.75,-0 74.25,-0 74.25,-36"/>
<text text-anchor="middle" x="45" y="-15.5" font-family="Helvetica,sans-Serif" font-size="10.00">Detectors</text>
</a>
</g>
</g>
<!-- dir_af0e56203f4f35107f06f72cd061d1bf&#45;&gt;dir_2801adc79bf3c286b1b479858d2cade4 -->
<g id="edge2" class="edge"><title>dir_af0e56203f4f35107f06f72cd061d1bf&#45;&gt;dir_2801adc79bf3c286b1b479858d2cade4</title>
<path fill="none" stroke="black" d="M78.343,-143.867C83.1569,-125.643 88.4326,-96.1703 81,-72 77.9911,-62.2153 72.493,-52.6161 66.6843,-44.3336"/>
<polygon fill="black" stroke="black" points="69.4072,-42.1306 60.6099,-36.2264 63.8052,-46.3279 69.4072,-42.1306"/>
<g id="a_edge2&#45;headlabel"><a xlink:href="dir_000146_000066.html" target="_top" xlink:title="2">
<text text-anchor="middle" x="73.8348" y="-40.8048" font-family="Helvetica,sans-Serif" font-size="10.00">2</text>
</a>
</g>
</g>
<!-- dir_4ab6b4cc6a7edbff49100e9123df213f&#45;&gt;dir_2801adc79bf3c286b1b479858d2cade4 -->
<g id="edge3" class="edge"><title>dir_4ab6b4cc6a7edbff49100e9123df213f&#45;&gt;dir_2801adc79bf3c286b1b479858d2cade4</title>
<path fill="none" stroke="black" d="M39.0843,-71.6966C38.2886,-63.9827 38.0621,-54.7125 38.4047,-46.1124"/>
<polygon fill="black" stroke="black" points="41.8984,-46.3243 39.105,-36.1043 34.9154,-45.8356 41.8984,-46.3243"/>
<g id="a_edge3&#45;headlabel"><a xlink:href="dir_000016_000066.html" target="_top" xlink:title="1">
<text text-anchor="middle" x="44.4799" y="-47.6083" font-family="Helvetica,sans-Serif" font-size="10.00">1</text>
</a>
</g>
</g>
<!-- dir_2801adc79bf3c286b1b479858d2cade4&#45;&gt;dir_4ab6b4cc6a7edbff49100e9123df213f -->
<g id="edge4" class="edge"><title>dir_2801adc79bf3c286b1b479858d2cade4&#45;&gt;dir_4ab6b4cc6a7edbff49100e9123df213f</title>
<path fill="none" stroke="black" d="M50.895,-36.1043C51.7005,-43.7913 51.9369,-53.0537 51.604,-61.6651"/>
<polygon fill="black" stroke="black" points="48.1085,-61.4805 50.9157,-71.6966 55.0921,-61.9597 48.1085,-61.4805"/>
<g id="a_edge4&#45;headlabel"><a xlink:href="dir_000066_000016.html" target="_top" xlink:title="9">
<text text-anchor="middle" x="45.5219" y="-55.2" font-family="Helvetica,sans-Serif" font-size="10.00">9</text>
</a>
</g>
</g>
</g>
</svg>
