<?xml version="1.0" encoding="UTF-8" standalone="no"?>
<!DOCTYPE svg PUBLIC "-//W3C//DTD SVG 1.1//EN"
 "http://www.w3.org/Graphics/SVG/1.1/DTD/svg11.dtd">
<!-- Generated by graphviz version 2.36.0 (20140111.2315)
 -->
<!-- Title: /home/travis/build/AliceO2Group/AliceO2/Detectors/MUON/MCH Pages: 1 -->
<svg width="450pt" height="375pt"
 viewBox="0.00 0.00 450.46 375.00" xmlns="http://www.w3.org/2000/svg" xmlns:xlink="http://www.w3.org/1999/xlink">
<g id="graph0" class="graph" transform="scale(1 1) rotate(0) translate(4 371)">
<title>/home/travis/build/AliceO2Group/AliceO2/Detectors/MUON/MCH</title>
<g id="clust1" class="cluster"><title>clusterdir_1cc233fd3b1202b9dad36810b41b97af</title>
<g id="a_clust1"><a xlink:href="dir_1cc233fd3b1202b9dad36810b41b97af.html" target="_top" xlink:title="MUON">
<polygon fill="#ddddee" stroke="black" points="8,-128 8,-359 268,-359 268,-128 8,-128"/>
<text text-anchor="middle" x="138" y="-347" font-family="Helvetica,sans-Serif" font-size="10.00">MUON</text>
</a>
</g>
</g>
<g id="clust2" class="cluster"><title>clusterdir_061f7088060f41729027f6c2fce0273e</title>
<g id="a_clust2"><a xlink:href="dir_061f7088060f41729027f6c2fce0273e.html" target="_top">
<polygon fill="#eeeeff" stroke="black" points="16,-136 16,-332 260,-332 260,-136 16,-136"/>
</a>
</g>
</g>
<!-- dir_061f7088060f41729027f6c2fce0273e -->
<g id="node1" class="node"><title>dir_061f7088060f41729027f6c2fce0273e</title>
<text text-anchor="middle" x="225" y="-303.5" font-family="Helvetica,sans-Serif" font-size="10.00">MCH</text>
</g>
<!-- dir_1155c84989a046e7de4bf0156dc4b34c -->
<g id="node2" class="node"><title>dir_1155c84989a046e7de4bf0156dc4b34c</title>
<g id="a_node2"><a xlink:href="dir_1155c84989a046e7de4bf0156dc4b34c.html" target="_top" xlink:title="Base">
<polygon fill="white" stroke="red" points="89,-252 35,-252 35,-216 89,-216 89,-252"/>
<text text-anchor="middle" x="62" y="-231.5" font-family="Helvetica,sans-Serif" font-size="10.00">Base</text>
</a>
</g>
</g>
<!-- dir_f53aaea7b1f4a3d2e21e52645ea2576d -->
<g id="node3" class="node"><title>dir_f53aaea7b1f4a3d2e21e52645ea2576d</title>
<g id="a_node3"><a xlink:href="dir_f53aaea7b1f4a3d2e21e52645ea2576d.html" target="_top" xlink:title="Contour">
<polygon fill="white" stroke="red" points="176,-180 122,-180 122,-144 176,-144 176,-180"/>
<text text-anchor="middle" x="149" y="-159.5" font-family="Helvetica,sans-Serif" font-size="10.00">Contour</text>
</a>
</g>
</g>
<!-- dir_b098e3604916eca5f90f2bb1c75b7880 -->
<g id="node4" class="node"><title>dir_b098e3604916eca5f90f2bb1c75b7880</title>
<g id="a_node4"><a xlink:href="dir_b098e3604916eca5f90f2bb1c75b7880.html" target="_top" xlink:title="Mapping">
<polygon fill="white" stroke="red" points="176,-252 122,-252 122,-216 176,-216 176,-252"/>
<text text-anchor="middle" x="149" y="-231.5" font-family="Helvetica,sans-Serif" font-size="10.00">Mapping</text>
</a>
</g>
</g>
<!-- dir_b098e3604916eca5f90f2bb1c75b7880&#45;&gt;dir_f53aaea7b1f4a3d2e21e52645ea2576d -->
<g id="edge13" class="edge"><title>dir_b098e3604916eca5f90f2bb1c75b7880&#45;&gt;dir_f53aaea7b1f4a3d2e21e52645ea2576d</title>
<path fill="none" stroke="black" d="M149,-215.697C149,-207.983 149,-198.712 149,-190.112"/>
<polygon fill="black" stroke="black" points="152.5,-190.104 149,-180.104 145.5,-190.104 152.5,-190.104"/>
<g id="a_edge13&#45;headlabel"><a xlink:href="dir_000266_000139.html" target="_top" xlink:title="9">
<text text-anchor="middle" x="155.339" y="-191.199" font-family="Helvetica,sans-Serif" font-size="10.00">9</text>
</a>
</g>
</g>
<!-- dir_6229e1f1a243f5ed3f0013dfa4f13deb -->
<g id="node5" class="node"><title>dir_6229e1f1a243f5ed3f0013dfa4f13deb</title>
<g id="a_node5"><a xlink:href="dir_6229e1f1a243f5ed3f0013dfa4f13deb.html" target="_top" xlink:title="PreClustering">
<polygon fill="white" stroke="red" points="100,-324 24,-324 24,-288 100,-288 100,-324"/>
<text text-anchor="middle" x="62" y="-303.5" font-family="Helvetica,sans-Serif" font-size="10.00">PreClustering</text>
</a>
</g>
</g>
<!-- dir_6229e1f1a243f5ed3f0013dfa4f13deb&#45;&gt;dir_1155c84989a046e7de4bf0156dc4b34c -->
<g id="edge1" class="edge"><title>dir_6229e1f1a243f5ed3f0013dfa4f13deb&#45;&gt;dir_1155c84989a046e7de4bf0156dc4b34c</title>
<path fill="none" stroke="black" d="M62,-287.697C62,-279.983 62,-270.712 62,-262.112"/>
<polygon fill="black" stroke="black" points="65.5001,-262.104 62,-252.104 58.5001,-262.104 65.5001,-262.104"/>
<g id="a_edge1&#45;headlabel"><a xlink:href="dir_000288_000277.html" target="_top" xlink:title="6">
<text text-anchor="middle" x="68.3393" y="-263.199" font-family="Helvetica,sans-Serif" font-size="10.00">6</text>
</a>
</g>
</g>
<!-- dir_b05a5fa85f84bfc9013183c9d87f9a36 -->
<g id="node8" class="node"><title>dir_b05a5fa85f84bfc9013183c9d87f9a36</title>
<g id="a_node8"><a xlink:href="dir_b05a5fa85f84bfc9013183c9d87f9a36.html" target="_top" xlink:title="Utilities">
<polygon fill="none" stroke="red" points="330,-252 276,-252 276,-216 330,-216 330,-252"/>
<text text-anchor="middle" x="303" y="-231.5" font-family="Helvetica,sans-Serif" font-size="10.00">Utilities</text>
</a>
</g>
</g>
<!-- dir_6229e1f1a243f5ed3f0013dfa4f13deb&#45;&gt;dir_b05a5fa85f84bfc9013183c9d87f9a36 -->
<g id="edge2" class="edge"><title>dir_6229e1f1a243f5ed3f0013dfa4f13deb&#45;&gt;dir_b05a5fa85f84bfc9013183c9d87f9a36</title>
<path fill="none" stroke="black" d="M100.094,-290.793C103.093,-289.805 106.088,-288.862 109,-288 176.817,-267.937 196.86,-274.223 264,-252 264.859,-251.716 265.725,-251.42 266.596,-251.114"/>
<polygon fill="black" stroke="black" points="267.877,-254.371 275.972,-247.536 265.381,-247.831 267.877,-254.371"/>
<g id="a_edge2&#45;headlabel"><a xlink:href="dir_000288_000357.html" target="_top" xlink:title="4">
<text text-anchor="middle" x="265.531" y="-255.805" font-family="Helvetica,sans-Serif" font-size="10.00">4</text>
</a>
</g>
</g>
<!-- dir_e4cb5181a3c884468a78a261ced84e7b -->
<g id="node6" class="node"><title>dir_e4cb5181a3c884468a78a261ced84e7b</title>
<g id="a_node6"><a xlink:href="dir_e4cb5181a3c884468a78a261ced84e7b.html" target="_top" xlink:title="Simulation">
<polygon fill="white" stroke="red" points="179.5,-324 118.5,-324 118.5,-288 179.5,-288 179.5,-324"/>
<text text-anchor="middle" x="149" y="-303.5" font-family="Helvetica,sans-Serif" font-size="10.00">Simulation</text>
</a>
</g>
</g>
<!-- dir_e4cb5181a3c884468a78a261ced84e7b&#45;&gt;dir_b098e3604916eca5f90f2bb1c75b7880 -->
<g id="edge10" class="edge"><title>dir_e4cb5181a3c884468a78a261ced84e7b&#45;&gt;dir_b098e3604916eca5f90f2bb1c75b7880</title>
<path fill="none" stroke="black" d="M149,-287.697C149,-279.983 149,-270.712 149,-262.112"/>
<polygon fill="black" stroke="black" points="152.5,-262.104 149,-252.104 145.5,-262.104 152.5,-262.104"/>
<g id="a_edge10&#45;headlabel"><a xlink:href="dir_000174_000266.html" target="_top" xlink:title="1">
<text text-anchor="middle" x="155.339" y="-263.199" font-family="Helvetica,sans-Serif" font-size="10.00">1</text>
</a>
</g>
</g>
<!-- dir_4ab6b4cc6a7edbff49100e9123df213f -->
<g id="node7" class="node"><title>dir_4ab6b4cc6a7edbff49100e9123df213f</title>
<g id="a_node7"><a xlink:href="dir_4ab6b4cc6a7edbff49100e9123df213f.html" target="_top" xlink:title="Common">
<polygon fill="none" stroke="red" points="382.5,-36 327.5,-36 327.5,-0 382.5,-0 382.5,-36"/>
<text text-anchor="middle" x="355" y="-15.5" font-family="Helvetica,sans-Serif" font-size="10.00">Common</text>
</a>
</g>
</g>
<!-- dir_e4cb5181a3c884468a78a261ced84e7b&#45;&gt;dir_4ab6b4cc6a7edbff49100e9123df213f -->
<g id="edge7" class="edge"><title>dir_e4cb5181a3c884468a78a261ced84e7b&#45;&gt;dir_4ab6b4cc6a7edbff49100e9123df213f</title>
<path fill="none" stroke="black" d="M179.762,-291.139C182.85,-289.986 185.966,-288.914 189,-288 272.965,-262.699 317.586,-310.406 383,-252 444.13,-197.418 458.968,-145.637 423,-72 416.168,-58.0128 403.664,-46.6432 391.225,-38.0727"/>
<polygon fill="black" stroke="black" points="392.998,-35.0519 382.693,-32.5888 389.213,-40.9403 392.998,-35.0519"/>
<g id="a_edge7&#45;headlabel"><a xlink:href="dir_000174_000016.html" target="_top" xlink:title="1">
<text text-anchor="middle" x="397.557" y="-32.1072" font-family="Helvetica,sans-Serif" font-size="10.00">1</text>
</a>
</g>
</g>
<!-- dir_37c90836491b695b472bf98d1be8336b -->
<g id="node9" class="node"><title>dir_37c90836491b695b472bf98d1be8336b</title>
<g id="a_node9"><a xlink:href="dir_37c90836491b695b472bf98d1be8336b.html" target="_top" xlink:title="Base">
<polygon fill="none" stroke="red" points="414,-108 360,-108 360,-72 414,-72 414,-108"/>
<text text-anchor="middle" x="387" y="-87.5" font-family="Helvetica,sans-Serif" font-size="10.00">Base</text>
</a>
</g>
</g>
<!-- dir_e4cb5181a3c884468a78a261ced84e7b&#45;&gt;dir_37c90836491b695b472bf98d1be8336b -->
<g id="edge8" class="edge"><title>dir_e4cb5181a3c884468a78a261ced84e7b&#45;&gt;dir_37c90836491b695b472bf98d1be8336b</title>
<path fill="none" stroke="black" d="M179.788,-291.223C182.871,-290.053 185.978,-288.954 189,-288 262.232,-264.874 303.819,-306.425 358,-252 393.138,-216.704 393.744,-154.219 390.64,-118.355"/>
<polygon fill="black" stroke="black" points="394.094,-117.729 389.592,-108.139 387.131,-118.444 394.094,-117.729"/>
<g id="a_edge8&#45;headlabel"><a xlink:href="dir_000174_000154.html" target="_top" xlink:title="4">
<text text-anchor="middle" x="397.286" y="-118.515" font-family="Helvetica,sans-Serif" font-size="10.00">4</text>
</a>
</g>
</g>
<!-- dir_2171f7ec022c5423887b07c69b2f5b48 -->
<g id="node10" class="node"><title>dir_2171f7ec022c5423887b07c69b2f5b48</title>
<g id="a_node10"><a xlink:href="dir_2171f7ec022c5423887b07c69b2f5b48.html" target="_top" xlink:title="DataFormats">
<polygon fill="none" stroke="red" points="364,-180 290,-180 290,-144 364,-144 364,-180"/>
<text text-anchor="middle" x="327" y="-159.5" font-family="Helvetica,sans-Serif" font-size="10.00">DataFormats</text>
</a>
</g>
</g>
<!-- dir_e4cb5181a3c884468a78a261ced84e7b&#45;&gt;dir_2171f7ec022c5423887b07c69b2f5b48 -->
<g id="edge9" class="edge"><title>dir_e4cb5181a3c884468a78a261ced84e7b&#45;&gt;dir_2171f7ec022c5423887b07c69b2f5b48</title>
<path fill="none" stroke="black" d="M179.814,-291.304C182.892,-290.118 185.99,-288.993 189,-288 254.107,-266.517 296.553,-305.84 339,-252 352.81,-234.484 347.437,-208.75 340.009,-189.454"/>
<polygon fill="black" stroke="black" points="343.143,-187.878 336.028,-180.028 336.694,-190.602 343.143,-187.878"/>
<g id="a_edge9&#45;headlabel"><a xlink:href="dir_000174_000056.html" target="_top" xlink:title="3">
<text text-anchor="middle" x="347.157" y="-187.585" font-family="Helvetica,sans-Serif" font-size="10.00">3</text>
</a>
</g>
</g>
<!-- dir_4ab6b4cc6a7edbff49100e9123df213f&#45;&gt;dir_2171f7ec022c5423887b07c69b2f5b48 -->
<g id="edge3" class="edge"><title>dir_4ab6b4cc6a7edbff49100e9123df213f&#45;&gt;dir_2171f7ec022c5423887b07c69b2f5b48</title>
<path fill="none" stroke="black" d="M356.201,-36.1893C353.967,-60.5311 345.423,-105.28 337.74,-134.059"/>
<polygon fill="black" stroke="black" points="334.318,-133.296 334.962,-143.871 341.054,-135.203 334.318,-133.296"/>
<g id="a_edge3&#45;headlabel"><a xlink:href="dir_000016_000056.html" target="_top" xlink:title="2">
<text text-anchor="middle" x="332.566" y="-126.564" font-family="Helvetica,sans-Serif" font-size="10.00">2</text>
</a>
</g>
</g>
<!-- dir_b05a5fa85f84bfc9013183c9d87f9a36&#45;&gt;dir_2171f7ec022c5423887b07c69b2f5b48 -->
<g id="edge4" class="edge"><title>dir_b05a5fa85f84bfc9013183c9d87f9a36&#45;&gt;dir_2171f7ec022c5423887b07c69b2f5b48</title>
<path fill="none" stroke="black" d="M308.933,-215.697C311.606,-207.898 314.826,-198.509 317.801,-189.829"/>
<polygon fill="black" stroke="black" points="321.203,-190.699 321.136,-180.104 314.582,-188.429 321.203,-190.699"/>
<g id="a_edge4&#45;headlabel"><a xlink:href="dir_000357_000056.html" target="_top" xlink:title="44">
<text text-anchor="middle" x="322.723" y="-192.52" font-family="Helvetica,sans-Serif" font-size="10.00">44</text>
</a>
</g>
</g>
<!-- dir_37c90836491b695b472bf98d1be8336b&#45;&gt;dir_4ab6b4cc6a7edbff49100e9123df213f -->
<g id="edge5" class="edge"><title>dir_37c90836491b695b472bf98d1be8336b&#45;&gt;dir_4ab6b4cc6a7edbff49100e9123df213f</title>
<path fill="none" stroke="black" d="M379.09,-71.6966C375.447,-63.7284 371.046,-54.0995 367.006,-45.2641"/>
<polygon fill="black" stroke="black" points="370.16,-43.7439 362.819,-36.1043 363.794,-46.6543 370.16,-43.7439"/>
<g id="a_edge5&#45;headlabel"><a xlink:href="dir_000154_000016.html" target="_top" xlink:title="5">
<text text-anchor="middle" x="374.237" y="-43.3327" font-family="Helvetica,sans-Serif" font-size="10.00">5</text>
</a>
</g>
</g>
<!-- dir_37c90836491b695b472bf98d1be8336b&#45;&gt;dir_2171f7ec022c5423887b07c69b2f5b48 -->
<g id="edge6" class="edge"><title>dir_37c90836491b695b472bf98d1be8336b&#45;&gt;dir_2171f7ec022c5423887b07c69b2f5b48</title>
<path fill="none" stroke="black" d="M378.234,-108.104C371.879,-116.552 363.206,-126.901 354.747,-136.199"/>
<polygon fill="black" stroke="black" points="352.013,-133.998 347.747,-143.697 357.13,-138.775 352.013,-133.998"/>
<g id="a_edge6&#45;headlabel"><a xlink:href="dir_000154_000056.html" target="_top" xlink:title="5">
<text text-anchor="middle" x="352.39" y="-126.933" font-family="Helvetica,sans-Serif" font-size="10.00">5</text>
</a>
</g>
</g>
<!-- dir_2171f7ec022c5423887b07c69b2f5b48&#45;&gt;dir_4ab6b4cc6a7edbff49100e9123df213f -->
<g id="edge11" class="edge"><title>dir_2171f7ec022c5423887b07c69b2f5b48&#45;&gt;dir_4ab6b4cc6a7edbff49100e9123df213f</title>
<path fill="none" stroke="black" d="M325.793,-143.871C328.016,-119.564 336.557,-74.8187 344.241,-46.0132"/>
<polygon fill="black" stroke="black" points="347.665,-46.7644 347.02,-36.1893 340.93,-44.859 347.665,-46.7644"/>
<g id="a_edge11&#45;headlabel"><a xlink:href="dir_000056_000016.html" target="_top" xlink:title="18">
<text text-anchor="middle" x="349.419" y="-48.4961" font-family="Helvetica,sans-Serif" font-size="10.00">18</text>
</a>
</g>
</g>
<!-- dir_2171f7ec022c5423887b07c69b2f5b48&#45;&gt;dir_37c90836491b695b472bf98d1be8336b -->
<g id="edge12" class="edge"><title>dir_2171f7ec022c5423887b07c69b2f5b48&#45;&gt;dir_37c90836491b695b472bf98d1be8336b</title>
<path fill="none" stroke="black" d="M335.916,-143.697C342.307,-135.22 350.997,-124.864 359.452,-115.583"/>
<polygon fill="black" stroke="black" points="362.171,-117.799 366.444,-108.104 357.058,-113.019 362.171,-117.799"/>
<g id="a_edge12&#45;headlabel"><a xlink:href="dir_000056_000154.html" target="_top" xlink:title="1">
<text text-anchor="middle" x="361.79" y="-119.864" font-family="Helvetica,sans-Serif" font-size="10.00">1</text>
</a>
</g>
</g>
</g>
</svg>
