<?xml version="1.0" encoding="UTF-8" standalone="no"?>
<!DOCTYPE svg PUBLIC "-//W3C//DTD SVG 1.1//EN"
 "http://www.w3.org/Graphics/SVG/1.1/DTD/svg11.dtd">
<!-- Generated by graphviz version 2.36.0 (20140111.2315)
 -->
<!-- Title: /home/travis/build/AliceO2Group/AliceO2/Detectors/FIT/simulation Pages: 1 -->
<svg width="270pt" height="375pt"
 viewBox="0.00 0.00 270.00 375.00" xmlns="http://www.w3.org/2000/svg" xmlns:xlink="http://www.w3.org/1999/xlink">
<g id="graph0" class="graph" transform="scale(1 1) rotate(0) translate(4 371)">
<title>/home/travis/build/AliceO2Group/AliceO2/Detectors/FIT/simulation</title>
<g id="clust1" class="cluster"><title>clusterdir_d14e88a79bca429480864605ee348cef</title>
<g id="a_clust1"><a xlink:href="dir_d14e88a79bca429480864605ee348cef.html" target="_top" xlink:title="FIT">
<polygon fill="#ddddee" stroke="black" points="88,-200 88,-359 254,-359 254,-200 88,-200"/>
<text text-anchor="middle" x="171" y="-347" font-family="Helvetica,sans-Serif" font-size="10.00">FIT</text>
</a>
</g>
</g>
<g id="clust2" class="cluster"><title>clusterdir_d961a1fccbdc187b00f8f36febec53be</title>
<g id="a_clust2"><a xlink:href="dir_d961a1fccbdc187b00f8f36febec53be.html" target="_top">
<polygon fill="#eeeeff" stroke="black" points="96,-208 96,-332 246,-332 246,-208 96,-208"/>
</a>
</g>
</g>
<!-- dir_d961a1fccbdc187b00f8f36febec53be -->
<g id="node1" class="node"><title>dir_d961a1fccbdc187b00f8f36febec53be</title>
<text text-anchor="middle" x="207" y="-303.5" font-family="Helvetica,sans-Serif" font-size="10.00">simulation</text>
</g>
<!-- dir_2465f3075ac35f5821daf5bc0e4d2732 -->
<g id="node2" class="node"><title>dir_2465f3075ac35f5821daf5bc0e4d2732</title>
<g id="a_node2"><a xlink:href="dir_2465f3075ac35f5821daf5bc0e4d2732.html" target="_top" xlink:title="include">
<polygon fill="white" stroke="red" points="158,-252 104,-252 104,-216 158,-216 158,-252"/>
<text text-anchor="middle" x="131" y="-231.5" font-family="Helvetica,sans-Serif" font-size="10.00">include</text>
</a>
</g>
</g>
<!-- dir_37c90836491b695b472bf98d1be8336b -->
<g id="node5" class="node"><title>dir_37c90836491b695b472bf98d1be8336b</title>
<g id="a_node5"><a xlink:href="dir_37c90836491b695b472bf98d1be8336b.html" target="_top" xlink:title="Base">
<polygon fill="none" stroke="red" points="158,-180 104,-180 104,-144 158,-144 158,-180"/>
<text text-anchor="middle" x="131" y="-159.5" font-family="Helvetica,sans-Serif" font-size="10.00">Base</text>
</a>
</g>
</g>
<!-- dir_2465f3075ac35f5821daf5bc0e4d2732&#45;&gt;dir_37c90836491b695b472bf98d1be8336b -->
<g id="edge7" class="edge"><title>dir_2465f3075ac35f5821daf5bc0e4d2732&#45;&gt;dir_37c90836491b695b472bf98d1be8336b</title>
<path fill="none" stroke="black" d="M131,-215.697C131,-207.983 131,-198.712 131,-190.112"/>
<polygon fill="black" stroke="black" points="134.5,-190.104 131,-180.104 127.5,-190.104 134.5,-190.104"/>
<g id="a_edge7&#45;headlabel"><a xlink:href="dir_000162_000154.html" target="_top" xlink:title="1">
<text text-anchor="middle" x="137.339" y="-191.199" font-family="Helvetica,sans-Serif" font-size="10.00">1</text>
</a>
</g>
</g>
<!-- dir_efd5be80f1ea96799fa313034d485898 -->
<g id="node6" class="node"><title>dir_efd5be80f1ea96799fa313034d485898</title>
<g id="a_node6"><a xlink:href="dir_efd5be80f1ea96799fa313034d485898.html" target="_top" xlink:title="base">
<polygon fill="none" stroke="red" points="230,-180 176,-180 176,-144 230,-144 230,-180"/>
<text text-anchor="middle" x="203" y="-159.5" font-family="Helvetica,sans-Serif" font-size="10.00">base</text>
</a>
</g>
</g>
<!-- dir_2465f3075ac35f5821daf5bc0e4d2732&#45;&gt;dir_efd5be80f1ea96799fa313034d485898 -->
<g id="edge8" class="edge"><title>dir_2465f3075ac35f5821daf5bc0e4d2732&#45;&gt;dir_efd5be80f1ea96799fa313034d485898</title>
<path fill="none" stroke="black" d="M148.798,-215.697C157.604,-207.135 168.382,-196.656 178.001,-187.304"/>
<polygon fill="black" stroke="black" points="180.677,-189.585 185.407,-180.104 175.797,-184.566 180.677,-189.585"/>
<g id="a_edge8&#45;headlabel"><a xlink:href="dir_000162_000203.html" target="_top" xlink:title="3">
<text text-anchor="middle" x="180.079" y="-191.626" font-family="Helvetica,sans-Serif" font-size="10.00">3</text>
</a>
</g>
</g>
<!-- dir_2171f7ec022c5423887b07c69b2f5b48 -->
<g id="node7" class="node"><title>dir_2171f7ec022c5423887b07c69b2f5b48</title>
<g id="a_node7"><a xlink:href="dir_2171f7ec022c5423887b07c69b2f5b48.html" target="_top" xlink:title="DataFormats">
<polygon fill="none" stroke="red" points="144,-36 70,-36 70,-0 144,-0 144,-36"/>
<text text-anchor="middle" x="107" y="-15.5" font-family="Helvetica,sans-Serif" font-size="10.00">DataFormats</text>
</a>
</g>
</g>
<!-- dir_2465f3075ac35f5821daf5bc0e4d2732&#45;&gt;dir_2171f7ec022c5423887b07c69b2f5b48 -->
<g id="edge9" class="edge"><title>dir_2465f3075ac35f5821daf5bc0e4d2732&#45;&gt;dir_2171f7ec022c5423887b07c69b2f5b48</title>
<path fill="none" stroke="black" d="M115.39,-215.774C107.627,-206.03 99.0541,-193.184 95,-180 81.0243,-134.552 90.8403,-78.6392 99.0533,-46.0878"/>
<polygon fill="black" stroke="black" points="102.447,-46.9464 101.631,-36.3829 95.6812,-45.1491 102.447,-46.9464"/>
<g id="a_edge9&#45;headlabel"><a xlink:href="dir_000162_000056.html" target="_top" xlink:title="1">
<text text-anchor="middle" x="104.268" y="-48.6494" font-family="Helvetica,sans-Serif" font-size="10.00">1</text>
</a>
</g>
</g>
<!-- dir_3577dabb8da6e7e9f48138bf5363df09 -->
<g id="node3" class="node"><title>dir_3577dabb8da6e7e9f48138bf5363df09</title>
<g id="a_node3"><a xlink:href="dir_3577dabb8da6e7e9f48138bf5363df09.html" target="_top" xlink:title="src">
<polygon fill="white" stroke="black" points="158,-324 104,-324 104,-288 158,-288 158,-324"/>
<text text-anchor="middle" x="131" y="-303.5" font-family="Helvetica,sans-Serif" font-size="10.00">src</text>
</a>
</g>
</g>
<!-- dir_3577dabb8da6e7e9f48138bf5363df09&#45;&gt;dir_2465f3075ac35f5821daf5bc0e4d2732 -->
<g id="edge2" class="edge"><title>dir_3577dabb8da6e7e9f48138bf5363df09&#45;&gt;dir_2465f3075ac35f5821daf5bc0e4d2732</title>
<path fill="none" stroke="black" d="M131,-287.697C131,-279.983 131,-270.712 131,-262.112"/>
<polygon fill="black" stroke="black" points="134.5,-262.104 131,-252.104 127.5,-262.104 134.5,-262.104"/>
<g id="a_edge2&#45;headlabel"><a xlink:href="dir_000194_000162.html" target="_top" xlink:title="3">
<text text-anchor="middle" x="137.339" y="-263.199" font-family="Helvetica,sans-Serif" font-size="10.00">3</text>
</a>
</g>
</g>
<!-- dir_4ab6b4cc6a7edbff49100e9123df213f -->
<g id="node4" class="node"><title>dir_4ab6b4cc6a7edbff49100e9123df213f</title>
<g id="a_node4"><a xlink:href="dir_4ab6b4cc6a7edbff49100e9123df213f.html" target="_top" xlink:title="Common">
<polygon fill="none" stroke="red" points="55.5,-108 0.5,-108 0.5,-72 55.5,-72 55.5,-108"/>
<text text-anchor="middle" x="28" y="-87.5" font-family="Helvetica,sans-Serif" font-size="10.00">Common</text>
</a>
</g>
</g>
<!-- dir_3577dabb8da6e7e9f48138bf5363df09&#45;&gt;dir_4ab6b4cc6a7edbff49100e9123df213f -->
<g id="edge1" class="edge"><title>dir_3577dabb8da6e7e9f48138bf5363df09&#45;&gt;dir_4ab6b4cc6a7edbff49100e9123df213f</title>
<path fill="none" stroke="black" d="M118.077,-287.894C110.77,-277.775 101.77,-264.525 95,-252 70.5801,-206.818 49.1035,-150.819 37.3926,-118.179"/>
<polygon fill="black" stroke="black" points="40.5823,-116.701 33.9421,-108.445 33.9846,-119.04 40.5823,-116.701"/>
<g id="a_edge1&#45;headlabel"><a xlink:href="dir_000194_000016.html" target="_top" xlink:title="1">
<text text-anchor="middle" x="44.4594" y="-116.641" font-family="Helvetica,sans-Serif" font-size="10.00">1</text>
</a>
</g>
</g>
<!-- dir_3577dabb8da6e7e9f48138bf5363df09&#45;&gt;dir_efd5be80f1ea96799fa313034d485898 -->
<g id="edge3" class="edge"><title>dir_3577dabb8da6e7e9f48138bf5363df09&#45;&gt;dir_efd5be80f1ea96799fa313034d485898</title>
<path fill="none" stroke="black" d="M143.97,-287.919C151.293,-277.809 160.293,-264.559 167,-252 177.749,-231.873 187.296,-207.822 193.853,-189.799"/>
<polygon fill="black" stroke="black" points="197.209,-190.81 197.266,-180.215 190.614,-188.461 197.209,-190.81"/>
<g id="a_edge3&#45;headlabel"><a xlink:href="dir_000194_000203.html" target="_top" xlink:title="1">
<text text-anchor="middle" x="198.678" y="-192.648" font-family="Helvetica,sans-Serif" font-size="10.00">1</text>
</a>
</g>
</g>
<!-- dir_4ab6b4cc6a7edbff49100e9123df213f&#45;&gt;dir_2171f7ec022c5423887b07c69b2f5b48 -->
<g id="edge4" class="edge"><title>dir_4ab6b4cc6a7edbff49100e9123df213f&#45;&gt;dir_2171f7ec022c5423887b07c69b2f5b48</title>
<path fill="none" stroke="black" d="M41.6124,-71.6966C50.5655,-62.9655 62.4979,-52.2405 73.7661,-42.7503"/>
<polygon fill="black" stroke="black" points="76.3263,-45.1748 81.8015,-36.1043 71.8649,-39.7807 76.3263,-45.1748"/>
<g id="a_edge4&#45;headlabel"><a xlink:href="dir_000016_000056.html" target="_top" xlink:title="2">
<text text-anchor="middle" x="75.3659" y="-47.1536" font-family="Helvetica,sans-Serif" font-size="10.00">2</text>
</a>
</g>
</g>
<!-- dir_37c90836491b695b472bf98d1be8336b&#45;&gt;dir_4ab6b4cc6a7edbff49100e9123df213f -->
<g id="edge5" class="edge"><title>dir_37c90836491b695b472bf98d1be8336b&#45;&gt;dir_4ab6b4cc6a7edbff49100e9123df213f</title>
<path fill="none" stroke="black" d="M105.803,-143.876C92.5855,-134.893 76.2077,-123.763 61.8931,-114.034"/>
<polygon fill="black" stroke="black" points="63.5316,-110.916 53.2935,-108.19 59.5969,-116.705 63.5316,-110.916"/>
<g id="a_edge5&#45;headlabel"><a xlink:href="dir_000154_000016.html" target="_top" xlink:title="5">
<text text-anchor="middle" x="68.1005" y="-108.088" font-family="Helvetica,sans-Serif" font-size="10.00">5</text>
</a>
</g>
</g>
<!-- dir_37c90836491b695b472bf98d1be8336b&#45;&gt;dir_2171f7ec022c5423887b07c69b2f5b48 -->
<g id="edge6" class="edge"><title>dir_37c90836491b695b472bf98d1be8336b&#45;&gt;dir_2171f7ec022c5423887b07c69b2f5b48</title>
<path fill="none" stroke="black" d="M123.521,-143.871C116.872,-119.67 109.066,-75.2108 106.171,-46.3932"/>
<polygon fill="black" stroke="black" points="109.639,-45.8614 105.314,-36.1893 102.663,-46.447 109.639,-45.8614"/>
<g id="a_edge6&#45;headlabel"><a xlink:href="dir_000154_000056.html" target="_top" xlink:title="5">
<text text-anchor="middle" x="112.769" y="-46.706" font-family="Helvetica,sans-Serif" font-size="10.00">5</text>
</a>
</g>
</g>
<!-- dir_efd5be80f1ea96799fa313034d485898&#45;&gt;dir_2171f7ec022c5423887b07c69b2f5b48 -->
<g id="edge10" class="edge"><title>dir_efd5be80f1ea96799fa313034d485898&#45;&gt;dir_2171f7ec022c5423887b07c69b2f5b48</title>
<path fill="none" stroke="black" d="M191.42,-143.871C174.698,-119.137 143.671,-73.2424 124.248,-44.5121"/>
<polygon fill="black" stroke="black" points="127.121,-42.5134 118.621,-36.1893 121.322,-46.434 127.121,-42.5134"/>
<g id="a_edge10&#45;headlabel"><a xlink:href="dir_000203_000056.html" target="_top" xlink:title="1">
<text text-anchor="middle" x="131.487" y="-41.4012" font-family="Helvetica,sans-Serif" font-size="10.00">1</text>
</a>
</g>
</g>
<!-- dir_2171f7ec022c5423887b07c69b2f5b48&#45;&gt;dir_4ab6b4cc6a7edbff49100e9123df213f -->
<g id="edge11" class="edge"><title>dir_2171f7ec022c5423887b07c69b2f5b48&#45;&gt;dir_4ab6b4cc6a7edbff49100e9123df213f</title>
<path fill="none" stroke="black" d="M93.5916,-36.1043C84.5976,-44.8894 72.5378,-55.7323 61.1631,-65.3094"/>
<polygon fill="black" stroke="black" points="58.9171,-62.625 53.4438,-71.6966 63.3796,-68.0181 58.9171,-62.625"/>
<g id="a_edge11&#45;headlabel"><a xlink:href="dir_000056_000016.html" target="_top" xlink:title="18">
<text text-anchor="middle" x="59.8765" y="-55.6459" font-family="Helvetica,sans-Serif" font-size="10.00">18</text>
</a>
</g>
</g>
<!-- dir_2171f7ec022c5423887b07c69b2f5b48&#45;&gt;dir_37c90836491b695b472bf98d1be8336b -->
<g id="edge12" class="edge"><title>dir_2171f7ec022c5423887b07c69b2f5b48&#45;&gt;dir_37c90836491b695b472bf98d1be8336b</title>
<path fill="none" stroke="black" d="M114.496,-36.1893C121.147,-60.4244 128.949,-104.888 131.836,-133.679"/>
<polygon fill="black" stroke="black" points="128.368,-134.198 132.69,-143.871 135.343,-133.614 128.368,-134.198"/>
<g id="a_edge12&#45;headlabel"><a xlink:href="dir_000056_000154.html" target="_top" xlink:title="1">
<text text-anchor="middle" x="125.238" y="-128.353" font-family="Helvetica,sans-Serif" font-size="10.00">1</text>
</a>
</g>
</g>
</g>
</svg>
