<?xml version="1.0" encoding="UTF-8" standalone="no"?>
<!DOCTYPE svg PUBLIC "-//W3C//DTD SVG 1.1//EN"
 "http://www.w3.org/Graphics/SVG/1.1/DTD/svg11.dtd">
<!-- Generated by graphviz version 2.36.0 (20140111.2315)
 -->
<!-- Title: /home/travis/build/AliceO2Group/AliceO2/Detectors/TPC Pages: 1 -->
<svg width="551pt" height="519pt"
 viewBox="0.00 0.00 550.88 519.00" xmlns="http://www.w3.org/2000/svg" xmlns:xlink="http://www.w3.org/1999/xlink">
<g id="graph0" class="graph" transform="scale(1 1) rotate(0) translate(4 515)">
<title>/home/travis/build/AliceO2Group/AliceO2/Detectors/TPC</title>
<g id="clust1" class="cluster"><title>clusterdir_051dca18e802f8e9474f2e30d29c04e0</title>
<g id="a_clust1"><a xlink:href="dir_051dca18e802f8e9474f2e30d29c04e0.html" target="_top" xlink:title="Detectors">
<polygon fill="#ddddee" stroke="black" points="322.884,-128 322.884,-503 530.884,-503 530.884,-128 322.884,-128"/>
<text text-anchor="middle" x="426.884" y="-491" font-family="Helvetica,sans-Serif" font-size="10.00">Detectors</text>
</a>
</g>
</g>
<g id="clust2" class="cluster"><title>clusterdir_a597e8e061b11201a1dff411feb10d0b</title>
<g id="a_clust2"><a xlink:href="dir_a597e8e061b11201a1dff411feb10d0b.html" target="_top">
<polygon fill="#eeeeff" stroke="black" points="330.884,-136 330.884,-476 522.884,-476 522.884,-136 330.884,-136"/>
</a>
</g>
</g>
<!-- dir_a597e8e061b11201a1dff411feb10d0b -->
<g id="node1" class="node"><title>dir_a597e8e061b11201a1dff411feb10d0b</title>
<text text-anchor="middle" x="486.884" y="-447.5" font-family="Helvetica,sans-Serif" font-size="10.00">TPC</text>
</g>
<!-- dir_677b030cc750909e4cd27413873678d8 -->
<g id="node2" class="node"><title>dir_677b030cc750909e4cd27413873678d8</title>
<g id="a_node2"><a xlink:href="dir_677b030cc750909e4cd27413873678d8.html" target="_top" xlink:title="base">
<polygon fill="white" stroke="red" points="430.884,-180 376.884,-180 376.884,-144 430.884,-144 430.884,-180"/>
<text text-anchor="middle" x="403.884" y="-159.5" font-family="Helvetica,sans-Serif" font-size="10.00">base</text>
</a>
</g>
</g>
<!-- dir_6af676bf18881990e4083e191d0e63e0 -->
<g id="node10" class="node"><title>dir_6af676bf18881990e4083e191d0e63e0</title>
<g id="a_node10"><a xlink:href="dir_6af676bf18881990e4083e191d0e63e0.html" target="_top" xlink:title="CCDB">
<polygon fill="none" stroke="red" points="430.884,-108 376.884,-108 376.884,-72 430.884,-72 430.884,-108"/>
<text text-anchor="middle" x="403.884" y="-87.5" font-family="Helvetica,sans-Serif" font-size="10.00">CCDB</text>
</a>
</g>
</g>
<!-- dir_677b030cc750909e4cd27413873678d8&#45;&gt;dir_6af676bf18881990e4083e191d0e63e0 -->
<g id="edge21" class="edge"><title>dir_677b030cc750909e4cd27413873678d8&#45;&gt;dir_6af676bf18881990e4083e191d0e63e0</title>
<path fill="none" stroke="black" d="M403.884,-143.697C403.884,-135.983 403.884,-126.712 403.884,-118.112"/>
<polygon fill="black" stroke="black" points="407.384,-118.104 403.884,-108.104 400.384,-118.104 407.384,-118.104"/>
<g id="a_edge21&#45;headlabel"><a xlink:href="dir_000216_000004.html" target="_top" xlink:title="4">
<text text-anchor="middle" x="410.223" y="-119.199" font-family="Helvetica,sans-Serif" font-size="10.00">4</text>
</a>
</g>
</g>
<!-- dir_2171f7ec022c5423887b07c69b2f5b48 -->
<g id="node14" class="node"><title>dir_2171f7ec022c5423887b07c69b2f5b48</title>
<g id="a_node14"><a xlink:href="dir_2171f7ec022c5423887b07c69b2f5b48.html" target="_top" xlink:title="DataFormats">
<polygon fill="none" stroke="red" points="195.884,-180 121.884,-180 121.884,-144 195.884,-144 195.884,-180"/>
<text text-anchor="middle" x="158.884" y="-159.5" font-family="Helvetica,sans-Serif" font-size="10.00">DataFormats</text>
</a>
</g>
</g>
<!-- dir_677b030cc750909e4cd27413873678d8&#45;&gt;dir_2171f7ec022c5423887b07c69b2f5b48 -->
<g id="edge22" class="edge"><title>dir_677b030cc750909e4cd27413873678d8&#45;&gt;dir_2171f7ec022c5423887b07c69b2f5b48</title>
<path fill="none" stroke="black" d="M376.708,-162C319.949,-162 263.191,-162 206.432,-162"/>
<polygon fill="black" stroke="black" points="206.208,-158.5 196.208,-162 206.208,-165.5 206.208,-158.5"/>
<g id="a_edge22&#45;headlabel"><a xlink:href="dir_000216_000056.html" target="_top" xlink:title="13">
<text text-anchor="middle" x="209.803" y="-153.161" font-family="Helvetica,sans-Serif" font-size="10.00">13</text>
</a>
</g>
</g>
<!-- dir_4995562033b321477cfe3c34a14a5189 -->
<g id="node3" class="node"><title>dir_4995562033b321477cfe3c34a14a5189</title>
<g id="a_node3"><a xlink:href="dir_4995562033b321477cfe3c34a14a5189.html" target="_top" xlink:title="calibration">
<polygon fill="white" stroke="red" points="494.134,-396 433.634,-396 433.634,-360 494.134,-360 494.134,-396"/>
<text text-anchor="middle" x="463.884" y="-375.5" font-family="Helvetica,sans-Serif" font-size="10.00">calibration</text>
</a>
</g>
</g>
<!-- dir_4995562033b321477cfe3c34a14a5189&#45;&gt;dir_677b030cc750909e4cd27413873678d8 -->
<g id="edge12" class="edge"><title>dir_4995562033b321477cfe3c34a14a5189&#45;&gt;dir_677b030cc750909e4cd27413873678d8</title>
<path fill="none" stroke="black" d="M472.19,-359.788C476.625,-349.634 481.625,-336.384 483.884,-324 492.616,-276.128 491.495,-257.377 465.884,-216 458.945,-204.789 448.852,-194.722 438.817,-186.45"/>
<polygon fill="black" stroke="black" points="440.876,-183.617 430.843,-180.213 436.564,-189.131 440.876,-183.617"/>
<g id="a_edge12&#45;headlabel"><a xlink:href="dir_000309_000216.html" target="_top" xlink:title="10">
<text text-anchor="middle" x="445.457" y="-181.095" font-family="Helvetica,sans-Serif" font-size="10.00">10</text>
</a>
</g>
</g>
<!-- dir_a5de047958dd458e809773c6ffaa8478 -->
<g id="node5" class="node"><title>dir_a5de047958dd458e809773c6ffaa8478</title>
<g id="a_node5"><a xlink:href="dir_a5de047958dd458e809773c6ffaa8478.html" target="_top" xlink:title="reconstruction">
<polygon fill="white" stroke="red" points="474.884,-324 396.884,-324 396.884,-288 474.884,-288 474.884,-324"/>
<text text-anchor="middle" x="435.884" y="-303.5" font-family="Helvetica,sans-Serif" font-size="10.00">reconstruction</text>
</a>
</g>
</g>
<!-- dir_4995562033b321477cfe3c34a14a5189&#45;&gt;dir_a5de047958dd458e809773c6ffaa8478 -->
<g id="edge14" class="edge"><title>dir_4995562033b321477cfe3c34a14a5189&#45;&gt;dir_a5de047958dd458e809773c6ffaa8478</title>
<path fill="none" stroke="black" d="M451.047,-359.697C447.123,-351.898 443.145,-342.509 440.032,-333.829"/>
<polygon fill="black" stroke="black" points="443.282,-332.509 436.831,-324.104 436.633,-334.697 443.282,-332.509"/>
<g id="a_edge14&#45;headlabel"><a xlink:href="dir_000309_000251.html" target="_top" xlink:title="3">
<text text-anchor="middle" x="447.103" y="-332.535" font-family="Helvetica,sans-Serif" font-size="10.00">3</text>
</a>
</g>
</g>
<!-- dir_4ab6b4cc6a7edbff49100e9123df213f -->
<g id="node9" class="node"><title>dir_4ab6b4cc6a7edbff49100e9123df213f</title>
<g id="a_node9"><a xlink:href="dir_4ab6b4cc6a7edbff49100e9123df213f.html" target="_top" xlink:title="Common">
<polygon fill="none" stroke="red" points="241.384,-36 186.384,-36 186.384,-0 241.384,-0 241.384,-36"/>
<text text-anchor="middle" x="213.884" y="-15.5" font-family="Helvetica,sans-Serif" font-size="10.00">Common</text>
</a>
</g>
</g>
<!-- dir_4995562033b321477cfe3c34a14a5189&#45;&gt;dir_4ab6b4cc6a7edbff49100e9123df213f -->
<g id="edge13" class="edge"><title>dir_4995562033b321477cfe3c34a14a5189&#45;&gt;dir_4ab6b4cc6a7edbff49100e9123df213f</title>
<path fill="none" stroke="black" d="M481.026,-359.894C504.26,-334.802 542.884,-285.498 542.884,-235 542.884,-235 542.884,-235 542.884,-161 542.884,-35.4381 338.383,-19.5987 251.841,-18.5174"/>
<polygon fill="black" stroke="black" points="251.673,-15.0164 241.651,-18.4522 251.628,-22.0162 251.673,-15.0164"/>
<g id="a_edge13&#45;headlabel"><a xlink:href="dir_000309_000016.html" target="_top" xlink:title="3">
<text text-anchor="middle" x="255.286" y="-9.70004" font-family="Helvetica,sans-Serif" font-size="10.00">3</text>
</a>
</g>
</g>
<!-- dir_4995562033b321477cfe3c34a14a5189&#45;&gt;dir_2171f7ec022c5423887b07c69b2f5b48 -->
<g id="edge15" class="edge"><title>dir_4995562033b321477cfe3c34a14a5189&#45;&gt;dir_2171f7ec022c5423887b07c69b2f5b48</title>
<path fill="none" stroke="black" d="M433.606,-368.023C423.843,-365.274 412.946,-362.356 402.884,-360 319.626,-340.505 278.457,-380.057 213.884,-324 174.669,-289.957 163.376,-226.738 160.15,-190.473"/>
<polygon fill="black" stroke="black" points="163.614,-189.86 159.385,-180.146 156.633,-190.377 163.614,-189.86"/>
<g id="a_edge15&#45;headlabel"><a xlink:href="dir_000309_000056.html" target="_top" xlink:title="3">
<text text-anchor="middle" x="166.711" y="-190.736" font-family="Helvetica,sans-Serif" font-size="10.00">3</text>
</a>
</g>
</g>
<!-- dir_c8aedc994017b243e124cedd663b3bbb -->
<g id="node4" class="node"><title>dir_c8aedc994017b243e124cedd663b3bbb</title>
<g id="a_node4"><a xlink:href="dir_c8aedc994017b243e124cedd663b3bbb.html" target="_top" xlink:title="monitor">
<polygon fill="white" stroke="red" points="440.884,-468 386.884,-468 386.884,-432 440.884,-432 440.884,-468"/>
<text text-anchor="middle" x="413.884" y="-447.5" font-family="Helvetica,sans-Serif" font-size="10.00">monitor</text>
</a>
</g>
</g>
<!-- dir_c8aedc994017b243e124cedd663b3bbb&#45;&gt;dir_677b030cc750909e4cd27413873678d8 -->
<g id="edge32" class="edge"><title>dir_c8aedc994017b243e124cedd663b3bbb&#45;&gt;dir_677b030cc750909e4cd27413873678d8</title>
<path fill="none" stroke="black" d="M441.297,-436.419C464.823,-424.99 495.997,-408.117 502.884,-396 510.79,-382.09 504.204,-375.945 502.884,-360 497.533,-295.338 513.37,-270.959 478.884,-216 469.48,-201.013 454.137,-189.061 439.77,-180.328"/>
<polygon fill="black" stroke="black" points="441.429,-177.244 431.012,-175.308 437.948,-183.317 441.429,-177.244"/>
<g id="a_edge32&#45;headlabel"><a xlink:href="dir_000314_000216.html" target="_top" xlink:title="11">
<text text-anchor="middle" x="445.959" y="-174.069" font-family="Helvetica,sans-Serif" font-size="10.00">11</text>
</a>
</g>
</g>
<!-- dir_c8aedc994017b243e124cedd663b3bbb&#45;&gt;dir_4995562033b321477cfe3c34a14a5189 -->
<g id="edge31" class="edge"><title>dir_c8aedc994017b243e124cedd663b3bbb&#45;&gt;dir_4995562033b321477cfe3c34a14a5189</title>
<path fill="none" stroke="black" d="M426.244,-431.697C432.117,-423.474 439.253,-413.483 445.726,-404.421"/>
<polygon fill="black" stroke="black" points="448.702,-406.276 451.667,-396.104 443.006,-402.207 448.702,-406.276"/>
<g id="a_edge31&#45;headlabel"><a xlink:href="dir_000314_000309.html" target="_top" xlink:title="1">
<text text-anchor="middle" x="448.924" y="-408.351" font-family="Helvetica,sans-Serif" font-size="10.00">1</text>
</a>
</g>
</g>
<!-- dir_c8aedc994017b243e124cedd663b3bbb&#45;&gt;dir_a5de047958dd458e809773c6ffaa8478 -->
<g id="edge33" class="edge"><title>dir_c8aedc994017b243e124cedd663b3bbb&#45;&gt;dir_a5de047958dd458e809773c6ffaa8478</title>
<path fill="none" stroke="black" d="M415.242,-431.86C416.8,-413.88 419.69,-384.837 423.884,-360 425.32,-351.497 427.26,-342.309 429.162,-334.009"/>
<polygon fill="black" stroke="black" points="432.612,-334.627 431.509,-324.09 425.8,-333.016 432.612,-334.627"/>
<g id="a_edge33&#45;headlabel"><a xlink:href="dir_000314_000251.html" target="_top" xlink:title="2">
<text text-anchor="middle" x="434.548" y="-336.279" font-family="Helvetica,sans-Serif" font-size="10.00">2</text>
</a>
</g>
</g>
<!-- dir_c8aedc994017b243e124cedd663b3bbb&#45;&gt;dir_2171f7ec022c5423887b07c69b2f5b48 -->
<g id="edge34" class="edge"><title>dir_c8aedc994017b243e124cedd663b3bbb&#45;&gt;dir_2171f7ec022c5423887b07c69b2f5b48</title>
<path fill="none" stroke="black" d="M386.6,-444.881C302.914,-431.637 52.686,-387.288 5.88411,-324 -8.32144,-304.791 7.71149,-228.371 17.8841,-216 40.9655,-187.931 80.5345,-174.718 111.891,-168.504"/>
<polygon fill="black" stroke="black" points="112.533,-171.944 121.752,-166.722 111.288,-165.056 112.533,-171.944"/>
<g id="a_edge34&#45;headlabel"><a xlink:href="dir_000314_000056.html" target="_top" xlink:title="1">
<text text-anchor="middle" x="109.501" y="-172.878" font-family="Helvetica,sans-Serif" font-size="10.00">1</text>
</a>
</g>
</g>
<!-- dir_a5de047958dd458e809773c6ffaa8478&#45;&gt;dir_677b030cc750909e4cd27413873678d8 -->
<g id="edge26" class="edge"><title>dir_a5de047958dd458e809773c6ffaa8478&#45;&gt;dir_677b030cc750909e4cd27413873678d8</title>
<path fill="none" stroke="black" d="M446.814,-287.775C456.954,-269.475 469.061,-239.94 458.884,-216 454.149,-204.862 445.8,-194.93 437.016,-186.759"/>
<polygon fill="black" stroke="black" points="439.114,-183.946 429.264,-180.045 434.532,-189.238 439.114,-183.946"/>
<g id="a_edge26&#45;headlabel"><a xlink:href="dir_000251_000216.html" target="_top" xlink:title="38">
<text text-anchor="middle" x="443.69" y="-181.653" font-family="Helvetica,sans-Serif" font-size="10.00">38</text>
</a>
</g>
</g>
<!-- dir_a5de047958dd458e809773c6ffaa8478&#45;&gt;dir_4995562033b321477cfe3c34a14a5189 -->
<g id="edge25" class="edge"><title>dir_a5de047958dd458e809773c6ffaa8478&#45;&gt;dir_4995562033b321477cfe3c34a14a5189</title>
<path fill="none" stroke="black" d="M448.621,-324.104C452.544,-331.876 456.529,-341.257 459.656,-349.949"/>
<polygon fill="black" stroke="black" points="456.417,-351.3 462.878,-359.697 463.063,-349.103 456.417,-351.3"/>
<g id="a_edge25&#45;headlabel"><a xlink:href="dir_000251_000309.html" target="_top" xlink:title="1">
<text text-anchor="middle" x="452.593" y="-346.278" font-family="Helvetica,sans-Serif" font-size="10.00">1</text>
</a>
</g>
</g>
<!-- dir_7f309bec8670bb3fb666e7e061b24659 -->
<g id="node6" class="node"><title>dir_7f309bec8670bb3fb666e7e061b24659</title>
<g id="a_node6"><a xlink:href="dir_7f309bec8670bb3fb666e7e061b24659.html" target="_top" xlink:title="simulation">
<polygon fill="white" stroke="red" points="434.134,-252 373.634,-252 373.634,-216 434.134,-216 434.134,-252"/>
<text text-anchor="middle" x="403.884" y="-231.5" font-family="Helvetica,sans-Serif" font-size="10.00">simulation</text>
</a>
</g>
</g>
<!-- dir_a5de047958dd458e809773c6ffaa8478&#45;&gt;dir_7f309bec8670bb3fb666e7e061b24659 -->
<g id="edge24" class="edge"><title>dir_a5de047958dd458e809773c6ffaa8478&#45;&gt;dir_7f309bec8670bb3fb666e7e061b24659</title>
<path fill="none" stroke="black" d="M427.974,-287.697C424.331,-279.728 419.93,-270.1 415.891,-261.264"/>
<polygon fill="black" stroke="black" points="419.044,-259.744 411.703,-252.104 412.678,-262.654 419.044,-259.744"/>
<g id="a_edge24&#45;headlabel"><a xlink:href="dir_000251_000185.html" target="_top" xlink:title="1">
<text text-anchor="middle" x="423.121" y="-259.333" font-family="Helvetica,sans-Serif" font-size="10.00">1</text>
</a>
</g>
</g>
<!-- dir_a5de047958dd458e809773c6ffaa8478&#45;&gt;dir_2171f7ec022c5423887b07c69b2f5b48 -->
<g id="edge27" class="edge"><title>dir_a5de047958dd458e809773c6ffaa8478&#45;&gt;dir_2171f7ec022c5423887b07c69b2f5b48</title>
<path fill="none" stroke="black" d="M402.471,-287.871C352.142,-262.071 256.9,-213.247 201.596,-184.896"/>
<polygon fill="black" stroke="black" points="202.911,-181.637 192.415,-180.189 199.717,-187.866 202.911,-181.637"/>
<g id="a_edge27&#45;headlabel"><a xlink:href="dir_000251_000056.html" target="_top" xlink:title="51">
<text text-anchor="middle" x="207.405" y="-178.25" font-family="Helvetica,sans-Serif" font-size="10.00">51</text>
</a>
</g>
</g>
<!-- dir_7f309bec8670bb3fb666e7e061b24659&#45;&gt;dir_677b030cc750909e4cd27413873678d8 -->
<g id="edge2" class="edge"><title>dir_7f309bec8670bb3fb666e7e061b24659&#45;&gt;dir_677b030cc750909e4cd27413873678d8</title>
<path fill="none" stroke="black" d="M403.884,-215.697C403.884,-207.983 403.884,-198.712 403.884,-190.112"/>
<polygon fill="black" stroke="black" points="407.384,-190.104 403.884,-180.104 400.384,-190.104 407.384,-190.104"/>
<g id="a_edge2&#45;headlabel"><a xlink:href="dir_000185_000216.html" target="_top" xlink:title="49">
<text text-anchor="middle" x="410.223" y="-191.199" font-family="Helvetica,sans-Serif" font-size="10.00">49</text>
</a>
</g>
</g>
<!-- dir_40b4a122691869ee86baf7f2711ed718 -->
<g id="node8" class="node"><title>dir_40b4a122691869ee86baf7f2711ed718</title>
<g id="a_node8"><a xlink:href="dir_40b4a122691869ee86baf7f2711ed718.html" target="_top" xlink:title="Steer">
<polygon fill="none" stroke="red" points="276.884,-324 222.884,-324 222.884,-288 276.884,-288 276.884,-324"/>
<text text-anchor="middle" x="249.884" y="-303.5" font-family="Helvetica,sans-Serif" font-size="10.00">Steer</text>
</a>
</g>
</g>
<!-- dir_7f309bec8670bb3fb666e7e061b24659&#45;&gt;dir_40b4a122691869ee86baf7f2711ed718 -->
<g id="edge1" class="edge"><title>dir_7f309bec8670bb3fb666e7e061b24659&#45;&gt;dir_40b4a122691869ee86baf7f2711ed718</title>
<path fill="none" stroke="black" d="M373.479,-246.478C348.372,-257.099 312.852,-273.101 286.263,-285.688"/>
<polygon fill="black" stroke="black" points="284.424,-282.688 276.908,-290.155 287.44,-289.005 284.424,-282.688"/>
<g id="a_edge1&#45;headlabel"><a xlink:href="dir_000185_000389.html" target="_top" xlink:title="2">
<text text-anchor="middle" x="286.444" y="-276.077" font-family="Helvetica,sans-Serif" font-size="10.00">2</text>
</a>
</g>
</g>
<!-- dir_7f309bec8670bb3fb666e7e061b24659&#45;&gt;dir_4ab6b4cc6a7edbff49100e9123df213f -->
<g id="edge3" class="edge"><title>dir_7f309bec8670bb3fb666e7e061b24659&#45;&gt;dir_4ab6b4cc6a7edbff49100e9123df213f</title>
<path fill="none" stroke="black" d="M419.494,-215.774C427.257,-206.03 435.83,-193.184 439.884,-180 453.992,-134.12 469.7,-109.617 439.884,-72 416.848,-42.9366 310.125,-28.2688 251.951,-22.3194"/>
<polygon fill="black" stroke="black" points="251.98,-18.8054 241.685,-21.3085 251.294,-25.7717 251.98,-18.8054"/>
<g id="a_edge3&#45;headlabel"><a xlink:href="dir_000185_000016.html" target="_top" xlink:title="1">
<text text-anchor="middle" x="255.835" y="-13.8319" font-family="Helvetica,sans-Serif" font-size="10.00">1</text>
</a>
</g>
</g>
<!-- dir_37c90836491b695b472bf98d1be8336b -->
<g id="node11" class="node"><title>dir_37c90836491b695b472bf98d1be8336b</title>
<g id="a_node11"><a xlink:href="dir_37c90836491b695b472bf98d1be8336b.html" target="_top" xlink:title="Base">
<polygon fill="none" stroke="red" points="240.884,-108 186.884,-108 186.884,-72 240.884,-72 240.884,-108"/>
<text text-anchor="middle" x="213.884" y="-87.5" font-family="Helvetica,sans-Serif" font-size="10.00">Base</text>
</a>
</g>
</g>
<!-- dir_7f309bec8670bb3fb666e7e061b24659&#45;&gt;dir_37c90836491b695b472bf98d1be8336b -->
<g id="edge4" class="edge"><title>dir_7f309bec8670bb3fb666e7e061b24659&#45;&gt;dir_37c90836491b695b472bf98d1be8336b</title>
<path fill="none" stroke="black" d="M380.966,-215.871C347.015,-190.497 283.267,-142.854 245.084,-114.318"/>
<polygon fill="black" stroke="black" points="246.989,-111.372 236.884,-108.189 242.799,-116.979 246.989,-111.372"/>
<g id="a_edge4&#45;headlabel"><a xlink:href="dir_000185_000154.html" target="_top" xlink:title="1">
<text text-anchor="middle" x="251.568" y="-108.75" font-family="Helvetica,sans-Serif" font-size="10.00">1</text>
</a>
</g>
</g>
<!-- dir_7f309bec8670bb3fb666e7e061b24659&#45;&gt;dir_2171f7ec022c5423887b07c69b2f5b48 -->
<g id="edge5" class="edge"><title>dir_7f309bec8670bb3fb666e7e061b24659&#45;&gt;dir_2171f7ec022c5423887b07c69b2f5b48</title>
<path fill="none" stroke="black" d="M373.533,-221.053C368.663,-219.275 363.656,-217.529 358.884,-216 307.167,-199.427 246.78,-183.944 206.001,-174.043"/>
<polygon fill="black" stroke="black" points="206.615,-170.591 196.073,-171.649 204.974,-177.396 206.615,-170.591"/>
<g id="a_edge5&#45;headlabel"><a xlink:href="dir_000185_000056.html" target="_top" xlink:title="8">
<text text-anchor="middle" x="210.775" y="-166.174" font-family="Helvetica,sans-Serif" font-size="10.00">8</text>
</a>
</g>
</g>
<!-- dir_9cc61f72f781098a662027b321784562 -->
<g id="node7" class="node"><title>dir_9cc61f72f781098a662027b321784562</title>
<g id="a_node7"><a xlink:href="dir_9cc61f72f781098a662027b321784562.html" target="_top" xlink:title="workflow">
<polygon fill="white" stroke="red" points="394.384,-396 339.384,-396 339.384,-360 394.384,-360 394.384,-396"/>
<text text-anchor="middle" x="366.884" y="-375.5" font-family="Helvetica,sans-Serif" font-size="10.00">workflow</text>
</a>
</g>
</g>
<!-- dir_9cc61f72f781098a662027b321784562&#45;&gt;dir_677b030cc750909e4cd27413873678d8 -->
<g id="edge16" class="edge"><title>dir_9cc61f72f781098a662027b321784562&#45;&gt;dir_677b030cc750909e4cd27413873678d8</title>
<path fill="none" stroke="black" d="M367.236,-359.735C368.417,-340.594 372.755,-309.578 387.884,-288 404.656,-264.078 428.99,-277.7 442.884,-252 454.225,-231.024 441.151,-206.078 427.168,-187.941"/>
<polygon fill="black" stroke="black" points="429.809,-185.642 420.763,-180.126 424.394,-190.079 429.809,-185.642"/>
<g id="a_edge16&#45;headlabel"><a xlink:href="dir_000325_000216.html" target="_top" xlink:title="1">
<text text-anchor="middle" x="434.283" y="-184.123" font-family="Helvetica,sans-Serif" font-size="10.00">1</text>
</a>
</g>
</g>
<!-- dir_9cc61f72f781098a662027b321784562&#45;&gt;dir_a5de047958dd458e809773c6ffaa8478 -->
<g id="edge17" class="edge"><title>dir_9cc61f72f781098a662027b321784562&#45;&gt;dir_a5de047958dd458e809773c6ffaa8478</title>
<path fill="none" stroke="black" d="M383.94,-359.697C392.38,-351.135 402.709,-340.656 411.927,-331.304"/>
<polygon fill="black" stroke="black" points="414.497,-333.683 419.024,-324.104 409.511,-328.769 414.497,-333.683"/>
<g id="a_edge17&#45;headlabel"><a xlink:href="dir_000325_000251.html" target="_top" xlink:title="3">
<text text-anchor="middle" x="413.995" y="-335.736" font-family="Helvetica,sans-Serif" font-size="10.00">3</text>
</a>
</g>
</g>
<!-- dir_8ba487e25de5ee77e05e9dce7582cb98 -->
<g id="node12" class="node"><title>dir_8ba487e25de5ee77e05e9dce7582cb98</title>
<g id="a_node12"><a xlink:href="dir_8ba487e25de5ee77e05e9dce7582cb98.html" target="_top" xlink:title="Algorithm">
<polygon fill="none" stroke="red" points="82.3841,-324 25.3841,-324 25.3841,-288 82.3841,-288 82.3841,-324"/>
<text text-anchor="middle" x="53.8841" y="-303.5" font-family="Helvetica,sans-Serif" font-size="10.00">Algorithm</text>
</a>
</g>
</g>
<!-- dir_9cc61f72f781098a662027b321784562&#45;&gt;dir_8ba487e25de5ee77e05e9dce7582cb98 -->
<g id="edge18" class="edge"><title>dir_9cc61f72f781098a662027b321784562&#45;&gt;dir_8ba487e25de5ee77e05e9dce7582cb98</title>
<path fill="none" stroke="black" d="M339.377,-372.92C290.743,-365.397 186.612,-347.898 100.884,-324 97.9691,-323.187 94.9761,-322.281 91.9804,-321.321"/>
<polygon fill="black" stroke="black" points="93.0894,-318.001 82.4953,-318.122 90.8527,-324.634 93.0894,-318.001"/>
<g id="a_edge18&#45;headlabel"><a xlink:href="dir_000325_000000.html" target="_top" xlink:title="1">
<text text-anchor="middle" x="97.4028" y="-313.959" font-family="Helvetica,sans-Serif" font-size="10.00">1</text>
</a>
</g>
</g>
<!-- dir_bcbb2cf9a3d3d83e5515c82071a07177 -->
<g id="node13" class="node"><title>dir_bcbb2cf9a3d3d83e5515c82071a07177</title>
<g id="a_node13"><a xlink:href="dir_bcbb2cf9a3d3d83e5515c82071a07177.html" target="_top" xlink:title="Framework">
<polygon fill="none" stroke="red" points="126.134,-252 61.6341,-252 61.6341,-216 126.134,-216 126.134,-252"/>
<text text-anchor="middle" x="93.8841" y="-231.5" font-family="Helvetica,sans-Serif" font-size="10.00">Framework</text>
</a>
</g>
</g>
<!-- dir_9cc61f72f781098a662027b321784562&#45;&gt;dir_bcbb2cf9a3d3d83e5515c82071a07177 -->
<g id="edge19" class="edge"><title>dir_9cc61f72f781098a662027b321784562&#45;&gt;dir_bcbb2cf9a3d3d83e5515c82071a07177</title>
<path fill="none" stroke="black" d="M339.11,-377.56C293.129,-377.074 200.369,-369.942 140.884,-324 120.772,-308.467 108.343,-281.86 101.358,-261.774"/>
<polygon fill="black" stroke="black" points="104.681,-260.674 98.2733,-252.236 98.0207,-262.828 104.681,-260.674"/>
<g id="a_edge19&#45;headlabel"><a xlink:href="dir_000325_000037.html" target="_top" xlink:title="14">
<text text-anchor="middle" x="108.489" y="-260.72" font-family="Helvetica,sans-Serif" font-size="10.00">14</text>
</a>
</g>
</g>
<!-- dir_9cc61f72f781098a662027b321784562&#45;&gt;dir_2171f7ec022c5423887b07c69b2f5b48 -->
<g id="edge20" class="edge"><title>dir_9cc61f72f781098a662027b321784562&#45;&gt;dir_2171f7ec022c5423887b07c69b2f5b48</title>
<path fill="none" stroke="black" d="M339.173,-377.233C263.769,-377.219 57.7352,-372.645 15.8841,-324 -5.47537,-299.173 31.914,-224.786 39.8841,-216 58.7824,-195.168 87.4034,-182.069 111.841,-174.105"/>
<polygon fill="black" stroke="black" points="113.128,-177.371 121.667,-171.099 111.08,-170.677 113.128,-177.371"/>
<g id="a_edge20&#45;headlabel"><a xlink:href="dir_000325_000056.html" target="_top" xlink:title="24">
<text text-anchor="middle" x="110.521" y="-178.638" font-family="Helvetica,sans-Serif" font-size="10.00">24</text>
</a>
</g>
</g>
<!-- dir_40b4a122691869ee86baf7f2711ed718&#45;&gt;dir_677b030cc750909e4cd27413873678d8 -->
<g id="edge7" class="edge"><title>dir_40b4a122691869ee86baf7f2711ed718&#45;&gt;dir_677b030cc750909e4cd27413873678d8</title>
<path fill="none" stroke="black" d="M268.46,-287.871C295.747,-262.711 346.781,-215.654 377.811,-187.042"/>
<polygon fill="black" stroke="black" points="380.263,-189.541 385.242,-180.189 375.518,-184.395 380.263,-189.541"/>
<g id="a_edge7&#45;headlabel"><a xlink:href="dir_000389_000216.html" target="_top" xlink:title="5">
<text text-anchor="middle" x="379.545" y="-191.565" font-family="Helvetica,sans-Serif" font-size="10.00">5</text>
</a>
</g>
</g>
<!-- dir_40b4a122691869ee86baf7f2711ed718&#45;&gt;dir_7f309bec8670bb3fb666e7e061b24659 -->
<g id="edge6" class="edge"><title>dir_40b4a122691869ee86baf7f2711ed718&#45;&gt;dir_7f309bec8670bb3fb666e7e061b24659</title>
<path fill="none" stroke="black" d="M277.205,-294.821C301.454,-284.646 336.963,-268.703 364.283,-255.834"/>
<polygon fill="black" stroke="black" points="366.039,-258.874 373.572,-251.424 363.038,-252.55 366.039,-258.874"/>
<g id="a_edge6&#45;headlabel"><a xlink:href="dir_000389_000185.html" target="_top" xlink:title="7">
<text text-anchor="middle" x="364.009" y="-260.48" font-family="Helvetica,sans-Serif" font-size="10.00">7</text>
</a>
</g>
</g>
<!-- dir_40b4a122691869ee86baf7f2711ed718&#45;&gt;dir_4ab6b4cc6a7edbff49100e9123df213f -->
<g id="edge8" class="edge"><title>dir_40b4a122691869ee86baf7f2711ed718&#45;&gt;dir_4ab6b4cc6a7edbff49100e9123df213f</title>
<path fill="none" stroke="black" d="M253.321,-287.802C260.454,-248.465 274.261,-149.355 249.884,-72 246.807,-62.2364 241.29,-52.6431 235.485,-44.3596"/>
<polygon fill="black" stroke="black" points="238.212,-42.1623 229.421,-36.2491 232.606,-46.3539 238.212,-42.1623"/>
<g id="a_edge8&#45;headlabel"><a xlink:href="dir_000389_000016.html" target="_top" xlink:title="1">
<text text-anchor="middle" x="242.639" y="-40.8411" font-family="Helvetica,sans-Serif" font-size="10.00">1</text>
</a>
</g>
</g>
<!-- dir_40b4a122691869ee86baf7f2711ed718&#45;&gt;dir_37c90836491b695b472bf98d1be8336b -->
<g id="edge9" class="edge"><title>dir_40b4a122691869ee86baf7f2711ed718&#45;&gt;dir_37c90836491b695b472bf98d1be8336b</title>
<path fill="none" stroke="black" d="M246.999,-287.849C240.759,-250.753 225.964,-162.81 218.443,-118.103"/>
<polygon fill="black" stroke="black" points="221.894,-117.513 216.783,-108.232 214.991,-118.675 221.894,-117.513"/>
<g id="a_edge9&#45;headlabel"><a xlink:href="dir_000389_000154.html" target="_top" xlink:title="1">
<text text-anchor="middle" x="225.29" y="-118.087" font-family="Helvetica,sans-Serif" font-size="10.00">1</text>
</a>
</g>
</g>
<!-- dir_40b4a122691869ee86baf7f2711ed718&#45;&gt;dir_bcbb2cf9a3d3d83e5515c82071a07177 -->
<g id="edge10" class="edge"><title>dir_40b4a122691869ee86baf7f2711ed718&#45;&gt;dir_bcbb2cf9a3d3d83e5515c82071a07177</title>
<path fill="none" stroke="black" d="M222.711,-292.807C198.66,-282.015 163.189,-266.098 135.553,-253.698"/>
<polygon fill="black" stroke="black" points="136.693,-250.373 126.136,-249.472 133.827,-256.759 136.693,-250.373"/>
<g id="a_edge10&#45;headlabel"><a xlink:href="dir_000389_000037.html" target="_top" xlink:title="21">
<text text-anchor="middle" x="141.135" y="-246.754" font-family="Helvetica,sans-Serif" font-size="10.00">21</text>
</a>
</g>
</g>
<!-- dir_40b4a122691869ee86baf7f2711ed718&#45;&gt;dir_2171f7ec022c5423887b07c69b2f5b48 -->
<g id="edge11" class="edge"><title>dir_40b4a122691869ee86baf7f2711ed718&#45;&gt;dir_2171f7ec022c5423887b07c69b2f5b48</title>
<path fill="none" stroke="black" d="M238.907,-287.871C223.125,-263.244 193.898,-217.638 175.472,-188.885"/>
<polygon fill="black" stroke="black" points="178.242,-186.72 169.9,-180.189 172.349,-190.497 178.242,-186.72"/>
<g id="a_edge11&#45;headlabel"><a xlink:href="dir_000389_000056.html" target="_top" xlink:title="10">
<text text-anchor="middle" x="182.572" y="-185.715" font-family="Helvetica,sans-Serif" font-size="10.00">10</text>
</a>
</g>
</g>
<!-- dir_4ab6b4cc6a7edbff49100e9123df213f&#45;&gt;dir_2171f7ec022c5423887b07c69b2f5b48 -->
<g id="edge23" class="edge"><title>dir_4ab6b4cc6a7edbff49100e9123df213f&#45;&gt;dir_2171f7ec022c5423887b07c69b2f5b48</title>
<path fill="none" stroke="black" d="M207.646,-36.1492C201.194,-46.0696 192.387,-59.1101 186.884,-72 178.431,-91.7993 173.594,-115.735 169.561,-133.796"/>
<polygon fill="black" stroke="black" points="166.12,-133.141 167.258,-143.674 172.937,-134.73 166.12,-133.141"/>
<g id="a_edge23&#45;headlabel"><a xlink:href="dir_000016_000056.html" target="_top" xlink:title="2">
<text text-anchor="middle" x="164.171" y="-126.496" font-family="Helvetica,sans-Serif" font-size="10.00">2</text>
</a>
</g>
</g>
<!-- dir_37c90836491b695b472bf98d1be8336b&#45;&gt;dir_4ab6b4cc6a7edbff49100e9123df213f -->
<g id="edge28" class="edge"><title>dir_37c90836491b695b472bf98d1be8336b&#45;&gt;dir_4ab6b4cc6a7edbff49100e9123df213f</title>
<path fill="none" stroke="black" d="M213.884,-71.6966C213.884,-63.9827 213.884,-54.7125 213.884,-46.1124"/>
<polygon fill="black" stroke="black" points="217.384,-46.1043 213.884,-36.1043 210.384,-46.1044 217.384,-46.1043"/>
<g id="a_edge28&#45;headlabel"><a xlink:href="dir_000154_000016.html" target="_top" xlink:title="5">
<text text-anchor="middle" x="220.223" y="-47.199" font-family="Helvetica,sans-Serif" font-size="10.00">5</text>
</a>
</g>
</g>
<!-- dir_37c90836491b695b472bf98d1be8336b&#45;&gt;dir_2171f7ec022c5423887b07c69b2f5b48 -->
<g id="edge29" class="edge"><title>dir_37c90836491b695b472bf98d1be8336b&#45;&gt;dir_2171f7ec022c5423887b07c69b2f5b48</title>
<path fill="none" stroke="black" d="M206.34,-108.104C200.646,-116.467 192.812,-126.694 185.093,-135.92"/>
<polygon fill="black" stroke="black" points="182.269,-133.835 178.395,-143.697 187.573,-138.403 182.269,-133.835"/>
<g id="a_edge29&#45;headlabel"><a xlink:href="dir_000154_000056.html" target="_top" xlink:title="5">
<text text-anchor="middle" x="182.463" y="-126.759" font-family="Helvetica,sans-Serif" font-size="10.00">5</text>
</a>
</g>
</g>
<!-- dir_8ba487e25de5ee77e05e9dce7582cb98&#45;&gt;dir_2171f7ec022c5423887b07c69b2f5b48 -->
<g id="edge30" class="edge"><title>dir_8ba487e25de5ee77e05e9dce7582cb98&#45;&gt;dir_2171f7ec022c5423887b07c69b2f5b48</title>
<path fill="none" stroke="black" d="M48.3,-287.817C43.2126,-268.749 38.3552,-237.799 51.8841,-216 65.1203,-194.673 89.7723,-181.664 112.08,-173.875"/>
<polygon fill="black" stroke="black" points="113.339,-177.147 121.785,-170.75 111.194,-170.484 113.339,-177.147"/>
<g id="a_edge30&#45;headlabel"><a xlink:href="dir_000000_000056.html" target="_top" xlink:title="7">
<text text-anchor="middle" x="110.788" y="-178.451" font-family="Helvetica,sans-Serif" font-size="10.00">7</text>
</a>
</g>
</g>
<!-- dir_bcbb2cf9a3d3d83e5515c82071a07177&#45;&gt;dir_7f309bec8670bb3fb666e7e061b24659 -->
<g id="edge35" class="edge"><title>dir_bcbb2cf9a3d3d83e5515c82071a07177&#45;&gt;dir_7f309bec8670bb3fb666e7e061b24659</title>
<path fill="none" stroke="black" d="M126.277,-234C205.311,-234 284.346,-234 363.38,-234"/>
<polygon fill="black" stroke="black" points="363.521,-237.5 373.521,-234 363.521,-230.5 363.521,-237.5"/>
<g id="a_edge35&#45;headlabel"><a xlink:href="dir_000037_000185.html" target="_top" xlink:title="1">
<text text-anchor="middle" x="359.926" y="-237.839" font-family="Helvetica,sans-Serif" font-size="10.00">1</text>
</a>
</g>
</g>
<!-- dir_bcbb2cf9a3d3d83e5515c82071a07177&#45;&gt;dir_4ab6b4cc6a7edbff49100e9123df213f -->
<g id="edge36" class="edge"><title>dir_bcbb2cf9a3d3d83e5515c82071a07177&#45;&gt;dir_4ab6b4cc6a7edbff49100e9123df213f</title>
<path fill="none" stroke="black" d="M94.1656,-215.754C95.1379,-194.191 98.9119,-156.637 112.884,-128 129.582,-93.7781 160.599,-62.7846 183.873,-42.6726"/>
<polygon fill="black" stroke="black" points="186.364,-45.1506 191.747,-36.0251 181.848,-39.802 186.364,-45.1506"/>
<g id="a_edge36&#45;headlabel"><a xlink:href="dir_000037_000016.html" target="_top" xlink:title="2">
<text text-anchor="middle" x="185.449" y="-47.139" font-family="Helvetica,sans-Serif" font-size="10.00">2</text>
</a>
</g>
</g>
<!-- dir_bcbb2cf9a3d3d83e5515c82071a07177&#45;&gt;dir_2171f7ec022c5423887b07c69b2f5b48 -->
<g id="edge37" class="edge"><title>dir_bcbb2cf9a3d3d83e5515c82071a07177&#45;&gt;dir_2171f7ec022c5423887b07c69b2f5b48</title>
<path fill="none" stroke="black" d="M109.952,-215.697C117.823,-207.22 127.439,-196.864 136.057,-187.583"/>
<polygon fill="black" stroke="black" points="138.762,-189.814 143.002,-180.104 133.632,-185.051 138.762,-189.814"/>
<g id="a_edge37&#45;headlabel"><a xlink:href="dir_000037_000056.html" target="_top" xlink:title="22">
<text text-anchor="middle" x="138.396" y="-191.88" font-family="Helvetica,sans-Serif" font-size="10.00">22</text>
</a>
</g>
</g>
<!-- dir_2171f7ec022c5423887b07c69b2f5b48&#45;&gt;dir_4ab6b4cc6a7edbff49100e9123df213f -->
<g id="edge38" class="edge"><title>dir_2171f7ec022c5423887b07c69b2f5b48&#45;&gt;dir_4ab6b4cc6a7edbff49100e9123df213f</title>
<path fill="none" stroke="black" d="M153.905,-143.674C153.835,-125.29 158.773,-95.6852 168.884,-72 173.011,-62.3326 178.997,-52.5804 185.359,-44.1234"/>
<polygon fill="black" stroke="black" points="188.238,-46.1299 191.793,-36.1492 182.79,-41.7346 188.238,-46.1299"/>
<g id="a_edge38&#45;headlabel"><a xlink:href="dir_000056_000016.html" target="_top" xlink:title="18">
<text text-anchor="middle" x="188.19" y="-48.2103" font-family="Helvetica,sans-Serif" font-size="10.00">18</text>
</a>
</g>
</g>
<!-- dir_2171f7ec022c5423887b07c69b2f5b48&#45;&gt;dir_37c90836491b695b472bf98d1be8336b -->
<g id="edge39" class="edge"><title>dir_2171f7ec022c5423887b07c69b2f5b48&#45;&gt;dir_37c90836491b695b472bf98d1be8336b</title>
<path fill="none" stroke="black" d="M166.564,-143.697C172.292,-135.305 180.141,-125.07 187.858,-115.861"/>
<polygon fill="black" stroke="black" points="190.668,-117.962 194.55,-108.104 185.368,-113.39 190.668,-117.962"/>
<g id="a_edge39&#45;headlabel"><a xlink:href="dir_000056_000154.html" target="_top" xlink:title="1">
<text text-anchor="middle" x="190.47" y="-120.039" font-family="Helvetica,sans-Serif" font-size="10.00">1</text>
</a>
</g>
</g>
</g>
</svg>
