<?xml version="1.0" encoding="UTF-8" standalone="no"?>
<!DOCTYPE svg PUBLIC "-//W3C//DTD SVG 1.1//EN"
 "http://www.w3.org/Graphics/SVG/1.1/DTD/svg11.dtd">
<!-- Generated by graphviz version 2.36.0 (20140111.2315)
 -->
<!-- Title: /home/travis/build/AliceO2Group/AliceO2/DataFormats/simulation Pages: 1 -->
<svg width="333pt" height="252pt"
 viewBox="0.00 0.00 332.71 251.76" xmlns="http://www.w3.org/2000/svg" xmlns:xlink="http://www.w3.org/1999/xlink">
<g id="graph0" class="graph" transform="scale(1 1) rotate(0) translate(4 247.762)">
<title>/home/travis/build/AliceO2Group/AliceO2/DataFormats/simulation</title>
<g id="clust1" class="cluster"><title>clusterdir_2171f7ec022c5423887b07c69b2f5b48</title>
<g id="a_clust1"><a xlink:href="dir_2171f7ec022c5423887b07c69b2f5b48.html" target="_top" xlink:title="DataFormats">
<polygon fill="#ddddee" stroke="black" points="8,-56 8,-215 246,-215 246,-56 8,-56"/>
<text text-anchor="middle" x="127" y="-203" font-family="Helvetica,sans-Serif" font-size="10.00">DataFormats</text>
</a>
</g>
</g>
<g id="clust2" class="cluster"><title>clusterdir_047746f9f311f49446db9474b7431d0d</title>
<g id="a_clust2"><a xlink:href="dir_047746f9f311f49446db9474b7431d0d.html" target="_top">
<polygon fill="#eeeeff" stroke="black" points="16,-64 16,-188 238,-188 238,-64 16,-64"/>
</a>
</g>
</g>
<!-- dir_047746f9f311f49446db9474b7431d0d -->
<g id="node1" class="node"><title>dir_047746f9f311f49446db9474b7431d0d</title>
<text text-anchor="middle" x="199" y="-159.5" font-family="Helvetica,sans-Serif" font-size="10.00">simulation</text>
</g>
<!-- dir_e977c6a9672cee72083a88d55f0ce0c6 -->
<g id="node2" class="node"><title>dir_e977c6a9672cee72083a88d55f0ce0c6</title>
<g id="a_node2"><a xlink:href="dir_e977c6a9672cee72083a88d55f0ce0c6.html" target="_top" xlink:title="include">
<polygon fill="white" stroke="red" points="223,-108 169,-108 169,-72 223,-72 223,-108"/>
<text text-anchor="middle" x="196" y="-87.5" font-family="Helvetica,sans-Serif" font-size="10.00">include</text>
</a>
</g>
</g>
<!-- dir_4ab6b4cc6a7edbff49100e9123df213f -->
<g id="node5" class="node"><title>dir_4ab6b4cc6a7edbff49100e9123df213f</title>
<g id="a_node5"><a xlink:href="dir_4ab6b4cc6a7edbff49100e9123df213f.html" target="_top" xlink:title="Common">
<polygon fill="none" stroke="red" points="309.5,-108 254.5,-108 254.5,-72 309.5,-72 309.5,-108"/>
<text text-anchor="middle" x="282" y="-87.5" font-family="Helvetica,sans-Serif" font-size="10.00">Common</text>
</a>
</g>
</g>
<!-- dir_e977c6a9672cee72083a88d55f0ce0c6&#45;&gt;dir_4ab6b4cc6a7edbff49100e9123df213f -->
<g id="edge10" class="edge"><title>dir_e977c6a9672cee72083a88d55f0ce0c6&#45;&gt;dir_4ab6b4cc6a7edbff49100e9123df213f</title>
<path fill="none" stroke="black" d="M223.211,-90C230.206,-90 237.2,-90 244.195,-90"/>
<polygon fill="black" stroke="black" points="244.443,-93.5001 254.443,-90 244.443,-86.5001 244.443,-93.5001"/>
<g id="a_edge10&#45;headlabel"><a xlink:href="dir_000145_000016.html" target="_top" xlink:title="1">
<text text-anchor="middle" x="240.848" y="-93.8393" font-family="Helvetica,sans-Serif" font-size="10.00">1</text>
</a>
</g>
</g>
<!-- dir_2801adc79bf3c286b1b479858d2cade4 -->
<g id="node6" class="node"><title>dir_2801adc79bf3c286b1b479858d2cade4</title>
<g id="a_node6"><a xlink:href="dir_2801adc79bf3c286b1b479858d2cade4.html" target="_top" xlink:title="Detectors">
<polygon fill="none" stroke="red" points="271.25,-36 212.75,-36 212.75,-0 271.25,-0 271.25,-36"/>
<text text-anchor="middle" x="242" y="-15.5" font-family="Helvetica,sans-Serif" font-size="10.00">Detectors</text>
</a>
</g>
</g>
<!-- dir_e977c6a9672cee72083a88d55f0ce0c6&#45;&gt;dir_2801adc79bf3c286b1b479858d2cade4 -->
<g id="edge11" class="edge"><title>dir_e977c6a9672cee72083a88d55f0ce0c6&#45;&gt;dir_2801adc79bf3c286b1b479858d2cade4</title>
<path fill="none" stroke="black" d="M201.455,-71.6966C206.01,-63.4741 212.374,-53.4832 218.775,-44.4207"/>
<polygon fill="black" stroke="black" points="221.781,-46.2403 224.865,-36.1043 216.133,-42.1045 221.781,-46.2403"/>
<g id="a_edge11&#45;headlabel"><a xlink:href="dir_000145_000066.html" target="_top" xlink:title="2">
<text text-anchor="middle" x="221.948" y="-48.3179" font-family="Helvetica,sans-Serif" font-size="10.00">2</text>
</a>
</g>
</g>
<!-- dir_38abbb9c71f32f91a25826cfc3ede3a8 -->
<g id="node3" class="node"><title>dir_38abbb9c71f32f91a25826cfc3ede3a8</title>
<g id="a_node3"><a xlink:href="dir_38abbb9c71f32f91a25826cfc3ede3a8.html" target="_top" xlink:title="src">
<polygon fill="white" stroke="black" points="78,-180 24,-180 24,-144 78,-144 78,-180"/>
<text text-anchor="middle" x="51" y="-159.5" font-family="Helvetica,sans-Serif" font-size="10.00">src</text>
</a>
</g>
</g>
<!-- dir_38abbb9c71f32f91a25826cfc3ede3a8&#45;&gt;dir_e977c6a9672cee72083a88d55f0ce0c6 -->
<g id="edge3" class="edge"><title>dir_38abbb9c71f32f91a25826cfc3ede3a8&#45;&gt;dir_e977c6a9672cee72083a88d55f0ce0c6</title>
<path fill="none" stroke="black" d="M78.2734,-147.834C101.26,-136.736 134.347,-120.764 159.594,-108.575"/>
<polygon fill="black" stroke="black" points="161.365,-111.607 168.849,-104.107 158.322,-105.303 161.365,-111.607"/>
<g id="a_edge3&#45;headlabel"><a xlink:href="dir_000147_000145.html" target="_top" xlink:title="6">
<text text-anchor="middle" x="159.362" y="-113.227" font-family="Helvetica,sans-Serif" font-size="10.00">6</text>
</a>
</g>
</g>
<!-- dir_38abbb9c71f32f91a25826cfc3ede3a8&#45;&gt;dir_2801adc79bf3c286b1b479858d2cade4 -->
<g id="edge1" class="edge"><title>dir_38abbb9c71f32f91a25826cfc3ede3a8&#45;&gt;dir_2801adc79bf3c286b1b479858d2cade4</title>
<path fill="none" stroke="black" d="M59.554,-143.899C71.9872,-120.723 97.194,-79.5406 130,-56 151.498,-40.5738 179.827,-31.2939 202.614,-25.8857"/>
<polygon fill="black" stroke="black" points="203.642,-29.243 212.65,-23.6651 202.13,-22.4083 203.642,-29.243"/>
<g id="a_edge1&#45;headlabel"><a xlink:href="dir_000147_000066.html" target="_top" xlink:title="1">
<text text-anchor="middle" x="200.746" y="-30.2917" font-family="Helvetica,sans-Serif" font-size="10.00">1</text>
</a>
</g>
</g>
<!-- dir_051dca18e802f8e9474f2e30d29c04e0 -->
<g id="node7" class="node"><title>dir_051dca18e802f8e9474f2e30d29c04e0</title>
<g id="a_node7"><a xlink:href="dir_051dca18e802f8e9474f2e30d29c04e0.html" target="_top" xlink:title="Detectors">
<polygon fill="none" stroke="red" points="313.25,-180 254.75,-180 254.75,-144 313.25,-144 313.25,-180"/>
<text text-anchor="middle" x="284" y="-159.5" font-family="Helvetica,sans-Serif" font-size="10.00">Detectors</text>
</a>
</g>
</g>
<!-- dir_38abbb9c71f32f91a25826cfc3ede3a8&#45;&gt;dir_051dca18e802f8e9474f2e30d29c04e0 -->
<g id="edge2" class="edge"><title>dir_38abbb9c71f32f91a25826cfc3ede3a8&#45;&gt;dir_051dca18e802f8e9474f2e30d29c04e0</title>
<path fill="none" stroke="black" d="M56.7294,-180.038C63.2342,-197.135 75.6695,-221.816 96,-233 122.674,-247.674 205.911,-246.895 233,-233 250.781,-223.88 263.763,-205.358 272.179,-189.519"/>
<polygon fill="black" stroke="black" points="275.535,-190.627 276.83,-180.112 269.26,-187.525 275.535,-190.627"/>
<g id="a_edge2&#45;headlabel"><a xlink:href="dir_000147_000028.html" target="_top" xlink:title="1">
<text text-anchor="middle" x="276.487" y="-192.608" font-family="Helvetica,sans-Serif" font-size="10.00">1</text>
</a>
</g>
</g>
<!-- dir_c8fa59d38404a336ce27bd8f626335e9 -->
<g id="node4" class="node"><title>dir_c8fa59d38404a336ce27bd8f626335e9</title>
<g id="a_node4"><a xlink:href="dir_c8fa59d38404a336ce27bd8f626335e9.html" target="_top" xlink:title="test">
<polygon fill="white" stroke="black" points="150,-180 96,-180 96,-144 150,-144 150,-180"/>
<text text-anchor="middle" x="123" y="-159.5" font-family="Helvetica,sans-Serif" font-size="10.00">test</text>
</a>
</g>
</g>
<!-- dir_c8fa59d38404a336ce27bd8f626335e9&#45;&gt;dir_e977c6a9672cee72083a88d55f0ce0c6 -->
<g id="edge13" class="edge"><title>dir_c8fa59d38404a336ce27bd8f626335e9&#45;&gt;dir_e977c6a9672cee72083a88d55f0ce0c6</title>
<path fill="none" stroke="black" d="M141.045,-143.697C150.062,-135.05 161.118,-124.449 170.943,-115.027"/>
<polygon fill="black" stroke="black" points="173.367,-117.552 178.163,-108.104 168.522,-112.499 173.367,-117.552"/>
<g id="a_edge13&#45;headlabel"><a xlink:href="dir_000148_000145.html" target="_top" xlink:title="10">
<text text-anchor="middle" x="172.738" y="-119.589" font-family="Helvetica,sans-Serif" font-size="10.00">10</text>
</a>
</g>
</g>
<!-- dir_c8fa59d38404a336ce27bd8f626335e9&#45;&gt;dir_2801adc79bf3c286b1b479858d2cade4 -->
<g id="edge12" class="edge"><title>dir_c8fa59d38404a336ce27bd8f626335e9&#45;&gt;dir_2801adc79bf3c286b1b479858d2cade4</title>
<path fill="none" stroke="black" d="M124.841,-143.987C128.131,-121.288 136.991,-81.0547 160,-56 171.439,-43.544 187.872,-35.0055 203.027,-29.2991"/>
<polygon fill="black" stroke="black" points="204.427,-32.5185 212.736,-25.9454 202.142,-25.902 204.427,-32.5185"/>
<g id="a_edge12&#45;headlabel"><a xlink:href="dir_000148_000066.html" target="_top" xlink:title="1">
<text text-anchor="middle" x="201.956" y="-33.8757" font-family="Helvetica,sans-Serif" font-size="10.00">1</text>
</a>
</g>
</g>
<!-- dir_4ab6b4cc6a7edbff49100e9123df213f&#45;&gt;dir_2801adc79bf3c286b1b479858d2cade4 -->
<g id="edge4" class="edge"><title>dir_4ab6b4cc6a7edbff49100e9123df213f&#45;&gt;dir_2801adc79bf3c286b1b479858d2cade4</title>
<path fill="none" stroke="black" d="M266.197,-71.6966C260.821,-63.7284 255.105,-54.0995 250.449,-45.2641"/>
<polygon fill="black" stroke="black" points="253.475,-43.4901 245.879,-36.1043 247.211,-46.6151 253.475,-43.4901"/>
<g id="a_edge4&#45;headlabel"><a xlink:href="dir_000016_000066.html" target="_top" xlink:title="1">
<text text-anchor="middle" x="257.62" y="-42.9392" font-family="Helvetica,sans-Serif" font-size="10.00">1</text>
</a>
</g>
</g>
<!-- dir_2801adc79bf3c286b1b479858d2cade4&#45;&gt;dir_e977c6a9672cee72083a88d55f0ce0c6 -->
<g id="edge6" class="edge"><title>dir_2801adc79bf3c286b1b479858d2cade4&#45;&gt;dir_e977c6a9672cee72083a88d55f0ce0c6</title>
<path fill="none" stroke="black" d="M236.655,-36.1043C232.129,-44.2981 225.78,-54.282 219.38,-63.3594"/>
<polygon fill="black" stroke="black" points="216.362,-61.5579 213.287,-71.6966 222.013,-65.6886 216.362,-61.5579"/>
<g id="a_edge6&#45;headlabel"><a xlink:href="dir_000066_000145.html" target="_top" xlink:title="2">
<text text-anchor="middle" x="216.191" y="-54.4804" font-family="Helvetica,sans-Serif" font-size="10.00">2</text>
</a>
</g>
</g>
<!-- dir_2801adc79bf3c286b1b479858d2cade4&#45;&gt;dir_4ab6b4cc6a7edbff49100e9123df213f -->
<g id="edge5" class="edge"><title>dir_2801adc79bf3c286b1b479858d2cade4&#45;&gt;dir_4ab6b4cc6a7edbff49100e9123df213f</title>
<path fill="none" stroke="black" d="M257.669,-36.1043C263.038,-44.0447 268.761,-53.6661 273.435,-62.5146"/>
<polygon fill="black" stroke="black" points="270.424,-64.3192 278.028,-71.6966 276.684,-61.1874 270.424,-64.3192"/>
<g id="a_edge5&#45;headlabel"><a xlink:href="dir_000066_000016.html" target="_top" xlink:title="9">
<text text-anchor="middle" x="266.276" y="-59.8746" font-family="Helvetica,sans-Serif" font-size="10.00">9</text>
</a>
</g>
</g>
<!-- dir_051dca18e802f8e9474f2e30d29c04e0&#45;&gt;dir_e977c6a9672cee72083a88d55f0ce0c6 -->
<g id="edge9" class="edge"><title>dir_051dca18e802f8e9474f2e30d29c04e0&#45;&gt;dir_e977c6a9672cee72083a88d55f0ce0c6</title>
<path fill="none" stroke="black" d="M262.247,-143.697C251.164,-134.881 237.526,-124.032 225.51,-114.474"/>
<polygon fill="black" stroke="black" points="227.507,-111.59 217.503,-108.104 223.15,-117.069 227.507,-111.59"/>
<g id="a_edge9&#45;headlabel"><a xlink:href="dir_000028_000145.html" target="_top" xlink:title="107">
<text text-anchor="middle" x="232.088" y="-109.106" font-family="Helvetica,sans-Serif" font-size="10.00">107</text>
</a>
</g>
</g>
<!-- dir_051dca18e802f8e9474f2e30d29c04e0&#45;&gt;dir_4ab6b4cc6a7edbff49100e9123df213f -->
<g id="edge7" class="edge"><title>dir_051dca18e802f8e9474f2e30d29c04e0&#45;&gt;dir_4ab6b4cc6a7edbff49100e9123df213f</title>
<path fill="none" stroke="black" d="M283.506,-143.697C283.285,-135.983 283.02,-126.712 282.775,-118.112"/>
<polygon fill="black" stroke="black" points="286.273,-118 282.489,-108.104 279.276,-118.2 286.273,-118"/>
<g id="a_edge7&#45;headlabel"><a xlink:href="dir_000028_000016.html" target="_top" xlink:title="60">
<text text-anchor="middle" x="289.214" y="-119.012" font-family="Helvetica,sans-Serif" font-size="10.00">60</text>
</a>
</g>
</g>
<!-- dir_051dca18e802f8e9474f2e30d29c04e0&#45;&gt;dir_2801adc79bf3c286b1b479858d2cade4 -->
<g id="edge8" class="edge"><title>dir_051dca18e802f8e9474f2e30d29c04e0&#45;&gt;dir_2801adc79bf3c286b1b479858d2cade4</title>
<path fill="none" stroke="black" d="M297.947,-143.908C313.87,-122.176 335.576,-84.1053 318,-56 309.718,-42.7567 295.185,-34.1297 281.031,-28.5697"/>
<polygon fill="black" stroke="black" points="281.968,-25.1898 271.374,-25.1915 279.657,-31.7972 281.968,-25.1898"/>
<g id="a_edge8&#45;headlabel"><a xlink:href="dir_000028_000066.html" target="_top" xlink:title="115">
<text text-anchor="middle" x="286.299" y="-21.1967" font-family="Helvetica,sans-Serif" font-size="10.00">115</text>
</a>
</g>
</g>
</g>
</svg>
