<?xml version="1.0" encoding="UTF-8" standalone="no"?>
<!DOCTYPE svg PUBLIC "-//W3C//DTD SVG 1.1//EN"
 "http://www.w3.org/Graphics/SVG/1.1/DTD/svg11.dtd">
<!-- Generated by graphviz version 2.36.0 (20140111.2315)
 -->
<!-- Title: /home/travis/build/AliceO2Group/AliceO2/DataFormats/Reconstruction/include/ReconstructionDataFormats Pages: 1 -->
<svg width="180pt" height="295pt"
 viewBox="0.00 0.00 180.00 295.00" xmlns="http://www.w3.org/2000/svg" xmlns:xlink="http://www.w3.org/1999/xlink">
<g id="graph0" class="graph" transform="scale(1 1) rotate(0) translate(4 291)">
<title>/home/travis/build/AliceO2Group/AliceO2/DataFormats/Reconstruction/include/ReconstructionDataFormats</title>
<g id="clust1" class="cluster"><title>clusterdir_99c43ad88135ecdb15d6d5c818628268</title>
<g id="a_clust1"><a xlink:href="dir_99c43ad88135ecdb15d6d5c818628268.html" target="_top" xlink:title="include">
<polygon fill="#ddddee" stroke="black" points="8,-208 8,-279 164,-279 164,-208 8,-208"/>
<text text-anchor="middle" x="86" y="-267" font-family="Helvetica,sans-Serif" font-size="10.00">include</text>
</a>
</g>
</g>
<!-- dir_7a3b9cdde049e7a84ed69a884a751cf5 -->
<g id="node1" class="node"><title>dir_7a3b9cdde049e7a84ed69a884a751cf5</title>
<g id="a_node1"><a xlink:href="dir_7a3b9cdde049e7a84ed69a884a751cf5.html" target="_top" xlink:title="ReconstructionDataFormats">
<polygon fill="#eeeeff" stroke="black" points="156,-252 16,-252 16,-216 156,-216 156,-252"/>
<text text-anchor="middle" x="86" y="-231.5" font-family="Helvetica,sans-Serif" font-size="10.00">ReconstructionDataFormats</text>
</a>
</g>
</g>
<!-- dir_4ab6b4cc6a7edbff49100e9123df213f -->
<g id="node2" class="node"><title>dir_4ab6b4cc6a7edbff49100e9123df213f</title>
<g id="a_node2"><a xlink:href="dir_4ab6b4cc6a7edbff49100e9123df213f.html" target="_top" xlink:title="Common">
<polygon fill="none" stroke="red" points="57.5,-180 2.5,-180 2.5,-144 57.5,-144 57.5,-180"/>
<text text-anchor="middle" x="30" y="-159.5" font-family="Helvetica,sans-Serif" font-size="10.00">Common</text>
</a>
</g>
</g>
<!-- dir_7a3b9cdde049e7a84ed69a884a751cf5&#45;&gt;dir_4ab6b4cc6a7edbff49100e9123df213f -->
<g id="edge4" class="edge"><title>dir_7a3b9cdde049e7a84ed69a884a751cf5&#45;&gt;dir_4ab6b4cc6a7edbff49100e9123df213f</title>
<path fill="none" stroke="black" d="M72.1573,-215.697C65.5115,-207.389 57.4216,-197.277 50.1126,-188.141"/>
<polygon fill="black" stroke="black" points="52.6635,-185.727 43.6835,-180.104 47.1974,-190.099 52.6635,-185.727"/>
<g id="a_edge4&#45;headlabel"><a xlink:href="dir_000102_000016.html" target="_top" xlink:title="5">
<text text-anchor="middle" x="57.1261" y="-184.26" font-family="Helvetica,sans-Serif" font-size="10.00">5</text>
</a>
</g>
</g>
<!-- dir_2801adc79bf3c286b1b479858d2cade4 -->
<g id="node3" class="node"><title>dir_2801adc79bf3c286b1b479858d2cade4</title>
<g id="a_node3"><a xlink:href="dir_2801adc79bf3c286b1b479858d2cade4.html" target="_top" xlink:title="Detectors">
<polygon fill="none" stroke="red" points="77.25,-108 18.75,-108 18.75,-72 77.25,-72 77.25,-108"/>
<text text-anchor="middle" x="48" y="-87.5" font-family="Helvetica,sans-Serif" font-size="10.00">Detectors</text>
</a>
</g>
</g>
<!-- dir_7a3b9cdde049e7a84ed69a884a751cf5&#45;&gt;dir_2801adc79bf3c286b1b479858d2cade4 -->
<g id="edge5" class="edge"><title>dir_7a3b9cdde049e7a84ed69a884a751cf5&#45;&gt;dir_2801adc79bf3c286b1b479858d2cade4</title>
<path fill="none" stroke="black" d="M82.7008,-215.803C79.1111,-197.777 72.9475,-168.697 66,-144 63.5679,-135.354 60.5458,-126.043 57.6767,-117.674"/>
<polygon fill="black" stroke="black" points="60.9117,-116.322 54.3029,-108.041 54.3051,-118.636 60.9117,-116.322"/>
<g id="a_edge5&#45;headlabel"><a xlink:href="dir_000102_000066.html" target="_top" xlink:title="1">
<text text-anchor="middle" x="64.7794" y="-116.276" font-family="Helvetica,sans-Serif" font-size="10.00">1</text>
</a>
</g>
</g>
<!-- dir_7924ba4398ae4560cd37376e44666c6d -->
<g id="node4" class="node"><title>dir_7924ba4398ae4560cd37376e44666c6d</title>
<g id="a_node4"><a xlink:href="dir_7924ba4398ae4560cd37376e44666c6d.html" target="_top" xlink:title="common">
<polygon fill="none" stroke="red" points="113,-36 59,-36 59,-0 113,-0 113,-36"/>
<text text-anchor="middle" x="86" y="-15.5" font-family="Helvetica,sans-Serif" font-size="10.00">common</text>
</a>
</g>
</g>
<!-- dir_7a3b9cdde049e7a84ed69a884a751cf5&#45;&gt;dir_7924ba4398ae4560cd37376e44666c6d -->
<g id="edge6" class="edge"><title>dir_7a3b9cdde049e7a84ed69a884a751cf5&#45;&gt;dir_7924ba4398ae4560cd37376e44666c6d</title>
<path fill="none" stroke="black" d="M86,-215.849C86,-178.832 86,-91.1809 86,-46.3863"/>
<polygon fill="black" stroke="black" points="89.5001,-46.2324 86,-36.2325 82.5001,-46.2325 89.5001,-46.2324"/>
<g id="a_edge6&#45;headlabel"><a xlink:href="dir_000102_000057.html" target="_top" xlink:title="3">
<text text-anchor="middle" x="92.3393" y="-47.3271" font-family="Helvetica,sans-Serif" font-size="10.00">3</text>
</a>
</g>
</g>
<!-- dir_4ab6b4cc6a7edbff49100e9123df213f&#45;&gt;dir_2801adc79bf3c286b1b479858d2cade4 -->
<g id="edge1" class="edge"><title>dir_4ab6b4cc6a7edbff49100e9123df213f&#45;&gt;dir_2801adc79bf3c286b1b479858d2cade4</title>
<path fill="none" stroke="black" d="M28.5337,-143.697C29.7346,-135.898 31.9264,-126.509 34.5173,-117.829"/>
<polygon fill="black" stroke="black" points="37.916,-118.697 37.7067,-108.104 31.2646,-116.516 37.916,-118.697"/>
<g id="a_edge1&#45;headlabel"><a xlink:href="dir_000016_000066.html" target="_top" xlink:title="1">
<text text-anchor="middle" x="39.4937" y="-120.498" font-family="Helvetica,sans-Serif" font-size="10.00">1</text>
</a>
</g>
</g>
<!-- dir_2801adc79bf3c286b1b479858d2cade4&#45;&gt;dir_4ab6b4cc6a7edbff49100e9123df213f -->
<g id="edge2" class="edge"><title>dir_2801adc79bf3c286b1b479858d2cade4&#45;&gt;dir_4ab6b4cc6a7edbff49100e9123df213f</title>
<path fill="none" stroke="black" d="M49.4968,-108.104C48.3128,-115.876 46.1329,-125.257 43.5489,-133.949"/>
<polygon fill="black" stroke="black" points="40.1428,-133.104 40.3652,-143.697 46.7969,-135.277 40.1428,-133.104"/>
<g id="a_edge2&#45;headlabel"><a xlink:href="dir_000066_000016.html" target="_top" xlink:title="9">
<text text-anchor="middle" x="38.5598" y="-126.306" font-family="Helvetica,sans-Serif" font-size="10.00">9</text>
</a>
</g>
</g>
<!-- dir_2801adc79bf3c286b1b479858d2cade4&#45;&gt;dir_7924ba4398ae4560cd37376e44666c6d -->
<g id="edge3" class="edge"><title>dir_2801adc79bf3c286b1b479858d2cade4&#45;&gt;dir_7924ba4398ae4560cd37376e44666c6d</title>
<path fill="none" stroke="black" d="M57.3933,-71.6966C61.7649,-63.6436 67.0573,-53.8945 71.8953,-44.9824"/>
<polygon fill="black" stroke="black" points="75.0198,-46.5627 76.7148,-36.1043 68.8678,-43.223 75.0198,-46.5627"/>
<g id="a_edge3&#45;headlabel"><a xlink:href="dir_000066_000057.html" target="_top" xlink:title="1">
<text text-anchor="middle" x="75.8002" y="-48.5764" font-family="Helvetica,sans-Serif" font-size="10.00">1</text>
</a>
</g>
</g>
</g>
</svg>
