<?xml version="1.0" encoding="UTF-8" standalone="no"?>
<!DOCTYPE svg PUBLIC "-//W3C//DTD SVG 1.1//EN"
 "http://www.w3.org/Graphics/SVG/1.1/DTD/svg11.dtd">
<!-- Generated by graphviz version 2.36.0 (20140111.2315)
 -->
<!-- Title: /home/travis/build/AliceO2Group/AliceO2/Framework/TestWorkflows Pages: 1 -->
<svg width="371pt" height="447pt"
 viewBox="0.00 0.00 370.59 447.00" xmlns="http://www.w3.org/2000/svg" xmlns:xlink="http://www.w3.org/1999/xlink">
<g id="graph0" class="graph" transform="scale(1 1) rotate(0) translate(4 443)">
<title>/home/travis/build/AliceO2Group/AliceO2/Framework/TestWorkflows</title>
<g id="clust1" class="cluster"><title>clusterdir_bcbb2cf9a3d3d83e5515c82071a07177</title>
<g id="a_clust1"><a xlink:href="dir_bcbb2cf9a3d3d83e5515c82071a07177.html" target="_top" xlink:title="Framework">
<polygon fill="#ddddee" stroke="black" points="94.5895,-344 94.5895,-431 354.59,-431 354.59,-344 94.5895,-344"/>
<text text-anchor="middle" x="224.59" y="-419" font-family="Helvetica,sans-Serif" font-size="10.00">Framework</text>
</a>
</g>
</g>
<g id="clust2" class="cluster"><title>clusterdir_a8f73827fca2a0188d35dc47dc5b0ea3</title>
<g id="a_clust2"><a xlink:href="dir_a8f73827fca2a0188d35dc47dc5b0ea3.html" target="_top">
<polygon fill="#eeeeff" stroke="black" points="102.59,-352 102.59,-404 346.59,-404 346.59,-352 102.59,-352"/>
</a>
</g>
</g>
<!-- dir_a8f73827fca2a0188d35dc47dc5b0ea3 -->
<g id="node1" class="node"><title>dir_a8f73827fca2a0188d35dc47dc5b0ea3</title>
<text text-anchor="middle" x="296.59" y="-375.5" font-family="Helvetica,sans-Serif" font-size="10.00">TestWorkflows</text>
</g>
<!-- dir_80c3b7d4c168c9aa75dd1ba81b9fa387 -->
<g id="node2" class="node"><title>dir_80c3b7d4c168c9aa75dd1ba81b9fa387</title>
<g id="a_node2"><a xlink:href="dir_80c3b7d4c168c9aa75dd1ba81b9fa387.html" target="_top" xlink:title="src">
<polygon fill="white" stroke="black" points="164.59,-396 110.59,-396 110.59,-360 164.59,-360 164.59,-396"/>
<text text-anchor="middle" x="137.59" y="-375.5" font-family="Helvetica,sans-Serif" font-size="10.00">src</text>
</a>
</g>
</g>
<!-- dir_0b342c6c6b7d2278121a0bb9c4985063 -->
<g id="node4" class="node"><title>dir_0b342c6c6b7d2278121a0bb9c4985063</title>
<g id="a_node4"><a xlink:href="dir_0b342c6c6b7d2278121a0bb9c4985063.html" target="_top" xlink:title="Generators">
<polygon fill="none" stroke="red" points="89.8395,-324 25.3395,-324 25.3395,-288 89.8395,-288 89.8395,-324"/>
<text text-anchor="middle" x="57.5895" y="-303.5" font-family="Helvetica,sans-Serif" font-size="10.00">Generators</text>
</a>
</g>
</g>
<!-- dir_80c3b7d4c168c9aa75dd1ba81b9fa387&#45;&gt;dir_0b342c6c6b7d2278121a0bb9c4985063 -->
<g id="edge1" class="edge"><title>dir_80c3b7d4c168c9aa75dd1ba81b9fa387&#45;&gt;dir_0b342c6c6b7d2278121a0bb9c4985063</title>
<path fill="none" stroke="black" d="M117.814,-359.697C107.836,-350.965 95.5787,-340.24 84.7327,-330.75"/>
<polygon fill="black" stroke="black" points="86.9679,-328.055 77.1373,-324.104 82.3583,-333.323 86.9679,-328.055"/>
<g id="a_edge1&#45;headlabel"><a xlink:href="dir_000368_000384.html" target="_top" xlink:title="1">
<text text-anchor="middle" x="91.5428" y="-325.786" font-family="Helvetica,sans-Serif" font-size="10.00">1</text>
</a>
</g>
</g>
<!-- dir_4ab6b4cc6a7edbff49100e9123df213f -->
<g id="node5" class="node"><title>dir_4ab6b4cc6a7edbff49100e9123df213f</title>
<g id="a_node5"><a xlink:href="dir_4ab6b4cc6a7edbff49100e9123df213f.html" target="_top" xlink:title="Common">
<polygon fill="none" stroke="red" points="128.09,-252 73.0895,-252 73.0895,-216 128.09,-216 128.09,-252"/>
<text text-anchor="middle" x="100.59" y="-231.5" font-family="Helvetica,sans-Serif" font-size="10.00">Common</text>
</a>
</g>
</g>
<!-- dir_80c3b7d4c168c9aa75dd1ba81b9fa387&#45;&gt;dir_4ab6b4cc6a7edbff49100e9123df213f -->
<g id="edge2" class="edge"><title>dir_80c3b7d4c168c9aa75dd1ba81b9fa387&#45;&gt;dir_4ab6b4cc6a7edbff49100e9123df213f</title>
<path fill="none" stroke="black" d="M133.126,-359.871C126.793,-335.564 115.134,-290.819 107.628,-262.013"/>
<polygon fill="black" stroke="black" points="110.977,-260.984 105.068,-252.189 104.203,-262.749 110.977,-260.984"/>
<g id="a_edge2&#45;headlabel"><a xlink:href="dir_000368_000016.html" target="_top" xlink:title="2">
<text text-anchor="middle" x="114.631" y="-261.246" font-family="Helvetica,sans-Serif" font-size="10.00">2</text>
</a>
</g>
</g>
<!-- dir_9f165b2481dacfe69aa54d326bd5cd47 -->
<g id="node6" class="node"><title>dir_9f165b2481dacfe69aa54d326bd5cd47</title>
<g id="a_node6"><a xlink:href="dir_9f165b2481dacfe69aa54d326bd5cd47.html" target="_top" xlink:title="Core">
<polygon fill="none" stroke="red" points="199.59,-36 145.59,-36 145.59,-0 199.59,-0 199.59,-36"/>
<text text-anchor="middle" x="172.59" y="-15.5" font-family="Helvetica,sans-Serif" font-size="10.00">Core</text>
</a>
</g>
</g>
<!-- dir_80c3b7d4c168c9aa75dd1ba81b9fa387&#45;&gt;dir_9f165b2481dacfe69aa54d326bd5cd47 -->
<g id="edge3" class="edge"><title>dir_80c3b7d4c168c9aa75dd1ba81b9fa387&#45;&gt;dir_9f165b2481dacfe69aa54d326bd5cd47</title>
<path fill="none" stroke="black" d="M150.526,-359.655C168.432,-333.878 198.59,-283.296 198.59,-235 198.59,-235 198.59,-235 198.59,-161 198.59,-120.553 188.257,-74.6702 180.619,-46.2788"/>
<polygon fill="black" stroke="black" points="183.897,-45.0019 177.851,-36.3017 177.152,-46.8735 183.897,-45.0019"/>
<g id="a_edge3&#45;headlabel"><a xlink:href="dir_000368_000370.html" target="_top" xlink:title="62">
<text text-anchor="middle" x="187.594" y="-45.2066" font-family="Helvetica,sans-Serif" font-size="10.00">62</text>
</a>
</g>
</g>
<!-- dir_051dca18e802f8e9474f2e30d29c04e0 -->
<g id="node7" class="node"><title>dir_051dca18e802f8e9474f2e30d29c04e0</title>
<g id="a_node7"><a xlink:href="dir_051dca18e802f8e9474f2e30d29c04e0.html" target="_top" xlink:title="Detectors">
<polygon fill="none" stroke="red" points="114.84,-108 56.3395,-108 56.3395,-72 114.84,-72 114.84,-108"/>
<text text-anchor="middle" x="85.5895" y="-87.5" font-family="Helvetica,sans-Serif" font-size="10.00">Detectors</text>
</a>
</g>
</g>
<!-- dir_80c3b7d4c168c9aa75dd1ba81b9fa387&#45;&gt;dir_051dca18e802f8e9474f2e30d29c04e0 -->
<g id="edge4" class="edge"><title>dir_80c3b7d4c168c9aa75dd1ba81b9fa387&#45;&gt;dir_051dca18e802f8e9474f2e30d29c04e0</title>
<path fill="none" stroke="black" d="M110.488,-373.794C81.398,-368.747 36.5498,-355.958 15.5895,-324 -28.3692,-256.976 31.3096,-161.285 65.1312,-116.258"/>
<polygon fill="black" stroke="black" points="68.0004,-118.268 71.3137,-108.205 62.4479,-114.006 68.0004,-118.268"/>
<g id="a_edge4&#45;headlabel"><a xlink:href="dir_000368_000028.html" target="_top" xlink:title="4">
<text text-anchor="middle" x="68.0637" y="-120.348" font-family="Helvetica,sans-Serif" font-size="10.00">4</text>
</a>
</g>
</g>
<!-- dir_2171f7ec022c5423887b07c69b2f5b48 -->
<g id="node8" class="node"><title>dir_2171f7ec022c5423887b07c69b2f5b48</title>
<g id="a_node8"><a xlink:href="dir_2171f7ec022c5423887b07c69b2f5b48.html" target="_top" xlink:title="DataFormats">
<polygon fill="none" stroke="red" points="170.59,-180 96.5895,-180 96.5895,-144 170.59,-144 170.59,-180"/>
<text text-anchor="middle" x="133.59" y="-159.5" font-family="Helvetica,sans-Serif" font-size="10.00">DataFormats</text>
</a>
</g>
</g>
<!-- dir_80c3b7d4c168c9aa75dd1ba81b9fa387&#45;&gt;dir_2171f7ec022c5423887b07c69b2f5b48 -->
<g id="edge5" class="edge"><title>dir_80c3b7d4c168c9aa75dd1ba81b9fa387&#45;&gt;dir_2171f7ec022c5423887b07c69b2f5b48</title>
<path fill="none" stroke="black" d="M137.768,-359.603C138.007,-330.07 138.229,-268.244 136.59,-216 136.328,-207.674 135.877,-198.62 135.403,-190.39"/>
<polygon fill="black" stroke="black" points="138.883,-189.945 134.781,-180.176 131.896,-190.371 138.883,-189.945"/>
<g id="a_edge5&#45;headlabel"><a xlink:href="dir_000368_000056.html" target="_top" xlink:title="2">
<text text-anchor="middle" x="141.935" y="-190.86" font-family="Helvetica,sans-Serif" font-size="10.00">2</text>
</a>
</g>
</g>
<!-- dir_b6abd220a8a509af9882e60b4042c567 -->
<g id="node3" class="node"><title>dir_b6abd220a8a509af9882e60b4042c567</title>
<g id="a_node3"><a xlink:href="dir_b6abd220a8a509af9882e60b4042c567.html" target="_top" xlink:title="test">
<polygon fill="white" stroke="black" points="236.59,-396 182.59,-396 182.59,-360 236.59,-360 236.59,-396"/>
<text text-anchor="middle" x="209.59" y="-375.5" font-family="Helvetica,sans-Serif" font-size="10.00">test</text>
</a>
</g>
</g>
<!-- dir_b6abd220a8a509af9882e60b4042c567&#45;&gt;dir_9f165b2481dacfe69aa54d326bd5cd47 -->
<g id="edge13" class="edge"><title>dir_b6abd220a8a509af9882e60b4042c567&#45;&gt;dir_9f165b2481dacfe69aa54d326bd5cd47</title>
<path fill="none" stroke="black" d="M215.053,-359.713C222.943,-333.175 236.59,-280.672 236.59,-235 236.59,-235 236.59,-235 236.59,-161 236.59,-117.079 210.827,-71.7299 191.992,-44.4445"/>
<polygon fill="black" stroke="black" points="194.81,-42.3666 186.162,-36.245 189.105,-46.423 194.81,-42.3666"/>
<g id="a_edge13&#45;headlabel"><a xlink:href="dir_000381_000370.html" target="_top" xlink:title="3">
<text text-anchor="middle" x="199.207" y="-41.1508" font-family="Helvetica,sans-Serif" font-size="10.00">3</text>
</a>
</g>
</g>
<!-- dir_0b342c6c6b7d2278121a0bb9c4985063&#45;&gt;dir_4ab6b4cc6a7edbff49100e9123df213f -->
<g id="edge6" class="edge"><title>dir_0b342c6c6b7d2278121a0bb9c4985063&#45;&gt;dir_4ab6b4cc6a7edbff49100e9123df213f</title>
<path fill="none" stroke="black" d="M68.2187,-287.697C73.2176,-279.559 79.2805,-269.689 84.8016,-260.701"/>
<polygon fill="black" stroke="black" points="87.8306,-262.457 90.0826,-252.104 81.8661,-258.793 87.8306,-262.457"/>
<g id="a_edge6&#45;headlabel"><a xlink:href="dir_000384_000016.html" target="_top" xlink:title="1">
<text text-anchor="middle" x="88.3684" y="-264.506" font-family="Helvetica,sans-Serif" font-size="10.00">1</text>
</a>
</g>
</g>
<!-- dir_4ab6b4cc6a7edbff49100e9123df213f&#45;&gt;dir_2171f7ec022c5423887b07c69b2f5b48 -->
<g id="edge7" class="edge"><title>dir_4ab6b4cc6a7edbff49100e9123df213f&#45;&gt;dir_2171f7ec022c5423887b07c69b2f5b48</title>
<path fill="none" stroke="black" d="M102.831,-215.697C105.797,-207.644 110.183,-197.894 114.794,-188.982"/>
<polygon fill="black" stroke="black" points="117.92,-190.56 119.631,-180.104 111.773,-187.211 117.92,-190.56"/>
<g id="a_edge7&#45;headlabel"><a xlink:href="dir_000016_000056.html" target="_top" xlink:title="2">
<text text-anchor="middle" x="118.694" y="-192.575" font-family="Helvetica,sans-Serif" font-size="10.00">2</text>
</a>
</g>
</g>
<!-- dir_9f165b2481dacfe69aa54d326bd5cd47&#45;&gt;dir_2171f7ec022c5423887b07c69b2f5b48 -->
<g id="edge8" class="edge"><title>dir_9f165b2481dacfe69aa54d326bd5cd47&#45;&gt;dir_2171f7ec022c5423887b07c69b2f5b48</title>
<path fill="none" stroke="black" d="M167.869,-36.1893C161.183,-60.5311 148.893,-105.28 140.989,-134.059"/>
<polygon fill="black" stroke="black" points="137.567,-133.302 138.294,-143.871 144.317,-135.156 137.567,-133.302"/>
<g id="a_edge8&#45;headlabel"><a xlink:href="dir_000370_000056.html" target="_top" xlink:title="17">
<text text-anchor="middle" x="135.781" y="-126.583" font-family="Helvetica,sans-Serif" font-size="10.00">17</text>
</a>
</g>
</g>
<!-- dir_051dca18e802f8e9474f2e30d29c04e0&#45;&gt;dir_0b342c6c6b7d2278121a0bb9c4985063 -->
<g id="edge9" class="edge"><title>dir_051dca18e802f8e9474f2e30d29c04e0&#45;&gt;dir_0b342c6c6b7d2278121a0bb9c4985063</title>
<path fill="none" stroke="black" d="M81.9397,-108.303C77.0064,-132.349 68.2881,-177.282 63.5895,-216 61.0866,-236.625 59.5592,-260.075 58.6723,-277.724"/>
<polygon fill="black" stroke="black" points="55.1681,-277.735 58.1998,-287.887 62.1605,-278.061 55.1681,-277.735"/>
<g id="a_edge9&#45;headlabel"><a xlink:href="dir_000028_000384.html" target="_top" xlink:title="1">
<text text-anchor="middle" x="52.4987" y="-271.513" font-family="Helvetica,sans-Serif" font-size="10.00">1</text>
</a>
</g>
</g>
<!-- dir_051dca18e802f8e9474f2e30d29c04e0&#45;&gt;dir_4ab6b4cc6a7edbff49100e9123df213f -->
<g id="edge10" class="edge"><title>dir_051dca18e802f8e9474f2e30d29c04e0&#45;&gt;dir_4ab6b4cc6a7edbff49100e9123df213f</title>
<path fill="none" stroke="black" d="M84.8726,-108.147C84.3777,-126.132 84.3065,-155.179 87.5895,-180 88.725,-188.585 90.707,-197.797 92.7862,-206.092"/>
<polygon fill="black" stroke="black" points="89.4664,-207.228 95.4155,-215.995 96.2319,-205.431 89.4664,-207.228"/>
<g id="a_edge10&#45;headlabel"><a xlink:href="dir_000028_000016.html" target="_top" xlink:title="60">
<text text-anchor="middle" x="85.7998" y="-201.982" font-family="Helvetica,sans-Serif" font-size="10.00">60</text>
</a>
</g>
</g>
<!-- dir_051dca18e802f8e9474f2e30d29c04e0&#45;&gt;dir_9f165b2481dacfe69aa54d326bd5cd47 -->
<g id="edge11" class="edge"><title>dir_051dca18e802f8e9474f2e30d29c04e0&#45;&gt;dir_9f165b2481dacfe69aa54d326bd5cd47</title>
<path fill="none" stroke="black" d="M107.095,-71.6966C118.052,-62.8807 131.535,-52.0321 143.414,-42.4742"/>
<polygon fill="black" stroke="black" points="145.734,-45.1001 151.331,-36.1043 141.346,-39.6462 145.734,-45.1001"/>
<g id="a_edge11&#45;headlabel"><a xlink:href="dir_000028_000370.html" target="_top" xlink:title="12">
<text text-anchor="middle" x="144.713" y="-47.0655" font-family="Helvetica,sans-Serif" font-size="10.00">12</text>
</a>
</g>
</g>
<!-- dir_051dca18e802f8e9474f2e30d29c04e0&#45;&gt;dir_2171f7ec022c5423887b07c69b2f5b48 -->
<g id="edge12" class="edge"><title>dir_051dca18e802f8e9474f2e30d29c04e0&#45;&gt;dir_2171f7ec022c5423887b07c69b2f5b48</title>
<path fill="none" stroke="black" d="M103.213,-108.104C109.624,-116.214 116.603,-126.076 122.359,-135.078"/>
<polygon fill="black" stroke="black" points="119.431,-136.999 127.64,-143.697 125.399,-133.341 119.431,-136.999"/>
<g id="a_edge12&#45;headlabel"><a xlink:href="dir_000028_000056.html" target="_top" xlink:title="245">
<text text-anchor="middle" x="115.132" y="-132.918" font-family="Helvetica,sans-Serif" font-size="10.00">245</text>
</a>
</g>
</g>
<!-- dir_2171f7ec022c5423887b07c69b2f5b48&#45;&gt;dir_4ab6b4cc6a7edbff49100e9123df213f -->
<g id="edge14" class="edge"><title>dir_2171f7ec022c5423887b07c69b2f5b48&#45;&gt;dir_4ab6b4cc6a7edbff49100e9123df213f</title>
<path fill="none" stroke="black" d="M131.421,-180.104C128.479,-188.129 124.107,-197.871 119.499,-206.797"/>
<polygon fill="black" stroke="black" points="116.362,-205.239 114.663,-215.697 122.513,-208.582 116.362,-205.239"/>
<g id="a_edge14&#45;headlabel"><a xlink:href="dir_000056_000016.html" target="_top" xlink:title="18">
<text text-anchor="middle" x="115.584" y="-198.225" font-family="Helvetica,sans-Serif" font-size="10.00">18</text>
</a>
</g>
</g>
<!-- dir_2171f7ec022c5423887b07c69b2f5b48&#45;&gt;dir_051dca18e802f8e9474f2e30d29c04e0 -->
<g id="edge15" class="edge"><title>dir_2171f7ec022c5423887b07c69b2f5b48&#45;&gt;dir_051dca18e802f8e9474f2e30d29c04e0</title>
<path fill="none" stroke="black" d="M115.809,-143.697C109.389,-135.559 102.415,-125.689 96.6796,-116.701"/>
<polygon fill="black" stroke="black" points="99.6258,-114.81 91.4232,-108.104 93.6536,-118.462 99.6258,-114.81"/>
<g id="a_edge15&#45;headlabel"><a xlink:href="dir_000056_000028.html" target="_top" xlink:title="1">
<text text-anchor="middle" x="103.923" y="-113.896" font-family="Helvetica,sans-Serif" font-size="10.00">1</text>
</a>
</g>
</g>
</g>
</svg>
