<?xml version="1.0" encoding="UTF-8" standalone="no"?>
<!DOCTYPE svg PUBLIC "-//W3C//DTD SVG 1.1//EN"
 "http://www.w3.org/Graphics/SVG/1.1/DTD/svg11.dtd">
<!-- Generated by graphviz version 2.36.0 (20140111.2315)
 -->
<!-- Title: Graphical Class Hierarchy Pages: 1 -->
<svg width="322pt" height="241pt"
 viewBox="0.00 0.00 322.00 241.00" xmlns="http://www.w3.org/2000/svg" xmlns:xlink="http://www.w3.org/1999/xlink">
<g id="graph0" class="graph" transform="scale(1 1) rotate(0) translate(4 237)">
<title>Graphical Class Hierarchy</title>
<!-- Node1 -->
<g id="node1" class="node"><title>Node1</title>
<g id="a_node1"><a xlink:href="d8/dbd/structo2_1_1header_1_1BaseHeader.html" target="_top" xlink:title="the base header struct Every header type must begin (i.e. derive) with this. Don&#39;t use this struct di...">
<polygon fill="none" stroke="black" points="0,-98.5 0,-117.5 122,-117.5 122,-98.5 0,-98.5"/>
<text text-anchor="middle" x="61" y="-105.5" font-family="Helvetica,sans-Serif" font-size="10.00">o2::header::BaseHeader</text>
</a>
</g>
</g>
<!-- Node2 -->
<g id="node2" class="node"><title>Node2</title>
<g id="a_node2"><a xlink:href="d7/df0/structo2_1_1framework_1_1DataProcessingHeader.html" target="_top" xlink:title="o2::framework::DataProcessing\lHeader">
<polygon fill="none" stroke="black" points="158.5,-203 158.5,-233 313.5,-233 313.5,-203 158.5,-203"/>
<text text-anchor="start" x="166.5" y="-221" font-family="Helvetica,sans-Serif" font-size="10.00">o2::framework::DataProcessing</text>
<text text-anchor="middle" x="236" y="-210" font-family="Helvetica,sans-Serif" font-size="10.00">Header</text>
</a>
</g>
</g>
<!-- Node1&#45;&gt;Node2 -->
<g id="edge1" class="edge"><title>Node1&#45;&gt;Node2</title>
<path fill="none" stroke="midnightblue" d="M77.2365,-125.2C94.937,-144.227 125.846,-174.619 158,-193 164.589,-196.767 171.824,-200.057 179.14,-202.903"/>
<polygon fill="midnightblue" stroke="midnightblue" points="79.6089,-122.607 70.285,-117.576 74.4361,-127.323 79.6089,-122.607"/>
</g>
<!-- Node3 -->
<g id="node3" class="node"><title>Node3</title>
<g id="a_node3"><a xlink:href="db/d87/structo2_1_1header_1_1DataHeader.html" target="_top" xlink:title="the main header struct ">
<polygon fill="none" stroke="black" points="175.5,-164.5 175.5,-183.5 296.5,-183.5 296.5,-164.5 175.5,-164.5"/>
<text text-anchor="middle" x="236" y="-171.5" font-family="Helvetica,sans-Serif" font-size="10.00">o2::header::DataHeader</text>
</a>
</g>
</g>
<!-- Node1&#45;&gt;Node3 -->
<g id="edge2" class="edge"><title>Node1&#45;&gt;Node3</title>
<path fill="none" stroke="midnightblue" d="M88.1808,-122.24C107.154,-132.137 133.648,-145.097 158,-154 168.896,-157.983 180.932,-161.506 192.187,-164.441"/>
<polygon fill="midnightblue" stroke="midnightblue" points="89.7309,-119.101 79.2545,-117.521 86.459,-125.289 89.7309,-119.101"/>
</g>
<!-- Node4 -->
<g id="node4" class="node"><title>Node4</title>
<g id="a_node4"><a xlink:href="d4/dfa/structo2_1_1header_1_1HeartbeatFrameEnvelope.html" target="_top" xlink:title="o2::header::HeartbeatFrame\lEnvelope">
<polygon fill="none" stroke="black" points="166.5,-115 166.5,-145 305.5,-145 305.5,-115 166.5,-115"/>
<text text-anchor="start" x="174.5" y="-133" font-family="Helvetica,sans-Serif" font-size="10.00">o2::header::HeartbeatFrame</text>
<text text-anchor="middle" x="236" y="-122" font-family="Helvetica,sans-Serif" font-size="10.00">Envelope</text>
</a>
</g>
</g>
<!-- Node1&#45;&gt;Node4 -->
<g id="edge3" class="edge"><title>Node1&#45;&gt;Node4</title>
<path fill="none" stroke="midnightblue" d="M132.262,-116.935C143.556,-118.371 155.233,-119.856 166.485,-121.287"/>
<polygon fill="midnightblue" stroke="midnightblue" points="132.383,-113.422 122.021,-115.633 131.5,-120.366 132.383,-113.422"/>
</g>
<!-- Node5 -->
<g id="node5" class="node"><title>Node5</title>
<g id="a_node5"><a xlink:href="d2/dda/structo2_1_1header_1_1NameHeader.html" target="_top" xlink:title="an example data header containing a name of an object as a null terminated char arr. this is a template! at instantiation the template parameter determines the size of the held string array. a caveat with decoding is (if length of string is not known) you have to use header::get&lt;NameHeader&lt;0&gt;&gt;(buffer) to get it out of a buffer. May improve in the future if enough people complain. If the compiler decides to pad the end of struct, the length of padding is stored in the last byte ">
<polygon fill="none" stroke="black" points="160,-76.5 160,-95.5 312,-95.5 312,-76.5 160,-76.5"/>
<text text-anchor="middle" x="236" y="-83.5" font-family="Helvetica,sans-Serif" font-size="10.00">o2::header::NameHeader&lt; N &gt;</text>
</a>
</g>
</g>
<!-- Node1&#45;&gt;Node5 -->
<g id="edge4" class="edge"><title>Node1&#45;&gt;Node5</title>
<path fill="none" stroke="midnightblue" d="M131.966,-99.1026C141.246,-97.9225 150.789,-96.7089 160.147,-95.5188"/>
<polygon fill="midnightblue" stroke="midnightblue" points="131.5,-95.6336 122.021,-100.367 132.383,-102.578 131.5,-95.6336"/>
</g>
<!-- Node6 -->
<g id="node6" class="node"><title>Node6</title>
<g id="a_node6"><a xlink:href="da/d75/structo2_1_1header_1_1test_1_1MetaHeader.html" target="_top" xlink:title="o2::header::test::MetaHeader">
<polygon fill="none" stroke="black" points="164,-38.5 164,-57.5 308,-57.5 308,-38.5 164,-38.5"/>
<text text-anchor="middle" x="236" y="-45.5" font-family="Helvetica,sans-Serif" font-size="10.00">o2::header::test::MetaHeader</text>
</a>
</g>
</g>
<!-- Node1&#45;&gt;Node6 -->
<g id="edge5" class="edge"><title>Node1&#45;&gt;Node6</title>
<path fill="none" stroke="midnightblue" d="M91.0642,-94.13C109.861,-85.5261 135.022,-74.6857 158,-67 168.577,-63.4623 180.169,-60.2611 191.076,-57.5377"/>
<polygon fill="midnightblue" stroke="midnightblue" points="89.4607,-91.0155 81.8602,-98.3969 92.4048,-97.3663 89.4607,-91.0155"/>
</g>
<!-- Node7 -->
<g id="node7" class="node"><title>Node7</title>
<g id="a_node7"><a xlink:href="dc/d68/structtest_1_1MetaHeader.html" target="_top" xlink:title="test::MetaHeader">
<polygon fill="none" stroke="black" points="190,-0.5 190,-19.5 282,-19.5 282,-0.5 190,-0.5"/>
<text text-anchor="middle" x="236" y="-7.5" font-family="Helvetica,sans-Serif" font-size="10.00">test::MetaHeader</text>
</a>
</g>
</g>
<!-- Node1&#45;&gt;Node7 -->
<g id="edge6" class="edge"><title>Node1&#45;&gt;Node7</title>
<path fill="none" stroke="midnightblue" d="M78.0597,-90.8443C95.9009,-72.8015 126.384,-44.8712 158,-29 167.844,-24.0582 179.056,-20.3495 189.818,-17.5859"/>
<polygon fill="midnightblue" stroke="midnightblue" points="75.2281,-88.7376 70.7932,-98.3596 80.2605,-93.6033 75.2281,-88.7376"/>
</g>
</g>
</svg>
