<?xml version="1.0" encoding="UTF-8" standalone="no"?>
<!DOCTYPE svg PUBLIC "-//W3C//DTD SVG 1.1//EN"
 "http://www.w3.org/Graphics/SVG/1.1/DTD/svg11.dtd">
<!-- Generated by graphviz version 2.36.0 (20140111.2315)
 -->
<!-- Title: Graphical Class Hierarchy Pages: 1 -->
<svg width="252pt" height="598pt"
 viewBox="0.00 0.00 252.00 598.00" xmlns="http://www.w3.org/2000/svg" xmlns:xlink="http://www.w3.org/1999/xlink">
<g id="graph0" class="graph" transform="scale(1 1) rotate(0) translate(4 594)">
<title>Graphical Class Hierarchy</title>
<!-- Node1 -->
<g id="node1" class="node"><title>Node1</title>
<g id="a_node1"><a xlink:href="d2/d9e/classFairTask.html" target="_top" xlink:title="FairTask">
<polygon fill="none" stroke="black" points="0.5,-285.5 0.5,-304.5 55.5,-304.5 55.5,-285.5 0.5,-285.5"/>
<text text-anchor="middle" x="28" y="-292.5" font-family="Helvetica,sans-Serif" font-size="10.00">FairTask</text>
</a>
</g>
</g>
<!-- Node2 -->
<g id="node2" class="node"><title>Node2</title>
<g id="a_node2"><a xlink:href="de/d8a/classo2_1_1EMCAL_1_1DigitizerTask.html" target="_top" xlink:title="o2::EMCAL::DigitizerTask">
<polygon fill="none" stroke="black" points="102.5,-570.5 102.5,-589.5 233.5,-589.5 233.5,-570.5 102.5,-570.5"/>
<text text-anchor="middle" x="168" y="-577.5" font-family="Helvetica,sans-Serif" font-size="10.00">o2::EMCAL::DigitizerTask</text>
</a>
</g>
</g>
<!-- Node1&#45;&gt;Node2 -->
<g id="edge1" class="edge"><title>Node1&#45;&gt;Node2</title>
<path fill="none" stroke="midnightblue" d="M31.0614,-314.932C37.2094,-370.544 57.185,-525.639 92,-561 95.7695,-564.829 100.192,-567.925 104.972,-570.424"/>
<polygon fill="midnightblue" stroke="midnightblue" points="34.5056,-314.224 29.959,-304.654 27.5455,-314.971 34.5056,-314.224"/>
</g>
<!-- Node3 -->
<g id="node3" class="node"><title>Node3</title>
<g id="a_node3"><a xlink:href="d4/d59/classo2_1_1fit_1_1CollisionTimeRecoTask.html" target="_top" xlink:title="o2::fit::CollisionTimeRecoTask">
<polygon fill="none" stroke="black" points="92,-532.5 92,-551.5 244,-551.5 244,-532.5 92,-532.5"/>
<text text-anchor="middle" x="168" y="-539.5" font-family="Helvetica,sans-Serif" font-size="10.00">o2::fit::CollisionTimeRecoTask</text>
</a>
</g>
</g>
<!-- Node1&#45;&gt;Node3 -->
<g id="edge2" class="edge"><title>Node1&#45;&gt;Node3</title>
<path fill="none" stroke="midnightblue" d="M28.2964,-314.959C27.8885,-359.108 33.4134,-465.658 92,-523 95.9358,-526.852 100.535,-529.958 105.483,-532.457"/>
<polygon fill="midnightblue" stroke="midnightblue" points="31.7964,-314.994 28.5067,-304.922 24.7979,-314.847 31.7964,-314.994"/>
</g>
<!-- Node4 -->
<g id="node4" class="node"><title>Node4</title>
<g id="a_node4"><a xlink:href="de/d40/classo2_1_1fit_1_1DigitizerTask.html" target="_top" xlink:title="o2::fit::DigitizerTask">
<polygon fill="none" stroke="black" points="115.5,-494.5 115.5,-513.5 220.5,-513.5 220.5,-494.5 115.5,-494.5"/>
<text text-anchor="middle" x="168" y="-501.5" font-family="Helvetica,sans-Serif" font-size="10.00">o2::fit::DigitizerTask</text>
</a>
</g>
</g>
<!-- Node1&#45;&gt;Node4 -->
<g id="edge3" class="edge"><title>Node1&#45;&gt;Node4</title>
<path fill="none" stroke="midnightblue" d="M29.6127,-314.992C31.9191,-353.697 42.6571,-439.09 92,-485 98.5887,-491.13 106.866,-495.353 115.496,-498.247"/>
<polygon fill="midnightblue" stroke="midnightblue" points="33.0894,-314.403 29.1342,-304.574 26.0968,-314.724 33.0894,-314.403"/>
</g>
<!-- Node5 -->
<g id="node5" class="node"><title>Node5</title>
<g id="a_node5"><a xlink:href="db/df6/classo2_1_1ITS_1_1ClustererTask.html" target="_top" xlink:title="o2::ITS::ClustererTask">
<polygon fill="none" stroke="black" points="110,-456.5 110,-475.5 226,-475.5 226,-456.5 110,-456.5"/>
<text text-anchor="middle" x="168" y="-463.5" font-family="Helvetica,sans-Serif" font-size="10.00">o2::ITS::ClustererTask</text>
</a>
</g>
</g>
<!-- Node1&#45;&gt;Node5 -->
<g id="edge4" class="edge"><title>Node1&#45;&gt;Node5</title>
<path fill="none" stroke="midnightblue" d="M31.4606,-314.582C36.6099,-347.09 51.6036,-412.067 92,-447 97.1817,-451.481 103.275,-454.93 109.712,-457.582"/>
<polygon fill="midnightblue" stroke="midnightblue" points="34.905,-313.944 30.0243,-304.54 27.9756,-314.935 34.905,-313.944"/>
</g>
<!-- Node6 -->
<g id="node6" class="node"><title>Node6</title>
<g id="a_node6"><a xlink:href="d8/d68/classo2_1_1ITS_1_1CookedTrackerTask.html" target="_top" xlink:title="o2::ITS::CookedTrackerTask">
<polygon fill="none" stroke="black" points="96.5,-418.5 96.5,-437.5 239.5,-437.5 239.5,-418.5 96.5,-418.5"/>
<text text-anchor="middle" x="168" y="-425.5" font-family="Helvetica,sans-Serif" font-size="10.00">o2::ITS::CookedTrackerTask</text>
</a>
</g>
</g>
<!-- Node1&#45;&gt;Node6 -->
<g id="edge5" class="edge"><title>Node1&#45;&gt;Node6</title>
<path fill="none" stroke="midnightblue" d="M34.3969,-314.374C42.5525,-339.989 60.5094,-384.71 92,-409 96.9988,-412.856 102.69,-415.936 108.651,-418.396"/>
<polygon fill="midnightblue" stroke="midnightblue" points="37.7153,-313.254 31.4908,-304.681 31.0102,-315.265 37.7153,-313.254"/>
</g>
<!-- Node7 -->
<g id="node7" class="node"><title>Node7</title>
<g id="a_node7"><a xlink:href="de/d22/classo2_1_1ITS_1_1DigitizerTask.html" target="_top" xlink:title="o2::ITS::DigitizerTask">
<polygon fill="none" stroke="black" points="111.5,-380.5 111.5,-399.5 224.5,-399.5 224.5,-380.5 111.5,-380.5"/>
<text text-anchor="middle" x="168" y="-387.5" font-family="Helvetica,sans-Serif" font-size="10.00">o2::ITS::DigitizerTask</text>
</a>
</g>
</g>
<!-- Node1&#45;&gt;Node7 -->
<g id="edge6" class="edge"><title>Node1&#45;&gt;Node7</title>
<path fill="none" stroke="midnightblue" d="M39.4346,-313.321C50.3267,-330.776 69.0158,-356.482 92,-371 98.1324,-374.874 105.015,-377.959 112.058,-380.415"/>
<polygon fill="midnightblue" stroke="midnightblue" points="42.3494,-311.376 34.2078,-304.596 36.3444,-314.973 42.3494,-311.376"/>
</g>
<!-- Node8 -->
<g id="node8" class="node"><title>Node8</title>
<g id="a_node8"><a xlink:href="d6/df5/classo2_1_1ITS_1_1HitAnalysis.html" target="_top" xlink:title="o2::ITS::HitAnalysis">
<polygon fill="none" stroke="black" points="115.5,-342.5 115.5,-361.5 220.5,-361.5 220.5,-342.5 115.5,-342.5"/>
<text text-anchor="middle" x="168" y="-349.5" font-family="Helvetica,sans-Serif" font-size="10.00">o2::ITS::HitAnalysis</text>
</a>
</g>
</g>
<!-- Node1&#45;&gt;Node8 -->
<g id="edge7" class="edge"><title>Node1&#45;&gt;Node8</title>
<path fill="none" stroke="midnightblue" d="M50.6857,-310.265C62.4607,-317.981 77.5346,-326.962 92,-333 100.925,-336.725 110.762,-339.858 120.293,-342.437"/>
<polygon fill="midnightblue" stroke="midnightblue" points="52.6395,-307.361 42.389,-304.682 48.7312,-313.169 52.6395,-307.361"/>
</g>
<!-- Node9 -->
<g id="node9" class="node"><title>Node9</title>
<g id="a_node9"><a xlink:href="db/d78/classo2_1_1ITS_1_1TrivialClustererTask.html" target="_top" xlink:title="o2::ITS::TrivialClustererTask">
<polygon fill="none" stroke="black" points="96.5,-304.5 96.5,-323.5 239.5,-323.5 239.5,-304.5 96.5,-304.5"/>
<text text-anchor="middle" x="168" y="-311.5" font-family="Helvetica,sans-Serif" font-size="10.00">o2::ITS::TrivialClustererTask</text>
</a>
</g>
</g>
<!-- Node1&#45;&gt;Node9 -->
<g id="edge8" class="edge"><title>Node1&#45;&gt;Node9</title>
<path fill="none" stroke="midnightblue" d="M65.5186,-300.028C75.4824,-301.4 86.617,-302.933 97.7599,-304.467"/>
<polygon fill="midnightblue" stroke="midnightblue" points="65.9917,-296.56 55.6078,-298.663 65.0369,-303.495 65.9917,-296.56"/>
</g>
<!-- Node10 -->
<g id="node10" class="node"><title>Node10</title>
<g id="a_node10"><a xlink:href="d7/d6d/classo2_1_1MFT_1_1ClustererTask.html" target="_top" xlink:title="o2::MFT::ClustererTask">
<polygon fill="none" stroke="black" points="107.5,-266.5 107.5,-285.5 228.5,-285.5 228.5,-266.5 107.5,-266.5"/>
<text text-anchor="middle" x="168" y="-273.5" font-family="Helvetica,sans-Serif" font-size="10.00">o2::MFT::ClustererTask</text>
</a>
</g>
</g>
<!-- Node1&#45;&gt;Node10 -->
<g id="edge9" class="edge"><title>Node1&#45;&gt;Node10</title>
<path fill="none" stroke="midnightblue" d="M65.8214,-289.93C78.5727,-288.175 93.2133,-286.159 107.324,-284.216"/>
<polygon fill="midnightblue" stroke="midnightblue" points="65.0369,-286.505 55.6078,-291.337 65.9917,-293.44 65.0369,-286.505"/>
</g>
<!-- Node11 -->
<g id="node11" class="node"><title>Node11</title>
<g id="a_node11"><a xlink:href="d0/d22/classo2_1_1MFT_1_1DigitizerTask.html" target="_top" xlink:title="o2::MFT::DigitizerTask">
<polygon fill="none" stroke="black" points="109.5,-228.5 109.5,-247.5 226.5,-247.5 226.5,-228.5 109.5,-228.5"/>
<text text-anchor="middle" x="168" y="-235.5" font-family="Helvetica,sans-Serif" font-size="10.00">o2::MFT::DigitizerTask</text>
</a>
</g>
</g>
<!-- Node1&#45;&gt;Node11 -->
<g id="edge10" class="edge"><title>Node1&#45;&gt;Node11</title>
<path fill="none" stroke="midnightblue" d="M50.6857,-279.735C62.4607,-272.019 77.5346,-263.038 92,-257 100.925,-253.275 110.762,-250.142 120.293,-247.563"/>
<polygon fill="midnightblue" stroke="midnightblue" points="48.7312,-276.831 42.389,-285.318 52.6395,-282.639 48.7312,-276.831"/>
</g>
<!-- Node12 -->
<g id="node12" class="node"><title>Node12</title>
<g id="a_node12"><a xlink:href="dc/d5b/classo2_1_1MFT_1_1TrackerTask.html" target="_top" xlink:title="o2::MFT::TrackerTask">
<polygon fill="none" stroke="black" points="111,-190.5 111,-209.5 225,-209.5 225,-190.5 111,-190.5"/>
<text text-anchor="middle" x="168" y="-197.5" font-family="Helvetica,sans-Serif" font-size="10.00">o2::MFT::TrackerTask</text>
</a>
</g>
</g>
<!-- Node1&#45;&gt;Node12 -->
<g id="edge11" class="edge"><title>Node1&#45;&gt;Node12</title>
<path fill="none" stroke="midnightblue" d="M39.4346,-276.679C50.3267,-259.224 69.0158,-233.518 92,-219 98.1324,-215.126 105.015,-212.041 112.058,-209.585"/>
<polygon fill="midnightblue" stroke="midnightblue" points="36.3444,-275.027 34.2078,-285.404 42.3494,-278.624 36.3444,-275.027"/>
</g>
<!-- Node13 -->
<g id="node13" class="node"><title>Node13</title>
<g id="a_node13"><a xlink:href="d1/df7/classo2_1_1phos_1_1ClustererTask.html" target="_top" xlink:title="o2::phos::ClustererTask">
<polygon fill="none" stroke="black" points="107,-152.5 107,-171.5 229,-171.5 229,-152.5 107,-152.5"/>
<text text-anchor="middle" x="168" y="-159.5" font-family="Helvetica,sans-Serif" font-size="10.00">o2::phos::ClustererTask</text>
</a>
</g>
</g>
<!-- Node1&#45;&gt;Node13 -->
<g id="edge12" class="edge"><title>Node1&#45;&gt;Node13</title>
<path fill="none" stroke="midnightblue" d="M34.3969,-275.626C42.5525,-250.011 60.5094,-205.29 92,-181 96.9988,-177.144 102.69,-174.064 108.651,-171.604"/>
<polygon fill="midnightblue" stroke="midnightblue" points="31.0102,-274.735 31.4908,-285.319 37.7153,-276.746 31.0102,-274.735"/>
</g>
<!-- Node14 -->
<g id="node14" class="node"><title>Node14</title>
<g id="a_node14"><a xlink:href="d2/d40/classo2_1_1phos_1_1DigitizerTask.html" target="_top" xlink:title="o2::phos::DigitizerTask">
<polygon fill="none" stroke="black" points="109,-114.5 109,-133.5 227,-133.5 227,-114.5 109,-114.5"/>
<text text-anchor="middle" x="168" y="-121.5" font-family="Helvetica,sans-Serif" font-size="10.00">o2::phos::DigitizerTask</text>
</a>
</g>
</g>
<!-- Node1&#45;&gt;Node14 -->
<g id="edge13" class="edge"><title>Node1&#45;&gt;Node14</title>
<path fill="none" stroke="midnightblue" d="M31.4606,-275.418C36.6099,-242.91 51.6036,-177.933 92,-143 96.9785,-138.695 102.799,-135.342 108.956,-132.734"/>
<polygon fill="midnightblue" stroke="midnightblue" points="27.9756,-275.065 30.0243,-285.46 34.905,-276.056 27.9756,-275.065"/>
</g>
<!-- Node15 -->
<g id="node15" class="node"><title>Node15</title>
<g id="a_node15"><a xlink:href="d0/dad/classo2_1_1tof_1_1DigitizerTask.html" target="_top" xlink:title="o2::tof::DigitizerTask">
<polygon fill="none" stroke="black" points="114,-76.5 114,-95.5 222,-95.5 222,-76.5 114,-76.5"/>
<text text-anchor="middle" x="168" y="-83.5" font-family="Helvetica,sans-Serif" font-size="10.00">o2::tof::DigitizerTask</text>
</a>
</g>
</g>
<!-- Node1&#45;&gt;Node15 -->
<g id="edge14" class="edge"><title>Node1&#45;&gt;Node15</title>
<path fill="none" stroke="midnightblue" d="M29.6127,-275.008C31.9191,-236.303 42.6571,-150.91 92,-105 98.1954,-99.2357 105.884,-95.1578 113.955,-92.2855"/>
<polygon fill="midnightblue" stroke="midnightblue" points="26.0968,-275.276 29.1342,-285.426 33.0894,-275.597 26.0968,-275.276"/>
</g>
<!-- Node16 -->
<g id="node16" class="node"><title>Node16</title>
<g id="a_node16"><a xlink:href="db/df7/classo2_1_1TPC_1_1ClustererTask.html" target="_top" xlink:title="o2::TPC::ClustererTask">
<polygon fill="none" stroke="black" points="107.5,-38.5 107.5,-57.5 228.5,-57.5 228.5,-38.5 107.5,-38.5"/>
<text text-anchor="middle" x="168" y="-45.5" font-family="Helvetica,sans-Serif" font-size="10.00">o2::TPC::ClustererTask</text>
</a>
</g>
</g>
<!-- Node1&#45;&gt;Node16 -->
<g id="edge15" class="edge"><title>Node1&#45;&gt;Node16</title>
<path fill="none" stroke="midnightblue" d="M28.2964,-275.041C27.8885,-230.892 33.4134,-124.342 92,-67 96.4157,-62.6781 101.666,-59.2959 107.309,-56.6553"/>
<polygon fill="midnightblue" stroke="midnightblue" points="24.7979,-275.153 28.5067,-285.078 31.7964,-275.006 24.7979,-275.153"/>
</g>
<!-- Node17 -->
<g id="node17" class="node"><title>Node17</title>
<g id="a_node17"><a xlink:href="dd/d64/classo2_1_1TPC_1_1DigitizerTask.html" target="_top" xlink:title="o2::TPC::DigitizerTask">
<polygon fill="none" stroke="black" points="109.5,-0.5 109.5,-19.5 226.5,-19.5 226.5,-0.5 109.5,-0.5"/>
<text text-anchor="middle" x="168" y="-7.5" font-family="Helvetica,sans-Serif" font-size="10.00">o2::TPC::DigitizerTask</text>
</a>
</g>
</g>
<!-- Node1&#45;&gt;Node17 -->
<g id="edge16" class="edge"><title>Node1&#45;&gt;Node17</title>
<path fill="none" stroke="midnightblue" d="M31.0614,-275.068C37.2094,-219.456 57.185,-64.3609 92,-29 96.9004,-24.0228 102.904,-20.2836 109.362,-17.4849"/>
<polygon fill="midnightblue" stroke="midnightblue" points="27.5455,-275.029 29.959,-285.346 34.5056,-275.776 27.5455,-275.029"/>
</g>
</g>
</svg>
