<?xml version="1.0" encoding="UTF-8" standalone="no"?>
<!DOCTYPE svg PUBLIC "-//W3C//DTD SVG 1.1//EN"
 "http://www.w3.org/Graphics/SVG/1.1/DTD/svg11.dtd">
<!-- Generated by graphviz version 2.36.0 (20140111.2315)
 -->
<!-- Title: Graphical Class Hierarchy Pages: 1 -->
<svg width="454pt" height="87pt"
 viewBox="0.00 0.00 454.00 87.00" xmlns="http://www.w3.org/2000/svg" xmlns:xlink="http://www.w3.org/1999/xlink">
<g id="graph0" class="graph" transform="scale(1 1) rotate(0) translate(4 83)">
<title>Graphical Class Hierarchy</title>
<!-- Node1 -->
<g id="node1" class="node"><title>Node1</title>
<polygon fill="none" stroke="#bfbfbf" points="0.5,-29.5 0.5,-48.5 95.5,-48.5 95.5,-29.5 0.5,-29.5"/>
<text text-anchor="middle" x="48" y="-36.5" font-family="Helvetica,sans-Serif" font-size="10.00">memory_resource</text>
</g>
<!-- Node2 -->
<g id="node2" class="node"><title>Node2</title>
<g id="a_node2"><a xlink:href="d1/dcc/classo2_1_1memoryResources_1_1FairMQMemoryResource.html" target="_top" xlink:title="All FairMQ related memory resources need to inherit from this interface class for the getMessage() ap...">
<polygon fill="none" stroke="black" points="132,-24 132,-54 264,-54 264,-24 132,-24"/>
<text text-anchor="start" x="140" y="-42" font-family="Helvetica,sans-Serif" font-size="10.00">o2::memoryResources</text>
<text text-anchor="middle" x="198" y="-31" font-family="Helvetica,sans-Serif" font-size="10.00">::FairMQMemoryResource</text>
</a>
</g>
</g>
<!-- Node1&#45;&gt;Node2 -->
<g id="edge1" class="edge"><title>Node1&#45;&gt;Node2</title>
<path fill="none" stroke="midnightblue" d="M105.962,-39C114.424,-39 123.201,-39 131.816,-39"/>
<polygon fill="midnightblue" stroke="midnightblue" points="105.828,-35.5001 95.8281,-39 105.828,-42.5001 105.828,-35.5001"/>
</g>
<!-- Node3 -->
<g id="node3" class="node"><title>Node3</title>
<g id="a_node3"><a xlink:href="df/d21/classo2_1_1memoryResources_1_1ChannelResource.html" target="_top" xlink:title="o2::memoryResources\l::ChannelResource">
<polygon fill="none" stroke="black" points="315,-49 315,-79 431,-79 431,-49 315,-49"/>
<text text-anchor="start" x="323" y="-67" font-family="Helvetica,sans-Serif" font-size="10.00">o2::memoryResources</text>
<text text-anchor="middle" x="373" y="-56" font-family="Helvetica,sans-Serif" font-size="10.00">::ChannelResource</text>
</a>
</g>
</g>
<!-- Node2&#45;&gt;Node3 -->
<g id="edge2" class="edge"><title>Node2&#45;&gt;Node3</title>
<path fill="none" stroke="midnightblue" d="M274.605,-49.9256C288.065,-51.8706 301.882,-53.8674 314.726,-55.7234"/>
<polygon fill="midnightblue" stroke="midnightblue" points="274.802,-46.4177 264.404,-48.4514 273.8,-53.3458 274.802,-46.4177"/>
</g>
<!-- Node4 -->
<g id="node4" class="node"><title>Node4</title>
<g id="a_node4"><a xlink:href="dd/d7e/classo2_1_1memoryResources_1_1SpectatorMessageResource.html" target="_top" xlink:title="o2::memoryResources\l::SpectatorMessageResource">
<polygon fill="none" stroke="black" points="300,-0 300,-30 446,-30 446,-0 300,-0"/>
<text text-anchor="start" x="308" y="-18" font-family="Helvetica,sans-Serif" font-size="10.00">o2::memoryResources</text>
<text text-anchor="middle" x="373" y="-7" font-family="Helvetica,sans-Serif" font-size="10.00">::SpectatorMessageResource</text>
</a>
</g>
</g>
<!-- Node2&#45;&gt;Node4 -->
<g id="edge3" class="edge"><title>Node2&#45;&gt;Node4</title>
<path fill="none" stroke="midnightblue" d="M274.557,-28.5181C282.955,-27.353 291.493,-26.1685 299.848,-25.0095"/>
<polygon fill="midnightblue" stroke="midnightblue" points="273.828,-25.0856 264.404,-29.9266 274.79,-32.0192 273.828,-25.0856"/>
</g>
</g>
</svg>
