<?xml version="1.0" encoding="UTF-8" standalone="no"?>
<!DOCTYPE svg PUBLIC "-//W3C//DTD SVG 1.1//EN"
 "http://www.w3.org/Graphics/SVG/1.1/DTD/svg11.dtd">
<!-- Generated by graphviz version 2.36.0 (20140111.2315)
 -->
<!-- Title: Graphical Class Hierarchy Pages: 1 -->
<svg width="446pt" height="674pt"
 viewBox="0.00 0.00 446.00 674.00" xmlns="http://www.w3.org/2000/svg" xmlns:xlink="http://www.w3.org/1999/xlink">
<g id="graph0" class="graph" transform="scale(1 1) rotate(0) translate(4 670)">
<title>Graphical Class Hierarchy</title>
<!-- Node1 -->
<g id="node1" class="node"><title>Node1</title>
<g id="a_node1"><a xlink:href="d5/d0f/classTObject.html" target="_top" xlink:title="TObject">
<polygon fill="none" stroke="black" points="0.5,-323.5 0.5,-342.5 51.5,-342.5 51.5,-323.5 0.5,-323.5"/>
<text text-anchor="middle" x="26" y="-330.5" font-family="Helvetica,sans-Serif" font-size="10.00">TObject</text>
</a>
</g>
</g>
<!-- Node2 -->
<g id="node2" class="node"><title>Node2</title>
<g id="a_node2"><a xlink:href="d2/da4/classo2_1_1Base_1_1GeometryManager.html" target="_top" xlink:title="o2::Base::GeometryManager">
<polygon fill="none" stroke="black" points="90,-646.5 90,-665.5 232,-665.5 232,-646.5 90,-646.5"/>
<text text-anchor="middle" x="161" y="-653.5" font-family="Helvetica,sans-Serif" font-size="10.00">o2::Base::GeometryManager</text>
</a>
</g>
</g>
<!-- Node1&#45;&gt;Node2 -->
<g id="edge1" class="edge"><title>Node1&#45;&gt;Node2</title>
<path fill="none" stroke="midnightblue" d="M28.3001,-352.9C32.6713,-413.699 48.8223,-595.399 88,-637 91.6339,-640.859 95.9506,-643.969 100.638,-646.471"/>
<polygon fill="midnightblue" stroke="midnightblue" points="31.7779,-352.457 27.5987,-342.722 24.7945,-352.939 31.7779,-352.457"/>
</g>
<!-- Node3 -->
<g id="node3" class="node"><title>Node3</title>
<g id="a_node3"><a xlink:href="d8/dcd/classo2_1_1CDB_1_1Condition.html" target="_top" xlink:title="o2::CDB::Condition">
<polygon fill="none" stroke="black" points="110,-608.5 110,-627.5 212,-627.5 212,-608.5 110,-608.5"/>
<text text-anchor="middle" x="161" y="-615.5" font-family="Helvetica,sans-Serif" font-size="10.00">o2::CDB::Condition</text>
</a>
</g>
</g>
<!-- Node1&#45;&gt;Node3 -->
<g id="edge2" class="edge"><title>Node1&#45;&gt;Node3</title>
<path fill="none" stroke="midnightblue" d="M28.921,-352.909C34.6757,-408.458 53.5445,-563.403 88,-599 93.9342,-605.131 101.594,-609.363 109.696,-612.269"/>
<polygon fill="midnightblue" stroke="midnightblue" points="32.3719,-352.243 27.8911,-342.642 25.4068,-352.942 32.3719,-352.243"/>
</g>
<!-- Node4 -->
<g id="node4" class="node"><title>Node4</title>
<g id="a_node4"><a xlink:href="d7/dc9/classo2_1_1CDB_1_1ConditionId.html" target="_top" xlink:title="o2::CDB::ConditionId">
<polygon fill="none" stroke="black" points="106,-570.5 106,-589.5 216,-589.5 216,-570.5 106,-570.5"/>
<text text-anchor="middle" x="161" y="-577.5" font-family="Helvetica,sans-Serif" font-size="10.00">o2::CDB::ConditionId</text>
</a>
</g>
</g>
<!-- Node1&#45;&gt;Node4 -->
<g id="edge3" class="edge"><title>Node1&#45;&gt;Node4</title>
<path fill="none" stroke="midnightblue" d="M26.1426,-352.902C25.3905,-396.933 30.0624,-503.26 88,-561 93.0364,-566.019 99.232,-569.759 105.856,-572.537"/>
<polygon fill="midnightblue" stroke="midnightblue" points="29.6414,-352.989 26.4307,-342.892 22.6443,-352.787 29.6414,-352.989"/>
</g>
<!-- Node5 -->
<g id="node5" class="node"><title>Node5</title>
<g id="a_node5"><a xlink:href="d8/d14/classo2_1_1CDB_1_1ConditionMetaData.html" target="_top" xlink:title="o2::CDB::ConditionMetaData">
<polygon fill="none" stroke="black" points="88.5,-532.5 88.5,-551.5 233.5,-551.5 233.5,-532.5 88.5,-532.5"/>
<text text-anchor="middle" x="161" y="-539.5" font-family="Helvetica,sans-Serif" font-size="10.00">o2::CDB::ConditionMetaData</text>
</a>
</g>
</g>
<!-- Node1&#45;&gt;Node5 -->
<g id="edge4" class="edge"><title>Node1&#45;&gt;Node5</title>
<path fill="none" stroke="midnightblue" d="M27.4227,-352.933C29.3575,-391.536 39.2564,-476.758 88,-523 92.0329,-526.826 96.7424,-529.903 101.787,-532.374"/>
<polygon fill="midnightblue" stroke="midnightblue" points="30.9061,-352.41 27.0438,-342.544 23.9107,-352.665 30.9061,-352.41"/>
</g>
<!-- Node6 -->
<g id="node6" class="node"><title>Node6</title>
<g id="a_node6"><a xlink:href="d6/dae/classo2_1_1CDB_1_1IdPath.html" target="_top" xlink:title="o2::CDB::IdPath">
<polygon fill="none" stroke="black" points="116.5,-494.5 116.5,-513.5 205.5,-513.5 205.5,-494.5 116.5,-494.5"/>
<text text-anchor="middle" x="161" y="-501.5" font-family="Helvetica,sans-Serif" font-size="10.00">o2::CDB::IdPath</text>
</a>
</g>
</g>
<!-- Node1&#45;&gt;Node6 -->
<g id="edge5" class="edge"><title>Node1&#45;&gt;Node6</title>
<path fill="none" stroke="midnightblue" d="M29.224,-352.524C33.9764,-384.948 48.1594,-449.804 88,-485 95.9447,-492.019 106.187,-496.49 116.44,-499.327"/>
<polygon fill="midnightblue" stroke="midnightblue" points="32.6813,-351.97 27.9097,-342.51 25.7408,-352.881 32.6813,-351.97"/>
</g>
<!-- Node7 -->
<g id="node7" class="node"><title>Node7</title>
<g id="a_node7"><a xlink:href="d5/dc9/classo2_1_1CDB_1_1IdRunRange.html" target="_top" xlink:title="o2::CDB::IdRunRange">
<polygon fill="none" stroke="black" points="103,-456.5 103,-475.5 219,-475.5 219,-456.5 103,-456.5"/>
<text text-anchor="middle" x="161" y="-463.5" font-family="Helvetica,sans-Serif" font-size="10.00">o2::CDB::IdRunRange</text>
</a>
</g>
</g>
<!-- Node1&#45;&gt;Node7 -->
<g id="edge6" class="edge"><title>Node1&#45;&gt;Node7</title>
<path fill="none" stroke="midnightblue" d="M32.0833,-352.319C39.8193,-377.872 57.025,-422.523 88,-447 92.8688,-450.847 98.443,-453.92 104.287,-456.373"/>
<polygon fill="midnightblue" stroke="midnightblue" points="35.4362,-351.313 29.3351,-342.651 28.7029,-353.227 35.4362,-351.313"/>
</g>
<!-- Node8 -->
<g id="node8" class="node"><title>Node8</title>
<g id="a_node8"><a xlink:href="d2/d59/classo2_1_1CDB_1_1Manager.html" target="_top" xlink:title="o2::CDB::Manager">
<polygon fill="none" stroke="black" points="112,-418.5 112,-437.5 210,-437.5 210,-418.5 112,-418.5"/>
<text text-anchor="middle" x="161" y="-425.5" font-family="Helvetica,sans-Serif" font-size="10.00">o2::CDB::Manager</text>
</a>
</g>
</g>
<!-- Node1&#45;&gt;Node8 -->
<g id="edge7" class="edge"><title>Node1&#45;&gt;Node8</title>
<path fill="none" stroke="midnightblue" d="M36.9951,-351.276C47.46,-368.696 65.4961,-394.377 88,-409 95.1546,-413.649 103.406,-417.164 111.713,-419.82"/>
<polygon fill="midnightblue" stroke="midnightblue" points="40.0044,-349.488 31.9799,-342.57 33.9389,-352.982 40.0044,-349.488"/>
</g>
<!-- Node9 -->
<g id="node9" class="node"><title>Node9</title>
<g id="a_node9"><a xlink:href="df/d3a/classo2_1_1CDB_1_1Storage.html" target="_top" xlink:title="o2::CDB::Storage">
<polygon fill="none" stroke="black" points="113.5,-380.5 113.5,-399.5 208.5,-399.5 208.5,-380.5 113.5,-380.5"/>
<text text-anchor="middle" x="161" y="-387.5" font-family="Helvetica,sans-Serif" font-size="10.00">o2::CDB::Storage</text>
</a>
</g>
</g>
<!-- Node1&#45;&gt;Node9 -->
<g id="edge8" class="edge"><title>Node1&#45;&gt;Node9</title>
<path fill="none" stroke="midnightblue" d="M48.2914,-348.467C59.6311,-356.124 74.0803,-364.99 88,-371 96.6643,-374.741 106.242,-377.893 115.507,-380.488"/>
<polygon fill="midnightblue" stroke="midnightblue" points="50.1435,-345.492 39.9333,-342.663 46.1509,-351.242 50.1435,-345.492"/>
</g>
<!-- Node13 -->
<g id="node13" class="node"><title>Node13</title>
<g id="a_node13"><a xlink:href="dd/d3f/classo2_1_1CDB_1_1StorageFactory.html" target="_top" xlink:title="o2::CDB::StorageFactory">
<polygon fill="none" stroke="black" points="97,-342.5 97,-361.5 225,-361.5 225,-342.5 97,-342.5"/>
<text text-anchor="middle" x="161" y="-349.5" font-family="Helvetica,sans-Serif" font-size="10.00">o2::CDB::StorageFactory</text>
</a>
</g>
</g>
<!-- Node1&#45;&gt;Node13 -->
<g id="edge12" class="edge"><title>Node1&#45;&gt;Node13</title>
<path fill="none" stroke="midnightblue" d="M61.9362,-337.991C72.7061,-339.529 84.9141,-341.273 96.9697,-342.996"/>
<polygon fill="midnightblue" stroke="midnightblue" points="62.0991,-334.479 51.7046,-336.529 61.1091,-341.408 62.0991,-334.479"/>
</g>
<!-- Node17 -->
<g id="node17" class="node"><title>Node17</title>
<g id="a_node17"><a xlink:href="d2/d64/classo2_1_1CDB_1_1StorageParameters.html" target="_top" xlink:title="o2::CDB::StorageParameters">
<polygon fill="none" stroke="black" points="88.5,-304.5 88.5,-323.5 233.5,-323.5 233.5,-304.5 88.5,-304.5"/>
<text text-anchor="middle" x="161" y="-311.5" font-family="Helvetica,sans-Serif" font-size="10.00">o2::CDB::StorageParameters</text>
</a>
</g>
</g>
<!-- Node1&#45;&gt;Node17 -->
<g id="edge16" class="edge"><title>Node1&#45;&gt;Node17</title>
<path fill="none" stroke="midnightblue" d="M61.7395,-328.037C71.4675,-326.648 82.3805,-325.089 93.3006,-323.528"/>
<polygon fill="midnightblue" stroke="midnightblue" points="61.1091,-324.592 51.7046,-329.471 62.0991,-331.521 61.1091,-324.592"/>
</g>
<!-- Node21 -->
<g id="node21" class="node"><title>Node21</title>
<g id="a_node21"><a xlink:href="d4/d8b/classo2_1_1CDB_1_1XmlHandler.html" target="_top" xlink:title="o2::CDB::XmlHandler">
<polygon fill="none" stroke="black" points="105,-266.5 105,-285.5 217,-285.5 217,-266.5 105,-266.5"/>
<text text-anchor="middle" x="161" y="-273.5" font-family="Helvetica,sans-Serif" font-size="10.00">o2::CDB::XmlHandler</text>
</a>
</g>
</g>
<!-- Node1&#45;&gt;Node21 -->
<g id="edge20" class="edge"><title>Node1&#45;&gt;Node21</title>
<path fill="none" stroke="midnightblue" d="M48.2914,-317.533C59.6311,-309.876 74.0803,-301.01 88,-295 96.6643,-291.259 106.242,-288.107 115.507,-285.512"/>
<polygon fill="midnightblue" stroke="midnightblue" points="46.1509,-314.758 39.9333,-323.337 50.1435,-320.508 46.1509,-314.758"/>
</g>
<!-- Node22 -->
<g id="node22" class="node"><title>Node22</title>
<g id="a_node22"><a xlink:href="d6/d00/classo2_1_1EMCAL_1_1Digitizer.html" target="_top" xlink:title="o2::EMCAL::Digitizer">
<polygon fill="none" stroke="black" points="106,-228.5 106,-247.5 216,-247.5 216,-228.5 106,-228.5"/>
<text text-anchor="middle" x="161" y="-235.5" font-family="Helvetica,sans-Serif" font-size="10.00">o2::EMCAL::Digitizer</text>
</a>
</g>
</g>
<!-- Node1&#45;&gt;Node22 -->
<g id="edge21" class="edge"><title>Node1&#45;&gt;Node22</title>
<path fill="none" stroke="midnightblue" d="M36.9951,-314.724C47.46,-297.304 65.4961,-271.623 88,-257 93.9622,-253.126 100.686,-250.039 107.569,-247.581"/>
<polygon fill="midnightblue" stroke="midnightblue" points="33.9389,-313.018 31.9799,-323.43 40.0044,-316.512 33.9389,-313.018"/>
</g>
<!-- Node23 -->
<g id="node23" class="node"><title>Node23</title>
<g id="a_node23"><a xlink:href="d6/d5b/classo2_1_1ITS_1_1V11Geometry.html" target="_top" xlink:title="o2::ITS::V11Geometry">
<polygon fill="none" stroke="black" points="103.5,-190.5 103.5,-209.5 218.5,-209.5 218.5,-190.5 103.5,-190.5"/>
<text text-anchor="middle" x="161" y="-197.5" font-family="Helvetica,sans-Serif" font-size="10.00">o2::ITS::V11Geometry</text>
</a>
</g>
</g>
<!-- Node1&#45;&gt;Node23 -->
<g id="edge22" class="edge"><title>Node1&#45;&gt;Node23</title>
<path fill="none" stroke="midnightblue" d="M32.0833,-313.681C39.8193,-288.128 57.025,-243.477 88,-219 92.8688,-215.153 98.443,-212.08 104.287,-209.627"/>
<polygon fill="midnightblue" stroke="midnightblue" points="28.7029,-312.773 29.3351,-323.349 35.4362,-314.687 28.7029,-312.773"/>
</g>
<!-- Node26 -->
<g id="node26" class="node"><title>Node26</title>
<g id="a_node26"><a xlink:href="d9/d42/classo2_1_1ITSMFT_1_1ClusterShape.html" target="_top" xlink:title="o2::ITSMFT::ClusterShape">
<polygon fill="none" stroke="black" points="94,-152.5 94,-171.5 228,-171.5 228,-152.5 94,-152.5"/>
<text text-anchor="middle" x="161" y="-159.5" font-family="Helvetica,sans-Serif" font-size="10.00">o2::ITSMFT::ClusterShape</text>
</a>
</g>
</g>
<!-- Node1&#45;&gt;Node26 -->
<g id="edge25" class="edge"><title>Node1&#45;&gt;Node26</title>
<path fill="none" stroke="midnightblue" d="M29.224,-313.476C33.9764,-281.052 48.1594,-216.196 88,-181 92.3599,-177.148 97.4118,-174.064 102.778,-171.595"/>
<polygon fill="midnightblue" stroke="midnightblue" points="25.7408,-313.119 27.9097,-323.49 32.6813,-314.03 25.7408,-313.119"/>
</g>
<!-- Node27 -->
<g id="node27" class="node"><title>Node27</title>
<g id="a_node27"><a xlink:href="d8/d92/classo2_1_1ITSMFT_1_1Digitizer.html" target="_top" xlink:title="o2::ITSMFT::Digitizer">
<polygon fill="none" stroke="black" points="105.5,-114.5 105.5,-133.5 216.5,-133.5 216.5,-114.5 105.5,-114.5"/>
<text text-anchor="middle" x="161" y="-121.5" font-family="Helvetica,sans-Serif" font-size="10.00">o2::ITSMFT::Digitizer</text>
</a>
</g>
</g>
<!-- Node1&#45;&gt;Node27 -->
<g id="edge26" class="edge"><title>Node1&#45;&gt;Node27</title>
<path fill="none" stroke="midnightblue" d="M27.4227,-313.067C29.3575,-274.464 39.2564,-189.242 88,-143 92.9708,-138.284 98.9694,-134.707 105.357,-131.998"/>
<polygon fill="midnightblue" stroke="midnightblue" points="23.9107,-313.335 27.0438,-323.456 30.9061,-313.59 23.9107,-313.335"/>
</g>
<!-- Node28 -->
<g id="node28" class="node"><title>Node28</title>
<g id="a_node28"><a xlink:href="dc/ddc/classo2_1_1ITSMFT_1_1SDigit.html" target="_top" xlink:title="o2::ITSMFT::SDigit">
<polygon fill="none" stroke="black" points="110,-76.5 110,-95.5 212,-95.5 212,-76.5 110,-76.5"/>
<text text-anchor="middle" x="161" y="-83.5" font-family="Helvetica,sans-Serif" font-size="10.00">o2::ITSMFT::SDigit</text>
</a>
</g>
</g>
<!-- Node1&#45;&gt;Node28 -->
<g id="edge27" class="edge"><title>Node1&#45;&gt;Node28</title>
<path fill="none" stroke="midnightblue" d="M26.1426,-313.098C25.3905,-269.067 30.0624,-162.74 88,-105 94.0436,-98.977 101.757,-94.7967 109.877,-91.9093"/>
<polygon fill="midnightblue" stroke="midnightblue" points="22.6443,-313.213 26.4307,-323.108 29.6414,-313.011 22.6443,-313.213"/>
</g>
<!-- Node29 -->
<g id="node29" class="node"><title>Node29</title>
<g id="a_node29"><a xlink:href="db/d73/classo2_1_1phos_1_1Digitizer.html" target="_top" xlink:title="o2::phos::Digitizer">
<polygon fill="none" stroke="black" points="113,-38.5 113,-57.5 209,-57.5 209,-38.5 113,-38.5"/>
<text text-anchor="middle" x="161" y="-45.5" font-family="Helvetica,sans-Serif" font-size="10.00">o2::phos::Digitizer</text>
</a>
</g>
</g>
<!-- Node1&#45;&gt;Node29 -->
<g id="edge28" class="edge"><title>Node1&#45;&gt;Node29</title>
<path fill="none" stroke="midnightblue" d="M28.921,-313.091C34.6757,-257.542 53.5445,-102.597 88,-67 94.6536,-60.1261 103.477,-55.6385 112.659,-52.7321"/>
<polygon fill="midnightblue" stroke="midnightblue" points="25.4068,-313.058 27.8911,-323.358 32.3719,-313.757 25.4068,-313.058"/>
</g>
<!-- Node30 -->
<g id="node30" class="node"><title>Node30</title>
<g id="a_node30"><a xlink:href="d7/d2d/classo2_1_1TObjectWrapper.html" target="_top" xlink:title="o2::TObjectWrapper\&lt; T \&gt;">
<polygon fill="none" stroke="black" points="97,-0.5 97,-19.5 225,-19.5 225,-0.5 97,-0.5"/>
<text text-anchor="middle" x="161" y="-7.5" font-family="Helvetica,sans-Serif" font-size="10.00">o2::TObjectWrapper&lt; T &gt;</text>
</a>
</g>
</g>
<!-- Node1&#45;&gt;Node30 -->
<g id="edge29" class="edge"><title>Node1&#45;&gt;Node30</title>
<path fill="none" stroke="midnightblue" d="M28.3001,-313.1C32.6713,-252.301 48.8223,-70.6009 88,-29 91.6339,-25.1413 95.9506,-22.0313 100.638,-19.529"/>
<polygon fill="midnightblue" stroke="midnightblue" points="24.7945,-313.061 27.5987,-323.278 31.7779,-313.543 24.7945,-313.061"/>
</g>
<!-- Node10 -->
<g id="node10" class="node"><title>Node10</title>
<g id="a_node10"><a xlink:href="d2/d33/classo2_1_1CDB_1_1FileStorage.html" target="_top" xlink:title="o2::CDB::FileStorage">
<polygon fill="none" stroke="black" points="299,-532.5 299,-551.5 409,-551.5 409,-532.5 299,-532.5"/>
<text text-anchor="middle" x="354" y="-539.5" font-family="Helvetica,sans-Serif" font-size="10.00">o2::CDB::FileStorage</text>
</a>
</g>
</g>
<!-- Node9&#45;&gt;Node10 -->
<g id="edge9" class="edge"><title>Node9&#45;&gt;Node10</title>
<path fill="none" stroke="midnightblue" d="M218.024,-398.57C223.898,-401.205 229.394,-404.61 234,-409 272.459,-445.661 230.942,-486.978 270,-523 278.041,-530.416 288.369,-535.132 298.989,-538.09"/>
<polygon fill="midnightblue" stroke="midnightblue" points="219.149,-395.254 208.557,-395.03 216.698,-401.811 219.149,-395.254"/>
</g>
<!-- Node11 -->
<g id="node11" class="node"><title>Node11</title>
<g id="a_node11"><a xlink:href="dd/ddb/classo2_1_1CDB_1_1GridStorage.html" target="_top" xlink:title="o2::CDB::GridStorage">
<polygon fill="none" stroke="black" points="297.5,-494.5 297.5,-513.5 410.5,-513.5 410.5,-494.5 297.5,-494.5"/>
<text text-anchor="middle" x="354" y="-501.5" font-family="Helvetica,sans-Serif" font-size="10.00">o2::CDB::GridStorage</text>
</a>
</g>
</g>
<!-- Node9&#45;&gt;Node11 -->
<g id="edge10" class="edge"><title>Node9&#45;&gt;Node11</title>
<path fill="none" stroke="midnightblue" d="M218.35,-399.587C223.995,-402.051 229.35,-405.137 234,-409 262.749,-432.884 240.861,-461.594 270,-485 277.837,-491.295 287.367,-495.586 297.137,-498.494"/>
<polygon fill="midnightblue" stroke="midnightblue" points="219.24,-396.185 208.647,-396.001 216.813,-402.751 219.24,-396.185"/>
</g>
<!-- Node12 -->
<g id="node12" class="node"><title>Node12</title>
<g id="a_node12"><a xlink:href="d6/dba/classo2_1_1CDB_1_1LocalStorage.html" target="_top" xlink:title="o2::CDB::LocalStorage">
<polygon fill="none" stroke="black" points="295,-456.5 295,-475.5 413,-475.5 413,-456.5 295,-456.5"/>
<text text-anchor="middle" x="354" y="-463.5" font-family="Helvetica,sans-Serif" font-size="10.00">o2::CDB::LocalStorage</text>
</a>
</g>
</g>
<!-- Node9&#45;&gt;Node12 -->
<g id="edge11" class="edge"><title>Node9&#45;&gt;Node12</title>
<path fill="none" stroke="midnightblue" d="M218.611,-401.666C223.981,-403.732 229.204,-406.157 234,-409 254.011,-420.865 249.796,-435.466 270,-447 277.574,-451.324 286.066,-454.664 294.65,-457.244"/>
<polygon fill="midnightblue" stroke="midnightblue" points="219.44,-398.25 208.846,-398.32 217.172,-404.872 219.44,-398.25"/>
</g>
<!-- Node14 -->
<g id="node14" class="node"><title>Node14</title>
<g id="a_node14"><a xlink:href="d2/d56/classo2_1_1CDB_1_1FileStorageFactory.html" target="_top" xlink:title="o2::CDB::FileStorageFactory">
<polygon fill="none" stroke="black" points="282.5,-418.5 282.5,-437.5 425.5,-437.5 425.5,-418.5 282.5,-418.5"/>
<text text-anchor="middle" x="354" y="-425.5" font-family="Helvetica,sans-Serif" font-size="10.00">o2::CDB::FileStorageFactory</text>
</a>
</g>
</g>
<!-- Node13&#45;&gt;Node14 -->
<g id="edge13" class="edge"><title>Node13&#45;&gt;Node14</title>
<path fill="none" stroke="midnightblue" d="M222.297,-365.152C226.366,-366.872 230.31,-368.812 234,-371 254.011,-382.865 249.796,-397.466 270,-409 276.804,-412.884 284.348,-415.975 292.035,-418.433"/>
<polygon fill="midnightblue" stroke="midnightblue" points="223.226,-361.763 212.634,-361.527 220.767,-368.316 223.226,-361.763"/>
</g>
<!-- Node15 -->
<g id="node15" class="node"><title>Node15</title>
<g id="a_node15"><a xlink:href="dd/dcc/classo2_1_1CDB_1_1GridStorageFactory.html" target="_top" xlink:title="o2::CDB::GridStorageFactory">
<polygon fill="none" stroke="black" points="281,-380.5 281,-399.5 427,-399.5 427,-380.5 281,-380.5"/>
<text text-anchor="middle" x="354" y="-387.5" font-family="Helvetica,sans-Serif" font-size="10.00">o2::CDB::GridStorageFactory</text>
</a>
</g>
</g>
<!-- Node13&#45;&gt;Node15 -->
<g id="edge14" class="edge"><title>Node13&#45;&gt;Node15</title>
<path fill="none" stroke="midnightblue" d="M220.353,-363.61C247.518,-369.014 279.432,-375.364 305.149,-380.48"/>
<polygon fill="midnightblue" stroke="midnightblue" points="220.688,-360.108 210.197,-361.589 219.322,-366.973 220.688,-360.108"/>
</g>
<!-- Node16 -->
<g id="node16" class="node"><title>Node16</title>
<g id="a_node16"><a xlink:href="d4/d68/classo2_1_1CDB_1_1LocalStorageFactory.html" target="_top" xlink:title="o2::CDB::LocalStorageFactory">
<polygon fill="none" stroke="black" points="278.5,-342.5 278.5,-361.5 429.5,-361.5 429.5,-342.5 278.5,-342.5"/>
<text text-anchor="middle" x="354" y="-349.5" font-family="Helvetica,sans-Serif" font-size="10.00">o2::CDB::LocalStorageFactory</text>
</a>
</g>
</g>
<!-- Node13&#45;&gt;Node16 -->
<g id="edge15" class="edge"><title>Node13&#45;&gt;Node16</title>
<path fill="none" stroke="midnightblue" d="M235.226,-352C249.367,-352 264.199,-352 278.384,-352"/>
<polygon fill="midnightblue" stroke="midnightblue" points="235.07,-348.5 225.07,-352 235.07,-355.5 235.07,-348.5"/>
</g>
<!-- Node18 -->
<g id="node18" class="node"><title>Node18</title>
<g id="a_node18"><a xlink:href="d4/d3f/classo2_1_1CDB_1_1FileStorageParameters.html" target="_top" xlink:title="o2::CDB::FileStorageParameters">
<polygon fill="none" stroke="black" points="273.5,-304.5 273.5,-323.5 434.5,-323.5 434.5,-304.5 273.5,-304.5"/>
<text text-anchor="middle" x="354" y="-311.5" font-family="Helvetica,sans-Serif" font-size="10.00">o2::CDB::FileStorageParameters</text>
</a>
</g>
</g>
<!-- Node17&#45;&gt;Node18 -->
<g id="edge17" class="edge"><title>Node17&#45;&gt;Node18</title>
<path fill="none" stroke="midnightblue" d="M243.759,-314C253.531,-314 263.499,-314 273.242,-314"/>
<polygon fill="midnightblue" stroke="midnightblue" points="243.665,-310.5 233.665,-314 243.665,-317.5 243.665,-310.5"/>
</g>
<!-- Node19 -->
<g id="node19" class="node"><title>Node19</title>
<g id="a_node19"><a xlink:href="d7/dde/classo2_1_1CDB_1_1GridStorageParameters.html" target="_top" xlink:title="o2::CDB::GridStorageParameters">
<polygon fill="none" stroke="black" points="272.5,-266.5 272.5,-285.5 435.5,-285.5 435.5,-266.5 272.5,-266.5"/>
<text text-anchor="middle" x="354" y="-273.5" font-family="Helvetica,sans-Serif" font-size="10.00">o2::CDB::GridStorageParameters</text>
</a>
</g>
</g>
<!-- Node17&#45;&gt;Node19 -->
<g id="edge18" class="edge"><title>Node17&#45;&gt;Node19</title>
<path fill="none" stroke="midnightblue" d="M220.353,-302.39C247.518,-296.986 279.432,-290.636 305.149,-285.52"/>
<polygon fill="midnightblue" stroke="midnightblue" points="219.322,-299.027 210.197,-304.411 220.688,-305.892 219.322,-299.027"/>
</g>
<!-- Node20 -->
<g id="node20" class="node"><title>Node20</title>
<g id="a_node20"><a xlink:href="db/dab/classo2_1_1CDB_1_1LocalStorageParameters.html" target="_top" xlink:title="o2::CDB::LocalStorageParameters">
<polygon fill="none" stroke="black" points="270,-228.5 270,-247.5 438,-247.5 438,-228.5 270,-228.5"/>
<text text-anchor="middle" x="354" y="-235.5" font-family="Helvetica,sans-Serif" font-size="10.00">o2::CDB::LocalStorageParameters</text>
</a>
</g>
</g>
<!-- Node17&#45;&gt;Node20 -->
<g id="edge19" class="edge"><title>Node17&#45;&gt;Node20</title>
<path fill="none" stroke="midnightblue" d="M222.297,-300.848C226.366,-299.128 230.31,-297.188 234,-295 254.011,-283.135 249.796,-268.534 270,-257 276.804,-253.116 284.348,-250.025 292.035,-247.567"/>
<polygon fill="midnightblue" stroke="midnightblue" points="220.767,-297.684 212.634,-304.473 223.226,-304.237 220.767,-297.684"/>
</g>
<!-- Node24 -->
<g id="node24" class="node"><title>Node24</title>
<g id="a_node24"><a xlink:href="df/daf/classo2_1_1ITS_1_1V1Layer.html" target="_top" xlink:title="o2::ITS::V1Layer">
<polygon fill="none" stroke="black" points="308.5,-190.5 308.5,-209.5 399.5,-209.5 399.5,-190.5 308.5,-190.5"/>
<text text-anchor="middle" x="354" y="-197.5" font-family="Helvetica,sans-Serif" font-size="10.00">o2::ITS::V1Layer</text>
</a>
</g>
</g>
<!-- Node23&#45;&gt;Node24 -->
<g id="edge23" class="edge"><title>Node23&#45;&gt;Node24</title>
<path fill="none" stroke="midnightblue" d="M228.837,-200C255.196,-200 284.766,-200 308.435,-200"/>
<polygon fill="midnightblue" stroke="midnightblue" points="228.531,-196.5 218.531,-200 228.531,-203.5 228.531,-196.5"/>
</g>
<!-- Node25 -->
<g id="node25" class="node"><title>Node25</title>
<g id="a_node25"><a xlink:href="d5/de4/classo2_1_1ITS_1_1V3Layer.html" target="_top" xlink:title="o2::ITS::V3Layer">
<polygon fill="none" stroke="black" points="308.5,-152.5 308.5,-171.5 399.5,-171.5 399.5,-152.5 308.5,-152.5"/>
<text text-anchor="middle" x="354" y="-159.5" font-family="Helvetica,sans-Serif" font-size="10.00">o2::ITS::V3Layer</text>
</a>
</g>
</g>
<!-- Node23&#45;&gt;Node25 -->
<g id="edge24" class="edge"><title>Node23&#45;&gt;Node25</title>
<path fill="none" stroke="midnightblue" d="M220.376,-188.386C248.701,-182.751 282.185,-176.089 308.422,-170.869"/>
<polygon fill="midnightblue" stroke="midnightblue" points="219.322,-185.027 210.197,-190.411 220.688,-191.892 219.322,-185.027"/>
</g>
</g>
</svg>
