<?xml version="1.0" encoding="UTF-8" standalone="no"?>
<!DOCTYPE svg PUBLIC "-//W3C//DTD SVG 1.1//EN"
 "http://www.w3.org/Graphics/SVG/1.1/DTD/svg11.dtd">
<!-- Generated by graphviz version 2.36.0 (20140111.2315)
 -->
<!-- Title: Graphical Class Hierarchy Pages: 1 -->
<svg width="280pt" height="142pt"
 viewBox="0.00 0.00 280.00 142.00" xmlns="http://www.w3.org/2000/svg" xmlns:xlink="http://www.w3.org/1999/xlink">
<g id="graph0" class="graph" transform="scale(1 1) rotate(0) translate(4 138)">
<title>Graphical Class Hierarchy</title>
<!-- Node1 -->
<g id="node1" class="node"><title>Node1</title>
<g id="a_node1"><a xlink:href="d0/d94/classo2_1_1dataformats_1_1TimeStamp.html" target="_top" xlink:title="o2::dataformats::TimeStamp\l\&lt; double \&gt;">
<polygon fill="none" stroke="black" points="0.5,-52 0.5,-82 141.5,-82 141.5,-52 0.5,-52"/>
<text text-anchor="start" x="8.5" y="-70" font-family="Helvetica,sans-Serif" font-size="10.00">o2::dataformats::TimeStamp</text>
<text text-anchor="middle" x="71" y="-59" font-family="Helvetica,sans-Serif" font-size="10.00">&lt; double &gt;</text>
</a>
</g>
</g>
<!-- Node2 -->
<g id="node2" class="node"><title>Node2</title>
<g id="a_node2"><a xlink:href="d5/d5a/classo2_1_1EMCAL_1_1Digit.html" target="_top" xlink:title="EMCAL digit implementation. ">
<polygon fill="none" stroke="black" points="178,-114.5 178,-133.5 272,-133.5 272,-114.5 178,-114.5"/>
<text text-anchor="middle" x="225" y="-121.5" font-family="Helvetica,sans-Serif" font-size="10.00">o2::EMCAL::Digit</text>
</a>
</g>
</g>
<!-- Node1&#45;&gt;Node2 -->
<g id="edge1" class="edge"><title>Node1&#45;&gt;Node2</title>
<path fill="none" stroke="midnightblue" d="M121.876,-85.7036C147.421,-95.2828 177.448,-106.543 198.303,-114.363"/>
<polygon fill="midnightblue" stroke="midnightblue" points="122.926,-82.3594 112.334,-82.1253 120.468,-88.9138 122.926,-82.3594"/>
</g>
<!-- Node3 -->
<g id="node3" class="node"><title>Node3</title>
<g id="a_node3"><a xlink:href="db/df9/classo2_1_1fit_1_1Digit.html" target="_top" xlink:title="FIT digit implementation. ">
<polygon fill="none" stroke="black" points="191,-76.5 191,-95.5 259,-95.5 259,-76.5 191,-76.5"/>
<text text-anchor="middle" x="225" y="-83.5" font-family="Helvetica,sans-Serif" font-size="10.00">o2::fit::Digit</text>
</a>
</g>
</g>
<!-- Node1&#45;&gt;Node3 -->
<g id="edge2" class="edge"><title>Node1&#45;&gt;Node3</title>
<path fill="none" stroke="midnightblue" d="M151.763,-76.9704C165.48,-78.685 179.032,-80.3791 190.628,-81.8285"/>
<polygon fill="midnightblue" stroke="midnightblue" points="152.129,-73.4889 141.772,-75.7215 151.26,-80.4349 152.129,-73.4889"/>
</g>
<!-- Node4 -->
<g id="node4" class="node"><title>Node4</title>
<g id="a_node4"><a xlink:href="df/dbc/classo2_1_1phos_1_1Digit.html" target="_top" xlink:title="o2::phos::Digit">
<polygon fill="none" stroke="black" points="185,-38.5 185,-57.5 265,-57.5 265,-38.5 185,-38.5"/>
<text text-anchor="middle" x="225" y="-45.5" font-family="Helvetica,sans-Serif" font-size="10.00">o2::phos::Digit</text>
</a>
</g>
</g>
<!-- Node1&#45;&gt;Node4 -->
<g id="edge3" class="edge"><title>Node1&#45;&gt;Node4</title>
<path fill="none" stroke="midnightblue" d="M151.873,-57.0159C163.363,-55.5797 174.734,-54.1582 184.933,-52.8833"/>
<polygon fill="midnightblue" stroke="midnightblue" points="151.26,-53.5651 141.772,-58.2785 152.129,-60.5111 151.26,-53.5651"/>
</g>
<!-- Node5 -->
<g id="node5" class="node"><title>Node5</title>
<g id="a_node5"><a xlink:href="d8/db4/classo2_1_1tof_1_1Digit.html" target="_top" xlink:title="TOF digit implementation. ">
<polygon fill="none" stroke="black" points="189.5,-0.5 189.5,-19.5 260.5,-19.5 260.5,-0.5 189.5,-0.5"/>
<text text-anchor="middle" x="225" y="-7.5" font-family="Helvetica,sans-Serif" font-size="10.00">o2::tof::Digit</text>
</a>
</g>
</g>
<!-- Node1&#45;&gt;Node5 -->
<g id="edge4" class="edge"><title>Node1&#45;&gt;Node5</title>
<path fill="none" stroke="midnightblue" d="M121.876,-48.2964C147.421,-38.7172 177.448,-27.4571 198.303,-19.6365"/>
<polygon fill="midnightblue" stroke="midnightblue" points="120.468,-45.0862 112.334,-51.8747 122.926,-51.6406 120.468,-45.0862"/>
</g>
</g>
</svg>
