<?xml version="1.0" encoding="UTF-8" standalone="no"?>
<!DOCTYPE svg PUBLIC "-//W3C//DTD SVG 1.1//EN"
 "http://www.w3.org/Graphics/SVG/1.1/DTD/svg11.dtd">
<!-- Generated by graphviz version 2.36.0 (20140111.2315)
 -->
<!-- Title: o2::header::BaseHeader Pages: 1 -->
<svg width="929pt" height="590pt"
 viewBox="0.00 0.00 929.00 590.00" xmlns="http://www.w3.org/2000/svg" xmlns:xlink="http://www.w3.org/1999/xlink">
<g id="graph0" class="graph" transform="scale(1 1) rotate(0) translate(4 586)">
<title>o2::header::BaseHeader</title>
<!-- Node1 -->
<g id="node1" class="node"><title>Node1</title>
<polygon fill="#bfbfbf" stroke="black" points="429,-282.5 429,-581.5 551,-581.5 551,-282.5 429,-282.5"/>
<text text-anchor="middle" x="490" y="-569.5" font-family="Helvetica,sans-Serif" font-size="10.00">o2::header::BaseHeader</text>
<polyline fill="none" stroke="black" points="429,-562.5 551,-562.5 "/>
<text text-anchor="start" x="437" y="-550.5" font-family="Helvetica,sans-Serif" font-size="10.00">+ magicString</text>
<text text-anchor="start" x="437" y="-539.5" font-family="Helvetica,sans-Serif" font-size="10.00">+ magicStringInt</text>
<text text-anchor="start" x="437" y="-528.5" font-family="Helvetica,sans-Serif" font-size="10.00">+ @11</text>
<text text-anchor="start" x="437" y="-517.5" font-family="Helvetica,sans-Serif" font-size="10.00">+ headerSize</text>
<text text-anchor="start" x="437" y="-506.5" font-family="Helvetica,sans-Serif" font-size="10.00">+ flags</text>
<text text-anchor="start" x="437" y="-495.5" font-family="Helvetica,sans-Serif" font-size="10.00">+ flagsNextHeader</text>
<text text-anchor="start" x="437" y="-484.5" font-family="Helvetica,sans-Serif" font-size="10.00">+ flagsUnused</text>
<text text-anchor="start" x="437" y="-473.5" font-family="Helvetica,sans-Serif" font-size="10.00">+ @13</text>
<text text-anchor="start" x="437" y="-462.5" font-family="Helvetica,sans-Serif" font-size="10.00">+ headerVersion</text>
<text text-anchor="start" x="437" y="-451.5" font-family="Helvetica,sans-Serif" font-size="10.00">+ description</text>
<text text-anchor="start" x="437" y="-440.5" font-family="Helvetica,sans-Serif" font-size="10.00">+ serialization</text>
<text text-anchor="start" x="437" y="-429.5" font-family="Helvetica,sans-Serif" font-size="10.00">+ sMagicString</text>
<text text-anchor="start" x="437" y="-418.5" font-family="Helvetica,sans-Serif" font-size="10.00">+ sVersion</text>
<text text-anchor="start" x="437" y="-407.5" font-family="Helvetica,sans-Serif" font-size="10.00">+ sHeaderType</text>
<text text-anchor="start" x="437" y="-396.5" font-family="Helvetica,sans-Serif" font-size="10.00">+ sSerializationMethod</text>
<polyline fill="none" stroke="black" points="429,-389.5 551,-389.5 "/>
<text text-anchor="start" x="437" y="-377.5" font-family="Helvetica,sans-Serif" font-size="10.00">+ BaseHeader()</text>
<text text-anchor="start" x="437" y="-366.5" font-family="Helvetica,sans-Serif" font-size="10.00">+ BaseHeader()</text>
<text text-anchor="start" x="437" y="-355.5" font-family="Helvetica,sans-Serif" font-size="10.00">+ BaseHeader()</text>
<text text-anchor="start" x="437" y="-344.5" font-family="Helvetica,sans-Serif" font-size="10.00">+ size()</text>
<text text-anchor="start" x="437" y="-333.5" font-family="Helvetica,sans-Serif" font-size="10.00">+ data()</text>
<text text-anchor="start" x="437" y="-322.5" font-family="Helvetica,sans-Serif" font-size="10.00">+ next()</text>
<text text-anchor="start" x="437" y="-311.5" font-family="Helvetica,sans-Serif" font-size="10.00">+ next()</text>
<text text-anchor="start" x="437" y="-300.5" font-family="Helvetica,sans-Serif" font-size="10.00">+ get()</text>
<text text-anchor="start" x="437" y="-289.5" font-family="Helvetica,sans-Serif" font-size="10.00">+ get()</text>
</g>
<!-- Node2 -->
<g id="node2" class="node"><title>Node2</title>
<g id="a_node2"><a xlink:href="../../d7/df0/structo2_1_1framework_1_1DataProcessingHeader.html" target="_top" xlink:title="{o2::framework::DataProcessing\lHeader\n|+ startTime\l+ duration\l+ sHeaderType\l+ sVersion\l|+ DataProcessingHeader()\l+ DataProcessingHeader()\l+ DataProcessingHeader()\l+ DataProcessingHeader()\l+ Get()\l}">
<polygon fill="none" stroke="black" points="-0.5,-50.5 -0.5,-195.5 154.5,-195.5 154.5,-50.5 -0.5,-50.5"/>
<text text-anchor="start" x="7.5" y="-183.5" font-family="Helvetica,sans-Serif" font-size="10.00">o2::framework::DataProcessing</text>
<text text-anchor="middle" x="77" y="-172.5" font-family="Helvetica,sans-Serif" font-size="10.00">Header</text>
<polyline fill="none" stroke="black" points="-0.5,-165.5 154.5,-165.5 "/>
<text text-anchor="start" x="7.5" y="-153.5" font-family="Helvetica,sans-Serif" font-size="10.00">+ startTime</text>
<text text-anchor="start" x="7.5" y="-142.5" font-family="Helvetica,sans-Serif" font-size="10.00">+ duration</text>
<text text-anchor="start" x="7.5" y="-131.5" font-family="Helvetica,sans-Serif" font-size="10.00">+ sHeaderType</text>
<text text-anchor="start" x="7.5" y="-120.5" font-family="Helvetica,sans-Serif" font-size="10.00">+ sVersion</text>
<polyline fill="none" stroke="black" points="-0.5,-113.5 154.5,-113.5 "/>
<text text-anchor="start" x="7.5" y="-101.5" font-family="Helvetica,sans-Serif" font-size="10.00">+ DataProcessingHeader()</text>
<text text-anchor="start" x="7.5" y="-90.5" font-family="Helvetica,sans-Serif" font-size="10.00">+ DataProcessingHeader()</text>
<text text-anchor="start" x="7.5" y="-79.5" font-family="Helvetica,sans-Serif" font-size="10.00">+ DataProcessingHeader()</text>
<text text-anchor="start" x="7.5" y="-68.5" font-family="Helvetica,sans-Serif" font-size="10.00">+ DataProcessingHeader()</text>
<text text-anchor="start" x="7.5" y="-57.5" font-family="Helvetica,sans-Serif" font-size="10.00">+ Get()</text>
</a>
</g>
</g>
<!-- Node1&#45;&gt;Node2 -->
<g id="edge1" class="edge"><title>Node1&#45;&gt;Node2</title>
<path fill="none" stroke="midnightblue" d="M419.572,-402.193C349.166,-371.008 240.509,-316.18 163,-246 146.96,-231.477 132.234,-213.448 119.672,-195.746"/>
<polygon fill="none" stroke="midnightblue" points="418.254,-405.437 428.817,-406.25 421.066,-399.027 418.254,-405.437"/>
</g>
<!-- Node3 -->
<g id="node3" class="node"><title>Node3</title>
<g id="a_node3"><a xlink:href="../../db/d87/structo2_1_1header_1_1DataHeader.html" target="_top" xlink:title="the main header struct ">
<polygon fill="none" stroke="black" points="172.5,-1 172.5,-245 317.5,-245 317.5,-1 172.5,-1"/>
<text text-anchor="middle" x="245" y="-233" font-family="Helvetica,sans-Serif" font-size="10.00">o2::header::DataHeader</text>
<polyline fill="none" stroke="black" points="172.5,-226 317.5,-226 "/>
<text text-anchor="start" x="180.5" y="-214" font-family="Helvetica,sans-Serif" font-size="10.00">+ dataDescription</text>
<text text-anchor="start" x="180.5" y="-203" font-family="Helvetica,sans-Serif" font-size="10.00">+ dataOrigin</text>
<text text-anchor="start" x="180.5" y="-192" font-family="Helvetica,sans-Serif" font-size="10.00">+ reserved</text>
<text text-anchor="start" x="180.5" y="-181" font-family="Helvetica,sans-Serif" font-size="10.00">+ payloadSerializationMethod</text>
<text text-anchor="start" x="180.5" y="-170" font-family="Helvetica,sans-Serif" font-size="10.00">+ subSpecification</text>
<text text-anchor="start" x="180.5" y="-159" font-family="Helvetica,sans-Serif" font-size="10.00">+ payloadSize</text>
<text text-anchor="start" x="180.5" y="-148" font-family="Helvetica,sans-Serif" font-size="10.00">+ sVersion</text>
<text text-anchor="start" x="180.5" y="-137" font-family="Helvetica,sans-Serif" font-size="10.00">+ sHeaderType</text>
<text text-anchor="start" x="180.5" y="-126" font-family="Helvetica,sans-Serif" font-size="10.00">+ sSerializationMethod</text>
<polyline fill="none" stroke="black" points="172.5,-119 317.5,-119 "/>
<text text-anchor="start" x="180.5" y="-107" font-family="Helvetica,sans-Serif" font-size="10.00">+ DataHeader()</text>
<text text-anchor="start" x="180.5" y="-96" font-family="Helvetica,sans-Serif" font-size="10.00">+ DataHeader()</text>
<text text-anchor="start" x="180.5" y="-85" font-family="Helvetica,sans-Serif" font-size="10.00">+ DataHeader()</text>
<text text-anchor="start" x="180.5" y="-74" font-family="Helvetica,sans-Serif" font-size="10.00">+ operator=()</text>
<text text-anchor="start" x="180.5" y="-63" font-family="Helvetica,sans-Serif" font-size="10.00">+ operator==()</text>
<text text-anchor="start" x="180.5" y="-52" font-family="Helvetica,sans-Serif" font-size="10.00">+ operator==()</text>
<text text-anchor="start" x="180.5" y="-41" font-family="Helvetica,sans-Serif" font-size="10.00">+ operator==()</text>
<text text-anchor="start" x="180.5" y="-30" font-family="Helvetica,sans-Serif" font-size="10.00">+ operator==()</text>
<text text-anchor="start" x="180.5" y="-19" font-family="Helvetica,sans-Serif" font-size="10.00">+ print()</text>
<text text-anchor="start" x="180.5" y="-8" font-family="Helvetica,sans-Serif" font-size="10.00">+ Get()</text>
</a>
</g>
</g>
<!-- Node1&#45;&gt;Node3 -->
<g id="edge2" class="edge"><title>Node1&#45;&gt;Node3</title>
<path fill="none" stroke="midnightblue" d="M422.047,-359.083C391.547,-325.63 355.804,-284.745 326,-246 323.21,-242.373 320.411,-238.652 317.62,-234.87"/>
<polygon fill="none" stroke="midnightblue" points="419.539,-361.527 428.872,-366.542 424.703,-356.801 419.539,-361.527"/>
</g>
<!-- Node4 -->
<g id="node4" class="node"><title>Node4</title>
<g id="a_node4"><a xlink:href="../../d4/dfa/structo2_1_1header_1_1HeartbeatFrameEnvelope.html" target="_top" xlink:title="{o2::header::HeartbeatFrame\lEnvelope\n|+ header\l+ trailer\l+ sVersion\l+ sHeaderType\l+ sSerializationMethod\l|+ HeartbeatFrameEnvelope()\l+ HeartbeatFrameEnvelope()\l}">
<polygon fill="none" stroke="black" points="335.5,-61.5 335.5,-184.5 478.5,-184.5 478.5,-61.5 335.5,-61.5"/>
<text text-anchor="start" x="343.5" y="-172.5" font-family="Helvetica,sans-Serif" font-size="10.00">o2::header::HeartbeatFrame</text>
<text text-anchor="middle" x="407" y="-161.5" font-family="Helvetica,sans-Serif" font-size="10.00">Envelope</text>
<polyline fill="none" stroke="black" points="335.5,-154.5 478.5,-154.5 "/>
<text text-anchor="start" x="343.5" y="-142.5" font-family="Helvetica,sans-Serif" font-size="10.00">+ header</text>
<text text-anchor="start" x="343.5" y="-131.5" font-family="Helvetica,sans-Serif" font-size="10.00">+ trailer</text>
<text text-anchor="start" x="343.5" y="-120.5" font-family="Helvetica,sans-Serif" font-size="10.00">+ sVersion</text>
<text text-anchor="start" x="343.5" y="-109.5" font-family="Helvetica,sans-Serif" font-size="10.00">+ sHeaderType</text>
<text text-anchor="start" x="343.5" y="-98.5" font-family="Helvetica,sans-Serif" font-size="10.00">+ sSerializationMethod</text>
<polyline fill="none" stroke="black" points="335.5,-91.5 478.5,-91.5 "/>
<text text-anchor="start" x="343.5" y="-79.5" font-family="Helvetica,sans-Serif" font-size="10.00">+ HeartbeatFrameEnvelope()</text>
<text text-anchor="start" x="343.5" y="-68.5" font-family="Helvetica,sans-Serif" font-size="10.00">+ HeartbeatFrameEnvelope()</text>
</a>
</g>
</g>
<!-- Node1&#45;&gt;Node4 -->
<g id="edge3" class="edge"><title>Node1&#45;&gt;Node4</title>
<path fill="none" stroke="midnightblue" d="M447.206,-272.715C438.731,-241.367 430.328,-210.285 423.412,-184.706"/>
<polygon fill="none" stroke="midnightblue" points="443.849,-273.706 449.837,-282.446 450.606,-271.879 443.849,-273.706"/>
</g>
<!-- Node5 -->
<g id="node5" class="node"><title>Node5</title>
<g id="a_node5"><a xlink:href="../../d2/dda/structo2_1_1header_1_1NameHeader.html" target="_top" xlink:title="an example data header containing a name of an object as a null terminated char arr. this is a template! at instantiation the template parameter determines the size of the held string array. a caveat with decoding is (if length of string is not known) you have to use header::get&lt;NameHeader&lt;0&gt;&gt;(buffer) to get it out of a buffer. May improve in the future if enough people complain. If the compiler decides to pad the end of struct, the length of padding is stored in the last byte ">
<polygon fill="none" stroke="black" points="497,-56 497,-190 649,-190 649,-56 497,-56"/>
<text text-anchor="middle" x="573" y="-178" font-family="Helvetica,sans-Serif" font-size="10.00">o2::header::NameHeader&lt; N &gt;</text>
<polyline fill="none" stroke="black" points="497,-171 649,-171 "/>
<text text-anchor="start" x="505" y="-159" font-family="Helvetica,sans-Serif" font-size="10.00">+ sVersion</text>
<text text-anchor="start" x="505" y="-148" font-family="Helvetica,sans-Serif" font-size="10.00">+ sHeaderType</text>
<text text-anchor="start" x="505" y="-137" font-family="Helvetica,sans-Serif" font-size="10.00">+ sSerializationMethod</text>
<polyline fill="none" stroke="black" points="497,-130 649,-130 "/>
<text text-anchor="start" x="505" y="-118" font-family="Helvetica,sans-Serif" font-size="10.00">+ NameHeader()</text>
<text text-anchor="start" x="505" y="-107" font-family="Helvetica,sans-Serif" font-size="10.00">+ NameHeader()</text>
<text text-anchor="start" x="505" y="-96" font-family="Helvetica,sans-Serif" font-size="10.00">+ getName()</text>
<text text-anchor="start" x="505" y="-85" font-family="Helvetica,sans-Serif" font-size="10.00">+ getNameLength()</text>
<text text-anchor="start" x="505" y="-74" font-family="Helvetica,sans-Serif" font-size="10.00">+ sHeaderType()</text>
<text text-anchor="start" x="505" y="-63" font-family="Helvetica,sans-Serif" font-size="10.00">+ sHeaderType()</text>
</a>
</g>
</g>
<!-- Node1&#45;&gt;Node5 -->
<g id="edge4" class="edge"><title>Node1&#45;&gt;Node5</title>
<path fill="none" stroke="midnightblue" d="M532.836,-272.557C540.718,-243.405 548.535,-214.491 555.149,-190.027"/>
<polygon fill="none" stroke="midnightblue" points="529.394,-271.879 530.163,-282.446 536.151,-273.706 529.394,-271.879"/>
</g>
<!-- Node6 -->
<g id="node6" class="node"><title>Node6</title>
<g id="a_node6"><a xlink:href="../../da/d75/structo2_1_1header_1_1test_1_1MetaHeader.html" target="_top" xlink:title="{o2::header::test::MetaHeader\n|+ secret\l+ sHeaderType\l+ sVersion\l|+ MetaHeader()\l}">
<polygon fill="none" stroke="black" points="667,-83.5 667,-162.5 811,-162.5 811,-83.5 667,-83.5"/>
<text text-anchor="middle" x="739" y="-150.5" font-family="Helvetica,sans-Serif" font-size="10.00">o2::header::test::MetaHeader</text>
<polyline fill="none" stroke="black" points="667,-143.5 811,-143.5 "/>
<text text-anchor="start" x="675" y="-131.5" font-family="Helvetica,sans-Serif" font-size="10.00">+ secret</text>
<text text-anchor="start" x="675" y="-120.5" font-family="Helvetica,sans-Serif" font-size="10.00">+ sHeaderType</text>
<text text-anchor="start" x="675" y="-109.5" font-family="Helvetica,sans-Serif" font-size="10.00">+ sVersion</text>
<polyline fill="none" stroke="black" points="667,-102.5 811,-102.5 "/>
<text text-anchor="start" x="675" y="-90.5" font-family="Helvetica,sans-Serif" font-size="10.00">+ MetaHeader()</text>
</a>
</g>
</g>
<!-- Node1&#45;&gt;Node6 -->
<g id="edge5" class="edge"><title>Node1&#45;&gt;Node6</title>
<path fill="none" stroke="midnightblue" d="M558.241,-360.933C589.847,-327.23 627.144,-285.618 658,-246 678.855,-219.222 699.987,-187.196 715.435,-162.676"/>
<polygon fill="none" stroke="midnightblue" points="555.48,-358.76 551.173,-368.44 560.576,-363.559 555.48,-358.76"/>
</g>
<!-- Node7 -->
<g id="node7" class="node"><title>Node7</title>
<g id="a_node7"><a xlink:href="../../dc/d68/structtest_1_1MetaHeader.html" target="_top" xlink:title="{test::MetaHeader\n|+ secret\l+ sHeaderType\l+ sVersion\l|+ MetaHeader()\l}">
<polygon fill="none" stroke="black" points="829,-83.5 829,-162.5 921,-162.5 921,-83.5 829,-83.5"/>
<text text-anchor="middle" x="875" y="-150.5" font-family="Helvetica,sans-Serif" font-size="10.00">test::MetaHeader</text>
<polyline fill="none" stroke="black" points="829,-143.5 921,-143.5 "/>
<text text-anchor="start" x="837" y="-131.5" font-family="Helvetica,sans-Serif" font-size="10.00">+ secret</text>
<text text-anchor="start" x="837" y="-120.5" font-family="Helvetica,sans-Serif" font-size="10.00">+ sHeaderType</text>
<text text-anchor="start" x="837" y="-109.5" font-family="Helvetica,sans-Serif" font-size="10.00">+ sVersion</text>
<polyline fill="none" stroke="black" points="829,-102.5 921,-102.5 "/>
<text text-anchor="start" x="837" y="-90.5" font-family="Helvetica,sans-Serif" font-size="10.00">+ MetaHeader()</text>
</a>
</g>
</g>
<!-- Node1&#45;&gt;Node7 -->
<g id="edge6" class="edge"><title>Node1&#45;&gt;Node7</title>
<path fill="none" stroke="midnightblue" d="M560.789,-406.587C634.094,-378.154 747.813,-324.79 820,-246 841.738,-222.274 856.053,-188.511 864.614,-162.516"/>
<polygon fill="none" stroke="midnightblue" points="559.257,-403.426 551.167,-410.266 561.757,-409.964 559.257,-403.426"/>
</g>
</g>
</svg>
