<?xml version="1.0" encoding="UTF-8" standalone="no"?>
<!DOCTYPE svg PUBLIC "-//W3C//DTD SVG 1.1//EN"
 "http://www.w3.org/Graphics/SVG/1.1/DTD/svg11.dtd">
<!-- Generated by graphviz version 2.36.0 (20140111.2315)
 -->
<!-- Title: /home/travis/build/AliceO2Group/AliceO2/Detectors/ITSMFT/common/base/include/ITSMFTBase/SegmentationAlpide.h Pages: 1 -->
<svg width="3590pt" height="284pt"
 viewBox="0.00 0.00 3590.00 284.00" xmlns="http://www.w3.org/2000/svg" xmlns:xlink="http://www.w3.org/1999/xlink">
<g id="graph0" class="graph" transform="scale(1 1) rotate(0) translate(4 280)">
<title>/home/travis/build/AliceO2Group/AliceO2/Detectors/ITSMFT/common/base/include/ITSMFTBase/SegmentationAlpide.h</title>
<!-- Node1 -->
<g id="node1" class="node"><title>Node1</title>
<polygon fill="#bfbfbf" stroke="black" points="1815,-212.5 1815,-275.5 1957,-275.5 1957,-212.5 1815,-212.5"/>
<text text-anchor="start" x="1823" y="-263.5" font-family="Helvetica,sans-Serif" font-size="10.00">/home/travis/build</text>
<text text-anchor="start" x="1823" y="-252.5" font-family="Helvetica,sans-Serif" font-size="10.00">/AliceO2Group/AliceO2</text>
<text text-anchor="start" x="1823" y="-241.5" font-family="Helvetica,sans-Serif" font-size="10.00">/Detectors/ITSMFT/common</text>
<text text-anchor="start" x="1823" y="-230.5" font-family="Helvetica,sans-Serif" font-size="10.00">/base/include/ITSMFTBase</text>
<text text-anchor="middle" x="1886" y="-219.5" font-family="Helvetica,sans-Serif" font-size="10.00">/SegmentationAlpide.h</text>
</g>
<!-- Node2 -->
<g id="node2" class="node"><title>Node2</title>
<g id="a_node2"><a xlink:href="../../dd/d25/SegmentationAlpide_8cxx.html" target="_top" xlink:title="Implementation of the SegmentationAlpide class. ">
<polygon fill="none" stroke="black" points="0,-112 0,-164 166,-164 166,-112 0,-112"/>
<text text-anchor="start" x="8" y="-152" font-family="Helvetica,sans-Serif" font-size="10.00">/home/travis/build</text>
<text text-anchor="start" x="8" y="-141" font-family="Helvetica,sans-Serif" font-size="10.00">/AliceO2Group/AliceO2</text>
<text text-anchor="start" x="8" y="-130" font-family="Helvetica,sans-Serif" font-size="10.00">/Detectors/ITSMFT/common</text>
<text text-anchor="middle" x="83" y="-119" font-family="Helvetica,sans-Serif" font-size="10.00">/base/src/SegmentationAlpide.cxx</text>
</a>
</g>
</g>
<!-- Node1&#45;&gt;Node2 -->
<g id="edge1" class="edge"><title>Node1&#45;&gt;Node2</title>
<path fill="none" stroke="midnightblue" d="M1804.7,-243.492C1509.03,-244.709 491.739,-243.762 175,-176 162.206,-173.263 148.9,-168.89 136.513,-164.094"/>
<polygon fill="midnightblue" stroke="midnightblue" points="1804.92,-246.991 1814.91,-243.448 1804.89,-239.991 1804.92,-246.991"/>
</g>
<!-- Node3 -->
<g id="node3" class="node"><title>Node3</title>
<g id="a_node3"><a xlink:href="../../d9/d1d/BuildTopologyDictionary_8h.html" target="_top" xlink:title="Definition of the BuildTopologyDictionary class. ">
<polygon fill="none" stroke="black" points="184,-101 184,-175 370,-175 370,-101 184,-101"/>
<text text-anchor="start" x="192" y="-163" font-family="Helvetica,sans-Serif" font-size="10.00">/home/travis/build</text>
<text text-anchor="start" x="192" y="-152" font-family="Helvetica,sans-Serif" font-size="10.00">/AliceO2Group/AliceO2</text>
<text text-anchor="start" x="192" y="-141" font-family="Helvetica,sans-Serif" font-size="10.00">/Detectors/ITSMFT/common</text>
<text text-anchor="start" x="192" y="-130" font-family="Helvetica,sans-Serif" font-size="10.00">/reconstruction/include</text>
<text text-anchor="start" x="192" y="-119" font-family="Helvetica,sans-Serif" font-size="10.00">/ITSMFTReconstruction/BuildTopology</text>
<text text-anchor="middle" x="277" y="-108" font-family="Helvetica,sans-Serif" font-size="10.00">Dictionary.h</text>
</a>
</g>
</g>
<!-- Node1&#45;&gt;Node3 -->
<g id="edge2" class="edge"><title>Node1&#45;&gt;Node3</title>
<path fill="none" stroke="midnightblue" d="M1804.55,-242.624C1532.28,-240.859 655.429,-230.944 379,-176 376.044,-175.412 373.059,-174.754 370.06,-174.035"/>
<polygon fill="midnightblue" stroke="midnightblue" points="1804.73,-246.125 1814.75,-242.688 1804.77,-239.125 1804.73,-246.125"/>
</g>
<!-- Node6 -->
<g id="node6" class="node"><title>Node6</title>
<g id="a_node6"><a xlink:href="../../de/d69/ITSMFT_2common_2reconstruction_2src_2Clusterer_8cxx.html" target="_top" xlink:title="/home/travis/build\l/AliceO2Group/AliceO2\l/Detectors/ITSMFT/common\l/reconstruction/src/Clusterer.cxx">
<polygon fill="none" stroke="black" points="387.5,-112 387.5,-164 546.5,-164 546.5,-112 387.5,-112"/>
<text text-anchor="start" x="395.5" y="-152" font-family="Helvetica,sans-Serif" font-size="10.00">/home/travis/build</text>
<text text-anchor="start" x="395.5" y="-141" font-family="Helvetica,sans-Serif" font-size="10.00">/AliceO2Group/AliceO2</text>
<text text-anchor="start" x="395.5" y="-130" font-family="Helvetica,sans-Serif" font-size="10.00">/Detectors/ITSMFT/common</text>
<text text-anchor="middle" x="467" y="-119" font-family="Helvetica,sans-Serif" font-size="10.00">/reconstruction/src/Clusterer.cxx</text>
</a>
</g>
</g>
<!-- Node1&#45;&gt;Node6 -->
<g id="edge5" class="edge"><title>Node1&#45;&gt;Node6</title>
<path fill="none" stroke="midnightblue" d="M1804.79,-242.544C1554.22,-240.564 795.669,-230.139 556,-176 543.758,-173.235 531.051,-168.914 519.201,-164.187"/>
<polygon fill="midnightblue" stroke="midnightblue" points="1804.89,-246.044 1814.91,-242.621 1804.94,-239.045 1804.89,-246.044"/>
</g>
<!-- Node7 -->
<g id="node7" class="node"><title>Node7</title>
<g id="a_node7"><a xlink:href="../../d3/d38/PixelData_8cxx.html" target="_top" xlink:title="Implementation for transient data of single pixel and set of pixels from current chip. ">
<polygon fill="none" stroke="black" points="565,-112 565,-164 727,-164 727,-112 565,-112"/>
<text text-anchor="start" x="573" y="-152" font-family="Helvetica,sans-Serif" font-size="10.00">/home/travis/build</text>
<text text-anchor="start" x="573" y="-141" font-family="Helvetica,sans-Serif" font-size="10.00">/AliceO2Group/AliceO2</text>
<text text-anchor="start" x="573" y="-130" font-family="Helvetica,sans-Serif" font-size="10.00">/Detectors/ITSMFT/common</text>
<text text-anchor="middle" x="646" y="-119" font-family="Helvetica,sans-Serif" font-size="10.00">/reconstruction/src/PixelData.cxx</text>
</a>
</g>
</g>
<!-- Node1&#45;&gt;Node7 -->
<g id="edge6" class="edge"><title>Node1&#45;&gt;Node7</title>
<path fill="none" stroke="midnightblue" d="M1804.75,-241.71C1577.84,-237.56 940.712,-222.027 737,-176 724.524,-173.181 711.547,-168.838 699.434,-164.106"/>
<polygon fill="midnightblue" stroke="midnightblue" points="1804.86,-245.212 1814.92,-241.893 1804.98,-238.213 1804.86,-245.212"/>
</g>
<!-- Node8 -->
<g id="node8" class="node"><title>Node8</title>
<g id="a_node8"><a xlink:href="../../d5/d6b/AlpideChip_8cxx.html" target="_top" xlink:title="Creates an ALPIDE chip in simulation. ">
<polygon fill="none" stroke="black" points="745.5,-112 745.5,-164 894.5,-164 894.5,-112 745.5,-112"/>
<text text-anchor="start" x="753.5" y="-152" font-family="Helvetica,sans-Serif" font-size="10.00">/home/travis/build</text>
<text text-anchor="start" x="753.5" y="-141" font-family="Helvetica,sans-Serif" font-size="10.00">/AliceO2Group/AliceO2</text>
<text text-anchor="start" x="753.5" y="-130" font-family="Helvetica,sans-Serif" font-size="10.00">/Detectors/ITSMFT/common</text>
<text text-anchor="middle" x="820" y="-119" font-family="Helvetica,sans-Serif" font-size="10.00">/simulation/src/AlpideChip.cxx</text>
</a>
</g>
</g>
<!-- Node1&#45;&gt;Node8 -->
<g id="edge7" class="edge"><title>Node1&#45;&gt;Node8</title>
<path fill="none" stroke="midnightblue" d="M1804.97,-241.073C1601.67,-235.662 1074.1,-217.9 904,-176 892.395,-173.142 880.38,-168.782 869.192,-164.047"/>
<polygon fill="midnightblue" stroke="midnightblue" points="1804.9,-244.572 1814.99,-241.337 1805.08,-237.575 1804.9,-244.572"/>
</g>
<!-- Node9 -->
<g id="node9" class="node"><title>Node9</title>
<g id="a_node9"><a xlink:href="../../d8/d8c/ChipDigitsContainer_8cxx.html" target="_top" xlink:title="/home/travis/build\l/AliceO2Group/AliceO2\l/Detectors/ITSMFT/common\l/simulation/src/ChipDigitsContainer.cxx">
<polygon fill="none" stroke="black" points="913,-112 913,-164 1103,-164 1103,-112 913,-112"/>
<text text-anchor="start" x="921" y="-152" font-family="Helvetica,sans-Serif" font-size="10.00">/home/travis/build</text>
<text text-anchor="start" x="921" y="-141" font-family="Helvetica,sans-Serif" font-size="10.00">/AliceO2Group/AliceO2</text>
<text text-anchor="start" x="921" y="-130" font-family="Helvetica,sans-Serif" font-size="10.00">/Detectors/ITSMFT/common</text>
<text text-anchor="middle" x="1008" y="-119" font-family="Helvetica,sans-Serif" font-size="10.00">/simulation/src/ChipDigitsContainer.cxx</text>
</a>
</g>
</g>
<!-- Node1&#45;&gt;Node9 -->
<g id="edge8" class="edge"><title>Node1&#45;&gt;Node9</title>
<path fill="none" stroke="midnightblue" d="M1804.56,-242.745C1662.37,-240.799 1360.32,-229.987 1112,-176 1098.24,-173.008 1083.8,-168.683 1070.22,-164.039"/>
<polygon fill="midnightblue" stroke="midnightblue" points="1804.89,-246.249 1814.93,-242.875 1804.97,-239.25 1804.89,-246.249"/>
</g>
<!-- Node10 -->
<g id="node10" class="node"><title>Node10</title>
<g id="a_node10"><a xlink:href="../../dc/dbf/ITSMFT_2common_2simulation_2src_2Digitizer_8cxx.html" target="_top" xlink:title="/home/travis/build\l/AliceO2Group/AliceO2\l/Detectors/ITSMFT/common\l/simulation/src/Digitizer.cxx">
<polygon fill="none" stroke="black" points="1121,-112 1121,-164 1263,-164 1263,-112 1121,-112"/>
<text text-anchor="start" x="1129" y="-152" font-family="Helvetica,sans-Serif" font-size="10.00">/home/travis/build</text>
<text text-anchor="start" x="1129" y="-141" font-family="Helvetica,sans-Serif" font-size="10.00">/AliceO2Group/AliceO2</text>
<text text-anchor="start" x="1129" y="-130" font-family="Helvetica,sans-Serif" font-size="10.00">/Detectors/ITSMFT/common</text>
<text text-anchor="middle" x="1192" y="-119" font-family="Helvetica,sans-Serif" font-size="10.00">/simulation/src/Digitizer.cxx</text>
</a>
</g>
</g>
<!-- Node1&#45;&gt;Node10 -->
<g id="edge9" class="edge"><title>Node1&#45;&gt;Node10</title>
<path fill="none" stroke="midnightblue" d="M1804.48,-242.439C1685.37,-239.764 1457.73,-227.59 1272,-176 1261.24,-173.01 1250.11,-168.717 1239.69,-164.107"/>
<polygon fill="midnightblue" stroke="midnightblue" points="1804.55,-245.941 1814.62,-242.65 1804.69,-238.943 1804.55,-245.941"/>
</g>
<!-- Node11 -->
<g id="node11" class="node"><title>Node11</title>
<g id="a_node11"><a xlink:href="../../db/df2/ITS_2base_2src_2GeometryTGeo_8cxx.html" target="_top" xlink:title="/home/travis/build\l/AliceO2Group/AliceO2\l/Detectors/ITSMFT/ITS\l/base/src/GeometryTGeo.cxx">
<polygon fill="none" stroke="black" points="1281,-112 1281,-164 1427,-164 1427,-112 1281,-112"/>
<text text-anchor="start" x="1289" y="-152" font-family="Helvetica,sans-Serif" font-size="10.00">/home/travis/build</text>
<text text-anchor="start" x="1289" y="-141" font-family="Helvetica,sans-Serif" font-size="10.00">/AliceO2Group/AliceO2</text>
<text text-anchor="start" x="1289" y="-130" font-family="Helvetica,sans-Serif" font-size="10.00">/Detectors/ITSMFT/ITS</text>
<text text-anchor="middle" x="1354" y="-119" font-family="Helvetica,sans-Serif" font-size="10.00">/base/src/GeometryTGeo.cxx</text>
</a>
</g>
</g>
<!-- Node1&#45;&gt;Node11 -->
<g id="edge10" class="edge"><title>Node1&#45;&gt;Node11</title>
<path fill="none" stroke="midnightblue" d="M1804.75,-237.53C1713.71,-229.879 1562.44,-212.578 1437,-176 1426.25,-172.864 1415.07,-168.622 1404.54,-164.128"/>
<polygon fill="midnightblue" stroke="midnightblue" points="1804.48,-241.02 1814.73,-238.351 1805.05,-234.043 1804.48,-241.02"/>
</g>
<!-- Node12 -->
<g id="node12" class="node"><title>Node12</title>
<g id="a_node12"><a xlink:href="../../de/d5b/CheckClusterShape_8C.html" target="_top" xlink:title="/home/travis/build\l/AliceO2Group/AliceO2\l/Detectors/ITSMFT/ITS\l/macros/test/CheckClusterShape.C">
<polygon fill="none" stroke="black" points="1445.5,-112 1445.5,-164 1618.5,-164 1618.5,-112 1445.5,-112"/>
<text text-anchor="start" x="1453.5" y="-152" font-family="Helvetica,sans-Serif" font-size="10.00">/home/travis/build</text>
<text text-anchor="start" x="1453.5" y="-141" font-family="Helvetica,sans-Serif" font-size="10.00">/AliceO2Group/AliceO2</text>
<text text-anchor="start" x="1453.5" y="-130" font-family="Helvetica,sans-Serif" font-size="10.00">/Detectors/ITSMFT/ITS</text>
<text text-anchor="middle" x="1532" y="-119" font-family="Helvetica,sans-Serif" font-size="10.00">/macros/test/CheckClusterShape.C</text>
</a>
</g>
</g>
<!-- Node1&#45;&gt;Node12 -->
<g id="edge11" class="edge"><title>Node1&#45;&gt;Node12</title>
<path fill="none" stroke="midnightblue" d="M1804.74,-224.409C1753.6,-212.092 1686.45,-194.784 1628,-176 1616.86,-172.42 1605.14,-168.25 1593.86,-164.026"/>
<polygon fill="midnightblue" stroke="midnightblue" points="1804.21,-227.88 1814.75,-226.805 1805.84,-221.073 1804.21,-227.88"/>
</g>
<!-- Node13 -->
<g id="node13" class="node"><title>Node13</title>
<g id="a_node13"><a xlink:href="../../d9/dd0/CheckDigits_8C.html" target="_top" xlink:title="Simple macro to check ITSU clusters. ">
<polygon fill="none" stroke="black" points="1636.5,-112 1636.5,-164 1775.5,-164 1775.5,-112 1636.5,-112"/>
<text text-anchor="start" x="1644.5" y="-152" font-family="Helvetica,sans-Serif" font-size="10.00">/home/travis/build</text>
<text text-anchor="start" x="1644.5" y="-141" font-family="Helvetica,sans-Serif" font-size="10.00">/AliceO2Group/AliceO2</text>
<text text-anchor="start" x="1644.5" y="-130" font-family="Helvetica,sans-Serif" font-size="10.00">/Detectors/ITSMFT/ITS</text>
<text text-anchor="middle" x="1706" y="-119" font-family="Helvetica,sans-Serif" font-size="10.00">/macros/test/CheckDigits.C</text>
</a>
</g>
</g>
<!-- Node1&#45;&gt;Node13 -->
<g id="edge12" class="edge"><title>Node1&#45;&gt;Node13</title>
<path fill="none" stroke="midnightblue" d="M1824.05,-207.207C1799.42,-192.977 1771.68,-176.948 1749.28,-164.006"/>
<polygon fill="midnightblue" stroke="midnightblue" points="1822.56,-210.387 1832.97,-212.359 1826.06,-204.326 1822.56,-210.387"/>
</g>
<!-- Node14 -->
<g id="node14" class="node"><title>Node14</title>
<g id="a_node14"><a xlink:href="../../d5/d89/TrivialClusterer_8cxx.html" target="_top" xlink:title="Implementation of the ITS cluster finder. ">
<polygon fill="none" stroke="black" points="1793.5,-112 1793.5,-164 1978.5,-164 1978.5,-112 1793.5,-112"/>
<text text-anchor="start" x="1801.5" y="-152" font-family="Helvetica,sans-Serif" font-size="10.00">/home/travis/build</text>
<text text-anchor="start" x="1801.5" y="-141" font-family="Helvetica,sans-Serif" font-size="10.00">/AliceO2Group/AliceO2</text>
<text text-anchor="start" x="1801.5" y="-130" font-family="Helvetica,sans-Serif" font-size="10.00">/Detectors/ITSMFT/ITS</text>
<text text-anchor="middle" x="1886" y="-119" font-family="Helvetica,sans-Serif" font-size="10.00">/reconstruction/src/TrivialClusterer.cxx</text>
</a>
</g>
</g>
<!-- Node1&#45;&gt;Node14 -->
<g id="edge13" class="edge"><title>Node1&#45;&gt;Node14</title>
<path fill="none" stroke="midnightblue" d="M1886,-202.316C1886,-189.454 1886,-175.621 1886,-164.175"/>
<polygon fill="midnightblue" stroke="midnightblue" points="1882.5,-202.359 1886,-212.359 1889.5,-202.359 1882.5,-202.359"/>
</g>
<!-- Node15 -->
<g id="node15" class="node"><title>Node15</title>
<g id="a_node15"><a xlink:href="../../d9/d0d/ITSMFT_2ITS_2simulation_2src_2Detector_8cxx.html" target="_top" xlink:title="/home/travis/build\l/AliceO2Group/AliceO2\l/Detectors/ITSMFT/ITS\l/simulation/src/Detector.cxx">
<polygon fill="none" stroke="black" points="1997,-112 1997,-164 2137,-164 2137,-112 1997,-112"/>
<text text-anchor="start" x="2005" y="-152" font-family="Helvetica,sans-Serif" font-size="10.00">/home/travis/build</text>
<text text-anchor="start" x="2005" y="-141" font-family="Helvetica,sans-Serif" font-size="10.00">/AliceO2Group/AliceO2</text>
<text text-anchor="start" x="2005" y="-130" font-family="Helvetica,sans-Serif" font-size="10.00">/Detectors/ITSMFT/ITS</text>
<text text-anchor="middle" x="2067" y="-119" font-family="Helvetica,sans-Serif" font-size="10.00">/simulation/src/Detector.cxx</text>
</a>
</g>
</g>
<!-- Node1&#45;&gt;Node15 -->
<g id="edge14" class="edge"><title>Node1&#45;&gt;Node15</title>
<path fill="none" stroke="midnightblue" d="M1948.29,-207.207C1973.06,-192.977 2000.96,-176.948 2023.48,-164.006"/>
<polygon fill="midnightblue" stroke="midnightblue" points="1946.25,-204.342 1939.33,-212.359 1949.74,-210.412 1946.25,-204.342"/>
</g>
<!-- Node16 -->
<g id="node16" class="node"><title>Node16</title>
<g id="a_node16"><a xlink:href="../../d5/d24/ChipSegmentation_8cxx.html" target="_top" xlink:title="Description of the virtual segmentation of the chips. ">
<polygon fill="none" stroke="black" points="2155.5,-112 2155.5,-164 2314.5,-164 2314.5,-112 2155.5,-112"/>
<text text-anchor="start" x="2163.5" y="-152" font-family="Helvetica,sans-Serif" font-size="10.00">/home/travis/build</text>
<text text-anchor="start" x="2163.5" y="-141" font-family="Helvetica,sans-Serif" font-size="10.00">/AliceO2Group/AliceO2</text>
<text text-anchor="start" x="2163.5" y="-130" font-family="Helvetica,sans-Serif" font-size="10.00">/Detectors/ITSMFT/MFT</text>
<text text-anchor="middle" x="2235" y="-119" font-family="Helvetica,sans-Serif" font-size="10.00">/base/src/ChipSegmentation.cxx</text>
</a>
</g>
</g>
<!-- Node1&#45;&gt;Node16 -->
<g id="edge15" class="edge"><title>Node1&#45;&gt;Node16</title>
<path fill="none" stroke="midnightblue" d="M1966.93,-225.268C2018.68,-213.165 2086.93,-195.778 2146,-176 2156.47,-172.493 2167.46,-168.336 2178,-164.096"/>
<polygon fill="midnightblue" stroke="midnightblue" points="1966.09,-221.87 1957.14,-227.541 1967.67,-228.689 1966.09,-221.87"/>
</g>
<!-- Node17 -->
<g id="node17" class="node"><title>Node17</title>
<g id="a_node17"><a xlink:href="../../d7/d93/Flex_8cxx.html" target="_top" xlink:title="Flex class for ALICE MFT upgrade. ">
<polygon fill="none" stroke="black" points="2332.5,-112 2332.5,-164 2457.5,-164 2457.5,-112 2332.5,-112"/>
<text text-anchor="start" x="2340.5" y="-152" font-family="Helvetica,sans-Serif" font-size="10.00">/home/travis/build</text>
<text text-anchor="start" x="2340.5" y="-141" font-family="Helvetica,sans-Serif" font-size="10.00">/AliceO2Group/AliceO2</text>
<text text-anchor="start" x="2340.5" y="-130" font-family="Helvetica,sans-Serif" font-size="10.00">/Detectors/ITSMFT/MFT</text>
<text text-anchor="middle" x="2395" y="-119" font-family="Helvetica,sans-Serif" font-size="10.00">/base/src/Flex.cxx</text>
</a>
</g>
</g>
<!-- Node1&#45;&gt;Node17 -->
<g id="edge16" class="edge"><title>Node1&#45;&gt;Node17</title>
<path fill="none" stroke="midnightblue" d="M1967.29,-238.379C2056.43,-231.523 2202.78,-214.964 2323,-176 2332.63,-172.88 2342.53,-168.589 2351.8,-164.031"/>
<polygon fill="midnightblue" stroke="midnightblue" points="1966.96,-234.894 1957.24,-239.129 1967.48,-241.875 1966.96,-234.894"/>
</g>
<!-- Node18 -->
<g id="node18" class="node"><title>Node18</title>
<g id="a_node18"><a xlink:href="../../df/d07/MFT_2base_2src_2GeometryTGeo_8cxx.html" target="_top" xlink:title="/home/travis/build\l/AliceO2Group/AliceO2\l/Detectors/ITSMFT/MFT\l/base/src/GeometryTGeo.cxx">
<polygon fill="none" stroke="black" points="2476,-112 2476,-164 2622,-164 2622,-112 2476,-112"/>
<text text-anchor="start" x="2484" y="-152" font-family="Helvetica,sans-Serif" font-size="10.00">/home/travis/build</text>
<text text-anchor="start" x="2484" y="-141" font-family="Helvetica,sans-Serif" font-size="10.00">/AliceO2Group/AliceO2</text>
<text text-anchor="start" x="2484" y="-130" font-family="Helvetica,sans-Serif" font-size="10.00">/Detectors/ITSMFT/MFT</text>
<text text-anchor="middle" x="2549" y="-119" font-family="Helvetica,sans-Serif" font-size="10.00">/base/src/GeometryTGeo.cxx</text>
</a>
</g>
</g>
<!-- Node1&#45;&gt;Node18 -->
<g id="edge17" class="edge"><title>Node1&#45;&gt;Node18</title>
<path fill="none" stroke="midnightblue" d="M1967.41,-241.356C2080.99,-237.325 2292.56,-223.473 2466,-176 2477.11,-172.959 2488.63,-168.644 2499.43,-164.029"/>
<polygon fill="midnightblue" stroke="midnightblue" points="1967.27,-237.859 1957.4,-241.695 1967.51,-244.855 1967.27,-237.859"/>
</g>
<!-- Node19 -->
<g id="node19" class="node"><title>Node19</title>
<g id="a_node19"><a xlink:href="../../d1/d8f/HalfDiskSegmentation_8cxx.html" target="_top" xlink:title="Class for the description of the structure of a half&#45;disk. ">
<polygon fill="none" stroke="black" points="2640.5,-112 2640.5,-164 2817.5,-164 2817.5,-112 2640.5,-112"/>
<text text-anchor="start" x="2648.5" y="-152" font-family="Helvetica,sans-Serif" font-size="10.00">/home/travis/build</text>
<text text-anchor="start" x="2648.5" y="-141" font-family="Helvetica,sans-Serif" font-size="10.00">/AliceO2Group/AliceO2</text>
<text text-anchor="start" x="2648.5" y="-130" font-family="Helvetica,sans-Serif" font-size="10.00">/Detectors/ITSMFT/MFT</text>
<text text-anchor="middle" x="2729" y="-119" font-family="Helvetica,sans-Serif" font-size="10.00">/base/src/HalfDiskSegmentation.cxx</text>
</a>
</g>
</g>
<!-- Node1&#45;&gt;Node19 -->
<g id="edge18" class="edge"><title>Node1&#45;&gt;Node19</title>
<path fill="none" stroke="midnightblue" d="M1967.18,-242.853C2105.29,-241.023 2394.06,-230.317 2631,-176 2644.03,-173.013 2657.65,-168.692 2670.46,-164.048"/>
<polygon fill="midnightblue" stroke="midnightblue" points="1967.06,-239.354 1957.1,-242.975 1967.14,-246.354 1967.06,-239.354"/>
</g>
<!-- Node20 -->
<g id="node20" class="node"><title>Node20</title>
<g id="a_node20"><a xlink:href="../../dc/d80/Ladder_8cxx.html" target="_top" xlink:title="Ladder builder. ">
<polygon fill="none" stroke="black" points="2835.5,-112 2835.5,-164 2960.5,-164 2960.5,-112 2835.5,-112"/>
<text text-anchor="start" x="2843.5" y="-152" font-family="Helvetica,sans-Serif" font-size="10.00">/home/travis/build</text>
<text text-anchor="start" x="2843.5" y="-141" font-family="Helvetica,sans-Serif" font-size="10.00">/AliceO2Group/AliceO2</text>
<text text-anchor="start" x="2843.5" y="-130" font-family="Helvetica,sans-Serif" font-size="10.00">/Detectors/ITSMFT/MFT</text>
<text text-anchor="middle" x="2898" y="-119" font-family="Helvetica,sans-Serif" font-size="10.00">/base/src/Ladder.cxx</text>
</a>
</g>
</g>
<!-- Node1&#45;&gt;Node20 -->
<g id="edge19" class="edge"><title>Node1&#45;&gt;Node20</title>
<path fill="none" stroke="midnightblue" d="M1967.2,-241.386C2164.64,-236.794 2665.43,-220.946 2826,-176 2836.15,-173.159 2846.53,-168.807 2856.14,-164.073"/>
<polygon fill="midnightblue" stroke="midnightblue" points="1967.09,-237.888 1957.17,-241.616 1967.25,-244.886 1967.09,-237.888"/>
</g>
<!-- Node21 -->
<g id="node21" class="node"><title>Node21</title>
<g id="a_node21"><a xlink:href="../../d7/d4c/HitAnalysis_8cxx.html" target="_top" xlink:title="/home/travis/build\l/AliceO2Group/AliceO2\l/Detectors/ITSMFT/test\l/HitAnalysis/src/HitAnalysis.cxx">
<polygon fill="none" stroke="black" points="2978,-112 2978,-164 3136,-164 3136,-112 2978,-112"/>
<text text-anchor="start" x="2986" y="-152" font-family="Helvetica,sans-Serif" font-size="10.00">/home/travis/build</text>
<text text-anchor="start" x="2986" y="-141" font-family="Helvetica,sans-Serif" font-size="10.00">/AliceO2Group/AliceO2</text>
<text text-anchor="start" x="2986" y="-130" font-family="Helvetica,sans-Serif" font-size="10.00">/Detectors/ITSMFT/test</text>
<text text-anchor="middle" x="3057" y="-119" font-family="Helvetica,sans-Serif" font-size="10.00">/HitAnalysis/src/HitAnalysis.cxx</text>
</a>
</g>
</g>
<!-- Node1&#45;&gt;Node21 -->
<g id="edge20" class="edge"><title>Node1&#45;&gt;Node21</title>
<path fill="none" stroke="midnightblue" d="M1967.14,-241.498C2184.92,-236.906 2778.62,-220.555 2969,-176 2981.1,-173.167 2993.67,-168.819 3005.38,-164.086"/>
<polygon fill="midnightblue" stroke="midnightblue" points="1966.98,-238 1957.06,-241.708 1967.13,-244.999 1966.98,-238"/>
</g>
<!-- Node22 -->
<g id="node22" class="node"><title>Node22</title>
<g id="a_node22"><a xlink:href="../../d1/d88/CheckDigits__mft_8C.html" target="_top" xlink:title="Simple macro to check MFT digits. ">
<polygon fill="none" stroke="black" points="3154,-117.5 3154,-158.5 3288,-158.5 3288,-117.5 3154,-117.5"/>
<text text-anchor="start" x="3162" y="-146.5" font-family="Helvetica,sans-Serif" font-size="10.00">/home/travis/build</text>
<text text-anchor="start" x="3162" y="-135.5" font-family="Helvetica,sans-Serif" font-size="10.00">/AliceO2Group/AliceO2</text>
<text text-anchor="middle" x="3221" y="-124.5" font-family="Helvetica,sans-Serif" font-size="10.00">/macro/CheckDigits_mft.C</text>
</a>
</g>
</g>
<!-- Node1&#45;&gt;Node22 -->
<g id="edge21" class="edge"><title>Node1&#45;&gt;Node22</title>
<path fill="none" stroke="midnightblue" d="M1967.48,-242.824C2209.35,-241.647 2920.24,-233.274 3144,-176 3158.94,-172.175 3174.45,-165.352 3187.6,-158.597"/>
<polygon fill="midnightblue" stroke="midnightblue" points="1967.34,-239.325 1957.35,-242.871 1967.37,-246.325 1967.34,-239.325"/>
</g>
<!-- Node23 -->
<g id="node23" class="node"><title>Node23</title>
<g id="a_node23"><a xlink:href="../../d9/d71/run__sim_8C.html" target="_top" xlink:title="/home/travis/build\l/AliceO2Group/AliceO2\l/macro/run_sim.C">
<polygon fill="none" stroke="black" points="3306,-117.5 3306,-158.5 3424,-158.5 3424,-117.5 3306,-117.5"/>
<text text-anchor="start" x="3314" y="-146.5" font-family="Helvetica,sans-Serif" font-size="10.00">/home/travis/build</text>
<text text-anchor="start" x="3314" y="-135.5" font-family="Helvetica,sans-Serif" font-size="10.00">/AliceO2Group/AliceO2</text>
<text text-anchor="middle" x="3365" y="-124.5" font-family="Helvetica,sans-Serif" font-size="10.00">/macro/run_sim.C</text>
</a>
</g>
</g>
<!-- Node1&#45;&gt;Node23 -->
<g id="edge22" class="edge"><title>Node1&#45;&gt;Node23</title>
<path fill="none" stroke="midnightblue" d="M1967.48,-241.258C2248.81,-234.948 3169.2,-211.765 3297,-176 3310.46,-172.233 3324.21,-165.42 3335.79,-158.658"/>
<polygon fill="midnightblue" stroke="midnightblue" points="1967.26,-237.761 1957.34,-241.484 1967.42,-244.76 1967.26,-237.761"/>
</g>
<!-- Node24 -->
<g id="node24" class="node"><title>Node24</title>
<g id="a_node24"><a xlink:href="../../d5/dd2/run__sim__its__ALP3_8C.html" target="_top" xlink:title="/home/travis/build\l/AliceO2Group/AliceO2\l/macro/run_sim_its_ALP3.C">
<polygon fill="none" stroke="black" points="3442,-117.5 3442,-158.5 3582,-158.5 3582,-117.5 3442,-117.5"/>
<text text-anchor="start" x="3450" y="-146.5" font-family="Helvetica,sans-Serif" font-size="10.00">/home/travis/build</text>
<text text-anchor="start" x="3450" y="-135.5" font-family="Helvetica,sans-Serif" font-size="10.00">/AliceO2Group/AliceO2</text>
<text text-anchor="middle" x="3512" y="-124.5" font-family="Helvetica,sans-Serif" font-size="10.00">/macro/run_sim_its_ALP3.C</text>
</a>
</g>
</g>
<!-- Node1&#45;&gt;Node24 -->
<g id="edge23" class="edge"><title>Node1&#45;&gt;Node24</title>
<path fill="none" stroke="midnightblue" d="M1967.55,-241.343C2266.25,-235.015 3290.52,-210.964 3433,-176 3448.3,-172.246 3464.2,-165.436 3477.7,-158.672"/>
<polygon fill="midnightblue" stroke="midnightblue" points="1967.16,-237.85 1957.24,-241.56 1967.31,-244.848 1967.16,-237.85"/>
</g>
<!-- Node4 -->
<g id="node4" class="node"><title>Node4</title>
<g id="a_node4"><a xlink:href="../../d9/d9d/BuildTopologyDictionary_8cxx.html" target="_top" xlink:title="Implementation of the BuildTopologyDictionary class. ">
<polygon fill="none" stroke="black" points="106,-0.5 106,-63.5 268,-63.5 268,-0.5 106,-0.5"/>
<text text-anchor="start" x="114" y="-51.5" font-family="Helvetica,sans-Serif" font-size="10.00">/home/travis/build</text>
<text text-anchor="start" x="114" y="-40.5" font-family="Helvetica,sans-Serif" font-size="10.00">/AliceO2Group/AliceO2</text>
<text text-anchor="start" x="114" y="-29.5" font-family="Helvetica,sans-Serif" font-size="10.00">/Detectors/ITSMFT/common</text>
<text text-anchor="start" x="114" y="-18.5" font-family="Helvetica,sans-Serif" font-size="10.00">/reconstruction/src/BuildTopology</text>
<text text-anchor="middle" x="187" y="-7.5" font-family="Helvetica,sans-Serif" font-size="10.00">Dictionary.cxx</text>
</a>
</g>
</g>
<!-- Node3&#45;&gt;Node4 -->
<g id="edge3" class="edge"><title>Node3&#45;&gt;Node4</title>
<path fill="none" stroke="midnightblue" d="M239.034,-93.1284C230.506,-83.2741 221.633,-73.0206 213.68,-63.8307"/>
<polygon fill="midnightblue" stroke="midnightblue" points="236.585,-95.6463 245.775,-100.918 241.878,-91.0657 236.585,-95.6463"/>
</g>
<!-- Node5 -->
<g id="node5" class="node"><title>Node5</title>
<g id="a_node5"><a xlink:href="../../d9/db4/CheckTopologies_8C.html" target="_top" xlink:title="/home/travis/build\l/AliceO2Group/AliceO2\l/Detectors/ITSMFT/ITS\l/macros/test/CheckTopologies.C">
<polygon fill="none" stroke="black" points="286.5,-6 286.5,-58 447.5,-58 447.5,-6 286.5,-6"/>
<text text-anchor="start" x="294.5" y="-46" font-family="Helvetica,sans-Serif" font-size="10.00">/home/travis/build</text>
<text text-anchor="start" x="294.5" y="-35" font-family="Helvetica,sans-Serif" font-size="10.00">/AliceO2Group/AliceO2</text>
<text text-anchor="start" x="294.5" y="-24" font-family="Helvetica,sans-Serif" font-size="10.00">/Detectors/ITSMFT/ITS</text>
<text text-anchor="middle" x="367" y="-13" font-family="Helvetica,sans-Serif" font-size="10.00">/macros/test/CheckTopologies.C</text>
</a>
</g>
</g>
<!-- Node3&#45;&gt;Node5 -->
<g id="edge4" class="edge"><title>Node3&#45;&gt;Node5</title>
<path fill="none" stroke="midnightblue" d="M314.914,-93.188C325.241,-81.2546 336.079,-68.7311 345.178,-58.217"/>
<polygon fill="midnightblue" stroke="midnightblue" points="312.122,-91.0657 308.225,-100.918 317.415,-95.6463 312.122,-91.0657"/>
</g>
</g>
</svg>
