<?xml version="1.0" encoding="UTF-8" standalone="no"?>
<!DOCTYPE svg PUBLIC "-//W3C//DTD SVG 1.1//EN"
 "http://www.w3.org/Graphics/SVG/1.1/DTD/svg11.dtd">
<!-- Generated by graphviz version 2.36.0 (20140111.2315)
 -->
<!-- Title: /home/travis/build/AliceO2Group/AliceO2/Detectors/FIT/simulation/src/Detector.cxx Pages: 1 -->
<svg width="2393pt" height="378pt"
 viewBox="0.00 0.00 2393.00 378.00" xmlns="http://www.w3.org/2000/svg" xmlns:xlink="http://www.w3.org/1999/xlink">
<g id="graph0" class="graph" transform="scale(1 1) rotate(0) translate(4 374)">
<title>/home/travis/build/AliceO2Group/AliceO2/Detectors/FIT/simulation/src/Detector.cxx</title>
<!-- Node1 -->
<g id="node1" class="node"><title>Node1</title>
<polygon fill="#bfbfbf" stroke="black" points="1214,-317 1214,-369 1342,-369 1342,-317 1214,-317"/>
<text text-anchor="start" x="1222" y="-357" font-family="Helvetica,sans-Serif" font-size="10.00">/home/travis/build</text>
<text text-anchor="start" x="1222" y="-346" font-family="Helvetica,sans-Serif" font-size="10.00">/AliceO2Group/AliceO2</text>
<text text-anchor="start" x="1222" y="-335" font-family="Helvetica,sans-Serif" font-size="10.00">/Detectors/FIT/simulation</text>
<text text-anchor="middle" x="1278" y="-324" font-family="Helvetica,sans-Serif" font-size="10.00">/src/Detector.cxx</text>
</g>
<!-- Node2 -->
<g id="node2" class="node"><title>Node2</title>
<polygon fill="none" stroke="#bfbfbf" points="767,-260.5 767,-279.5 853,-279.5 853,-260.5 767,-260.5"/>
<text text-anchor="middle" x="810" y="-267.5" font-family="Helvetica,sans-Serif" font-size="10.00">TGeoManager.h</text>
</g>
<!-- Node1&#45;&gt;Node2 -->
<g id="edge1" class="edge"><title>Node1&#45;&gt;Node2</title>
<path fill="none" stroke="midnightblue" d="M1213.79,-332.906C1134.08,-321.511 993.712,-301.096 863.289,-280.178"/>
<polygon fill="midnightblue" stroke="midnightblue" points="863.546,-276.675 853.117,-278.543 862.435,-283.586 863.546,-276.675"/>
</g>
<!-- Node3 -->
<g id="node3" class="node"><title>Node3</title>
<polygon fill="none" stroke="#bfbfbf" points="871.5,-260.5 871.5,-279.5 924.5,-279.5 924.5,-260.5 871.5,-260.5"/>
<text text-anchor="middle" x="898" y="-267.5" font-family="Helvetica,sans-Serif" font-size="10.00">TMath.h</text>
</g>
<!-- Node1&#45;&gt;Node3 -->
<g id="edge2" class="edge"><title>Node1&#45;&gt;Node3</title>
<path fill="none" stroke="midnightblue" d="M1213.82,-331.922C1146.5,-321.024 1037.44,-302.443 934.633,-280.243"/>
<polygon fill="midnightblue" stroke="midnightblue" points="935.22,-276.789 924.705,-278.083 933.732,-283.629 935.22,-276.789"/>
</g>
<!-- Node4 -->
<g id="node4" class="node"><title>Node4</title>
<polygon fill="none" stroke="#bfbfbf" points="942.5,-260.5 942.5,-279.5 999.5,-279.5 999.5,-260.5 942.5,-260.5"/>
<text text-anchor="middle" x="971" y="-267.5" font-family="Helvetica,sans-Serif" font-size="10.00">TGraph.h</text>
</g>
<!-- Node1&#45;&gt;Node4 -->
<g id="edge3" class="edge"><title>Node1&#45;&gt;Node4</title>
<path fill="none" stroke="midnightblue" d="M1213.84,-327.327C1161.56,-315.344 1085.55,-297.862 1009.4,-280.083"/>
<polygon fill="midnightblue" stroke="midnightblue" points="1010.16,-276.667 999.629,-277.8 1008.57,-283.484 1010.16,-276.667"/>
</g>
<!-- Node5 -->
<g id="node5" class="node"><title>Node5</title>
<polygon fill="none" stroke="#bfbfbf" points="1018,-260.5 1018,-279.5 1074,-279.5 1074,-260.5 1018,-260.5"/>
<text text-anchor="middle" x="1046" y="-267.5" font-family="Helvetica,sans-Serif" font-size="10.00">TString.h</text>
</g>
<!-- Node1&#45;&gt;Node5 -->
<g id="edge4" class="edge"><title>Node1&#45;&gt;Node5</title>
<path fill="none" stroke="midnightblue" d="M1213.99,-322.411C1172.12,-309.597 1118.85,-293.296 1083.66,-282.524"/>
<polygon fill="midnightblue" stroke="midnightblue" points="1084.38,-279.084 1073.79,-279.504 1082.33,-285.778 1084.38,-279.084"/>
</g>
<!-- Node6 -->
<g id="node6" class="node"><title>Node6</title>
<polygon fill="none" stroke="#bfbfbf" points="1092.5,-260.5 1092.5,-279.5 1157.5,-279.5 1157.5,-260.5 1092.5,-260.5"/>
<text text-anchor="middle" x="1125" y="-267.5" font-family="Helvetica,sans-Serif" font-size="10.00">TSystem.h</text>
</g>
<!-- Node1&#45;&gt;Node6 -->
<g id="edge5" class="edge"><title>Node1&#45;&gt;Node6</title>
<path fill="none" stroke="midnightblue" d="M1224.06,-316.968C1199.95,-305.783 1172.57,-293.075 1152.71,-283.86"/>
<polygon fill="midnightblue" stroke="midnightblue" points="1154.16,-280.673 1143.62,-279.639 1151.21,-287.023 1154.16,-280.673"/>
</g>
<!-- Node7 -->
<g id="node7" class="node"><title>Node7</title>
<polygon fill="none" stroke="#bfbfbf" points="1176,-260.5 1176,-279.5 1250,-279.5 1250,-260.5 1176,-260.5"/>
<text text-anchor="middle" x="1213" y="-267.5" font-family="Helvetica,sans-Serif" font-size="10.00">TVirtualMC.h</text>
</g>
<!-- Node1&#45;&gt;Node7 -->
<g id="edge6" class="edge"><title>Node1&#45;&gt;Node7</title>
<path fill="none" stroke="midnightblue" d="M1254.9,-316.768C1245.94,-306.982 1235.94,-296.056 1227.95,-287.335"/>
<polygon fill="midnightblue" stroke="midnightblue" points="1230.35,-284.77 1221.02,-279.757 1225.19,-289.496 1230.35,-284.77"/>
</g>
<!-- Node8 -->
<g id="node8" class="node"><title>Node8</title>
<polygon fill="none" stroke="#bfbfbf" points="797.5,-136.5 797.5,-155.5 862.5,-155.5 862.5,-136.5 797.5,-136.5"/>
<text text-anchor="middle" x="830" y="-143.5" font-family="Helvetica,sans-Serif" font-size="10.00">TVector3.h</text>
</g>
<!-- Node1&#45;&gt;Node8 -->
<g id="edge7" class="edge"><title>Node1&#45;&gt;Node8</title>
<path fill="none" stroke="midnightblue" d="M1278.67,-316.939C1277.78,-298.824 1273.55,-274.995 1259,-260 1245.26,-245.843 978.619,-181.942 872.773,-157.008"/>
<polygon fill="midnightblue" stroke="midnightblue" points="873.285,-153.533 862.749,-154.65 871.682,-160.347 873.285,-153.533"/>
</g>
<!-- Node9 -->
<g id="node9" class="node"><title>Node9</title>
<polygon fill="none" stroke="#bfbfbf" points="2285,-136.5 2285,-155.5 2385,-155.5 2385,-136.5 2285,-136.5"/>
<text text-anchor="middle" x="2335" y="-143.5" font-family="Helvetica,sans-Serif" font-size="10.00">FairRootManager.h</text>
</g>
<!-- Node1&#45;&gt;Node9 -->
<g id="edge8" class="edge"><title>Node1&#45;&gt;Node9</title>
<path fill="none" stroke="midnightblue" d="M1342,-324.358C1408.4,-306.478 1515.41,-278.837 1609,-260 1674.01,-246.916 2112.38,-180.536 2274.71,-156.071"/>
<polygon fill="midnightblue" stroke="midnightblue" points="2275.63,-159.472 2284.99,-154.521 2274.58,-152.55 2275.63,-159.472"/>
</g>
<!-- Node10 -->
<g id="node10" class="node"><title>Node10</title>
<polygon fill="none" stroke="#bfbfbf" points="1617.5,-260.5 1617.5,-279.5 1688.5,-279.5 1688.5,-260.5 1617.5,-260.5"/>
<text text-anchor="middle" x="1653" y="-267.5" font-family="Helvetica,sans-Serif" font-size="10.00">FairLogger.h</text>
</g>
<!-- Node1&#45;&gt;Node10 -->
<g id="edge9" class="edge"><title>Node1&#45;&gt;Node10</title>
<path fill="none" stroke="midnightblue" d="M1342.04,-329.875C1417.39,-315.608 1540.64,-292.273 1607.09,-279.692"/>
<polygon fill="midnightblue" stroke="midnightblue" points="1608.08,-283.068 1617.25,-277.768 1606.78,-276.19 1608.08,-283.068"/>
</g>
<!-- Node11 -->
<g id="node11" class="node"><title>Node11</title>
<polygon fill="none" stroke="#bfbfbf" points="1707,-260.5 1707,-279.5 1781,-279.5 1781,-260.5 1707,-260.5"/>
<text text-anchor="middle" x="1744" y="-267.5" font-family="Helvetica,sans-Serif" font-size="10.00">FairVolume.h</text>
</g>
<!-- Node1&#45;&gt;Node11 -->
<g id="edge10" class="edge"><title>Node1&#45;&gt;Node11</title>
<path fill="none" stroke="midnightblue" d="M1342.02,-333.384C1422.31,-322.387 1564.42,-302.29 1696.9,-279.95"/>
<polygon fill="midnightblue" stroke="midnightblue" points="1697.55,-283.39 1706.83,-278.269 1696.38,-276.488 1697.55,-283.39"/>
</g>
<!-- Node12 -->
<g id="node12" class="node"><title>Node12</title>
<polygon fill="none" stroke="#bfbfbf" points="1799,-260.5 1799,-279.5 1851,-279.5 1851,-260.5 1799,-260.5"/>
<text text-anchor="middle" x="1825" y="-267.5" font-family="Helvetica,sans-Serif" font-size="10.00">sstream</text>
</g>
<!-- Node1&#45;&gt;Node12 -->
<g id="edge11" class="edge"><title>Node1&#45;&gt;Node12</title>
<path fill="none" stroke="midnightblue" d="M1342.27,-336.943C1437.78,-328.828 1622.88,-310.791 1788.82,-280.009"/>
<polygon fill="midnightblue" stroke="midnightblue" points="1789.53,-283.438 1798.71,-278.155 1788.24,-276.557 1789.53,-283.438"/>
</g>
<!-- Node13 -->
<g id="node13" class="node"><title>Node13</title>
<g id="a_node13"><a xlink:href="../../d1/db1/FIT_2base_2include_2FITBase_2Geometry_8h.html" target="_top" xlink:title="FITBase/Geometry.h">
<polygon fill="none" stroke="black" points="1252,-198.5 1252,-217.5 1360,-217.5 1360,-198.5 1252,-198.5"/>
<text text-anchor="middle" x="1306" y="-205.5" font-family="Helvetica,sans-Serif" font-size="10.00">FITBase/Geometry.h</text>
</a>
</g>
</g>
<!-- Node1&#45;&gt;Node13 -->
<g id="edge12" class="edge"><title>Node1&#45;&gt;Node13</title>
<path fill="none" stroke="midnightblue" d="M1283.81,-316.996C1286.39,-305.709 1289.42,-292.2 1292,-280 1295.73,-262.348 1299.68,-242.157 1302.43,-227.831"/>
<polygon fill="midnightblue" stroke="midnightblue" points="1305.92,-228.239 1304.35,-217.76 1299.04,-226.928 1305.92,-228.239"/>
</g>
<!-- Node15 -->
<g id="node15" class="node"><title>Node15</title>
<g id="a_node15"><a xlink:href="../../de/d6b/FIT_2simulation_2include_2FITSimulation_2Detector_8h.html" target="_top" xlink:title="FITSimulation/Detector.h">
<polygon fill="none" stroke="black" points="1363,-260.5 1363,-279.5 1489,-279.5 1489,-260.5 1363,-260.5"/>
<text text-anchor="middle" x="1426" y="-267.5" font-family="Helvetica,sans-Serif" font-size="10.00">FITSimulation/Detector.h</text>
</a>
</g>
</g>
<!-- Node1&#45;&gt;Node15 -->
<g id="edge15" class="edge"><title>Node1&#45;&gt;Node15</title>
<path fill="none" stroke="midnightblue" d="M1330.18,-316.968C1353.39,-305.834 1379.74,-293.191 1398.93,-283.986"/>
<polygon fill="midnightblue" stroke="midnightblue" points="1400.49,-287.12 1407.99,-279.639 1397.46,-280.809 1400.49,-287.12"/>
</g>
<!-- Node13&#45;&gt;Node8 -->
<g id="edge14" class="edge"><title>Node13&#45;&gt;Node8</title>
<path fill="none" stroke="midnightblue" d="M1271.21,-198.488C1260.6,-196.119 1248.87,-193.725 1238,-192 1079.45,-166.829 1034.7,-181.004 872.925,-156.136"/>
<polygon fill="midnightblue" stroke="midnightblue" points="873.028,-152.61 862.608,-154.522 871.946,-159.526 873.028,-152.61"/>
</g>
<!-- Node14 -->
<g id="node14" class="node"><title>Node14</title>
<polygon fill="none" stroke="#bfbfbf" points="1287,-74.5 1287,-93.5 1343,-93.5 1343,-74.5 1287,-74.5"/>
<text text-anchor="middle" x="1315" y="-81.5" font-family="Helvetica,sans-Serif" font-size="10.00">Rtypes.h</text>
</g>
<!-- Node13&#45;&gt;Node14 -->
<g id="edge13" class="edge"><title>Node13&#45;&gt;Node14</title>
<path fill="none" stroke="midnightblue" d="M1267.91,-198.458C1258.16,-196.312 1247.7,-194.04 1238,-192 1156.01,-174.76 1003.77,-199.867 1058,-136 1089.92,-98.4034 1229.46,-113.129 1277,-100 1279.98,-99.1769 1283.05,-98.1992 1286.09,-97.1434"/>
<polygon fill="midnightblue" stroke="midnightblue" points="1287.41,-100.384 1295.55,-93.5983 1284.96,-93.8288 1287.41,-100.384"/>
</g>
<!-- Node15&#45;&gt;Node13 -->
<g id="edge50" class="edge"><title>Node15&#45;&gt;Node13</title>
<path fill="none" stroke="midnightblue" d="M1408.81,-260.403C1388.76,-250.379 1355.4,-233.701 1332.14,-222.07"/>
<polygon fill="midnightblue" stroke="midnightblue" points="1333.67,-218.922 1323.16,-217.581 1330.54,-225.183 1333.67,-218.922"/>
</g>
<!-- Node16 -->
<g id="node16" class="node"><title>Node16</title>
<g id="a_node16"><a xlink:href="../../d4/d25/BaseHits_8h.html" target="_top" xlink:title="SimulationDataFormat\l/BaseHits.h">
<polygon fill="none" stroke="black" points="1378,-193 1378,-223 1492,-223 1492,-193 1378,-193"/>
<text text-anchor="start" x="1386" y="-211" font-family="Helvetica,sans-Serif" font-size="10.00">SimulationDataFormat</text>
<text text-anchor="middle" x="1435" y="-200" font-family="Helvetica,sans-Serif" font-size="10.00">/BaseHits.h</text>
</a>
</g>
</g>
<!-- Node15&#45;&gt;Node16 -->
<g id="edge16" class="edge"><title>Node15&#45;&gt;Node16</title>
<path fill="none" stroke="midnightblue" d="M1427.29,-260.403C1428.36,-253.265 1429.94,-242.752 1431.39,-233.09"/>
<polygon fill="midnightblue" stroke="midnightblue" points="1434.86,-233.549 1432.88,-223.141 1427.93,-232.511 1434.86,-233.549"/>
</g>
<!-- Node28 -->
<g id="node28" class="node"><title>Node28</title>
<g id="a_node28"><a xlink:href="../../d1/d3a/Base_2include_2DetectorsBase_2Detector_8h.html" target="_top" xlink:title="DetectorsBase/Detector.h">
<polygon fill="none" stroke="black" points="1510.5,-198.5 1510.5,-217.5 1641.5,-217.5 1641.5,-198.5 1510.5,-198.5"/>
<text text-anchor="middle" x="1576" y="-205.5" font-family="Helvetica,sans-Serif" font-size="10.00">DetectorsBase/Detector.h</text>
</a>
</g>
</g>
<!-- Node15&#45;&gt;Node28 -->
<g id="edge29" class="edge"><title>Node15&#45;&gt;Node28</title>
<path fill="none" stroke="midnightblue" d="M1447.49,-260.403C1473.11,-250.156 1516.11,-232.956 1545.24,-221.302"/>
<polygon fill="midnightblue" stroke="midnightblue" points="1546.56,-224.544 1554.55,-217.581 1543.96,-218.045 1546.56,-224.544"/>
</g>
<!-- Node17 -->
<g id="node17" class="node"><title>Node17</title>
<g id="a_node17"><a xlink:href="../../dd/d76/Cartesian3D_8h.html" target="_top" xlink:title="MathUtils/Cartesian3D.h">
<polygon fill="none" stroke="black" points="880.5,-136.5 880.5,-155.5 1005.5,-155.5 1005.5,-136.5 880.5,-136.5"/>
<text text-anchor="middle" x="943" y="-143.5" font-family="Helvetica,sans-Serif" font-size="10.00">MathUtils/Cartesian3D.h</text>
</a>
</g>
</g>
<!-- Node16&#45;&gt;Node17 -->
<g id="edge17" class="edge"><title>Node16&#45;&gt;Node17</title>
<path fill="none" stroke="midnightblue" d="M1377.84,-193.575C1374.86,-193.01 1371.9,-192.481 1369,-192 1302.97,-181.048 1119.17,-163.249 1015.87,-153.647"/>
<polygon fill="midnightblue" stroke="midnightblue" points="1016.11,-150.154 1005.83,-152.715 1015.46,-157.124 1016.11,-150.154"/>
</g>
<!-- Node17&#45;&gt;Node14 -->
<g id="edge23" class="edge"><title>Node17&#45;&gt;Node14</title>
<path fill="none" stroke="midnightblue" d="M1005.61,-137.395C1095.02,-126.407 1251.38,-106.677 1277,-100 1280.06,-99.2029 1283.2,-98.2288 1286.31,-97.1635"/>
<polygon fill="midnightblue" stroke="midnightblue" points="1287.83,-100.334 1295.97,-93.5546 1285.38,-93.7766 1287.83,-100.334"/>
</g>
<!-- Node18 -->
<g id="node18" class="node"><title>Node18</title>
<polygon fill="none" stroke="#bfbfbf" points="246.5,-69 246.5,-99 397.5,-99 397.5,-69 246.5,-69"/>
<text text-anchor="start" x="254.5" y="-87" font-family="Helvetica,sans-Serif" font-size="10.00">Math/GenVector/Displacement</text>
<text text-anchor="middle" x="322" y="-76" font-family="Helvetica,sans-Serif" font-size="10.00">Vector3D.h</text>
</g>
<!-- Node17&#45;&gt;Node18 -->
<g id="edge18" class="edge"><title>Node17&#45;&gt;Node18</title>
<path fill="none" stroke="midnightblue" d="M880.191,-136.973C877.085,-136.631 874.008,-136.305 871,-136 668.425,-115.492 613.895,-125.673 407.871,-100.028"/>
<polygon fill="midnightblue" stroke="midnightblue" points="408.303,-96.5545 397.944,-98.779 407.429,-103.5 408.303,-96.5545"/>
</g>
<!-- Node19 -->
<g id="node19" class="node"><title>Node19</title>
<polygon fill="none" stroke="#bfbfbf" points="416,-74.5 416,-93.5 592,-93.5 592,-74.5 416,-74.5"/>
<text text-anchor="middle" x="504" y="-81.5" font-family="Helvetica,sans-Serif" font-size="10.00">Math/GenVector/PositionVector3D.h</text>
</g>
<!-- Node17&#45;&gt;Node19 -->
<g id="edge19" class="edge"><title>Node17&#45;&gt;Node19</title>
<path fill="none" stroke="midnightblue" d="M880.199,-136.949C796.44,-126.178 652.612,-107.56 600,-100 589.325,-98.4661 577.995,-96.7628 567.003,-95.0705"/>
<polygon fill="midnightblue" stroke="midnightblue" points="567.45,-91.598 557.032,-93.5245 566.377,-98.5153 567.45,-91.598"/>
</g>
<!-- Node20 -->
<g id="node20" class="node"><title>Node20</title>
<polygon fill="none" stroke="#bfbfbf" points="609.5,-74.5 609.5,-93.5 758.5,-93.5 758.5,-74.5 609.5,-74.5"/>
<text text-anchor="middle" x="684" y="-81.5" font-family="Helvetica,sans-Serif" font-size="10.00">Math/GenVector/Rotation3D.h</text>
</g>
<!-- Node17&#45;&gt;Node20 -->
<g id="edge20" class="edge"><title>Node17&#45;&gt;Node20</title>
<path fill="none" stroke="midnightblue" d="M906.167,-136.467C860.045,-125.783 780.99,-107.469 730.676,-95.8129"/>
<polygon fill="midnightblue" stroke="midnightblue" points="731.238,-92.3506 720.706,-93.5034 729.658,-99.17 731.238,-92.3506"/>
</g>
<!-- Node21 -->
<g id="node21" class="node"><title>Node21</title>
<polygon fill="none" stroke="#bfbfbf" points="777,-74.5 777,-93.5 933,-93.5 933,-74.5 777,-74.5"/>
<text text-anchor="middle" x="855" y="-81.5" font-family="Helvetica,sans-Serif" font-size="10.00">Math/GenVector/Transform3D.h</text>
</g>
<!-- Node17&#45;&gt;Node21 -->
<g id="edge21" class="edge"><title>Node17&#45;&gt;Node21</title>
<path fill="none" stroke="midnightblue" d="M930.392,-136.403C916.277,-126.78 893.169,-111.024 876.251,-99.4891"/>
<polygon fill="midnightblue" stroke="midnightblue" points="877.819,-96.3222 867.585,-93.5806 873.875,-102.106 877.819,-96.3222"/>
</g>
<!-- Node22 -->
<g id="node22" class="node"><title>Node22</title>
<polygon fill="none" stroke="#bfbfbf" points="951,-74.5 951,-93.5 1111,-93.5 1111,-74.5 951,-74.5"/>
<text text-anchor="middle" x="1031" y="-81.5" font-family="Helvetica,sans-Serif" font-size="10.00">Math/GenVector/Translation3D.h</text>
</g>
<!-- Node17&#45;&gt;Node22 -->
<g id="edge22" class="edge"><title>Node17&#45;&gt;Node22</title>
<path fill="none" stroke="midnightblue" d="M955.608,-136.403C969.723,-126.78 992.831,-111.024 1009.75,-99.4891"/>
<polygon fill="midnightblue" stroke="midnightblue" points="1012.12,-102.106 1018.42,-93.5806 1008.18,-96.3222 1012.12,-102.106"/>
</g>
<!-- Node23 -->
<g id="node23" class="node"><title>Node23</title>
<polygon fill="none" stroke="#bfbfbf" points="1129,-74.5 1129,-93.5 1205,-93.5 1205,-74.5 1129,-74.5"/>
<text text-anchor="middle" x="1167" y="-81.5" font-family="Helvetica,sans-Serif" font-size="10.00">TGeoMatrix.h</text>
</g>
<!-- Node17&#45;&gt;Node23 -->
<g id="edge24" class="edge"><title>Node17&#45;&gt;Node23</title>
<path fill="none" stroke="midnightblue" d="M979.104,-136.493C1014.99,-127.878 1071.53,-113.881 1120,-100 1123.78,-98.9166 1127.72,-97.7391 1131.64,-96.536"/>
<polygon fill="midnightblue" stroke="midnightblue" points="1132.73,-99.8614 1141.23,-93.5321 1130.64,-93.1815 1132.73,-99.8614"/>
</g>
<!-- Node24 -->
<g id="node24" class="node"><title>Node24</title>
<polygon fill="none" stroke="#bfbfbf" points="1223.5,-74.5 1223.5,-93.5 1268.5,-93.5 1268.5,-74.5 1223.5,-74.5"/>
<text text-anchor="middle" x="1246" y="-81.5" font-family="Helvetica,sans-Serif" font-size="10.00">iosfwd</text>
</g>
<!-- Node17&#45;&gt;Node24 -->
<g id="edge25" class="edge"><title>Node17&#45;&gt;Node24</title>
<path fill="none" stroke="midnightblue" d="M1005.61,-136.625C1073.16,-127.231 1176.14,-111.77 1214,-100 1216.27,-99.293 1218.59,-98.4555 1220.89,-97.5435"/>
<polygon fill="midnightblue" stroke="midnightblue" points="1222.32,-100.742 1230.06,-93.5172 1219.5,-94.3326 1222.32,-100.742"/>
</g>
<!-- Node25 -->
<g id="node25" class="node"><title>Node25</title>
<g id="a_node25"><a xlink:href="../../d2/dd0/Cartesian2D_8h.html" target="_top" xlink:title="MathUtils/Cartesian2D.h">
<polygon fill="none" stroke="black" points="103.5,-74.5 103.5,-93.5 228.5,-93.5 228.5,-74.5 103.5,-74.5"/>
<text text-anchor="middle" x="166" y="-81.5" font-family="Helvetica,sans-Serif" font-size="10.00">MathUtils/Cartesian2D.h</text>
</a>
</g>
</g>
<!-- Node17&#45;&gt;Node25 -->
<g id="edge26" class="edge"><title>Node17&#45;&gt;Node25</title>
<path fill="none" stroke="midnightblue" d="M880.198,-136.896C877.09,-136.575 874.011,-136.273 871,-136 589.924,-110.482 516.759,-137.276 237,-100 228.563,-98.8758 219.634,-97.3002 211.06,-95.5898"/>
<polygon fill="midnightblue" stroke="midnightblue" points="211.713,-92.1507 201.209,-93.5389 210.286,-99.0038 211.713,-92.1507"/>
</g>
<!-- Node26 -->
<g id="node26" class="node"><title>Node26</title>
<polygon fill="none" stroke="#bfbfbf" points="-0.5,-1 -0.5,-31 150.5,-31 150.5,-1 -0.5,-1"/>
<text text-anchor="start" x="7.5" y="-19" font-family="Helvetica,sans-Serif" font-size="10.00">Math/GenVector/Displacement</text>
<text text-anchor="middle" x="75" y="-8" font-family="Helvetica,sans-Serif" font-size="10.00">Vector2D.h</text>
</g>
<!-- Node25&#45;&gt;Node26 -->
<g id="edge27" class="edge"><title>Node25&#45;&gt;Node26</title>
<path fill="none" stroke="midnightblue" d="M154.103,-74.3717C141.221,-65.0286 120.22,-49.7966 103.093,-37.375"/>
<polygon fill="midnightblue" stroke="midnightblue" points="104.703,-34.2194 94.5532,-31.1815 100.593,-39.8859 104.703,-34.2194"/>
</g>
<!-- Node27 -->
<g id="node27" class="node"><title>Node27</title>
<polygon fill="none" stroke="#bfbfbf" points="169,-6.5 169,-25.5 345,-25.5 345,-6.5 169,-6.5"/>
<text text-anchor="middle" x="257" y="-13.5" font-family="Helvetica,sans-Serif" font-size="10.00">Math/GenVector/PositionVector2D.h</text>
</g>
<!-- Node25&#45;&gt;Node27 -->
<g id="edge28" class="edge"><title>Node25&#45;&gt;Node27</title>
<path fill="none" stroke="midnightblue" d="M177.897,-74.3717C192.884,-63.5015 218.862,-44.6602 236.942,-31.5474"/>
<polygon fill="midnightblue" stroke="midnightblue" points="239.06,-34.3349 245.1,-25.6305 234.95,-28.6684 239.06,-34.3349"/>
</g>
<!-- Node28&#45;&gt;Node9 -->
<g id="edge35" class="edge"><title>Node28&#45;&gt;Node9</title>
<path fill="none" stroke="midnightblue" d="M1616.13,-198.441C1628.83,-196.012 1642.96,-193.596 1656,-192 1929.54,-158.54 2000.9,-184.469 2275,-156 2275.1,-155.989 2275.2,-155.979 2275.3,-155.968"/>
<polygon fill="midnightblue" stroke="midnightblue" points="2275.42,-159.478 2284.95,-154.854 2274.62,-152.524 2275.42,-159.478"/>
</g>
<!-- Node28&#45;&gt;Node14 -->
<g id="edge41" class="edge"><title>Node28&#45;&gt;Node14</title>
<path fill="none" stroke="midnightblue" d="M1537.6,-198.479C1525.9,-196.109 1512.96,-193.717 1501,-192 1455.84,-185.517 1122.81,-189.643 1092,-156 1086,-149.445 1086.35,-142.859 1092,-136 1145.27,-71.3597 1196.59,-123.477 1277,-100 1279.81,-99.18 1282.7,-98.2348 1285.57,-97.2261"/>
<polygon fill="midnightblue" stroke="midnightblue" points="1286.99,-100.431 1295.12,-93.6411 1284.53,-93.8775 1286.99,-100.431"/>
</g>
<!-- Node29 -->
<g id="node29" class="node"><title>Node29</title>
<polygon fill="none" stroke="#bfbfbf" points="1799.5,-74.5 1799.5,-93.5 1834.5,-93.5 1834.5,-74.5 1799.5,-74.5"/>
<text text-anchor="middle" x="1817" y="-81.5" font-family="Helvetica,sans-Serif" font-size="10.00">map</text>
</g>
<!-- Node28&#45;&gt;Node29 -->
<g id="edge30" class="edge"><title>Node28&#45;&gt;Node29</title>
<path fill="none" stroke="midnightblue" d="M1605.44,-198.474C1634.01,-189.661 1678.18,-174.591 1714,-156 1745.4,-139.702 1778.54,-115.398 1798.5,-99.8755"/>
<polygon fill="midnightblue" stroke="midnightblue" points="1800.75,-102.554 1806.44,-93.6157 1796.42,-97.0561 1800.75,-102.554"/>
</g>
<!-- Node30 -->
<g id="node30" class="node"><title>Node30</title>
<polygon fill="none" stroke="#bfbfbf" points="1762,-136.5 1762,-155.5 1806,-155.5 1806,-136.5 1762,-136.5"/>
<text text-anchor="middle" x="1784" y="-143.5" font-family="Helvetica,sans-Serif" font-size="10.00">vector</text>
</g>
<!-- Node28&#45;&gt;Node30 -->
<g id="edge31" class="edge"><title>Node28&#45;&gt;Node30</title>
<path fill="none" stroke="midnightblue" d="M1605.8,-198.403C1644.66,-187.195 1712.34,-167.671 1752.17,-156.182"/>
<polygon fill="midnightblue" stroke="midnightblue" points="1753.26,-159.509 1761.9,-153.375 1751.32,-152.784 1753.26,-159.509"/>
</g>
<!-- Node31 -->
<g id="node31" class="node"><title>Node31</title>
<polygon fill="none" stroke="#bfbfbf" points="2043.5,-74.5 2043.5,-93.5 2116.5,-93.5 2116.5,-74.5 2043.5,-74.5"/>
<text text-anchor="middle" x="2080" y="-81.5" font-family="Helvetica,sans-Serif" font-size="10.00">initializer_list</text>
</g>
<!-- Node28&#45;&gt;Node31 -->
<g id="edge32" class="edge"><title>Node28&#45;&gt;Node31</title>
<path fill="none" stroke="midnightblue" d="M1617.4,-198.437C1629.77,-196.094 1643.4,-193.727 1656,-192 1701.53,-185.758 2034.23,-187.163 2068,-156 2082.18,-142.912 2083.62,-119.791 2082.53,-103.496"/>
<polygon fill="midnightblue" stroke="midnightblue" points="2086.01,-103.098 2081.5,-93.5123 2079.05,-103.82 2086.01,-103.098"/>
</g>
<!-- Node32 -->
<g id="node32" class="node"><title>Node32</title>
<polygon fill="none" stroke="#bfbfbf" points="1824,-136.5 1824,-155.5 1876,-155.5 1876,-136.5 1824,-136.5"/>
<text text-anchor="middle" x="1850" y="-143.5" font-family="Helvetica,sans-Serif" font-size="10.00">memory</text>
</g>
<!-- Node28&#45;&gt;Node32 -->
<g id="edge33" class="edge"><title>Node28&#45;&gt;Node32</title>
<path fill="none" stroke="midnightblue" d="M1617.8,-198.49C1663.36,-189.116 1738.64,-173.336 1813.59,-156.029"/>
<polygon fill="midnightblue" stroke="midnightblue" points="1814.73,-159.358 1823.68,-153.69 1813.15,-152.539 1814.73,-159.358"/>
</g>
<!-- Node33 -->
<g id="node33" class="node"><title>Node33</title>
<polygon fill="none" stroke="#bfbfbf" points="2116.5,-136.5 2116.5,-155.5 2195.5,-155.5 2195.5,-136.5 2116.5,-136.5"/>
<text text-anchor="middle" x="2156" y="-143.5" font-family="Helvetica,sans-Serif" font-size="10.00">FairDetector.h</text>
</g>
<!-- Node28&#45;&gt;Node33 -->
<g id="edge34" class="edge"><title>Node28&#45;&gt;Node33</title>
<path fill="none" stroke="midnightblue" d="M1616.98,-198.463C1629.46,-196.093 1643.25,-193.705 1656,-192 1853.11,-165.639 1904.63,-180.369 2102,-156 2103.3,-155.839 2104.62,-155.67 2105.94,-155.494"/>
<polygon fill="midnightblue" stroke="midnightblue" points="2106.84,-158.901 2116.24,-154.018 2105.85,-151.972 2106.84,-158.901"/>
</g>
<!-- Node34 -->
<g id="node34" class="node"><title>Node34</title>
<g id="a_node34"><a xlink:href="../../d0/d9a/MaterialManager_8h.html" target="_top" xlink:title="DetectorsBase/MaterialManager.h">
<polygon fill="none" stroke="black" points="1894.5,-136.5 1894.5,-155.5 2059.5,-155.5 2059.5,-136.5 1894.5,-136.5"/>
<text text-anchor="middle" x="1977" y="-143.5" font-family="Helvetica,sans-Serif" font-size="10.00">DetectorsBase/MaterialManager.h</text>
</a>
</g>
</g>
<!-- Node28&#45;&gt;Node34 -->
<g id="edge36" class="edge"><title>Node28&#45;&gt;Node34</title>
<path fill="none" stroke="midnightblue" d="M1619.53,-198.461C1631.35,-196.247 1644.15,-193.941 1656,-192 1738.89,-178.426 1834.25,-165.383 1899.36,-156.866"/>
<polygon fill="midnightblue" stroke="midnightblue" points="1900.08,-160.302 1909.54,-155.538 1899.17,-153.36 1900.08,-160.302"/>
</g>
<!-- Node36 -->
<g id="node36" class="node"><title>Node36</title>
<polygon fill="none" stroke="#bfbfbf" points="2213.5,-136.5 2213.5,-155.5 2266.5,-155.5 2266.5,-136.5 2213.5,-136.5"/>
<text text-anchor="middle" x="2240" y="-143.5" font-family="Helvetica,sans-Serif" font-size="10.00">cxxabi.h</text>
</g>
<!-- Node28&#45;&gt;Node36 -->
<g id="edge42" class="edge"><title>Node28&#45;&gt;Node36</title>
<path fill="none" stroke="midnightblue" d="M1616.55,-198.422C1629.14,-196.022 1643.1,-193.627 1656,-192 1894.85,-161.872 1961.05,-192.879 2203.2,-155.804"/>
<polygon fill="midnightblue" stroke="midnightblue" points="2204.03,-159.217 2213.37,-154.222 2202.95,-152.3 2204.03,-159.217"/>
</g>
<!-- Node37 -->
<g id="node37" class="node"><title>Node37</title>
<polygon fill="none" stroke="#bfbfbf" points="1100.5,-136.5 1100.5,-155.5 1151.5,-155.5 1151.5,-136.5 1100.5,-136.5"/>
<text text-anchor="middle" x="1126" y="-143.5" font-family="Helvetica,sans-Serif" font-size="10.00">typeinfo</text>
</g>
<!-- Node28&#45;&gt;Node37 -->
<g id="edge43" class="edge"><title>Node28&#45;&gt;Node37</title>
<path fill="none" stroke="midnightblue" d="M1536.81,-198.455C1525.31,-196.139 1512.68,-193.783 1501,-192 1354.01,-169.568 1312.32,-182.413 1161.61,-155.83"/>
<polygon fill="midnightblue" stroke="midnightblue" points="1161.98,-152.342 1151.52,-154.022 1160.74,-159.232 1161.98,-152.342"/>
</g>
<!-- Node38 -->
<g id="node38" class="node"><title>Node38</title>
<polygon fill="none" stroke="#bfbfbf" points="1170,-136.5 1170,-155.5 1232,-155.5 1232,-136.5 1170,-136.5"/>
<text text-anchor="middle" x="1201" y="-143.5" font-family="Helvetica,sans-Serif" font-size="10.00">type_traits</text>
</g>
<!-- Node28&#45;&gt;Node38 -->
<g id="edge44" class="edge"><title>Node28&#45;&gt;Node38</title>
<path fill="none" stroke="midnightblue" d="M1535.6,-198.464C1524.42,-196.225 1512.26,-193.907 1501,-192 1389.55,-173.126 1358.1,-176.28 1242.26,-155.907"/>
<polygon fill="midnightblue" stroke="midnightblue" points="1242.75,-152.438 1232.29,-154.132 1241.52,-159.33 1242.75,-152.438"/>
</g>
<!-- Node39 -->
<g id="node39" class="node"><title>Node39</title>
<polygon fill="none" stroke="#bfbfbf" points="1250.5,-136.5 1250.5,-155.5 1291.5,-155.5 1291.5,-136.5 1250.5,-136.5"/>
<text text-anchor="middle" x="1271" y="-143.5" font-family="Helvetica,sans-Serif" font-size="10.00">string</text>
</g>
<!-- Node28&#45;&gt;Node39 -->
<g id="edge45" class="edge"><title>Node28&#45;&gt;Node39</title>
<path fill="none" stroke="midnightblue" d="M1533.98,-198.448C1523.24,-196.302 1511.7,-194.032 1501,-192 1415.39,-175.735 1390.57,-176.902 1301.56,-155.893"/>
<polygon fill="midnightblue" stroke="midnightblue" points="1302.11,-152.426 1291.57,-153.507 1300.49,-159.235 1302.11,-152.426"/>
</g>
<!-- Node40 -->
<g id="node40" class="node"><title>Node40</title>
<polygon fill="none" stroke="#bfbfbf" points="1309.5,-136.5 1309.5,-155.5 1402.5,-155.5 1402.5,-136.5 1309.5,-136.5"/>
<text text-anchor="middle" x="1356" y="-143.5" font-family="Helvetica,sans-Serif" font-size="10.00">FairMQChannel.h</text>
</g>
<!-- Node28&#45;&gt;Node40 -->
<g id="edge46" class="edge"><title>Node28&#45;&gt;Node40</title>
<path fill="none" stroke="midnightblue" d="M1544.48,-198.403C1505.76,-187.844 1439.98,-169.903 1397.26,-158.254"/>
<polygon fill="midnightblue" stroke="midnightblue" points="1398.03,-154.835 1387.46,-155.581 1396.19,-161.589 1398.03,-154.835"/>
</g>
<!-- Node41 -->
<g id="node41" class="node"><title>Node41</title>
<polygon fill="none" stroke="#bfbfbf" points="1420.5,-136.5 1420.5,-155.5 1517.5,-155.5 1517.5,-136.5 1420.5,-136.5"/>
<text text-anchor="middle" x="1469" y="-143.5" font-family="Helvetica,sans-Serif" font-size="10.00">FairMQMessage.h</text>
</g>
<!-- Node28&#45;&gt;Node41 -->
<g id="edge47" class="edge"><title>Node28&#45;&gt;Node41</title>
<path fill="none" stroke="midnightblue" d="M1560.67,-198.403C1543.03,-188.512 1513.84,-172.144 1493.14,-160.538"/>
<polygon fill="midnightblue" stroke="midnightblue" points="1494.74,-157.419 1484.3,-155.581 1491.31,-163.524 1494.74,-157.419"/>
</g>
<!-- Node42 -->
<g id="node42" class="node"><title>Node42</title>
<polygon fill="none" stroke="#bfbfbf" points="1536,-136.5 1536,-155.5 1616,-155.5 1616,-136.5 1536,-136.5"/>
<text text-anchor="middle" x="1576" y="-143.5" font-family="Helvetica,sans-Serif" font-size="10.00">FairMQParts.h</text>
</g>
<!-- Node28&#45;&gt;Node42 -->
<g id="edge48" class="edge"><title>Node28&#45;&gt;Node42</title>
<path fill="none" stroke="midnightblue" d="M1576,-198.403C1576,-189.938 1576,-176.728 1576,-165.82"/>
<polygon fill="midnightblue" stroke="midnightblue" points="1579.5,-165.581 1576,-155.581 1572.5,-165.581 1579.5,-165.581"/>
</g>
<!-- Node43 -->
<g id="node43" class="node"><title>Node43</title>
<polygon fill="none" stroke="#bfbfbf" points="1634.5,-136.5 1634.5,-155.5 1705.5,-155.5 1705.5,-136.5 1634.5,-136.5"/>
<text text-anchor="middle" x="1670" y="-143.5" font-family="Helvetica,sans-Serif" font-size="10.00">TMessage.h</text>
</g>
<!-- Node28&#45;&gt;Node43 -->
<g id="edge49" class="edge"><title>Node28&#45;&gt;Node43</title>
<path fill="none" stroke="midnightblue" d="M1589.47,-198.403C1604.68,-188.691 1629.69,-172.732 1647.8,-161.17"/>
<polygon fill="midnightblue" stroke="midnightblue" points="1650.01,-163.911 1656.56,-155.581 1646.24,-158.011 1650.01,-163.911"/>
</g>
<!-- Node34&#45;&gt;Node14 -->
<g id="edge37" class="edge"><title>Node34&#45;&gt;Node14</title>
<path fill="none" stroke="midnightblue" d="M1894.25,-136.872C1891.13,-136.576 1888.04,-136.284 1885,-136 1684.94,-117.265 1445.23,-96.3017 1353.38,-88.3237"/>
<polygon fill="midnightblue" stroke="midnightblue" points="1353.44,-84.8161 1343.18,-87.4381 1352.84,-91.7898 1353.44,-84.8161"/>
</g>
<!-- Node34&#45;&gt;Node29 -->
<g id="edge38" class="edge"><title>Node34&#45;&gt;Node29</title>
<path fill="none" stroke="midnightblue" d="M1954.08,-136.403C1925.2,-125.574 1875.61,-106.979 1844.66,-95.3717"/>
<polygon fill="midnightblue" stroke="midnightblue" points="1845.52,-91.9586 1834.93,-91.7244 1843.07,-98.5129 1845.52,-91.9586"/>
</g>
<!-- Node34&#45;&gt;Node31 -->
<g id="edge40" class="edge"><title>Node34&#45;&gt;Node31</title>
<path fill="none" stroke="midnightblue" d="M1991.76,-136.403C2008.66,-126.557 2036.58,-110.291 2056.49,-98.6949"/>
<polygon fill="midnightblue" stroke="midnightblue" points="2058.39,-101.638 2065.27,-93.5806 2054.87,-95.5898 2058.39,-101.638"/>
</g>
<!-- Node35 -->
<g id="node35" class="node"><title>Node35</title>
<polygon fill="none" stroke="#bfbfbf" points="1935.5,-74.5 1935.5,-93.5 2018.5,-93.5 2018.5,-74.5 1935.5,-74.5"/>
<text text-anchor="middle" x="1977" y="-81.5" font-family="Helvetica,sans-Serif" font-size="10.00">unordered_map</text>
</g>
<!-- Node34&#45;&gt;Node35 -->
<g id="edge39" class="edge"><title>Node34&#45;&gt;Node35</title>
<path fill="none" stroke="midnightblue" d="M1977,-136.403C1977,-127.938 1977,-114.728 1977,-103.82"/>
<polygon fill="midnightblue" stroke="midnightblue" points="1980.5,-103.581 1977,-93.5806 1973.5,-103.581 1980.5,-103.581"/>
</g>
</g>
</svg>
