<?xml version="1.0" encoding="UTF-8" standalone="no"?>
<!DOCTYPE svg PUBLIC "-//W3C//DTD SVG 1.1//EN"
 "http://www.w3.org/Graphics/SVG/1.1/DTD/svg11.dtd">
<!-- Generated by graphviz version 2.36.0 (20140111.2315)
 -->
<!-- Title: o2::ITSMFT::PixelReader Pages: 1 -->
<svg width="323pt" height="294pt"
 viewBox="0.00 0.00 323.00 294.00" xmlns="http://www.w3.org/2000/svg" xmlns:xlink="http://www.w3.org/1999/xlink">
<g id="graph0" class="graph" transform="scale(1 1) rotate(0) translate(4 290)">
<title>o2::ITSMFT::PixelReader</title>
<!-- Node1 -->
<g id="node1" class="node"><title>Node1</title>
<polygon fill="#bfbfbf" stroke="black" points="93,-151 93,-285 221,-285 221,-151 93,-151"/>
<text text-anchor="middle" x="157" y="-273" font-family="Helvetica,sans-Serif" font-size="10.00">o2::ITSMFT::PixelReader</text>
<polyline fill="none" stroke="black" points="93,-266 221,-266 "/>
<text text-anchor="middle" x="157" y="-254" font-family="Helvetica,sans-Serif" font-size="10.00"> </text>
<polyline fill="none" stroke="black" points="93,-247 221,-247 "/>
<text text-anchor="start" x="101" y="-235" font-family="Helvetica,sans-Serif" font-size="10.00">+ PixelReader()</text>
<text text-anchor="start" x="101" y="-224" font-family="Helvetica,sans-Serif" font-size="10.00">+ ~PixelReader()</text>
<text text-anchor="start" x="101" y="-213" font-family="Helvetica,sans-Serif" font-size="10.00">+ PixelReader()</text>
<text text-anchor="start" x="101" y="-202" font-family="Helvetica,sans-Serif" font-size="10.00">+ operator=()</text>
<text text-anchor="start" x="101" y="-191" font-family="Helvetica,sans-Serif" font-size="10.00">+ init()</text>
<text text-anchor="start" x="101" y="-180" font-family="Helvetica,sans-Serif" font-size="10.00">+ getNextChipData()</text>
<text text-anchor="start" x="101" y="-169" font-family="Helvetica,sans-Serif" font-size="10.00">+ getNextChipData()</text>
<text text-anchor="start" x="101" y="-158" font-family="Helvetica,sans-Serif" font-size="10.00"># ClassDef()</text>
</g>
<!-- Node2 -->
<g id="node2" class="node"><title>Node2</title>
<g id="a_node2"><a xlink:href="../../d2/dfc/classo2_1_1ITSMFT_1_1DigitPixelReader.html" target="_top" xlink:title="DigitPixelReader class for the ITS. Feeds the MC digits to the Cluster Finder. ">
<polygon fill="none" stroke="black" points="-0.5,-1 -0.5,-113 148.5,-113 148.5,-1 -0.5,-1"/>
<text text-anchor="middle" x="74" y="-101" font-family="Helvetica,sans-Serif" font-size="10.00">o2::ITSMFT::DigitPixelReader</text>
<polyline fill="none" stroke="black" points="-0.5,-94 148.5,-94 "/>
<text text-anchor="middle" x="74" y="-82" font-family="Helvetica,sans-Serif" font-size="10.00"> </text>
<polyline fill="none" stroke="black" points="-0.5,-75 148.5,-75 "/>
<text text-anchor="start" x="7.5" y="-63" font-family="Helvetica,sans-Serif" font-size="10.00">+ DigitPixelReader()</text>
<text text-anchor="start" x="7.5" y="-52" font-family="Helvetica,sans-Serif" font-size="10.00">+ ~DigitPixelReader()</text>
<text text-anchor="start" x="7.5" y="-41" font-family="Helvetica,sans-Serif" font-size="10.00">+ setDigitArray()</text>
<text text-anchor="start" x="7.5" y="-30" font-family="Helvetica,sans-Serif" font-size="10.00">+ init()</text>
<text text-anchor="start" x="7.5" y="-19" font-family="Helvetica,sans-Serif" font-size="10.00">+ getNextChipData()</text>
<text text-anchor="start" x="7.5" y="-8" font-family="Helvetica,sans-Serif" font-size="10.00">+ getNextChipData()</text>
</a>
</g>
</g>
<!-- Node1&#45;&gt;Node2 -->
<g id="edge1" class="edge"><title>Node1&#45;&gt;Node2</title>
<path fill="none" stroke="midnightblue" d="M117.765,-141.838C112.779,-132.288 107.75,-122.654 102.967,-113.49"/>
<polygon fill="none" stroke="midnightblue" points="114.791,-143.706 122.522,-150.951 120.997,-140.466 114.791,-143.706"/>
</g>
<!-- Node3 -->
<g id="node3" class="node"><title>Node3</title>
<g id="a_node3"><a xlink:href="../../df/dae/classo2_1_1ITSMFT_1_1RawPixelReader.html" target="_top" xlink:title="RawPixelReader class for the ITS. Feeds raw data to the Cluster Finder. ">
<polygon fill="none" stroke="black" points="166.5,-6.5 166.5,-107.5 315.5,-107.5 315.5,-6.5 166.5,-6.5"/>
<text text-anchor="middle" x="241" y="-95.5" font-family="Helvetica,sans-Serif" font-size="10.00">o2::ITSMFT::RawPixelReader</text>
<polyline fill="none" stroke="black" points="166.5,-88.5 315.5,-88.5 "/>
<text text-anchor="middle" x="241" y="-76.5" font-family="Helvetica,sans-Serif" font-size="10.00"> </text>
<polyline fill="none" stroke="black" points="166.5,-69.5 315.5,-69.5 "/>
<text text-anchor="start" x="174.5" y="-57.5" font-family="Helvetica,sans-Serif" font-size="10.00">+ RawPixelReader()</text>
<text text-anchor="start" x="174.5" y="-46.5" font-family="Helvetica,sans-Serif" font-size="10.00">+ ~RawPixelReader()</text>
<text text-anchor="start" x="174.5" y="-35.5" font-family="Helvetica,sans-Serif" font-size="10.00">+ getNextChipData()</text>
<text text-anchor="start" x="174.5" y="-24.5" font-family="Helvetica,sans-Serif" font-size="10.00">+ getNextChipData()</text>
<text text-anchor="start" x="174.5" y="-13.5" font-family="Helvetica,sans-Serif" font-size="10.00">+ ClassDefOverride()</text>
</a>
</g>
</g>
<!-- Node1&#45;&gt;Node3 -->
<g id="edge2" class="edge"><title>Node1&#45;&gt;Node3</title>
<path fill="none" stroke="midnightblue" d="M196.595,-142.053C202.771,-130.361 209.018,-118.538 214.797,-107.598"/>
<polygon fill="none" stroke="midnightblue" points="193.47,-140.474 191.894,-150.951 199.66,-143.744 193.47,-140.474"/>
</g>
</g>
</svg>
