<?xml version="1.0" encoding="UTF-8" standalone="no"?>
<!DOCTYPE svg PUBLIC "-//W3C//DTD SVG 1.1//EN"
 "http://www.w3.org/Graphics/SVG/1.1/DTD/svg11.dtd">
<!-- Generated by graphviz version 2.36.0 (20140111.2315)
 -->
<!-- Title: o2::header::BaseHeader Pages: 1 -->
<svg width="892pt" height="870pt"
 viewBox="0.00 0.00 892.28 870.00" xmlns="http://www.w3.org/2000/svg" xmlns:xlink="http://www.w3.org/1999/xlink">
<g id="graph0" class="graph" transform="scale(1 1) rotate(0) translate(4 866)">
<title>o2::header::BaseHeader</title>
<!-- Node1 -->
<g id="node1" class="node"><title>Node1</title>
<polygon fill="#bfbfbf" stroke="black" points="293.284,-0.5 293.284,-145.5 415.284,-145.5 415.284,-0.5 293.284,-0.5"/>
<text text-anchor="middle" x="354.284" y="-133.5" font-family="Helvetica,sans-Serif" font-size="10.00">o2::header::BaseHeader</text>
<polyline fill="none" stroke="black" points="293.284,-126.5 415.284,-126.5 "/>
<text text-anchor="middle" x="354.284" y="-114.5" font-family="Helvetica,sans-Serif" font-size="10.00"> </text>
<polyline fill="none" stroke="black" points="293.284,-107.5 415.284,-107.5 "/>
<text text-anchor="start" x="301.284" y="-95.5" font-family="Helvetica,sans-Serif" font-size="10.00">+ BaseHeader()</text>
<text text-anchor="start" x="301.284" y="-84.5" font-family="Helvetica,sans-Serif" font-size="10.00">+ BaseHeader()</text>
<text text-anchor="start" x="301.284" y="-73.5" font-family="Helvetica,sans-Serif" font-size="10.00">+ BaseHeader()</text>
<text text-anchor="start" x="301.284" y="-62.5" font-family="Helvetica,sans-Serif" font-size="10.00">+ size()</text>
<text text-anchor="start" x="301.284" y="-51.5" font-family="Helvetica,sans-Serif" font-size="10.00">+ data()</text>
<text text-anchor="start" x="301.284" y="-40.5" font-family="Helvetica,sans-Serif" font-size="10.00">+ next()</text>
<text text-anchor="start" x="301.284" y="-29.5" font-family="Helvetica,sans-Serif" font-size="10.00">+ next()</text>
<text text-anchor="start" x="301.284" y="-18.5" font-family="Helvetica,sans-Serif" font-size="10.00">+ get()</text>
<text text-anchor="start" x="301.284" y="-7.5" font-family="Helvetica,sans-Serif" font-size="10.00">+ get()</text>
</g>
<!-- Node2 -->
<g id="node2" class="node"><title>Node2</title>
<g id="a_node2"><a xlink:href="../../d9/db3/structo2_1_1header_1_1Descriptor.html" target="_top" xlink:title="{o2::header::Descriptor\l\&lt; gSizeHeaderDescriptionString \&gt;\n||+ Descriptor()\l+ Descriptor()\l+ Descriptor()\l+ Descriptor()\l+ operator=()\l+ operator ItgType()\l+ runtimeInit()\l+ operator==()\l+ operator==()\l+ operator!=()\l+ operator!=()\l+ as()\l+ print()\l}">
<polygon fill="none" stroke="black" points="469.284,-271 469.284,-471 635.284,-471 635.284,-271 469.284,-271"/>
<text text-anchor="start" x="477.284" y="-459" font-family="Helvetica,sans-Serif" font-size="10.00">o2::header::Descriptor</text>
<text text-anchor="middle" x="552.284" y="-448" font-family="Helvetica,sans-Serif" font-size="10.00">&lt; gSizeHeaderDescriptionString &gt;</text>
<polyline fill="none" stroke="black" points="469.284,-441 635.284,-441 "/>
<text text-anchor="middle" x="552.284" y="-429" font-family="Helvetica,sans-Serif" font-size="10.00"> </text>
<polyline fill="none" stroke="black" points="469.284,-422 635.284,-422 "/>
<text text-anchor="start" x="477.284" y="-410" font-family="Helvetica,sans-Serif" font-size="10.00">+ Descriptor()</text>
<text text-anchor="start" x="477.284" y="-399" font-family="Helvetica,sans-Serif" font-size="10.00">+ Descriptor()</text>
<text text-anchor="start" x="477.284" y="-388" font-family="Helvetica,sans-Serif" font-size="10.00">+ Descriptor()</text>
<text text-anchor="start" x="477.284" y="-377" font-family="Helvetica,sans-Serif" font-size="10.00">+ Descriptor()</text>
<text text-anchor="start" x="477.284" y="-366" font-family="Helvetica,sans-Serif" font-size="10.00">+ operator=()</text>
<text text-anchor="start" x="477.284" y="-355" font-family="Helvetica,sans-Serif" font-size="10.00">+ operator ItgType()</text>
<text text-anchor="start" x="477.284" y="-344" font-family="Helvetica,sans-Serif" font-size="10.00">+ runtimeInit()</text>
<text text-anchor="start" x="477.284" y="-333" font-family="Helvetica,sans-Serif" font-size="10.00">+ operator==()</text>
<text text-anchor="start" x="477.284" y="-322" font-family="Helvetica,sans-Serif" font-size="10.00">+ operator==()</text>
<text text-anchor="start" x="477.284" y="-311" font-family="Helvetica,sans-Serif" font-size="10.00">+ operator!=()</text>
<text text-anchor="start" x="477.284" y="-300" font-family="Helvetica,sans-Serif" font-size="10.00">+ operator!=()</text>
<text text-anchor="start" x="477.284" y="-289" font-family="Helvetica,sans-Serif" font-size="10.00">+ as()</text>
<text text-anchor="start" x="477.284" y="-278" font-family="Helvetica,sans-Serif" font-size="10.00">+ print()</text>
</a>
</g>
</g>
<!-- Node2&#45;&gt;Node1 -->
<g id="edge1" class="edge"><title>Node2&#45;&gt;Node1</title>
<path fill="none" stroke="#404040" d="M485.802,-270.613C460.853,-233.315 432.804,-191.382 409.037,-155.853"/>
<polygon fill="none" stroke="#404040" points="408.804,-155.504 402.143,-152.741 402.132,-145.529 408.793,-148.293 408.804,-155.504"/>
<text text-anchor="middle" x="499.784" y="-205.5" font-family="Helvetica,sans-Serif" font-size="10.00"> +description</text>
</g>
<!-- Node3 -->
<g id="node3" class="node"><title>Node3</title>
<polygon fill="none" stroke="#bfbfbf" points="515.284,-803.5 515.284,-860.5 553.284,-860.5 553.284,-803.5 515.284,-803.5"/>
<text text-anchor="middle" x="534.284" y="-848.5" font-family="Helvetica,sans-Serif" font-size="10.00">Type</text>
<polyline fill="none" stroke="#bfbfbf" points="515.284,-841.5 553.284,-841.5 "/>
<text text-anchor="middle" x="534.284" y="-829.5" font-family="Helvetica,sans-Serif" font-size="10.00"> </text>
<polyline fill="none" stroke="#bfbfbf" points="515.284,-822.5 553.284,-822.5 "/>
<text text-anchor="middle" x="534.284" y="-810.5" font-family="Helvetica,sans-Serif" font-size="10.00"> </text>
</g>
<!-- Node3&#45;&gt;Node2 -->
<g id="edge2" class="edge"><title>Node3&#45;&gt;Node2</title>
<path fill="none" stroke="#404040" d="M553.595,-823.548C570.112,-816.117 593.092,-803.049 605.284,-784 617.89,-764.306 611.501,-755.315 613.284,-732 620.13,-642.484 629.73,-618.259 613.284,-530 610.387,-514.452 606.014,-498.462 600.914,-482.902"/>
<polygon fill="none" stroke="#404040" points="600.763,-482.458 595.038,-478.073 596.884,-471.102 602.609,-475.488 600.763,-482.458"/>
<text text-anchor="middle" x="633.284" y="-628.5" font-family="Helvetica,sans-Serif" font-size="10.00"> +itg</text>
</g>
<!-- Node7 -->
<g id="node7" class="node"><title>Node7</title>
<g id="a_node7"><a xlink:href="../../d9/db3/structo2_1_1header_1_1Descriptor.html" target="_top" xlink:title="{o2::header::Descriptor\l\&lt; N, PrinterPolicy \&gt;\n||+ Descriptor()\l+ Descriptor()\l+ Descriptor()\l+ operator=()\l+ operator ItgType()\l+ Descriptor()\l+ runtimeInit()\l+ operator==()\l+ operator!=()\l+ operator==()\l+ operator!=()\l+ as()\l+ print()\l}">
<polygon fill="none" stroke="black" points="290.784,-531 290.784,-731 403.784,-731 403.784,-531 290.784,-531"/>
<text text-anchor="start" x="298.784" y="-719" font-family="Helvetica,sans-Serif" font-size="10.00">o2::header::Descriptor</text>
<text text-anchor="middle" x="347.284" y="-708" font-family="Helvetica,sans-Serif" font-size="10.00">&lt; N, PrinterPolicy &gt;</text>
<polyline fill="none" stroke="black" points="290.784,-701 403.784,-701 "/>
<text text-anchor="middle" x="347.284" y="-689" font-family="Helvetica,sans-Serif" font-size="10.00"> </text>
<polyline fill="none" stroke="black" points="290.784,-682 403.784,-682 "/>
<text text-anchor="start" x="298.784" y="-670" font-family="Helvetica,sans-Serif" font-size="10.00">+ Descriptor()</text>
<text text-anchor="start" x="298.784" y="-659" font-family="Helvetica,sans-Serif" font-size="10.00">+ Descriptor()</text>
<text text-anchor="start" x="298.784" y="-648" font-family="Helvetica,sans-Serif" font-size="10.00">+ Descriptor()</text>
<text text-anchor="start" x="298.784" y="-637" font-family="Helvetica,sans-Serif" font-size="10.00">+ operator=()</text>
<text text-anchor="start" x="298.784" y="-626" font-family="Helvetica,sans-Serif" font-size="10.00">+ operator ItgType()</text>
<text text-anchor="start" x="298.784" y="-615" font-family="Helvetica,sans-Serif" font-size="10.00">+ Descriptor()</text>
<text text-anchor="start" x="298.784" y="-604" font-family="Helvetica,sans-Serif" font-size="10.00">+ runtimeInit()</text>
<text text-anchor="start" x="298.784" y="-593" font-family="Helvetica,sans-Serif" font-size="10.00">+ operator==()</text>
<text text-anchor="start" x="298.784" y="-582" font-family="Helvetica,sans-Serif" font-size="10.00">+ operator!=()</text>
<text text-anchor="start" x="298.784" y="-571" font-family="Helvetica,sans-Serif" font-size="10.00">+ operator==()</text>
<text text-anchor="start" x="298.784" y="-560" font-family="Helvetica,sans-Serif" font-size="10.00">+ operator!=()</text>
<text text-anchor="start" x="298.784" y="-549" font-family="Helvetica,sans-Serif" font-size="10.00">+ as()</text>
<text text-anchor="start" x="298.784" y="-538" font-family="Helvetica,sans-Serif" font-size="10.00">+ print()</text>
</a>
</g>
</g>
<!-- Node3&#45;&gt;Node7 -->
<g id="edge7" class="edge"><title>Node3&#45;&gt;Node7</title>
<path fill="none" stroke="#404040" d="M514.94,-816.872C490.819,-798.742 449.019,-765.603 418.284,-732 416.07,-729.579 413.866,-727.088 411.677,-724.543"/>
<polygon fill="none" stroke="#404040" points="411.515,-724.348 404.602,-722.296 403.837,-715.125 410.75,-717.177 411.515,-724.348"/>
<text text-anchor="middle" x="483.284" y="-764.5" font-family="Helvetica,sans-Serif" font-size="10.00"> +itg</text>
</g>
<!-- Node9 -->
<g id="node9" class="node"><title>Node9</title>
<g id="a_node9"><a xlink:href="../../d9/db3/structo2_1_1header_1_1Descriptor.html" target="_top" xlink:title="{o2::header::Descriptor\l\&lt; gSizeSerializationMethodString \&gt;\n||+ Descriptor()\l+ Descriptor()\l+ Descriptor()\l+ Descriptor()\l+ operator=()\l+ operator ItgType()\l+ runtimeInit()\l+ operator==()\l+ operator==()\l+ operator!=()\l+ operator!=()\l+ as()\l+ print()\l}">
<polygon fill="none" stroke="black" points="115.284,-271 115.284,-471 285.284,-471 285.284,-271 115.284,-271"/>
<text text-anchor="start" x="123.284" y="-459" font-family="Helvetica,sans-Serif" font-size="10.00">o2::header::Descriptor</text>
<text text-anchor="middle" x="200.284" y="-448" font-family="Helvetica,sans-Serif" font-size="10.00">&lt; gSizeSerializationMethodString &gt;</text>
<polyline fill="none" stroke="black" points="115.284,-441 285.284,-441 "/>
<text text-anchor="middle" x="200.284" y="-429" font-family="Helvetica,sans-Serif" font-size="10.00"> </text>
<polyline fill="none" stroke="black" points="115.284,-422 285.284,-422 "/>
<text text-anchor="start" x="123.284" y="-410" font-family="Helvetica,sans-Serif" font-size="10.00">+ Descriptor()</text>
<text text-anchor="start" x="123.284" y="-399" font-family="Helvetica,sans-Serif" font-size="10.00">+ Descriptor()</text>
<text text-anchor="start" x="123.284" y="-388" font-family="Helvetica,sans-Serif" font-size="10.00">+ Descriptor()</text>
<text text-anchor="start" x="123.284" y="-377" font-family="Helvetica,sans-Serif" font-size="10.00">+ Descriptor()</text>
<text text-anchor="start" x="123.284" y="-366" font-family="Helvetica,sans-Serif" font-size="10.00">+ operator=()</text>
<text text-anchor="start" x="123.284" y="-355" font-family="Helvetica,sans-Serif" font-size="10.00">+ operator ItgType()</text>
<text text-anchor="start" x="123.284" y="-344" font-family="Helvetica,sans-Serif" font-size="10.00">+ runtimeInit()</text>
<text text-anchor="start" x="123.284" y="-333" font-family="Helvetica,sans-Serif" font-size="10.00">+ operator==()</text>
<text text-anchor="start" x="123.284" y="-322" font-family="Helvetica,sans-Serif" font-size="10.00">+ operator==()</text>
<text text-anchor="start" x="123.284" y="-311" font-family="Helvetica,sans-Serif" font-size="10.00">+ operator!=()</text>
<text text-anchor="start" x="123.284" y="-300" font-family="Helvetica,sans-Serif" font-size="10.00">+ operator!=()</text>
<text text-anchor="start" x="123.284" y="-289" font-family="Helvetica,sans-Serif" font-size="10.00">+ as()</text>
<text text-anchor="start" x="123.284" y="-278" font-family="Helvetica,sans-Serif" font-size="10.00">+ print()</text>
</a>
</g>
</g>
<!-- Node3&#45;&gt;Node9 -->
<g id="edge16" class="edge"><title>Node3&#45;&gt;Node9</title>
<path fill="none" stroke="#404040" d="M515.2,-828.398C480.071,-823.159 403.278,-809.593 343.284,-784 303.591,-767.067 285.501,-767.719 261.284,-732 210.02,-656.387 268.997,-609.093 223.284,-530 217.133,-519.357 207.501,-523.131 202.284,-512 198.021,-502.903 195.083,-493.095 193.152,-483.042"/>
<polygon fill="none" stroke="#404040" points="193.148,-483.017 188.285,-477.693 191.329,-471.156 196.193,-476.48 193.148,-483.017"/>
<text text-anchor="middle" x="271.284" y="-628.5" font-family="Helvetica,sans-Serif" font-size="10.00"> +itg</text>
</g>
<!-- Node4 -->
<g id="node4" class="node"><title>Node4</title>
<polygon fill="none" stroke="#bfbfbf" points="82.7844,-803 82.7844,-861 111.784,-861 111.784,-803 82.7844,-803"/>
<polyline fill="none" stroke="#bfbfbf" points="82.7844,-841 111.784,-841 "/>
<text text-anchor="middle" x="97.2844" y="-829" font-family="Helvetica,sans-Serif" font-size="10.00"> </text>
<polyline fill="none" stroke="#bfbfbf" points="82.7844,-822 111.784,-822 "/>
<text text-anchor="middle" x="97.2844" y="-810" font-family="Helvetica,sans-Serif" font-size="10.00"> </text>
</g>
<!-- Node4&#45;&gt;Node1 -->
<g id="edge11" class="edge"><title>Node4&#45;&gt;Node1</title>
<path fill="none" stroke="#404040" d="M89.2336,-802.789C66.3234,-716.606 8.5029,-451.612 106.284,-270 145.41,-197.331 224.153,-142.401 282.464,-109.447"/>
<polygon fill="none" stroke="#404040" points="282.605,-109.369 285.913,-102.961 293.1,-103.55 289.792,-109.958 282.605,-109.369"/>
<text text-anchor="middle" x="67.7844" y="-498.5" font-family="Helvetica,sans-Serif" font-size="10.00"> +@11</text>
</g>
<!-- Node4&#45;&gt;Node1 -->
<g id="edge13" class="edge"><title>Node4&#45;&gt;Node1</title>
<path fill="none" stroke="#404040" d="M82.6433,-807.115C71.3991,-787.619 56.4554,-758.981 48.2844,-732 -11.2309,-535.481 -20.595,-463.077 49.2844,-270 68.0916,-218.035 71.6539,-199.166 114.284,-164 162.51,-124.218 230.083,-100.995 281.245,-88.1368"/>
<polygon fill="none" stroke="#404040" points="281.552,-88.0627 286.443,-82.764 293.215,-85.241 288.324,-90.5397 281.552,-88.0627"/>
<text text-anchor="middle" x="16.7844" y="-498.5" font-family="Helvetica,sans-Serif" font-size="10.00"> +@13</text>
</g>
<!-- Node4&#45;&gt;Node2 -->
<g id="edge3" class="edge"><title>Node4&#45;&gt;Node2</title>
<path fill="none" stroke="#404040" d="M111.827,-829.23C171.073,-821.96 391.602,-794.293 402.284,-784 484.48,-704.798 364.921,-615.729 440.284,-530 460.359,-507.164 484.242,-532.942 506.284,-512 515.28,-503.454 522.518,-493.12 528.342,-481.984"/>
<polygon fill="none" stroke="#404040" points="528.364,-481.938 527.319,-474.803 533.503,-471.094 534.548,-478.229 528.364,-481.938"/>
<text text-anchor="middle" x="452.784" y="-628.5" font-family="Helvetica,sans-Serif" font-size="10.00"> +@9</text>
</g>
<!-- Node4&#45;&gt;Node7 -->
<g id="edge8" class="edge"><title>Node4&#45;&gt;Node7</title>
<path fill="none" stroke="#404040" d="M111.84,-824.947C143.058,-811.496 217.787,-776.742 269.284,-732 273.676,-728.185 277.992,-724.091 282.201,-719.819"/>
<polygon fill="none" stroke="#404040" points="282.448,-719.557 283.654,-712.448 290.681,-710.827 289.474,-717.937 282.448,-719.557"/>
<text text-anchor="middle" x="256.784" y="-764.5" font-family="Helvetica,sans-Serif" font-size="10.00"> +@9</text>
</g>
<!-- Node4&#45;&gt;Node9 -->
<g id="edge17" class="edge"><title>Node4&#45;&gt;Node9</title>
<path fill="none" stroke="#404040" d="M94.3459,-802.915C89.6067,-748.843 83.4079,-627.04 111.284,-530 115.866,-514.051 122.334,-497.972 129.716,-482.493"/>
<polygon fill="none" stroke="#404040" points="129.915,-482.091 128.993,-474.939 135.24,-471.338 136.162,-478.489 129.915,-482.091"/>
<text text-anchor="middle" x="123.784" y="-628.5" font-family="Helvetica,sans-Serif" font-size="10.00"> +@9</text>
</g>
<!-- Node5 -->
<g id="node5" class="node"><title>Node5</title>
<polygon fill="none" stroke="#bfbfbf" points="663.784,-803.5 663.784,-860.5 698.784,-860.5 698.784,-803.5 663.784,-803.5"/>
<text text-anchor="middle" x="681.284" y="-848.5" font-family="Helvetica,sans-Serif" font-size="10.00">char</text>
<polyline fill="none" stroke="#bfbfbf" points="663.784,-841.5 698.784,-841.5 "/>
<text text-anchor="middle" x="681.284" y="-829.5" font-family="Helvetica,sans-Serif" font-size="10.00"> </text>
<polyline fill="none" stroke="#bfbfbf" points="663.784,-822.5 698.784,-822.5 "/>
<text text-anchor="middle" x="681.284" y="-810.5" font-family="Helvetica,sans-Serif" font-size="10.00"> </text>
</g>
<!-- Node5&#45;&gt;Node1 -->
<g id="edge14" class="edge"><title>Node5&#45;&gt;Node1</title>
<path fill="none" stroke="#404040" d="M690.72,-803.323C692.702,-797.013 694.677,-790.308 696.284,-784 702.095,-761.194 704.052,-755.428 706.284,-732 725.935,-525.76 747.854,-449.428 644.284,-270 595.939,-186.245 495.633,-130.879 426.651,-100.973"/>
<polygon fill="none" stroke="#404040" points="426.483,-100.902 419.397,-102.24 415.436,-96.2146 422.522,-94.8758 426.483,-100.902"/>
<text text-anchor="middle" x="753.784" y="-498.5" font-family="Helvetica,sans-Serif" font-size="10.00"> +magicString</text>
</g>
<!-- Node5&#45;&gt;Node2 -->
<g id="edge4" class="edge"><title>Node5&#45;&gt;Node2</title>
<path fill="none" stroke="#404040" d="M682.197,-803.115C683.102,-748.874 680.856,-626.063 647.284,-530 641.665,-513.92 634.276,-497.697 626.097,-482.086"/>
<polygon fill="none" stroke="#404040" points="626.021,-481.945 619.65,-478.566 620.32,-471.386 626.69,-474.765 626.021,-481.945"/>
<text text-anchor="middle" x="691.784" y="-628.5" font-family="Helvetica,sans-Serif" font-size="10.00"> +str</text>
</g>
<!-- Node5&#45;&gt;Node7 -->
<g id="edge9" class="edge"><title>Node5&#45;&gt;Node7</title>
<path fill="none" stroke="#404040" d="M663.71,-821.905C631.477,-805.535 560.412,-770.875 497.284,-750 463.094,-738.694 448.233,-751.996 418.284,-732 416.735,-730.965 415.208,-729.885 413.705,-728.762"/>
<polygon fill="none" stroke="#404040" points="413.35,-728.467 406.179,-727.707 404.123,-720.795 411.294,-721.556 413.35,-728.467"/>
<text text-anchor="middle" x="590.784" y="-764.5" font-family="Helvetica,sans-Serif" font-size="10.00"> +str</text>
</g>
<!-- Node5&#45;&gt;Node9 -->
<g id="edge18" class="edge"><title>Node5&#45;&gt;Node9</title>
<path fill="none" stroke="#404040" d="M663.489,-811.999C648.098,-795.573 625.243,-771.202 605.284,-750 597.742,-741.988 592.898,-741.99 588.284,-732 550.419,-650.013 611.901,-607.941 566.284,-530 515.208,-442.729 441.1,-507.141 346.284,-472 329.152,-465.65 312.1,-456.854 296.015,-447.09"/>
<polygon fill="none" stroke="#404040" points="295.759,-446.929 288.55,-447.128 285.594,-440.55 292.803,-440.351 295.759,-446.929"/>
<text text-anchor="middle" x="598.784" y="-628.5" font-family="Helvetica,sans-Serif" font-size="10.00"> +str</text>
</g>
<!-- Node6 -->
<g id="node6" class="node"><title>Node6</title>
<polygon fill="none" stroke="#bfbfbf" points="332.784,-803.5 332.784,-860.5 361.784,-860.5 361.784,-803.5 332.784,-803.5"/>
<text text-anchor="middle" x="347.284" y="-848.5" font-family="Helvetica,sans-Serif" font-size="10.00">int</text>
<polyline fill="none" stroke="#bfbfbf" points="332.784,-841.5 361.784,-841.5 "/>
<text text-anchor="middle" x="347.284" y="-829.5" font-family="Helvetica,sans-Serif" font-size="10.00"> </text>
<polyline fill="none" stroke="#bfbfbf" points="332.784,-822.5 361.784,-822.5 "/>
<text text-anchor="middle" x="347.284" y="-810.5" font-family="Helvetica,sans-Serif" font-size="10.00"> </text>
</g>
<!-- Node6&#45;&gt;Node2 -->
<g id="edge5" class="edge"><title>Node6&#45;&gt;Node2</title>
<path fill="none" stroke="#404040" d="M362.081,-828.605C385.179,-824.083 429.699,-812.095 454.284,-784 470.125,-765.899 463.278,-755.291 469.284,-732 492.276,-642.841 473.152,-611.871 515.284,-530 520.182,-520.483 526.747,-521.694 531.284,-512 535.553,-502.88 538.993,-493.094 541.76,-483.088"/>
<polygon fill="none" stroke="#404040" points="541.805,-482.911 539.376,-476.121 544.71,-471.268 547.138,-478.058 541.805,-482.911"/>
<text text-anchor="middle" x="540.784" y="-639.5" font-family="Helvetica,sans-Serif" font-size="10.00"> +arraySize</text>
<text text-anchor="middle" x="540.784" y="-628.5" font-family="Helvetica,sans-Serif" font-size="10.00">+size</text>
<text text-anchor="middle" x="540.784" y="-617.5" font-family="Helvetica,sans-Serif" font-size="10.00">+bitcount</text>
</g>
<!-- Node6&#45;&gt;Node7 -->
<g id="edge10" class="edge"><title>Node6&#45;&gt;Node7</title>
<path fill="none" stroke="#404040" d="M347.284,-803.33C347.284,-787.216 347.284,-765.721 347.284,-743.415"/>
<polygon fill="none" stroke="#404040" points="347.284,-743.336 343.284,-737.336 347.284,-731.336 351.284,-737.336 347.284,-743.336"/>
<text text-anchor="middle" x="372.784" y="-775.5" font-family="Helvetica,sans-Serif" font-size="10.00"> +arraySize</text>
<text text-anchor="middle" x="372.784" y="-764.5" font-family="Helvetica,sans-Serif" font-size="10.00">+size</text>
<text text-anchor="middle" x="372.784" y="-753.5" font-family="Helvetica,sans-Serif" font-size="10.00">+bitcount</text>
</g>
<!-- Node6&#45;&gt;Node9 -->
<g id="edge19" class="edge"><title>Node6&#45;&gt;Node9</title>
<path fill="none" stroke="#404040" d="M332.722,-828.543C296.238,-821.469 201.737,-797.217 172.284,-732 137.089,-654.067 147.35,-556.976 164.619,-483.269"/>
<polygon fill="none" stroke="#404040" points="164.722,-482.843 162.255,-476.067 167.561,-471.184 170.028,-477.96 164.722,-482.843"/>
<text text-anchor="middle" x="197.784" y="-639.5" font-family="Helvetica,sans-Serif" font-size="10.00"> +arraySize</text>
<text text-anchor="middle" x="197.784" y="-628.5" font-family="Helvetica,sans-Serif" font-size="10.00">+size</text>
<text text-anchor="middle" x="197.784" y="-617.5" font-family="Helvetica,sans-Serif" font-size="10.00">+bitcount</text>
</g>
<!-- Node7&#45;&gt;Node1 -->
<g id="edge21" class="edge"><title>Node7&#45;&gt;Node1</title>
<path fill="none" stroke="#404040" d="M348.532,-530.919C349.869,-424.674 351.97,-257.808 353.229,-157.842"/>
<polygon fill="none" stroke="#404040" points="353.231,-157.691 349.306,-151.641 353.382,-145.692 357.306,-151.742 353.231,-157.691"/>
<text text-anchor="middle" x="400.784" y="-374" font-family="Helvetica,sans-Serif" font-size="10.00"> +sHeaderType</text>
<text text-anchor="middle" x="400.784" y="-363" font-family="Helvetica,sans-Serif" font-size="10.00">+sSerializationMethod</text>
</g>
<!-- Node7&#45;&gt;Node2 -->
<g id="edge6" class="edge"><title>Node7&#45;&gt;Node2</title>
<path fill="none" stroke="orange" d="M366.449,-521.48C372.007,-509.804 379.14,-498.942 388.284,-490 410.33,-468.443 428.705,-487.628 455.284,-472 459.976,-469.242 464.591,-466.196 469.109,-462.934"/>
<polygon fill="orange" stroke="orange" points="363.09,-520.431 362.321,-530.998 369.511,-523.217 363.09,-520.431"/>
<text text-anchor="start" x="388.284" y="-504" font-family="Helvetica,sans-Serif" font-size="10.00"> &lt; gSizeHeaderDescription</text>
<text text-anchor="middle" x="447.284" y="-493" font-family="Helvetica,sans-Serif" font-size="10.00">String &gt;</text>
</g>
<!-- Node7&#45;&gt;Node9 -->
<g id="edge20" class="edge"><title>Node7&#45;&gt;Node9</title>
<path fill="none" stroke="orange" d="M283.265,-541.361C278.771,-537.272 274.103,-533.446 269.284,-530 249.391,-515.774 232.647,-531.029 217.284,-512 207.826,-500.284 201.93,-486.117 198.432,-471.354"/>
<polygon fill="orange" stroke="orange" points="281.027,-544.064 290.663,-548.469 285.877,-539.016 281.027,-544.064"/>
<text text-anchor="start" x="217.284" y="-504" font-family="Helvetica,sans-Serif" font-size="10.00"> &lt; gSizeSerializationMethod</text>
<text text-anchor="middle" x="278.784" y="-493" font-family="Helvetica,sans-Serif" font-size="10.00">String &gt;</text>
</g>
<!-- Node8 -->
<g id="node8" class="node"><title>Node8</title>
<polygon fill="none" stroke="#bfbfbf" points="778.784,-342.5 778.784,-399.5 829.784,-399.5 829.784,-342.5 778.784,-342.5"/>
<text text-anchor="middle" x="804.284" y="-387.5" font-family="Helvetica,sans-Serif" font-size="10.00">uint32_t</text>
<polyline fill="none" stroke="#bfbfbf" points="778.784,-380.5 829.784,-380.5 "/>
<text text-anchor="middle" x="804.284" y="-368.5" font-family="Helvetica,sans-Serif" font-size="10.00"> </text>
<polyline fill="none" stroke="#bfbfbf" points="778.784,-361.5 829.784,-361.5 "/>
<text text-anchor="middle" x="804.284" y="-349.5" font-family="Helvetica,sans-Serif" font-size="10.00"> </text>
</g>
<!-- Node8&#45;&gt;Node1 -->
<g id="edge12" class="edge"><title>Node8&#45;&gt;Node1</title>
<path fill="none" stroke="#404040" d="M807.624,-342.383C811.286,-298.334 811.36,-212.234 764.284,-164 718.26,-116.843 532.666,-91.3994 427.654,-80.5237"/>
<polygon fill="none" stroke="#404040" points="427.512,-80.5094 421.139,-83.8843 415.573,-79.3 421.946,-75.9251 427.512,-80.5094"/>
<text text-anchor="middle" x="844.284" y="-244" font-family="Helvetica,sans-Serif" font-size="10.00"> +headerVersion</text>
<text text-anchor="middle" x="844.284" y="-233" font-family="Helvetica,sans-Serif" font-size="10.00">+headerSize</text>
<text text-anchor="middle" x="844.284" y="-222" font-family="Helvetica,sans-Serif" font-size="10.00">+sMagicString</text>
<text text-anchor="middle" x="844.284" y="-211" font-family="Helvetica,sans-Serif" font-size="10.00">+flagsNextHeader</text>
<text text-anchor="middle" x="844.284" y="-200" font-family="Helvetica,sans-Serif" font-size="10.00">+magicStringInt</text>
<text text-anchor="middle" x="844.284" y="-189" font-family="Helvetica,sans-Serif" font-size="10.00">+flagsUnused</text>
<text text-anchor="middle" x="844.284" y="-178" font-family="Helvetica,sans-Serif" font-size="10.00">+flags</text>
<text text-anchor="middle" x="844.284" y="-167" font-family="Helvetica,sans-Serif" font-size="10.00">+sVersion</text>
</g>
<!-- Node9&#45;&gt;Node1 -->
<g id="edge15" class="edge"><title>Node9&#45;&gt;Node1</title>
<path fill="none" stroke="#404040" d="M230.855,-270.81C243.53,-235.893 259.857,-197.122 279.284,-164 281.433,-160.336 283.731,-156.671 286.138,-153.03"/>
<polygon fill="none" stroke="#404040" points="286.354,-152.718 286.478,-145.508 293.182,-142.85 293.057,-150.06 286.354,-152.718"/>
<text text-anchor="middle" x="309.784" y="-205.5" font-family="Helvetica,sans-Serif" font-size="10.00"> +serialization</text>
</g>
</g>
</svg>
