<?xml version="1.0" encoding="UTF-8" standalone="no"?>
<!DOCTYPE svg PUBLIC "-//W3C//DTD SVG 1.1//EN"
 "http://www.w3.org/Graphics/SVG/1.1/DTD/svg11.dtd">
<!-- Generated by graphviz version 2.36.0 (20140111.2315)
 -->
<!-- Title: o2::DataFlow::StreamingState Pages: 1 -->
<!--zoomable 1202 -->
<svg id="main" version="1.1" xmlns="http://www.w3.org/2000/svg" xmlns:xlink="http://www.w3.org/1999/xlink" xml:space="preserve" onload="init(evt)">
<style type="text/css"><![CDATA[
.edge:hover path { stroke: red; }
.edge:hover polygon { stroke: red; fill: red; }
]]></style>
<script type="text/javascript"><![CDATA[
var edges = document.getElementsByTagName('g');
if (edges && edges.length) {
  for (var i=0;i<edges.length;i++) {
    if (edges[i].id.substr(0,4)=='edge') {
      edges[i].setAttribute('class','edge');
    }
  }
}
]]></script>
        <defs>
                <circle id="rim" cx="0" cy="0" r="7"/>
                <circle id="rim2" cx="0" cy="0" r="3.5"/>
                <g id="zoomPlus">
                        <use xlink:href="#rim" fill="#404040">
                                <set attributeName="fill" to="#808080" begin="zoomplus.mouseover" end="zoomplus.mouseout"/>
                        </use>
                        <path d="M-4,0h8M0,-4v8" fill="none" stroke="white" stroke-width="1.5" pointer-events="none"/>
                </g>
                <g id="zoomMin">
                        <use xlink:href="#rim" fill="#404040">
                                <set attributeName="fill" to="#808080" begin="zoomminus.mouseover" end="zoomminus.mouseout"/>
                        </use>
                        <path d="M-4,0h8" fill="none" stroke="white" stroke-width="1.5" pointer-events="none"/>
                </g>
                <g id="dirArrow">
                        <path fill="none" stroke="white" stroke-width="1.5" d="M0,-3.0v7 M-2.5,-0.5L0,-3.0L2.5,-0.5"/>
                </g>
               <g id="resetDef">
                       <use xlink:href="#rim2" fill="#404040">
                               <set attributeName="fill" to="#808080" begin="reset.mouseover" end="reset.mouseout"/>
                       </use>
               </g>
        </defs>

<script type="text/javascript">
var viewWidth = 1225;
var viewHeight = 1202;
var sectionId = 'dynsection-0';
</script>
<script xlink:href="../../svgpan.js"/>
<svg id="graph" class="graph">
<g id="viewport">
<title>o2::DataFlow::StreamingState</title>
<!-- Node1 -->
<g id="node1" class="node"><title>Node1</title>
<polygon fill="#bfbfbf" stroke="black" points="560.136,-0.5 560.136,-57.5 709.136,-57.5 709.136,-0.5 560.136,-0.5"/>
<text text-anchor="middle" x="634.636" y="-45.5" font-family="Helvetica,sans-Serif" font-size="10.00">o2::DataFlow::StreamingState</text>
<polyline fill="none" stroke="black" points="560.136,-38.5 709.136,-38.5 "/>
<text text-anchor="middle" x="634.636" y="-26.5" font-family="Helvetica,sans-Serif" font-size="10.00"> </text>
<polyline fill="none" stroke="black" points="560.136,-19.5 709.136,-19.5 "/>
<text text-anchor="start" x="568.136" y="-7.5" font-family="Helvetica,sans-Serif" font-size="10.00">+ StreamingState()</text>
</g>
<!-- Node2 -->
<g id="node2" class="node"><title>Node2</title>
<polygon fill="none" stroke="#bfbfbf" points="468.136,-166.5 468.136,-223.5 541.136,-223.5 541.136,-166.5 468.136,-166.5"/>
<text text-anchor="middle" x="504.636" y="-211.5" font-family="Helvetica,sans-Serif" font-size="10.00">ParsingState</text>
<polyline fill="none" stroke="#bfbfbf" points="468.136,-204.5 541.136,-204.5 "/>
<text text-anchor="middle" x="504.636" y="-192.5" font-family="Helvetica,sans-Serif" font-size="10.00"> </text>
<polyline fill="none" stroke="#bfbfbf" points="468.136,-185.5 541.136,-185.5 "/>
<text text-anchor="middle" x="504.636" y="-173.5" font-family="Helvetica,sans-Serif" font-size="10.00"> </text>
</g>
<!-- Node2&#45;&gt;Node1 -->
<g id="edge1" class="edge"><title>Node2&#45;&gt;Node1</title>
<path fill="none" stroke="#404040" d="M505.388,-166.154C507.478,-140.113 514.305,-101.512 535.636,-76 539.71,-71.1269 544.414,-66.7414 549.514,-62.7992"/>
<polygon fill="none" stroke="#404040" points="549.863,-62.5589 552.536,-55.8615 559.746,-55.7531 557.073,-62.4505 549.863,-62.5589"/>
<text text-anchor="middle" x="551.136" y="-84.5" font-family="Helvetica,sans-Serif" font-size="10.00"> +state</text>
</g>
<!-- Node3 -->
<g id="node3" class="node"><title>Node3</title>
<polygon fill="none" stroke="#bfbfbf" points="559.136,-166.5 559.136,-223.5 594.136,-223.5 594.136,-166.5 559.136,-166.5"/>
<text text-anchor="middle" x="576.636" y="-211.5" font-family="Helvetica,sans-Serif" font-size="10.00">bool</text>
<polyline fill="none" stroke="#bfbfbf" points="559.136,-204.5 594.136,-204.5 "/>
<text text-anchor="middle" x="576.636" y="-192.5" font-family="Helvetica,sans-Serif" font-size="10.00"> </text>
<polyline fill="none" stroke="#bfbfbf" points="559.136,-185.5 594.136,-185.5 "/>
<text text-anchor="middle" x="576.636" y="-173.5" font-family="Helvetica,sans-Serif" font-size="10.00"> </text>
</g>
<!-- Node3&#45;&gt;Node1 -->
<g id="edge2" class="edge"><title>Node3&#45;&gt;Node1</title>
<path fill="none" stroke="#404040" d="M570.448,-166.258C566.335,-141.338 563.909,-104.407 577.636,-76 579.192,-72.7798 581.094,-69.7119 583.247,-66.8018"/>
<polygon fill="none" stroke="#404040" points="583.479,-66.5382 584.434,-59.3906 591.399,-57.523 590.444,-64.6707 583.479,-66.5382"/>
<text text-anchor="middle" x="624.636" y="-90" font-family="Helvetica,sans-Serif" font-size="10.00"> +hasDataHeader</text>
<text text-anchor="middle" x="624.636" y="-79" font-family="Helvetica,sans-Serif" font-size="10.00">+hasConcreteHeader</text>
</g>
<!-- Node4 -->
<g id="node4" class="node"><title>Node4</title>
<polygon fill="none" stroke="#bfbfbf" points="673.136,-166.5 673.136,-223.5 714.136,-223.5 714.136,-166.5 673.136,-166.5"/>
<text text-anchor="middle" x="693.636" y="-211.5" font-family="Helvetica,sans-Serif" font-size="10.00">void *</text>
<polyline fill="none" stroke="#bfbfbf" points="673.136,-204.5 714.136,-204.5 "/>
<text text-anchor="middle" x="693.636" y="-192.5" font-family="Helvetica,sans-Serif" font-size="10.00"> </text>
<polyline fill="none" stroke="#bfbfbf" points="673.136,-185.5 714.136,-185.5 "/>
<text text-anchor="middle" x="693.636" y="-173.5" font-family="Helvetica,sans-Serif" font-size="10.00"> </text>
</g>
<!-- Node4&#45;&gt;Node1 -->
<g id="edge3" class="edge"><title>Node4&#45;&gt;Node1</title>
<path fill="none" stroke="#404040" d="M692.284,-166.134C690.209,-141.461 684.952,-104.97 671.636,-76 670.362,-73.2296 668.885,-70.4819 667.269,-67.789"/>
<polygon fill="none" stroke="#404040" points="667.199,-67.6857 660.526,-64.9532 660.481,-57.7422 667.155,-60.4748 667.199,-67.6857"/>
<text text-anchor="middle" x="714.136" y="-90" font-family="Helvetica,sans-Serif" font-size="10.00"> +headerBuffer</text>
<text text-anchor="middle" x="714.136" y="-79" font-family="Helvetica,sans-Serif" font-size="10.00">+payloadBuffer</text>
</g>
<!-- Node5 -->
<g id="node5" class="node"><title>Node5</title>
<g id="a_node5"><a xlink:href="../../db/d87/structo2_1_1header_1_1DataHeader.html" target="_top" xlink:title="the main header struct ">
<polygon fill="none" stroke="black" points="732.136,-117 732.136,-273 853.136,-273 853.136,-117 732.136,-117"/>
<text text-anchor="middle" x="792.636" y="-261" font-family="Helvetica,sans-Serif" font-size="10.00">o2::header::DataHeader</text>
<polyline fill="none" stroke="black" points="732.136,-254 853.136,-254 "/>
<text text-anchor="middle" x="792.636" y="-242" font-family="Helvetica,sans-Serif" font-size="10.00"> </text>
<polyline fill="none" stroke="black" points="732.136,-235 853.136,-235 "/>
<text text-anchor="start" x="740.136" y="-223" font-family="Helvetica,sans-Serif" font-size="10.00">+ DataHeader()</text>
<text text-anchor="start" x="740.136" y="-212" font-family="Helvetica,sans-Serif" font-size="10.00">+ DataHeader()</text>
<text text-anchor="start" x="740.136" y="-201" font-family="Helvetica,sans-Serif" font-size="10.00">+ DataHeader()</text>
<text text-anchor="start" x="740.136" y="-190" font-family="Helvetica,sans-Serif" font-size="10.00">+ operator=()</text>
<text text-anchor="start" x="740.136" y="-179" font-family="Helvetica,sans-Serif" font-size="10.00">+ operator==()</text>
<text text-anchor="start" x="740.136" y="-168" font-family="Helvetica,sans-Serif" font-size="10.00">+ operator==()</text>
<text text-anchor="start" x="740.136" y="-157" font-family="Helvetica,sans-Serif" font-size="10.00">+ operator==()</text>
<text text-anchor="start" x="740.136" y="-146" font-family="Helvetica,sans-Serif" font-size="10.00">+ operator==()</text>
<text text-anchor="start" x="740.136" y="-135" font-family="Helvetica,sans-Serif" font-size="10.00">+ print()</text>
<text text-anchor="start" x="740.136" y="-124" font-family="Helvetica,sans-Serif" font-size="10.00">+ Get()</text>
</a>
</g>
</g>
<!-- Node5&#45;&gt;Node1 -->
<g id="edge4" class="edge"><title>Node5&#45;&gt;Node1</title>
<path fill="none" stroke="#404040" d="M776.549,-116.816C770.65,-101.919 762.603,-87.4175 751.636,-76 742.813,-66.8153 731.933,-59.4277 720.393,-53.4952"/>
<polygon fill="none" stroke="#404040" points="720.04,-53.3299 712.91,-54.4086 709.172,-48.242 716.302,-47.1633 720.04,-53.3299"/>
<text text-anchor="middle" x="777.636" y="-84.5" font-family="Helvetica,sans-Serif" font-size="10.00"> +dh</text>
</g>
<!-- Node6 -->
<g id="node6" class="node"><title>Node6</title>
<g id="a_node6"><a xlink:href="../../d8/dbd/structo2_1_1header_1_1BaseHeader.html" target="_top" xlink:title="the base header struct Every header type must begin (i.e. derive) with this. Don&#39;t use this struct di...">
<polygon fill="none" stroke="black" points="425.636,-332.5 425.636,-477.5 547.636,-477.5 547.636,-332.5 425.636,-332.5"/>
<text text-anchor="middle" x="486.636" y="-465.5" font-family="Helvetica,sans-Serif" font-size="10.00">o2::header::BaseHeader</text>
<polyline fill="none" stroke="black" points="425.636,-458.5 547.636,-458.5 "/>
<text text-anchor="middle" x="486.636" y="-446.5" font-family="Helvetica,sans-Serif" font-size="10.00"> </text>
<polyline fill="none" stroke="black" points="425.636,-439.5 547.636,-439.5 "/>
<text text-anchor="start" x="433.636" y="-427.5" font-family="Helvetica,sans-Serif" font-size="10.00">+ BaseHeader()</text>
<text text-anchor="start" x="433.636" y="-416.5" font-family="Helvetica,sans-Serif" font-size="10.00">+ BaseHeader()</text>
<text text-anchor="start" x="433.636" y="-405.5" font-family="Helvetica,sans-Serif" font-size="10.00">+ BaseHeader()</text>
<text text-anchor="start" x="433.636" y="-394.5" font-family="Helvetica,sans-Serif" font-size="10.00">+ size()</text>
<text text-anchor="start" x="433.636" y="-383.5" font-family="Helvetica,sans-Serif" font-size="10.00">+ data()</text>
<text text-anchor="start" x="433.636" y="-372.5" font-family="Helvetica,sans-Serif" font-size="10.00">+ next()</text>
<text text-anchor="start" x="433.636" y="-361.5" font-family="Helvetica,sans-Serif" font-size="10.00">+ next()</text>
<text text-anchor="start" x="433.636" y="-350.5" font-family="Helvetica,sans-Serif" font-size="10.00">+ get()</text>
<text text-anchor="start" x="433.636" y="-339.5" font-family="Helvetica,sans-Serif" font-size="10.00">+ get()</text>
</a>
</g>
</g>
<!-- Node6&#45;&gt;Node5 -->
<g id="edge5" class="edge"><title>Node6&#45;&gt;Node5</title>
<path fill="none" stroke="midnightblue" d="M557.026,-372.962C606.051,-349.555 671.543,-314.598 722.636,-274 725.77,-271.51 728.882,-268.871 731.953,-266.129"/>
<polygon fill="none" stroke="midnightblue" points="555.305,-369.904 547.76,-377.343 558.297,-376.233 555.305,-369.904"/>
</g>
<!-- Node7 -->
<g id="node7" class="node"><title>Node7</title>
<g id="a_node7"><a xlink:href="../../d9/db3/structo2_1_1header_1_1Descriptor.html" target="_top" xlink:title="{o2::header::Descriptor\l\&lt; gSizeHeaderDescriptionString \&gt;\n||+ Descriptor()\l+ Descriptor()\l+ Descriptor()\l+ Descriptor()\l+ operator=()\l+ operator ItgType()\l+ runtimeInit()\l+ operator==()\l+ operator==()\l+ operator!=()\l+ operator!=()\l+ as()\l+ print()\l}">
<polygon fill="none" stroke="black" points="490.636,-603 490.636,-803 656.636,-803 656.636,-603 490.636,-603"/>
<text text-anchor="start" x="498.636" y="-791" font-family="Helvetica,sans-Serif" font-size="10.00">o2::header::Descriptor</text>
<text text-anchor="middle" x="573.636" y="-780" font-family="Helvetica,sans-Serif" font-size="10.00">&lt; gSizeHeaderDescriptionString &gt;</text>
<polyline fill="none" stroke="black" points="490.636,-773 656.636,-773 "/>
<text text-anchor="middle" x="573.636" y="-761" font-family="Helvetica,sans-Serif" font-size="10.00"> </text>
<polyline fill="none" stroke="black" points="490.636,-754 656.636,-754 "/>
<text text-anchor="start" x="498.636" y="-742" font-family="Helvetica,sans-Serif" font-size="10.00">+ Descriptor()</text>
<text text-anchor="start" x="498.636" y="-731" font-family="Helvetica,sans-Serif" font-size="10.00">+ Descriptor()</text>
<text text-anchor="start" x="498.636" y="-720" font-family="Helvetica,sans-Serif" font-size="10.00">+ Descriptor()</text>
<text text-anchor="start" x="498.636" y="-709" font-family="Helvetica,sans-Serif" font-size="10.00">+ Descriptor()</text>
<text text-anchor="start" x="498.636" y="-698" font-family="Helvetica,sans-Serif" font-size="10.00">+ operator=()</text>
<text text-anchor="start" x="498.636" y="-687" font-family="Helvetica,sans-Serif" font-size="10.00">+ operator ItgType()</text>
<text text-anchor="start" x="498.636" y="-676" font-family="Helvetica,sans-Serif" font-size="10.00">+ runtimeInit()</text>
<text text-anchor="start" x="498.636" y="-665" font-family="Helvetica,sans-Serif" font-size="10.00">+ operator==()</text>
<text text-anchor="start" x="498.636" y="-654" font-family="Helvetica,sans-Serif" font-size="10.00">+ operator==()</text>
<text text-anchor="start" x="498.636" y="-643" font-family="Helvetica,sans-Serif" font-size="10.00">+ operator!=()</text>
<text text-anchor="start" x="498.636" y="-632" font-family="Helvetica,sans-Serif" font-size="10.00">+ operator!=()</text>
<text text-anchor="start" x="498.636" y="-621" font-family="Helvetica,sans-Serif" font-size="10.00">+ as()</text>
<text text-anchor="start" x="498.636" y="-610" font-family="Helvetica,sans-Serif" font-size="10.00">+ print()</text>
</a>
</g>
</g>
<!-- Node7&#45;&gt;Node6 -->
<g id="edge6" class="edge"><title>Node7&#45;&gt;Node6</title>
<path fill="none" stroke="#404040" d="M534.751,-602.86C532.594,-596.508 530.535,-590.183 528.636,-584 519.253,-553.454 510.756,-519.415 503.899,-489.35"/>
<polygon fill="none" stroke="#404040" points="503.891,-489.313 498.671,-484.337 501.257,-477.605 506.476,-482.581 503.891,-489.313"/>
<text text-anchor="middle" x="557.136" y="-537.5" font-family="Helvetica,sans-Serif" font-size="10.00"> +description</text>
</g>
<!-- Node8 -->
<g id="node8" class="node"><title>Node8</title>
<polygon fill="none" stroke="#bfbfbf" points="434.636,-1135.5 434.636,-1192.5 472.636,-1192.5 472.636,-1135.5 434.636,-1135.5"/>
<text text-anchor="middle" x="453.636" y="-1180.5" font-family="Helvetica,sans-Serif" font-size="10.00">Type</text>
<polyline fill="none" stroke="#bfbfbf" points="434.636,-1173.5 472.636,-1173.5 "/>
<text text-anchor="middle" x="453.636" y="-1161.5" font-family="Helvetica,sans-Serif" font-size="10.00"> </text>
<polyline fill="none" stroke="#bfbfbf" points="434.636,-1154.5 472.636,-1154.5 "/>
<text text-anchor="middle" x="453.636" y="-1142.5" font-family="Helvetica,sans-Serif" font-size="10.00"> </text>
</g>
<!-- Node8&#45;&gt;Node7 -->
<g id="edge7" class="edge"><title>Node8&#45;&gt;Node7</title>
<path fill="none" stroke="#404040" d="M472.657,-1139.63C487.347,-1120.42 507.061,-1091.92 518.636,-1064 553.751,-979.292 498.658,-929.582 560.636,-862 579.453,-841.481 604.017,-866.336 620.636,-844 627.181,-835.203 630.227,-825.439 630.762,-815.275"/>
<polygon fill="none" stroke="#404040" points="630.758,-815.185 626.529,-809.345 630.294,-803.194 634.523,-809.035 630.758,-815.185"/>
<text text-anchor="middle" x="570.636" y="-960.5" font-family="Helvetica,sans-Serif" font-size="10.00"> +itg</text>
</g>
<!-- Node12 -->
<g id="node12" class="node"><title>Node12</title>
<g id="a_node12"><a xlink:href="../../d9/db3/structo2_1_1header_1_1Descriptor.html" target="_top" xlink:title="{o2::header::Descriptor\l\&lt; N, PrinterPolicy \&gt;\n||+ Descriptor()\l+ Descriptor()\l+ Descriptor()\l+ operator=()\l+ operator ItgType()\l+ Descriptor()\l+ runtimeInit()\l+ operator==()\l+ operator!=()\l+ operator==()\l+ operator!=()\l+ as()\l+ print()\l}">
<polygon fill="none" stroke="black" points="397.136,-863 397.136,-1063 510.136,-1063 510.136,-863 397.136,-863"/>
<text text-anchor="start" x="405.136" y="-1051" font-family="Helvetica,sans-Serif" font-size="10.00">o2::header::Descriptor</text>
<text text-anchor="middle" x="453.636" y="-1040" font-family="Helvetica,sans-Serif" font-size="10.00">&lt; N, PrinterPolicy &gt;</text>
<polyline fill="none" stroke="black" points="397.136,-1033 510.136,-1033 "/>
<text text-anchor="middle" x="453.636" y="-1021" font-family="Helvetica,sans-Serif" font-size="10.00"> </text>
<polyline fill="none" stroke="black" points="397.136,-1014 510.136,-1014 "/>
<text text-anchor="start" x="405.136" y="-1002" font-family="Helvetica,sans-Serif" font-size="10.00">+ Descriptor()</text>
<text text-anchor="start" x="405.136" y="-991" font-family="Helvetica,sans-Serif" font-size="10.00">+ Descriptor()</text>
<text text-anchor="start" x="405.136" y="-980" font-family="Helvetica,sans-Serif" font-size="10.00">+ Descriptor()</text>
<text text-anchor="start" x="405.136" y="-969" font-family="Helvetica,sans-Serif" font-size="10.00">+ operator=()</text>
<text text-anchor="start" x="405.136" y="-958" font-family="Helvetica,sans-Serif" font-size="10.00">+ operator ItgType()</text>
<text text-anchor="start" x="405.136" y="-947" font-family="Helvetica,sans-Serif" font-size="10.00">+ Descriptor()</text>
<text text-anchor="start" x="405.136" y="-936" font-family="Helvetica,sans-Serif" font-size="10.00">+ runtimeInit()</text>
<text text-anchor="start" x="405.136" y="-925" font-family="Helvetica,sans-Serif" font-size="10.00">+ operator==()</text>
<text text-anchor="start" x="405.136" y="-914" font-family="Helvetica,sans-Serif" font-size="10.00">+ operator!=()</text>
<text text-anchor="start" x="405.136" y="-903" font-family="Helvetica,sans-Serif" font-size="10.00">+ operator==()</text>
<text text-anchor="start" x="405.136" y="-892" font-family="Helvetica,sans-Serif" font-size="10.00">+ operator!=()</text>
<text text-anchor="start" x="405.136" y="-881" font-family="Helvetica,sans-Serif" font-size="10.00">+ as()</text>
<text text-anchor="start" x="405.136" y="-870" font-family="Helvetica,sans-Serif" font-size="10.00">+ print()</text>
</a>
</g>
</g>
<!-- Node8&#45;&gt;Node12 -->
<g id="edge12" class="edge"><title>Node8&#45;&gt;Node12</title>
<path fill="none" stroke="#404040" d="M453.636,-1135.33C453.636,-1119.22 453.636,-1097.72 453.636,-1075.41"/>
<polygon fill="none" stroke="#404040" points="453.636,-1075.34 449.636,-1069.34 453.636,-1063.34 457.636,-1069.34 453.636,-1075.34"/>
<text text-anchor="middle" x="463.636" y="-1096.5" font-family="Helvetica,sans-Serif" font-size="10.00"> +itg</text>
</g>
<!-- Node14 -->
<g id="node14" class="node"><title>Node14</title>
<g id="a_node14"><a xlink:href="../../d9/db3/structo2_1_1header_1_1Descriptor.html" target="_top" xlink:title="{o2::header::Descriptor\l\&lt; gSizeSerializationMethodString \&gt;\n||+ Descriptor()\l+ Descriptor()\l+ Descriptor()\l+ Descriptor()\l+ operator=()\l+ operator ItgType()\l+ runtimeInit()\l+ operator==()\l+ operator==()\l+ operator!=()\l+ operator!=()\l+ as()\l+ print()\l}">
<polygon fill="none" stroke="black" points="169.636,-603 169.636,-803 339.636,-803 339.636,-603 169.636,-603"/>
<text text-anchor="start" x="177.636" y="-791" font-family="Helvetica,sans-Serif" font-size="10.00">o2::header::Descriptor</text>
<text text-anchor="middle" x="254.636" y="-780" font-family="Helvetica,sans-Serif" font-size="10.00">&lt; gSizeSerializationMethodString &gt;</text>
<polyline fill="none" stroke="black" points="169.636,-773 339.636,-773 "/>
<text text-anchor="middle" x="254.636" y="-761" font-family="Helvetica,sans-Serif" font-size="10.00"> </text>
<polyline fill="none" stroke="black" points="169.636,-754 339.636,-754 "/>
<text text-anchor="start" x="177.636" y="-742" font-family="Helvetica,sans-Serif" font-size="10.00">+ Descriptor()</text>
<text text-anchor="start" x="177.636" y="-731" font-family="Helvetica,sans-Serif" font-size="10.00">+ Descriptor()</text>
<text text-anchor="start" x="177.636" y="-720" font-family="Helvetica,sans-Serif" font-size="10.00">+ Descriptor()</text>
<text text-anchor="start" x="177.636" y="-709" font-family="Helvetica,sans-Serif" font-size="10.00">+ Descriptor()</text>
<text text-anchor="start" x="177.636" y="-698" font-family="Helvetica,sans-Serif" font-size="10.00">+ operator=()</text>
<text text-anchor="start" x="177.636" y="-687" font-family="Helvetica,sans-Serif" font-size="10.00">+ operator ItgType()</text>
<text text-anchor="start" x="177.636" y="-676" font-family="Helvetica,sans-Serif" font-size="10.00">+ runtimeInit()</text>
<text text-anchor="start" x="177.636" y="-665" font-family="Helvetica,sans-Serif" font-size="10.00">+ operator==()</text>
<text text-anchor="start" x="177.636" y="-654" font-family="Helvetica,sans-Serif" font-size="10.00">+ operator==()</text>
<text text-anchor="start" x="177.636" y="-643" font-family="Helvetica,sans-Serif" font-size="10.00">+ operator!=()</text>
<text text-anchor="start" x="177.636" y="-632" font-family="Helvetica,sans-Serif" font-size="10.00">+ operator!=()</text>
<text text-anchor="start" x="177.636" y="-621" font-family="Helvetica,sans-Serif" font-size="10.00">+ as()</text>
<text text-anchor="start" x="177.636" y="-610" font-family="Helvetica,sans-Serif" font-size="10.00">+ print()</text>
</a>
</g>
</g>
<!-- Node8&#45;&gt;Node14 -->
<g id="edge21" class="edge"><title>Node8&#45;&gt;Node14</title>
<path fill="none" stroke="#404040" d="M434.624,-1158.4C398.019,-1148.4 318.471,-1120.88 285.636,-1064 242.409,-989.121 236.742,-890.52 240.721,-815.444"/>
<polygon fill="none" stroke="#404040" points="240.741,-815.111 237.113,-808.879 241.47,-803.133 245.098,-809.365 240.741,-815.111"/>
<text text-anchor="middle" x="295.636" y="-960.5" font-family="Helvetica,sans-Serif" font-size="10.00"> +itg</text>
</g>
<!-- Node9 -->
<g id="node9" class="node"><title>Node9</title>
<polygon fill="none" stroke="#bfbfbf" points="48.1356,-1135 48.1356,-1193 77.1356,-1193 77.1356,-1135 48.1356,-1135"/>
<polyline fill="none" stroke="#bfbfbf" points="48.1356,-1173 77.1356,-1173 "/>
<text text-anchor="middle" x="62.6356" y="-1161" font-family="Helvetica,sans-Serif" font-size="10.00"> </text>
<polyline fill="none" stroke="#bfbfbf" points="48.1356,-1154 77.1356,-1154 "/>
<text text-anchor="middle" x="62.6356" y="-1142" font-family="Helvetica,sans-Serif" font-size="10.00"> </text>
</g>
<!-- Node9&#45;&gt;Node6 -->
<g id="edge16" class="edge"><title>Node9&#45;&gt;Node6</title>
<path fill="none" stroke="#404040" d="M53.0281,-1134.94C51.2677,-1128.77 49.664,-1122.22 48.6356,-1116 44.8601,-1093.18 47.0801,-1087.12 46.6356,-1064 44.91,-974.239 33.5986,-950.826 46.6356,-862 59.9632,-771.193 109.096,-673.657 160.636,-602 200.654,-546.36 210.611,-525.159 272.636,-496 329.088,-469.461 358.19,-503.791 414.671,-480.347"/>
<polygon fill="none" stroke="#404040" points="414.675,-480.345 418.42,-474.182 425.549,-475.269 421.804,-481.431 414.675,-480.345"/>
<text text-anchor="middle" x="70.1356" y="-830.5" font-family="Helvetica,sans-Serif" font-size="10.00"> +@11</text>
</g>
<!-- Node9&#45;&gt;Node6 -->
<g id="edge18" class="edge"><title>Node9&#45;&gt;Node6</title>
<path fill="none" stroke="#404040" d="M49.1247,-1134.88C46.6286,-1128.77 44.291,-1122.26 42.6356,-1116 36.6862,-1093.51 39.0743,-1087.14 36.6356,-1064 15.0906,-859.607 -42.439,-782.07 56.6356,-602 89.9865,-541.384 107.197,-523.607 170.636,-496 269.09,-453.154 316.836,-521.231 414.416,-480.44"/>
<polygon fill="none" stroke="#404040" points="414.67,-480.325 418.49,-474.208 425.605,-475.382 421.785,-481.498 414.67,-480.325"/>
<text text-anchor="middle" x="19.1356" y="-830.5" font-family="Helvetica,sans-Serif" font-size="10.00"> +@13</text>
</g>
<!-- Node9&#45;&gt;Node7 -->
<g id="edge8" class="edge"><title>Node9&#45;&gt;Node7</title>
<path fill="none" stroke="#404040" d="M77.4418,-1156.28C104.744,-1143.01 162.602,-1110.64 188.636,-1064 232.675,-985.101 162.403,-937.767 211.636,-862 230.74,-832.599 246.238,-832.678 279.636,-822 363.413,-795.215 400.393,-841.195 479.604,-806.533"/>
<polygon fill="none" stroke="#404040" points="479.688,-806.493 483.402,-800.312 490.536,-801.363 486.822,-807.544 479.688,-806.493"/>
<text text-anchor="middle" x="224.136" y="-960.5" font-family="Helvetica,sans-Serif" font-size="10.00"> +@9</text>
</g>
<!-- Node9&#45;&gt;Node12 -->
<g id="edge13" class="edge"><title>Node9&#45;&gt;Node12</title>
<path fill="none" stroke="#404040" d="M77.3041,-1158.6C139.192,-1140.03 376.085,-1068.74 382.636,-1064 384.355,-1062.76 386.048,-1061.46 387.714,-1060.11"/>
<polygon fill="none" stroke="#404040" points="387.986,-1059.87 389.817,-1052.89 396.959,-1051.9 395.128,-1058.87 387.986,-1059.87"/>
<text text-anchor="middle" x="339.136" y="-1096.5" font-family="Helvetica,sans-Serif" font-size="10.00"> +@9</text>
</g>
<!-- Node9&#45;&gt;Node14 -->
<g id="edge22" class="edge"><title>Node9&#45;&gt;Node14</title>
<path fill="none" stroke="#404040" d="M57.8573,-1134.71C49.8736,-1079.23 38.7102,-953.616 82.6356,-862 100.111,-825.552 130.057,-793.531 160.113,-768.017"/>
<polygon fill="none" stroke="#404040" points="160.184,-767.958 162.257,-761.052 169.43,-760.31 167.356,-767.216 160.184,-767.958"/>
<text text-anchor="middle" x="95.1356" y="-960.5" font-family="Helvetica,sans-Serif" font-size="10.00"> +@9</text>
</g>
<!-- Node10 -->
<g id="node10" class="node"><title>Node10</title>
<polygon fill="none" stroke="#bfbfbf" points="616.136,-1135.5 616.136,-1192.5 651.136,-1192.5 651.136,-1135.5 616.136,-1135.5"/>
<text text-anchor="middle" x="633.636" y="-1180.5" font-family="Helvetica,sans-Serif" font-size="10.00">char</text>
<polyline fill="none" stroke="#bfbfbf" points="616.136,-1173.5 651.136,-1173.5 "/>
<text text-anchor="middle" x="633.636" y="-1161.5" font-family="Helvetica,sans-Serif" font-size="10.00"> </text>
<polyline fill="none" stroke="#bfbfbf" points="616.136,-1154.5 651.136,-1154.5 "/>
<text text-anchor="middle" x="633.636" y="-1142.5" font-family="Helvetica,sans-Serif" font-size="10.00"> </text>
</g>
<!-- Node10&#45;&gt;Node6 -->
<g id="edge19" class="edge"><title>Node10&#45;&gt;Node6</title>
<path fill="none" stroke="#404040" d="M651.345,-1138.85C664.185,-1119.66 680.354,-1091.56 686.636,-1064 698.054,-1013.9 697.104,-642.624 665.636,-602 650.659,-582.666 630.71,-601.51 613.636,-584 584.981,-554.615 607.802,-530.543 585.636,-496 577.568,-483.428 567.307,-471.493 556.462,-460.668"/>
<polygon fill="none" stroke="#404040" points="556.331,-460.542 549.232,-459.274 547.671,-452.234 554.77,-453.502 556.331,-460.542"/>
<text text-anchor="middle" x="723.136" y="-830.5" font-family="Helvetica,sans-Serif" font-size="10.00"> +magicString</text>
</g>
<!-- Node10&#45;&gt;Node7 -->
<g id="edge9" class="edge"><title>Node10&#45;&gt;Node7</title>
<path fill="none" stroke="#404040" d="M640.187,-1135.36C652.958,-1076.44 677.285,-934.633 645.636,-822 644.938,-819.518 644.173,-817.037 643.346,-814.56"/>
<polygon fill="none" stroke="#404040" points="643.237,-814.269 637.397,-810.04 639.054,-803.022 644.895,-807.251 643.237,-814.269"/>
<text text-anchor="middle" x="672.136" y="-960.5" font-family="Helvetica,sans-Serif" font-size="10.00"> +str</text>
</g>
<!-- Node10&#45;&gt;Node12 -->
<g id="edge14" class="edge"><title>Node10&#45;&gt;Node12</title>
<path fill="none" stroke="#404040" d="M616.006,-1150.29C603.742,-1141.19 587.22,-1128.4 573.636,-1116 550.181,-1094.59 544.764,-1088.56 524.636,-1064 522.315,-1061.17 519.985,-1058.27 517.659,-1055.31"/>
<polygon fill="none" stroke="#404040" points="517.602,-1055.24 510.766,-1052.95 510.255,-1045.75 517.091,-1048.05 517.602,-1055.24"/>
<text text-anchor="middle" x="584.136" y="-1096.5" font-family="Helvetica,sans-Serif" font-size="10.00"> +str</text>
</g>
<!-- Node10&#45;&gt;Node14 -->
<g id="edge23" class="edge"><title>Node10&#45;&gt;Node14</title>
<path fill="none" stroke="#404040" d="M632.624,-1135.09C629.603,-1068.04 618.368,-900.615 580.636,-862 552.126,-832.824 529.807,-855.386 490.636,-844 464.56,-836.421 459.619,-829.891 433.636,-822 398.764,-811.41 385.515,-821.66 353.636,-804 352.46,-803.349 351.29,-802.68 350.124,-801.993"/>
<polygon fill="none" stroke="#404040" points="349.894,-801.846 342.685,-801.985 339.784,-795.383 346.993,-795.245 349.894,-801.846"/>
<text text-anchor="middle" x="639.136" y="-960.5" font-family="Helvetica,sans-Serif" font-size="10.00"> +str</text>
</g>
<!-- Node11 -->
<g id="node11" class="node"><title>Node11</title>
<polygon fill="none" stroke="#bfbfbf" points="313.136,-1135.5 313.136,-1192.5 342.136,-1192.5 342.136,-1135.5 313.136,-1135.5"/>
<text text-anchor="middle" x="327.636" y="-1180.5" font-family="Helvetica,sans-Serif" font-size="10.00">int</text>
<polyline fill="none" stroke="#bfbfbf" points="313.136,-1173.5 342.136,-1173.5 "/>
<text text-anchor="middle" x="327.636" y="-1161.5" font-family="Helvetica,sans-Serif" font-size="10.00"> </text>
<polyline fill="none" stroke="#bfbfbf" points="313.136,-1154.5 342.136,-1154.5 "/>
<text text-anchor="middle" x="327.636" y="-1142.5" font-family="Helvetica,sans-Serif" font-size="10.00"> </text>
</g>
<!-- Node11&#45;&gt;Node7 -->
<g id="edge10" class="edge"><title>Node11&#45;&gt;Node7</title>
<path fill="none" stroke="#404040" d="M328.132,-1135.34C328.9,-1070.37 328.361,-909.937 305.636,-862 300.653,-851.489 291.232,-854.686 286.636,-844 282.772,-835.018 280.04,-829.219 286.636,-822 314.304,-791.716 426.897,-819.176 478.968,-805.605"/>
<polygon fill="none" stroke="#404040" points="479.269,-805.494 483.521,-799.67 490.533,-801.356 486.28,-807.18 479.269,-805.494"/>
<text text-anchor="middle" x="354.136" y="-971.5" font-family="Helvetica,sans-Serif" font-size="10.00"> +arraySize</text>
<text text-anchor="middle" x="354.136" y="-960.5" font-family="Helvetica,sans-Serif" font-size="10.00">+size</text>
<text text-anchor="middle" x="354.136" y="-949.5" font-family="Helvetica,sans-Serif" font-size="10.00">+bitcount</text>
</g>
<!-- Node11&#45;&gt;Node12 -->
<g id="edge15" class="edge"><title>Node11&#45;&gt;Node12</title>
<path fill="none" stroke="#404040" d="M342.336,-1139.78C354.42,-1120.7 372.428,-1092.26 390.456,-1063.78"/>
<polygon fill="none" stroke="#404040" points="390.668,-1063.45 390.498,-1056.24 397.088,-1053.31 397.257,-1060.52 390.668,-1063.45"/>
<text text-anchor="middle" x="402.136" y="-1107.5" font-family="Helvetica,sans-Serif" font-size="10.00"> +arraySize</text>
<text text-anchor="middle" x="402.136" y="-1096.5" font-family="Helvetica,sans-Serif" font-size="10.00">+size</text>
<text text-anchor="middle" x="402.136" y="-1085.5" font-family="Helvetica,sans-Serif" font-size="10.00">+bitcount</text>
</g>
<!-- Node11&#45;&gt;Node14 -->
<g id="edge24" class="edge"><title>Node11&#45;&gt;Node14</title>
<path fill="none" stroke="#404040" d="M312.883,-1160.86C274.865,-1154.45 173.988,-1131.45 137.636,-1064 95.0413,-984.97 109.505,-947.257 137.636,-862 143.614,-843.881 152.56,-826.142 162.892,-809.48"/>
<polygon fill="none" stroke="#404040" points="162.985,-809.335 162.877,-802.125 169.491,-799.251 169.599,-806.462 162.985,-809.335"/>
<text text-anchor="middle" x="163.136" y="-971.5" font-family="Helvetica,sans-Serif" font-size="10.00"> +arraySize</text>
<text text-anchor="middle" x="163.136" y="-960.5" font-family="Helvetica,sans-Serif" font-size="10.00">+size</text>
<text text-anchor="middle" x="163.136" y="-949.5" font-family="Helvetica,sans-Serif" font-size="10.00">+bitcount</text>
</g>
<!-- Node12&#45;&gt;Node5 -->
<g id="edge32" class="edge"><title>Node12&#45;&gt;Node5</title>
<path fill="none" stroke="#404040" d="M510.175,-865.217C511.631,-864.096 513.117,-863.022 514.636,-862 555.727,-834.33 576.352,-855.081 624.636,-844 658.078,-836.325 665.511,-830.947 698.636,-822 731.313,-813.174 751.286,-830.265 772.636,-804 804.51,-764.788 799.903,-444.38 795.548,-285.145"/>
<polygon fill="none" stroke="#404040" points="795.545,-285.031 791.378,-279.145 795.208,-273.035 799.375,-278.921 795.545,-285.031"/>
<text text-anchor="middle" x="847.136" y="-543" font-family="Helvetica,sans-Serif" font-size="10.00"> +sHeaderType</text>
<text text-anchor="middle" x="847.136" y="-532" font-family="Helvetica,sans-Serif" font-size="10.00">+sSerializationMethod</text>
</g>
<!-- Node12&#45;&gt;Node6 -->
<g id="edge26" class="edge"><title>Node12&#45;&gt;Node6</title>
<path fill="none" stroke="#404040" d="M449.64,-862.778C445.512,-847.999 439.172,-833.792 429.636,-822 416.09,-805.251 396.712,-821.837 384.636,-804 334.304,-729.658 363.302,-689.206 384.636,-602 394.3,-562.494 413.455,-522.092 432.582,-488.312"/>
<polygon fill="none" stroke="#404040" points="432.775,-487.977 432.314,-480.781 438.779,-477.587 439.241,-484.783 432.775,-487.977"/>
<text text-anchor="middle" x="433.136" y="-706" font-family="Helvetica,sans-Serif" font-size="10.00"> +sHeaderType</text>
<text text-anchor="middle" x="433.136" y="-695" font-family="Helvetica,sans-Serif" font-size="10.00">+sSerializationMethod</text>
</g>
<!-- Node12&#45;&gt;Node7 -->
<g id="edge11" class="edge"><title>Node12&#45;&gt;Node7</title>
<path fill="none" stroke="orange" d="M489.197,-853.282C493.434,-842.591 497.936,-832.005 502.636,-822 505.533,-815.833 508.665,-809.576 511.944,-803.326"/>
<polygon fill="orange" stroke="orange" points="485.9,-852.103 485.542,-862.692 492.425,-854.637 485.9,-852.103"/>
<text text-anchor="start" x="502.636" y="-836" font-family="Helvetica,sans-Serif" font-size="10.00"> &lt; gSizeHeaderDescription</text>
<text text-anchor="middle" x="561.636" y="-825" font-family="Helvetica,sans-Serif" font-size="10.00">String &gt;</text>
</g>
<!-- Node12&#45;&gt;Node14 -->
<g id="edge25" class="edge"><title>Node12&#45;&gt;Node14</title>
<path fill="none" stroke="orange" d="M388.991,-866.629C386.917,-865.005 384.799,-863.458 382.636,-862 353.849,-842.602 332.644,-866.989 306.636,-844 294.105,-832.924 284.588,-818.542 277.361,-803.224"/>
<polygon fill="orange" stroke="orange" points="386.882,-869.431 396.763,-873.255 391.423,-864.104 386.882,-869.431"/>
<text text-anchor="start" x="306.636" y="-836" font-family="Helvetica,sans-Serif" font-size="10.00"> &lt; gSizeSerializationMethod</text>
<text text-anchor="middle" x="368.136" y="-825" font-family="Helvetica,sans-Serif" font-size="10.00">String &gt;</text>
</g>
<!-- Node13 -->
<g id="node13" class="node"><title>Node13</title>
<polygon fill="none" stroke="#bfbfbf" points="713.136,-674.5 713.136,-731.5 764.136,-731.5 764.136,-674.5 713.136,-674.5"/>
<text text-anchor="middle" x="738.636" y="-719.5" font-family="Helvetica,sans-Serif" font-size="10.00">uint32_t</text>
<polyline fill="none" stroke="#bfbfbf" points="713.136,-712.5 764.136,-712.5 "/>
<text text-anchor="middle" x="738.636" y="-700.5" font-family="Helvetica,sans-Serif" font-size="10.00"> </text>
<polyline fill="none" stroke="#bfbfbf" points="713.136,-693.5 764.136,-693.5 "/>
<text text-anchor="middle" x="738.636" y="-681.5" font-family="Helvetica,sans-Serif" font-size="10.00"> </text>
</g>
<!-- Node13&#45;&gt;Node5 -->
<g id="edge27" class="edge"><title>Node13&#45;&gt;Node5</title>
<path fill="none" stroke="#404040" d="M733.844,-674.203C724.048,-612.027 704.814,-457.336 731.636,-332 735.034,-316.117 740.433,-299.848 746.647,-284.336"/>
<polygon fill="none" stroke="#404040" points="746.677,-284.264 745.297,-277.187 751.299,-273.19 752.68,-280.268 746.677,-284.264"/>
<text text-anchor="middle" x="755.136" y="-408" font-family="Helvetica,sans-Serif" font-size="10.00"> +reserved</text>
<text text-anchor="middle" x="755.136" y="-397" font-family="Helvetica,sans-Serif" font-size="10.00">+sVersion</text>
</g>
<!-- Node13&#45;&gt;Node6 -->
<g id="edge17" class="edge"><title>Node13&#45;&gt;Node6</title>
<path fill="none" stroke="#404040" d="M734.489,-674.386C729.673,-651.826 719.532,-620.709 698.636,-602 676.303,-582.005 654.678,-605.35 633.636,-584 605.259,-555.209 633.438,-529.38 610.636,-496 597.028,-476.08 577.499,-458.978 557.953,-445.199"/>
<polygon fill="none" stroke="#404040" points="557.697,-445.026 550.486,-444.974 547.761,-438.298 554.972,-438.35 557.697,-445.026"/>
<text text-anchor="middle" x="673.636" y="-576" font-family="Helvetica,sans-Serif" font-size="10.00"> +headerVersion</text>
<text text-anchor="middle" x="673.636" y="-565" font-family="Helvetica,sans-Serif" font-size="10.00">+headerSize</text>
<text text-anchor="middle" x="673.636" y="-554" font-family="Helvetica,sans-Serif" font-size="10.00">+sMagicString</text>
<text text-anchor="middle" x="673.636" y="-543" font-family="Helvetica,sans-Serif" font-size="10.00">+flagsNextHeader</text>
<text text-anchor="middle" x="673.636" y="-532" font-family="Helvetica,sans-Serif" font-size="10.00">+magicStringInt</text>
<text text-anchor="middle" x="673.636" y="-521" font-family="Helvetica,sans-Serif" font-size="10.00">+flagsUnused</text>
<text text-anchor="middle" x="673.636" y="-510" font-family="Helvetica,sans-Serif" font-size="10.00">+flags</text>
<text text-anchor="middle" x="673.636" y="-499" font-family="Helvetica,sans-Serif" font-size="10.00">+sVersion</text>
</g>
<!-- Node14&#45;&gt;Node5 -->
<g id="edge31" class="edge"><title>Node14&#45;&gt;Node5</title>
<path fill="none" stroke="#404040" d="M232.828,-602.617C220.853,-519.14 219.991,-402.5 287.636,-332 352.714,-264.173 616.359,-315.532 720.978,-273.45"/>
<polygon fill="none" stroke="#404040" points="721.168,-273.362 724.928,-267.209 732.054,-268.313 728.294,-274.466 721.168,-273.362"/>
<text text-anchor="middle" x="352.136" y="-402.5" font-family="Helvetica,sans-Serif" font-size="10.00"> +payloadSerializationMethod</text>
</g>
<!-- Node14&#45;&gt;Node6 -->
<g id="edge20" class="edge"><title>Node14&#45;&gt;Node6</title>
<path fill="none" stroke="#404040" d="M271.79,-602.83C281.11,-554.1 292.383,-504.071 300.636,-496 329.8,-467.479 353.396,-494.65 390.636,-478 398.901,-474.305 407.126,-469.789 415.087,-464.838"/>
<polygon fill="none" stroke="#404040" points="415.336,-464.676 418.171,-458.045 425.381,-458.112 422.547,-464.742 415.336,-464.676"/>
<text text-anchor="middle" x="331.136" y="-537.5" font-family="Helvetica,sans-Serif" font-size="10.00"> +serialization</text>
</g>
<!-- Node15 -->
<g id="node15" class="node"><title>Node15</title>
<polygon fill="none" stroke="#bfbfbf" points="821.136,-376.5 821.136,-433.5 872.136,-433.5 872.136,-376.5 821.136,-376.5"/>
<text text-anchor="middle" x="846.636" y="-421.5" font-family="Helvetica,sans-Serif" font-size="10.00">uint64_t</text>
<polyline fill="none" stroke="#bfbfbf" points="821.136,-414.5 872.136,-414.5 "/>
<text text-anchor="middle" x="846.636" y="-402.5" font-family="Helvetica,sans-Serif" font-size="10.00"> </text>
<polyline fill="none" stroke="#bfbfbf" points="821.136,-395.5 872.136,-395.5 "/>
<text text-anchor="middle" x="846.636" y="-383.5" font-family="Helvetica,sans-Serif" font-size="10.00"> </text>
</g>
<!-- Node15&#45;&gt;Node5 -->
<g id="edge28" class="edge"><title>Node15&#45;&gt;Node5</title>
<path fill="none" stroke="#404040" d="M839.465,-376.379C833.383,-352.955 824.311,-318.01 815.767,-285.097"/>
<polygon fill="none" stroke="#404040" points="815.665,-284.704 810.285,-279.902 812.649,-273.089 818.028,-277.891 815.665,-284.704"/>
<text text-anchor="middle" x="863.136" y="-306" font-family="Helvetica,sans-Serif" font-size="10.00"> +payloadSize</text>
<text text-anchor="middle" x="863.136" y="-295" font-family="Helvetica,sans-Serif" font-size="10.00">+subSpecification</text>
</g>
<!-- Node16 -->
<g id="node16" class="node"><title>Node16</title>
<polygon fill="none" stroke="#bfbfbf" points="890.636,-371 890.636,-439 1032.64,-439 1032.64,-371 890.636,-371"/>
<text text-anchor="start" x="898.636" y="-427" font-family="Helvetica,sans-Serif" font-size="10.00">Descriptor&lt; gSizeDataOrigin</text>
<text text-anchor="middle" x="961.636" y="-416" font-family="Helvetica,sans-Serif" font-size="10.00">String, printDataOrigin &gt;</text>
<polyline fill="none" stroke="#bfbfbf" points="890.636,-409 1032.64,-409 "/>
<text text-anchor="middle" x="961.636" y="-397" font-family="Helvetica,sans-Serif" font-size="10.00"> </text>
<polyline fill="none" stroke="#bfbfbf" points="890.636,-390 1032.64,-390 "/>
<text text-anchor="middle" x="961.636" y="-378" font-family="Helvetica,sans-Serif" font-size="10.00"> </text>
</g>
<!-- Node16&#45;&gt;Node5 -->
<g id="edge29" class="edge"><title>Node16&#45;&gt;Node5</title>
<path fill="none" stroke="#404040" d="M949.499,-370.567C940.016,-347.146 925.318,-315.89 906.636,-292 893.977,-275.814 878.202,-260.432 862.462,-246.913"/>
<polygon fill="none" stroke="#404040" points="862.423,-246.88 855.255,-246.095 853.223,-239.176 860.391,-239.961 862.423,-246.88"/>
<text text-anchor="middle" x="947.636" y="-300.5" font-family="Helvetica,sans-Serif" font-size="10.00"> +dataOrigin</text>
</g>
<!-- Node17 -->
<g id="node17" class="node"><title>Node17</title>
<polygon fill="none" stroke="#bfbfbf" points="1050.64,-371 1050.64,-439 1216.64,-439 1216.64,-371 1050.64,-371"/>
<text text-anchor="start" x="1058.64" y="-427" font-family="Helvetica,sans-Serif" font-size="10.00">Descriptor&lt; gSizeDataDescription</text>
<text text-anchor="middle" x="1133.64" y="-416" font-family="Helvetica,sans-Serif" font-size="10.00">String, printDataDescription &gt;</text>
<polyline fill="none" stroke="#bfbfbf" points="1050.64,-409 1216.64,-409 "/>
<text text-anchor="middle" x="1133.64" y="-397" font-family="Helvetica,sans-Serif" font-size="10.00"> </text>
<polyline fill="none" stroke="#bfbfbf" points="1050.64,-390 1216.64,-390 "/>
<text text-anchor="middle" x="1133.64" y="-378" font-family="Helvetica,sans-Serif" font-size="10.00"> </text>
</g>
<!-- Node17&#45;&gt;Node5 -->
<g id="edge30" class="edge"><title>Node17&#45;&gt;Node5</title>
<path fill="none" stroke="#404040" d="M1093.07,-370.863C1077.28,-358.332 1058.87,-344.168 1041.64,-332 985.033,-292.028 915.448,-254.918 864.241,-229.596"/>
<polygon fill="none" stroke="#404040" points="864.05,-229.502 856.902,-230.45 853.278,-224.215 860.426,-223.268 864.05,-229.502"/>
<text text-anchor="middle" x="1048.64" y="-300.5" font-family="Helvetica,sans-Serif" font-size="10.00"> +dataDescription</text>
</g>
</g>
</svg>
        <g id="navigator" transform="translate(0 0)" fill="#404254">
                <rect fill="#f2f5e9" fill-opacity="0.5" stroke="#606060" stroke-width=".5" x="0" y="0" width="60" height="60"/>
                <use id="zoomplus" xlink:href="#zoomPlus" x="17" y="9" onmousedown="handleZoom(evt,'in')"/>
                <use id="zoomminus" xlink:href="#zoomMin" x="42" y="9" onmousedown="handleZoom(evt,'out')"/>
                <use id="reset" xlink:href="#resetDef" x="30" y="36" onmousedown="handleReset()"/>
                <g id="arrowUp" xlink:href="#dirArrow" transform="translate(30 24)" onmousedown="handlePan(0,-1)">
                  <use xlink:href="#rim" fill="#404040">
                        <set attributeName="fill" to="#808080" begin="arrowUp.mouseover" end="arrowUp.mouseout"/>
                  </use>
                  <path fill="none" stroke="white" stroke-width="1.5" d="M0,-3.0v7 M-2.5,-0.5L0,-3.0L2.5,-0.5"/>
                </g>
                <g id="arrowRight" xlink:href="#dirArrow" transform="rotate(90) translate(36 -43)" onmousedown="handlePan(1,0)">
                  <use xlink:href="#rim" fill="#404040">
                        <set attributeName="fill" to="#808080" begin="arrowRight.mouseover" end="arrowRight.mouseout"/>
                  </use>
                  <path fill="none" stroke="white" stroke-width="1.5" d="M0,-3.0v7 M-2.5,-0.5L0,-3.0L2.5,-0.5"/>
                </g>
                <g id="arrowDown" xlink:href="#dirArrow" transform="rotate(180) translate(-30 -48)" onmousedown="handlePan(0,1)">
                  <use xlink:href="#rim" fill="#404040">
                        <set attributeName="fill" to="#808080" begin="arrowDown.mouseover" end="arrowDown.mouseout"/>
                  </use>
                  <path fill="none" stroke="white" stroke-width="1.5" d="M0,-3.0v7 M-2.5,-0.5L0,-3.0L2.5,-0.5"/>
                </g>
                <g id="arrowLeft" xlink:href="#dirArrow" transform="rotate(270) translate(-36 17)" onmousedown="handlePan(-1,0)">
                  <use xlink:href="#rim" fill="#404040">
                        <set attributeName="fill" to="#808080" begin="arrowLeft.mouseover" end="arrowLeft.mouseout"/>
                  </use>
                  <path fill="none" stroke="white" stroke-width="1.5" d="M0,-3.0v7 M-2.5,-0.5L0,-3.0L2.5,-0.5"/>
                </g>
        </g>
        <svg viewBox="0 0 15 15" width="100%" height="30px" preserveAspectRatio="xMaxYMin meet">
         <g id="arrow_out" transform="scale(0.3 0.3)">
          <a xlink:href="structo2_1_1DataFlow_1_1StreamingState__coll__graph_org.svg" target="_base">
           <rect id="button" ry="5" rx="5" y="6" x="6" height="38" width="38"
                fill="#f2f5e9" fill-opacity="0.5" stroke="#606060" stroke-width="1.0"/>
           <path id="arrow"
             d="M 11.500037,31.436501 C 11.940474,20.09759 22.043105,11.32322 32.158766,21.979434 L 37.068811,17.246167 C 37.068811,17.246167 37.088388,32 37.088388,32 L 22.160133,31.978069 C 22.160133,31.978069 26.997745,27.140456 26.997745,27.140456 C 18.528582,18.264221 13.291696,25.230495 11.500037,31.436501 z"
             style="fill:#404040;"/>
          </a>
         </g>
        </svg>
</svg>
