<?xml version="1.0" encoding="UTF-8" standalone="no"?>
<!DOCTYPE svg PUBLIC "-//W3C//DTD SVG 1.1//EN"
 "http://www.w3.org/Graphics/SVG/1.1/DTD/svg11.dtd">
<!-- Generated by graphviz version 2.36.0 (20140111.2315)
 -->
<!-- Title: o2::memoryResources::SpectatorMessageResource Pages: 1 -->
<svg width="162pt" height="388pt"
 viewBox="0.00 0.00 162.00 388.00" xmlns="http://www.w3.org/2000/svg" xmlns:xlink="http://www.w3.org/1999/xlink">
<g id="graph0" class="graph" transform="scale(1 1) rotate(0) translate(4 384)">
<title>o2::memoryResources::SpectatorMessageResource</title>
<!-- Node1 -->
<g id="node1" class="node"><title>Node1</title>
<polygon fill="#bfbfbf" stroke="black" points="-0.5,-0.5 -0.5,-145.5 154.5,-145.5 154.5,-0.5 -0.5,-0.5"/>
<text text-anchor="start" x="7.5" y="-133.5" font-family="Helvetica,sans-Serif" font-size="10.00">o2::memoryResources</text>
<text text-anchor="middle" x="77" y="-122.5" font-family="Helvetica,sans-Serif" font-size="10.00">::SpectatorMessageResource</text>
<polyline fill="none" stroke="black" points="-0.5,-115.5 154.5,-115.5 "/>
<text text-anchor="start" x="7.5" y="-103.5" font-family="Helvetica,sans-Serif" font-size="10.00"># message</text>
<polyline fill="none" stroke="black" points="-0.5,-96.5 154.5,-96.5 "/>
<text text-anchor="start" x="7.5" y="-84.5" font-family="Helvetica,sans-Serif" font-size="10.00">+ SpectatorMessageResource()</text>
<text text-anchor="start" x="7.5" y="-73.5" font-family="Helvetica,sans-Serif" font-size="10.00">+ SpectatorMessageResource()</text>
<text text-anchor="start" x="7.5" y="-62.5" font-family="Helvetica,sans-Serif" font-size="10.00">+ getMessage()</text>
<text text-anchor="start" x="7.5" y="-51.5" font-family="Helvetica,sans-Serif" font-size="10.00">+ getTransportFactory()</text>
<text text-anchor="start" x="7.5" y="-40.5" font-family="Helvetica,sans-Serif" font-size="10.00">+ getNumberOfMessages()</text>
<text text-anchor="start" x="7.5" y="-29.5" font-family="Helvetica,sans-Serif" font-size="10.00"># do_allocate()</text>
<text text-anchor="start" x="7.5" y="-18.5" font-family="Helvetica,sans-Serif" font-size="10.00"># do_deallocate()</text>
<text text-anchor="start" x="7.5" y="-7.5" font-family="Helvetica,sans-Serif" font-size="10.00"># do_is_equal()</text>
</g>
<!-- Node2 -->
<g id="node2" class="node"><title>Node2</title>
<g id="a_node2"><a xlink:href="../../d1/dcc/classo2_1_1memoryResources_1_1FairMQMemoryResource.html" target="_top" xlink:title="All FairMQ related memory resources need to inherit from this interface class for the getMessage() ap...">
<polygon fill="none" stroke="black" points="9.5,-183 9.5,-273 144.5,-273 144.5,-183 9.5,-183"/>
<text text-anchor="start" x="17.5" y="-261" font-family="Helvetica,sans-Serif" font-size="10.00">o2::memoryResources</text>
<text text-anchor="middle" x="77" y="-250" font-family="Helvetica,sans-Serif" font-size="10.00">::FairMQMemoryResource</text>
<polyline fill="none" stroke="black" points="9.5,-243 144.5,-243 "/>
<text text-anchor="middle" x="77" y="-231" font-family="Helvetica,sans-Serif" font-size="10.00"> </text>
<polyline fill="none" stroke="black" points="9.5,-224 144.5,-224 "/>
<text text-anchor="start" x="17.5" y="-212" font-family="Helvetica,sans-Serif" font-size="10.00">+ getMessage()</text>
<text text-anchor="start" x="17.5" y="-201" font-family="Helvetica,sans-Serif" font-size="10.00">+ getTransportFactory()</text>
<text text-anchor="start" x="17.5" y="-190" font-family="Helvetica,sans-Serif" font-size="10.00">+ getNumberOfMessages()</text>
</a>
</g>
</g>
<!-- Node2&#45;&gt;Node1 -->
<g id="edge1" class="edge"><title>Node2&#45;&gt;Node1</title>
<path fill="none" stroke="midnightblue" d="M77,-172.658C77,-163.871 77,-154.657 77,-145.537"/>
<polygon fill="none" stroke="midnightblue" points="73.5001,-172.746 77,-182.746 80.5001,-172.746 73.5001,-172.746"/>
</g>
<!-- Node3 -->
<g id="node3" class="node"><title>Node3</title>
<polygon fill="none" stroke="#bfbfbf" points="22.5,-311 22.5,-379 131.5,-379 131.5,-311 22.5,-311"/>
<text text-anchor="start" x="30.5" y="-367" font-family="Helvetica,sans-Serif" font-size="10.00">boost::container::pmr</text>
<text text-anchor="middle" x="77" y="-356" font-family="Helvetica,sans-Serif" font-size="10.00">::memory_resource</text>
<polyline fill="none" stroke="#bfbfbf" points="22.5,-349 131.5,-349 "/>
<text text-anchor="middle" x="77" y="-337" font-family="Helvetica,sans-Serif" font-size="10.00"> </text>
<polyline fill="none" stroke="#bfbfbf" points="22.5,-330 131.5,-330 "/>
<text text-anchor="middle" x="77" y="-318" font-family="Helvetica,sans-Serif" font-size="10.00"> </text>
</g>
<!-- Node3&#45;&gt;Node2 -->
<g id="edge2" class="edge"><title>Node3&#45;&gt;Node2</title>
<path fill="none" stroke="midnightblue" d="M77,-300.555C77,-291.646 77,-282.257 77,-273.318"/>
<polygon fill="none" stroke="midnightblue" points="73.5001,-300.737 77,-310.737 80.5001,-300.737 73.5001,-300.737"/>
</g>
</g>
</svg>
