<?xml version="1.0" encoding="UTF-8" standalone="no"?>
<!DOCTYPE svg PUBLIC "-//W3C//DTD SVG 1.1//EN"
 "http://www.w3.org/Graphics/SVG/1.1/DTD/svg11.dtd">
<!-- Generated by graphviz version 2.36.0 (20140111.2315)
 -->
<!-- Title: o2::framework::DataProcessingHeader Pages: 1 -->
<!--zoomable 1042 -->
<svg id="main" version="1.1" xmlns="http://www.w3.org/2000/svg" xmlns:xlink="http://www.w3.org/1999/xlink" xml:space="preserve" onload="init(evt)">
<style type="text/css"><![CDATA[
.edge:hover path { stroke: red; }
.edge:hover polygon { stroke: red; fill: red; }
]]></style>
<script type="text/javascript"><![CDATA[
var edges = document.getElementsByTagName('g');
if (edges && edges.length) {
  for (var i=0;i<edges.length;i++) {
    if (edges[i].id.substr(0,4)=='edge') {
      edges[i].setAttribute('class','edge');
    }
  }
}
]]></script>
        <defs>
                <circle id="rim" cx="0" cy="0" r="7"/>
                <circle id="rim2" cx="0" cy="0" r="3.5"/>
                <g id="zoomPlus">
                        <use xlink:href="#rim" fill="#404040">
                                <set attributeName="fill" to="#808080" begin="zoomplus.mouseover" end="zoomplus.mouseout"/>
                        </use>
                        <path d="M-4,0h8M0,-4v8" fill="none" stroke="white" stroke-width="1.5" pointer-events="none"/>
                </g>
                <g id="zoomMin">
                        <use xlink:href="#rim" fill="#404040">
                                <set attributeName="fill" to="#808080" begin="zoomminus.mouseover" end="zoomminus.mouseout"/>
                        </use>
                        <path d="M-4,0h8" fill="none" stroke="white" stroke-width="1.5" pointer-events="none"/>
                </g>
                <g id="dirArrow">
                        <path fill="none" stroke="white" stroke-width="1.5" d="M0,-3.0v7 M-2.5,-0.5L0,-3.0L2.5,-0.5"/>
                </g>
               <g id="resetDef">
                       <use xlink:href="#rim2" fill="#404040">
                               <set attributeName="fill" to="#808080" begin="reset.mouseover" end="reset.mouseout"/>
                       </use>
               </g>
        </defs>

<script type="text/javascript">
var viewWidth = 968;
var viewHeight = 1042;
var sectionId = 'dynsection-1';
</script>
<script xlink:href="../../svgpan.js"/>
<svg id="graph" class="graph">
<g id="viewport">
<title>o2::framework::DataProcessingHeader</title>
<!-- Node1 -->
<g id="node1" class="node"><title>Node1</title>
<polygon fill="#bfbfbf" stroke="black" points="710.419,-1 710.419,-113 865.419,-113 865.419,-1 710.419,-1"/>
<text text-anchor="start" x="718.419" y="-101" font-family="Helvetica,sans-Serif" font-size="10.00">o2::framework::DataProcessing</text>
<text text-anchor="middle" x="787.919" y="-90" font-family="Helvetica,sans-Serif" font-size="10.00">Header</text>
<polyline fill="none" stroke="black" points="710.419,-83 865.419,-83 "/>
<text text-anchor="middle" x="787.919" y="-71" font-family="Helvetica,sans-Serif" font-size="10.00"> </text>
<polyline fill="none" stroke="black" points="710.419,-64 865.419,-64 "/>
<text text-anchor="start" x="718.419" y="-52" font-family="Helvetica,sans-Serif" font-size="10.00">+ DataProcessingHeader()</text>
<text text-anchor="start" x="718.419" y="-41" font-family="Helvetica,sans-Serif" font-size="10.00">+ DataProcessingHeader()</text>
<text text-anchor="start" x="718.419" y="-30" font-family="Helvetica,sans-Serif" font-size="10.00">+ DataProcessingHeader()</text>
<text text-anchor="start" x="718.419" y="-19" font-family="Helvetica,sans-Serif" font-size="10.00">+ DataProcessingHeader()</text>
<text text-anchor="start" x="718.419" y="-8" font-family="Helvetica,sans-Serif" font-size="10.00">+ Get()</text>
</g>
<!-- Node2 -->
<g id="node2" class="node"><title>Node2</title>
<g id="a_node2"><a xlink:href="../../d8/dbd/structo2_1_1header_1_1BaseHeader.html" target="_top" xlink:title="the base header struct Every header type must begin (i.e. derive) with this. Don&#39;t use this struct di...">
<polygon fill="none" stroke="black" points="566.919,-172.5 566.919,-317.5 688.919,-317.5 688.919,-172.5 566.919,-172.5"/>
<text text-anchor="middle" x="627.919" y="-305.5" font-family="Helvetica,sans-Serif" font-size="10.00">o2::header::BaseHeader</text>
<polyline fill="none" stroke="black" points="566.919,-298.5 688.919,-298.5 "/>
<text text-anchor="middle" x="627.919" y="-286.5" font-family="Helvetica,sans-Serif" font-size="10.00"> </text>
<polyline fill="none" stroke="black" points="566.919,-279.5 688.919,-279.5 "/>
<text text-anchor="start" x="574.919" y="-267.5" font-family="Helvetica,sans-Serif" font-size="10.00">+ BaseHeader()</text>
<text text-anchor="start" x="574.919" y="-256.5" font-family="Helvetica,sans-Serif" font-size="10.00">+ BaseHeader()</text>
<text text-anchor="start" x="574.919" y="-245.5" font-family="Helvetica,sans-Serif" font-size="10.00">+ BaseHeader()</text>
<text text-anchor="start" x="574.919" y="-234.5" font-family="Helvetica,sans-Serif" font-size="10.00">+ size()</text>
<text text-anchor="start" x="574.919" y="-223.5" font-family="Helvetica,sans-Serif" font-size="10.00">+ data()</text>
<text text-anchor="start" x="574.919" y="-212.5" font-family="Helvetica,sans-Serif" font-size="10.00">+ next()</text>
<text text-anchor="start" x="574.919" y="-201.5" font-family="Helvetica,sans-Serif" font-size="10.00">+ next()</text>
<text text-anchor="start" x="574.919" y="-190.5" font-family="Helvetica,sans-Serif" font-size="10.00">+ get()</text>
<text text-anchor="start" x="574.919" y="-179.5" font-family="Helvetica,sans-Serif" font-size="10.00">+ get()</text>
</a>
</g>
</g>
<!-- Node2&#45;&gt;Node1 -->
<g id="edge1" class="edge"><title>Node2&#45;&gt;Node1</title>
<path fill="none" stroke="midnightblue" d="M695.933,-164.934C710.925,-147.505 726.492,-129.409 740.463,-113.168"/>
<polygon fill="none" stroke="midnightblue" points="692.961,-163.022 689.093,-172.885 698.268,-167.587 692.961,-163.022"/>
</g>
<!-- Node3 -->
<g id="node3" class="node"><title>Node3</title>
<g id="a_node3"><a xlink:href="../../d9/db3/structo2_1_1header_1_1Descriptor.html" target="_top" xlink:title="{o2::header::Descriptor\l\&lt; gSizeHeaderDescriptionString \&gt;\n||+ Descriptor()\l+ Descriptor()\l+ Descriptor()\l+ Descriptor()\l+ operator=()\l+ operator ItgType()\l+ runtimeInit()\l+ operator==()\l+ operator==()\l+ operator!=()\l+ operator!=()\l+ as()\l+ print()\l}">
<polygon fill="none" stroke="black" points="488.919,-443 488.919,-643 654.919,-643 654.919,-443 488.919,-443"/>
<text text-anchor="start" x="496.919" y="-631" font-family="Helvetica,sans-Serif" font-size="10.00">o2::header::Descriptor</text>
<text text-anchor="middle" x="571.919" y="-620" font-family="Helvetica,sans-Serif" font-size="10.00">&lt; gSizeHeaderDescriptionString &gt;</text>
<polyline fill="none" stroke="black" points="488.919,-613 654.919,-613 "/>
<text text-anchor="middle" x="571.919" y="-601" font-family="Helvetica,sans-Serif" font-size="10.00"> </text>
<polyline fill="none" stroke="black" points="488.919,-594 654.919,-594 "/>
<text text-anchor="start" x="496.919" y="-582" font-family="Helvetica,sans-Serif" font-size="10.00">+ Descriptor()</text>
<text text-anchor="start" x="496.919" y="-571" font-family="Helvetica,sans-Serif" font-size="10.00">+ Descriptor()</text>
<text text-anchor="start" x="496.919" y="-560" font-family="Helvetica,sans-Serif" font-size="10.00">+ Descriptor()</text>
<text text-anchor="start" x="496.919" y="-549" font-family="Helvetica,sans-Serif" font-size="10.00">+ Descriptor()</text>
<text text-anchor="start" x="496.919" y="-538" font-family="Helvetica,sans-Serif" font-size="10.00">+ operator=()</text>
<text text-anchor="start" x="496.919" y="-527" font-family="Helvetica,sans-Serif" font-size="10.00">+ operator ItgType()</text>
<text text-anchor="start" x="496.919" y="-516" font-family="Helvetica,sans-Serif" font-size="10.00">+ runtimeInit()</text>
<text text-anchor="start" x="496.919" y="-505" font-family="Helvetica,sans-Serif" font-size="10.00">+ operator==()</text>
<text text-anchor="start" x="496.919" y="-494" font-family="Helvetica,sans-Serif" font-size="10.00">+ operator==()</text>
<text text-anchor="start" x="496.919" y="-483" font-family="Helvetica,sans-Serif" font-size="10.00">+ operator!=()</text>
<text text-anchor="start" x="496.919" y="-472" font-family="Helvetica,sans-Serif" font-size="10.00">+ operator!=()</text>
<text text-anchor="start" x="496.919" y="-461" font-family="Helvetica,sans-Serif" font-size="10.00">+ as()</text>
<text text-anchor="start" x="496.919" y="-450" font-family="Helvetica,sans-Serif" font-size="10.00">+ print()</text>
</a>
</g>
</g>
<!-- Node3&#45;&gt;Node2 -->
<g id="edge2" class="edge"><title>Node3&#45;&gt;Node2</title>
<path fill="none" stroke="#404040" d="M590.722,-442.613C597.658,-405.955 605.44,-364.821 612.086,-329.689"/>
<polygon fill="none" stroke="#404040" points="612.156,-329.32 609.341,-322.681 614.387,-317.529 617.202,-324.168 612.156,-329.32"/>
<text text-anchor="middle" x="638.419" y="-377.5" font-family="Helvetica,sans-Serif" font-size="10.00"> +description</text>
</g>
<!-- Node4 -->
<g id="node4" class="node"><title>Node4</title>
<polygon fill="none" stroke="#bfbfbf" points="223.919,-975.5 223.919,-1032.5 261.919,-1032.5 261.919,-975.5 223.919,-975.5"/>
<text text-anchor="middle" x="242.919" y="-1020.5" font-family="Helvetica,sans-Serif" font-size="10.00">Type</text>
<polyline fill="none" stroke="#bfbfbf" points="223.919,-1013.5 261.919,-1013.5 "/>
<text text-anchor="middle" x="242.919" y="-1001.5" font-family="Helvetica,sans-Serif" font-size="10.00"> </text>
<polyline fill="none" stroke="#bfbfbf" points="223.919,-994.5 261.919,-994.5 "/>
<text text-anchor="middle" x="242.919" y="-982.5" font-family="Helvetica,sans-Serif" font-size="10.00"> </text>
</g>
<!-- Node4&#45;&gt;Node3 -->
<g id="edge3" class="edge"><title>Node4&#45;&gt;Node3</title>
<path fill="none" stroke="#404040" d="M262.255,-995.503C279.325,-989.102 304.992,-980.004 327.919,-974 370.336,-962.892 395.015,-988.068 424.919,-956 502.41,-872.902 379.02,-787.441 453.919,-702 475.663,-677.196 501.766,-706.463 525.919,-684 535.005,-675.55 542.3,-665.276 548.155,-654.174"/>
<polygon fill="none" stroke="#404040" points="548.172,-654.138 547.146,-647.001 553.34,-643.308 554.366,-650.446 548.172,-654.138"/>
<text text-anchor="middle" x="463.919" y="-800.5" font-family="Helvetica,sans-Serif" font-size="10.00"> +itg</text>
</g>
<!-- Node8 -->
<g id="node8" class="node"><title>Node8</title>
<g id="a_node8"><a xlink:href="../../d9/db3/structo2_1_1header_1_1Descriptor.html" target="_top" xlink:title="{o2::header::Descriptor\l\&lt; N, PrinterPolicy \&gt;\n||+ Descriptor()\l+ Descriptor()\l+ Descriptor()\l+ operator=()\l+ operator ItgType()\l+ Descriptor()\l+ runtimeInit()\l+ operator==()\l+ operator!=()\l+ operator==()\l+ operator!=()\l+ as()\l+ print()\l}">
<polygon fill="none" stroke="black" points="202.419,-703 202.419,-903 315.419,-903 315.419,-703 202.419,-703"/>
<text text-anchor="start" x="210.419" y="-891" font-family="Helvetica,sans-Serif" font-size="10.00">o2::header::Descriptor</text>
<text text-anchor="middle" x="258.919" y="-880" font-family="Helvetica,sans-Serif" font-size="10.00">&lt; N, PrinterPolicy &gt;</text>
<polyline fill="none" stroke="black" points="202.419,-873 315.419,-873 "/>
<text text-anchor="middle" x="258.919" y="-861" font-family="Helvetica,sans-Serif" font-size="10.00"> </text>
<polyline fill="none" stroke="black" points="202.419,-854 315.419,-854 "/>
<text text-anchor="start" x="210.419" y="-842" font-family="Helvetica,sans-Serif" font-size="10.00">+ Descriptor()</text>
<text text-anchor="start" x="210.419" y="-831" font-family="Helvetica,sans-Serif" font-size="10.00">+ Descriptor()</text>
<text text-anchor="start" x="210.419" y="-820" font-family="Helvetica,sans-Serif" font-size="10.00">+ Descriptor()</text>
<text text-anchor="start" x="210.419" y="-809" font-family="Helvetica,sans-Serif" font-size="10.00">+ operator=()</text>
<text text-anchor="start" x="210.419" y="-798" font-family="Helvetica,sans-Serif" font-size="10.00">+ operator ItgType()</text>
<text text-anchor="start" x="210.419" y="-787" font-family="Helvetica,sans-Serif" font-size="10.00">+ Descriptor()</text>
<text text-anchor="start" x="210.419" y="-776" font-family="Helvetica,sans-Serif" font-size="10.00">+ runtimeInit()</text>
<text text-anchor="start" x="210.419" y="-765" font-family="Helvetica,sans-Serif" font-size="10.00">+ operator==()</text>
<text text-anchor="start" x="210.419" y="-754" font-family="Helvetica,sans-Serif" font-size="10.00">+ operator!=()</text>
<text text-anchor="start" x="210.419" y="-743" font-family="Helvetica,sans-Serif" font-size="10.00">+ operator==()</text>
<text text-anchor="start" x="210.419" y="-732" font-family="Helvetica,sans-Serif" font-size="10.00">+ operator!=()</text>
<text text-anchor="start" x="210.419" y="-721" font-family="Helvetica,sans-Serif" font-size="10.00">+ as()</text>
<text text-anchor="start" x="210.419" y="-710" font-family="Helvetica,sans-Serif" font-size="10.00">+ print()</text>
</a>
</g>
</g>
<!-- Node4&#45;&gt;Node8 -->
<g id="edge8" class="edge"><title>Node4&#45;&gt;Node8</title>
<path fill="none" stroke="#404040" d="M242.48,-975.227C242.429,-959.576 242.691,-939.677 243.919,-922 244.074,-919.779 244.242,-917.536 244.422,-915.276"/>
<polygon fill="none" stroke="#404040" points="244.444,-915.022 240.984,-908.695 245.493,-903.068 248.953,-909.395 244.444,-915.022"/>
<text text-anchor="middle" x="253.919" y="-936.5" font-family="Helvetica,sans-Serif" font-size="10.00"> +itg</text>
</g>
<!-- Node10 -->
<g id="node10" class="node"><title>Node10</title>
<g id="a_node10"><a xlink:href="../../d9/db3/structo2_1_1header_1_1Descriptor.html" target="_top" xlink:title="{o2::header::Descriptor\l\&lt; gSizeSerializationMethodString \&gt;\n||+ Descriptor()\l+ Descriptor()\l+ Descriptor()\l+ Descriptor()\l+ operator=()\l+ operator ItgType()\l+ runtimeInit()\l+ operator==()\l+ operator==()\l+ operator!=()\l+ operator!=()\l+ as()\l+ print()\l}">
<polygon fill="none" stroke="black" points="167.919,-443 167.919,-643 337.919,-643 337.919,-443 167.919,-443"/>
<text text-anchor="start" x="175.919" y="-631" font-family="Helvetica,sans-Serif" font-size="10.00">o2::header::Descriptor</text>
<text text-anchor="middle" x="252.919" y="-620" font-family="Helvetica,sans-Serif" font-size="10.00">&lt; gSizeSerializationMethodString &gt;</text>
<polyline fill="none" stroke="black" points="167.919,-613 337.919,-613 "/>
<text text-anchor="middle" x="252.919" y="-601" font-family="Helvetica,sans-Serif" font-size="10.00"> </text>
<polyline fill="none" stroke="black" points="167.919,-594 337.919,-594 "/>
<text text-anchor="start" x="175.919" y="-582" font-family="Helvetica,sans-Serif" font-size="10.00">+ Descriptor()</text>
<text text-anchor="start" x="175.919" y="-571" font-family="Helvetica,sans-Serif" font-size="10.00">+ Descriptor()</text>
<text text-anchor="start" x="175.919" y="-560" font-family="Helvetica,sans-Serif" font-size="10.00">+ Descriptor()</text>
<text text-anchor="start" x="175.919" y="-549" font-family="Helvetica,sans-Serif" font-size="10.00">+ Descriptor()</text>
<text text-anchor="start" x="175.919" y="-538" font-family="Helvetica,sans-Serif" font-size="10.00">+ operator=()</text>
<text text-anchor="start" x="175.919" y="-527" font-family="Helvetica,sans-Serif" font-size="10.00">+ operator ItgType()</text>
<text text-anchor="start" x="175.919" y="-516" font-family="Helvetica,sans-Serif" font-size="10.00">+ runtimeInit()</text>
<text text-anchor="start" x="175.919" y="-505" font-family="Helvetica,sans-Serif" font-size="10.00">+ operator==()</text>
<text text-anchor="start" x="175.919" y="-494" font-family="Helvetica,sans-Serif" font-size="10.00">+ operator==()</text>
<text text-anchor="start" x="175.919" y="-483" font-family="Helvetica,sans-Serif" font-size="10.00">+ operator!=()</text>
<text text-anchor="start" x="175.919" y="-472" font-family="Helvetica,sans-Serif" font-size="10.00">+ operator!=()</text>
<text text-anchor="start" x="175.919" y="-461" font-family="Helvetica,sans-Serif" font-size="10.00">+ as()</text>
<text text-anchor="start" x="175.919" y="-450" font-family="Helvetica,sans-Serif" font-size="10.00">+ print()</text>
</a>
</g>
</g>
<!-- Node4&#45;&gt;Node10 -->
<g id="edge17" class="edge"><title>Node4&#45;&gt;Node10</title>
<path fill="none" stroke="#404040" d="M223.752,-994.667C208.562,-986.972 188.235,-974.004 177.919,-956 153.154,-912.777 136.162,-855.968 172.919,-702 176.711,-686.117 182.373,-670.024 188.965,-654.492"/>
<polygon fill="none" stroke="#404040" points="189.064,-654.267 187.832,-647.162 193.917,-643.292 195.149,-650.397 189.064,-654.267"/>
<text text-anchor="middle" x="182.919" y="-800.5" font-family="Helvetica,sans-Serif" font-size="10.00"> +itg</text>
</g>
<!-- Node5 -->
<g id="node5" class="node"><title>Node5</title>
<polygon fill="none" stroke="#bfbfbf" points="628.419,-975 628.419,-1033 657.419,-1033 657.419,-975 628.419,-975"/>
<polyline fill="none" stroke="#bfbfbf" points="628.419,-1013 657.419,-1013 "/>
<text text-anchor="middle" x="642.919" y="-1001" font-family="Helvetica,sans-Serif" font-size="10.00"> </text>
<polyline fill="none" stroke="#bfbfbf" points="628.419,-994 657.419,-994 "/>
<text text-anchor="middle" x="642.919" y="-982" font-family="Helvetica,sans-Serif" font-size="10.00"> </text>
</g>
<!-- Node5&#45;&gt;Node2 -->
<g id="edge12" class="edge"><title>Node5&#45;&gt;Node2</title>
<path fill="none" stroke="#404040" d="M651.27,-974.704C656.626,-955.064 663.088,-928.185 665.919,-904 690.722,-692.109 668.253,-637.336 668.919,-424 669.041,-384.889 677.215,-374.221 668.919,-336 668.421,-333.703 667.858,-331.395 667.24,-329.083"/>
<polygon fill="none" stroke="#404040" points="667.217,-329.006 661.644,-324.43 663.725,-317.525 669.298,-322.102 667.217,-329.006"/>
<text text-anchor="middle" x="693.419" y="-670.5" font-family="Helvetica,sans-Serif" font-size="10.00"> +@11</text>
</g>
<!-- Node5&#45;&gt;Node2 -->
<g id="edge14" class="edge"><title>Node5&#45;&gt;Node2</title>
<path fill="none" stroke="#404040" d="M657.534,-984.219C663.364,-975.95 669.683,-965.883 673.919,-956 701.148,-892.474 706.444,-789.92 712.919,-684 722.388,-529.123 734.484,-483.037 684.919,-336 684.112,-333.604 683.228,-331.207 682.278,-328.816"/>
<polygon fill="none" stroke="#404040" points="682.22,-328.684 676.144,-324.801 677.391,-317.699 683.467,-321.582 682.22,-328.684"/>
<text text-anchor="middle" x="730.419" y="-670.5" font-family="Helvetica,sans-Serif" font-size="10.00"> +@13</text>
</g>
<!-- Node5&#45;&gt;Node3 -->
<g id="edge4" class="edge"><title>Node5&#45;&gt;Node3</title>
<path fill="none" stroke="#404040" d="M641.701,-974.822C638.724,-916.037 629.361,-776.292 603.919,-662 603.409,-659.708 602.883,-657.394 602.344,-655.063"/>
<polygon fill="none" stroke="#404040" points="602.324,-654.981 597.044,-650.069 599.547,-643.307 604.827,-648.218 602.324,-654.981"/>
<text text-anchor="middle" x="649.419" y="-800.5" font-family="Helvetica,sans-Serif" font-size="10.00"> +@9</text>
</g>
<!-- Node5&#45;&gt;Node8 -->
<g id="edge9" class="edge"><title>Node5&#45;&gt;Node8</title>
<path fill="none" stroke="#404040" d="M628.368,-1001.68C580.982,-996.754 428.481,-975.842 329.919,-904 328.204,-902.75 326.515,-901.445 324.852,-900.093"/>
<polygon fill="none" stroke="#404040" points="324.578,-899.849 317.438,-898.841 315.622,-891.862 322.763,-892.87 324.578,-899.849"/>
<text text-anchor="middle" x="437.419" y="-936.5" font-family="Helvetica,sans-Serif" font-size="10.00"> +@9</text>
</g>
<!-- Node5&#45;&gt;Node10 -->
<g id="edge18" class="edge"><title>Node5&#45;&gt;Node10</title>
<path fill="none" stroke="#404040" d="M628.339,-984.103C614.442,-965.014 594.163,-934.119 583.919,-904 548.434,-799.669 625.938,-716.08 529.919,-662 462.416,-623.981 424.589,-674.522 349.453,-643.774"/>
<polygon fill="none" stroke="#404040" points="349.019,-643.578 341.904,-644.747 338.088,-638.628 345.204,-637.459 349.019,-643.578"/>
<text text-anchor="middle" x="596.419" y="-800.5" font-family="Helvetica,sans-Serif" font-size="10.00"> +@9</text>
</g>
<!-- Node6 -->
<g id="node6" class="node"><title>Node6</title>
<polygon fill="none" stroke="#bfbfbf" points="60.4193,-975.5 60.4193,-1032.5 95.4193,-1032.5 95.4193,-975.5 60.4193,-975.5"/>
<text text-anchor="middle" x="77.9193" y="-1020.5" font-family="Helvetica,sans-Serif" font-size="10.00">char</text>
<polyline fill="none" stroke="#bfbfbf" points="60.4193,-1013.5 95.4193,-1013.5 "/>
<text text-anchor="middle" x="77.9193" y="-1001.5" font-family="Helvetica,sans-Serif" font-size="10.00"> </text>
<polyline fill="none" stroke="#bfbfbf" points="60.4193,-994.5 95.4193,-994.5 "/>
<text text-anchor="middle" x="77.9193" y="-982.5" font-family="Helvetica,sans-Serif" font-size="10.00"> </text>
</g>
<!-- Node6&#45;&gt;Node2 -->
<g id="edge15" class="edge"><title>Node6&#45;&gt;Node2</title>
<path fill="none" stroke="#404040" d="M60.2619,-977.38C56.1344,-970.633 52.0382,-963.217 48.9193,-956 39.4246,-934.03 39.2355,-927.542 34.9193,-904 15.4428,-797.772 -18.2686,-765.398 12.9193,-662 46.8075,-549.649 87.1263,-534.827 158.919,-442 197.622,-391.958 199.597,-368.423 253.919,-336 260.459,-332.097 447.681,-288.035 554.695,-263.044"/>
<polygon fill="none" stroke="#404040" points="555.009,-262.971 559.943,-257.712 566.695,-260.243 561.761,-265.502 555.009,-262.971"/>
<text text-anchor="middle" x="43.4193" y="-670.5" font-family="Helvetica,sans-Serif" font-size="10.00"> +magicString</text>
</g>
<!-- Node6&#45;&gt;Node3 -->
<g id="edge5" class="edge"><title>Node6&#45;&gt;Node3</title>
<path fill="none" stroke="#404040" d="M80.9765,-975.296C88.9322,-905.043 110.781,-723.937 126.919,-702 190.153,-616.045 402.013,-665.77 477.221,-645.648"/>
<polygon fill="none" stroke="#404040" points="477.57,-645.521 481.839,-639.709 488.846,-641.415 484.577,-647.226 477.57,-645.521"/>
<text text-anchor="middle" x="137.419" y="-800.5" font-family="Helvetica,sans-Serif" font-size="10.00"> +str</text>
</g>
<!-- Node6&#45;&gt;Node8 -->
<g id="edge10" class="edge"><title>Node6&#45;&gt;Node8</title>
<path fill="none" stroke="#404040" d="M95.7869,-988.995C118.514,-970.733 158.354,-937.19 187.919,-904 190.21,-901.429 192.494,-898.783 194.764,-896.084"/>
<polygon fill="none" stroke="#404040" points="194.82,-896.014 195.52,-888.837 202.414,-886.722 201.714,-893.899 194.82,-896.014"/>
<text text-anchor="middle" x="179.419" y="-936.5" font-family="Helvetica,sans-Serif" font-size="10.00"> +str</text>
</g>
<!-- Node6&#45;&gt;Node10 -->
<g id="edge19" class="edge"><title>Node6&#45;&gt;Node10</title>
<path fill="none" stroke="#404040" d="M67.5956,-975.13C48.7706,-919.328 15.087,-791.564 63.9193,-702 86.6988,-660.22 116.96,-673.975 153.919,-644 155.517,-642.704 157.117,-641.385 158.717,-640.046"/>
<polygon fill="none" stroke="#404040" points="158.77,-640.001 160.713,-633.056 167.87,-632.178 165.928,-639.123 158.77,-640.001"/>
<text text-anchor="middle" x="74.4193" y="-800.5" font-family="Helvetica,sans-Serif" font-size="10.00"> +str</text>
</g>
<!-- Node7 -->
<g id="node7" class="node"><title>Node7</title>
<polygon fill="none" stroke="#bfbfbf" points="337.419,-975.5 337.419,-1032.5 366.419,-1032.5 366.419,-975.5 337.419,-975.5"/>
<text text-anchor="middle" x="351.919" y="-1020.5" font-family="Helvetica,sans-Serif" font-size="10.00">int</text>
<polyline fill="none" stroke="#bfbfbf" points="337.419,-1013.5 366.419,-1013.5 "/>
<text text-anchor="middle" x="351.919" y="-1001.5" font-family="Helvetica,sans-Serif" font-size="10.00"> </text>
<polyline fill="none" stroke="#bfbfbf" points="337.419,-994.5 366.419,-994.5 "/>
<text text-anchor="middle" x="351.919" y="-982.5" font-family="Helvetica,sans-Serif" font-size="10.00"> </text>
</g>
<!-- Node7&#45;&gt;Node3 -->
<g id="edge6" class="edge"><title>Node7&#45;&gt;Node3</title>
<path fill="none" stroke="#404040" d="M366.471,-1000.45C388.677,-995.761 430.771,-983.606 452.919,-956 525.259,-865.832 434.126,-790.144 508.919,-702 522.856,-685.575 540.728,-701.029 553.919,-684 560.697,-675.25 565.644,-665.23 569.194,-654.661"/>
<polygon fill="none" stroke="#404040" points="569.226,-654.549 567.026,-647.682 572.519,-643.01 574.719,-649.878 569.226,-654.549"/>
<text text-anchor="middle" x="534.419" y="-811.5" font-family="Helvetica,sans-Serif" font-size="10.00"> +arraySize</text>
<text text-anchor="middle" x="534.419" y="-800.5" font-family="Helvetica,sans-Serif" font-size="10.00">+size</text>
<text text-anchor="middle" x="534.419" y="-789.5" font-family="Helvetica,sans-Serif" font-size="10.00">+bitcount</text>
</g>
<!-- Node7&#45;&gt;Node8 -->
<g id="edge11" class="edge"><title>Node7&#45;&gt;Node8</title>
<path fill="none" stroke="#404040" d="M337.217,-996.496C322.08,-988.997 299.043,-975.19 286.919,-956 279.06,-943.56 273.283,-929.474 269.056,-915.019"/>
<polygon fill="none" stroke="#404040" points="269.045,-914.976 263.649,-910.192 265.989,-903.371 271.385,-908.155 269.045,-914.976"/>
<text text-anchor="middle" x="312.419" y="-947.5" font-family="Helvetica,sans-Serif" font-size="10.00"> +arraySize</text>
<text text-anchor="middle" x="312.419" y="-936.5" font-family="Helvetica,sans-Serif" font-size="10.00">+size</text>
<text text-anchor="middle" x="312.419" y="-925.5" font-family="Helvetica,sans-Serif" font-size="10.00">+bitcount</text>
</g>
<!-- Node7&#45;&gt;Node10 -->
<g id="edge20" class="edge"><title>Node7&#45;&gt;Node10</title>
<path fill="none" stroke="#404040" d="M355.58,-975.076C362.302,-915.601 372.695,-772.806 334.919,-662 334.036,-659.41 333.078,-656.825 332.054,-654.25"/>
<polygon fill="none" stroke="#404040" points="331.959,-654.032 325.892,-650.134 327.158,-643.035 333.224,-646.933 331.959,-654.032"/>
<text text-anchor="middle" x="388.419" y="-811.5" font-family="Helvetica,sans-Serif" font-size="10.00"> +arraySize</text>
<text text-anchor="middle" x="388.419" y="-800.5" font-family="Helvetica,sans-Serif" font-size="10.00">+size</text>
<text text-anchor="middle" x="388.419" y="-789.5" font-family="Helvetica,sans-Serif" font-size="10.00">+bitcount</text>
</g>
<!-- Node8&#45;&gt;Node1 -->
<g id="edge25" class="edge"><title>Node8&#45;&gt;Node1</title>
<path fill="none" stroke="#404040" d="M202.416,-710.655C200.567,-707.733 198.731,-704.842 196.919,-702 180.354,-676.013 167.732,-673.531 158.919,-644 119.625,-512.324 98.0486,-441.647 185.919,-336 319.411,-175.503 565.847,-102.892 698.237,-74.1908"/>
<polygon fill="none" stroke="#404040" points="698.557,-74.1229 703.595,-68.9636 710.295,-71.6298 705.257,-76.7891 698.557,-74.1229"/>
<text text-anchor="middle" x="219.919" y="-377.5" font-family="Helvetica,sans-Serif" font-size="10.00"> +sHeaderType</text>
</g>
<!-- Node8&#45;&gt;Node2 -->
<g id="edge22" class="edge"><title>Node8&#45;&gt;Node2</title>
<path fill="none" stroke="#404040" d="M315.485,-728.062C324.362,-713.979 332.657,-698.953 338.919,-684 381.146,-583.166 327.07,-535.976 382.919,-442 424.16,-372.604 499.759,-317.87 556.114,-284.079"/>
<polygon fill="none" stroke="#404040" points="556.417,-283.9 559.556,-277.408 566.756,-277.808 563.617,-284.3 556.417,-283.9"/>
<text text-anchor="middle" x="431.419" y="-546" font-family="Helvetica,sans-Serif" font-size="10.00"> +sHeaderType</text>
<text text-anchor="middle" x="431.419" y="-535" font-family="Helvetica,sans-Serif" font-size="10.00">+sSerializationMethod</text>
</g>
<!-- Node8&#45;&gt;Node3 -->
<g id="edge7" class="edge"><title>Node8&#45;&gt;Node3</title>
<path fill="none" stroke="orange" d="M323.071,-707.433C325.306,-705.533 327.589,-703.717 329.919,-702 350.628,-686.747 362.855,-697.218 384.919,-684 397.054,-676.73 395.593,-668.94 407.919,-662 434.787,-646.872 448.34,-659.628 474.919,-644 479.61,-641.242 484.226,-638.196 488.744,-634.934"/>
<polygon fill="orange" stroke="orange" points="320.689,-704.869 315.665,-714.197 325.41,-710.038 320.689,-704.869"/>
<text text-anchor="start" x="407.919" y="-676" font-family="Helvetica,sans-Serif" font-size="10.00"> &lt; gSizeHeaderDescription</text>
<text text-anchor="middle" x="466.919" y="-665" font-family="Helvetica,sans-Serif" font-size="10.00">String &gt;</text>
</g>
<!-- Node8&#45;&gt;Node10 -->
<g id="edge21" class="edge"><title>Node8&#45;&gt;Node10</title>
<path fill="none" stroke="orange" d="M213.786,-692.728C213.099,-689.806 212.474,-686.893 211.919,-684 209.367,-670.693 209.672,-656.833 211.751,-643.234"/>
<polygon fill="orange" stroke="orange" points="210.465,-693.869 216.342,-702.685 217.245,-692.129 210.465,-693.869"/>
<text text-anchor="start" x="211.919" y="-676" font-family="Helvetica,sans-Serif" font-size="10.00"> &lt; gSizeSerializationMethod</text>
<text text-anchor="middle" x="273.419" y="-665" font-family="Helvetica,sans-Serif" font-size="10.00">String &gt;</text>
</g>
<!-- Node9 -->
<g id="node9" class="node"><title>Node9</title>
<polygon fill="none" stroke="#bfbfbf" points="786.419,-514.5 786.419,-571.5 837.419,-571.5 837.419,-514.5 786.419,-514.5"/>
<text text-anchor="middle" x="811.919" y="-559.5" font-family="Helvetica,sans-Serif" font-size="10.00">uint32_t</text>
<polyline fill="none" stroke="#bfbfbf" points="786.419,-552.5 837.419,-552.5 "/>
<text text-anchor="middle" x="811.919" y="-540.5" font-family="Helvetica,sans-Serif" font-size="10.00"> </text>
<polyline fill="none" stroke="#bfbfbf" points="786.419,-533.5 837.419,-533.5 "/>
<text text-anchor="middle" x="811.919" y="-521.5" font-family="Helvetica,sans-Serif" font-size="10.00"> </text>
</g>
<!-- Node9&#45;&gt;Node1 -->
<g id="edge23" class="edge"><title>Node9&#45;&gt;Node1</title>
<path fill="none" stroke="#404040" d="M816.725,-514.45C820.628,-490.604 825.817,-455.146 827.919,-424 834.993,-319.185 816.498,-198.102 802.348,-124.839"/>
<polygon fill="none" stroke="#404040" points="802.347,-124.833 797.264,-119.718 800.031,-113.059 805.114,-118.174 802.347,-124.833"/>
<text text-anchor="middle" x="851.919" y="-242.5" font-family="Helvetica,sans-Serif" font-size="10.00"> +sVersion</text>
</g>
<!-- Node9&#45;&gt;Node2 -->
<g id="edge13" class="edge"><title>Node9&#45;&gt;Node2</title>
<path fill="none" stroke="#404040" d="M794.412,-514.315C780.267,-490.97 760.68,-456.295 747.919,-424 733.064,-386.404 745.676,-370.689 724.919,-336 717.547,-323.679 707.993,-312.01 697.761,-301.409"/>
<polygon fill="none" stroke="#404040" points="697.563,-301.213 690.486,-299.829 689.041,-292.764 696.118,-294.148 697.563,-301.213"/>
<text text-anchor="middle" x="787.919" y="-416" font-family="Helvetica,sans-Serif" font-size="10.00"> +headerVersion</text>
<text text-anchor="middle" x="787.919" y="-405" font-family="Helvetica,sans-Serif" font-size="10.00">+headerSize</text>
<text text-anchor="middle" x="787.919" y="-394" font-family="Helvetica,sans-Serif" font-size="10.00">+sMagicString</text>
<text text-anchor="middle" x="787.919" y="-383" font-family="Helvetica,sans-Serif" font-size="10.00">+flagsNextHeader</text>
<text text-anchor="middle" x="787.919" y="-372" font-family="Helvetica,sans-Serif" font-size="10.00">+magicStringInt</text>
<text text-anchor="middle" x="787.919" y="-361" font-family="Helvetica,sans-Serif" font-size="10.00">+flagsUnused</text>
<text text-anchor="middle" x="787.919" y="-350" font-family="Helvetica,sans-Serif" font-size="10.00">+flags</text>
<text text-anchor="middle" x="787.919" y="-339" font-family="Helvetica,sans-Serif" font-size="10.00">+sVersion</text>
</g>
<!-- Node10&#45;&gt;Node2 -->
<g id="edge16" class="edge"><title>Node10&#45;&gt;Node2</title>
<path fill="none" stroke="#404040" d="M253.989,-442.98C259.323,-405.207 271.794,-364.44 298.919,-336 333.868,-299.357 468.954,-271.506 554.785,-257.054"/>
<polygon fill="none" stroke="#404040" points="554.975,-257.023 560.24,-252.096 566.813,-255.062 561.548,-259.988 554.975,-257.023"/>
<text text-anchor="middle" x="329.419" y="-377.5" font-family="Helvetica,sans-Serif" font-size="10.00"> +serialization</text>
</g>
<!-- Node11 -->
<g id="node11" class="node"><title>Node11</title>
<polygon fill="none" stroke="#bfbfbf" points="908.419,-216.5 908.419,-273.5 959.419,-273.5 959.419,-216.5 908.419,-216.5"/>
<text text-anchor="middle" x="933.919" y="-261.5" font-family="Helvetica,sans-Serif" font-size="10.00">uint64_t</text>
<polyline fill="none" stroke="#bfbfbf" points="908.419,-254.5 959.419,-254.5 "/>
<text text-anchor="middle" x="933.919" y="-242.5" font-family="Helvetica,sans-Serif" font-size="10.00"> </text>
<polyline fill="none" stroke="#bfbfbf" points="908.419,-235.5 959.419,-235.5 "/>
<text text-anchor="middle" x="933.919" y="-223.5" font-family="Helvetica,sans-Serif" font-size="10.00"> </text>
</g>
<!-- Node11&#45;&gt;Node1 -->
<g id="edge24" class="edge"><title>Node11&#45;&gt;Node1</title>
<path fill="none" stroke="#404040" d="M920.583,-216.385C913.421,-202.573 904.002,-185.885 893.919,-172 881.574,-154.999 866.951,-137.811 852.573,-122.117"/>
<polygon fill="none" stroke="#404040" points="852.325,-121.85 845.31,-120.179 844.154,-113.062 851.169,-114.732 852.325,-121.85"/>
<text text-anchor="middle" x="902.919" y="-146" font-family="Helvetica,sans-Serif" font-size="10.00"> +duration</text>
<text text-anchor="middle" x="902.919" y="-135" font-family="Helvetica,sans-Serif" font-size="10.00">+startTime</text>
</g>
</g>
</svg>
        <g id="navigator" transform="translate(0 0)" fill="#404254">
                <rect fill="#f2f5e9" fill-opacity="0.5" stroke="#606060" stroke-width=".5" x="0" y="0" width="60" height="60"/>
                <use id="zoomplus" xlink:href="#zoomPlus" x="17" y="9" onmousedown="handleZoom(evt,'in')"/>
                <use id="zoomminus" xlink:href="#zoomMin" x="42" y="9" onmousedown="handleZoom(evt,'out')"/>
                <use id="reset" xlink:href="#resetDef" x="30" y="36" onmousedown="handleReset()"/>
                <g id="arrowUp" xlink:href="#dirArrow" transform="translate(30 24)" onmousedown="handlePan(0,-1)">
                  <use xlink:href="#rim" fill="#404040">
                        <set attributeName="fill" to="#808080" begin="arrowUp.mouseover" end="arrowUp.mouseout"/>
                  </use>
                  <path fill="none" stroke="white" stroke-width="1.5" d="M0,-3.0v7 M-2.5,-0.5L0,-3.0L2.5,-0.5"/>
                </g>
                <g id="arrowRight" xlink:href="#dirArrow" transform="rotate(90) translate(36 -43)" onmousedown="handlePan(1,0)">
                  <use xlink:href="#rim" fill="#404040">
                        <set attributeName="fill" to="#808080" begin="arrowRight.mouseover" end="arrowRight.mouseout"/>
                  </use>
                  <path fill="none" stroke="white" stroke-width="1.5" d="M0,-3.0v7 M-2.5,-0.5L0,-3.0L2.5,-0.5"/>
                </g>
                <g id="arrowDown" xlink:href="#dirArrow" transform="rotate(180) translate(-30 -48)" onmousedown="handlePan(0,1)">
                  <use xlink:href="#rim" fill="#404040">
                        <set attributeName="fill" to="#808080" begin="arrowDown.mouseover" end="arrowDown.mouseout"/>
                  </use>
                  <path fill="none" stroke="white" stroke-width="1.5" d="M0,-3.0v7 M-2.5,-0.5L0,-3.0L2.5,-0.5"/>
                </g>
                <g id="arrowLeft" xlink:href="#dirArrow" transform="rotate(270) translate(-36 17)" onmousedown="handlePan(-1,0)">
                  <use xlink:href="#rim" fill="#404040">
                        <set attributeName="fill" to="#808080" begin="arrowLeft.mouseover" end="arrowLeft.mouseout"/>
                  </use>
                  <path fill="none" stroke="white" stroke-width="1.5" d="M0,-3.0v7 M-2.5,-0.5L0,-3.0L2.5,-0.5"/>
                </g>
        </g>
        <svg viewBox="0 0 15 15" width="100%" height="30px" preserveAspectRatio="xMaxYMin meet">
         <g id="arrow_out" transform="scale(0.3 0.3)">
          <a xlink:href="structo2_1_1framework_1_1DataProcessingHeader__coll__graph_org.svg" target="_base">
           <rect id="button" ry="5" rx="5" y="6" x="6" height="38" width="38"
                fill="#f2f5e9" fill-opacity="0.5" stroke="#606060" stroke-width="1.0"/>
           <path id="arrow"
             d="M 11.500037,31.436501 C 11.940474,20.09759 22.043105,11.32322 32.158766,21.979434 L 37.068811,17.246167 C 37.068811,17.246167 37.088388,32 37.088388,32 L 22.160133,31.978069 C 22.160133,31.978069 26.997745,27.140456 26.997745,27.140456 C 18.528582,18.264221 13.291696,25.230495 11.500037,31.436501 z"
             style="fill:#404040;"/>
          </a>
         </g>
        </svg>
</svg>
