<?xml version="1.0" encoding="UTF-8" standalone="no"?>
<!DOCTYPE svg PUBLIC "-//W3C//DTD SVG 1.1//EN"
 "http://www.w3.org/Graphics/SVG/1.1/DTD/svg11.dtd">
<!-- Generated by graphviz version 2.36.0 (20140111.2315)
 -->
<!-- Title: /home/travis/build/AliceO2Group/AliceO2/DataFormats/simulation/include/SimulationDataFormat/MCInteractionRecord.h Pages: 1 -->
<svg width="1305pt" height="610pt"
 viewBox="0.00 0.00 1305.00 610.00" xmlns="http://www.w3.org/2000/svg" xmlns:xlink="http://www.w3.org/1999/xlink">
<g id="graph0" class="graph" transform="scale(1 1) rotate(0) translate(4 606)">
<title>/home/travis/build/AliceO2Group/AliceO2/DataFormats/simulation/include/SimulationDataFormat/MCInteractionRecord.h</title>
<!-- Node1 -->
<g id="node1" class="node"><title>Node1</title>
<polygon fill="#bfbfbf" stroke="black" points="899.5,-538.5 899.5,-601.5 1050.5,-601.5 1050.5,-538.5 899.5,-538.5"/>
<text text-anchor="start" x="907.5" y="-589.5" font-family="Helvetica,sans-Serif" font-size="10.00">/home/travis/build</text>
<text text-anchor="start" x="907.5" y="-578.5" font-family="Helvetica,sans-Serif" font-size="10.00">/AliceO2Group/AliceO2</text>
<text text-anchor="start" x="907.5" y="-567.5" font-family="Helvetica,sans-Serif" font-size="10.00">/DataFormats/simulation</text>
<text text-anchor="start" x="907.5" y="-556.5" font-family="Helvetica,sans-Serif" font-size="10.00">/include/SimulationDataFormat</text>
<text text-anchor="middle" x="975" y="-545.5" font-family="Helvetica,sans-Serif" font-size="10.00">/MCInteractionRecord.h</text>
</g>
<!-- Node2 -->
<g id="node2" class="node"><title>Node2</title>
<g id="a_node2"><a xlink:href="../../d9/dc4/MCInteractionRecord_8cxx.html" target="_top" xlink:title="/home/travis/build\l/AliceO2Group/AliceO2\l/DataFormats/simulation\l/src/MCInteractionRecord.cxx">
<polygon fill="none" stroke="black" points="733,-449 733,-501 881,-501 881,-449 733,-449"/>
<text text-anchor="start" x="741" y="-489" font-family="Helvetica,sans-Serif" font-size="10.00">/home/travis/build</text>
<text text-anchor="start" x="741" y="-478" font-family="Helvetica,sans-Serif" font-size="10.00">/AliceO2Group/AliceO2</text>
<text text-anchor="start" x="741" y="-467" font-family="Helvetica,sans-Serif" font-size="10.00">/DataFormats/simulation</text>
<text text-anchor="middle" x="807" y="-456" font-family="Helvetica,sans-Serif" font-size="10.00">/src/MCInteractionRecord.cxx</text>
</a>
</g>
</g>
<!-- Node1&#45;&gt;Node2 -->
<g id="edge1" class="edge"><title>Node1&#45;&gt;Node2</title>
<path fill="none" stroke="midnightblue" d="M910.705,-533.408C891.244,-522.635 870.288,-511.034 852.342,-501.1"/>
<polygon fill="midnightblue" stroke="midnightblue" points="909.081,-536.51 919.525,-538.291 912.471,-530.385 909.081,-536.51"/>
</g>
<!-- Node3 -->
<g id="node3" class="node"><title>Node3</title>
<g id="a_node3"><a xlink:href="../../df/dff/InteractionSampler_8h.html" target="_top" xlink:title="/home/travis/build\l/AliceO2Group/AliceO2\l/Steer/include/Steer/Interaction\lSampler.h">
<polygon fill="none" stroke="black" points="899,-449 899,-501 1051,-501 1051,-449 899,-449"/>
<text text-anchor="start" x="907" y="-489" font-family="Helvetica,sans-Serif" font-size="10.00">/home/travis/build</text>
<text text-anchor="start" x="907" y="-478" font-family="Helvetica,sans-Serif" font-size="10.00">/AliceO2Group/AliceO2</text>
<text text-anchor="start" x="907" y="-467" font-family="Helvetica,sans-Serif" font-size="10.00">/Steer/include/Steer/Interaction</text>
<text text-anchor="middle" x="975" y="-456" font-family="Helvetica,sans-Serif" font-size="10.00">Sampler.h</text>
</a>
</g>
</g>
<!-- Node1&#45;&gt;Node3 -->
<g id="edge2" class="edge"><title>Node1&#45;&gt;Node3</title>
<path fill="none" stroke="midnightblue" d="M975,-528.112C975,-518.917 975,-509.423 975,-501.1"/>
<polygon fill="midnightblue" stroke="midnightblue" points="971.5,-528.291 975,-538.291 978.5,-528.291 971.5,-528.291"/>
</g>
<!-- Node21 -->
<g id="node21" class="node"><title>Node21</title>
<g id="a_node21"><a xlink:href="../../d6/d9e/testInteractionSampler_8cxx.html" target="_top" xlink:title="/home/travis/build\l/AliceO2Group/AliceO2\l/Steer/test/testInteractionSampler.cxx">
<polygon fill="none" stroke="black" points="1115,-364.5 1115,-405.5 1297,-405.5 1297,-364.5 1115,-364.5"/>
<text text-anchor="start" x="1123" y="-393.5" font-family="Helvetica,sans-Serif" font-size="10.00">/home/travis/build</text>
<text text-anchor="start" x="1123" y="-382.5" font-family="Helvetica,sans-Serif" font-size="10.00">/AliceO2Group/AliceO2</text>
<text text-anchor="middle" x="1206" y="-371.5" font-family="Helvetica,sans-Serif" font-size="10.00">/Steer/test/testInteractionSampler.cxx</text>
</a>
</g>
</g>
<!-- Node1&#45;&gt;Node21 -->
<g id="edge27" class="edge"><title>Node1&#45;&gt;Node21</title>
<path fill="none" stroke="midnightblue" d="M1021.94,-532.057C1034.32,-522.293 1047.67,-511.757 1060,-502 1102.78,-468.149 1152.49,-428.605 1181.48,-405.527"/>
<polygon fill="midnightblue" stroke="midnightblue" points="1019.64,-529.407 1013.96,-538.345 1023.98,-534.905 1019.64,-529.407"/>
</g>
<!-- Node4 -->
<g id="node4" class="node"><title>Node4</title>
<g id="a_node4"><a xlink:href="../../db/d50/O2HitMerger_8h.html" target="_top" xlink:title="/home/travis/build\l/AliceO2Group/AliceO2\l/run/O2HitMerger.h">
<polygon fill="none" stroke="black" points="961,-364.5 961,-405.5 1079,-405.5 1079,-364.5 961,-364.5"/>
<text text-anchor="start" x="969" y="-393.5" font-family="Helvetica,sans-Serif" font-size="10.00">/home/travis/build</text>
<text text-anchor="start" x="969" y="-382.5" font-family="Helvetica,sans-Serif" font-size="10.00">/AliceO2Group/AliceO2</text>
<text text-anchor="middle" x="1020" y="-371.5" font-family="Helvetica,sans-Serif" font-size="10.00">/run/O2HitMerger.h</text>
</a>
</g>
</g>
<!-- Node3&#45;&gt;Node4 -->
<g id="edge3" class="edge"><title>Node3&#45;&gt;Node4</title>
<path fill="none" stroke="midnightblue" d="M992.618,-439.546C998.525,-427.996 1004.9,-415.524 1010.02,-405.525"/>
<polygon fill="midnightblue" stroke="midnightblue" points="989.453,-438.05 988.016,-448.547 995.685,-441.237 989.453,-438.05"/>
</g>
<!-- Node6 -->
<g id="node6" class="node"><title>Node6</title>
<g id="a_node6"><a xlink:href="../../d3/d87/CollisionTimePrinter_8cxx.html" target="_top" xlink:title="/home/travis/build\l/AliceO2Group/AliceO2\l/Steer/DigitizerWorkflow\l/src/CollisionTimePrinter.cxx">
<polygon fill="none" stroke="black" points="806.5,-269 806.5,-321 949.5,-321 949.5,-269 806.5,-269"/>
<text text-anchor="start" x="814.5" y="-309" font-family="Helvetica,sans-Serif" font-size="10.00">/home/travis/build</text>
<text text-anchor="start" x="814.5" y="-298" font-family="Helvetica,sans-Serif" font-size="10.00">/AliceO2Group/AliceO2</text>
<text text-anchor="start" x="814.5" y="-287" font-family="Helvetica,sans-Serif" font-size="10.00">/Steer/DigitizerWorkflow</text>
<text text-anchor="middle" x="878" y="-276" font-family="Helvetica,sans-Serif" font-size="10.00">/src/CollisionTimePrinter.cxx</text>
</a>
</g>
</g>
<!-- Node3&#45;&gt;Node6 -->
<g id="edge6" class="edge"><title>Node3&#45;&gt;Node6</title>
<path fill="none" stroke="midnightblue" d="M956.822,-439.49C944.573,-416.361 927.979,-385.264 913,-358 906.334,-345.867 898.801,-332.483 892.437,-321.265"/>
<polygon fill="midnightblue" stroke="midnightblue" points="953.852,-441.361 961.622,-448.565 960.04,-438.089 953.852,-441.361"/>
</g>
<!-- Node7 -->
<g id="node7" class="node"><title>Node7</title>
<g id="a_node7"><a xlink:href="../../dd/d40/HitProcessingManager_8h.html" target="_top" xlink:title="/home/travis/build\l/AliceO2Group/AliceO2\l/Steer/include/Steer/HitProcessing\lManager.h">
<polygon fill="none" stroke="black" points="556.5,-359 556.5,-411 723.5,-411 723.5,-359 556.5,-359"/>
<text text-anchor="start" x="564.5" y="-399" font-family="Helvetica,sans-Serif" font-size="10.00">/home/travis/build</text>
<text text-anchor="start" x="564.5" y="-388" font-family="Helvetica,sans-Serif" font-size="10.00">/AliceO2Group/AliceO2</text>
<text text-anchor="start" x="564.5" y="-377" font-family="Helvetica,sans-Serif" font-size="10.00">/Steer/include/Steer/HitProcessing</text>
<text text-anchor="middle" x="640" y="-366" font-family="Helvetica,sans-Serif" font-size="10.00">Manager.h</text>
</a>
</g>
</g>
<!-- Node3&#45;&gt;Node7 -->
<g id="edge7" class="edge"><title>Node3&#45;&gt;Node7</title>
<path fill="none" stroke="midnightblue" d="M888.859,-447.771C818.712,-429.45 798.789,-429.035 732,-412 729.266,-411.303 726.489,-410.583 723.688,-409.848"/>
<polygon fill="midnightblue" stroke="midnightblue" points="888.058,-451.179 898.62,-450.35 889.846,-444.411 888.058,-451.179"/>
</g>
<!-- Node20 -->
<g id="node20" class="node"><title>Node20</title>
<g id="a_node20"><a xlink:href="../../de/d50/InteractionSampler_8cxx.html" target="_top" xlink:title="/home/travis/build\l/AliceO2Group/AliceO2\l/Steer/src/InteractionSampler.cxx">
<polygon fill="none" stroke="black" points="741.5,-364.5 741.5,-405.5 904.5,-405.5 904.5,-364.5 741.5,-364.5"/>
<text text-anchor="start" x="749.5" y="-393.5" font-family="Helvetica,sans-Serif" font-size="10.00">/home/travis/build</text>
<text text-anchor="start" x="749.5" y="-382.5" font-family="Helvetica,sans-Serif" font-size="10.00">/AliceO2Group/AliceO2</text>
<text text-anchor="middle" x="823" y="-371.5" font-family="Helvetica,sans-Serif" font-size="10.00">/Steer/src/InteractionSampler.cxx</text>
</a>
</g>
</g>
<!-- Node3&#45;&gt;Node20 -->
<g id="edge25" class="edge"><title>Node3&#45;&gt;Node20</title>
<path fill="none" stroke="midnightblue" d="M922.632,-443.682C900.868,-431.081 876.232,-416.819 856.903,-405.628"/>
<polygon fill="midnightblue" stroke="midnightblue" points="921.035,-446.801 931.443,-448.783 924.542,-440.743 921.035,-446.801"/>
</g>
<!-- Node3&#45;&gt;Node21 -->
<g id="edge26" class="edge"><title>Node3&#45;&gt;Node21</title>
<path fill="none" stroke="midnightblue" d="M1050.37,-445.288C1084.53,-432.273 1124.05,-417.22 1154.71,-405.538"/>
<polygon fill="midnightblue" stroke="midnightblue" points="1048.99,-442.07 1040.89,-448.901 1051.48,-448.611 1048.99,-442.07"/>
</g>
<!-- Node4&#45;&gt;Node4 -->
<g id="edge4" class="edge"><title>Node4&#45;&gt;Node4</title>
<path fill="none" stroke="midnightblue" d="M1088.66,-397.611C1093.83,-394.798 1097,-390.595 1097,-385 1097,-376.475 1089.63,-371.18 1079.08,-369.115"/>
<polygon fill="midnightblue" stroke="midnightblue" points="1087.41,-394.34 1079.08,-400.885 1089.67,-400.964 1087.41,-394.34"/>
</g>
<!-- Node5 -->
<g id="node5" class="node"><title>Node5</title>
<g id="a_node5"><a xlink:href="../../d9/d16/O2HitMergerRunner_8cxx.html" target="_top" xlink:title="/home/travis/build\l/AliceO2Group/AliceO2\l/run/O2HitMergerRunner.cxx">
<polygon fill="none" stroke="black" points="968,-274.5 968,-315.5 1110,-315.5 1110,-274.5 968,-274.5"/>
<text text-anchor="start" x="976" y="-303.5" font-family="Helvetica,sans-Serif" font-size="10.00">/home/travis/build</text>
<text text-anchor="start" x="976" y="-292.5" font-family="Helvetica,sans-Serif" font-size="10.00">/AliceO2Group/AliceO2</text>
<text text-anchor="middle" x="1039" y="-281.5" font-family="Helvetica,sans-Serif" font-size="10.00">/run/O2HitMergerRunner.cxx</text>
</a>
</g>
</g>
<!-- Node4&#45;&gt;Node5 -->
<g id="edge5" class="edge"><title>Node4&#45;&gt;Node5</title>
<path fill="none" stroke="midnightblue" d="M1026.41,-354.33C1029.15,-341.629 1032.28,-327.14 1034.73,-315.78"/>
<polygon fill="midnightblue" stroke="midnightblue" points="1022.91,-353.956 1024.22,-364.47 1029.75,-355.434 1022.91,-353.956"/>
</g>
<!-- Node7&#45;&gt;Node6 -->
<g id="edge20" class="edge"><title>Node7&#45;&gt;Node6</title>
<path fill="none" stroke="midnightblue" d="M717.425,-355.372C747.281,-344.333 781.13,-331.817 810.027,-321.133"/>
<polygon fill="midnightblue" stroke="midnightblue" points="716.048,-352.15 707.883,-358.901 718.476,-358.715 716.048,-352.15"/>
</g>
<!-- Node8 -->
<g id="node8" class="node"><title>Node8</title>
<g id="a_node8"><a xlink:href="../../de/d92/TPC_2simulation_2include_2TPCSimulation_2Digitizer_8h.html" target="_top" xlink:title="/home/travis/build\l/AliceO2Group/AliceO2\l/Detectors/TPC/simulation\l/include/TPCSimulation/Digitizer.h">
<polygon fill="none" stroke="black" points="40.5,-269 40.5,-321 207.5,-321 207.5,-269 40.5,-269"/>
<text text-anchor="start" x="48.5" y="-309" font-family="Helvetica,sans-Serif" font-size="10.00">/home/travis/build</text>
<text text-anchor="start" x="48.5" y="-298" font-family="Helvetica,sans-Serif" font-size="10.00">/AliceO2Group/AliceO2</text>
<text text-anchor="start" x="48.5" y="-287" font-family="Helvetica,sans-Serif" font-size="10.00">/Detectors/TPC/simulation</text>
<text text-anchor="middle" x="124" y="-276" font-family="Helvetica,sans-Serif" font-size="10.00">/include/TPCSimulation/Digitizer.h</text>
</a>
</g>
</g>
<!-- Node7&#45;&gt;Node8 -->
<g id="edge8" class="edge"><title>Node7&#45;&gt;Node8</title>
<path fill="none" stroke="midnightblue" d="M546.358,-373.739C460.238,-363.485 329.269,-345.82 217,-322 213.884,-321.339 210.718,-320.633 207.527,-319.892"/>
<polygon fill="midnightblue" stroke="midnightblue" points="546.031,-377.225 556.372,-374.922 546.852,-370.273 546.031,-377.225"/>
</g>
<!-- Node9 -->
<g id="node9" class="node"><title>Node9</title>
<g id="a_node9"><a xlink:href="../../dd/d4b/TPC_2simulation_2include_2TPCSimulation_2DigitizerTask_8h.html" target="_top" xlink:title="/home/travis/build\l/AliceO2Group/AliceO2\l/Detectors/TPC/simulation\l/include/TPCSimulation/Digitizer\lTask.h">
<polygon fill="none" stroke="black" points="362,-168.5 362,-231.5 520,-231.5 520,-168.5 362,-168.5"/>
<text text-anchor="start" x="370" y="-219.5" font-family="Helvetica,sans-Serif" font-size="10.00">/home/travis/build</text>
<text text-anchor="start" x="370" y="-208.5" font-family="Helvetica,sans-Serif" font-size="10.00">/AliceO2Group/AliceO2</text>
<text text-anchor="start" x="370" y="-197.5" font-family="Helvetica,sans-Serif" font-size="10.00">/Detectors/TPC/simulation</text>
<text text-anchor="start" x="370" y="-186.5" font-family="Helvetica,sans-Serif" font-size="10.00">/include/TPCSimulation/Digitizer</text>
<text text-anchor="middle" x="441" y="-175.5" font-family="Helvetica,sans-Serif" font-size="10.00">Task.h</text>
</a>
</g>
</g>
<!-- Node7&#45;&gt;Node9 -->
<g id="edge19" class="edge"><title>Node7&#45;&gt;Node9</title>
<path fill="none" stroke="midnightblue" d="M694.764,-352.561C704.955,-344.029 714.207,-333.819 720,-322 730.563,-300.45 734.858,-286.848 720,-268 695.483,-236.899 593.795,-218.585 520.253,-209.172"/>
<polygon fill="midnightblue" stroke="midnightblue" points="692.557,-349.844 686.829,-358.757 696.865,-355.361 692.557,-349.844"/>
</g>
<!-- Node15 -->
<g id="node15" class="node"><title>Node15</title>
<g id="a_node15"><a xlink:href="../../db/df6/TPCDriftTimeDigitizerSpec_8cxx.html" target="_top" xlink:title="/home/travis/build\l/AliceO2Group/AliceO2\l/Steer/DigitizerWorkflow\l/src/TPCDriftTimeDigitizerSpec.cxx">
<polygon fill="none" stroke="black" points="654,-79 654,-131 828,-131 828,-79 654,-79"/>
<text text-anchor="start" x="662" y="-119" font-family="Helvetica,sans-Serif" font-size="10.00">/home/travis/build</text>
<text text-anchor="start" x="662" y="-108" font-family="Helvetica,sans-Serif" font-size="10.00">/AliceO2Group/AliceO2</text>
<text text-anchor="start" x="662" y="-97" font-family="Helvetica,sans-Serif" font-size="10.00">/Steer/DigitizerWorkflow</text>
<text text-anchor="middle" x="741" y="-86" font-family="Helvetica,sans-Serif" font-size="10.00">/src/TPCDriftTimeDigitizerSpec.cxx</text>
</a>
</g>
</g>
<!-- Node7&#45;&gt;Node15 -->
<g id="edge22" class="edge"><title>Node7&#45;&gt;Node15</title>
<path fill="none" stroke="midnightblue" d="M709.314,-353.38C721.192,-344.956 731.958,-334.581 739,-322 773.252,-260.806 758.531,-173.758 748.107,-131.28"/>
<polygon fill="midnightblue" stroke="midnightblue" points="707.363,-350.474 700.945,-358.903 711.219,-356.316 707.363,-350.474"/>
</g>
<!-- Node17 -->
<g id="node17" class="node"><title>Node17</title>
<g id="a_node17"><a xlink:href="../../d3/d13/SimReaderSpec_8cxx.html" target="_top" xlink:title="/home/travis/build\l/AliceO2Group/AliceO2\l/Steer/DigitizerWorkflow\l/src/SimReaderSpec.cxx">
<polygon fill="none" stroke="black" points="226,-269 226,-321 352,-321 352,-269 226,-269"/>
<text text-anchor="start" x="234" y="-309" font-family="Helvetica,sans-Serif" font-size="10.00">/home/travis/build</text>
<text text-anchor="start" x="234" y="-298" font-family="Helvetica,sans-Serif" font-size="10.00">/AliceO2Group/AliceO2</text>
<text text-anchor="start" x="234" y="-287" font-family="Helvetica,sans-Serif" font-size="10.00">/Steer/DigitizerWorkflow</text>
<text text-anchor="middle" x="289" y="-276" font-family="Helvetica,sans-Serif" font-size="10.00">/src/SimReaderSpec.cxx</text>
</a>
</g>
</g>
<!-- Node7&#45;&gt;Node17 -->
<g id="edge21" class="edge"><title>Node7&#45;&gt;Node17</title>
<path fill="none" stroke="midnightblue" d="M546.285,-366.291C491.777,-355.218 422.008,-339.715 361,-322 358.065,-321.148 355.075,-320.239 352.066,-319.29"/>
<polygon fill="midnightblue" stroke="midnightblue" points="545.785,-369.761 556.279,-368.307 547.169,-362.899 545.785,-369.761"/>
</g>
<!-- Node18 -->
<g id="node18" class="node"><title>Node18</title>
<g id="a_node18"><a xlink:href="../../d6/d0b/HitProcessingManager_8cxx.html" target="_top" xlink:title="/home/travis/build\l/AliceO2Group/AliceO2\l/Steer/src/HitProcessingManager.cxx">
<polygon fill="none" stroke="black" points="370,-274.5 370,-315.5 550,-315.5 550,-274.5 370,-274.5"/>
<text text-anchor="start" x="378" y="-303.5" font-family="Helvetica,sans-Serif" font-size="10.00">/home/travis/build</text>
<text text-anchor="start" x="378" y="-292.5" font-family="Helvetica,sans-Serif" font-size="10.00">/AliceO2Group/AliceO2</text>
<text text-anchor="middle" x="460" y="-281.5" font-family="Helvetica,sans-Serif" font-size="10.00">/Steer/src/HitProcessingManager.cxx</text>
</a>
</g>
</g>
<!-- Node7&#45;&gt;Node18 -->
<g id="edge23" class="edge"><title>Node7&#45;&gt;Node18</title>
<path fill="none" stroke="midnightblue" d="M579.356,-354.352C553.251,-341.589 523.445,-327.018 500.149,-315.628"/>
<polygon fill="midnightblue" stroke="midnightblue" points="577.898,-357.535 588.419,-358.783 580.973,-351.246 577.898,-357.535"/>
</g>
<!-- Node19 -->
<g id="node19" class="node"><title>Node19</title>
<g id="a_node19"><a xlink:href="../../d7/d6d/testHitProcessingManager_8cxx.html" target="_top" xlink:title="/home/travis/build\l/AliceO2Group/AliceO2\l/Steer/test/testHitProcessing\lManager.cxx">
<polygon fill="none" stroke="black" points="568.5,-269 568.5,-321 711.5,-321 711.5,-269 568.5,-269"/>
<text text-anchor="start" x="576.5" y="-309" font-family="Helvetica,sans-Serif" font-size="10.00">/home/travis/build</text>
<text text-anchor="start" x="576.5" y="-298" font-family="Helvetica,sans-Serif" font-size="10.00">/AliceO2Group/AliceO2</text>
<text text-anchor="start" x="576.5" y="-287" font-family="Helvetica,sans-Serif" font-size="10.00">/Steer/test/testHitProcessing</text>
<text text-anchor="middle" x="640" y="-276" font-family="Helvetica,sans-Serif" font-size="10.00">Manager.cxx</text>
</a>
</g>
</g>
<!-- Node7&#45;&gt;Node19 -->
<g id="edge24" class="edge"><title>Node7&#45;&gt;Node19</title>
<path fill="none" stroke="midnightblue" d="M640,-348.489C640,-339.309 640,-329.616 640,-321.092"/>
<polygon fill="midnightblue" stroke="midnightblue" points="636.5,-348.547 640,-358.547 643.5,-348.547 636.5,-348.547"/>
</g>
<!-- Node8&#45;&gt;Node9 -->
<g id="edge9" class="edge"><title>Node8&#45;&gt;Node9</title>
<path fill="none" stroke="midnightblue" d="M217.352,-266.613C263.231,-253.153 317.928,-237.106 361.745,-224.251"/>
<polygon fill="midnightblue" stroke="midnightblue" points="216.313,-263.27 207.703,-269.444 218.284,-269.987 216.313,-263.27"/>
</g>
<!-- Node10 -->
<g id="node10" class="node"><title>Node10</title>
<g id="a_node10"><a xlink:href="../../df/d46/TPC_2simulation_2src_2DigitizerTask_8cxx.html" target="_top" xlink:title="/home/travis/build\l/AliceO2Group/AliceO2\l/Detectors/TPC/simulation\l/src/DigitizerTask.cxx">
<polygon fill="none" stroke="black" points="94.5,-79 94.5,-131 227.5,-131 227.5,-79 94.5,-79"/>
<text text-anchor="start" x="102.5" y="-119" font-family="Helvetica,sans-Serif" font-size="10.00">/home/travis/build</text>
<text text-anchor="start" x="102.5" y="-108" font-family="Helvetica,sans-Serif" font-size="10.00">/AliceO2Group/AliceO2</text>
<text text-anchor="start" x="102.5" y="-97" font-family="Helvetica,sans-Serif" font-size="10.00">/Detectors/TPC/simulation</text>
<text text-anchor="middle" x="161" y="-86" font-family="Helvetica,sans-Serif" font-size="10.00">/src/DigitizerTask.cxx</text>
</a>
</g>
</g>
<!-- Node8&#45;&gt;Node10 -->
<g id="edge17" class="edge"><title>Node8&#45;&gt;Node10</title>
<path fill="none" stroke="midnightblue" d="M134.342,-258.919C136.721,-250.172 139.105,-240.783 141,-232 148.475,-197.359 154.418,-156.801 157.825,-131.253"/>
<polygon fill="midnightblue" stroke="midnightblue" points="130.897,-258.244 131.583,-268.817 137.64,-260.124 130.897,-258.244"/>
</g>
<!-- Node8&#45;&gt;Node15 -->
<g id="edge18" class="edge"><title>Node8&#45;&gt;Node15</title>
<path fill="none" stroke="midnightblue" d="M217.603,-268.065C355.582,-242.792 399.217,-275.352 528,-232 597.223,-208.698 668.438,-160.78 708.473,-131.216"/>
<polygon fill="midnightblue" stroke="midnightblue" points="216.672,-264.679 207.503,-269.987 217.98,-271.556 216.672,-264.679"/>
</g>
<!-- Node16 -->
<g id="node16" class="node"><title>Node16</title>
<g id="a_node16"><a xlink:href="../../d7/d0a/TPC_2simulation_2src_2Digitizer_8cxx.html" target="_top" xlink:title="/home/travis/build\l/AliceO2Group/AliceO2\l/Detectors/TPC/simulation\l/src/Digitizer.cxx">
<polygon fill="none" stroke="black" points="-0.5,-174 -0.5,-226 132.5,-226 132.5,-174 -0.5,-174"/>
<text text-anchor="start" x="7.5" y="-214" font-family="Helvetica,sans-Serif" font-size="10.00">/home/travis/build</text>
<text text-anchor="start" x="7.5" y="-203" font-family="Helvetica,sans-Serif" font-size="10.00">/AliceO2Group/AliceO2</text>
<text text-anchor="start" x="7.5" y="-192" font-family="Helvetica,sans-Serif" font-size="10.00">/Detectors/TPC/simulation</text>
<text text-anchor="middle" x="66" y="-181" font-family="Helvetica,sans-Serif" font-size="10.00">/src/Digitizer.cxx</text>
</a>
</g>
</g>
<!-- Node8&#45;&gt;Node16 -->
<g id="edge16" class="edge"><title>Node8&#45;&gt;Node16</title>
<path fill="none" stroke="midnightblue" d="M102.724,-259.884C95.7408,-248.688 88.1138,-236.458 81.6288,-226.06"/>
<polygon fill="midnightblue" stroke="midnightblue" points="99.8896,-261.954 108.151,-268.587 105.829,-258.25 99.8896,-261.954"/>
</g>
<!-- Node9&#45;&gt;Node10 -->
<g id="edge10" class="edge"><title>Node9&#45;&gt;Node10</title>
<path fill="none" stroke="midnightblue" d="M352.043,-170.046C316.261,-158.332 274.638,-144.618 237,-132 233.959,-130.98 230.851,-129.934 227.712,-128.874"/>
<polygon fill="midnightblue" stroke="midnightblue" points="351.379,-173.512 361.972,-173.295 353.556,-166.859 351.379,-173.512"/>
</g>
<!-- Node11 -->
<g id="node11" class="node"><title>Node11</title>
<g id="a_node11"><a xlink:href="../../d1/d7a/run__digi_8C.html" target="_top" xlink:title="/home/travis/build\l/AliceO2Group/AliceO2\l/macro/run_digi.C">
<polygon fill="none" stroke="black" points="382,-84.5 382,-125.5 500,-125.5 500,-84.5 382,-84.5"/>
<text text-anchor="start" x="390" y="-113.5" font-family="Helvetica,sans-Serif" font-size="10.00">/home/travis/build</text>
<text text-anchor="start" x="390" y="-102.5" font-family="Helvetica,sans-Serif" font-size="10.00">/AliceO2Group/AliceO2</text>
<text text-anchor="middle" x="441" y="-91.5" font-family="Helvetica,sans-Serif" font-size="10.00">/macro/run_digi.C</text>
</a>
</g>
</g>
<!-- Node9&#45;&gt;Node11 -->
<g id="edge11" class="edge"><title>Node9&#45;&gt;Node11</title>
<path fill="none" stroke="midnightblue" d="M441,-158.112C441,-146.807 441,-135.052 441,-125.575"/>
<polygon fill="midnightblue" stroke="midnightblue" points="437.5,-158.291 441,-168.291 444.5,-158.291 437.5,-158.291"/>
</g>
<!-- Node12 -->
<g id="node12" class="node"><title>Node12</title>
<g id="a_node12"><a xlink:href="../../d9/de3/run__digi__all_8C.html" target="_top" xlink:title="/home/travis/build\l/AliceO2Group/AliceO2\l/macro/run_digi_all.C">
<polygon fill="none" stroke="black" points="518,-84.5 518,-125.5 636,-125.5 636,-84.5 518,-84.5"/>
<text text-anchor="start" x="526" y="-113.5" font-family="Helvetica,sans-Serif" font-size="10.00">/home/travis/build</text>
<text text-anchor="start" x="526" y="-102.5" font-family="Helvetica,sans-Serif" font-size="10.00">/AliceO2Group/AliceO2</text>
<text text-anchor="middle" x="577" y="-91.5" font-family="Helvetica,sans-Serif" font-size="10.00">/macro/run_digi_all.C</text>
</a>
</g>
</g>
<!-- Node9&#45;&gt;Node12 -->
<g id="edge12" class="edge"><title>Node9&#45;&gt;Node12</title>
<path fill="none" stroke="midnightblue" d="M494.257,-162.582C512.706,-149.966 532.676,-136.31 548.375,-125.575"/>
<polygon fill="midnightblue" stroke="midnightblue" points="492.187,-159.757 485.908,-168.291 496.139,-165.535 492.187,-159.757"/>
</g>
<!-- Node13 -->
<g id="node13" class="node"><title>Node13</title>
<g id="a_node13"><a xlink:href="../../d3/db7/run__digi__tpc_8C.html" target="_top" xlink:title="/home/travis/build\l/AliceO2Group/AliceO2\l/macro/run_digi_tpc.C">
<polygon fill="none" stroke="black" points="246,-84.5 246,-125.5 364,-125.5 364,-84.5 246,-84.5"/>
<text text-anchor="start" x="254" y="-113.5" font-family="Helvetica,sans-Serif" font-size="10.00">/home/travis/build</text>
<text text-anchor="start" x="254" y="-102.5" font-family="Helvetica,sans-Serif" font-size="10.00">/AliceO2Group/AliceO2</text>
<text text-anchor="middle" x="305" y="-91.5" font-family="Helvetica,sans-Serif" font-size="10.00">/macro/run_digi_tpc.C</text>
</a>
</g>
</g>
<!-- Node9&#45;&gt;Node13 -->
<g id="edge13" class="edge"><title>Node9&#45;&gt;Node13</title>
<path fill="none" stroke="midnightblue" d="M387.743,-162.582C369.294,-149.966 349.324,-136.31 333.625,-125.575"/>
<polygon fill="midnightblue" stroke="midnightblue" points="385.861,-165.535 396.092,-168.291 389.813,-159.757 385.861,-165.535"/>
</g>
<!-- Node9&#45;&gt;Node15 -->
<g id="edge15" class="edge"><title>Node9&#45;&gt;Node15</title>
<path fill="none" stroke="midnightblue" d="M529.998,-171.411C571.311,-158.604 620.066,-143.49 660.296,-131.018"/>
<polygon fill="midnightblue" stroke="midnightblue" points="528.729,-168.14 520.214,-174.444 530.802,-174.826 528.729,-168.14"/>
</g>
<!-- Node14 -->
<g id="node14" class="node"><title>Node14</title>
<g id="a_node14"><a xlink:href="../../d3/d56/runTPC_8cxx.html" target="_top" xlink:title="/home/travis/build\l/AliceO2Group/AliceO2\l/run/runTPC.cxx">
<polygon fill="none" stroke="black" points="246,-0.5 246,-41.5 364,-41.5 364,-0.5 246,-0.5"/>
<text text-anchor="start" x="254" y="-29.5" font-family="Helvetica,sans-Serif" font-size="10.00">/home/travis/build</text>
<text text-anchor="start" x="254" y="-18.5" font-family="Helvetica,sans-Serif" font-size="10.00">/AliceO2Group/AliceO2</text>
<text text-anchor="middle" x="305" y="-7.5" font-family="Helvetica,sans-Serif" font-size="10.00">/run/runTPC.cxx</text>
</a>
</g>
</g>
<!-- Node13&#45;&gt;Node14 -->
<g id="edge14" class="edge"><title>Node13&#45;&gt;Node14</title>
<path fill="none" stroke="midnightblue" d="M305,-73.881C305,-63.1328 305,-51.309 305,-41.6671"/>
<polygon fill="midnightblue" stroke="midnightblue" points="301.5,-74.1501 305,-84.1501 308.5,-74.1501 301.5,-74.1501"/>
</g>
</g>
</svg>
