<?xml version="1.0" encoding="UTF-8" standalone="no"?>
<!DOCTYPE svg PUBLIC "-//W3C//DTD SVG 1.1//EN"
 "http://www.w3.org/Graphics/SVG/1.1/DTD/svg11.dtd">
<!-- Generated by graphviz version 2.36.0 (20140111.2315)
 -->
<!-- Title: o2::phos::Digit Pages: 1 -->
<svg width="223pt" height="596pt"
 viewBox="0.00 0.00 223.00 596.00" xmlns="http://www.w3.org/2000/svg" xmlns:xlink="http://www.w3.org/1999/xlink">
<g id="graph0" class="graph" transform="scale(1 1) rotate(0) translate(4 592)">
<title>o2::phos::Digit</title>
<!-- Node1 -->
<g id="node1" class="node"><title>Node1</title>
<polygon fill="#bfbfbf" stroke="black" points="94.5,-0.5 94.5,-277.5 189.5,-277.5 189.5,-0.5 94.5,-0.5"/>
<text text-anchor="middle" x="142" y="-265.5" font-family="Helvetica,sans-Serif" font-size="10.00">o2::phos::Digit</text>
<polyline fill="none" stroke="black" points="94.5,-258.5 189.5,-258.5 "/>
<text text-anchor="middle" x="142" y="-246.5" font-family="Helvetica,sans-Serif" font-size="10.00"> </text>
<polyline fill="none" stroke="black" points="94.5,-239.5 189.5,-239.5 "/>
<text text-anchor="start" x="102.5" y="-227.5" font-family="Helvetica,sans-Serif" font-size="10.00">+ Digit()</text>
<text text-anchor="start" x="102.5" y="-216.5" font-family="Helvetica,sans-Serif" font-size="10.00">+ Digit()</text>
<text text-anchor="start" x="102.5" y="-205.5" font-family="Helvetica,sans-Serif" font-size="10.00">+ Digit()</text>
<text text-anchor="start" x="102.5" y="-194.5" font-family="Helvetica,sans-Serif" font-size="10.00">+ ~Digit()</text>
<text text-anchor="start" x="102.5" y="-183.5" font-family="Helvetica,sans-Serif" font-size="10.00">+ FillFromHit()</text>
<text text-anchor="start" x="102.5" y="-172.5" font-family="Helvetica,sans-Serif" font-size="10.00">+ operator&lt;()</text>
<text text-anchor="start" x="102.5" y="-161.5" font-family="Helvetica,sans-Serif" font-size="10.00">+ operator&gt;()</text>
<text text-anchor="start" x="102.5" y="-150.5" font-family="Helvetica,sans-Serif" font-size="10.00">+ canAdd()</text>
<text text-anchor="start" x="102.5" y="-139.5" font-family="Helvetica,sans-Serif" font-size="10.00">+ operator+=()</text>
<text text-anchor="start" x="102.5" y="-128.5" font-family="Helvetica,sans-Serif" font-size="10.00">+ getAbsId()</text>
<text text-anchor="start" x="102.5" y="-117.5" font-family="Helvetica,sans-Serif" font-size="10.00">+ setAbsId()</text>
<text text-anchor="start" x="102.5" y="-106.5" font-family="Helvetica,sans-Serif" font-size="10.00">+ getAmplitude()</text>
<text text-anchor="start" x="102.5" y="-95.5" font-family="Helvetica,sans-Serif" font-size="10.00">+ setAmplitude()</text>
<text text-anchor="start" x="102.5" y="-84.5" font-family="Helvetica,sans-Serif" font-size="10.00">+ getTime()</text>
<text text-anchor="start" x="102.5" y="-73.5" font-family="Helvetica,sans-Serif" font-size="10.00">+ setTime()</text>
<text text-anchor="start" x="102.5" y="-62.5" font-family="Helvetica,sans-Serif" font-size="10.00">+ isHighGain()</text>
<text text-anchor="start" x="102.5" y="-51.5" font-family="Helvetica,sans-Serif" font-size="10.00">+ setHighGain()</text>
<text text-anchor="start" x="102.5" y="-40.5" font-family="Helvetica,sans-Serif" font-size="10.00">+ getLabel()</text>
<text text-anchor="start" x="102.5" y="-29.5" font-family="Helvetica,sans-Serif" font-size="10.00">+ getLabelEProp()</text>
<text text-anchor="start" x="102.5" y="-18.5" font-family="Helvetica,sans-Serif" font-size="10.00">+ getNLabels()</text>
<text text-anchor="start" x="102.5" y="-7.5" font-family="Helvetica,sans-Serif" font-size="10.00">+ PrintStream()</text>
</g>
<!-- Node2 -->
<g id="node2" class="node"><title>Node2</title>
<g id="a_node2"><a xlink:href="../../d0/d94/classo2_1_1dataformats_1_1TimeStamp.html" target="_top" xlink:title="{DigitBase\n||+ TimeStamp()\l+ TimeStamp()\l+ getTimeStamp()\l+ setTimeStamp()\l+ operator==()\l}">
<polygon fill="none" stroke="black" points="34.5,-336.5 34.5,-437.5 129.5,-437.5 129.5,-336.5 34.5,-336.5"/>
<text text-anchor="middle" x="82" y="-425.5" font-family="Helvetica,sans-Serif" font-size="10.00">DigitBase</text>
<polyline fill="none" stroke="black" points="34.5,-418.5 129.5,-418.5 "/>
<text text-anchor="middle" x="82" y="-406.5" font-family="Helvetica,sans-Serif" font-size="10.00"> </text>
<polyline fill="none" stroke="black" points="34.5,-399.5 129.5,-399.5 "/>
<text text-anchor="start" x="42.5" y="-387.5" font-family="Helvetica,sans-Serif" font-size="10.00">+ TimeStamp()</text>
<text text-anchor="start" x="42.5" y="-376.5" font-family="Helvetica,sans-Serif" font-size="10.00">+ TimeStamp()</text>
<text text-anchor="start" x="42.5" y="-365.5" font-family="Helvetica,sans-Serif" font-size="10.00">+ getTimeStamp()</text>
<text text-anchor="start" x="42.5" y="-354.5" font-family="Helvetica,sans-Serif" font-size="10.00">+ setTimeStamp()</text>
<text text-anchor="start" x="42.5" y="-343.5" font-family="Helvetica,sans-Serif" font-size="10.00">+ operator==()</text>
</a>
</g>
</g>
<!-- Node2&#45;&gt;Node1 -->
<g id="edge1" class="edge"><title>Node2&#45;&gt;Node1</title>
<path fill="none" stroke="midnightblue" d="M96.5952,-326.16C100.241,-311.213 104.303,-294.559 108.457,-277.527"/>
<polygon fill="none" stroke="midnightblue" points="93.1112,-325.674 94.1419,-336.218 99.9119,-327.332 93.1112,-325.674"/>
</g>
<!-- Node3 -->
<g id="node3" class="node"><title>Node3</title>
<g id="a_node3"><a xlink:href="../../d0/d94/classo2_1_1dataformats_1_1TimeStamp.html" target="_top" xlink:title="{o2::dataformats::TimeStamp\&lt; T \&gt;\n||+ TimeStamp()\l+ TimeStamp()\l+ getTimeStamp()\l+ setTimeStamp()\l+ operator==()\l}">
<polygon fill="none" stroke="black" points="-0.5,-486.5 -0.5,-587.5 164.5,-587.5 164.5,-486.5 -0.5,-486.5"/>
<text text-anchor="middle" x="82" y="-575.5" font-family="Helvetica,sans-Serif" font-size="10.00">o2::dataformats::TimeStamp&lt; T &gt;</text>
<polyline fill="none" stroke="black" points="-0.5,-568.5 164.5,-568.5 "/>
<text text-anchor="middle" x="82" y="-556.5" font-family="Helvetica,sans-Serif" font-size="10.00"> </text>
<polyline fill="none" stroke="black" points="-0.5,-549.5 164.5,-549.5 "/>
<text text-anchor="start" x="7.5" y="-537.5" font-family="Helvetica,sans-Serif" font-size="10.00">+ TimeStamp()</text>
<text text-anchor="start" x="7.5" y="-526.5" font-family="Helvetica,sans-Serif" font-size="10.00">+ TimeStamp()</text>
<text text-anchor="start" x="7.5" y="-515.5" font-family="Helvetica,sans-Serif" font-size="10.00">+ getTimeStamp()</text>
<text text-anchor="start" x="7.5" y="-504.5" font-family="Helvetica,sans-Serif" font-size="10.00">+ setTimeStamp()</text>
<text text-anchor="start" x="7.5" y="-493.5" font-family="Helvetica,sans-Serif" font-size="10.00">+ operator==()</text>
</a>
</g>
</g>
<!-- Node3&#45;&gt;Node2 -->
<g id="edge2" class="edge"><title>Node3&#45;&gt;Node2</title>
<path fill="none" stroke="orange" d="M82,-476.181C82,-463.359 82,-449.946 82,-437.562"/>
<polygon fill="orange" stroke="orange" points="78.5001,-476.306 82,-486.306 85.5001,-476.306 78.5001,-476.306"/>
<text text-anchor="middle" x="107" y="-459.5" font-family="Helvetica,sans-Serif" font-size="10.00"> &lt; double &gt;</text>
</g>
<!-- Node4 -->
<g id="node4" class="node"><title>Node4</title>
<polygon fill="none" stroke="#bfbfbf" points="147.5,-358.5 147.5,-415.5 176.5,-415.5 176.5,-358.5 147.5,-358.5"/>
<text text-anchor="middle" x="162" y="-403.5" font-family="Helvetica,sans-Serif" font-size="10.00">int</text>
<polyline fill="none" stroke="#bfbfbf" points="147.5,-396.5 176.5,-396.5 "/>
<text text-anchor="middle" x="162" y="-384.5" font-family="Helvetica,sans-Serif" font-size="10.00"> </text>
<polyline fill="none" stroke="#bfbfbf" points="147.5,-377.5 176.5,-377.5 "/>
<text text-anchor="middle" x="162" y="-365.5" font-family="Helvetica,sans-Serif" font-size="10.00"> </text>
</g>
<!-- Node4&#45;&gt;Node1 -->
<g id="edge3" class="edge"><title>Node4&#45;&gt;Node1</title>
<path fill="none" stroke="#404040" d="M159.745,-358.259C158.305,-340.552 156.314,-316.058 154.183,-289.855"/>
<polygon fill="none" stroke="#404040" points="154.169,-289.675 149.696,-284.019 153.196,-277.714 157.669,-283.37 154.169,-289.675"/>
<text text-anchor="middle" x="185.5" y="-310" font-family="Helvetica,sans-Serif" font-size="10.00"> +kTimeGate</text>
<text text-anchor="middle" x="185.5" y="-299" font-family="Helvetica,sans-Serif" font-size="10.00">+kMaxLabels</text>
</g>
</g>
</svg>
