<?xml version="1.0" encoding="UTF-8" standalone="no"?>
<!DOCTYPE svg PUBLIC "-//W3C//DTD SVG 1.1//EN"
 "http://www.w3.org/Graphics/SVG/1.1/DTD/svg11.dtd">
<!-- Generated by graphviz version 2.36.0 (20140111.2315)
 -->
<!-- Title: o2::conf::SimConfigData Pages: 1 -->
<svg width="458pt" height="204pt"
 viewBox="0.00 0.00 458.00 204.00" xmlns="http://www.w3.org/2000/svg" xmlns:xlink="http://www.w3.org/1999/xlink">
<g id="graph0" class="graph" transform="scale(1 1) rotate(0) translate(4 200)">
<title>o2::conf::SimConfigData</title>
<!-- Node1 -->
<g id="node1" class="node"><title>Node1</title>
<polygon fill="#bfbfbf" stroke="black" points="153.5,-0.5 153.5,-57.5 278.5,-57.5 278.5,-0.5 153.5,-0.5"/>
<text text-anchor="middle" x="216" y="-45.5" font-family="Helvetica,sans-Serif" font-size="10.00">o2::conf::SimConfigData</text>
<polyline fill="none" stroke="black" points="153.5,-38.5 278.5,-38.5 "/>
<text text-anchor="middle" x="216" y="-26.5" font-family="Helvetica,sans-Serif" font-size="10.00"> </text>
<polyline fill="none" stroke="black" points="153.5,-19.5 278.5,-19.5 "/>
<text text-anchor="start" x="161.5" y="-7.5" font-family="Helvetica,sans-Serif" font-size="10.00">+ ClassDefNV()</text>
</g>
<!-- Node2 -->
<g id="node2" class="node"><title>Node2</title>
<g id="a_node2"><a xlink:href="../../d4/dc3/classfloat.html" target="_top" xlink:title="{float\n||}">
<polygon fill="none" stroke="black" points="-0.5,-138.5 -0.5,-195.5 34.5,-195.5 34.5,-138.5 -0.5,-138.5"/>
<text text-anchor="middle" x="17" y="-183.5" font-family="Helvetica,sans-Serif" font-size="10.00">float</text>
<polyline fill="none" stroke="black" points="-0.5,-176.5 34.5,-176.5 "/>
<text text-anchor="middle" x="17" y="-164.5" font-family="Helvetica,sans-Serif" font-size="10.00"> </text>
<polyline fill="none" stroke="black" points="-0.5,-157.5 34.5,-157.5 "/>
<text text-anchor="middle" x="17" y="-145.5" font-family="Helvetica,sans-Serif" font-size="10.00"> </text>
</a>
</g>
</g>
<!-- Node2&#45;&gt;Node1 -->
<g id="edge1" class="edge"><title>Node2&#45;&gt;Node1</title>
<path fill="none" stroke="#404040" d="M23.7227,-138.264C29.9461,-118.264 41.1549,-92.0645 60,-76 82.7507,-56.6061 113.366,-45.3859 141.449,-38.8956"/>
<polygon fill="none" stroke="#404040" points="141.559,-38.8726 146.603,-33.7194 153.3,-36.3936 148.256,-41.5469 141.559,-38.8726"/>
<text text-anchor="middle" x="81.5" y="-95.5" font-family="Helvetica,sans-Serif" font-size="10.00"> +mBMax</text>
</g>
<!-- Node3 -->
<g id="node3" class="node"><title>Node3</title>
<polygon fill="none" stroke="#bfbfbf" points="52.5,-138.5 52.5,-195.5 157.5,-195.5 157.5,-138.5 52.5,-138.5"/>
<text text-anchor="middle" x="105" y="-183.5" font-family="Helvetica,sans-Serif" font-size="10.00">vector&lt; std::string &gt;</text>
<polyline fill="none" stroke="#bfbfbf" points="52.5,-176.5 157.5,-176.5 "/>
<text text-anchor="middle" x="105" y="-164.5" font-family="Helvetica,sans-Serif" font-size="10.00"> </text>
<polyline fill="none" stroke="#bfbfbf" points="52.5,-157.5 157.5,-157.5 "/>
<text text-anchor="middle" x="105" y="-145.5" font-family="Helvetica,sans-Serif" font-size="10.00"> </text>
</g>
<!-- Node3&#45;&gt;Node1 -->
<g id="edge2" class="edge"><title>Node3&#45;&gt;Node1</title>
<path fill="none" stroke="#404040" d="M104.751,-138.209C105.934,-118.952 110.335,-93.6948 124,-76 129.328,-69.1011 135.969,-63.1607 143.228,-58.064"/>
<polygon fill="none" stroke="#404040" points="143.293,-58.0233 146.237,-51.4405 153.446,-51.6263 150.502,-58.2091 143.293,-58.0233"/>
<text text-anchor="middle" x="168" y="-95.5" font-family="Helvetica,sans-Serif" font-size="10.00"> +mActiveDetectors</text>
</g>
<!-- Node4 -->
<g id="node4" class="node"><title>Node4</title>
<polygon fill="none" stroke="#bfbfbf" points="201.5,-138.5 201.5,-195.5 230.5,-195.5 230.5,-138.5 201.5,-138.5"/>
<text text-anchor="middle" x="216" y="-183.5" font-family="Helvetica,sans-Serif" font-size="10.00">int</text>
<polyline fill="none" stroke="#bfbfbf" points="201.5,-176.5 230.5,-176.5 "/>
<text text-anchor="middle" x="216" y="-164.5" font-family="Helvetica,sans-Serif" font-size="10.00"> </text>
<polyline fill="none" stroke="#bfbfbf" points="201.5,-157.5 230.5,-157.5 "/>
<text text-anchor="middle" x="216" y="-145.5" font-family="Helvetica,sans-Serif" font-size="10.00"> </text>
</g>
<!-- Node4&#45;&gt;Node1 -->
<g id="edge3" class="edge"><title>Node4&#45;&gt;Node1</title>
<path fill="none" stroke="#404040" d="M216,-138.478C216,-118.792 216,-91.9899 216,-69.9526"/>
<polygon fill="none" stroke="#404040" points="216,-69.9475 212,-63.9475 216,-57.9475 220,-63.9475 216,-69.9475"/>
<text text-anchor="middle" x="259" y="-112" font-family="Helvetica,sans-Serif" font-size="10.00"> +mOutputPrefix</text>
<text text-anchor="middle" x="259" y="-101" font-family="Helvetica,sans-Serif" font-size="10.00">+mMCEngine</text>
<text text-anchor="middle" x="259" y="-90" font-family="Helvetica,sans-Serif" font-size="10.00">+mGenerator</text>
<text text-anchor="middle" x="259" y="-79" font-family="Helvetica,sans-Serif" font-size="10.00">+mExtKinFileName</text>
</g>
<!-- Node5 -->
<g id="node5" class="node"><title>Node5</title>
<polygon fill="none" stroke="#bfbfbf" points="307.5,-138.5 307.5,-195.5 342.5,-195.5 342.5,-138.5 307.5,-138.5"/>
<text text-anchor="middle" x="325" y="-183.5" font-family="Helvetica,sans-Serif" font-size="10.00">bool</text>
<polyline fill="none" stroke="#bfbfbf" points="307.5,-176.5 342.5,-176.5 "/>
<text text-anchor="middle" x="325" y="-164.5" font-family="Helvetica,sans-Serif" font-size="10.00"> </text>
<polyline fill="none" stroke="#bfbfbf" points="307.5,-157.5 342.5,-157.5 "/>
<text text-anchor="middle" x="325" y="-145.5" font-family="Helvetica,sans-Serif" font-size="10.00"> </text>
</g>
<!-- Node5&#45;&gt;Node1 -->
<g id="edge4" class="edge"><title>Node5&#45;&gt;Node1</title>
<path fill="none" stroke="#404040" d="M324.07,-138.25C322.126,-119.012 316.844,-93.7611 303,-76 298.864,-70.694 293.943,-65.932 288.575,-61.6722"/>
<polygon fill="none" stroke="#404040" points="288.295,-61.4745 281.087,-61.2701 278.503,-54.5378 285.712,-54.7421 288.295,-61.4745"/>
<text text-anchor="middle" x="342" y="-95.5" font-family="Helvetica,sans-Serif" font-size="10.00"> +mIsMT</text>
</g>
<!-- Node6 -->
<g id="node6" class="node"><title>Node6</title>
<polygon fill="none" stroke="#bfbfbf" points="361,-138.5 361,-195.5 417,-195.5 417,-138.5 361,-138.5"/>
<text text-anchor="middle" x="389" y="-183.5" font-family="Helvetica,sans-Serif" font-size="10.00">unsigned</text>
<polyline fill="none" stroke="#bfbfbf" points="361,-176.5 417,-176.5 "/>
<text text-anchor="middle" x="389" y="-164.5" font-family="Helvetica,sans-Serif" font-size="10.00"> </text>
<polyline fill="none" stroke="#bfbfbf" points="361,-157.5 417,-157.5 "/>
<text text-anchor="middle" x="389" y="-145.5" font-family="Helvetica,sans-Serif" font-size="10.00"> </text>
</g>
<!-- Node6&#45;&gt;Node1 -->
<g id="edge5" class="edge"><title>Node6&#45;&gt;Node1</title>
<path fill="none" stroke="#404040" d="M388.782,-138.212C387.153,-118.451 381.805,-92.572 366,-76 346.267,-55.3097 317.498,-43.8529 290.42,-37.5362"/>
<polygon fill="none" stroke="#404040" points="290.292,-37.5094 283.601,-40.1984 278.545,-35.0563 285.236,-32.3673 290.292,-37.5094"/>
<text text-anchor="middle" x="418" y="-101" font-family="Helvetica,sans-Serif" font-size="10.00"> +mStartEvent</text>
<text text-anchor="middle" x="418" y="-90" font-family="Helvetica,sans-Serif" font-size="10.00">+mNEvents</text>
</g>
</g>
</svg>
