<?xml version="1.0" encoding="UTF-8" standalone="no"?>
<!DOCTYPE svg PUBLIC "-//W3C//DTD SVG 1.1//EN"
 "http://www.w3.org/Graphics/SVG/1.1/DTD/svg11.dtd">
<!-- Generated by graphviz version 2.36.0 (20140111.2315)
 -->
<!-- Title: /home/travis/build/AliceO2Group/AliceO2/Detectors/ITSMFT/common/simulation/include/ITSMFTSimulation/Digitizer.h Pages: 1 -->
<!--zoomable 412 -->
<svg id="main" version="1.1" xmlns="http://www.w3.org/2000/svg" xmlns:xlink="http://www.w3.org/1999/xlink" xml:space="preserve" onload="init(evt)">
<style type="text/css"><![CDATA[
.edge:hover path { stroke: red; }
.edge:hover polygon { stroke: red; fill: red; }
]]></style>
<script type="text/javascript"><![CDATA[
var edges = document.getElementsByTagName('g');
if (edges && edges.length) {
  for (var i=0;i<edges.length;i++) {
    if (edges[i].id.substr(0,4)=='edge') {
      edges[i].setAttribute('class','edge');
    }
  }
}
]]></script>
        <defs>
                <circle id="rim" cx="0" cy="0" r="7"/>
                <circle id="rim2" cx="0" cy="0" r="3.5"/>
                <g id="zoomPlus">
                        <use xlink:href="#rim" fill="#404040">
                                <set attributeName="fill" to="#808080" begin="zoomplus.mouseover" end="zoomplus.mouseout"/>
                        </use>
                        <path d="M-4,0h8M0,-4v8" fill="none" stroke="white" stroke-width="1.5" pointer-events="none"/>
                </g>
                <g id="zoomMin">
                        <use xlink:href="#rim" fill="#404040">
                                <set attributeName="fill" to="#808080" begin="zoomminus.mouseover" end="zoomminus.mouseout"/>
                        </use>
                        <path d="M-4,0h8" fill="none" stroke="white" stroke-width="1.5" pointer-events="none"/>
                </g>
                <g id="dirArrow">
                        <path fill="none" stroke="white" stroke-width="1.5" d="M0,-3.0v7 M-2.5,-0.5L0,-3.0L2.5,-0.5"/>
                </g>
               <g id="resetDef">
                       <use xlink:href="#rim2" fill="#404040">
                               <set attributeName="fill" to="#808080" begin="reset.mouseover" end="reset.mouseout"/>
                       </use>
               </g>
        </defs>

<script type="text/javascript">
var viewWidth = 2375;
var viewHeight = 412;
var sectionId = 'dynsection-0';
</script>
<script xlink:href="../../svgpan.js"/>
<svg id="graph" class="graph">
<g id="viewport">
<title>/home/travis/build/AliceO2Group/AliceO2/Detectors/ITSMFT/common/simulation/include/ITSMFTSimulation/Digitizer.h</title>
<!-- Node1 -->
<g id="node1" class="node"><title>Node1</title>
<polygon fill="#bfbfbf" stroke="black" points="633,-340.5 633,-403.5 815,-403.5 815,-340.5 633,-340.5"/>
<text text-anchor="start" x="641" y="-391.5" font-family="Helvetica,sans-Serif" font-size="10.00">/home/travis/build</text>
<text text-anchor="start" x="641" y="-380.5" font-family="Helvetica,sans-Serif" font-size="10.00">/AliceO2Group/AliceO2</text>
<text text-anchor="start" x="641" y="-369.5" font-family="Helvetica,sans-Serif" font-size="10.00">/Detectors/ITSMFT/common</text>
<text text-anchor="start" x="641" y="-358.5" font-family="Helvetica,sans-Serif" font-size="10.00">/simulation/include/ITSMFTSimulation</text>
<text text-anchor="middle" x="724" y="-347.5" font-family="Helvetica,sans-Serif" font-size="10.00">/Digitizer.h</text>
</g>
<!-- Node2 -->
<g id="node2" class="node"><title>Node2</title>
<polygon fill="none" stroke="#bfbfbf" points="264,-142.5 264,-161.5 308,-161.5 308,-142.5 264,-142.5"/>
<text text-anchor="middle" x="286" y="-149.5" font-family="Helvetica,sans-Serif" font-size="10.00">vector</text>
</g>
<!-- Node1&#45;&gt;Node2 -->
<g id="edge1" class="edge"><title>Node1&#45;&gt;Node2</title>
<path fill="none" stroke="midnightblue" d="M632.735,-362.777C542.489,-350.048 405.8,-317.744 320,-236 301.802,-218.662 293.035,-190.191 289.042,-171.518"/>
<polygon fill="midnightblue" stroke="midnightblue" points="292.46,-170.759 287.168,-161.58 285.581,-172.056 292.46,-170.759"/>
</g>
<!-- Node3 -->
<g id="node3" class="node"><title>Node3</title>
<polygon fill="none" stroke="#bfbfbf" points="1175.5,-278.5 1175.5,-297.5 1218.5,-297.5 1218.5,-278.5 1175.5,-278.5"/>
<text text-anchor="middle" x="1197" y="-285.5" font-family="Helvetica,sans-Serif" font-size="10.00">deque</text>
</g>
<!-- Node1&#45;&gt;Node3 -->
<g id="edge2" class="edge"><title>Node1&#45;&gt;Node3</title>
<path fill="none" stroke="midnightblue" d="M815.088,-365.203C905.724,-357.585 1047.94,-340.591 1166,-304 1168.13,-303.338 1170.31,-302.55 1172.46,-301.687"/>
<polygon fill="midnightblue" stroke="midnightblue" points="1173.92,-304.869 1181.6,-297.576 1171.05,-298.485 1173.92,-304.869"/>
</g>
<!-- Node4 -->
<g id="node4" class="node"><title>Node4</title>
<polygon fill="none" stroke="#bfbfbf" points="1237,-278.5 1237,-297.5 1289,-297.5 1289,-278.5 1237,-278.5"/>
<text text-anchor="middle" x="1263" y="-285.5" font-family="Helvetica,sans-Serif" font-size="10.00">memory</text>
</g>
<!-- Node1&#45;&gt;Node4 -->
<g id="edge3" class="edge"><title>Node1&#45;&gt;Node4</title>
<path fill="none" stroke="midnightblue" d="M815.364,-366.044C917.25,-358.863 1086.23,-341.991 1227,-304 1229.82,-303.239 1232.71,-302.309 1235.57,-301.288"/>
<polygon fill="midnightblue" stroke="midnightblue" points="1236.98,-304.494 1245.01,-297.582 1234.42,-297.978 1236.98,-304.494"/>
</g>
<!-- Node5 -->
<g id="node5" class="node"><title>Node5</title>
<polygon fill="none" stroke="#bfbfbf" points="663,-74.5 663,-93.5 719,-93.5 719,-74.5 663,-74.5"/>
<text text-anchor="middle" x="691" y="-81.5" font-family="Helvetica,sans-Serif" font-size="10.00">Rtypes.h</text>
</g>
<!-- Node1&#45;&gt;Node5 -->
<g id="edge4" class="edge"><title>Node1&#45;&gt;Node5</title>
<path fill="none" stroke="midnightblue" d="M712.056,-340.428C708.16,-329.151 704.259,-316.157 702,-304 688.449,-231.074 689.153,-142.293 690.263,-104.038"/>
<polygon fill="midnightblue" stroke="midnightblue" points="693.767,-103.973 690.605,-93.8606 686.771,-103.737 693.767,-103.973"/>
</g>
<!-- Node6 -->
<g id="node6" class="node"><title>Node6</title>
<polygon fill="none" stroke="#bfbfbf" points="1307.5,-278.5 1307.5,-297.5 1366.5,-297.5 1366.5,-278.5 1307.5,-278.5"/>
<text text-anchor="middle" x="1337" y="-285.5" font-family="Helvetica,sans-Serif" font-size="10.00">TObject.h</text>
</g>
<!-- Node1&#45;&gt;Node6 -->
<g id="edge5" class="edge"><title>Node1&#45;&gt;Node6</title>
<path fill="none" stroke="midnightblue" d="M815.224,-367.407C929.518,-361.303 1130.69,-345.242 1298,-304 1301.24,-303.201 1304.57,-302.205 1307.87,-301.109"/>
<polygon fill="midnightblue" stroke="midnightblue" points="1309.27,-304.323 1317.47,-297.614 1306.87,-297.745 1309.27,-304.323"/>
</g>
<!-- Node7 -->
<g id="node7" class="node"><title>Node7</title>
<g id="a_node7"><a xlink:href="../../da/d93/ChipDigitsContainer_8h.html" target="_top" xlink:title="transient container for single chip digits accumulation ">
<polygon fill="none" stroke="black" points="125.5,-273 125.5,-303 272.5,-303 272.5,-273 125.5,-273"/>
<text text-anchor="start" x="133.5" y="-291" font-family="Helvetica,sans-Serif" font-size="10.00">ITSMFTSimulation/ChipDigits</text>
<text text-anchor="middle" x="199" y="-280" font-family="Helvetica,sans-Serif" font-size="10.00">Container.h</text>
</a>
</g>
</g>
<!-- Node1&#45;&gt;Node7 -->
<g id="edge6" class="edge"><title>Node1&#45;&gt;Node7</title>
<path fill="none" stroke="midnightblue" d="M632.699,-357.455C544.242,-344.226 406.335,-323.317 287,-304 285.709,-303.791 284.408,-303.58 283.098,-303.366"/>
<polygon fill="midnightblue" stroke="midnightblue" points="283.362,-299.862 272.927,-301.693 282.226,-306.77 283.362,-299.862"/>
</g>
<!-- Node8 -->
<g id="node8" class="node"><title>Node8</title>
<g id="a_node8"><a xlink:href="../../d7/dcd/MCCompLabel_8h.html" target="_top" xlink:title="SimulationDataFormat\l/MCCompLabel.h">
<polygon fill="none" stroke="black" points="0,-137 0,-167 114,-167 114,-137 0,-137"/>
<text text-anchor="start" x="8" y="-155" font-family="Helvetica,sans-Serif" font-size="10.00">SimulationDataFormat</text>
<text text-anchor="middle" x="57" y="-144" font-family="Helvetica,sans-Serif" font-size="10.00">/MCCompLabel.h</text>
</a>
</g>
</g>
<!-- Node1&#45;&gt;Node8 -->
<g id="edge62" class="edge"><title>Node1&#45;&gt;Node8</title>
<path fill="none" stroke="midnightblue" d="M632.955,-366.411C487.211,-358.156 208.513,-338.38 116,-304 65.9638,-285.405 41.8609,-283.237 17,-236 6.24427,-215.564 20.3425,-191.779 34.6821,-174.923"/>
<polygon fill="midnightblue" stroke="midnightblue" points="37.5133,-177.011 41.6331,-167.25 32.3254,-172.312 37.5133,-177.011"/>
</g>
<!-- Node11 -->
<g id="node11" class="node"><title>Node11</title>
<g id="a_node11"><a xlink:href="../../dc/d1a/AlpideSimResponse_8h.html" target="_top" xlink:title="Definition of the ITSMFT Alpide simulated response parametrization. ">
<polygon fill="none" stroke="black" points="329,-205 329,-235 475,-235 475,-205 329,-205"/>
<text text-anchor="start" x="337" y="-223" font-family="Helvetica,sans-Serif" font-size="10.00">ITSMFTSimulation/AlpideSim</text>
<text text-anchor="middle" x="402" y="-212" font-family="Helvetica,sans-Serif" font-size="10.00">Response.h</text>
</a>
</g>
</g>
<!-- Node1&#45;&gt;Node11 -->
<g id="edge13" class="edge"><title>Node1&#45;&gt;Node11</title>
<path fill="none" stroke="midnightblue" d="M658.45,-340.464C593.4,-310.161 495.813,-264.702 441.706,-239.497"/>
<polygon fill="midnightblue" stroke="midnightblue" points="442.989,-236.233 432.446,-235.183 440.033,-242.579 442.989,-236.233"/>
</g>
<!-- Node14 -->
<g id="node14" class="node"><title>Node14</title>
<g id="a_node14"><a xlink:href="../../df/d29/DigiParams_8h.html" target="_top" xlink:title="Simulation parameters for the ALIPIDE chip. ">
<polygon fill="none" stroke="black" points="493.5,-210.5 493.5,-229.5 654.5,-229.5 654.5,-210.5 493.5,-210.5"/>
<text text-anchor="middle" x="574" y="-217.5" font-family="Helvetica,sans-Serif" font-size="10.00">ITSMFTSimulation/DigiParams.h</text>
</a>
</g>
</g>
<!-- Node1&#45;&gt;Node14 -->
<g id="edge18" class="edge"><title>Node1&#45;&gt;Node14</title>
<path fill="none" stroke="midnightblue" d="M693.283,-340.283C661.883,-308.883 614.347,-261.347 589.843,-236.843"/>
<polygon fill="midnightblue" stroke="midnightblue" points="592.292,-234.343 582.746,-229.746 587.343,-239.292 592.292,-234.343"/>
</g>
<!-- Node16 -->
<g id="node16" class="node"><title>Node16</title>
<g id="a_node16"><a xlink:href="../../d0/dae/ITSMFT_2common_2simulation_2include_2ITSMFTSimulation_2Hit_8h.html" target="_top" xlink:title="ITSMFTSimulation/Hit.h">
<polygon fill="none" stroke="black" points="1035,-278.5 1035,-297.5 1157,-297.5 1157,-278.5 1035,-278.5"/>
<text text-anchor="middle" x="1096" y="-285.5" font-family="Helvetica,sans-Serif" font-size="10.00">ITSMFTSimulation/Hit.h</text>
</a>
</g>
</g>
<!-- Node1&#45;&gt;Node16 -->
<g id="edge22" class="edge"><title>Node1&#45;&gt;Node16</title>
<path fill="none" stroke="midnightblue" d="M815.001,-350.941C888.405,-334.76 988.792,-312.632 1047.58,-299.673"/>
<polygon fill="midnightblue" stroke="midnightblue" points="1048.34,-303.089 1057.36,-297.518 1046.84,-296.253 1048.34,-303.089"/>
</g>
<!-- Node30 -->
<g id="node30" class="node"><title>Node30</title>
<g id="a_node30"><a xlink:href="../../d0/d2d/common_2base_2include_2ITSMFTBase_2GeometryTGeo_8h.html" target="_top" xlink:title="ITSMFTBase/GeometryTGeo.h">
<polygon fill="none" stroke="black" points="836.5,-278.5 836.5,-297.5 989.5,-297.5 989.5,-278.5 836.5,-278.5"/>
<text text-anchor="middle" x="913" y="-285.5" font-family="Helvetica,sans-Serif" font-size="10.00">ITSMFTBase/GeometryTGeo.h</text>
</a>
</g>
</g>
<!-- Node1&#45;&gt;Node30 -->
<g id="edge39" class="edge"><title>Node1&#45;&gt;Node30</title>
<path fill="none" stroke="midnightblue" d="M794.377,-340.466C825.37,-327.019 860.074,-311.963 883.897,-301.627"/>
<polygon fill="midnightblue" stroke="midnightblue" points="885.306,-304.831 893.086,-297.64 882.52,-298.409 885.306,-304.831"/>
</g>
<!-- Node42 -->
<g id="node42" class="node"><title>Node42</title>
<g id="a_node42"><a xlink:href="../../d0/d06/ITSMFT_2common_2base_2include_2ITSMFTBase_2Digit_8h.html" target="_top" xlink:title="ITSMFTBase/Digit.h">
<polygon fill="none" stroke="black" points="711.5,-278.5 711.5,-297.5 818.5,-297.5 818.5,-278.5 711.5,-278.5"/>
<text text-anchor="middle" x="765" y="-285.5" font-family="Helvetica,sans-Serif" font-size="10.00">ITSMFTBase/Digit.h</text>
</a>
</g>
</g>
<!-- Node1&#45;&gt;Node42 -->
<g id="edge59" class="edge"><title>Node1&#45;&gt;Node42</title>
<path fill="none" stroke="midnightblue" d="M739.267,-340.466C744.944,-329.111 751.196,-316.608 756.116,-306.769"/>
<polygon fill="midnightblue" stroke="midnightblue" points="759.338,-308.149 760.68,-297.64 753.077,-305.019 759.338,-308.149"/>
</g>
<!-- Node7&#45;&gt;Node2 -->
<g id="edge12" class="edge"><title>Node7&#45;&gt;Node2</title>
<path fill="none" stroke="midnightblue" d="M201.645,-272.785C205.377,-255.408 213.417,-225.647 228,-204 237.645,-189.682 252.259,-176.866 264.404,-167.663"/>
<polygon fill="midnightblue" stroke="midnightblue" points="266.674,-170.341 272.705,-161.63 262.558,-164.678 266.674,-170.341"/>
</g>
<!-- Node7&#45;&gt;Node8 -->
<g id="edge7" class="edge"><title>Node7&#45;&gt;Node8</title>
<path fill="none" stroke="midnightblue" d="M125.264,-274.344C83.9846,-265.593 38.376,-252.551 26,-236 12.3843,-217.791 24.8267,-192.939 37.7749,-175.185"/>
<polygon fill="midnightblue" stroke="midnightblue" points="40.6857,-177.144 44.0599,-167.101 35.1591,-172.847 40.6857,-177.144"/>
</g>
<!-- Node9 -->
<g id="node9" class="node"><title>Node9</title>
<g id="a_node9"><a xlink:href="../../d2/d53/PreDigit_8h.html" target="_top" xlink:title="Definition of the digit contribution from single hit. ">
<polygon fill="none" stroke="black" points="35.5,-210.5 35.5,-229.5 180.5,-229.5 180.5,-210.5 35.5,-210.5"/>
<text text-anchor="middle" x="108" y="-217.5" font-family="Helvetica,sans-Serif" font-size="10.00">ITSMFTSimulation/PreDigit.h</text>
</a>
</g>
</g>
<!-- Node7&#45;&gt;Node9 -->
<g id="edge9" class="edge"><title>Node7&#45;&gt;Node9</title>
<path fill="none" stroke="midnightblue" d="M179.254,-272.679C164.135,-261.713 143.359,-246.645 128.142,-235.609"/>
<polygon fill="midnightblue" stroke="midnightblue" points="130.06,-232.676 119.91,-229.638 125.95,-238.342 130.06,-232.676"/>
</g>
<!-- Node10 -->
<g id="node10" class="node"><title>Node10</title>
<polygon fill="none" stroke="#bfbfbf" points="237.5,-210.5 237.5,-229.5 272.5,-229.5 272.5,-210.5 237.5,-210.5"/>
<text text-anchor="middle" x="255" y="-217.5" font-family="Helvetica,sans-Serif" font-size="10.00">map</text>
</g>
<!-- Node7&#45;&gt;Node10 -->
<g id="edge11" class="edge"><title>Node7&#45;&gt;Node10</title>
<path fill="none" stroke="midnightblue" d="M211.151,-272.679C219.883,-262.388 231.68,-248.484 240.839,-237.69"/>
<polygon fill="midnightblue" stroke="midnightblue" points="243.708,-239.718 247.509,-229.828 238.371,-235.189 243.708,-239.718"/>
</g>
<!-- Node8&#45;&gt;Node5 -->
<g id="edge8" class="edge"><title>Node8&#45;&gt;Node5</title>
<path fill="none" stroke="midnightblue" d="M114.101,-145.056C241.354,-131.809 545.446,-100.152 652.73,-88.984"/>
<polygon fill="midnightblue" stroke="midnightblue" points="653.195,-92.4546 662.779,-87.9379 652.47,-85.4922 653.195,-92.4546"/>
</g>
<!-- Node9&#45;&gt;Node8 -->
<g id="edge10" class="edge"><title>Node9&#45;&gt;Node8</title>
<path fill="none" stroke="midnightblue" d="M101.333,-210.372C94.4442,-201.457 83.4131,-187.182 74.0782,-175.101"/>
<polygon fill="midnightblue" stroke="midnightblue" points="76.8424,-172.954 67.9584,-167.181 71.3034,-177.234 76.8424,-172.954"/>
</g>
<!-- Node11&#45;&gt;Node2 -->
<g id="edge16" class="edge"><title>Node11&#45;&gt;Node2</title>
<path fill="none" stroke="midnightblue" d="M377.115,-204.841C357.32,-193.579 329.787,-177.913 310.179,-166.757"/>
<polygon fill="midnightblue" stroke="midnightblue" points="311.682,-163.585 301.259,-161.682 308.22,-169.669 311.682,-163.585"/>
</g>
<!-- Node11&#45;&gt;Node5 -->
<g id="edge17" class="edge"><title>Node11&#45;&gt;Node5</title>
<path fill="none" stroke="midnightblue" d="M400.711,-204.734C399.885,-186.172 401.505,-153.993 420,-136 452.573,-104.312 585.868,-91.5756 652.586,-87.1088"/>
<polygon fill="midnightblue" stroke="midnightblue" points="652.94,-90.5934 662.696,-86.4613 652.493,-83.6077 652.94,-90.5934"/>
</g>
<!-- Node12 -->
<g id="node12" class="node"><title>Node12</title>
<polygon fill="none" stroke="#bfbfbf" points="753,-6.5 753,-25.5 791,-25.5 791,-6.5 753,-6.5"/>
<text text-anchor="middle" x="772" y="-13.5" font-family="Helvetica,sans-Serif" font-size="10.00">array</text>
</g>
<!-- Node11&#45;&gt;Node12 -->
<g id="edge14" class="edge"><title>Node11&#45;&gt;Node12</title>
<path fill="none" stroke="midnightblue" d="M396.869,-204.834C391.379,-186.964 385.297,-156.14 400,-136 441.707,-78.8697 662.508,-35.8212 742.79,-21.8468"/>
<polygon fill="midnightblue" stroke="midnightblue" points="743.461,-25.2829 752.724,-20.1417 742.276,-18.3838 743.461,-25.2829"/>
</g>
<!-- Node13 -->
<g id="node13" class="node"><title>Node13</title>
<polygon fill="none" stroke="#bfbfbf" points="440.5,-142.5 440.5,-161.5 481.5,-161.5 481.5,-142.5 440.5,-142.5"/>
<text text-anchor="middle" x="461" y="-149.5" font-family="Helvetica,sans-Serif" font-size="10.00">string</text>
</g>
<!-- Node11&#45;&gt;Node13 -->
<g id="edge15" class="edge"><title>Node11&#45;&gt;Node13</title>
<path fill="none" stroke="midnightblue" d="M414.802,-204.679C424.093,-194.286 436.678,-180.208 446.366,-169.37"/>
<polygon fill="midnightblue" stroke="midnightblue" points="449.053,-171.616 453.108,-161.828 443.834,-166.951 449.053,-171.616"/>
</g>
<!-- Node14&#45;&gt;Node5 -->
<g id="edge19" class="edge"><title>Node14&#45;&gt;Node5</title>
<path fill="none" stroke="midnightblue" d="M528.242,-210.473C475.403,-198.628 399.536,-174.235 431,-136 458.618,-102.438 587.145,-90.6351 652.549,-86.7553"/>
<polygon fill="midnightblue" stroke="midnightblue" points="653.068,-90.2319 662.857,-86.1787 652.677,-83.2428 653.068,-90.2319"/>
</g>
<!-- Node15 -->
<g id="node15" class="node"><title>Node15</title>
<g id="a_node15"><a xlink:href="../../d1/d47/AlpideSignalTrapezoid_8h.html" target="_top" xlink:title="Simple class describing ALPIDE signal time shape. ">
<polygon fill="none" stroke="black" points="499.5,-137 499.5,-167 654.5,-167 654.5,-137 499.5,-137"/>
<text text-anchor="start" x="507.5" y="-155" font-family="Helvetica,sans-Serif" font-size="10.00">ITSMFTSimulation/AlpideSignal</text>
<text text-anchor="middle" x="577" y="-144" font-family="Helvetica,sans-Serif" font-size="10.00">Trapezoid.h</text>
</a>
</g>
</g>
<!-- Node14&#45;&gt;Node15 -->
<g id="edge20" class="edge"><title>Node14&#45;&gt;Node15</title>
<path fill="none" stroke="midnightblue" d="M574.392,-210.372C574.774,-201.971 575.372,-188.811 575.899,-177.213"/>
<polygon fill="midnightblue" stroke="midnightblue" points="579.398,-177.33 576.355,-167.181 572.405,-177.012 579.398,-177.33"/>
</g>
<!-- Node15&#45;&gt;Node5 -->
<g id="edge21" class="edge"><title>Node15&#45;&gt;Node5</title>
<path fill="none" stroke="midnightblue" d="M601.456,-136.841C620.909,-125.579 647.968,-109.913 667.238,-98.7572"/>
<polygon fill="midnightblue" stroke="midnightblue" points="669.103,-101.721 676.004,-93.6819 665.596,-95.6633 669.103,-101.721"/>
</g>
<!-- Node16&#45;&gt;Node5 -->
<g id="edge36" class="edge"><title>Node16&#45;&gt;Node5</title>
<path fill="none" stroke="midnightblue" d="M1100.51,-278.101C1108.18,-261.54 1121.36,-225.704 1104,-204 1058.47,-147.083 1013.47,-190.068 944,-168 908.68,-156.78 901.964,-148.288 867,-136 820.152,-119.536 765.001,-104.189 729.09,-94.7172"/>
<polygon fill="midnightblue" stroke="midnightblue" points="729.604,-91.2341 719.044,-92.0888 727.832,-98.0061 729.604,-91.2341"/>
</g>
<!-- Node17 -->
<g id="node17" class="node"><title>Node17</title>
<g id="a_node17"><a xlink:href="../../d4/d25/BaseHits_8h.html" target="_top" xlink:title="SimulationDataFormat\l/BaseHits.h">
<polygon fill="none" stroke="black" points="1384,-205 1384,-235 1498,-235 1498,-205 1384,-205"/>
<text text-anchor="start" x="1392" y="-223" font-family="Helvetica,sans-Serif" font-size="10.00">SimulationDataFormat</text>
<text text-anchor="middle" x="1441" y="-212" font-family="Helvetica,sans-Serif" font-size="10.00">/BaseHits.h</text>
</a>
</g>
</g>
<!-- Node16&#45;&gt;Node17 -->
<g id="edge23" class="edge"><title>Node16&#45;&gt;Node17</title>
<path fill="none" stroke="midnightblue" d="M1135.4,-278.499C1145.67,-276.331 1156.74,-274.038 1167,-272 1237.48,-257.998 1318.4,-243.079 1373.92,-233.018"/>
<polygon fill="midnightblue" stroke="midnightblue" points="1374.77,-236.422 1383.98,-231.198 1373.52,-229.534 1374.77,-236.422"/>
</g>
<!-- Node25 -->
<g id="node25" class="node"><title>Node25</title>
<polygon fill="none" stroke="#bfbfbf" points="2322.5,-74.5 2322.5,-93.5 2367.5,-93.5 2367.5,-74.5 2322.5,-74.5"/>
<text text-anchor="middle" x="2345" y="-81.5" font-family="Helvetica,sans-Serif" font-size="10.00">iosfwd</text>
</g>
<!-- Node16&#45;&gt;Node25 -->
<g id="edge38" class="edge"><title>Node16&#45;&gt;Node25</title>
<path fill="none" stroke="midnightblue" d="M1132.72,-278.492C1143.7,-276.151 1155.8,-273.771 1167,-272 1317.09,-248.264 1356.46,-256.667 1507,-236 1866.48,-186.651 1965.04,-206.187 2312,-100 2314.28,-99.3007 2316.62,-98.4789 2318.93,-97.5863"/>
<polygon fill="midnightblue" stroke="midnightblue" points="2320.36,-100.782 2328.2,-93.6509 2317.63,-94.3389 2320.36,-100.782"/>
</g>
<!-- Node29 -->
<g id="node29" class="node"><title>Node29</title>
<polygon fill="none" stroke="#bfbfbf" points="1151.5,-210.5 1151.5,-229.5 1216.5,-229.5 1216.5,-210.5 1151.5,-210.5"/>
<text text-anchor="middle" x="1184" y="-217.5" font-family="Helvetica,sans-Serif" font-size="10.00">TVector3.h</text>
</g>
<!-- Node16&#45;&gt;Node29 -->
<g id="edge37" class="edge"><title>Node16&#45;&gt;Node29</title>
<path fill="none" stroke="midnightblue" d="M1107.5,-278.372C1121.87,-267.6 1146.66,-249.002 1164.12,-235.906"/>
<polygon fill="midnightblue" stroke="midnightblue" points="1166.59,-238.431 1172.49,-229.63 1162.39,-232.83 1166.59,-238.431"/>
</g>
<!-- Node18 -->
<g id="node18" class="node"><title>Node18</title>
<g id="a_node18"><a xlink:href="../../dd/d76/Cartesian3D_8h.html" target="_top" xlink:title="MathUtils/Cartesian3D.h">
<polygon fill="none" stroke="black" points="1527.5,-142.5 1527.5,-161.5 1652.5,-161.5 1652.5,-142.5 1527.5,-142.5"/>
<text text-anchor="middle" x="1590" y="-149.5" font-family="Helvetica,sans-Serif" font-size="10.00">MathUtils/Cartesian3D.h</text>
</a>
</g>
</g>
<!-- Node17&#45;&gt;Node18 -->
<g id="edge24" class="edge"><title>Node17&#45;&gt;Node18</title>
<path fill="none" stroke="midnightblue" d="M1472.96,-204.841C1499.08,-193.272 1535.69,-177.055 1560.98,-165.855"/>
<polygon fill="midnightblue" stroke="midnightblue" points="1562.67,-168.932 1570.4,-161.682 1559.84,-162.532 1562.67,-168.932"/>
</g>
<!-- Node18&#45;&gt;Node5 -->
<g id="edge30" class="edge"><title>Node18&#45;&gt;Node5</title>
<path fill="none" stroke="midnightblue" d="M1527.46,-148.103C1395.34,-141.716 1078.14,-124.981 813,-100 784.869,-97.3496 753.201,-93.4282 729.181,-90.2596"/>
<polygon fill="midnightblue" stroke="midnightblue" points="729.431,-86.762 719.056,-88.9089 728.505,-93.7005 729.431,-86.762"/>
</g>
<!-- Node19 -->
<g id="node19" class="node"><title>Node19</title>
<polygon fill="none" stroke="#bfbfbf" points="1958.5,-69 1958.5,-99 2109.5,-99 2109.5,-69 1958.5,-69"/>
<text text-anchor="start" x="1966.5" y="-87" font-family="Helvetica,sans-Serif" font-size="10.00">Math/GenVector/Displacement</text>
<text text-anchor="middle" x="2034" y="-76" font-family="Helvetica,sans-Serif" font-size="10.00">Vector3D.h</text>
</g>
<!-- Node18&#45;&gt;Node19 -->
<g id="edge25" class="edge"><title>Node18&#45;&gt;Node19</title>
<path fill="none" stroke="midnightblue" d="M1652.68,-142.744C1722.3,-133.428 1838.29,-117.475 1948.52,-100.045"/>
<polygon fill="midnightblue" stroke="midnightblue" points="1949.15,-103.488 1958.48,-98.4629 1948.05,-96.5745 1949.15,-103.488"/>
</g>
<!-- Node20 -->
<g id="node20" class="node"><title>Node20</title>
<polygon fill="none" stroke="#bfbfbf" points="2128,-74.5 2128,-93.5 2304,-93.5 2304,-74.5 2128,-74.5"/>
<text text-anchor="middle" x="2216" y="-81.5" font-family="Helvetica,sans-Serif" font-size="10.00">Math/GenVector/PositionVector3D.h</text>
</g>
<!-- Node18&#45;&gt;Node20 -->
<g id="edge26" class="edge"><title>Node18&#45;&gt;Node20</title>
<path fill="none" stroke="midnightblue" d="M1652.71,-146.078C1751.73,-138.051 1950.31,-120.916 2118,-100 2129.68,-98.5437 2142.1,-96.7956 2154.05,-95.0154"/>
<polygon fill="midnightblue" stroke="midnightblue" points="2154.58,-98.475 2163.94,-93.5181 2153.53,-91.5538 2154.58,-98.475"/>
</g>
<!-- Node21 -->
<g id="node21" class="node"><title>Node21</title>
<polygon fill="none" stroke="#bfbfbf" points="1344.5,-74.5 1344.5,-93.5 1493.5,-93.5 1493.5,-74.5 1344.5,-74.5"/>
<text text-anchor="middle" x="1419" y="-81.5" font-family="Helvetica,sans-Serif" font-size="10.00">Math/GenVector/Rotation3D.h</text>
</g>
<!-- Node18&#45;&gt;Node21 -->
<g id="edge27" class="edge"><title>Node18&#45;&gt;Node21</title>
<path fill="none" stroke="midnightblue" d="M1567.64,-142.372C1537.73,-130.827 1484.53,-110.293 1450.55,-97.1772"/>
<polygon fill="midnightblue" stroke="midnightblue" points="1451.68,-93.8615 1441.09,-93.5259 1449.16,-100.392 1451.68,-93.8615"/>
</g>
<!-- Node22 -->
<g id="node22" class="node"><title>Node22</title>
<polygon fill="none" stroke="#bfbfbf" points="1512,-74.5 1512,-93.5 1668,-93.5 1668,-74.5 1512,-74.5"/>
<text text-anchor="middle" x="1590" y="-81.5" font-family="Helvetica,sans-Serif" font-size="10.00">Math/GenVector/Transform3D.h</text>
</g>
<!-- Node18&#45;&gt;Node22 -->
<g id="edge28" class="edge"><title>Node18&#45;&gt;Node22</title>
<path fill="none" stroke="midnightblue" d="M1590,-142.372C1590,-132.643 1590,-116.528 1590,-103.85"/>
<polygon fill="midnightblue" stroke="midnightblue" points="1593.5,-103.841 1590,-93.8411 1586.5,-103.841 1593.5,-103.841"/>
</g>
<!-- Node23 -->
<g id="node23" class="node"><title>Node23</title>
<polygon fill="none" stroke="#bfbfbf" points="1686,-74.5 1686,-93.5 1846,-93.5 1846,-74.5 1686,-74.5"/>
<text text-anchor="middle" x="1766" y="-81.5" font-family="Helvetica,sans-Serif" font-size="10.00">Math/GenVector/Translation3D.h</text>
</g>
<!-- Node18&#45;&gt;Node23 -->
<g id="edge29" class="edge"><title>Node18&#45;&gt;Node23</title>
<path fill="none" stroke="midnightblue" d="M1613.01,-142.372C1643.79,-130.827 1698.55,-110.293 1733.53,-97.1772"/>
<polygon fill="midnightblue" stroke="midnightblue" points="1735.13,-100.314 1743.26,-93.5259 1732.67,-93.76 1735.13,-100.314"/>
</g>
<!-- Node24 -->
<g id="node24" class="node"><title>Node24</title>
<polygon fill="none" stroke="#bfbfbf" points="1864,-74.5 1864,-93.5 1940,-93.5 1940,-74.5 1864,-74.5"/>
<text text-anchor="middle" x="1902" y="-81.5" font-family="Helvetica,sans-Serif" font-size="10.00">TGeoMatrix.h</text>
</g>
<!-- Node18&#45;&gt;Node24 -->
<g id="edge31" class="edge"><title>Node18&#45;&gt;Node24</title>
<path fill="none" stroke="midnightblue" d="M1644.47,-142.464C1698.34,-133.566 1782.93,-118.367 1855,-100 1858.9,-99.0052 1862.96,-97.8697 1866.98,-96.6787"/>
<polygon fill="midnightblue" stroke="midnightblue" points="1868.27,-99.9441 1876.79,-93.6525 1866.2,-93.255 1868.27,-99.9441"/>
</g>
<!-- Node18&#45;&gt;Node25 -->
<g id="edge32" class="edge"><title>Node18&#45;&gt;Node25</title>
<path fill="none" stroke="midnightblue" d="M1652.73,-149.422C1804.47,-145.146 2188,-131.475 2312,-100 2314.65,-99.3265 2317.36,-98.4488 2320.02,-97.4557"/>
<polygon fill="midnightblue" stroke="midnightblue" points="2321.47,-100.643 2329.3,-93.5121 2318.73,-94.2003 2321.47,-100.643"/>
</g>
<!-- Node26 -->
<g id="node26" class="node"><title>Node26</title>
<g id="a_node26"><a xlink:href="../../d2/dd0/Cartesian2D_8h.html" target="_top" xlink:title="MathUtils/Cartesian2D.h">
<polygon fill="none" stroke="black" points="1201.5,-74.5 1201.5,-93.5 1326.5,-93.5 1326.5,-74.5 1201.5,-74.5"/>
<text text-anchor="middle" x="1264" y="-81.5" font-family="Helvetica,sans-Serif" font-size="10.00">MathUtils/Cartesian2D.h</text>
</a>
</g>
</g>
<!-- Node18&#45;&gt;Node26 -->
<g id="edge33" class="edge"><title>Node18&#45;&gt;Node26</title>
<path fill="none" stroke="midnightblue" d="M1546.84,-142.432C1496.28,-132.375 1410.03,-115.143 1336,-100 1329.19,-98.6074 1322.02,-97.129 1314.96,-95.6642"/>
<polygon fill="midnightblue" stroke="midnightblue" points="1315.24,-92.147 1304.73,-93.5395 1313.81,-99.0006 1315.24,-92.147"/>
</g>
<!-- Node27 -->
<g id="node27" class="node"><title>Node27</title>
<polygon fill="none" stroke="#bfbfbf" points="1152.5,-1 1152.5,-31 1303.5,-31 1303.5,-1 1152.5,-1"/>
<text text-anchor="start" x="1160.5" y="-19" font-family="Helvetica,sans-Serif" font-size="10.00">Math/GenVector/Displacement</text>
<text text-anchor="middle" x="1228" y="-8" font-family="Helvetica,sans-Serif" font-size="10.00">Vector2D.h</text>
</g>
<!-- Node26&#45;&gt;Node27 -->
<g id="edge34" class="edge"><title>Node26&#45;&gt;Node27</title>
<path fill="none" stroke="midnightblue" d="M1259.29,-74.3717C1254.57,-65.7143 1247.09,-52.0008 1240.63,-40.152"/>
<polygon fill="midnightblue" stroke="midnightblue" points="1243.6,-38.2844 1235.74,-31.1815 1237.45,-41.6364 1243.6,-38.2844"/>
</g>
<!-- Node28 -->
<g id="node28" class="node"><title>Node28</title>
<polygon fill="none" stroke="#bfbfbf" points="1322,-6.5 1322,-25.5 1498,-25.5 1498,-6.5 1322,-6.5"/>
<text text-anchor="middle" x="1410" y="-13.5" font-family="Helvetica,sans-Serif" font-size="10.00">Math/GenVector/PositionVector2D.h</text>
</g>
<!-- Node26&#45;&gt;Node28 -->
<g id="edge35" class="edge"><title>Node26&#45;&gt;Node28</title>
<path fill="none" stroke="midnightblue" d="M1283.09,-74.3717C1308.23,-63.0075 1352.64,-42.9309 1381.69,-29.7961"/>
<polygon fill="midnightblue" stroke="midnightblue" points="1383.24,-32.939 1390.91,-25.6305 1380.35,-26.5605 1383.24,-32.939"/>
</g>
<!-- Node30&#45;&gt;Node13 -->
<g id="edge41" class="edge"><title>Node30&#45;&gt;Node13</title>
<path fill="none" stroke="midnightblue" d="M900.511,-278.392C886.19,-268.439 862.1,-251.44 842,-236 824.219,-222.342 823.644,-212.748 803,-204 674.07,-149.365 623.941,-208.836 490,-168 488.089,-167.417 486.154,-166.711 484.238,-165.925"/>
<polygon fill="midnightblue" stroke="midnightblue" points="485.554,-162.675 475.019,-161.551 482.553,-169 485.554,-162.675"/>
</g>
<!-- Node31 -->
<g id="node31" class="node"><title>Node31</title>
<polygon fill="none" stroke="#bfbfbf" points="851.5,-210.5 851.5,-229.5 920.5,-229.5 920.5,-210.5 851.5,-210.5"/>
<text text-anchor="middle" x="886" y="-217.5" font-family="Helvetica,sans-Serif" font-size="10.00">TObjArray.h</text>
</g>
<!-- Node30&#45;&gt;Node31 -->
<g id="edge40" class="edge"><title>Node30&#45;&gt;Node31</title>
<path fill="none" stroke="midnightblue" d="M909.47,-278.372C905.45,-268.544 898.764,-252.202 893.555,-239.467"/>
<polygon fill="midnightblue" stroke="midnightblue" points="896.643,-237.771 889.617,-229.841 890.164,-240.422 896.643,-237.771"/>
</g>
<!-- Node32 -->
<g id="node32" class="node"><title>Node32</title>
<g id="a_node32"><a xlink:href="../../d4/d20/DetMatrixCache_8h.html" target="_top" xlink:title="DetectorsCommonDataFormats\l/DetMatrixCache.h">
<polygon fill="none" stroke="black" points="939,-205 939,-235 1095,-235 1095,-205 939,-205"/>
<text text-anchor="start" x="947" y="-223" font-family="Helvetica,sans-Serif" font-size="10.00">DetectorsCommonDataFormats</text>
<text text-anchor="middle" x="1017" y="-212" font-family="Helvetica,sans-Serif" font-size="10.00">/DetMatrixCache.h</text>
</a>
</g>
</g>
<!-- Node30&#45;&gt;Node32 -->
<g id="edge42" class="edge"><title>Node30&#45;&gt;Node32</title>
<path fill="none" stroke="midnightblue" d="M926.596,-278.372C941.589,-268.857 966.204,-253.236 985.967,-240.694"/>
<polygon fill="midnightblue" stroke="midnightblue" points="988.086,-243.495 994.653,-235.181 984.335,-237.585 988.086,-243.495"/>
</g>
<!-- Node32&#45;&gt;Node2 -->
<g id="edge45" class="edge"><title>Node32&#45;&gt;Node2</title>
<path fill="none" stroke="midnightblue" d="M938.847,-205.275C935.524,-204.819 932.231,-204.391 929,-204 708.698,-177.325 652.06,-187.42 431,-168 392.156,-164.588 347.544,-159.849 318.179,-156.617"/>
<polygon fill="midnightblue" stroke="midnightblue" points="318.413,-153.122 308.089,-155.5 317.643,-160.079 318.413,-153.122"/>
</g>
<!-- Node32&#45;&gt;Node5 -->
<g id="edge58" class="edge"><title>Node32&#45;&gt;Node5</title>
<path fill="none" stroke="midnightblue" d="M941.226,-204.976C876.813,-192.701 792.513,-175.668 778,-168 746.929,-151.584 719.101,-120.868 703.687,-101.757"/>
<polygon fill="midnightblue" stroke="midnightblue" points="706.258,-99.3634 697.334,-93.6528 700.75,-103.682 706.258,-99.3634"/>
</g>
<!-- Node32&#45;&gt;Node12 -->
<g id="edge44" class="edge"><title>Node32&#45;&gt;Node12</title>
<path fill="none" stroke="midnightblue" d="M993.2,-204.941C963.916,-187.851 912.481,-158.507 867,-136 831.327,-118.346 809.285,-131.535 785,-100 770.85,-81.6261 769.262,-54.0581 770.09,-35.8048"/>
<polygon fill="midnightblue" stroke="midnightblue" points="773.583,-36.039 770.828,-25.8086 766.602,-35.5241 773.583,-36.039"/>
</g>
<!-- Node32&#45;&gt;Node18 -->
<g id="edge57" class="edge"><title>Node32&#45;&gt;Node18</title>
<path fill="none" stroke="midnightblue" d="M1095.01,-209.565C1110.57,-207.703 1126.8,-205.777 1142,-204 1274.32,-188.529 1428.71,-171.088 1517.34,-161.134"/>
<polygon fill="midnightblue" stroke="midnightblue" points="1517.74,-164.611 1527.29,-160.017 1516.96,-157.655 1517.74,-164.611"/>
</g>
<!-- Node33 -->
<g id="node33" class="node"><title>Node33</title>
<polygon fill="none" stroke="#bfbfbf" points="787.5,-142.5 787.5,-161.5 858.5,-161.5 858.5,-142.5 787.5,-142.5"/>
<text text-anchor="middle" x="823" y="-149.5" font-family="Helvetica,sans-Serif" font-size="10.00">FairLogger.h</text>
</g>
<!-- Node32&#45;&gt;Node33 -->
<g id="edge43" class="edge"><title>Node32&#45;&gt;Node33</title>
<path fill="none" stroke="midnightblue" d="M975.382,-204.841C940.371,-192.93 890.883,-176.094 857.909,-164.876"/>
<polygon fill="midnightblue" stroke="midnightblue" points="858.834,-161.494 848.24,-161.587 856.58,-168.121 858.834,-161.494"/>
</g>
<!-- Node34 -->
<g id="node34" class="node"><title>Node34</title>
<g id="a_node34"><a xlink:href="../../d6/d31/DetID_8h.html" target="_top" xlink:title="DetectorsCommonDataFormats\l/DetID.h">
<polygon fill="none" stroke="black" points="953,-137 953,-167 1109,-167 1109,-137 953,-137"/>
<text text-anchor="start" x="961" y="-155" font-family="Helvetica,sans-Serif" font-size="10.00">DetectorsCommonDataFormats</text>
<text text-anchor="middle" x="1031" y="-144" font-family="Helvetica,sans-Serif" font-size="10.00">/DetID.h</text>
</a>
</g>
</g>
<!-- Node32&#45;&gt;Node34 -->
<g id="edge46" class="edge"><title>Node32&#45;&gt;Node34</title>
<path fill="none" stroke="midnightblue" d="M1020.04,-204.679C1021.74,-196.636 1023.92,-186.385 1025.88,-177.137"/>
<polygon fill="midnightblue" stroke="midnightblue" points="1029.32,-177.802 1027.97,-167.293 1022.47,-176.349 1029.32,-177.802"/>
</g>
<!-- Node34&#45;&gt;Node5 -->
<g id="edge47" class="edge"><title>Node34&#45;&gt;Node5</title>
<path fill="none" stroke="midnightblue" d="M958.479,-136.922C888.305,-123.3 784.663,-103.182 729.249,-92.4248"/>
<polygon fill="midnightblue" stroke="midnightblue" points="729.641,-88.9357 719.158,-90.4659 728.307,-95.8074 729.641,-88.9357"/>
</g>
<!-- Node34&#45;&gt;Node12 -->
<g id="edge48" class="edge"><title>Node34&#45;&gt;Node12</title>
<path fill="none" stroke="midnightblue" d="M957.154,-136.961C898.518,-125.28 824.512,-109.137 813,-100 792.48,-83.7127 781.468,-54.5149 776.177,-35.4518"/>
<polygon fill="midnightblue" stroke="midnightblue" points="779.526,-34.4179 773.693,-25.5731 772.737,-36.1247 779.526,-34.4179"/>
</g>
<!-- Node35 -->
<g id="node35" class="node"><title>Node35</title>
<polygon fill="none" stroke="#bfbfbf" points="1010.5,-74.5 1010.5,-93.5 1051.5,-93.5 1051.5,-74.5 1010.5,-74.5"/>
<text text-anchor="middle" x="1031" y="-81.5" font-family="Helvetica,sans-Serif" font-size="10.00">bitset</text>
</g>
<!-- Node34&#45;&gt;Node35 -->
<g id="edge49" class="edge"><title>Node34&#45;&gt;Node35</title>
<path fill="none" stroke="midnightblue" d="M1031,-136.679C1031,-127.101 1031,-114.394 1031,-103.977"/>
<polygon fill="midnightblue" stroke="midnightblue" points="1034.5,-103.828 1031,-93.8283 1027.5,-103.828 1034.5,-103.828"/>
</g>
<!-- Node36 -->
<g id="node36" class="node"><title>Node36</title>
<polygon fill="none" stroke="#bfbfbf" points="1069.5,-74.5 1069.5,-93.5 1118.5,-93.5 1118.5,-74.5 1069.5,-74.5"/>
<text text-anchor="middle" x="1094" y="-81.5" font-family="Helvetica,sans-Serif" font-size="10.00">cassert</text>
</g>
<!-- Node34&#45;&gt;Node36 -->
<g id="edge50" class="edge"><title>Node34&#45;&gt;Node36</title>
<path fill="none" stroke="midnightblue" d="M1044.67,-136.679C1054.59,-126.286 1068.03,-112.208 1078.37,-101.37"/>
<polygon fill="midnightblue" stroke="midnightblue" points="1081.2,-103.479 1085.57,-93.8283 1076.14,-98.6452 1081.2,-103.479"/>
</g>
<!-- Node37 -->
<g id="node37" class="node"><title>Node37</title>
<polygon fill="none" stroke="#bfbfbf" points="1137,-74.5 1137,-93.5 1183,-93.5 1183,-74.5 1137,-74.5"/>
<text text-anchor="middle" x="1160" y="-81.5" font-family="Helvetica,sans-Serif" font-size="10.00">cstdint</text>
</g>
<!-- Node34&#45;&gt;Node37 -->
<g id="edge51" class="edge"><title>Node34&#45;&gt;Node37</title>
<path fill="none" stroke="midnightblue" d="M1058.67,-136.841C1080.99,-125.425 1112.14,-109.485 1134,-98.3033"/>
<polygon fill="midnightblue" stroke="midnightblue" points="1135.72,-101.353 1143.03,-93.6819 1132.53,-95.1208 1135.72,-101.353"/>
</g>
<!-- Node38 -->
<g id="node38" class="node"><title>Node38</title>
<polygon fill="none" stroke="#bfbfbf" points="822,-74.5 822,-93.5 884,-93.5 884,-74.5 822,-74.5"/>
<text text-anchor="middle" x="853" y="-81.5" font-family="Helvetica,sans-Serif" font-size="10.00">type_traits</text>
</g>
<!-- Node34&#45;&gt;Node38 -->
<g id="edge52" class="edge"><title>Node34&#45;&gt;Node38</title>
<path fill="none" stroke="midnightblue" d="M992.908,-136.978C965.187,-126.76 926.751,-112.565 893,-100 890.48,-99.062 887.872,-98.0889 885.251,-97.1094"/>
<polygon fill="midnightblue" stroke="midnightblue" points="886.43,-93.8136 875.838,-93.5857 883.976,-100.369 886.43,-93.8136"/>
</g>
<!-- Node39 -->
<g id="node39" class="node"><title>Node39</title>
<g id="a_node39"><a xlink:href="../../d9/d52/Common_2MathUtils_2include_2MathUtils_2Utils_8h.html" target="_top" xlink:title="MathUtils/Utils.h">
<polygon fill="none" stroke="black" points="902,-74.5 902,-93.5 992,-93.5 992,-74.5 902,-74.5"/>
<text text-anchor="middle" x="947" y="-81.5" font-family="Helvetica,sans-Serif" font-size="10.00">MathUtils/Utils.h</text>
</a>
</g>
</g>
<!-- Node34&#45;&gt;Node39 -->
<g id="edge53" class="edge"><title>Node34&#45;&gt;Node39</title>
<path fill="none" stroke="midnightblue" d="M1012.77,-136.679C999.027,-125.879 980.216,-111.098 966.231,-100.11"/>
<polygon fill="midnightblue" stroke="midnightblue" points="968.262,-97.2544 958.236,-93.8283 963.937,-102.759 968.262,-97.2544"/>
</g>
<!-- Node39&#45;&gt;Node12 -->
<g id="edge54" class="edge"><title>Node39&#45;&gt;Node12</title>
<path fill="none" stroke="midnightblue" d="M924.122,-74.3717C892.416,-62.414 835.133,-40.8103 800.629,-27.7974"/>
<polygon fill="midnightblue" stroke="midnightblue" points="801.716,-24.4665 791.124,-24.2125 799.246,-31.0162 801.716,-24.4665"/>
</g>
<!-- Node40 -->
<g id="node40" class="node"><title>Node40</title>
<polygon fill="none" stroke="#bfbfbf" points="1039,-6.5 1039,-25.5 1083,-25.5 1083,-6.5 1039,-6.5"/>
<text text-anchor="middle" x="1061" y="-13.5" font-family="Helvetica,sans-Serif" font-size="10.00">cmath</text>
</g>
<!-- Node39&#45;&gt;Node40 -->
<g id="edge55" class="edge"><title>Node39&#45;&gt;Node40</title>
<path fill="none" stroke="midnightblue" d="M961.904,-74.3717C981.106,-63.2545 1014.71,-43.7997 1037.4,-30.6624"/>
<polygon fill="midnightblue" stroke="midnightblue" points="1039.19,-33.6699 1046.09,-25.6305 1035.68,-27.6119 1039.19,-33.6699"/>
</g>
<!-- Node41 -->
<g id="node41" class="node"><title>Node41</title>
<g id="a_node41"><a xlink:href="../../d6/d84/MathConstants_8h.html" target="_top" xlink:title="useful math constants ">
<polygon fill="none" stroke="black" points="841.5,-6.5 841.5,-25.5 1020.5,-25.5 1020.5,-6.5 841.5,-6.5"/>
<text text-anchor="middle" x="931" y="-13.5" font-family="Helvetica,sans-Serif" font-size="10.00">CommonConstants/MathConstants.h</text>
</a>
</g>
</g>
<!-- Node39&#45;&gt;Node41 -->
<g id="edge56" class="edge"><title>Node39&#45;&gt;Node41</title>
<path fill="none" stroke="midnightblue" d="M944.908,-74.3717C942.55,-64.6426 938.643,-48.528 935.57,-35.8504"/>
<polygon fill="midnightblue" stroke="midnightblue" points="938.901,-34.735 933.143,-25.8411 932.098,-36.3842 938.901,-34.735"/>
</g>
<!-- Node42&#45;&gt;Node5 -->
<g id="edge60" class="edge"><title>Node42&#45;&gt;Node5</title>
<path fill="none" stroke="midnightblue" d="M760.181,-278.147C754.832,-268.112 746.144,-251.172 740,-236 721.095,-189.317 704.212,-132.338 696.097,-103.55"/>
<polygon fill="midnightblue" stroke="midnightblue" points="699.399,-102.361 693.345,-93.6665 692.656,-104.239 699.399,-102.361"/>
</g>
<!-- Node43 -->
<g id="node43" class="node"><title>Node43</title>
<polygon fill="none" stroke="#bfbfbf" points="749.5,-210.5 749.5,-229.5 794.5,-229.5 794.5,-210.5 749.5,-210.5"/>
<text text-anchor="middle" x="772" y="-217.5" font-family="Helvetica,sans-Serif" font-size="10.00">climits</text>
</g>
<!-- Node42&#45;&gt;Node43 -->
<g id="edge61" class="edge"><title>Node42&#45;&gt;Node43</title>
<path fill="none" stroke="midnightblue" d="M765.915,-278.372C766.947,-268.643 768.656,-252.528 770.001,-239.85"/>
<polygon fill="midnightblue" stroke="midnightblue" points="773.488,-240.155 771.062,-229.841 766.527,-239.416 773.488,-240.155"/>
</g>
</g>
</svg>
        <g id="navigator" transform="translate(0 0)" fill="#404254">
                <rect fill="#f2f5e9" fill-opacity="0.5" stroke="#606060" stroke-width=".5" x="0" y="0" width="60" height="60"/>
                <use id="zoomplus" xlink:href="#zoomPlus" x="17" y="9" onmousedown="handleZoom(evt,'in')"/>
                <use id="zoomminus" xlink:href="#zoomMin" x="42" y="9" onmousedown="handleZoom(evt,'out')"/>
                <use id="reset" xlink:href="#resetDef" x="30" y="36" onmousedown="handleReset()"/>
                <g id="arrowUp" xlink:href="#dirArrow" transform="translate(30 24)" onmousedown="handlePan(0,-1)">
                  <use xlink:href="#rim" fill="#404040">
                        <set attributeName="fill" to="#808080" begin="arrowUp.mouseover" end="arrowUp.mouseout"/>
                  </use>
                  <path fill="none" stroke="white" stroke-width="1.5" d="M0,-3.0v7 M-2.5,-0.5L0,-3.0L2.5,-0.5"/>
                </g>
                <g id="arrowRight" xlink:href="#dirArrow" transform="rotate(90) translate(36 -43)" onmousedown="handlePan(1,0)">
                  <use xlink:href="#rim" fill="#404040">
                        <set attributeName="fill" to="#808080" begin="arrowRight.mouseover" end="arrowRight.mouseout"/>
                  </use>
                  <path fill="none" stroke="white" stroke-width="1.5" d="M0,-3.0v7 M-2.5,-0.5L0,-3.0L2.5,-0.5"/>
                </g>
                <g id="arrowDown" xlink:href="#dirArrow" transform="rotate(180) translate(-30 -48)" onmousedown="handlePan(0,1)">
                  <use xlink:href="#rim" fill="#404040">
                        <set attributeName="fill" to="#808080" begin="arrowDown.mouseover" end="arrowDown.mouseout"/>
                  </use>
                  <path fill="none" stroke="white" stroke-width="1.5" d="M0,-3.0v7 M-2.5,-0.5L0,-3.0L2.5,-0.5"/>
                </g>
                <g id="arrowLeft" xlink:href="#dirArrow" transform="rotate(270) translate(-36 17)" onmousedown="handlePan(-1,0)">
                  <use xlink:href="#rim" fill="#404040">
                        <set attributeName="fill" to="#808080" begin="arrowLeft.mouseover" end="arrowLeft.mouseout"/>
                  </use>
                  <path fill="none" stroke="white" stroke-width="1.5" d="M0,-3.0v7 M-2.5,-0.5L0,-3.0L2.5,-0.5"/>
                </g>
        </g>
        <svg viewBox="0 0 15 15" width="100%" height="30px" preserveAspectRatio="xMaxYMin meet">
         <g id="arrow_out" transform="scale(0.3 0.3)">
          <a xlink:href="ITSMFT_2common_2simulation_2include_2ITSMFTSimulation_2Digitizer_8h__incl_org.svg" target="_base">
           <rect id="button" ry="5" rx="5" y="6" x="6" height="38" width="38"
                fill="#f2f5e9" fill-opacity="0.5" stroke="#606060" stroke-width="1.0"/>
           <path id="arrow"
             d="M 11.500037,31.436501 C 11.940474,20.09759 22.043105,11.32322 32.158766,21.979434 L 37.068811,17.246167 C 37.068811,17.246167 37.088388,32 37.088388,32 L 22.160133,31.978069 C 22.160133,31.978069 26.997745,27.140456 26.997745,27.140456 C 18.528582,18.264221 13.291696,25.230495 11.500037,31.436501 z"
             style="fill:#404040;"/>
          </a>
         </g>
        </svg>
</svg>
