<?xml version="1.0" encoding="UTF-8" standalone="no"?>
<!DOCTYPE svg PUBLIC "-//W3C//DTD SVG 1.1//EN"
 "http://www.w3.org/Graphics/SVG/1.1/DTD/svg11.dtd">
<!-- Generated by graphviz version 2.36.0 (20140111.2315)
 -->
<!-- Title: /home/travis/build/AliceO2Group/AliceO2/Framework/Core/include/Framework/DataRelayer.h Pages: 1 -->
<svg width="1604pt" height="354pt"
 viewBox="0.00 0.00 1604.00 354.00" xmlns="http://www.w3.org/2000/svg" xmlns:xlink="http://www.w3.org/1999/xlink">
<g id="graph0" class="graph" transform="scale(1 1) rotate(0) translate(4 350)">
<title>/home/travis/build/AliceO2Group/AliceO2/Framework/Core/include/Framework/DataRelayer.h</title>
<!-- Node1 -->
<g id="node1" class="node"><title>Node1</title>
<polygon fill="#bfbfbf" stroke="black" points="1137,-293 1137,-345 1271,-345 1271,-293 1137,-293"/>
<text text-anchor="start" x="1145" y="-333" font-family="Helvetica,sans-Serif" font-size="10.00">/home/travis/build</text>
<text text-anchor="start" x="1145" y="-322" font-family="Helvetica,sans-Serif" font-size="10.00">/AliceO2Group/AliceO2</text>
<text text-anchor="start" x="1145" y="-311" font-family="Helvetica,sans-Serif" font-size="10.00">/Framework/Core/include</text>
<text text-anchor="middle" x="1204" y="-300" font-family="Helvetica,sans-Serif" font-size="10.00">/Framework/DataRelayer.h</text>
</g>
<!-- Node2 -->
<g id="node2" class="node"><title>Node2</title>
<g id="a_node2"><a xlink:href="../../d5/d19/InputRoute_8h.html" target="_top" xlink:title="Framework/InputRoute.h">
<polygon fill="none" stroke="black" points="1085.5,-236.5 1085.5,-255.5 1210.5,-255.5 1210.5,-236.5 1085.5,-236.5"/>
<text text-anchor="middle" x="1148" y="-243.5" font-family="Helvetica,sans-Serif" font-size="10.00">Framework/InputRoute.h</text>
</a>
</g>
</g>
<!-- Node1&#45;&gt;Node2 -->
<g id="edge1" class="edge"><title>Node1&#45;&gt;Node2</title>
<path fill="none" stroke="midnightblue" d="M1184.1,-292.768C1176.54,-283.183 1168.12,-272.506 1161.31,-263.877"/>
<polygon fill="midnightblue" stroke="midnightblue" points="1163.85,-261.441 1154.91,-255.757 1158.35,-265.776 1163.85,-261.441"/>
</g>
<!-- Node21 -->
<g id="node21" class="node"><title>Node21</title>
<polygon fill="none" stroke="#bfbfbf" points="1458,-6.5 1458,-25.5 1502,-25.5 1502,-6.5 1458,-6.5"/>
<text text-anchor="middle" x="1480" y="-13.5" font-family="Helvetica,sans-Serif" font-size="10.00">vector</text>
</g>
<!-- Node1&#45;&gt;Node21 -->
<g id="edge42" class="edge"><title>Node1&#45;&gt;Node21</title>
<path fill="none" stroke="midnightblue" d="M1271.39,-310.231C1383.47,-295.413 1596,-258.425 1596,-191 1596,-191 1596,-191 1596,-133 1596,-83.7974 1543.17,-48.1754 1508.82,-30.2116"/>
<polygon fill="midnightblue" stroke="midnightblue" points="1510.18,-26.981 1499.68,-25.6166 1507.04,-33.2352 1510.18,-26.981"/>
</g>
<!-- Node25 -->
<g id="node25" class="node"><title>Node25</title>
<polygon fill="none" stroke="#bfbfbf" points="748.5,-180.5 748.5,-199.5 797.5,-199.5 797.5,-180.5 748.5,-180.5"/>
<text text-anchor="middle" x="773" y="-187.5" font-family="Helvetica,sans-Serif" font-size="10.00">cstddef</text>
</g>
<!-- Node1&#45;&gt;Node25 -->
<g id="edge41" class="edge"><title>Node1&#45;&gt;Node25</title>
<path fill="none" stroke="midnightblue" d="M1136.84,-309.777C1074.07,-300.831 978.385,-283.939 899,-256 860.875,-242.582 819.819,-219.635 795.278,-204.904"/>
<polygon fill="midnightblue" stroke="midnightblue" points="796.785,-201.723 786.424,-199.513 793.145,-207.703 796.785,-201.723"/>
</g>
<!-- Node26 -->
<g id="node26" class="node"><title>Node26</title>
<g id="a_node26"><a xlink:href="../../d7/d12/ForwardRoute_8h.html" target="_top" xlink:title="Framework/ForwardRoute.h">
<polygon fill="none" stroke="black" points="908,-236.5 908,-255.5 1046,-255.5 1046,-236.5 908,-236.5"/>
<text text-anchor="middle" x="977" y="-243.5" font-family="Helvetica,sans-Serif" font-size="10.00">Framework/ForwardRoute.h</text>
</a>
</g>
</g>
<!-- Node1&#45;&gt;Node26 -->
<g id="edge29" class="edge"><title>Node1&#45;&gt;Node26</title>
<path fill="none" stroke="midnightblue" d="M1136.81,-296.986C1096.65,-284.423 1047.15,-268.94 1013.97,-258.563"/>
<polygon fill="midnightblue" stroke="midnightblue" points="1014.82,-255.161 1004.23,-255.516 1012.73,-261.842 1014.82,-255.161"/>
</g>
<!-- Node27 -->
<g id="node27" class="node"><title>Node27</title>
<g id="a_node27"><a xlink:href="../../df/dd6/CompletionPolicy_8h.html" target="_top" xlink:title="Framework/CompletionPolicy.h">
<polygon fill="none" stroke="black" points="1309.5,-180.5 1309.5,-199.5 1462.5,-199.5 1462.5,-180.5 1309.5,-180.5"/>
<text text-anchor="middle" x="1386" y="-187.5" font-family="Helvetica,sans-Serif" font-size="10.00">Framework/CompletionPolicy.h</text>
</a>
</g>
</g>
<!-- Node1&#45;&gt;Node27 -->
<g id="edge33" class="edge"><title>Node1&#45;&gt;Node27</title>
<path fill="none" stroke="midnightblue" d="M1239.96,-292.909C1277.32,-266.835 1334.52,-226.923 1365.06,-205.609"/>
<polygon fill="midnightblue" stroke="midnightblue" points="1367.44,-208.221 1373.64,-199.628 1363.43,-202.48 1367.44,-208.221"/>
</g>
<!-- Node28 -->
<g id="node28" class="node"><title>Node28</title>
<g id="a_node28"><a xlink:href="../../d9/d32/PartRef_8h.html" target="_top" xlink:title="Framework/PartRef.h">
<polygon fill="none" stroke="black" points="1232,-124.5 1232,-143.5 1342,-143.5 1342,-124.5 1232,-124.5"/>
<text text-anchor="middle" x="1287" y="-131.5" font-family="Helvetica,sans-Serif" font-size="10.00">Framework/PartRef.h</text>
</a>
</g>
</g>
<!-- Node1&#45;&gt;Node28 -->
<g id="edge40" class="edge"><title>Node1&#45;&gt;Node28</title>
<path fill="none" stroke="midnightblue" d="M1215.37,-292.938C1232.35,-255.487 1263.95,-185.816 1278.84,-152.99"/>
<polygon fill="midnightblue" stroke="midnightblue" points="1282.1,-154.268 1283.05,-143.715 1275.73,-151.376 1282.1,-154.268"/>
</g>
<!-- Node3 -->
<g id="node3" class="node"><title>Node3</title>
<g id="a_node3"><a xlink:href="../../d5/d3f/InputSpec_8h.html" target="_top" xlink:title="Framework/InputSpec.h">
<polygon fill="none" stroke="black" points="952.5,-180.5 952.5,-199.5 1073.5,-199.5 1073.5,-180.5 952.5,-180.5"/>
<text text-anchor="middle" x="1013" y="-187.5" font-family="Helvetica,sans-Serif" font-size="10.00">Framework/InputSpec.h</text>
</a>
</g>
</g>
<!-- Node2&#45;&gt;Node3 -->
<g id="edge2" class="edge"><title>Node2&#45;&gt;Node3</title>
<path fill="none" stroke="midnightblue" d="M1126.61,-236.444C1104.29,-227.517 1069.1,-213.439 1043.79,-203.317"/>
<polygon fill="midnightblue" stroke="midnightblue" points="1044.88,-199.981 1034.29,-199.516 1042.28,-206.48 1044.88,-199.981"/>
</g>
<!-- Node4 -->
<g id="node4" class="node"><title>Node4</title>
<polygon fill="none" stroke="#bfbfbf" points="1145.5,-6.5 1145.5,-25.5 1186.5,-25.5 1186.5,-6.5 1145.5,-6.5"/>
<text text-anchor="middle" x="1166" y="-13.5" font-family="Helvetica,sans-Serif" font-size="10.00">string</text>
</g>
<!-- Node2&#45;&gt;Node4 -->
<g id="edge28" class="edge"><title>Node2&#45;&gt;Node4</title>
<path fill="none" stroke="midnightblue" d="M1152,-236.199C1163.23,-210.44 1193.54,-132.931 1183,-68 1181.2,-56.8887 1177.32,-44.927 1173.72,-35.3825"/>
<polygon fill="midnightblue" stroke="midnightblue" points="1176.86,-33.801 1169.91,-25.8077 1170.36,-36.3929 1176.86,-33.801"/>
</g>
<!-- Node2&#45;&gt;Node25 -->
<g id="edge27" class="edge"><title>Node2&#45;&gt;Node25</title>
<path fill="none" stroke="midnightblue" d="M1088.58,-236.444C1009.35,-225.034 871.67,-205.209 807.619,-195.985"/>
<polygon fill="midnightblue" stroke="midnightblue" points="808.025,-192.508 797.629,-194.547 807.028,-199.436 808.025,-192.508"/>
</g>
<!-- Node3&#45;&gt;Node4 -->
<g id="edge3" class="edge"><title>Node3&#45;&gt;Node4</title>
<path fill="none" stroke="midnightblue" d="M1073.84,-182.435C1099.76,-176.495 1128.09,-165.247 1146,-144 1171.93,-113.238 1171.26,-62.8338 1168.59,-35.6981"/>
<polygon fill="midnightblue" stroke="midnightblue" points="1172.05,-35.1374 1167.4,-25.6182 1165.1,-35.9604 1172.05,-35.1374"/>
</g>
<!-- Node5 -->
<g id="node5" class="node"><title>Node5</title>
<polygon fill="none" stroke="#bfbfbf" points="956,-124.5 956,-143.5 1008,-143.5 1008,-124.5 956,-124.5"/>
<text text-anchor="middle" x="982" y="-131.5" font-family="Helvetica,sans-Serif" font-size="10.00">ostream</text>
</g>
<!-- Node3&#45;&gt;Node5 -->
<g id="edge4" class="edge"><title>Node3&#45;&gt;Node5</title>
<path fill="none" stroke="midnightblue" d="M1007.88,-180.083C1003.59,-172.613 997.342,-161.724 992.058,-152.52"/>
<polygon fill="midnightblue" stroke="midnightblue" points="995.038,-150.681 987.024,-143.751 988.967,-154.166 995.038,-150.681"/>
</g>
<!-- Node6 -->
<g id="node6" class="node"><title>Node6</title>
<g id="a_node6"><a xlink:href="../../dc/dca/Lifetime_8h.html" target="_top" xlink:title="Framework/Lifetime.h">
<polygon fill="none" stroke="black" points="1026.5,-124.5 1026.5,-143.5 1137.5,-143.5 1137.5,-124.5 1026.5,-124.5"/>
<text text-anchor="middle" x="1082" y="-131.5" font-family="Helvetica,sans-Serif" font-size="10.00">Framework/Lifetime.h</text>
</a>
</g>
</g>
<!-- Node3&#45;&gt;Node6 -->
<g id="edge5" class="edge"><title>Node3&#45;&gt;Node6</title>
<path fill="none" stroke="midnightblue" d="M1024.09,-180.324C1034.49,-172.185 1050.26,-159.839 1062.72,-150.087"/>
<polygon fill="midnightblue" stroke="midnightblue" points="1064.99,-152.753 1070.71,-143.834 1060.68,-147.241 1064.99,-152.753"/>
</g>
<!-- Node7 -->
<g id="node7" class="node"><title>Node7</title>
<g id="a_node7"><a xlink:href="../../dc/dcd/DataHeader_8h.html" target="_top" xlink:title="Headers/DataHeader.h">
<polygon fill="none" stroke="black" points="820.5,-124.5 820.5,-143.5 937.5,-143.5 937.5,-124.5 820.5,-124.5"/>
<text text-anchor="middle" x="879" y="-131.5" font-family="Helvetica,sans-Serif" font-size="10.00">Headers/DataHeader.h</text>
</a>
</g>
</g>
<!-- Node3&#45;&gt;Node7 -->
<g id="edge6" class="edge"><title>Node3&#45;&gt;Node7</title>
<path fill="none" stroke="midnightblue" d="M991.767,-180.444C969.616,-171.517 934.681,-157.439 909.564,-147.317"/>
<polygon fill="midnightblue" stroke="midnightblue" points="910.717,-144.008 900.133,-143.516 908.1,-150.501 910.717,-144.008"/>
</g>
<!-- Node7&#45;&gt;Node4 -->
<g id="edge13" class="edge"><title>Node7&#45;&gt;Node4</title>
<path fill="none" stroke="midnightblue" d="M937.727,-124.526C991.776,-116.045 1067.45,-102.241 1094,-88 1118.8,-74.6963 1140.77,-50.2119 1153.74,-33.767"/>
<polygon fill="midnightblue" stroke="midnightblue" points="1156.7,-35.6564 1159.97,-25.5802 1151.13,-31.4153 1156.7,-35.6564"/>
</g>
<!-- Node8 -->
<g id="node8" class="node"><title>Node8</title>
<polygon fill="none" stroke="#bfbfbf" points="820,-68.5 820,-87.5 866,-87.5 866,-68.5 820,-68.5"/>
<text text-anchor="middle" x="843" y="-75.5" font-family="Helvetica,sans-Serif" font-size="10.00">cstdint</text>
</g>
<!-- Node7&#45;&gt;Node8 -->
<g id="edge7" class="edge"><title>Node7&#45;&gt;Node8</title>
<path fill="none" stroke="midnightblue" d="M873.055,-124.083C868.023,-116.534 860.663,-105.495 854.487,-96.2298"/>
<polygon fill="midnightblue" stroke="midnightblue" points="857.293,-94.1301 848.834,-87.7511 851.469,-98.0131 857.293,-94.1301"/>
</g>
<!-- Node9 -->
<g id="node9" class="node"><title>Node9</title>
<polygon fill="none" stroke="#bfbfbf" points="1246,-68.5 1246,-87.5 1298,-87.5 1298,-68.5 1246,-68.5"/>
<text text-anchor="middle" x="1272" y="-75.5" font-family="Helvetica,sans-Serif" font-size="10.00">memory</text>
</g>
<!-- Node7&#45;&gt;Node9 -->
<g id="edge8" class="edge"><title>Node7&#45;&gt;Node9</title>
<path fill="none" stroke="midnightblue" d="M937.836,-124.916C1020.15,-113.605 1167.25,-93.3934 1235.44,-84.0242"/>
<polygon fill="midnightblue" stroke="midnightblue" points="1236.25,-87.4453 1245.68,-82.6166 1235.3,-80.5105 1236.25,-87.4453"/>
</g>
<!-- Node10 -->
<g id="node10" class="node"><title>Node10</title>
<polygon fill="none" stroke="#bfbfbf" points="884.5,-68.5 884.5,-87.5 933.5,-87.5 933.5,-68.5 884.5,-68.5"/>
<text text-anchor="middle" x="909" y="-75.5" font-family="Helvetica,sans-Serif" font-size="10.00">cassert</text>
</g>
<!-- Node7&#45;&gt;Node10 -->
<g id="edge9" class="edge"><title>Node7&#45;&gt;Node10</title>
<path fill="none" stroke="midnightblue" d="M883.954,-124.083C888.104,-116.613 894.153,-105.724 899.267,-96.5199"/>
<polygon fill="midnightblue" stroke="midnightblue" points="902.341,-98.1924 904.138,-87.7511 896.222,-94.7929 902.341,-98.1924"/>
</g>
<!-- Node11 -->
<g id="node11" class="node"><title>Node11</title>
<polygon fill="none" stroke="#bfbfbf" points="0,-6.5 0,-25.5 46,-25.5 46,-6.5 0,-6.5"/>
<text text-anchor="middle" x="23" y="-13.5" font-family="Helvetica,sans-Serif" font-size="10.00">cstring</text>
</g>
<!-- Node7&#45;&gt;Node11 -->
<g id="edge10" class="edge"><title>Node7&#45;&gt;Node11</title>
<path fill="none" stroke="midnightblue" d="M820.302,-132.122C683.465,-128.723 333.746,-112.2 55,-32 52.6617,-31.3272 50.28,-30.503 47.9243,-29.5902"/>
<polygon fill="midnightblue" stroke="midnightblue" points="49.1313,-26.2982 38.5664,-25.5022 46.329,-32.7128 49.1313,-26.2982"/>
</g>
<!-- Node12 -->
<g id="node12" class="node"><title>Node12</title>
<polygon fill="none" stroke="#bfbfbf" points="952,-68.5 952,-87.5 1008,-87.5 1008,-68.5 952,-68.5"/>
<text text-anchor="middle" x="980" y="-75.5" font-family="Helvetica,sans-Serif" font-size="10.00">algorithm</text>
</g>
<!-- Node7&#45;&gt;Node12 -->
<g id="edge11" class="edge"><title>Node7&#45;&gt;Node12</title>
<path fill="none" stroke="midnightblue" d="M895.227,-124.324C911.351,-115.703 936.3,-102.364 954.964,-92.3855"/>
<polygon fill="midnightblue" stroke="midnightblue" points="956.644,-95.456 963.813,-87.6545 953.344,-89.283 956.644,-95.456"/>
</g>
<!-- Node13 -->
<g id="node13" class="node"><title>Node13</title>
<polygon fill="none" stroke="#bfbfbf" points="1026.5,-68.5 1026.5,-87.5 1085.5,-87.5 1085.5,-68.5 1026.5,-68.5"/>
<text text-anchor="middle" x="1056" y="-75.5" font-family="Helvetica,sans-Serif" font-size="10.00">stdexcept</text>
</g>
<!-- Node7&#45;&gt;Node13 -->
<g id="edge12" class="edge"><title>Node7&#45;&gt;Node13</title>
<path fill="none" stroke="midnightblue" d="M907.046,-124.444C937.082,-115.28 984.913,-100.688 1018.24,-90.5192"/>
<polygon fill="midnightblue" stroke="midnightblue" points="1019.54,-93.7822 1028.09,-87.5164 1017.5,-87.0869 1019.54,-93.7822"/>
</g>
<!-- Node14 -->
<g id="node14" class="node"><title>Node14</title>
<g id="a_node14"><a xlink:href="../../dc/d03/MemoryResources_8h.html" target="_top" xlink:title="MemoryResources/MemoryResources.h">
<polygon fill="none" stroke="black" points="570.5,-68.5 570.5,-87.5 763.5,-87.5 763.5,-68.5 570.5,-68.5"/>
<text text-anchor="middle" x="667" y="-75.5" font-family="Helvetica,sans-Serif" font-size="10.00">MemoryResources/MemoryResources.h</text>
</a>
</g>
</g>
<!-- Node7&#45;&gt;Node14 -->
<g id="edge14" class="edge"><title>Node7&#45;&gt;Node14</title>
<path fill="none" stroke="midnightblue" d="M845.408,-124.444C808.813,-115.122 750.162,-100.183 710.174,-89.9972"/>
<polygon fill="midnightblue" stroke="midnightblue" points="710.989,-86.5932 700.435,-87.5164 709.261,-93.3766 710.989,-86.5932"/>
</g>
<!-- Node14&#45;&gt;Node4 -->
<g id="edge20" class="edge"><title>Node14&#45;&gt;Node4</title>
<path fill="none" stroke="midnightblue" d="M763.715,-68.631C895.81,-57.0677 1118.4,-37.0553 1136,-32 1137.97,-31.4334 1139.97,-30.7385 1141.95,-29.9613"/>
<polygon fill="midnightblue" stroke="midnightblue" points="1143.84,-32.9438 1151.48,-25.6029 1140.93,-26.5775 1143.84,-32.9438"/>
</g>
<!-- Node14&#45;&gt;Node11 -->
<g id="edge19" class="edge"><title>Node14&#45;&gt;Node11</title>
<path fill="none" stroke="midnightblue" d="M570.301,-74.1691C423.007,-69.1329 149.565,-56.7384 55,-32 52.5069,-31.3478 49.9706,-30.5059 47.4722,-29.554"/>
<polygon fill="midnightblue" stroke="midnightblue" points="48.7624,-26.2983 38.1971,-25.507 45.9629,-32.7142 48.7624,-26.2983"/>
</g>
<!-- Node15 -->
<g id="node15" class="node"><title>Node15</title>
<polygon fill="none" stroke="#bfbfbf" points="64,-1 64,-31 164,-31 164,-1 64,-1"/>
<text text-anchor="start" x="72" y="-19" font-family="Helvetica,sans-Serif" font-size="10.00">boost/container/flat</text>
<text text-anchor="middle" x="114" y="-8" font-family="Helvetica,sans-Serif" font-size="10.00">_map.hpp</text>
</g>
<!-- Node14&#45;&gt;Node15 -->
<g id="edge15" class="edge"><title>Node14&#45;&gt;Node15</title>
<path fill="none" stroke="midnightblue" d="M570.325,-72.7194C472.654,-67.3635 317.355,-56.028 174.369,-32.058"/>
<polygon fill="midnightblue" stroke="midnightblue" points="174.542,-28.5371 164.096,-30.3102 173.368,-35.438 174.542,-28.5371"/>
</g>
<!-- Node16 -->
<g id="node16" class="node"><title>Node16</title>
<polygon fill="none" stroke="#bfbfbf" points="182,-1 182,-31 298,-31 298,-1 182,-1"/>
<text text-anchor="start" x="190" y="-19" font-family="Helvetica,sans-Serif" font-size="10.00">boost/container/pmr</text>
<text text-anchor="middle" x="240" y="-8" font-family="Helvetica,sans-Serif" font-size="10.00">/memory_resource.hpp</text>
</g>
<!-- Node14&#45;&gt;Node16 -->
<g id="edge16" class="edge"><title>Node14&#45;&gt;Node16</title>
<path fill="none" stroke="midnightblue" d="M580.092,-68.498C509.39,-61.0358 406.851,-48.9782 308.187,-32.1062"/>
<polygon fill="midnightblue" stroke="midnightblue" points="308.487,-28.6062 298.037,-30.3508 307.294,-35.5038 308.487,-28.6062"/>
</g>
<!-- Node17 -->
<g id="node17" class="node"><title>Node17</title>
<polygon fill="none" stroke="#bfbfbf" points="316,-1 316,-31 472,-31 472,-1 316,-1"/>
<text text-anchor="start" x="324" y="-19" font-family="Helvetica,sans-Serif" font-size="10.00">boost/container/pmr</text>
<text text-anchor="middle" x="394" y="-8" font-family="Helvetica,sans-Serif" font-size="10.00">/monotonic_buffer_resource.hpp</text>
</g>
<!-- Node14&#45;&gt;Node17 -->
<g id="edge17" class="edge"><title>Node14&#45;&gt;Node17</title>
<path fill="none" stroke="midnightblue" d="M628.176,-68.4672C586.549,-59.3184 519.472,-44.5763 467.754,-33.2097"/>
<polygon fill="midnightblue" stroke="midnightblue" points="468.475,-29.7848 457.957,-31.0565 466.973,-36.6216 468.475,-29.7848"/>
</g>
<!-- Node18 -->
<g id="node18" class="node"><title>Node18</title>
<polygon fill="none" stroke="#bfbfbf" points="490.5,-1 490.5,-31 623.5,-31 623.5,-1 490.5,-1"/>
<text text-anchor="start" x="498.5" y="-19" font-family="Helvetica,sans-Serif" font-size="10.00">boost/container/pmr</text>
<text text-anchor="middle" x="557" y="-8" font-family="Helvetica,sans-Serif" font-size="10.00">/polymorphic_allocator.hpp</text>
</g>
<!-- Node14&#45;&gt;Node18 -->
<g id="edge18" class="edge"><title>Node14&#45;&gt;Node18</title>
<path fill="none" stroke="midnightblue" d="M651.24,-68.4035C635.785,-59.9735 611.705,-46.8389 591.755,-35.957"/>
<polygon fill="midnightblue" stroke="midnightblue" points="593.38,-32.8567 582.925,-31.1408 590.028,-39.002 593.38,-32.8567"/>
</g>
<!-- Node19 -->
<g id="node19" class="node"><title>Node19</title>
<polygon fill="none" stroke="#bfbfbf" points="642,-6.5 642,-25.5 704,-25.5 704,-6.5 642,-6.5"/>
<text text-anchor="middle" x="673" y="-13.5" font-family="Helvetica,sans-Serif" font-size="10.00">type_traits</text>
</g>
<!-- Node14&#45;&gt;Node19 -->
<g id="edge21" class="edge"><title>Node14&#45;&gt;Node19</title>
<path fill="none" stroke="midnightblue" d="M667.86,-68.4035C668.706,-59.9381 670.027,-46.7283 671.118,-35.8199"/>
<polygon fill="midnightblue" stroke="midnightblue" points="674.629,-35.8793 672.142,-25.5806 667.664,-35.1827 674.629,-35.8793"/>
</g>
<!-- Node20 -->
<g id="node20" class="node"><title>Node20</title>
<polygon fill="none" stroke="#bfbfbf" points="722,-6.5 722,-25.5 762,-25.5 762,-6.5 722,-6.5"/>
<text text-anchor="middle" x="742" y="-13.5" font-family="Helvetica,sans-Serif" font-size="10.00">utility</text>
</g>
<!-- Node14&#45;&gt;Node20 -->
<g id="edge22" class="edge"><title>Node14&#45;&gt;Node20</title>
<path fill="none" stroke="midnightblue" d="M677.746,-68.4035C689.553,-58.9579 708.743,-43.6056 723.082,-32.1342"/>
<polygon fill="midnightblue" stroke="midnightblue" points="725.652,-34.5606 731.274,-25.5806 721.279,-29.0945 725.652,-34.5606"/>
</g>
<!-- Node14&#45;&gt;Node21 -->
<g id="edge23" class="edge"><title>Node14&#45;&gt;Node21</title>
<path fill="none" stroke="midnightblue" d="M763.856,-69.8519C946.387,-56.381 1333.23,-27.8315 1447.54,-19.3954"/>
<polygon fill="midnightblue" stroke="midnightblue" points="1448.02,-22.8695 1457.74,-18.6429 1447.51,-15.8885 1448.02,-22.8695"/>
</g>
<!-- Node22 -->
<g id="node22" class="node"><title>Node22</title>
<polygon fill="none" stroke="#bfbfbf" points="780.5,-6.5 780.5,-25.5 863.5,-25.5 863.5,-6.5 780.5,-6.5"/>
<text text-anchor="middle" x="822" y="-13.5" font-family="Helvetica,sans-Serif" font-size="10.00">unordered_map</text>
</g>
<!-- Node14&#45;&gt;Node22 -->
<g id="edge24" class="edge"><title>Node14&#45;&gt;Node22</title>
<path fill="none" stroke="midnightblue" d="M689.208,-68.4035C715.681,-58.1559 760.114,-40.9561 790.22,-29.3021"/>
<polygon fill="midnightblue" stroke="midnightblue" points="791.771,-32.4546 799.833,-25.5806 789.244,-25.9266 791.771,-32.4546"/>
</g>
<!-- Node23 -->
<g id="node23" class="node"><title>Node23</title>
<polygon fill="none" stroke="#bfbfbf" points="881.5,-6.5 881.5,-25.5 978.5,-25.5 978.5,-6.5 881.5,-6.5"/>
<text text-anchor="middle" x="930" y="-13.5" font-family="Helvetica,sans-Serif" font-size="10.00">FairMQMessage.h</text>
</g>
<!-- Node14&#45;&gt;Node23 -->
<g id="edge25" class="edge"><title>Node14&#45;&gt;Node23</title>
<path fill="none" stroke="midnightblue" d="M707.941,-68.4786C749.394,-59.7414 815.296,-45.551 872,-32 877.116,-30.7773 882.475,-29.4522 887.781,-28.1129"/>
<polygon fill="midnightblue" stroke="midnightblue" points="889.018,-31.4094 897.84,-25.5431 887.285,-24.6272 889.018,-31.4094"/>
</g>
<!-- Node24 -->
<g id="node24" class="node"><title>Node24</title>
<polygon fill="none" stroke="#bfbfbf" points="996.5,-6.5 996.5,-25.5 1127.5,-25.5 1127.5,-6.5 996.5,-6.5"/>
<text text-anchor="middle" x="1062" y="-13.5" font-family="Helvetica,sans-Serif" font-size="10.00">FairMQTransportFactory.h</text>
</g>
<!-- Node14&#45;&gt;Node24 -->
<g id="edge26" class="edge"><title>Node14&#45;&gt;Node24</title>
<path fill="none" stroke="midnightblue" d="M735.842,-68.4859C800.766,-60.1804 900.721,-46.6818 987,-32 995.004,-30.638 1003.46,-29.071 1011.7,-27.4746"/>
<polygon fill="midnightblue" stroke="midnightblue" points="1012.46,-30.8918 1021.6,-25.5246 1011.11,-24.0239 1012.46,-30.8918"/>
</g>
<!-- Node26&#45;&gt;Node3 -->
<g id="edge30" class="edge"><title>Node26&#45;&gt;Node3</title>
<path fill="none" stroke="midnightblue" d="M982.945,-236.083C987.977,-228.534 995.337,-217.495 1001.51,-208.23"/>
<polygon fill="midnightblue" stroke="midnightblue" points="1004.53,-210.013 1007.17,-199.751 998.707,-206.13 1004.53,-210.013"/>
</g>
<!-- Node26&#45;&gt;Node4 -->
<g id="edge32" class="edge"><title>Node26&#45;&gt;Node4</title>
<path fill="none" stroke="midnightblue" d="M946.01,-236.411C906.496,-223.601 839.845,-195.315 811,-144 794.449,-114.555 788.469,-93.165 811,-68 859.47,-13.8642 1066.31,-52.5683 1136,-32 1137.97,-31.419 1139.96,-30.7136 1141.94,-29.929"/>
<polygon fill="midnightblue" stroke="midnightblue" points="1143.84,-32.9081 1151.47,-25.5566 1140.92,-26.5458 1143.84,-32.9081"/>
</g>
<!-- Node26&#45;&gt;Node25 -->
<g id="edge31" class="edge"><title>Node26&#45;&gt;Node25</title>
<path fill="none" stroke="midnightblue" d="M944.676,-236.444C907.239,-226.534 845.814,-210.274 807.483,-200.128"/>
<polygon fill="midnightblue" stroke="midnightblue" points="808.356,-196.739 797.794,-197.563 806.565,-203.506 808.356,-196.739"/>
</g>
<!-- Node27&#45;&gt;Node4 -->
<g id="edge37" class="edge"><title>Node27&#45;&gt;Node4</title>
<path fill="none" stroke="midnightblue" d="M1382.93,-180.421C1374.51,-158.177 1348.88,-98.278 1307,-68 1273.41,-43.7168 1227.06,-29.9111 1196.81,-22.9435"/>
<polygon fill="midnightblue" stroke="midnightblue" points="1197.35,-19.4786 1186.83,-20.7582 1195.85,-26.3165 1197.35,-19.4786"/>
</g>
<!-- Node27&#45;&gt;Node21 -->
<g id="edge38" class="edge"><title>Node27&#45;&gt;Node21</title>
<path fill="none" stroke="midnightblue" d="M1410.59,-180.427C1427.25,-173.307 1448.28,-161.488 1460,-144 1482.19,-110.887 1483.15,-62.1742 1481.71,-35.7373"/>
<polygon fill="midnightblue" stroke="midnightblue" points="1485.18,-35.3063 1480.97,-25.5869 1478.2,-35.8147 1485.18,-35.3063"/>
</g>
<!-- Node27&#45;&gt;Node28 -->
<g id="edge34" class="edge"><title>Node27&#45;&gt;Node28</title>
<path fill="none" stroke="midnightblue" d="M1370.09,-180.324C1354.36,-171.743 1330.06,-158.486 1311.79,-148.522"/>
<polygon fill="midnightblue" stroke="midnightblue" points="1313.32,-145.37 1302.87,-143.655 1309.97,-151.516 1313.32,-145.37"/>
</g>
<!-- Node29 -->
<g id="node29" class="node"><title>Node29</title>
<polygon fill="none" stroke="#bfbfbf" points="1508.5,-124.5 1508.5,-143.5 1567.5,-143.5 1567.5,-124.5 1508.5,-124.5"/>
<text text-anchor="middle" x="1538" y="-131.5" font-family="Helvetica,sans-Serif" font-size="10.00">functional</text>
</g>
<!-- Node27&#45;&gt;Node29 -->
<g id="edge36" class="edge"><title>Node27&#45;&gt;Node29</title>
<path fill="none" stroke="midnightblue" d="M1410.08,-180.444C1435.54,-171.399 1475.89,-157.064 1504.46,-146.916"/>
<polygon fill="midnightblue" stroke="midnightblue" points="1505.78,-150.162 1514.03,-143.516 1503.43,-143.566 1505.78,-150.162"/>
</g>
<!-- Node30 -->
<g id="node30" class="node"><title>Node30</title>
<polygon fill="none" stroke="#bfbfbf" points="1398.5,-124.5 1398.5,-143.5 1451.5,-143.5 1451.5,-124.5 1398.5,-124.5"/>
<text text-anchor="middle" x="1425" y="-131.5" font-family="Helvetica,sans-Serif" font-size="10.00">gsl/span</text>
</g>
<!-- Node27&#45;&gt;Node30 -->
<g id="edge39" class="edge"><title>Node27&#45;&gt;Node30</title>
<path fill="none" stroke="midnightblue" d="M1392.44,-180.083C1397.95,-172.455 1406.03,-161.264 1412.76,-151.941"/>
<polygon fill="midnightblue" stroke="midnightblue" points="1415.66,-153.907 1418.68,-143.751 1409.99,-149.809 1415.66,-153.907"/>
</g>
<!-- Node28&#45;&gt;Node9 -->
<g id="edge35" class="edge"><title>Node28&#45;&gt;Node9</title>
<path fill="none" stroke="midnightblue" d="M1284.52,-124.083C1282.51,-116.849 1279.61,-106.409 1277.11,-97.3968"/>
<polygon fill="midnightblue" stroke="midnightblue" points="1280.48,-96.4495 1274.43,-87.7511 1273.74,-98.323 1280.48,-96.4495"/>
</g>
</g>
</svg>
