<?xml version="1.0" encoding="UTF-8" standalone="no"?>
<!DOCTYPE svg PUBLIC "-//W3C//DTD SVG 1.1//EN"
 "http://www.w3.org/Graphics/SVG/1.1/DTD/svg11.dtd">
<!-- Generated by graphviz version 2.36.0 (20140111.2315)
 -->
<!-- Title: /home/travis/build/AliceO2Group/AliceO2/Framework/Core/include/Framework/InputRecord.h Pages: 1 -->
<svg width="1898pt" height="354pt"
 viewBox="0.00 0.00 1898.00 354.00" xmlns="http://www.w3.org/2000/svg" xmlns:xlink="http://www.w3.org/1999/xlink">
<g id="graph0" class="graph" transform="scale(1 1) rotate(0) translate(4 350)">
<title>/home/travis/build/AliceO2Group/AliceO2/Framework/Core/include/Framework/InputRecord.h</title>
<!-- Node1 -->
<g id="node1" class="node"><title>Node1</title>
<polygon fill="#bfbfbf" stroke="black" points="795.5,-293 795.5,-345 928.5,-345 928.5,-293 795.5,-293"/>
<text text-anchor="start" x="803.5" y="-333" font-family="Helvetica,sans-Serif" font-size="10.00">/home/travis/build</text>
<text text-anchor="start" x="803.5" y="-322" font-family="Helvetica,sans-Serif" font-size="10.00">/AliceO2Group/AliceO2</text>
<text text-anchor="start" x="803.5" y="-311" font-family="Helvetica,sans-Serif" font-size="10.00">/Framework/Core/include</text>
<text text-anchor="middle" x="862" y="-300" font-family="Helvetica,sans-Serif" font-size="10.00">/Framework/InputRecord.h</text>
</g>
<!-- Node2 -->
<g id="node2" class="node"><title>Node2</title>
<g id="a_node2"><a xlink:href="../../d5/dfb/DataRef_8h.html" target="_top" xlink:title="Framework/DataRef.h">
<polygon fill="none" stroke="black" points="842.5,-124.5 842.5,-143.5 955.5,-143.5 955.5,-124.5 842.5,-124.5"/>
<text text-anchor="middle" x="899" y="-131.5" font-family="Helvetica,sans-Serif" font-size="10.00">Framework/DataRef.h</text>
</a>
</g>
</g>
<!-- Node1&#45;&gt;Node2 -->
<g id="edge1" class="edge"><title>Node1&#45;&gt;Node2</title>
<path fill="none" stroke="midnightblue" d="M867.067,-292.938C874.574,-255.811 888.482,-187.02 895.189,-153.851"/>
<polygon fill="midnightblue" stroke="midnightblue" points="898.687,-154.21 897.238,-143.715 891.826,-152.823 898.687,-154.21"/>
</g>
<!-- Node3 -->
<g id="node3" class="node"><title>Node3</title>
<g id="a_node3"><a xlink:href="../../d5/db8/DataRefUtils_8h.html" target="_top" xlink:title="Framework/DataRefUtils.h">
<polygon fill="none" stroke="black" points="1215,-180.5 1215,-199.5 1349,-199.5 1349,-180.5 1215,-180.5"/>
<text text-anchor="middle" x="1282" y="-187.5" font-family="Helvetica,sans-Serif" font-size="10.00">Framework/DataRefUtils.h</text>
</a>
</g>
</g>
<!-- Node1&#45;&gt;Node3 -->
<g id="edge2" class="edge"><title>Node1&#45;&gt;Node3</title>
<path fill="none" stroke="midnightblue" d="M928.55,-297.876C1017.4,-271.011 1171.86,-224.303 1243.49,-202.645"/>
<polygon fill="midnightblue" stroke="midnightblue" points="1244.88,-205.881 1253.44,-199.637 1242.85,-199.181 1244.88,-205.881"/>
</g>
<!-- Node6 -->
<g id="node6" class="node"><title>Node6</title>
<polygon fill="none" stroke="#bfbfbf" points="733,-68.5 733,-87.5 785,-87.5 785,-68.5 733,-68.5"/>
<text text-anchor="middle" x="759" y="-75.5" font-family="Helvetica,sans-Serif" font-size="10.00">memory</text>
</g>
<!-- Node1&#45;&gt;Node6 -->
<g id="edge60" class="edge"><title>Node1&#45;&gt;Node6</title>
<path fill="none" stroke="midnightblue" d="M829.625,-292.833C818.386,-282.546 806.686,-269.811 799,-256 769.947,-203.795 761.988,-131.805 759.813,-97.9903"/>
<polygon fill="midnightblue" stroke="midnightblue" points="763.293,-97.5142 759.26,-87.7168 756.303,-97.8905 763.293,-97.5142"/>
</g>
<!-- Node7 -->
<g id="node7" class="node"><title>Node7</title>
<polygon fill="none" stroke="#bfbfbf" points="161.5,-68.5 161.5,-87.5 210.5,-87.5 210.5,-68.5 161.5,-68.5"/>
<text text-anchor="middle" x="186" y="-75.5" font-family="Helvetica,sans-Serif" font-size="10.00">cassert</text>
</g>
<!-- Node1&#45;&gt;Node7 -->
<g id="edge58" class="edge"><title>Node1&#45;&gt;Node7</title>
<path fill="none" stroke="midnightblue" d="M795.371,-315.734C629.694,-309.596 208.632,-290.731 156,-256 106.296,-223.201 104.68,-176.386 133,-124 139.727,-111.557 151.401,-101.076 162.084,-93.3684"/>
<polygon fill="midnightblue" stroke="midnightblue" points="164.358,-96.0562 170.694,-87.5641 160.445,-90.2519 164.358,-96.0562"/>
</g>
<!-- Node8 -->
<g id="node8" class="node"><title>Node8</title>
<polygon fill="none" stroke="#bfbfbf" points="110,-6.5 110,-25.5 156,-25.5 156,-6.5 110,-6.5"/>
<text text-anchor="middle" x="133" y="-13.5" font-family="Helvetica,sans-Serif" font-size="10.00">cstring</text>
</g>
<!-- Node1&#45;&gt;Node8 -->
<g id="edge57" class="edge"><title>Node1&#45;&gt;Node8</title>
<path fill="none" stroke="midnightblue" d="M802.972,-292.998C706.115,-252.749 506.738,-173.14 332,-124 253.462,-101.913 211.507,-143.811 152,-88 137.92,-74.7945 133.846,-52.4023 132.869,-36.2925"/>
<polygon fill="midnightblue" stroke="midnightblue" points="136.358,-35.8019 132.606,-25.8936 129.36,-35.9789 136.358,-35.8019"/>
</g>
<!-- Node11 -->
<g id="node11" class="node"><title>Node11</title>
<polygon fill="none" stroke="#bfbfbf" points="50.5,-6.5 50.5,-25.5 91.5,-25.5 91.5,-6.5 50.5,-6.5"/>
<text text-anchor="middle" x="71" y="-13.5" font-family="Helvetica,sans-Serif" font-size="10.00">string</text>
</g>
<!-- Node1&#45;&gt;Node11 -->
<g id="edge55" class="edge"><title>Node1&#45;&gt;Node11</title>
<path fill="none" stroke="midnightblue" d="M795.452,-315.576C639.499,-309.379 254.236,-290.929 130,-256 67.8135,-238.516 0,-255.598 0,-191 0,-191 0,-191 0,-133 0,-91.9635 32.7237,-53.1818 53.7392,-32.507"/>
<polygon fill="midnightblue" stroke="midnightblue" points="56.2784,-34.9227 61.1278,-25.5028 51.4625,-29.8425 56.2784,-34.9227"/>
</g>
<!-- Node17 -->
<g id="node17" class="node"><title>Node17</title>
<polygon fill="none" stroke="#bfbfbf" points="1623,-6.5 1623,-25.5 1685,-25.5 1685,-6.5 1623,-6.5"/>
<text text-anchor="middle" x="1654" y="-13.5" font-family="Helvetica,sans-Serif" font-size="10.00">type_traits</text>
</g>
<!-- Node1&#45;&gt;Node17 -->
<g id="edge61" class="edge"><title>Node1&#45;&gt;Node17</title>
<path fill="none" stroke="midnightblue" d="M928.846,-315.325C1133.39,-306.26 1737,-272.596 1737,-191 1737,-191 1737,-191 1737,-133 1737,-90.0262 1698.86,-52.0096 1674.29,-31.9771"/>
<polygon fill="midnightblue" stroke="midnightblue" points="1676.27,-29.0864 1666.25,-25.6628 1671.95,-34.5917 1676.27,-29.0864"/>
</g>
<!-- Node19 -->
<g id="node19" class="node"><title>Node19</title>
<polygon fill="none" stroke="#bfbfbf" points="1176,-6.5 1176,-25.5 1220,-25.5 1220,-6.5 1176,-6.5"/>
<text text-anchor="middle" x="1198" y="-13.5" font-family="Helvetica,sans-Serif" font-size="10.00">vector</text>
</g>
<!-- Node1&#45;&gt;Node19 -->
<g id="edge56" class="edge"><title>Node1&#45;&gt;Node19</title>
<path fill="none" stroke="midnightblue" d="M845.956,-292.831C831.665,-267.965 813,-228.34 813,-191 813,-191 813,-191 813,-133 813,-102.902 808.92,-87.3179 832,-68 889.246,-20.0855 1094.11,-52.1173 1166,-32 1168.34,-31.3443 1170.73,-30.5318 1173.09,-29.6268"/>
<polygon fill="midnightblue" stroke="midnightblue" points="1174.68,-32.752 1182.45,-25.5508 1171.88,-26.334 1174.68,-32.752"/>
</g>
<!-- Node33 -->
<g id="node33" class="node"><title>Node33</title>
<g id="a_node33"><a xlink:href="../../d0/d95/TypeTraits_8h.html" target="_top" xlink:title="Framework/TypeTraits.h">
<polygon fill="none" stroke="black" points="1547.5,-68.5 1547.5,-87.5 1670.5,-87.5 1670.5,-68.5 1547.5,-68.5"/>
<text text-anchor="middle" x="1609" y="-75.5" font-family="Helvetica,sans-Serif" font-size="10.00">Framework/TypeTraits.h</text>
</a>
</g>
</g>
<!-- Node1&#45;&gt;Node33 -->
<g id="edge53" class="edge"><title>Node1&#45;&gt;Node33</title>
<path fill="none" stroke="midnightblue" d="M928.708,-312.237C1094.06,-296.485 1515.85,-246.847 1604,-144 1614.69,-131.523 1614.87,-112.292 1613.01,-97.9802"/>
<polygon fill="midnightblue" stroke="midnightblue" points="1616.4,-97.0398 1611.25,-87.7804 1609.5,-98.2299 1616.4,-97.0398"/>
</g>
<!-- Node37 -->
<g id="node37" class="node"><title>Node37</title>
<g id="a_node37"><a xlink:href="../../d5/d19/InputRoute_8h.html" target="_top" xlink:title="Framework/InputRoute.h">
<polygon fill="none" stroke="black" points="165.5,-236.5 165.5,-255.5 290.5,-255.5 290.5,-236.5 165.5,-236.5"/>
<text text-anchor="middle" x="228" y="-243.5" font-family="Helvetica,sans-Serif" font-size="10.00">Framework/InputRoute.h</text>
</a>
</g>
</g>
<!-- Node1&#45;&gt;Node37 -->
<g id="edge45" class="edge"><title>Node1&#45;&gt;Node37</title>
<path fill="none" stroke="midnightblue" d="M795.349,-310.536C675.677,-297.134 425.313,-269.097 301.108,-255.187"/>
<polygon fill="midnightblue" stroke="midnightblue" points="301.265,-251.683 290.937,-254.048 300.486,-258.639 301.265,-251.683"/>
</g>
<!-- Node42 -->
<g id="node42" class="node"><title>Node42</title>
<polygon fill="none" stroke="#bfbfbf" points="1765.5,-236.5 1765.5,-255.5 1812.5,-255.5 1812.5,-236.5 1765.5,-236.5"/>
<text text-anchor="middle" x="1789" y="-243.5" font-family="Helvetica,sans-Serif" font-size="10.00">iterator</text>
</g>
<!-- Node1&#45;&gt;Node42 -->
<g id="edge54" class="edge"><title>Node1&#45;&gt;Node42</title>
<path fill="none" stroke="midnightblue" d="M928.763,-317.051C1077.34,-314.131 1446.24,-302.4 1751,-256 1752.47,-255.777 1753.96,-255.526 1755.46,-255.254"/>
<polygon fill="midnightblue" stroke="midnightblue" points="1756.31,-258.654 1765.4,-253.218 1754.9,-251.797 1756.31,-258.654"/>
</g>
<!-- Node43 -->
<g id="node43" class="node"><title>Node43</title>
<polygon fill="none" stroke="#bfbfbf" points="1830.5,-236.5 1830.5,-255.5 1889.5,-255.5 1889.5,-236.5 1830.5,-236.5"/>
<text text-anchor="middle" x="1860" y="-243.5" font-family="Helvetica,sans-Serif" font-size="10.00">exception</text>
</g>
<!-- Node1&#45;&gt;Node43 -->
<g id="edge59" class="edge"><title>Node1&#45;&gt;Node43</title>
<path fill="none" stroke="midnightblue" d="M928.661,-317.402C1083.71,-315.212 1480.53,-305.004 1820.25,-255.846"/>
<polygon fill="midnightblue" stroke="midnightblue" points="1820.89,-259.289 1830.28,-254.381 1819.88,-252.363 1820.89,-259.289"/>
</g>
<!-- Node3&#45;&gt;Node2 -->
<g id="edge3" class="edge"><title>Node3&#45;&gt;Node2</title>
<path fill="none" stroke="midnightblue" d="M1221.31,-180.444C1151.75,-170.636 1038.08,-154.609 965.984,-144.444"/>
<polygon fill="midnightblue" stroke="midnightblue" points="966.049,-140.919 955.658,-142.988 965.071,-147.85 966.049,-140.919"/>
</g>
<!-- Node4 -->
<g id="node4" class="node"><title>Node4</title>
<g id="a_node4"><a xlink:href="../../dc/dcd/DataHeader_8h.html" target="_top" xlink:title="Headers/DataHeader.h">
<polygon fill="none" stroke="black" points="443.5,-124.5 443.5,-143.5 560.5,-143.5 560.5,-124.5 443.5,-124.5"/>
<text text-anchor="middle" x="502" y="-131.5" font-family="Helvetica,sans-Serif" font-size="10.00">Headers/DataHeader.h</text>
</a>
</g>
</g>
<!-- Node3&#45;&gt;Node4 -->
<g id="edge4" class="edge"><title>Node3&#45;&gt;Node4</title>
<path fill="none" stroke="midnightblue" d="M1214.82,-184.349C1067.95,-174.181 719.542,-150.061 571.009,-139.778"/>
<polygon fill="midnightblue" stroke="midnightblue" points="570.883,-136.261 560.665,-139.061 570.4,-143.244 570.883,-136.261"/>
</g>
<!-- Node10 -->
<g id="node10" class="node"><title>Node10</title>
<polygon fill="none" stroke="#bfbfbf" points="655.5,-68.5 655.5,-87.5 714.5,-87.5 714.5,-68.5 655.5,-68.5"/>
<text text-anchor="middle" x="685" y="-75.5" font-family="Helvetica,sans-Serif" font-size="10.00">stdexcept</text>
</g>
<!-- Node3&#45;&gt;Node10 -->
<g id="edge41" class="edge"><title>Node3&#45;&gt;Node10</title>
<path fill="none" stroke="midnightblue" d="M1215,-182.984C1158.82,-176.764 1076.96,-164.933 1008,-144 987.445,-137.761 984.598,-130.096 964,-124 863.605,-94.2857 831.819,-107.316 724.671,-87.9621"/>
<polygon fill="midnightblue" stroke="midnightblue" points="725.231,-84.5063 714.76,-86.1191 723.952,-91.3883 725.231,-84.5063"/>
</g>
<!-- Node3&#45;&gt;Node17 -->
<g id="edge43" class="edge"><title>Node3&#45;&gt;Node17</title>
<path fill="none" stroke="midnightblue" d="M1349.27,-189.233C1416.23,-187.281 1520.73,-178.238 1604,-144 1642.47,-128.18 1660.36,-125.188 1679,-88 1687.92,-70.1991 1677.37,-48.435 1667.36,-33.7321"/>
<polygon fill="midnightblue" stroke="midnightblue" points="1670.12,-31.576 1661.38,-25.5885 1664.48,-35.72 1670.12,-31.576"/>
</g>
<!-- Node23 -->
<g id="node23" class="node"><title>Node23</title>
<g id="a_node23"><a xlink:href="../../d8/d3c/TMessageSerializer_8h.html" target="_top" xlink:title="Framework/TMessageSerializer.h">
<polygon fill="none" stroke="black" points="1017.5,-124.5 1017.5,-143.5 1180.5,-143.5 1180.5,-124.5 1017.5,-124.5"/>
<text text-anchor="middle" x="1099" y="-131.5" font-family="Helvetica,sans-Serif" font-size="10.00">Framework/TMessageSerializer.h</text>
</a>
</g>
</g>
<!-- Node3&#45;&gt;Node23 -->
<g id="edge25" class="edge"><title>Node3&#45;&gt;Node23</title>
<path fill="none" stroke="midnightblue" d="M1253,-180.444C1221.82,-171.241 1172.07,-156.562 1137.59,-146.388"/>
<polygon fill="midnightblue" stroke="midnightblue" points="1138.44,-142.99 1127.86,-143.516 1136.46,-149.704 1138.44,-142.99"/>
</g>
<!-- Node32 -->
<g id="node32" class="node"><title>Node32</title>
<g id="a_node32"><a xlink:href="../../d1/d53/SerializationMethods_8h.html" target="_top" xlink:title="Type wrappers for enfording a specific serialization method. ">
<polygon fill="none" stroke="black" points="1198.5,-124.5 1198.5,-143.5 1365.5,-143.5 1365.5,-124.5 1198.5,-124.5"/>
<text text-anchor="middle" x="1282" y="-131.5" font-family="Helvetica,sans-Serif" font-size="10.00">Framework/SerializationMethods.h</text>
</a>
</g>
</g>
<!-- Node3&#45;&gt;Node32 -->
<g id="edge35" class="edge"><title>Node3&#45;&gt;Node32</title>
<path fill="none" stroke="midnightblue" d="M1282,-180.083C1282,-173.006 1282,-162.861 1282,-153.986"/>
<polygon fill="midnightblue" stroke="midnightblue" points="1285.5,-153.751 1282,-143.751 1278.5,-153.751 1285.5,-153.751"/>
</g>
<!-- Node3&#45;&gt;Node33 -->
<g id="edge39" class="edge"><title>Node3&#45;&gt;Node33</title>
<path fill="none" stroke="midnightblue" d="M1349.22,-186.487C1426.36,-182.324 1546.77,-171.512 1582,-144 1596.27,-132.853 1603.07,-112.824 1606.26,-97.9357"/>
<polygon fill="midnightblue" stroke="midnightblue" points="1609.76,-98.2422 1608.07,-87.7842 1602.87,-97.0182 1609.76,-98.2422"/>
</g>
<!-- Node34 -->
<g id="node34" class="node"><title>Node34</title>
<polygon fill="none" stroke="#bfbfbf" points="1384,-124.5 1384,-143.5 1440,-143.5 1440,-124.5 1384,-124.5"/>
<text text-anchor="middle" x="1412" y="-131.5" font-family="Helvetica,sans-Serif" font-size="10.00">TClass.h</text>
</g>
<!-- Node3&#45;&gt;Node34 -->
<g id="edge40" class="edge"><title>Node3&#45;&gt;Node34</title>
<path fill="none" stroke="midnightblue" d="M1302.6,-180.444C1323.99,-171.557 1357.68,-157.563 1382.02,-147.451"/>
<polygon fill="midnightblue" stroke="midnightblue" points="1383.61,-150.585 1391.5,-143.516 1380.92,-144.12 1383.61,-150.585"/>
</g>
<!-- Node35 -->
<g id="node35" class="node"><title>Node35</title>
<polygon fill="none" stroke="#bfbfbf" points="1458,-124.5 1458,-143.5 1510,-143.5 1510,-124.5 1458,-124.5"/>
<text text-anchor="middle" x="1484" y="-131.5" font-family="Helvetica,sans-Serif" font-size="10.00">sstream</text>
</g>
<!-- Node3&#45;&gt;Node35 -->
<g id="edge42" class="edge"><title>Node3&#45;&gt;Node35</title>
<path fill="none" stroke="midnightblue" d="M1314.01,-180.444C1350.41,-170.712 1409.72,-154.857 1447.79,-144.681"/>
<polygon fill="midnightblue" stroke="midnightblue" points="1449.17,-147.935 1457.92,-141.971 1447.36,-141.172 1449.17,-147.935"/>
</g>
<!-- Node36 -->
<g id="node36" class="node"><title>Node36</title>
<polygon fill="none" stroke="#bfbfbf" points="1528.5,-124.5 1528.5,-143.5 1573.5,-143.5 1573.5,-124.5 1528.5,-124.5"/>
<text text-anchor="middle" x="1551" y="-131.5" font-family="Helvetica,sans-Serif" font-size="10.00">gsl/gsl</text>
</g>
<!-- Node3&#45;&gt;Node36 -->
<g id="edge44" class="edge"><title>Node3&#45;&gt;Node36</title>
<path fill="none" stroke="midnightblue" d="M1334.05,-180.451C1380.09,-172.589 1449.25,-160.047 1518.56,-143.933"/>
<polygon fill="midnightblue" stroke="midnightblue" points="1519.4,-147.33 1528.34,-141.635 1517.8,-140.515 1519.4,-147.33"/>
</g>
<!-- Node5 -->
<g id="node5" class="node"><title>Node5</title>
<polygon fill="none" stroke="#bfbfbf" points="591,-68.5 591,-87.5 637,-87.5 637,-68.5 591,-68.5"/>
<text text-anchor="middle" x="614" y="-75.5" font-family="Helvetica,sans-Serif" font-size="10.00">cstdint</text>
</g>
<!-- Node4&#45;&gt;Node5 -->
<g id="edge5" class="edge"><title>Node4&#45;&gt;Node5</title>
<path fill="none" stroke="midnightblue" d="M519.995,-124.324C538.038,-115.625 566.047,-102.12 586.803,-92.113"/>
<polygon fill="midnightblue" stroke="midnightblue" points="588.562,-95.1502 596.05,-87.6545 585.522,-88.8449 588.562,-95.1502"/>
</g>
<!-- Node4&#45;&gt;Node6 -->
<g id="edge6" class="edge"><title>Node4&#45;&gt;Node6</title>
<path fill="none" stroke="midnightblue" d="M546.991,-124.442C589.638,-116.195 655.726,-103.067 722.787,-87.9632"/>
<polygon fill="midnightblue" stroke="midnightblue" points="723.706,-91.3437 732.686,-85.7207 722.16,-84.5167 723.706,-91.3437"/>
</g>
<!-- Node4&#45;&gt;Node7 -->
<g id="edge7" class="edge"><title>Node4&#45;&gt;Node7</title>
<path fill="none" stroke="midnightblue" d="M443.438,-124.629C387.236,-116.326 300.058,-102.741 225,-88 223.551,-87.7154 222.074,-87.4161 220.583,-87.1064"/>
<polygon fill="midnightblue" stroke="midnightblue" points="221.22,-83.6632 210.705,-84.9591 219.733,-90.5035 221.22,-83.6632"/>
</g>
<!-- Node4&#45;&gt;Node8 -->
<g id="edge8" class="edge"><title>Node4&#45;&gt;Node8</title>
<path fill="none" stroke="midnightblue" d="M447.332,-124.445C405.296,-117.06 346.125,-104.901 296,-88 276.028,-81.2657 272.315,-76.437 253,-68 214.276,-51.0847 203.699,-48.973 165,-32 163.416,-31.3053 161.793,-30.5818 160.159,-29.8442"/>
<polygon fill="midnightblue" stroke="midnightblue" points="161.415,-26.5696 150.868,-25.5682 158.489,-32.9285 161.415,-26.5696"/>
</g>
<!-- Node9 -->
<g id="node9" class="node"><title>Node9</title>
<polygon fill="none" stroke="#bfbfbf" points="517,-68.5 517,-87.5 573,-87.5 573,-68.5 517,-68.5"/>
<text text-anchor="middle" x="545" y="-75.5" font-family="Helvetica,sans-Serif" font-size="10.00">algorithm</text>
</g>
<!-- Node4&#45;&gt;Node9 -->
<g id="edge9" class="edge"><title>Node4&#45;&gt;Node9</title>
<path fill="none" stroke="midnightblue" d="M509.101,-124.083C515.237,-116.377 524.27,-105.033 531.739,-95.6531"/>
<polygon fill="midnightblue" stroke="midnightblue" points="534.54,-97.7542 538.032,-87.7511 529.064,-93.3936 534.54,-97.7542"/>
</g>
<!-- Node4&#45;&gt;Node10 -->
<g id="edge10" class="edge"><title>Node4&#45;&gt;Node10</title>
<path fill="none" stroke="midnightblue" d="M530.997,-124.444C562.185,-115.241 611.93,-100.562 646.408,-90.3879"/>
<polygon fill="midnightblue" stroke="midnightblue" points="647.538,-93.7036 656.139,-87.5164 645.557,-86.9898 647.538,-93.7036"/>
</g>
<!-- Node4&#45;&gt;Node11 -->
<g id="edge11" class="edge"><title>Node4&#45;&gt;Node11</title>
<path fill="none" stroke="midnightblue" d="M443.355,-128.281C391.898,-122.773 315.706,-111.264 253,-88 236.563,-81.9019 235.051,-75.0512 219,-68 168.8,-45.947 151.922,-52.3318 101,-32 99.4013,-31.3617 97.7717,-30.6707 96.1398,-29.9479"/>
<polygon fill="midnightblue" stroke="midnightblue" points="97.5008,-26.7198 86.9651,-25.6023 94.5044,-33.0461 97.5008,-26.7198"/>
</g>
<!-- Node12 -->
<g id="node12" class="node"><title>Node12</title>
<g id="a_node12"><a xlink:href="../../dc/d03/MemoryResources_8h.html" target="_top" xlink:title="MemoryResources/MemoryResources.h">
<polygon fill="none" stroke="black" points="305.5,-68.5 305.5,-87.5 498.5,-87.5 498.5,-68.5 305.5,-68.5"/>
<text text-anchor="middle" x="402" y="-75.5" font-family="Helvetica,sans-Serif" font-size="10.00">MemoryResources/MemoryResources.h</text>
</a>
</g>
</g>
<!-- Node4&#45;&gt;Node12 -->
<g id="edge12" class="edge"><title>Node4&#45;&gt;Node12</title>
<path fill="none" stroke="midnightblue" d="M485.933,-124.324C470.042,-115.743 445.493,-102.486 427.042,-92.5224"/>
<polygon fill="midnightblue" stroke="midnightblue" points="428.489,-89.3264 418.027,-87.6545 425.163,-95.4857 428.489,-89.3264"/>
</g>
<!-- Node12&#45;&gt;Node8 -->
<g id="edge17" class="edge"><title>Node12&#45;&gt;Node8</title>
<path fill="none" stroke="midnightblue" d="M332.407,-68.474C284.561,-61.4817 219.988,-49.7955 165,-32 162.866,-31.3093 160.688,-30.5099 158.524,-29.6469"/>
<polygon fill="midnightblue" stroke="midnightblue" points="159.852,-26.4079 149.288,-25.597 157.041,-32.8186 159.852,-26.4079"/>
</g>
<!-- Node12&#45;&gt;Node11 -->
<g id="edge18" class="edge"><title>Node12&#45;&gt;Node11</title>
<path fill="none" stroke="midnightblue" d="M305.363,-70.3441C245.454,-64.3198 167.505,-53.0124 101,-32 99.0844,-31.3948 97.1402,-30.6802 95.21,-29.8968"/>
<polygon fill="midnightblue" stroke="midnightblue" points="96.4188,-26.6002 85.8719,-25.5935 93.489,-32.9576 96.4188,-26.6002"/>
</g>
<!-- Node13 -->
<g id="node13" class="node"><title>Node13</title>
<polygon fill="none" stroke="#bfbfbf" points="598,-1 598,-31 698,-31 698,-1 598,-1"/>
<text text-anchor="start" x="606" y="-19" font-family="Helvetica,sans-Serif" font-size="10.00">boost/container/flat</text>
<text text-anchor="middle" x="648" y="-8" font-family="Helvetica,sans-Serif" font-size="10.00">_map.hpp</text>
</g>
<!-- Node12&#45;&gt;Node13 -->
<g id="edge13" class="edge"><title>Node12&#45;&gt;Node13</title>
<path fill="none" stroke="midnightblue" d="M437.677,-68.4536C475.135,-59.4608 535.736,-44.8551 588,-32 588.101,-31.9752 588.202,-31.9503 588.303,-31.9254"/>
<polygon fill="midnightblue" stroke="midnightblue" points="589.048,-35.3468 597.917,-29.551 587.369,-28.551 589.048,-35.3468"/>
</g>
<!-- Node14 -->
<g id="node14" class="node"><title>Node14</title>
<polygon fill="none" stroke="#bfbfbf" points="716,-1 716,-31 832,-31 832,-1 716,-1"/>
<text text-anchor="start" x="724" y="-19" font-family="Helvetica,sans-Serif" font-size="10.00">boost/container/pmr</text>
<text text-anchor="middle" x="774" y="-8" font-family="Helvetica,sans-Serif" font-size="10.00">/memory_resource.hpp</text>
</g>
<!-- Node12&#45;&gt;Node14 -->
<g id="edge14" class="edge"><title>Node12&#45;&gt;Node14</title>
<path fill="none" stroke="midnightblue" d="M469.473,-68.4986C529.135,-60.6499 618.74,-48.0565 705.886,-32.1279"/>
<polygon fill="midnightblue" stroke="midnightblue" points="706.75,-35.5277 715.949,-30.2715 705.48,-28.6439 706.75,-35.5277"/>
</g>
<!-- Node15 -->
<g id="node15" class="node"><title>Node15</title>
<polygon fill="none" stroke="#bfbfbf" points="850,-1 850,-31 1006,-31 1006,-1 850,-1"/>
<text text-anchor="start" x="858" y="-19" font-family="Helvetica,sans-Serif" font-size="10.00">boost/container/pmr</text>
<text text-anchor="middle" x="928" y="-8" font-family="Helvetica,sans-Serif" font-size="10.00">/monotonic_buffer_resource.hpp</text>
</g>
<!-- Node12&#45;&gt;Node15 -->
<g id="edge15" class="edge"><title>Node12&#45;&gt;Node15</title>
<path fill="none" stroke="midnightblue" d="M491.958,-68.47C595.399,-58.5417 760.05,-42.3419 839.639,-31.9631"/>
<polygon fill="midnightblue" stroke="midnightblue" points="840.383,-35.3949 849.831,-30.6014 839.456,-28.4565 840.383,-35.3949"/>
</g>
<!-- Node16 -->
<g id="node16" class="node"><title>Node16</title>
<polygon fill="none" stroke="#bfbfbf" points="1024.5,-1 1024.5,-31 1157.5,-31 1157.5,-1 1024.5,-1"/>
<text text-anchor="start" x="1032.5" y="-19" font-family="Helvetica,sans-Serif" font-size="10.00">boost/container/pmr</text>
<text text-anchor="middle" x="1091" y="-8" font-family="Helvetica,sans-Serif" font-size="10.00">/polymorphic_allocator.hpp</text>
</g>
<!-- Node12&#45;&gt;Node16 -->
<g id="edge16" class="edge"><title>Node12&#45;&gt;Node16</title>
<path fill="none" stroke="midnightblue" d="M498.758,-68.7292C501.875,-68.4805 504.962,-68.2368 508,-68 729.918,-50.701 789.359,-61.5982 1014.21,-31.9877"/>
<polygon fill="midnightblue" stroke="midnightblue" points="1014.9,-35.4273 1024.35,-30.6401 1013.98,-28.4883 1014.9,-35.4273"/>
</g>
<!-- Node12&#45;&gt;Node17 -->
<g id="edge19" class="edge"><title>Node12&#45;&gt;Node17</title>
<path fill="none" stroke="midnightblue" d="M498.751,-68.6238C501.87,-68.4054 504.959,-68.1967 508,-68 729.651,-53.6641 1435.08,-25.5917 1612.96,-18.6041"/>
<polygon fill="midnightblue" stroke="midnightblue" points="1613.1,-22.1014 1622.96,-18.2119 1612.83,-15.1068 1613.1,-22.1014"/>
</g>
<!-- Node18 -->
<g id="node18" class="node"><title>Node18</title>
<polygon fill="none" stroke="#bfbfbf" points="174,-6.5 174,-25.5 214,-25.5 214,-6.5 174,-6.5"/>
<text text-anchor="middle" x="194" y="-13.5" font-family="Helvetica,sans-Serif" font-size="10.00">utility</text>
</g>
<!-- Node12&#45;&gt;Node18 -->
<g id="edge20" class="edge"><title>Node12&#45;&gt;Node18</title>
<path fill="none" stroke="midnightblue" d="M355.866,-68.4645C319.179,-60.9522 266.904,-48.6169 223,-32 221.396,-31.393 219.767,-30.7201 218.14,-30.0052"/>
<polygon fill="midnightblue" stroke="midnightblue" points="219.576,-26.812 209.048,-25.6199 216.535,-33.1169 219.576,-26.812"/>
</g>
<!-- Node12&#45;&gt;Node19 -->
<g id="edge21" class="edge"><title>Node12&#45;&gt;Node19</title>
<path fill="none" stroke="midnightblue" d="M498.753,-68.6644C501.872,-68.4344 504.96,-68.2122 508,-68 654.086,-57.8043 1023.99,-67.7328 1166,-32 1168.5,-31.3712 1171.04,-30.545 1173.54,-29.603"/>
<polygon fill="midnightblue" stroke="midnightblue" points="1175.04,-32.7662 1182.82,-25.5696 1172.25,-26.3465 1175.04,-32.7662"/>
</g>
<!-- Node20 -->
<g id="node20" class="node"><title>Node20</title>
<polygon fill="none" stroke="#bfbfbf" points="232.5,-6.5 232.5,-25.5 315.5,-25.5 315.5,-6.5 232.5,-6.5"/>
<text text-anchor="middle" x="274" y="-13.5" font-family="Helvetica,sans-Serif" font-size="10.00">unordered_map</text>
</g>
<!-- Node12&#45;&gt;Node20 -->
<g id="edge22" class="edge"><title>Node12&#45;&gt;Node20</title>
<path fill="none" stroke="midnightblue" d="M383.661,-68.4035C362.179,-58.3341 326.378,-41.5522 301.552,-29.9151"/>
<polygon fill="midnightblue" stroke="midnightblue" points="302.845,-26.6559 292.305,-25.5806 299.874,-32.9941 302.845,-26.6559"/>
</g>
<!-- Node21 -->
<g id="node21" class="node"><title>Node21</title>
<polygon fill="none" stroke="#bfbfbf" points="333.5,-6.5 333.5,-25.5 430.5,-25.5 430.5,-6.5 333.5,-6.5"/>
<text text-anchor="middle" x="382" y="-13.5" font-family="Helvetica,sans-Serif" font-size="10.00">FairMQMessage.h</text>
</g>
<!-- Node12&#45;&gt;Node21 -->
<g id="edge23" class="edge"><title>Node12&#45;&gt;Node21</title>
<path fill="none" stroke="midnightblue" d="M399.134,-68.4035C396.253,-59.7599 391.723,-46.17 388.045,-35.1341"/>
<polygon fill="midnightblue" stroke="midnightblue" points="391.343,-33.9606 384.86,-25.5806 384.702,-36.1742 391.343,-33.9606"/>
</g>
<!-- Node22 -->
<g id="node22" class="node"><title>Node22</title>
<polygon fill="none" stroke="#bfbfbf" points="448.5,-6.5 448.5,-25.5 579.5,-25.5 579.5,-6.5 448.5,-6.5"/>
<text text-anchor="middle" x="514" y="-13.5" font-family="Helvetica,sans-Serif" font-size="10.00">FairMQTransportFactory.h</text>
</g>
<!-- Node12&#45;&gt;Node22 -->
<g id="edge24" class="edge"><title>Node12&#45;&gt;Node22</title>
<path fill="none" stroke="midnightblue" d="M418.047,-68.4035C436.593,-58.4678 467.34,-41.9966 489.022,-30.3812"/>
<polygon fill="midnightblue" stroke="midnightblue" points="490.821,-33.388 497.983,-25.5806 487.515,-27.2177 490.821,-33.388"/>
</g>
<!-- Node23&#45;&gt;Node6 -->
<g id="edge33" class="edge"><title>Node23&#45;&gt;Node6</title>
<path fill="none" stroke="midnightblue" d="M1045.13,-124.444C975.352,-113.362 855.586,-94.3401 795.552,-84.8054"/>
<polygon fill="midnightblue" stroke="midnightblue" points="795.834,-81.3063 785.408,-83.1943 794.736,-88.2196 795.834,-81.3063"/>
</g>
<!-- Node24 -->
<g id="node24" class="node"><title>Node24</title>
<polygon fill="none" stroke="#bfbfbf" points="1056.5,-68.5 1056.5,-87.5 1183.5,-87.5 1183.5,-68.5 1056.5,-68.5"/>
<text text-anchor="middle" x="1120" y="-75.5" font-family="Helvetica,sans-Serif" font-size="10.00">fairmq/FairMQMessage.h</text>
</g>
<!-- Node23&#45;&gt;Node24 -->
<g id="edge26" class="edge"><title>Node23&#45;&gt;Node24</title>
<path fill="none" stroke="midnightblue" d="M1102.47,-124.083C1105.31,-116.77 1109.43,-106.181 1112.96,-97.1034"/>
<polygon fill="midnightblue" stroke="midnightblue" points="1116.23,-98.3397 1116.6,-87.7511 1109.71,-95.8025 1116.23,-98.3397"/>
</g>
<!-- Node25 -->
<g id="node25" class="node"><title>Node25</title>
<polygon fill="none" stroke="#bfbfbf" points="1201.5,-68.5 1201.5,-87.5 1248.5,-87.5 1248.5,-68.5 1201.5,-68.5"/>
<text text-anchor="middle" x="1225" y="-75.5" font-family="Helvetica,sans-Serif" font-size="10.00">TList.h</text>
</g>
<!-- Node23&#45;&gt;Node25 -->
<g id="edge27" class="edge"><title>Node23&#45;&gt;Node25</title>
<path fill="none" stroke="midnightblue" d="M1118.97,-124.444C1139.61,-115.596 1172.06,-101.687 1195.63,-91.5865"/>
<polygon fill="midnightblue" stroke="midnightblue" points="1197.32,-94.6727 1205.13,-87.5164 1194.56,-88.2387 1197.32,-94.6727"/>
</g>
<!-- Node26 -->
<g id="node26" class="node"><title>Node26</title>
<polygon fill="none" stroke="#bfbfbf" points="1266.5,-68.5 1266.5,-87.5 1337.5,-87.5 1337.5,-68.5 1266.5,-68.5"/>
<text text-anchor="middle" x="1302" y="-75.5" font-family="Helvetica,sans-Serif" font-size="10.00">TMessage.h</text>
</g>
<!-- Node23&#45;&gt;Node26 -->
<g id="edge28" class="edge"><title>Node23&#45;&gt;Node26</title>
<path fill="none" stroke="midnightblue" d="M1131.17,-124.444C1166.06,-115.162 1221.89,-100.309 1260.17,-90.127"/>
<polygon fill="midnightblue" stroke="midnightblue" points="1261.22,-93.4696 1269.98,-87.5164 1259.42,-86.7048 1261.22,-93.4696"/>
</g>
<!-- Node27 -->
<g id="node27" class="node"><title>Node27</title>
<polygon fill="none" stroke="#bfbfbf" points="1355.5,-68.5 1355.5,-87.5 1424.5,-87.5 1424.5,-68.5 1355.5,-68.5"/>
<text text-anchor="middle" x="1390" y="-75.5" font-family="Helvetica,sans-Serif" font-size="10.00">TObjArray.h</text>
</g>
<!-- Node23&#45;&gt;Node27 -->
<g id="edge29" class="edge"><title>Node23&#45;&gt;Node27</title>
<path fill="none" stroke="midnightblue" d="M1147.8,-124.429C1195.52,-115.976 1270.52,-102.5 1345.35,-88.0911"/>
<polygon fill="midnightblue" stroke="midnightblue" points="1346.27,-91.4781 1355.43,-86.145 1344.94,-84.6051 1346.27,-91.4781"/>
</g>
<!-- Node28 -->
<g id="node28" class="node"><title>Node28</title>
<polygon fill="none" stroke="#bfbfbf" points="1442.5,-68.5 1442.5,-87.5 1529.5,-87.5 1529.5,-68.5 1442.5,-68.5"/>
<text text-anchor="middle" x="1486" y="-75.5" font-family="Helvetica,sans-Serif" font-size="10.00">TStreamerInfo.h</text>
</g>
<!-- Node23&#45;&gt;Node28 -->
<g id="edge30" class="edge"><title>Node23&#45;&gt;Node28</title>
<path fill="none" stroke="midnightblue" d="M1167.54,-124.463C1232.89,-116.166 1334.31,-102.875 1432.27,-88.0658"/>
<polygon fill="midnightblue" stroke="midnightblue" points="1432.99,-91.497 1442.35,-86.5348 1431.93,-84.5764 1432.99,-91.497"/>
</g>
<!-- Node29 -->
<g id="node29" class="node"><title>Node29</title>
<polygon fill="none" stroke="#bfbfbf" points="841.5,-68.5 841.5,-87.5 904.5,-87.5 904.5,-68.5 841.5,-68.5"/>
<text text-anchor="middle" x="873" y="-75.5" font-family="Helvetica,sans-Serif" font-size="10.00">gsl/gsl_util</text>
</g>
<!-- Node23&#45;&gt;Node29 -->
<g id="edge31" class="edge"><title>Node23&#45;&gt;Node29</title>
<path fill="none" stroke="midnightblue" d="M1063.19,-124.444C1022.74,-114.78 957.029,-99.0778 914.411,-88.8947"/>
<polygon fill="midnightblue" stroke="midnightblue" points="915.171,-85.4779 904.632,-86.558 913.544,-92.2862 915.171,-85.4779"/>
</g>
<!-- Node30 -->
<g id="node30" class="node"><title>Node30</title>
<polygon fill="none" stroke="#bfbfbf" points="922.5,-68.5 922.5,-87.5 975.5,-87.5 975.5,-68.5 922.5,-68.5"/>
<text text-anchor="middle" x="949" y="-75.5" font-family="Helvetica,sans-Serif" font-size="10.00">gsl/span</text>
</g>
<!-- Node23&#45;&gt;Node30 -->
<g id="edge32" class="edge"><title>Node23&#45;&gt;Node30</title>
<path fill="none" stroke="midnightblue" d="M1075.23,-124.444C1050.11,-115.399 1010.29,-101.064 982.1,-90.9158"/>
<polygon fill="midnightblue" stroke="midnightblue" points="983.251,-87.6106 972.657,-87.5164 980.88,-94.1968 983.251,-87.6106"/>
</g>
<!-- Node31 -->
<g id="node31" class="node"><title>Node31</title>
<polygon fill="none" stroke="#bfbfbf" points="994,-68.5 994,-87.5 1038,-87.5 1038,-68.5 994,-68.5"/>
<text text-anchor="middle" x="1016" y="-75.5" font-family="Helvetica,sans-Serif" font-size="10.00">mutex</text>
</g>
<!-- Node23&#45;&gt;Node31 -->
<g id="edge34" class="edge"><title>Node23&#45;&gt;Node31</title>
<path fill="none" stroke="midnightblue" d="M1085.66,-124.324C1072.84,-115.979 1053.22,-103.212 1038.06,-93.3524"/>
<polygon fill="midnightblue" stroke="midnightblue" points="1039.59,-90.1742 1029.3,-87.6545 1035.78,-96.0417 1039.59,-90.1742"/>
</g>
<!-- Node32&#45;&gt;Node33 -->
<g id="edge36" class="edge"><title>Node32&#45;&gt;Node33</title>
<path fill="none" stroke="midnightblue" d="M1333.81,-124.444C1391.82,-114.865 1485.74,-99.3556 1547.44,-89.1667"/>
<polygon fill="midnightblue" stroke="midnightblue" points="1548.13,-92.5991 1557.43,-87.5164 1546.99,-85.6926 1548.13,-92.5991"/>
</g>
<!-- Node33&#45;&gt;Node17 -->
<g id="edge37" class="edge"><title>Node33&#45;&gt;Node17</title>
<path fill="none" stroke="midnightblue" d="M1615.45,-68.4035C1622.2,-59.4034 1632.97,-45.0408 1641.41,-33.7824"/>
<polygon fill="midnightblue" stroke="midnightblue" points="1644.36,-35.6806 1647.56,-25.5806 1638.76,-31.4806 1644.36,-35.6806"/>
</g>
<!-- Node33&#45;&gt;Node19 -->
<g id="edge38" class="edge"><title>Node33&#45;&gt;Node19</title>
<path fill="none" stroke="midnightblue" d="M1550.55,-68.4672C1462.83,-55.6609 1300.03,-31.8949 1230.67,-21.769"/>
<polygon fill="midnightblue" stroke="midnightblue" points="1230.76,-18.246 1220.36,-20.2647 1229.75,-25.1726 1230.76,-18.246"/>
</g>
<!-- Node37&#45;&gt;Node11 -->
<g id="edge52" class="edge"><title>Node37&#45;&gt;Node11</title>
<path fill="none" stroke="midnightblue" d="M190.649,-236.417C169.171,-229.741 143.136,-218.425 126,-200 82.1689,-152.872 73.184,-72.0762 71.4028,-35.7073"/>
<polygon fill="midnightblue" stroke="midnightblue" points="74.8952,-35.4288 71.0425,-25.5593 67.8996,-35.6772 74.8952,-35.4288"/>
</g>
<!-- Node38 -->
<g id="node38" class="node"><title>Node38</title>
<g id="a_node38"><a xlink:href="../../d5/d3f/InputSpec_8h.html" target="_top" xlink:title="Framework/InputSpec.h">
<polygon fill="none" stroke="black" points="135.5,-180.5 135.5,-199.5 256.5,-199.5 256.5,-180.5 135.5,-180.5"/>
<text text-anchor="middle" x="196" y="-187.5" font-family="Helvetica,sans-Serif" font-size="10.00">Framework/InputSpec.h</text>
</a>
</g>
</g>
<!-- Node37&#45;&gt;Node38 -->
<g id="edge46" class="edge"><title>Node37&#45;&gt;Node38</title>
<path fill="none" stroke="midnightblue" d="M222.716,-236.083C218.289,-228.613 211.837,-217.724 206.382,-208.52"/>
<polygon fill="midnightblue" stroke="midnightblue" points="209.295,-206.57 201.186,-199.751 203.273,-210.138 209.295,-206.57"/>
</g>
<!-- Node41 -->
<g id="node41" class="node"><title>Node41</title>
<polygon fill="none" stroke="#bfbfbf" points="274.5,-180.5 274.5,-199.5 323.5,-199.5 323.5,-180.5 274.5,-180.5"/>
<text text-anchor="middle" x="299" y="-187.5" font-family="Helvetica,sans-Serif" font-size="10.00">cstddef</text>
</g>
<!-- Node37&#45;&gt;Node41 -->
<g id="edge51" class="edge"><title>Node37&#45;&gt;Node41</title>
<path fill="none" stroke="midnightblue" d="M239.407,-236.324C250.109,-228.185 266.341,-215.839 279.163,-206.087"/>
<polygon fill="midnightblue" stroke="midnightblue" points="281.544,-208.673 287.385,-199.834 277.307,-203.102 281.544,-208.673"/>
</g>
<!-- Node38&#45;&gt;Node4 -->
<g id="edge50" class="edge"><title>Node38&#45;&gt;Node4</title>
<path fill="none" stroke="midnightblue" d="M244.487,-180.444C298.539,-170.905 385.928,-155.483 443.673,-145.293"/>
<polygon fill="midnightblue" stroke="midnightblue" points="444.501,-148.701 453.74,-143.516 443.284,-141.808 444.501,-148.701"/>
</g>
<!-- Node38&#45;&gt;Node11 -->
<g id="edge47" class="edge"><title>Node38&#45;&gt;Node11</title>
<path fill="none" stroke="midnightblue" d="M179.79,-180.475C165.934,-172.535 146.198,-159.595 133,-144 104.568,-110.405 85.5405,-61.5375 76.697,-35.2934"/>
<polygon fill="midnightblue" stroke="midnightblue" points="79.9483,-33.9731 73.5328,-25.5415 73.2901,-36.1336 79.9483,-33.9731"/>
</g>
<!-- Node39 -->
<g id="node39" class="node"><title>Node39</title>
<polygon fill="none" stroke="#bfbfbf" points="142,-124.5 142,-143.5 194,-143.5 194,-124.5 142,-124.5"/>
<text text-anchor="middle" x="168" y="-131.5" font-family="Helvetica,sans-Serif" font-size="10.00">ostream</text>
</g>
<!-- Node38&#45;&gt;Node39 -->
<g id="edge48" class="edge"><title>Node38&#45;&gt;Node39</title>
<path fill="none" stroke="midnightblue" d="M191.376,-180.083C187.544,-172.691 181.976,-161.953 177.235,-152.811"/>
<polygon fill="midnightblue" stroke="midnightblue" points="180.248,-151.018 172.538,-143.751 174.034,-154.24 180.248,-151.018"/>
</g>
<!-- Node40 -->
<g id="node40" class="node"><title>Node40</title>
<g id="a_node40"><a xlink:href="../../dc/dca/Lifetime_8h.html" target="_top" xlink:title="Framework/Lifetime.h">
<polygon fill="none" stroke="black" points="212.5,-124.5 212.5,-143.5 323.5,-143.5 323.5,-124.5 212.5,-124.5"/>
<text text-anchor="middle" x="268" y="-131.5" font-family="Helvetica,sans-Serif" font-size="10.00">Framework/Lifetime.h</text>
</a>
</g>
</g>
<!-- Node38&#45;&gt;Node40 -->
<g id="edge49" class="edge"><title>Node38&#45;&gt;Node40</title>
<path fill="none" stroke="midnightblue" d="M207.568,-180.324C218.42,-172.185 234.881,-159.839 247.883,-150.087"/>
<polygon fill="midnightblue" stroke="midnightblue" points="250.321,-152.634 256.221,-143.834 246.121,-147.034 250.321,-152.634"/>
</g>
</g>
</svg>
