<?xml version="1.0" encoding="UTF-8" standalone="no"?>
<!DOCTYPE svg PUBLIC "-//W3C//DTD SVG 1.1//EN"
 "http://www.w3.org/Graphics/SVG/1.1/DTD/svg11.dtd">
<!-- Generated by graphviz version 2.36.0 (20140111.2315)
 -->
<!-- Title: /home/travis/build/AliceO2Group/AliceO2/Detectors/FIT/reconstruction/include/FITReconstruction/RecPoints.h Pages: 1 -->
<svg width="354pt" height="262pt"
 viewBox="0.00 0.00 354.00 262.00" xmlns="http://www.w3.org/2000/svg" xmlns:xlink="http://www.w3.org/1999/xlink">
<g id="graph0" class="graph" transform="scale(1 1) rotate(0) translate(4 258)">
<title>/home/travis/build/AliceO2Group/AliceO2/Detectors/FIT/reconstruction/include/FITReconstruction/RecPoints.h</title>
<!-- Node1 -->
<g id="node1" class="node"><title>Node1</title>
<polygon fill="#bfbfbf" stroke="black" points="100.5,-190.5 100.5,-253.5 245.5,-253.5 245.5,-190.5 100.5,-190.5"/>
<text text-anchor="start" x="108.5" y="-241.5" font-family="Helvetica,sans-Serif" font-size="10.00">/home/travis/build</text>
<text text-anchor="start" x="108.5" y="-230.5" font-family="Helvetica,sans-Serif" font-size="10.00">/AliceO2Group/AliceO2</text>
<text text-anchor="start" x="108.5" y="-219.5" font-family="Helvetica,sans-Serif" font-size="10.00">/Detectors/FIT/reconstruction</text>
<text text-anchor="start" x="108.5" y="-208.5" font-family="Helvetica,sans-Serif" font-size="10.00">/include/FITReconstruction</text>
<text text-anchor="middle" x="173" y="-197.5" font-family="Helvetica,sans-Serif" font-size="10.00">/RecPoints.h</text>
</g>
<!-- Node2 -->
<g id="node2" class="node"><title>Node2</title>
<g id="a_node2"><a xlink:href="../../d1/d6c/CollisionTimeRecoTask_8h.html" target="_top" xlink:title="Definition of the FIT collision time reconstruction task. ">
<polygon fill="none" stroke="black" points="-0.5,-90.5 -0.5,-153.5 144.5,-153.5 144.5,-90.5 -0.5,-90.5"/>
<text text-anchor="start" x="7.5" y="-141.5" font-family="Helvetica,sans-Serif" font-size="10.00">/home/travis/build</text>
<text text-anchor="start" x="7.5" y="-130.5" font-family="Helvetica,sans-Serif" font-size="10.00">/AliceO2Group/AliceO2</text>
<text text-anchor="start" x="7.5" y="-119.5" font-family="Helvetica,sans-Serif" font-size="10.00">/Detectors/FIT/reconstruction</text>
<text text-anchor="start" x="7.5" y="-108.5" font-family="Helvetica,sans-Serif" font-size="10.00">/include/FITReconstruction</text>
<text text-anchor="middle" x="72" y="-97.5" font-family="Helvetica,sans-Serif" font-size="10.00">/CollisionTimeRecoTask.h</text>
</a>
</g>
</g>
<!-- Node1&#45;&gt;Node2 -->
<g id="edge1" class="edge"><title>Node1&#45;&gt;Node2</title>
<path fill="none" stroke="midnightblue" d="M134.104,-183.259C124.001,-173.456 113.242,-163.017 103.568,-153.63"/>
<polygon fill="midnightblue" stroke="midnightblue" points="131.706,-185.809 141.32,-190.261 136.581,-180.785 131.706,-185.809"/>
</g>
<!-- Node3 -->
<g id="node3" class="node"><title>Node3</title>
<g id="a_node3"><a xlink:href="../../d9/d2f/CollisionTimeRecoTask_8cxx.html" target="_top" xlink:title="Implementation of the FIT reconstruction task. ">
<polygon fill="none" stroke="black" points="42.5,-1 42.5,-53 201.5,-53 201.5,-1 42.5,-1"/>
<text text-anchor="start" x="50.5" y="-41" font-family="Helvetica,sans-Serif" font-size="10.00">/home/travis/build</text>
<text text-anchor="start" x="50.5" y="-30" font-family="Helvetica,sans-Serif" font-size="10.00">/AliceO2Group/AliceO2</text>
<text text-anchor="start" x="50.5" y="-19" font-family="Helvetica,sans-Serif" font-size="10.00">/Detectors/FIT/reconstruction</text>
<text text-anchor="middle" x="122" y="-8" font-family="Helvetica,sans-Serif" font-size="10.00">/src/CollisionTimeRecoTask.cxx</text>
</a>
</g>
</g>
<!-- Node1&#45;&gt;Node3 -->
<g id="edge3" class="edge"><title>Node1&#45;&gt;Node3</title>
<path fill="none" stroke="midnightblue" d="M170.099,-180.49C167.423,-154.221 162.377,-119.52 153,-90 148.992,-77.3834 142.705,-64.1621 136.837,-53.1851"/>
<polygon fill="midnightblue" stroke="midnightblue" points="166.618,-180.848 171.045,-190.473 173.586,-180.188 166.618,-180.848"/>
</g>
<!-- Node4 -->
<g id="node4" class="node"><title>Node4</title>
<g id="a_node4"><a xlink:href="../../d3/d21/RecPoints_8cxx.html" target="_top" xlink:title="/home/travis/build\l/AliceO2Group/AliceO2\l/Detectors/FIT/reconstruction\l/src/RecPoints.cxx">
<polygon fill="none" stroke="black" points="201.5,-96 201.5,-148 346.5,-148 346.5,-96 201.5,-96"/>
<text text-anchor="start" x="209.5" y="-136" font-family="Helvetica,sans-Serif" font-size="10.00">/home/travis/build</text>
<text text-anchor="start" x="209.5" y="-125" font-family="Helvetica,sans-Serif" font-size="10.00">/AliceO2Group/AliceO2</text>
<text text-anchor="start" x="209.5" y="-114" font-family="Helvetica,sans-Serif" font-size="10.00">/Detectors/FIT/reconstruction</text>
<text text-anchor="middle" x="274" y="-103" font-family="Helvetica,sans-Serif" font-size="10.00">/src/RecPoints.cxx</text>
</a>
</g>
</g>
<!-- Node1&#45;&gt;Node4 -->
<g id="edge4" class="edge"><title>Node1&#45;&gt;Node4</title>
<path fill="none" stroke="midnightblue" d="M212.072,-183.089C224.178,-171.342 237.209,-158.698 248.179,-148.054"/>
<polygon fill="midnightblue" stroke="midnightblue" points="209.419,-180.785 204.68,-190.261 214.294,-185.809 209.419,-180.785"/>
</g>
<!-- Node2&#45;&gt;Node3 -->
<g id="edge2" class="edge"><title>Node2&#45;&gt;Node3</title>
<path fill="none" stroke="midnightblue" d="M93.3455,-81.2973C98.4864,-71.7353 103.838,-61.7814 108.505,-53.1001"/>
<polygon fill="midnightblue" stroke="midnightblue" points="90.1631,-79.8254 88.5104,-90.2906 96.3286,-83.1402 90.1631,-79.8254"/>
</g>
</g>
</svg>
