<?xml version="1.0" encoding="UTF-8" standalone="no"?>
<!DOCTYPE svg PUBLIC "-//W3C//DTD SVG 1.1//EN"
 "http://www.w3.org/Graphics/SVG/1.1/DTD/svg11.dtd">
<!-- Generated by graphviz version 2.36.0 (20140111.2315)
 -->
<!-- Title: o2::fit::Digit Pages: 1 -->
<svg width="172pt" height="500pt"
 viewBox="0.00 0.00 172.00 500.00" xmlns="http://www.w3.org/2000/svg" xmlns:xlink="http://www.w3.org/1999/xlink">
<g id="graph0" class="graph" transform="scale(1 1) rotate(0) translate(4 496)">
<title>o2::fit::Digit</title>
<!-- Node1 -->
<g id="node1" class="node"><title>Node1</title>
<polygon fill="#bfbfbf" stroke="black" points="41,-1 41,-201 123,-201 123,-1 41,-1"/>
<text text-anchor="middle" x="82" y="-189" font-family="Helvetica,sans-Serif" font-size="10.00">o2::fit::Digit</text>
<polyline fill="none" stroke="black" points="41,-182 123,-182 "/>
<text text-anchor="middle" x="82" y="-170" font-family="Helvetica,sans-Serif" font-size="10.00"> </text>
<polyline fill="none" stroke="black" points="41,-163 123,-163 "/>
<text text-anchor="start" x="49" y="-151" font-family="Helvetica,sans-Serif" font-size="10.00">+ Digit()</text>
<text text-anchor="start" x="49" y="-140" font-family="Helvetica,sans-Serif" font-size="10.00">+ Digit()</text>
<text text-anchor="start" x="49" y="-129" font-family="Helvetica,sans-Serif" font-size="10.00">+ ~Digit()</text>
<text text-anchor="start" x="49" y="-118" font-family="Helvetica,sans-Serif" font-size="10.00">+ getChannel()</text>
<text text-anchor="start" x="49" y="-107" font-family="Helvetica,sans-Serif" font-size="10.00">+ setChannel()</text>
<text text-anchor="start" x="49" y="-96" font-family="Helvetica,sans-Serif" font-size="10.00">+ getTime()</text>
<text text-anchor="start" x="49" y="-85" font-family="Helvetica,sans-Serif" font-size="10.00">+ setTime()</text>
<text text-anchor="start" x="49" y="-74" font-family="Helvetica,sans-Serif" font-size="10.00">+ getCFD()</text>
<text text-anchor="start" x="49" y="-63" font-family="Helvetica,sans-Serif" font-size="10.00">+ setCFD()</text>
<text text-anchor="start" x="49" y="-52" font-family="Helvetica,sans-Serif" font-size="10.00">+ getQTC()</text>
<text text-anchor="start" x="49" y="-41" font-family="Helvetica,sans-Serif" font-size="10.00">+ setQTC()</text>
<text text-anchor="start" x="49" y="-30" font-family="Helvetica,sans-Serif" font-size="10.00">+ getBC()</text>
<text text-anchor="start" x="49" y="-19" font-family="Helvetica,sans-Serif" font-size="10.00">+ setBC()</text>
<text text-anchor="start" x="49" y="-8" font-family="Helvetica,sans-Serif" font-size="10.00">+ printStream()</text>
</g>
<!-- Node2 -->
<g id="node2" class="node"><title>Node2</title>
<g id="a_node2"><a xlink:href="../../d0/d94/classo2_1_1dataformats_1_1TimeStamp.html" target="_top" xlink:title="{DigitBase\n||+ TimeStamp()\l+ TimeStamp()\l+ getTimeStamp()\l+ setTimeStamp()\l+ operator==()\l}">
<polygon fill="none" stroke="black" points="34.5,-240.5 34.5,-341.5 129.5,-341.5 129.5,-240.5 34.5,-240.5"/>
<text text-anchor="middle" x="82" y="-329.5" font-family="Helvetica,sans-Serif" font-size="10.00">DigitBase</text>
<polyline fill="none" stroke="black" points="34.5,-322.5 129.5,-322.5 "/>
<text text-anchor="middle" x="82" y="-310.5" font-family="Helvetica,sans-Serif" font-size="10.00"> </text>
<polyline fill="none" stroke="black" points="34.5,-303.5 129.5,-303.5 "/>
<text text-anchor="start" x="42.5" y="-291.5" font-family="Helvetica,sans-Serif" font-size="10.00">+ TimeStamp()</text>
<text text-anchor="start" x="42.5" y="-280.5" font-family="Helvetica,sans-Serif" font-size="10.00">+ TimeStamp()</text>
<text text-anchor="start" x="42.5" y="-269.5" font-family="Helvetica,sans-Serif" font-size="10.00">+ getTimeStamp()</text>
<text text-anchor="start" x="42.5" y="-258.5" font-family="Helvetica,sans-Serif" font-size="10.00">+ setTimeStamp()</text>
<text text-anchor="start" x="42.5" y="-247.5" font-family="Helvetica,sans-Serif" font-size="10.00">+ operator==()</text>
</a>
</g>
</g>
<!-- Node2&#45;&gt;Node1 -->
<g id="edge1" class="edge"><title>Node2&#45;&gt;Node1</title>
<path fill="none" stroke="midnightblue" d="M82,-229.949C82,-220.737 82,-211.023 82,-201.233"/>
<polygon fill="none" stroke="midnightblue" points="78.5001,-230.113 82,-240.113 85.5001,-230.113 78.5001,-230.113"/>
</g>
<!-- Node3 -->
<g id="node3" class="node"><title>Node3</title>
<g id="a_node3"><a xlink:href="../../d0/d94/classo2_1_1dataformats_1_1TimeStamp.html" target="_top" xlink:title="{o2::dataformats::TimeStamp\&lt; T \&gt;\n||+ TimeStamp()\l+ TimeStamp()\l+ getTimeStamp()\l+ setTimeStamp()\l+ operator==()\l}">
<polygon fill="none" stroke="black" points="-0.5,-390.5 -0.5,-491.5 164.5,-491.5 164.5,-390.5 -0.5,-390.5"/>
<text text-anchor="middle" x="82" y="-479.5" font-family="Helvetica,sans-Serif" font-size="10.00">o2::dataformats::TimeStamp&lt; T &gt;</text>
<polyline fill="none" stroke="black" points="-0.5,-472.5 164.5,-472.5 "/>
<text text-anchor="middle" x="82" y="-460.5" font-family="Helvetica,sans-Serif" font-size="10.00"> </text>
<polyline fill="none" stroke="black" points="-0.5,-453.5 164.5,-453.5 "/>
<text text-anchor="start" x="7.5" y="-441.5" font-family="Helvetica,sans-Serif" font-size="10.00">+ TimeStamp()</text>
<text text-anchor="start" x="7.5" y="-430.5" font-family="Helvetica,sans-Serif" font-size="10.00">+ TimeStamp()</text>
<text text-anchor="start" x="7.5" y="-419.5" font-family="Helvetica,sans-Serif" font-size="10.00">+ getTimeStamp()</text>
<text text-anchor="start" x="7.5" y="-408.5" font-family="Helvetica,sans-Serif" font-size="10.00">+ setTimeStamp()</text>
<text text-anchor="start" x="7.5" y="-397.5" font-family="Helvetica,sans-Serif" font-size="10.00">+ operator==()</text>
</a>
</g>
</g>
<!-- Node3&#45;&gt;Node2 -->
<g id="edge2" class="edge"><title>Node3&#45;&gt;Node2</title>
<path fill="none" stroke="orange" d="M82,-380.181C82,-367.359 82,-353.946 82,-341.562"/>
<polygon fill="orange" stroke="orange" points="78.5001,-380.306 82,-390.306 85.5001,-380.306 78.5001,-380.306"/>
<text text-anchor="middle" x="107" y="-363.5" font-family="Helvetica,sans-Serif" font-size="10.00"> &lt; double &gt;</text>
</g>
</g>
</svg>
