<?xml version="1.0" encoding="UTF-8" standalone="no"?>
<!DOCTYPE svg PUBLIC "-//W3C//DTD SVG 1.1//EN"
 "http://www.w3.org/Graphics/SVG/1.1/DTD/svg11.dtd">
<!-- Generated by graphviz version 2.36.0 (20140111.2315)
 -->
<!-- Title: FairTask Pages: 1 -->
<!--zoomable 348 -->
<svg id="main" version="1.1" xmlns="http://www.w3.org/2000/svg" xmlns:xlink="http://www.w3.org/1999/xlink" xml:space="preserve" onload="init(evt)">
<style type="text/css"><![CDATA[
.edge:hover path { stroke: red; }
.edge:hover polygon { stroke: red; fill: red; }
]]></style>
<script type="text/javascript"><![CDATA[
var edges = document.getElementsByTagName('g');
if (edges && edges.length) {
  for (var i=0;i<edges.length;i++) {
    if (edges[i].id.substr(0,4)=='edge') {
      edges[i].setAttribute('class','edge');
    }
  }
}
]]></script>
        <defs>
                <circle id="rim" cx="0" cy="0" r="7"/>
                <circle id="rim2" cx="0" cy="0" r="3.5"/>
                <g id="zoomPlus">
                        <use xlink:href="#rim" fill="#404040">
                                <set attributeName="fill" to="#808080" begin="zoomplus.mouseover" end="zoomplus.mouseout"/>
                        </use>
                        <path d="M-4,0h8M0,-4v8" fill="none" stroke="white" stroke-width="1.5" pointer-events="none"/>
                </g>
                <g id="zoomMin">
                        <use xlink:href="#rim" fill="#404040">
                                <set attributeName="fill" to="#808080" begin="zoomminus.mouseover" end="zoomminus.mouseout"/>
                        </use>
                        <path d="M-4,0h8" fill="none" stroke="white" stroke-width="1.5" pointer-events="none"/>
                </g>
                <g id="dirArrow">
                        <path fill="none" stroke="white" stroke-width="1.5" d="M0,-3.0v7 M-2.5,-0.5L0,-3.0L2.5,-0.5"/>
                </g>
               <g id="resetDef">
                       <use xlink:href="#rim2" fill="#404040">
                               <set attributeName="fill" to="#808080" begin="reset.mouseover" end="reset.mouseout"/>
                       </use>
               </g>
        </defs>

<script type="text/javascript">
var viewWidth = 2335;
var viewHeight = 348;
var sectionId = 'dynsection-0';
</script>
<script xlink:href="../../svgpan.js"/>
<svg id="graph" class="graph">
<g id="viewport">
<title>FairTask</title>
<!-- Node1 -->
<g id="node1" class="node"><title>Node1</title>
<polygon fill="#bfbfbf" stroke="black" points="1137.5,-282.5 1137.5,-339.5 1192.5,-339.5 1192.5,-282.5 1137.5,-282.5"/>
<text text-anchor="middle" x="1165" y="-327.5" font-family="Helvetica,sans-Serif" font-size="10.00">FairTask</text>
<polyline fill="none" stroke="black" points="1137.5,-320.5 1192.5,-320.5 "/>
<text text-anchor="middle" x="1165" y="-308.5" font-family="Helvetica,sans-Serif" font-size="10.00"> </text>
<polyline fill="none" stroke="black" points="1137.5,-301.5 1192.5,-301.5 "/>
<text text-anchor="middle" x="1165" y="-289.5" font-family="Helvetica,sans-Serif" font-size="10.00"> </text>
</g>
<!-- Node2 -->
<g id="node2" class="node"><title>Node2</title>
<g id="a_node2"><a xlink:href="../../de/d8a/classo2_1_1EMCAL_1_1DigitizerTask.html" target="_top" xlink:title="{o2::EMCAL::DigitizerTask\n||+ DigitizerTask()\l+ ~DigitizerTask()\l+ Init()\l+ Exec()\l+ FinishTask()\l+ getDigitizer()\l+ setFairTimeUnitInNS()\l+ getFairTimeUnitInNS()\l}">
<polygon fill="none" stroke="black" points="-0.5,-56 -0.5,-190 130.5,-190 130.5,-56 -0.5,-56"/>
<text text-anchor="middle" x="65" y="-178" font-family="Helvetica,sans-Serif" font-size="10.00">o2::EMCAL::DigitizerTask</text>
<polyline fill="none" stroke="black" points="-0.5,-171 130.5,-171 "/>
<text text-anchor="middle" x="65" y="-159" font-family="Helvetica,sans-Serif" font-size="10.00"> </text>
<polyline fill="none" stroke="black" points="-0.5,-152 130.5,-152 "/>
<text text-anchor="start" x="7.5" y="-140" font-family="Helvetica,sans-Serif" font-size="10.00">+ DigitizerTask()</text>
<text text-anchor="start" x="7.5" y="-129" font-family="Helvetica,sans-Serif" font-size="10.00">+ ~DigitizerTask()</text>
<text text-anchor="start" x="7.5" y="-118" font-family="Helvetica,sans-Serif" font-size="10.00">+ Init()</text>
<text text-anchor="start" x="7.5" y="-107" font-family="Helvetica,sans-Serif" font-size="10.00">+ Exec()</text>
<text text-anchor="start" x="7.5" y="-96" font-family="Helvetica,sans-Serif" font-size="10.00">+ FinishTask()</text>
<text text-anchor="start" x="7.5" y="-85" font-family="Helvetica,sans-Serif" font-size="10.00">+ getDigitizer()</text>
<text text-anchor="start" x="7.5" y="-74" font-family="Helvetica,sans-Serif" font-size="10.00">+ setFairTimeUnitInNS()</text>
<text text-anchor="start" x="7.5" y="-63" font-family="Helvetica,sans-Serif" font-size="10.00">+ getFairTimeUnitInNS()</text>
</a>
</g>
</g>
<!-- Node1&#45;&gt;Node2 -->
<g id="edge1" class="edge"><title>Node1&#45;&gt;Node2</title>
<path fill="none" stroke="midnightblue" d="M1127.14,-309.682C952.066,-307.939 225.939,-297.629 140,-246 118.581,-233.132 102.42,-211.565 90.6906,-190.113"/>
<polygon fill="none" stroke="midnightblue" points="1127.36,-313.184 1137.4,-309.78 1127.43,-306.185 1127.36,-313.184"/>
</g>
<!-- Node3 -->
<g id="node3" class="node"><title>Node3</title>
<g id="a_node3"><a xlink:href="../../d4/d59/classo2_1_1fit_1_1CollisionTimeRecoTask.html" target="_top" xlink:title="{o2::fit::CollisionTimeRecoTask\n||+ CollisionTimeRecoTask()\l+ ~CollisionTimeRecoTask()\l+ Init()\l+ Exec()\l+ FinishTask()\l}">
<polygon fill="none" stroke="black" points="149,-72.5 149,-173.5 301,-173.5 301,-72.5 149,-72.5"/>
<text text-anchor="middle" x="225" y="-161.5" font-family="Helvetica,sans-Serif" font-size="10.00">o2::fit::CollisionTimeRecoTask</text>
<polyline fill="none" stroke="black" points="149,-154.5 301,-154.5 "/>
<text text-anchor="middle" x="225" y="-142.5" font-family="Helvetica,sans-Serif" font-size="10.00"> </text>
<polyline fill="none" stroke="black" points="149,-135.5 301,-135.5 "/>
<text text-anchor="start" x="157" y="-123.5" font-family="Helvetica,sans-Serif" font-size="10.00">+ CollisionTimeRecoTask()</text>
<text text-anchor="start" x="157" y="-112.5" font-family="Helvetica,sans-Serif" font-size="10.00">+ ~CollisionTimeRecoTask()</text>
<text text-anchor="start" x="157" y="-101.5" font-family="Helvetica,sans-Serif" font-size="10.00">+ Init()</text>
<text text-anchor="start" x="157" y="-90.5" font-family="Helvetica,sans-Serif" font-size="10.00">+ Exec()</text>
<text text-anchor="start" x="157" y="-79.5" font-family="Helvetica,sans-Serif" font-size="10.00">+ FinishTask()</text>
</a>
</g>
</g>
<!-- Node1&#45;&gt;Node3 -->
<g id="edge2" class="edge"><title>Node1&#45;&gt;Node3</title>
<path fill="none" stroke="midnightblue" d="M1127.35,-309.074C971.508,-304.988 381.723,-286.923 310,-246 281.637,-229.817 260.55,-199.838 246.473,-173.649"/>
<polygon fill="none" stroke="midnightblue" points="1127.31,-312.574 1137.39,-309.334 1127.49,-305.576 1127.31,-312.574"/>
</g>
<!-- Node4 -->
<g id="node4" class="node"><title>Node4</title>
<g id="a_node4"><a xlink:href="../../de/d40/classo2_1_1fit_1_1DigitizerTask.html" target="_top" xlink:title="{o2::fit::DigitizerTask\n||+ DigitizerTask()\l+ ~DigitizerTask()\l+ Init()\l+ Exec()\l+ FinishTask()\l+ getDigitizer()\l+ setContinuous()\l+ isContinuous()\l}">
<polygon fill="none" stroke="black" points="319.5,-56 319.5,-190 424.5,-190 424.5,-56 319.5,-56"/>
<text text-anchor="middle" x="372" y="-178" font-family="Helvetica,sans-Serif" font-size="10.00">o2::fit::DigitizerTask</text>
<polyline fill="none" stroke="black" points="319.5,-171 424.5,-171 "/>
<text text-anchor="middle" x="372" y="-159" font-family="Helvetica,sans-Serif" font-size="10.00"> </text>
<polyline fill="none" stroke="black" points="319.5,-152 424.5,-152 "/>
<text text-anchor="start" x="327.5" y="-140" font-family="Helvetica,sans-Serif" font-size="10.00">+ DigitizerTask()</text>
<text text-anchor="start" x="327.5" y="-129" font-family="Helvetica,sans-Serif" font-size="10.00">+ ~DigitizerTask()</text>
<text text-anchor="start" x="327.5" y="-118" font-family="Helvetica,sans-Serif" font-size="10.00">+ Init()</text>
<text text-anchor="start" x="327.5" y="-107" font-family="Helvetica,sans-Serif" font-size="10.00">+ Exec()</text>
<text text-anchor="start" x="327.5" y="-96" font-family="Helvetica,sans-Serif" font-size="10.00">+ FinishTask()</text>
<text text-anchor="start" x="327.5" y="-85" font-family="Helvetica,sans-Serif" font-size="10.00">+ getDigitizer()</text>
<text text-anchor="start" x="327.5" y="-74" font-family="Helvetica,sans-Serif" font-size="10.00">+ setContinuous()</text>
<text text-anchor="start" x="327.5" y="-63" font-family="Helvetica,sans-Serif" font-size="10.00">+ isContinuous()</text>
</a>
</g>
</g>
<!-- Node1&#45;&gt;Node4 -->
<g id="edge3" class="edge"><title>Node1&#45;&gt;Node4</title>
<path fill="none" stroke="midnightblue" d="M1126.84,-308.809C984.771,-304.086 491.75,-285 434,-246 414.409,-232.77 400.681,-211.394 391.218,-190.203"/>
<polygon fill="none" stroke="midnightblue" points="1127.1,-312.32 1137.21,-309.149 1127.33,-305.323 1127.1,-312.32"/>
</g>
<!-- Node5 -->
<g id="node5" class="node"><title>Node5</title>
<g id="a_node5"><a xlink:href="../../db/df6/classo2_1_1ITS_1_1ClustererTask.html" target="_top" xlink:title="{o2::ITS::ClustererTask\n||+ ClustererTask()\l+ ~ClustererTask()\l+ Init()\l+ Exec()\l+ getClusterer()\l}">
<polygon fill="none" stroke="black" points="443,-72.5 443,-173.5 559,-173.5 559,-72.5 443,-72.5"/>
<text text-anchor="middle" x="501" y="-161.5" font-family="Helvetica,sans-Serif" font-size="10.00">o2::ITS::ClustererTask</text>
<polyline fill="none" stroke="black" points="443,-154.5 559,-154.5 "/>
<text text-anchor="middle" x="501" y="-142.5" font-family="Helvetica,sans-Serif" font-size="10.00"> </text>
<polyline fill="none" stroke="black" points="443,-135.5 559,-135.5 "/>
<text text-anchor="start" x="451" y="-123.5" font-family="Helvetica,sans-Serif" font-size="10.00">+ ClustererTask()</text>
<text text-anchor="start" x="451" y="-112.5" font-family="Helvetica,sans-Serif" font-size="10.00">+ ~ClustererTask()</text>
<text text-anchor="start" x="451" y="-101.5" font-family="Helvetica,sans-Serif" font-size="10.00">+ Init()</text>
<text text-anchor="start" x="451" y="-90.5" font-family="Helvetica,sans-Serif" font-size="10.00">+ Exec()</text>
<text text-anchor="start" x="451" y="-79.5" font-family="Helvetica,sans-Serif" font-size="10.00">+ getClusterer()</text>
</a>
</g>
</g>
<!-- Node1&#45;&gt;Node5 -->
<g id="edge4" class="edge"><title>Node1&#45;&gt;Node5</title>
<path fill="none" stroke="midnightblue" d="M1126.92,-310.404C1010.25,-310.962 660.116,-307.369 568,-246 542.762,-229.186 526.167,-199.537 515.806,-173.679"/>
<polygon fill="none" stroke="midnightblue" points="1127.17,-313.903 1137.15,-310.342 1127.12,-306.903 1127.17,-313.903"/>
</g>
<!-- Node6 -->
<g id="node6" class="node"><title>Node6</title>
<g id="a_node6"><a xlink:href="../../d8/d68/classo2_1_1ITS_1_1CookedTrackerTask.html" target="_top" xlink:title="{o2::ITS::CookedTrackerTask\n||+ CookedTrackerTask()\l+ ~CookedTrackerTask()\l+ Init()\l+ Exec()\l+ setBz()\l+ setContinuousMode()\l+ getContinuousMode()\l+ getVertexer()\l}">
<polygon fill="none" stroke="black" points="577.5,-56 577.5,-190 720.5,-190 720.5,-56 577.5,-56"/>
<text text-anchor="middle" x="649" y="-178" font-family="Helvetica,sans-Serif" font-size="10.00">o2::ITS::CookedTrackerTask</text>
<polyline fill="none" stroke="black" points="577.5,-171 720.5,-171 "/>
<text text-anchor="middle" x="649" y="-159" font-family="Helvetica,sans-Serif" font-size="10.00"> </text>
<polyline fill="none" stroke="black" points="577.5,-152 720.5,-152 "/>
<text text-anchor="start" x="585.5" y="-140" font-family="Helvetica,sans-Serif" font-size="10.00">+ CookedTrackerTask()</text>
<text text-anchor="start" x="585.5" y="-129" font-family="Helvetica,sans-Serif" font-size="10.00">+ ~CookedTrackerTask()</text>
<text text-anchor="start" x="585.5" y="-118" font-family="Helvetica,sans-Serif" font-size="10.00">+ Init()</text>
<text text-anchor="start" x="585.5" y="-107" font-family="Helvetica,sans-Serif" font-size="10.00">+ Exec()</text>
<text text-anchor="start" x="585.5" y="-96" font-family="Helvetica,sans-Serif" font-size="10.00">+ setBz()</text>
<text text-anchor="start" x="585.5" y="-85" font-family="Helvetica,sans-Serif" font-size="10.00">+ setContinuousMode()</text>
<text text-anchor="start" x="585.5" y="-74" font-family="Helvetica,sans-Serif" font-size="10.00">+ getContinuousMode()</text>
<text text-anchor="start" x="585.5" y="-63" font-family="Helvetica,sans-Serif" font-size="10.00">+ getVertexer()</text>
</a>
</g>
</g>
<!-- Node1&#45;&gt;Node6 -->
<g id="edge5" class="edge"><title>Node1&#45;&gt;Node6</title>
<path fill="none" stroke="midnightblue" d="M1127.33,-308.389C1034.02,-303.791 794.977,-288.11 729,-246 707.863,-232.509 691.111,-211.208 678.512,-190.154"/>
<polygon fill="none" stroke="midnightblue" points="1127.29,-311.892 1137.45,-308.872 1127.63,-304.9 1127.29,-311.892"/>
</g>
<!-- Node7 -->
<g id="node7" class="node"><title>Node7</title>
<g id="a_node7"><a xlink:href="../../de/d22/classo2_1_1ITS_1_1DigitizerTask.html" target="_top" xlink:title="{o2::ITS::DigitizerTask\n||+ DigitizerTask()\l+ ~DigitizerTask()\l+ Init()\l+ Exec()\l+ FinishTask()\l+ getDigitizer()\l+ getDigiParams()\l+ getDigiParams()\l+ setContinuous()\l+ isContinuous()\l+ setFairTimeUnitInNS()\l+ getFairTimeUnitInNS()\l+ setAlpideROFramLength()\l+ getAlpideROFramLength()\l+ setQEDInput()\l}">
<polygon fill="none" stroke="black" points="738.5,-17.5 738.5,-228.5 877.5,-228.5 877.5,-17.5 738.5,-17.5"/>
<text text-anchor="middle" x="808" y="-216.5" font-family="Helvetica,sans-Serif" font-size="10.00">o2::ITS::DigitizerTask</text>
<polyline fill="none" stroke="black" points="738.5,-209.5 877.5,-209.5 "/>
<text text-anchor="middle" x="808" y="-197.5" font-family="Helvetica,sans-Serif" font-size="10.00"> </text>
<polyline fill="none" stroke="black" points="738.5,-190.5 877.5,-190.5 "/>
<text text-anchor="start" x="746.5" y="-178.5" font-family="Helvetica,sans-Serif" font-size="10.00">+ DigitizerTask()</text>
<text text-anchor="start" x="746.5" y="-167.5" font-family="Helvetica,sans-Serif" font-size="10.00">+ ~DigitizerTask()</text>
<text text-anchor="start" x="746.5" y="-156.5" font-family="Helvetica,sans-Serif" font-size="10.00">+ Init()</text>
<text text-anchor="start" x="746.5" y="-145.5" font-family="Helvetica,sans-Serif" font-size="10.00">+ Exec()</text>
<text text-anchor="start" x="746.5" y="-134.5" font-family="Helvetica,sans-Serif" font-size="10.00">+ FinishTask()</text>
<text text-anchor="start" x="746.5" y="-123.5" font-family="Helvetica,sans-Serif" font-size="10.00">+ getDigitizer()</text>
<text text-anchor="start" x="746.5" y="-112.5" font-family="Helvetica,sans-Serif" font-size="10.00">+ getDigiParams()</text>
<text text-anchor="start" x="746.5" y="-101.5" font-family="Helvetica,sans-Serif" font-size="10.00">+ getDigiParams()</text>
<text text-anchor="start" x="746.5" y="-90.5" font-family="Helvetica,sans-Serif" font-size="10.00">+ setContinuous()</text>
<text text-anchor="start" x="746.5" y="-79.5" font-family="Helvetica,sans-Serif" font-size="10.00">+ isContinuous()</text>
<text text-anchor="start" x="746.5" y="-68.5" font-family="Helvetica,sans-Serif" font-size="10.00">+ setFairTimeUnitInNS()</text>
<text text-anchor="start" x="746.5" y="-57.5" font-family="Helvetica,sans-Serif" font-size="10.00">+ getFairTimeUnitInNS()</text>
<text text-anchor="start" x="746.5" y="-46.5" font-family="Helvetica,sans-Serif" font-size="10.00">+ setAlpideROFramLength()</text>
<text text-anchor="start" x="746.5" y="-35.5" font-family="Helvetica,sans-Serif" font-size="10.00">+ getAlpideROFramLength()</text>
<text text-anchor="start" x="746.5" y="-24.5" font-family="Helvetica,sans-Serif" font-size="10.00">+ setQEDInput()</text>
</a>
</g>
</g>
<!-- Node1&#45;&gt;Node7 -->
<g id="edge6" class="edge"><title>Node1&#45;&gt;Node7</title>
<path fill="none" stroke="midnightblue" d="M1127.23,-310.11C1069.96,-308.48 960.006,-298.135 886,-246 878.91,-241.005 872.314,-235.141 866.208,-228.732"/>
<polygon fill="none" stroke="midnightblue" points="1127.22,-313.611 1137.29,-310.321 1127.36,-306.612 1127.22,-313.611"/>
</g>
<!-- Node8 -->
<g id="node8" class="node"><title>Node8</title>
<g id="a_node8"><a xlink:href="../../d6/df5/classo2_1_1ITS_1_1HitAnalysis.html" target="_top" xlink:title="{o2::ITS::HitAnalysis\n||+ HitAnalysis()\l+ ~HitAnalysis()\l+ Init()\l+ Exec()\l+ FinishTask()\l# ProcessHits()\l}">
<polygon fill="none" stroke="black" points="895.5,-67 895.5,-179 1000.5,-179 1000.5,-67 895.5,-67"/>
<text text-anchor="middle" x="948" y="-167" font-family="Helvetica,sans-Serif" font-size="10.00">o2::ITS::HitAnalysis</text>
<polyline fill="none" stroke="black" points="895.5,-160 1000.5,-160 "/>
<text text-anchor="middle" x="948" y="-148" font-family="Helvetica,sans-Serif" font-size="10.00"> </text>
<polyline fill="none" stroke="black" points="895.5,-141 1000.5,-141 "/>
<text text-anchor="start" x="903.5" y="-129" font-family="Helvetica,sans-Serif" font-size="10.00">+ HitAnalysis()</text>
<text text-anchor="start" x="903.5" y="-118" font-family="Helvetica,sans-Serif" font-size="10.00">+ ~HitAnalysis()</text>
<text text-anchor="start" x="903.5" y="-107" font-family="Helvetica,sans-Serif" font-size="10.00">+ Init()</text>
<text text-anchor="start" x="903.5" y="-96" font-family="Helvetica,sans-Serif" font-size="10.00">+ Exec()</text>
<text text-anchor="start" x="903.5" y="-85" font-family="Helvetica,sans-Serif" font-size="10.00">+ FinishTask()</text>
<text text-anchor="start" x="903.5" y="-74" font-family="Helvetica,sans-Serif" font-size="10.00"># ProcessHits()</text>
</a>
</g>
</g>
<!-- Node1&#45;&gt;Node8 -->
<g id="edge7" class="edge"><title>Node1&#45;&gt;Node8</title>
<path fill="none" stroke="midnightblue" d="M1127.12,-302.46C1092.7,-293.913 1042.35,-276.954 1009,-246 989.562,-227.956 975.457,-202.349 965.738,-179.25"/>
<polygon fill="none" stroke="midnightblue" points="1126.72,-305.961 1137.26,-304.849 1128.33,-299.148 1126.72,-305.961"/>
</g>
<!-- Node9 -->
<g id="node9" class="node"><title>Node9</title>
<g id="a_node9"><a xlink:href="../../db/d78/classo2_1_1ITS_1_1TrivialClustererTask.html" target="_top" xlink:title="{o2::ITS::TrivialClustererTask\n||+ TrivialClustererTask()\l+ ~TrivialClustererTask()\l+ Init()\l+ Exec()\l}">
<polygon fill="none" stroke="black" points="1018.5,-78 1018.5,-168 1161.5,-168 1161.5,-78 1018.5,-78"/>
<text text-anchor="middle" x="1090" y="-156" font-family="Helvetica,sans-Serif" font-size="10.00">o2::ITS::TrivialClustererTask</text>
<polyline fill="none" stroke="black" points="1018.5,-149 1161.5,-149 "/>
<text text-anchor="middle" x="1090" y="-137" font-family="Helvetica,sans-Serif" font-size="10.00"> </text>
<polyline fill="none" stroke="black" points="1018.5,-130 1161.5,-130 "/>
<text text-anchor="start" x="1026.5" y="-118" font-family="Helvetica,sans-Serif" font-size="10.00">+ TrivialClustererTask()</text>
<text text-anchor="start" x="1026.5" y="-107" font-family="Helvetica,sans-Serif" font-size="10.00">+ ~TrivialClustererTask()</text>
<text text-anchor="start" x="1026.5" y="-96" font-family="Helvetica,sans-Serif" font-size="10.00">+ Init()</text>
<text text-anchor="start" x="1026.5" y="-85" font-family="Helvetica,sans-Serif" font-size="10.00">+ Exec()</text>
</a>
</g>
</g>
<!-- Node1&#45;&gt;Node9 -->
<g id="edge8" class="edge"><title>Node1&#45;&gt;Node9</title>
<path fill="none" stroke="midnightblue" d="M1150.02,-272.842C1137.87,-242.727 1120.73,-200.207 1107.87,-168.32"/>
<polygon fill="none" stroke="midnightblue" points="1146.79,-274.188 1153.77,-282.154 1153.28,-271.571 1146.79,-274.188"/>
</g>
<!-- Node10 -->
<g id="node10" class="node"><title>Node10</title>
<g id="a_node10"><a xlink:href="../../d7/d6d/classo2_1_1MFT_1_1ClustererTask.html" target="_top" xlink:title="{o2::MFT::ClustererTask\n||+ ClustererTask()\l+ ~ClustererTask()\l+ Init()\l+ Exec()\l+ getClusterer()\l}">
<polygon fill="none" stroke="black" points="1179.5,-72.5 1179.5,-173.5 1300.5,-173.5 1300.5,-72.5 1179.5,-72.5"/>
<text text-anchor="middle" x="1240" y="-161.5" font-family="Helvetica,sans-Serif" font-size="10.00">o2::MFT::ClustererTask</text>
<polyline fill="none" stroke="black" points="1179.5,-154.5 1300.5,-154.5 "/>
<text text-anchor="middle" x="1240" y="-142.5" font-family="Helvetica,sans-Serif" font-size="10.00"> </text>
<polyline fill="none" stroke="black" points="1179.5,-135.5 1300.5,-135.5 "/>
<text text-anchor="start" x="1187.5" y="-123.5" font-family="Helvetica,sans-Serif" font-size="10.00">+ ClustererTask()</text>
<text text-anchor="start" x="1187.5" y="-112.5" font-family="Helvetica,sans-Serif" font-size="10.00">+ ~ClustererTask()</text>
<text text-anchor="start" x="1187.5" y="-101.5" font-family="Helvetica,sans-Serif" font-size="10.00">+ Init()</text>
<text text-anchor="start" x="1187.5" y="-90.5" font-family="Helvetica,sans-Serif" font-size="10.00">+ Exec()</text>
<text text-anchor="start" x="1187.5" y="-79.5" font-family="Helvetica,sans-Serif" font-size="10.00">+ getClusterer()</text>
</a>
</g>
</g>
<!-- Node1&#45;&gt;Node10 -->
<g id="edge9" class="edge"><title>Node1&#45;&gt;Node10</title>
<path fill="none" stroke="midnightblue" d="M1180.08,-272.592C1191.54,-244.182 1207.4,-204.837 1219.93,-173.77"/>
<polygon fill="none" stroke="midnightblue" points="1176.72,-271.571 1176.23,-282.154 1183.21,-274.188 1176.72,-271.571"/>
</g>
<!-- Node11 -->
<g id="node11" class="node"><title>Node11</title>
<g id="a_node11"><a xlink:href="../../d0/d22/classo2_1_1MFT_1_1DigitizerTask.html" target="_top" xlink:title="{o2::MFT::DigitizerTask\n||+ DigitizerTask()\l+ ~DigitizerTask()\l+ Init()\l+ Exec()\l+ FinishTask()\l+ getDigitizer()\l+ getDigiParams()\l+ getDigiParams()\l+ setContinuous()\l+ isContinuous()\l+ setFairTimeUnitInNS()\l+ getFairTimeUnitInNS()\l+ setAlpideROFramLength()\l+ getAlpideROFramLength()\l+ setQEDInput()\l}">
<polygon fill="none" stroke="black" points="1318.5,-17.5 1318.5,-228.5 1457.5,-228.5 1457.5,-17.5 1318.5,-17.5"/>
<text text-anchor="middle" x="1388" y="-216.5" font-family="Helvetica,sans-Serif" font-size="10.00">o2::MFT::DigitizerTask</text>
<polyline fill="none" stroke="black" points="1318.5,-209.5 1457.5,-209.5 "/>
<text text-anchor="middle" x="1388" y="-197.5" font-family="Helvetica,sans-Serif" font-size="10.00"> </text>
<polyline fill="none" stroke="black" points="1318.5,-190.5 1457.5,-190.5 "/>
<text text-anchor="start" x="1326.5" y="-178.5" font-family="Helvetica,sans-Serif" font-size="10.00">+ DigitizerTask()</text>
<text text-anchor="start" x="1326.5" y="-167.5" font-family="Helvetica,sans-Serif" font-size="10.00">+ ~DigitizerTask()</text>
<text text-anchor="start" x="1326.5" y="-156.5" font-family="Helvetica,sans-Serif" font-size="10.00">+ Init()</text>
<text text-anchor="start" x="1326.5" y="-145.5" font-family="Helvetica,sans-Serif" font-size="10.00">+ Exec()</text>
<text text-anchor="start" x="1326.5" y="-134.5" font-family="Helvetica,sans-Serif" font-size="10.00">+ FinishTask()</text>
<text text-anchor="start" x="1326.5" y="-123.5" font-family="Helvetica,sans-Serif" font-size="10.00">+ getDigitizer()</text>
<text text-anchor="start" x="1326.5" y="-112.5" font-family="Helvetica,sans-Serif" font-size="10.00">+ getDigiParams()</text>
<text text-anchor="start" x="1326.5" y="-101.5" font-family="Helvetica,sans-Serif" font-size="10.00">+ getDigiParams()</text>
<text text-anchor="start" x="1326.5" y="-90.5" font-family="Helvetica,sans-Serif" font-size="10.00">+ setContinuous()</text>
<text text-anchor="start" x="1326.5" y="-79.5" font-family="Helvetica,sans-Serif" font-size="10.00">+ isContinuous()</text>
<text text-anchor="start" x="1326.5" y="-68.5" font-family="Helvetica,sans-Serif" font-size="10.00">+ setFairTimeUnitInNS()</text>
<text text-anchor="start" x="1326.5" y="-57.5" font-family="Helvetica,sans-Serif" font-size="10.00">+ getFairTimeUnitInNS()</text>
<text text-anchor="start" x="1326.5" y="-46.5" font-family="Helvetica,sans-Serif" font-size="10.00">+ setAlpideROFramLength()</text>
<text text-anchor="start" x="1326.5" y="-35.5" font-family="Helvetica,sans-Serif" font-size="10.00">+ getAlpideROFramLength()</text>
<text text-anchor="start" x="1326.5" y="-24.5" font-family="Helvetica,sans-Serif" font-size="10.00">+ setQEDInput()</text>
</a>
</g>
</g>
<!-- Node1&#45;&gt;Node11 -->
<g id="edge10" class="edge"><title>Node1&#45;&gt;Node11</title>
<path fill="none" stroke="midnightblue" d="M1202.14,-300.017C1233.32,-290.212 1277.66,-272.785 1309,-246 1315.14,-240.754 1320.98,-234.913 1326.49,-228.708"/>
<polygon fill="none" stroke="midnightblue" points="1201.07,-296.685 1192.52,-302.935 1203.1,-303.384 1201.07,-296.685"/>
</g>
<!-- Node12 -->
<g id="node12" class="node"><title>Node12</title>
<g id="a_node12"><a xlink:href="../../dc/d5b/classo2_1_1MFT_1_1TrackerTask.html" target="_top" xlink:title="{o2::MFT::TrackerTask\n||+ TrackerTask()\l+ ~TrackerTask()\l+ Init()\l+ Exec()\l+ setContinuousMode()\l+ getContinuousMode()\l}">
<polygon fill="none" stroke="black" points="1475.5,-67 1475.5,-179 1594.5,-179 1594.5,-67 1475.5,-67"/>
<text text-anchor="middle" x="1535" y="-167" font-family="Helvetica,sans-Serif" font-size="10.00">o2::MFT::TrackerTask</text>
<polyline fill="none" stroke="black" points="1475.5,-160 1594.5,-160 "/>
<text text-anchor="middle" x="1535" y="-148" font-family="Helvetica,sans-Serif" font-size="10.00"> </text>
<polyline fill="none" stroke="black" points="1475.5,-141 1594.5,-141 "/>
<text text-anchor="start" x="1483.5" y="-129" font-family="Helvetica,sans-Serif" font-size="10.00">+ TrackerTask()</text>
<text text-anchor="start" x="1483.5" y="-118" font-family="Helvetica,sans-Serif" font-size="10.00">+ ~TrackerTask()</text>
<text text-anchor="start" x="1483.5" y="-107" font-family="Helvetica,sans-Serif" font-size="10.00">+ Init()</text>
<text text-anchor="start" x="1483.5" y="-96" font-family="Helvetica,sans-Serif" font-size="10.00">+ Exec()</text>
<text text-anchor="start" x="1483.5" y="-85" font-family="Helvetica,sans-Serif" font-size="10.00">+ setContinuousMode()</text>
<text text-anchor="start" x="1483.5" y="-74" font-family="Helvetica,sans-Serif" font-size="10.00">+ getContinuousMode()</text>
</a>
</g>
</g>
<!-- Node1&#45;&gt;Node12 -->
<g id="edge11" class="edge"><title>Node1&#45;&gt;Node12</title>
<path fill="none" stroke="midnightblue" d="M1203.06,-305.831C1274.32,-297.402 1424.41,-276.503 1466,-246 1488.57,-229.451 1504.78,-203.151 1515.8,-179.2"/>
<polygon fill="none" stroke="midnightblue" points="1202.27,-302.4 1192.74,-307.03 1203.08,-309.353 1202.27,-302.4"/>
</g>
<!-- Node13 -->
<g id="node13" class="node"><title>Node13</title>
<g id="a_node13"><a xlink:href="../../d1/df7/classo2_1_1phos_1_1ClustererTask.html" target="_top" xlink:title="{o2::phos::ClustererTask\n||+ ClustererTask()\l+ ~ClustererTask()\l+ Init()\l+ Exec()\l}">
<polygon fill="none" stroke="black" points="1613,-78 1613,-168 1735,-168 1735,-78 1613,-78"/>
<text text-anchor="middle" x="1674" y="-156" font-family="Helvetica,sans-Serif" font-size="10.00">o2::phos::ClustererTask</text>
<polyline fill="none" stroke="black" points="1613,-149 1735,-149 "/>
<text text-anchor="middle" x="1674" y="-137" font-family="Helvetica,sans-Serif" font-size="10.00"> </text>
<polyline fill="none" stroke="black" points="1613,-130 1735,-130 "/>
<text text-anchor="start" x="1621" y="-118" font-family="Helvetica,sans-Serif" font-size="10.00">+ ClustererTask()</text>
<text text-anchor="start" x="1621" y="-107" font-family="Helvetica,sans-Serif" font-size="10.00">+ ~ClustererTask()</text>
<text text-anchor="start" x="1621" y="-96" font-family="Helvetica,sans-Serif" font-size="10.00">+ Init()</text>
<text text-anchor="start" x="1621" y="-85" font-family="Helvetica,sans-Serif" font-size="10.00">+ Exec()</text>
</a>
</g>
</g>
<!-- Node1&#45;&gt;Node13 -->
<g id="edge12" class="edge"><title>Node1&#45;&gt;Node13</title>
<path fill="none" stroke="midnightblue" d="M1202.98,-308.621C1297.04,-304.562 1537.86,-290.03 1603,-246 1630.21,-227.61 1648.38,-195.045 1659.53,-168.184"/>
<polygon fill="none" stroke="midnightblue" points="1202.63,-305.133 1192.78,-309.045 1202.92,-312.127 1202.63,-305.133"/>
</g>
<!-- Node14 -->
<g id="node14" class="node"><title>Node14</title>
<g id="a_node14"><a xlink:href="../../d2/d40/classo2_1_1phos_1_1DigitizerTask.html" target="_top" xlink:title="{o2::phos::DigitizerTask\n||+ DigitizerTask()\l+ ~DigitizerTask()\l+ Init()\l+ Exec()\l+ FinishTask()\l+ getDigitizer()\l+ setFairTimeUnitInNS()\l+ getFairTimeUnitInNS()\l}">
<polygon fill="none" stroke="black" points="1753,-56 1753,-190 1877,-190 1877,-56 1753,-56"/>
<text text-anchor="middle" x="1815" y="-178" font-family="Helvetica,sans-Serif" font-size="10.00">o2::phos::DigitizerTask</text>
<polyline fill="none" stroke="black" points="1753,-171 1877,-171 "/>
<text text-anchor="middle" x="1815" y="-159" font-family="Helvetica,sans-Serif" font-size="10.00"> </text>
<polyline fill="none" stroke="black" points="1753,-152 1877,-152 "/>
<text text-anchor="start" x="1761" y="-140" font-family="Helvetica,sans-Serif" font-size="10.00">+ DigitizerTask()</text>
<text text-anchor="start" x="1761" y="-129" font-family="Helvetica,sans-Serif" font-size="10.00">+ ~DigitizerTask()</text>
<text text-anchor="start" x="1761" y="-118" font-family="Helvetica,sans-Serif" font-size="10.00">+ Init()</text>
<text text-anchor="start" x="1761" y="-107" font-family="Helvetica,sans-Serif" font-size="10.00">+ Exec()</text>
<text text-anchor="start" x="1761" y="-96" font-family="Helvetica,sans-Serif" font-size="10.00">+ FinishTask()</text>
<text text-anchor="start" x="1761" y="-85" font-family="Helvetica,sans-Serif" font-size="10.00">+ getDigitizer()</text>
<text text-anchor="start" x="1761" y="-74" font-family="Helvetica,sans-Serif" font-size="10.00">+ setFairTimeUnitInNS()</text>
<text text-anchor="start" x="1761" y="-63" font-family="Helvetica,sans-Serif" font-size="10.00">+ getFairTimeUnitInNS()</text>
</a>
</g>
</g>
<!-- Node1&#45;&gt;Node14 -->
<g id="edge13" class="edge"><title>Node1&#45;&gt;Node14</title>
<path fill="none" stroke="midnightblue" d="M1203,-310.159C1317.09,-309.973 1654.29,-304.381 1744,-246 1764.44,-232.7 1779.71,-211.309 1790.75,-190.125"/>
<polygon fill="none" stroke="midnightblue" points="1202.67,-306.659 1192.67,-310.162 1202.67,-313.659 1202.67,-306.659"/>
</g>
<!-- Node15 -->
<g id="node15" class="node"><title>Node15</title>
<g id="a_node15"><a xlink:href="../../d0/dad/classo2_1_1tof_1_1DigitizerTask.html" target="_top" xlink:title="{o2::tof::DigitizerTask\n||+ DigitizerTask()\l+ ~DigitizerTask()\l+ Init()\l+ Exec()\l+ FinishTask()\l+ getDigitizer()\l+ setContinuous()\l+ isContinuous()\l}">
<polygon fill="none" stroke="black" points="1895,-56 1895,-190 2003,-190 2003,-56 1895,-56"/>
<text text-anchor="middle" x="1949" y="-178" font-family="Helvetica,sans-Serif" font-size="10.00">o2::tof::DigitizerTask</text>
<polyline fill="none" stroke="black" points="1895,-171 2003,-171 "/>
<text text-anchor="middle" x="1949" y="-159" font-family="Helvetica,sans-Serif" font-size="10.00"> </text>
<polyline fill="none" stroke="black" points="1895,-152 2003,-152 "/>
<text text-anchor="start" x="1903" y="-140" font-family="Helvetica,sans-Serif" font-size="10.00">+ DigitizerTask()</text>
<text text-anchor="start" x="1903" y="-129" font-family="Helvetica,sans-Serif" font-size="10.00">+ ~DigitizerTask()</text>
<text text-anchor="start" x="1903" y="-118" font-family="Helvetica,sans-Serif" font-size="10.00">+ Init()</text>
<text text-anchor="start" x="1903" y="-107" font-family="Helvetica,sans-Serif" font-size="10.00">+ Exec()</text>
<text text-anchor="start" x="1903" y="-96" font-family="Helvetica,sans-Serif" font-size="10.00">+ FinishTask()</text>
<text text-anchor="start" x="1903" y="-85" font-family="Helvetica,sans-Serif" font-size="10.00">+ getDigitizer()</text>
<text text-anchor="start" x="1903" y="-74" font-family="Helvetica,sans-Serif" font-size="10.00">+ setContinuous()</text>
<text text-anchor="start" x="1903" y="-63" font-family="Helvetica,sans-Serif" font-size="10.00">+ isContinuous()</text>
</a>
</g>
</g>
<!-- Node1&#45;&gt;Node15 -->
<g id="edge14" class="edge"><title>Node1&#45;&gt;Node15</title>
<path fill="none" stroke="midnightblue" d="M1203.04,-308.735C1343.53,-303.776 1827.95,-284.044 1885,-246 1904.8,-232.796 1918.88,-211.426 1928.69,-190.232"/>
<polygon fill="none" stroke="midnightblue" points="1202.65,-305.246 1192.78,-309.092 1202.89,-312.242 1202.65,-305.246"/>
</g>
<!-- Node16 -->
<g id="node16" class="node"><title>Node16</title>
<g id="a_node16"><a xlink:href="../../db/df7/classo2_1_1TPC_1_1ClustererTask.html" target="_top" xlink:title="{o2::TPC::ClustererTask\n||+ ClustererTask()\l+ ~ClustererTask()\l+ Init()\l+ Exec()\l+ setClustererEnable()\l+ isClustererEnable()\l+ getClusterer()\l+ getBoxClusterer()\l+ getHwClusterer()\l+ setContinuousReadout()\l}">
<polygon fill="none" stroke="black" points="2021.5,-45 2021.5,-201 2152.5,-201 2152.5,-45 2021.5,-45"/>
<text text-anchor="middle" x="2087" y="-189" font-family="Helvetica,sans-Serif" font-size="10.00">o2::TPC::ClustererTask</text>
<polyline fill="none" stroke="black" points="2021.5,-182 2152.5,-182 "/>
<text text-anchor="middle" x="2087" y="-170" font-family="Helvetica,sans-Serif" font-size="10.00"> </text>
<polyline fill="none" stroke="black" points="2021.5,-163 2152.5,-163 "/>
<text text-anchor="start" x="2029.5" y="-151" font-family="Helvetica,sans-Serif" font-size="10.00">+ ClustererTask()</text>
<text text-anchor="start" x="2029.5" y="-140" font-family="Helvetica,sans-Serif" font-size="10.00">+ ~ClustererTask()</text>
<text text-anchor="start" x="2029.5" y="-129" font-family="Helvetica,sans-Serif" font-size="10.00">+ Init()</text>
<text text-anchor="start" x="2029.5" y="-118" font-family="Helvetica,sans-Serif" font-size="10.00">+ Exec()</text>
<text text-anchor="start" x="2029.5" y="-107" font-family="Helvetica,sans-Serif" font-size="10.00">+ setClustererEnable()</text>
<text text-anchor="start" x="2029.5" y="-96" font-family="Helvetica,sans-Serif" font-size="10.00">+ isClustererEnable()</text>
<text text-anchor="start" x="2029.5" y="-85" font-family="Helvetica,sans-Serif" font-size="10.00">+ getClusterer()</text>
<text text-anchor="start" x="2029.5" y="-74" font-family="Helvetica,sans-Serif" font-size="10.00">+ getBoxClusterer()</text>
<text text-anchor="start" x="2029.5" y="-63" font-family="Helvetica,sans-Serif" font-size="10.00">+ getHwClusterer()</text>
<text text-anchor="start" x="2029.5" y="-52" font-family="Helvetica,sans-Serif" font-size="10.00">+ setContinuousReadout()</text>
</a>
</g>
</g>
<!-- Node1&#45;&gt;Node16 -->
<g id="edge15" class="edge"><title>Node1&#45;&gt;Node16</title>
<path fill="none" stroke="midnightblue" d="M1202.87,-309.15C1358.29,-305.394 1942.23,-288.539 2012,-246 2029.62,-235.258 2043.7,-218.657 2054.68,-201.125"/>
<polygon fill="none" stroke="midnightblue" points="1202.76,-305.652 1192.85,-309.389 1202.93,-312.65 1202.76,-305.652"/>
</g>
<!-- Node17 -->
<g id="node17" class="node"><title>Node17</title>
<g id="a_node17"><a xlink:href="../../dd/d64/classo2_1_1TPC_1_1DigitizerTask.html" target="_top" xlink:title="{o2::TPC::DigitizerTask\n||+ DigitizerTask()\l+ ~DigitizerTask()\l+ Init()\l+ Init2()\l+ setDebugOutput()\l+ setContinuousReadout()\l+ setMaximalTimeBinWriteOut()\l+ setTimeChunkProcessing()\l+ setupSector()\l+ setStartTime()\l+ setEndTime()\l+ Exec()\l+ Exec2()\l+ FinishTask()\l+ FinishTask2()\l+ setData()\l+ setOutputData()\l+ initBunchTrainStructure()\l}">
<polygon fill="none" stroke="black" points="2170.5,-1 2170.5,-245 2327.5,-245 2327.5,-1 2170.5,-1"/>
<text text-anchor="middle" x="2249" y="-233" font-family="Helvetica,sans-Serif" font-size="10.00">o2::TPC::DigitizerTask</text>
<polyline fill="none" stroke="black" points="2170.5,-226 2327.5,-226 "/>
<text text-anchor="middle" x="2249" y="-214" font-family="Helvetica,sans-Serif" font-size="10.00"> </text>
<polyline fill="none" stroke="black" points="2170.5,-207 2327.5,-207 "/>
<text text-anchor="start" x="2178.5" y="-195" font-family="Helvetica,sans-Serif" font-size="10.00">+ DigitizerTask()</text>
<text text-anchor="start" x="2178.5" y="-184" font-family="Helvetica,sans-Serif" font-size="10.00">+ ~DigitizerTask()</text>
<text text-anchor="start" x="2178.5" y="-173" font-family="Helvetica,sans-Serif" font-size="10.00">+ Init()</text>
<text text-anchor="start" x="2178.5" y="-162" font-family="Helvetica,sans-Serif" font-size="10.00">+ Init2()</text>
<text text-anchor="start" x="2178.5" y="-151" font-family="Helvetica,sans-Serif" font-size="10.00">+ setDebugOutput()</text>
<text text-anchor="start" x="2178.5" y="-140" font-family="Helvetica,sans-Serif" font-size="10.00">+ setContinuousReadout()</text>
<text text-anchor="start" x="2178.5" y="-129" font-family="Helvetica,sans-Serif" font-size="10.00">+ setMaximalTimeBinWriteOut()</text>
<text text-anchor="start" x="2178.5" y="-118" font-family="Helvetica,sans-Serif" font-size="10.00">+ setTimeChunkProcessing()</text>
<text text-anchor="start" x="2178.5" y="-107" font-family="Helvetica,sans-Serif" font-size="10.00">+ setupSector()</text>
<text text-anchor="start" x="2178.5" y="-96" font-family="Helvetica,sans-Serif" font-size="10.00">+ setStartTime()</text>
<text text-anchor="start" x="2178.5" y="-85" font-family="Helvetica,sans-Serif" font-size="10.00">+ setEndTime()</text>
<text text-anchor="start" x="2178.5" y="-74" font-family="Helvetica,sans-Serif" font-size="10.00">+ Exec()</text>
<text text-anchor="start" x="2178.5" y="-63" font-family="Helvetica,sans-Serif" font-size="10.00">+ Exec2()</text>
<text text-anchor="start" x="2178.5" y="-52" font-family="Helvetica,sans-Serif" font-size="10.00">+ FinishTask()</text>
<text text-anchor="start" x="2178.5" y="-41" font-family="Helvetica,sans-Serif" font-size="10.00">+ FinishTask2()</text>
<text text-anchor="start" x="2178.5" y="-30" font-family="Helvetica,sans-Serif" font-size="10.00">+ setData()</text>
<text text-anchor="start" x="2178.5" y="-19" font-family="Helvetica,sans-Serif" font-size="10.00">+ setOutputData()</text>
<text text-anchor="start" x="2178.5" y="-8" font-family="Helvetica,sans-Serif" font-size="10.00">+ initBunchTrainStructure()</text>
</a>
</g>
</g>
<!-- Node1&#45;&gt;Node17 -->
<g id="edge16" class="edge"><title>Node1&#45;&gt;Node17</title>
<path fill="none" stroke="midnightblue" d="M1202.55,-309.47C1373.78,-306.805 2075.87,-293.064 2161,-246 2164.2,-244.231 2167.31,-242.291 2170.34,-240.203"/>
<polygon fill="none" stroke="midnightblue" points="1202.45,-305.971 1192.51,-309.624 1202.56,-312.971 1202.45,-305.971"/>
</g>
</g>
</svg>
        <g id="navigator" transform="translate(0 0)" fill="#404254">
                <rect fill="#f2f5e9" fill-opacity="0.5" stroke="#606060" stroke-width=".5" x="0" y="0" width="60" height="60"/>
                <use id="zoomplus" xlink:href="#zoomPlus" x="17" y="9" onmousedown="handleZoom(evt,'in')"/>
                <use id="zoomminus" xlink:href="#zoomMin" x="42" y="9" onmousedown="handleZoom(evt,'out')"/>
                <use id="reset" xlink:href="#resetDef" x="30" y="36" onmousedown="handleReset()"/>
                <g id="arrowUp" xlink:href="#dirArrow" transform="translate(30 24)" onmousedown="handlePan(0,-1)">
                  <use xlink:href="#rim" fill="#404040">
                        <set attributeName="fill" to="#808080" begin="arrowUp.mouseover" end="arrowUp.mouseout"/>
                  </use>
                  <path fill="none" stroke="white" stroke-width="1.5" d="M0,-3.0v7 M-2.5,-0.5L0,-3.0L2.5,-0.5"/>
                </g>
                <g id="arrowRight" xlink:href="#dirArrow" transform="rotate(90) translate(36 -43)" onmousedown="handlePan(1,0)">
                  <use xlink:href="#rim" fill="#404040">
                        <set attributeName="fill" to="#808080" begin="arrowRight.mouseover" end="arrowRight.mouseout"/>
                  </use>
                  <path fill="none" stroke="white" stroke-width="1.5" d="M0,-3.0v7 M-2.5,-0.5L0,-3.0L2.5,-0.5"/>
                </g>
                <g id="arrowDown" xlink:href="#dirArrow" transform="rotate(180) translate(-30 -48)" onmousedown="handlePan(0,1)">
                  <use xlink:href="#rim" fill="#404040">
                        <set attributeName="fill" to="#808080" begin="arrowDown.mouseover" end="arrowDown.mouseout"/>
                  </use>
                  <path fill="none" stroke="white" stroke-width="1.5" d="M0,-3.0v7 M-2.5,-0.5L0,-3.0L2.5,-0.5"/>
                </g>
                <g id="arrowLeft" xlink:href="#dirArrow" transform="rotate(270) translate(-36 17)" onmousedown="handlePan(-1,0)">
                  <use xlink:href="#rim" fill="#404040">
                        <set attributeName="fill" to="#808080" begin="arrowLeft.mouseover" end="arrowLeft.mouseout"/>
                  </use>
                  <path fill="none" stroke="white" stroke-width="1.5" d="M0,-3.0v7 M-2.5,-0.5L0,-3.0L2.5,-0.5"/>
                </g>
        </g>
        <svg viewBox="0 0 15 15" width="100%" height="30px" preserveAspectRatio="xMaxYMin meet">
         <g id="arrow_out" transform="scale(0.3 0.3)">
          <a xlink:href="classFairTask__inherit__graph_org.svg" target="_base">
           <rect id="button" ry="5" rx="5" y="6" x="6" height="38" width="38"
                fill="#f2f5e9" fill-opacity="0.5" stroke="#606060" stroke-width="1.0"/>
           <path id="arrow"
             d="M 11.500037,31.436501 C 11.940474,20.09759 22.043105,11.32322 32.158766,21.979434 L 37.068811,17.246167 C 37.068811,17.246167 37.088388,32 37.088388,32 L 22.160133,31.978069 C 22.160133,31.978069 26.997745,27.140456 26.997745,27.140456 C 18.528582,18.264221 13.291696,25.230495 11.500037,31.436501 z"
             style="fill:#404040;"/>
          </a>
         </g>
        </svg>
</svg>
