<?xml version="1.0" encoding="UTF-8" standalone="no"?>
<!DOCTYPE svg PUBLIC "-//W3C//DTD SVG 1.1//EN"
 "http://www.w3.org/Graphics/SVG/1.1/DTD/svg11.dtd">
<!-- Generated by graphviz version 2.36.0 (20140111.2315)
 -->
<!-- Title: o2::header::Descriptor&lt; N, PrinterPolicy &gt; Pages: 1 -->
<svg width="212pt" height="340pt"
 viewBox="0.00 0.00 212.00 340.00" xmlns="http://www.w3.org/2000/svg" xmlns:xlink="http://www.w3.org/1999/xlink">
<g id="graph0" class="graph" transform="scale(1 1) rotate(0) translate(4 336)">
<title>o2::header::Descriptor&lt; N, PrinterPolicy &gt;</title>
<!-- Node1 -->
<g id="node1" class="node"><title>Node1</title>
<polygon fill="#bfbfbf" stroke="black" points="39.5,-1 39.5,-201 152.5,-201 152.5,-1 39.5,-1"/>
<text text-anchor="start" x="47.5" y="-189" font-family="Helvetica,sans-Serif" font-size="10.00">o2::header::Descriptor</text>
<text text-anchor="middle" x="96" y="-178" font-family="Helvetica,sans-Serif" font-size="10.00">&lt; N, PrinterPolicy &gt;</text>
<polyline fill="none" stroke="black" points="39.5,-171 152.5,-171 "/>
<text text-anchor="middle" x="96" y="-159" font-family="Helvetica,sans-Serif" font-size="10.00"> </text>
<polyline fill="none" stroke="black" points="39.5,-152 152.5,-152 "/>
<text text-anchor="start" x="47.5" y="-140" font-family="Helvetica,sans-Serif" font-size="10.00">+ Descriptor()</text>
<text text-anchor="start" x="47.5" y="-129" font-family="Helvetica,sans-Serif" font-size="10.00">+ Descriptor()</text>
<text text-anchor="start" x="47.5" y="-118" font-family="Helvetica,sans-Serif" font-size="10.00">+ Descriptor()</text>
<text text-anchor="start" x="47.5" y="-107" font-family="Helvetica,sans-Serif" font-size="10.00">+ operator=()</text>
<text text-anchor="start" x="47.5" y="-96" font-family="Helvetica,sans-Serif" font-size="10.00">+ operator ItgType()</text>
<text text-anchor="start" x="47.5" y="-85" font-family="Helvetica,sans-Serif" font-size="10.00">+ Descriptor()</text>
<text text-anchor="start" x="47.5" y="-74" font-family="Helvetica,sans-Serif" font-size="10.00">+ runtimeInit()</text>
<text text-anchor="start" x="47.5" y="-63" font-family="Helvetica,sans-Serif" font-size="10.00">+ operator==()</text>
<text text-anchor="start" x="47.5" y="-52" font-family="Helvetica,sans-Serif" font-size="10.00">+ operator!=()</text>
<text text-anchor="start" x="47.5" y="-41" font-family="Helvetica,sans-Serif" font-size="10.00">+ operator==()</text>
<text text-anchor="start" x="47.5" y="-30" font-family="Helvetica,sans-Serif" font-size="10.00">+ operator!=()</text>
<text text-anchor="start" x="47.5" y="-19" font-family="Helvetica,sans-Serif" font-size="10.00">+ as()</text>
<text text-anchor="start" x="47.5" y="-8" font-family="Helvetica,sans-Serif" font-size="10.00">+ print()</text>
</g>
<!-- Node2 -->
<g id="node2" class="node"><title>Node2</title>
<polygon fill="none" stroke="#bfbfbf" points="0,-273.5 0,-330.5 38,-330.5 38,-273.5 0,-273.5"/>
<text text-anchor="middle" x="19" y="-318.5" font-family="Helvetica,sans-Serif" font-size="10.00">Type</text>
<polyline fill="none" stroke="#bfbfbf" points="0,-311.5 38,-311.5 "/>
<text text-anchor="middle" x="19" y="-299.5" font-family="Helvetica,sans-Serif" font-size="10.00"> </text>
<polyline fill="none" stroke="#bfbfbf" points="0,-292.5 38,-292.5 "/>
<text text-anchor="middle" x="19" y="-280.5" font-family="Helvetica,sans-Serif" font-size="10.00"> </text>
</g>
<!-- Node2&#45;&gt;Node1 -->
<g id="edge1" class="edge"><title>Node2&#45;&gt;Node1</title>
<path fill="none" stroke="#404040" d="M28.6418,-273.151C34.1507,-257.477 41.2809,-237.58 48,-220 48.9623,-217.482 49.9418,-214.937 50.9346,-212.372"/>
<polygon fill="none" stroke="#404040" points="50.9989,-212.207 49.4538,-205.163 55.3614,-201.028 56.9065,-208.072 50.9989,-212.207"/>
<text text-anchor="middle" x="58" y="-234.5" font-family="Helvetica,sans-Serif" font-size="10.00"> +itg</text>
</g>
<!-- Node3 -->
<g id="node3" class="node"><title>Node3</title>
<polygon fill="none" stroke="#bfbfbf" points="56.5,-273 56.5,-331 85.5,-331 85.5,-273 56.5,-273"/>
<polyline fill="none" stroke="#bfbfbf" points="56.5,-311 85.5,-311 "/>
<text text-anchor="middle" x="71" y="-299" font-family="Helvetica,sans-Serif" font-size="10.00"> </text>
<polyline fill="none" stroke="#bfbfbf" points="56.5,-292 85.5,-292 "/>
<text text-anchor="middle" x="71" y="-280" font-family="Helvetica,sans-Serif" font-size="10.00"> </text>
</g>
<!-- Node3&#45;&gt;Node1 -->
<g id="edge2" class="edge"><title>Node3&#45;&gt;Node1</title>
<path fill="none" stroke="#404040" d="M71.0265,-272.81C71.2964,-257.204 72.0572,-237.483 74,-220 74.244,-217.804 74.5055,-215.588 74.7827,-213.357"/>
<polygon fill="none" stroke="#404040" points="74.8031,-213.204 71.6391,-206.725 76.4036,-201.312 79.5676,-207.792 74.8031,-213.204"/>
<text text-anchor="middle" x="86.5" y="-234.5" font-family="Helvetica,sans-Serif" font-size="10.00"> +@9</text>
</g>
<!-- Node4 -->
<g id="node4" class="node"><title>Node4</title>
<polygon fill="none" stroke="#bfbfbf" points="103.5,-273.5 103.5,-330.5 138.5,-330.5 138.5,-273.5 103.5,-273.5"/>
<text text-anchor="middle" x="121" y="-318.5" font-family="Helvetica,sans-Serif" font-size="10.00">char</text>
<polyline fill="none" stroke="#bfbfbf" points="103.5,-311.5 138.5,-311.5 "/>
<text text-anchor="middle" x="121" y="-299.5" font-family="Helvetica,sans-Serif" font-size="10.00"> </text>
<polyline fill="none" stroke="#bfbfbf" points="103.5,-292.5 138.5,-292.5 "/>
<text text-anchor="middle" x="121" y="-280.5" font-family="Helvetica,sans-Serif" font-size="10.00"> </text>
</g>
<!-- Node4&#45;&gt;Node1 -->
<g id="edge3" class="edge"><title>Node4&#45;&gt;Node1</title>
<path fill="none" stroke="#404040" d="M117.524,-273.33C115.5,-257.216 112.799,-235.721 109.997,-213.415"/>
<polygon fill="none" stroke="#404040" points="109.975,-213.242 105.259,-207.788 108.479,-201.336 113.196,-206.791 109.975,-213.242"/>
<text text-anchor="middle" x="125.5" y="-234.5" font-family="Helvetica,sans-Serif" font-size="10.00"> +str</text>
</g>
<!-- Node5 -->
<g id="node5" class="node"><title>Node5</title>
<polygon fill="none" stroke="#bfbfbf" points="156.5,-273.5 156.5,-330.5 185.5,-330.5 185.5,-273.5 156.5,-273.5"/>
<text text-anchor="middle" x="171" y="-318.5" font-family="Helvetica,sans-Serif" font-size="10.00">int</text>
<polyline fill="none" stroke="#bfbfbf" points="156.5,-311.5 185.5,-311.5 "/>
<text text-anchor="middle" x="171" y="-299.5" font-family="Helvetica,sans-Serif" font-size="10.00"> </text>
<polyline fill="none" stroke="#bfbfbf" points="156.5,-292.5 185.5,-292.5 "/>
<text text-anchor="middle" x="171" y="-280.5" font-family="Helvetica,sans-Serif" font-size="10.00"> </text>
</g>
<!-- Node5&#45;&gt;Node1 -->
<g id="edge4" class="edge"><title>Node5&#45;&gt;Node1</title>
<path fill="none" stroke="#404040" d="M160.572,-273.33C154.443,-257.068 146.248,-235.324 137.758,-212.798"/>
<polygon fill="none" stroke="#404040" points="137.67,-212.565 131.811,-208.361 133.438,-201.336 139.297,-205.54 137.67,-212.565"/>
<text text-anchor="middle" x="178.5" y="-245.5" font-family="Helvetica,sans-Serif" font-size="10.00"> +arraySize</text>
<text text-anchor="middle" x="178.5" y="-234.5" font-family="Helvetica,sans-Serif" font-size="10.00">+size</text>
<text text-anchor="middle" x="178.5" y="-223.5" font-family="Helvetica,sans-Serif" font-size="10.00">+bitcount</text>
</g>
</g>
</svg>
