<?xml version="1.0" encoding="UTF-8" standalone="no"?>
<!DOCTYPE svg PUBLIC "-//W3C//DTD SVG 1.1//EN"
 "http://www.w3.org/Graphics/SVG/1.1/DTD/svg11.dtd">
<!-- Generated by graphviz version 2.36.0 (20140111.2315)
 -->
<!-- Title: /home/travis/build/AliceO2Group/AliceO2/Detectors/TOF/simulation/include/TOFSimulation/Detector.h Pages: 1 -->
<svg width="806pt" height="342pt"
 viewBox="0.00 0.00 806.00 342.00" xmlns="http://www.w3.org/2000/svg" xmlns:xlink="http://www.w3.org/1999/xlink">
<g id="graph0" class="graph" transform="scale(1 1) rotate(0) translate(4 338)">
<title>/home/travis/build/AliceO2Group/AliceO2/Detectors/TOF/simulation/include/TOFSimulation/Detector.h</title>
<!-- Node1 -->
<g id="node1" class="node"><title>Node1</title>
<polygon fill="#bfbfbf" stroke="black" points="274.5,-281 274.5,-333 441.5,-333 441.5,-281 274.5,-281"/>
<text text-anchor="start" x="282.5" y="-321" font-family="Helvetica,sans-Serif" font-size="10.00">/home/travis/build</text>
<text text-anchor="start" x="282.5" y="-310" font-family="Helvetica,sans-Serif" font-size="10.00">/AliceO2Group/AliceO2</text>
<text text-anchor="start" x="282.5" y="-299" font-family="Helvetica,sans-Serif" font-size="10.00">/Detectors/TOF/simulation</text>
<text text-anchor="middle" x="358" y="-288" font-family="Helvetica,sans-Serif" font-size="10.00">/include/TOFSimulation/Detector.h</text>
</g>
<!-- Node2 -->
<g id="node2" class="node"><title>Node2</title>
<g id="a_node2"><a xlink:href="../../de/d69/drawTOFgeometry_8C.html" target="_top" xlink:title="/home/travis/build\l/AliceO2Group/AliceO2\l/Detectors/TOF/prototyping\l/drawTOFgeometry.C">
<polygon fill="none" stroke="black" points="0,-191 0,-243 136,-243 136,-191 0,-191"/>
<text text-anchor="start" x="8" y="-231" font-family="Helvetica,sans-Serif" font-size="10.00">/home/travis/build</text>
<text text-anchor="start" x="8" y="-220" font-family="Helvetica,sans-Serif" font-size="10.00">/AliceO2Group/AliceO2</text>
<text text-anchor="start" x="8" y="-209" font-family="Helvetica,sans-Serif" font-size="10.00">/Detectors/TOF/prototyping</text>
<text text-anchor="middle" x="68" y="-198" font-family="Helvetica,sans-Serif" font-size="10.00">/drawTOFgeometry.C</text>
</a>
</g>
</g>
<!-- Node1&#45;&gt;Node2 -->
<g id="edge1" class="edge"><title>Node1&#45;&gt;Node2</title>
<path fill="none" stroke="midnightblue" d="M264.445,-278.489C228.606,-267.852 187.366,-255.492 150,-244 145.575,-242.639 141.019,-241.226 136.429,-239.795"/>
<polygon fill="midnightblue" stroke="midnightblue" points="263.82,-281.954 274.402,-281.441 265.81,-275.243 263.82,-281.954"/>
</g>
<!-- Node3 -->
<g id="node3" class="node"><title>Node3</title>
<g id="a_node3"><a xlink:href="../../d0/d85/TOF_2simulation_2include_2TOFSimulation_2Digitizer_8h.html" target="_top" xlink:title="/home/travis/build\l/AliceO2Group/AliceO2\l/Detectors/TOF/simulation\l/include/TOFSimulation/Digitizer.h">
<polygon fill="none" stroke="black" points="192,-191 192,-243 358,-243 358,-191 192,-191"/>
<text text-anchor="start" x="200" y="-231" font-family="Helvetica,sans-Serif" font-size="10.00">/home/travis/build</text>
<text text-anchor="start" x="200" y="-220" font-family="Helvetica,sans-Serif" font-size="10.00">/AliceO2Group/AliceO2</text>
<text text-anchor="start" x="200" y="-209" font-family="Helvetica,sans-Serif" font-size="10.00">/Detectors/TOF/simulation</text>
<text text-anchor="middle" x="275" y="-198" font-family="Helvetica,sans-Serif" font-size="10.00">/include/TOFSimulation/Digitizer.h</text>
</a>
</g>
</g>
<!-- Node1&#45;&gt;Node3 -->
<g id="edge2" class="edge"><title>Node1&#45;&gt;Node3</title>
<path fill="none" stroke="midnightblue" d="M327.006,-273.139C317.628,-263.196 307.484,-252.441 298.666,-243.092"/>
<polygon fill="midnightblue" stroke="midnightblue" points="324.585,-275.674 333.993,-280.547 329.678,-270.871 324.585,-275.674"/>
</g>
<!-- Node4 -->
<g id="node4" class="node"><title>Node4</title>
<g id="a_node4"><a xlink:href="../../d8/dc6/TOF_2simulation_2include_2TOFSimulation_2DigitizerTask_8h.html" target="_top" xlink:title="/home/travis/build\l/AliceO2Group/AliceO2\l/Detectors/TOF/simulation\l/include/TOFSimulation/Digitizer\lTask.h">
<polygon fill="none" stroke="black" points="85,-90.5 85,-153.5 243,-153.5 243,-90.5 85,-90.5"/>
<text text-anchor="start" x="93" y="-141.5" font-family="Helvetica,sans-Serif" font-size="10.00">/home/travis/build</text>
<text text-anchor="start" x="93" y="-130.5" font-family="Helvetica,sans-Serif" font-size="10.00">/AliceO2Group/AliceO2</text>
<text text-anchor="start" x="93" y="-119.5" font-family="Helvetica,sans-Serif" font-size="10.00">/Detectors/TOF/simulation</text>
<text text-anchor="start" x="93" y="-108.5" font-family="Helvetica,sans-Serif" font-size="10.00">/include/TOFSimulation/Digitizer</text>
<text text-anchor="middle" x="164" y="-97.5" font-family="Helvetica,sans-Serif" font-size="10.00">Task.h</text>
</a>
</g>
</g>
<!-- Node1&#45;&gt;Node4 -->
<g id="edge7" class="edge"><title>Node1&#45;&gt;Node4</title>
<path fill="none" stroke="midnightblue" d="M264.51,-292.414C234.337,-283.46 203.439,-268.613 183,-244 162.147,-218.889 159.47,-180.388 160.67,-153.583"/>
<polygon fill="midnightblue" stroke="midnightblue" points="263.696,-295.821 274.267,-295.12 265.566,-289.075 263.696,-295.821"/>
</g>
<!-- Node8 -->
<g id="node8" class="node"><title>Node8</title>
<g id="a_node8"><a xlink:href="../../d4/d59/TOF_2simulation_2src_2Detector_8cxx.html" target="_top" xlink:title="/home/travis/build\l/AliceO2Group/AliceO2\l/Detectors/TOF/simulation\l/src/Detector.cxx">
<polygon fill="none" stroke="black" points="376,-191 376,-243 508,-243 508,-191 376,-191"/>
<text text-anchor="start" x="384" y="-231" font-family="Helvetica,sans-Serif" font-size="10.00">/home/travis/build</text>
<text text-anchor="start" x="384" y="-220" font-family="Helvetica,sans-Serif" font-size="10.00">/AliceO2Group/AliceO2</text>
<text text-anchor="start" x="384" y="-209" font-family="Helvetica,sans-Serif" font-size="10.00">/Detectors/TOF/simulation</text>
<text text-anchor="middle" x="442" y="-198" font-family="Helvetica,sans-Serif" font-size="10.00">/src/Detector.cxx</text>
</a>
</g>
</g>
<!-- Node1&#45;&gt;Node8 -->
<g id="edge8" class="edge"><title>Node1&#45;&gt;Node8</title>
<path fill="none" stroke="midnightblue" d="M389.368,-273.139C398.859,-263.196 409.125,-252.441 418.048,-243.092"/>
<polygon fill="midnightblue" stroke="midnightblue" points="386.669,-270.896 382.296,-280.547 391.733,-275.73 386.669,-270.896"/>
</g>
<!-- Node9 -->
<g id="node9" class="node"><title>Node9</title>
<g id="a_node9"><a xlink:href="../../dc/d6a/run__sim__tof_8C.html" target="_top" xlink:title="/home/travis/build\l/AliceO2Group/AliceO2\l/macro/run_sim_tof.C">
<polygon fill="none" stroke="black" points="526,-196.5 526,-237.5 644,-237.5 644,-196.5 526,-196.5"/>
<text text-anchor="start" x="534" y="-225.5" font-family="Helvetica,sans-Serif" font-size="10.00">/home/travis/build</text>
<text text-anchor="start" x="534" y="-214.5" font-family="Helvetica,sans-Serif" font-size="10.00">/AliceO2Group/AliceO2</text>
<text text-anchor="middle" x="585" y="-203.5" font-family="Helvetica,sans-Serif" font-size="10.00">/macro/run_sim_tof.C</text>
</a>
</g>
</g>
<!-- Node1&#45;&gt;Node9 -->
<g id="edge9" class="edge"><title>Node1&#45;&gt;Node9</title>
<path fill="none" stroke="midnightblue" d="M432.494,-277.121C465.969,-264.144 504.596,-249.17 534.6,-237.538"/>
<polygon fill="midnightblue" stroke="midnightblue" points="430.804,-274.023 422.745,-280.901 433.334,-280.549 430.804,-274.023"/>
</g>
<!-- Node10 -->
<g id="node10" class="node"><title>Node10</title>
<g id="a_node10"><a xlink:href="../../db/d50/O2HitMerger_8h.html" target="_top" xlink:title="/home/travis/build\l/AliceO2Group/AliceO2\l/run/O2HitMerger.h">
<polygon fill="none" stroke="black" points="662,-196.5 662,-237.5 780,-237.5 780,-196.5 662,-196.5"/>
<text text-anchor="start" x="670" y="-225.5" font-family="Helvetica,sans-Serif" font-size="10.00">/home/travis/build</text>
<text text-anchor="start" x="670" y="-214.5" font-family="Helvetica,sans-Serif" font-size="10.00">/AliceO2Group/AliceO2</text>
<text text-anchor="middle" x="721" y="-203.5" font-family="Helvetica,sans-Serif" font-size="10.00">/run/O2HitMerger.h</text>
</a>
</g>
</g>
<!-- Node1&#45;&gt;Node10 -->
<g id="edge10" class="edge"><title>Node1&#45;&gt;Node10</title>
<path fill="none" stroke="midnightblue" d="M451.486,-290.263C509.97,-279.458 586.556,-263.552 653,-244 659.426,-242.109 666.106,-239.887 672.66,-237.551"/>
<polygon fill="midnightblue" stroke="midnightblue" points="450.73,-286.843 441.523,-292.086 451.99,-293.729 450.73,-286.843"/>
</g>
<!-- Node3&#45;&gt;Node4 -->
<g id="edge3" class="edge"><title>Node3&#45;&gt;Node4</title>
<path fill="none" stroke="midnightblue" d="M237.06,-184.212C225.334,-174.388 212.442,-163.587 200.795,-153.828"/>
<polygon fill="midnightblue" stroke="midnightblue" points="235.049,-187.093 244.962,-190.833 239.544,-181.728 235.049,-187.093"/>
</g>
<!-- Node7 -->
<g id="node7" class="node"><title>Node7</title>
<g id="a_node7"><a xlink:href="../../d4/df3/TOF_2simulation_2src_2Digitizer_8cxx.html" target="_top" xlink:title="/home/travis/build\l/AliceO2Group/AliceO2\l/Detectors/TOF/simulation\l/src/Digitizer.cxx">
<polygon fill="none" stroke="black" points="261,-96 261,-148 393,-148 393,-96 261,-96"/>
<text text-anchor="start" x="269" y="-136" font-family="Helvetica,sans-Serif" font-size="10.00">/home/travis/build</text>
<text text-anchor="start" x="269" y="-125" font-family="Helvetica,sans-Serif" font-size="10.00">/AliceO2Group/AliceO2</text>
<text text-anchor="start" x="269" y="-114" font-family="Helvetica,sans-Serif" font-size="10.00">/Detectors/TOF/simulation</text>
<text text-anchor="middle" x="327" y="-103" font-family="Helvetica,sans-Serif" font-size="10.00">/src/Digitizer.cxx</text>
</a>
</g>
</g>
<!-- Node3&#45;&gt;Node7 -->
<g id="edge6" class="edge"><title>Node3&#45;&gt;Node7</title>
<path fill="none" stroke="midnightblue" d="M294.262,-181.551C300.471,-170.446 307.231,-158.355 312.988,-148.06"/>
<polygon fill="midnightblue" stroke="midnightblue" points="291.035,-180.151 289.209,-190.587 297.144,-183.567 291.035,-180.151"/>
</g>
<!-- Node5 -->
<g id="node5" class="node"><title>Node5</title>
<g id="a_node5"><a xlink:href="../../dd/df3/TOF_2simulation_2src_2DigitizerTask_8cxx.html" target="_top" xlink:title="/home/travis/build\l/AliceO2Group/AliceO2\l/Detectors/TOF/simulation\l/src/DigitizerTask.cxx">
<polygon fill="none" stroke="black" points="27,-1 27,-53 159,-53 159,-1 27,-1"/>
<text text-anchor="start" x="35" y="-41" font-family="Helvetica,sans-Serif" font-size="10.00">/home/travis/build</text>
<text text-anchor="start" x="35" y="-30" font-family="Helvetica,sans-Serif" font-size="10.00">/AliceO2Group/AliceO2</text>
<text text-anchor="start" x="35" y="-19" font-family="Helvetica,sans-Serif" font-size="10.00">/Detectors/TOF/simulation</text>
<text text-anchor="middle" x="93" y="-8" font-family="Helvetica,sans-Serif" font-size="10.00">/src/DigitizerTask.cxx</text>
</a>
</g>
</g>
<!-- Node4&#45;&gt;Node5 -->
<g id="edge4" class="edge"><title>Node4&#45;&gt;Node5</title>
<path fill="none" stroke="midnightblue" d="M134.366,-82.1833C126.86,-72.3522 118.995,-62.0498 112.162,-53.1001"/>
<polygon fill="midnightblue" stroke="midnightblue" points="131.705,-84.466 140.555,-90.2906 137.269,-80.2183 131.705,-84.466"/>
</g>
<!-- Node6 -->
<g id="node6" class="node"><title>Node6</title>
<g id="a_node6"><a xlink:href="../../db/d79/run__digi__tof_8C.html" target="_top" xlink:title="/home/travis/build\l/AliceO2Group/AliceO2\l/macro/run_digi_tof.C">
<polygon fill="none" stroke="black" points="177,-6.5 177,-47.5 295,-47.5 295,-6.5 177,-6.5"/>
<text text-anchor="start" x="185" y="-35.5" font-family="Helvetica,sans-Serif" font-size="10.00">/home/travis/build</text>
<text text-anchor="start" x="185" y="-24.5" font-family="Helvetica,sans-Serif" font-size="10.00">/AliceO2Group/AliceO2</text>
<text text-anchor="middle" x="236" y="-13.5" font-family="Helvetica,sans-Serif" font-size="10.00">/macro/run_digi_tof.C</text>
</a>
</g>
</g>
<!-- Node4&#45;&gt;Node6 -->
<g id="edge5" class="edge"><title>Node4&#45;&gt;Node6</title>
<path fill="none" stroke="midnightblue" d="M194.052,-82.1833C203.287,-70.2549 213.059,-57.6327 220.845,-47.5747"/>
<polygon fill="midnightblue" stroke="midnightblue" points="191.129,-80.2407 187.775,-90.2906 196.664,-84.5259 191.129,-80.2407"/>
</g>
<!-- Node10&#45;&gt;Node10 -->
<g id="edge11" class="edge"><title>Node10&#45;&gt;Node10</title>
<path fill="none" stroke="midnightblue" d="M789.662,-229.611C794.826,-226.798 798,-222.595 798,-217 798,-208.475 790.63,-203.18 780.079,-201.115"/>
<polygon fill="midnightblue" stroke="midnightblue" points="788.41,-226.34 780.079,-232.885 790.674,-232.964 788.41,-226.34"/>
</g>
<!-- Node11 -->
<g id="node11" class="node"><title>Node11</title>
<g id="a_node11"><a xlink:href="../../d9/d16/O2HitMergerRunner_8cxx.html" target="_top" xlink:title="/home/travis/build\l/AliceO2Group/AliceO2\l/run/O2HitMergerRunner.cxx">
<polygon fill="none" stroke="black" points="650,-101.5 650,-142.5 792,-142.5 792,-101.5 650,-101.5"/>
<text text-anchor="start" x="658" y="-130.5" font-family="Helvetica,sans-Serif" font-size="10.00">/home/travis/build</text>
<text text-anchor="start" x="658" y="-119.5" font-family="Helvetica,sans-Serif" font-size="10.00">/AliceO2Group/AliceO2</text>
<text text-anchor="middle" x="721" y="-108.5" font-family="Helvetica,sans-Serif" font-size="10.00">/run/O2HitMergerRunner.cxx</text>
</a>
</g>
</g>
<!-- Node10&#45;&gt;Node11 -->
<g id="edge12" class="edge"><title>Node10&#45;&gt;Node11</title>
<path fill="none" stroke="midnightblue" d="M721,-185.992C721,-171.805 721,-155.265 721,-142.694"/>
<polygon fill="midnightblue" stroke="midnightblue" points="717.5,-186.277 721,-196.277 724.5,-186.277 717.5,-186.277"/>
</g>
</g>
</svg>
