<?xml version="1.0" encoding="UTF-8" standalone="no"?>
<!DOCTYPE svg PUBLIC "-//W3C//DTD SVG 1.1//EN"
 "http://www.w3.org/Graphics/SVG/1.1/DTD/svg11.dtd">
<!-- Generated by graphviz version 2.36.0 (20140111.2315)
 -->
<!-- Title: /home/travis/build/AliceO2Group/AliceO2/DataFormats/simulation/include/SimulationDataFormat/TrackReference.h Pages: 1 -->
<svg width="2425pt" height="652pt"
 viewBox="0.00 0.00 2425.00 652.00" xmlns="http://www.w3.org/2000/svg" xmlns:xlink="http://www.w3.org/1999/xlink">
<g id="graph0" class="graph" transform="scale(1 1) rotate(0) translate(4 648)">
<title>/home/travis/build/AliceO2Group/AliceO2/DataFormats/simulation/include/SimulationDataFormat/TrackReference.h</title>
<!-- Node1 -->
<g id="node1" class="node"><title>Node1</title>
<polygon fill="#bfbfbf" stroke="black" points="1236.5,-580.5 1236.5,-643.5 1387.5,-643.5 1387.5,-580.5 1236.5,-580.5"/>
<text text-anchor="start" x="1244.5" y="-631.5" font-family="Helvetica,sans-Serif" font-size="10.00">/home/travis/build</text>
<text text-anchor="start" x="1244.5" y="-620.5" font-family="Helvetica,sans-Serif" font-size="10.00">/AliceO2Group/AliceO2</text>
<text text-anchor="start" x="1244.5" y="-609.5" font-family="Helvetica,sans-Serif" font-size="10.00">/DataFormats/simulation</text>
<text text-anchor="start" x="1244.5" y="-598.5" font-family="Helvetica,sans-Serif" font-size="10.00">/include/SimulationDataFormat</text>
<text text-anchor="middle" x="1312" y="-587.5" font-family="Helvetica,sans-Serif" font-size="10.00">/TrackReference.h</text>
</g>
<!-- Node2 -->
<g id="node2" class="node"><title>Node2</title>
<g id="a_node2"><a xlink:href="../../dc/db6/Stack_8h.html" target="_top" xlink:title="Definition of the Stack class. ">
<polygon fill="none" stroke="black" points="1184.5,-480.5 1184.5,-543.5 1335.5,-543.5 1335.5,-480.5 1184.5,-480.5"/>
<text text-anchor="start" x="1192.5" y="-531.5" font-family="Helvetica,sans-Serif" font-size="10.00">/home/travis/build</text>
<text text-anchor="start" x="1192.5" y="-520.5" font-family="Helvetica,sans-Serif" font-size="10.00">/AliceO2Group/AliceO2</text>
<text text-anchor="start" x="1192.5" y="-509.5" font-family="Helvetica,sans-Serif" font-size="10.00">/DataFormats/simulation</text>
<text text-anchor="start" x="1192.5" y="-498.5" font-family="Helvetica,sans-Serif" font-size="10.00">/include/SimulationDataFormat</text>
<text text-anchor="middle" x="1260" y="-487.5" font-family="Helvetica,sans-Serif" font-size="10.00">/Stack.h</text>
</a>
</g>
</g>
<!-- Node1&#45;&gt;Node2 -->
<g id="edge1" class="edge"><title>Node1&#45;&gt;Node2</title>
<path fill="none" stroke="midnightblue" d="M1290.91,-571.252C1286.02,-562.042 1280.9,-552.379 1276.25,-543.63"/>
<polygon fill="midnightblue" stroke="midnightblue" points="1287.91,-573.068 1295.69,-580.261 1294.09,-569.787 1287.91,-573.068"/>
</g>
<!-- Node4 -->
<g id="node4" class="node"><title>Node4</title>
<g id="a_node4"><a xlink:href="../../d3/df5/checkStack_8C.html" target="_top" xlink:title="/home/travis/build\l/AliceO2Group/AliceO2\l/DataFormats/simulation\l/test/checkStack.C">
<polygon fill="none" stroke="black" points="0,-391 0,-443 124,-443 124,-391 0,-391"/>
<text text-anchor="start" x="8" y="-431" font-family="Helvetica,sans-Serif" font-size="10.00">/home/travis/build</text>
<text text-anchor="start" x="8" y="-420" font-family="Helvetica,sans-Serif" font-size="10.00">/AliceO2Group/AliceO2</text>
<text text-anchor="start" x="8" y="-409" font-family="Helvetica,sans-Serif" font-size="10.00">/DataFormats/simulation</text>
<text text-anchor="middle" x="62" y="-398" font-family="Helvetica,sans-Serif" font-size="10.00">/test/checkStack.C</text>
</a>
</g>
</g>
<!-- Node1&#45;&gt;Node4 -->
<g id="edge29" class="edge"><title>Node1&#45;&gt;Node4</title>
<path fill="none" stroke="midnightblue" d="M1226.02,-610.698C1070.25,-608.74 731.572,-597.989 452,-544 332.883,-520.997 199.438,-472.744 123.589,-443.078"/>
<polygon fill="midnightblue" stroke="midnightblue" points="1226.43,-614.203 1236.47,-610.82 1226.51,-607.204 1226.43,-614.203"/>
</g>
<!-- Node9 -->
<g id="node9" class="node"><title>Node9</title>
<g id="a_node9"><a xlink:href="../../d9/d0d/ITSMFT_2ITS_2simulation_2src_2Detector_8cxx.html" target="_top" xlink:title="/home/travis/build\l/AliceO2Group/AliceO2\l/Detectors/ITSMFT/ITS\l/simulation/src/Detector.cxx">
<polygon fill="none" stroke="black" points="142,-391 142,-443 282,-443 282,-391 142,-391"/>
<text text-anchor="start" x="150" y="-431" font-family="Helvetica,sans-Serif" font-size="10.00">/home/travis/build</text>
<text text-anchor="start" x="150" y="-420" font-family="Helvetica,sans-Serif" font-size="10.00">/AliceO2Group/AliceO2</text>
<text text-anchor="start" x="150" y="-409" font-family="Helvetica,sans-Serif" font-size="10.00">/Detectors/ITSMFT/ITS</text>
<text text-anchor="middle" x="212" y="-398" font-family="Helvetica,sans-Serif" font-size="10.00">/simulation/src/Detector.cxx</text>
</a>
</g>
</g>
<!-- Node1&#45;&gt;Node9 -->
<g id="edge31" class="edge"><title>Node1&#45;&gt;Node9</title>
<path fill="none" stroke="midnightblue" d="M1226.24,-601.555C1049.55,-581.095 632.853,-527.671 291,-444 288.055,-443.279 285.061,-442.502 282.047,-441.681"/>
<polygon fill="midnightblue" stroke="midnightblue" points="1225.92,-605.041 1236.26,-602.709 1226.72,-598.087 1225.92,-605.041"/>
</g>
<!-- Node11 -->
<g id="node11" class="node"><title>Node11</title>
<g id="a_node11"><a xlink:href="../../db/dfd/Stepper_8cxx.html" target="_top" xlink:title="/home/travis/build\l/AliceO2Group/AliceO2\l/Detectors/MUON/MCH/Simulation\l/src/Stepper.cxx">
<polygon fill="none" stroke="black" points="2095.5,-391 2095.5,-443 2266.5,-443 2266.5,-391 2095.5,-391"/>
<text text-anchor="start" x="2103.5" y="-431" font-family="Helvetica,sans-Serif" font-size="10.00">/home/travis/build</text>
<text text-anchor="start" x="2103.5" y="-420" font-family="Helvetica,sans-Serif" font-size="10.00">/AliceO2Group/AliceO2</text>
<text text-anchor="start" x="2103.5" y="-409" font-family="Helvetica,sans-Serif" font-size="10.00">/Detectors/MUON/MCH/Simulation</text>
<text text-anchor="middle" x="2181" y="-398" font-family="Helvetica,sans-Serif" font-size="10.00">/src/Stepper.cxx</text>
</a>
</g>
</g>
<!-- Node1&#45;&gt;Node11 -->
<g id="edge32" class="edge"><title>Node1&#45;&gt;Node11</title>
<path fill="none" stroke="midnightblue" d="M1332.45,-571.51C1351.76,-534.963 1379.05,-485.464 1388,-480 1454.27,-439.52 2009.33,-456.322 2086,-444 2089.12,-443.498 2092.29,-442.933 2095.48,-442.316"/>
<polygon fill="midnightblue" stroke="midnightblue" points="1329.28,-570.007 1327.73,-580.487 1335.48,-573.266 1329.28,-570.007"/>
</g>
<!-- Node14 -->
<g id="node14" class="node"><title>Node14</title>
<g id="a_node14"><a xlink:href="../../d2/d2c/TPC_2simulation_2src_2Detector_8cxx.html" target="_top" xlink:title="/home/travis/build\l/AliceO2Group/AliceO2\l/Detectors/TPC/simulation\l/src/Detector.cxx">
<polygon fill="none" stroke="black" points="2284.5,-391 2284.5,-443 2417.5,-443 2417.5,-391 2284.5,-391"/>
<text text-anchor="start" x="2292.5" y="-431" font-family="Helvetica,sans-Serif" font-size="10.00">/home/travis/build</text>
<text text-anchor="start" x="2292.5" y="-420" font-family="Helvetica,sans-Serif" font-size="10.00">/AliceO2Group/AliceO2</text>
<text text-anchor="start" x="2292.5" y="-409" font-family="Helvetica,sans-Serif" font-size="10.00">/Detectors/TPC/simulation</text>
<text text-anchor="middle" x="2351" y="-398" font-family="Helvetica,sans-Serif" font-size="10.00">/src/Detector.cxx</text>
</a>
</g>
</g>
<!-- Node1&#45;&gt;Node14 -->
<g id="edge33" class="edge"><title>Node1&#45;&gt;Node14</title>
<path fill="none" stroke="midnightblue" d="M1354.99,-573.111C1364.35,-563.992 1373.87,-553.988 1382,-544 1403.17,-517.98 1393.01,-496.876 1422,-480 1503.98,-432.274 2181.77,-461.534 2275,-444 2278.02,-443.433 2281.07,-442.771 2284.14,-442.036"/>
<polygon fill="midnightblue" stroke="midnightblue" points="1352.36,-570.779 1347.55,-580.217 1357.2,-575.842 1352.36,-570.779"/>
</g>
<!-- Node27 -->
<g id="node27" class="node"><title>Node27</title>
<g id="a_node27"><a xlink:href="../../dc/df8/CheckTracks_8C.html" target="_top" xlink:title="Simple macro to check ITSU tracks. ">
<polygon fill="none" stroke="black" points="1430.5,-486 1430.5,-538 1573.5,-538 1573.5,-486 1430.5,-486"/>
<text text-anchor="start" x="1438.5" y="-526" font-family="Helvetica,sans-Serif" font-size="10.00">/home/travis/build</text>
<text text-anchor="start" x="1438.5" y="-515" font-family="Helvetica,sans-Serif" font-size="10.00">/AliceO2Group/AliceO2</text>
<text text-anchor="start" x="1438.5" y="-504" font-family="Helvetica,sans-Serif" font-size="10.00">/Detectors/ITSMFT/ITS</text>
<text text-anchor="middle" x="1502" y="-493" font-family="Helvetica,sans-Serif" font-size="10.00">/macros/test/CheckTracks.C</text>
</a>
</g>
</g>
<!-- Node1&#45;&gt;Node27 -->
<g id="edge30" class="edge"><title>Node1&#45;&gt;Node27</title>
<path fill="none" stroke="midnightblue" d="M1380.44,-575.699C1404.55,-563.262 1431.15,-549.545 1453.3,-538.121"/>
<polygon fill="midnightblue" stroke="midnightblue" points="1378.62,-572.701 1371.34,-580.395 1381.83,-578.922 1378.62,-572.701"/>
</g>
<!-- Node3 -->
<g id="node3" class="node"><title>Node3</title>
<g id="a_node3"><a xlink:href="../../dd/d20/Stack_8cxx.html" target="_top" xlink:title="Implementation of the Stack class. ">
<polygon fill="none" stroke="black" points="468,-391 468,-443 592,-443 592,-391 468,-391"/>
<text text-anchor="start" x="476" y="-431" font-family="Helvetica,sans-Serif" font-size="10.00">/home/travis/build</text>
<text text-anchor="start" x="476" y="-420" font-family="Helvetica,sans-Serif" font-size="10.00">/AliceO2Group/AliceO2</text>
<text text-anchor="start" x="476" y="-409" font-family="Helvetica,sans-Serif" font-size="10.00">/DataFormats/simulation</text>
<text text-anchor="middle" x="530" y="-398" font-family="Helvetica,sans-Serif" font-size="10.00">/src/Stack.cxx</text>
</a>
</g>
</g>
<!-- Node2&#45;&gt;Node3 -->
<g id="edge2" class="edge"><title>Node2&#45;&gt;Node3</title>
<path fill="none" stroke="midnightblue" d="M1174.06,-503.468C1008.22,-488.758 655.543,-456.551 601,-444 598.058,-443.323 595.071,-442.558 592.072,-441.726"/>
<polygon fill="midnightblue" stroke="midnightblue" points="1173.95,-506.973 1184.22,-504.369 1174.57,-500 1173.95,-506.973"/>
</g>
<!-- Node2&#45;&gt;Node4 -->
<g id="edge3" class="edge"><title>Node2&#45;&gt;Node4</title>
<path fill="none" stroke="midnightblue" d="M1173.99,-509.124C946.29,-503.643 331.674,-485.351 133,-444 130.044,-443.385 127.046,-442.67 124.038,-441.879"/>
<polygon fill="midnightblue" stroke="midnightblue" points="1174.13,-512.629 1184.21,-509.368 1174.3,-505.631 1174.13,-512.629"/>
</g>
<!-- Node5 -->
<g id="node5" class="node"><title>Node5</title>
<g id="a_node5"><a xlink:href="../../d5/d9d/test_2MCTrack_8cxx.html" target="_top" xlink:title="/home/travis/build\l/AliceO2Group/AliceO2\l/DataFormats/simulation\l/test/MCTrack.cxx">
<polygon fill="none" stroke="black" points="610,-391 610,-443 734,-443 734,-391 610,-391"/>
<text text-anchor="start" x="618" y="-431" font-family="Helvetica,sans-Serif" font-size="10.00">/home/travis/build</text>
<text text-anchor="start" x="618" y="-420" font-family="Helvetica,sans-Serif" font-size="10.00">/AliceO2Group/AliceO2</text>
<text text-anchor="start" x="618" y="-409" font-family="Helvetica,sans-Serif" font-size="10.00">/DataFormats/simulation</text>
<text text-anchor="middle" x="672" y="-398" font-family="Helvetica,sans-Serif" font-size="10.00">/test/MCTrack.cxx</text>
</a>
</g>
</g>
<!-- Node2&#45;&gt;Node5 -->
<g id="edge4" class="edge"><title>Node2&#45;&gt;Node5</title>
<path fill="none" stroke="midnightblue" d="M1174.23,-505.591C1070.99,-497.771 892.898,-480.096 744,-444 740.771,-443.217 737.486,-442.339 734.187,-441.393"/>
<polygon fill="midnightblue" stroke="midnightblue" points="1174.06,-509.088 1184.29,-506.34 1174.58,-502.107 1174.06,-509.088"/>
</g>
<!-- Node6 -->
<g id="node6" class="node"><title>Node6</title>
<g id="a_node6"><a xlink:href="../../da/d98/EMCAL_2simulation_2src_2Detector_8cxx.html" target="_top" xlink:title="/home/travis/build\l/AliceO2Group/AliceO2\l/Detectors/EMCAL/simulation\l/src/Detector.cxx">
<polygon fill="none" stroke="black" points="752.5,-391 752.5,-443 899.5,-443 899.5,-391 752.5,-391"/>
<text text-anchor="start" x="760.5" y="-431" font-family="Helvetica,sans-Serif" font-size="10.00">/home/travis/build</text>
<text text-anchor="start" x="760.5" y="-420" font-family="Helvetica,sans-Serif" font-size="10.00">/AliceO2Group/AliceO2</text>
<text text-anchor="start" x="760.5" y="-409" font-family="Helvetica,sans-Serif" font-size="10.00">/Detectors/EMCAL/simulation</text>
<text text-anchor="middle" x="826" y="-398" font-family="Helvetica,sans-Serif" font-size="10.00">/src/Detector.cxx</text>
</a>
</g>
</g>
<!-- Node2&#45;&gt;Node6 -->
<g id="edge5" class="edge"><title>Node2&#45;&gt;Node6</title>
<path fill="none" stroke="midnightblue" d="M1174.18,-497.454C1102.74,-485.502 998.607,-466.508 909,-444 905.925,-443.227 902.795,-442.407 899.641,-441.551"/>
<polygon fill="midnightblue" stroke="midnightblue" points="1174.04,-500.979 1184.48,-499.166 1175.19,-494.074 1174.04,-500.979"/>
</g>
<!-- Node7 -->
<g id="node7" class="node"><title>Node7</title>
<g id="a_node7"><a xlink:href="../../d6/db7/G3Config_8cxx.html" target="_top" xlink:title="/home/travis/build\l/AliceO2Group/AliceO2\l/Detectors/gconfig/src\l/G3Config.cxx">
<polygon fill="none" stroke="black" points="918,-391 918,-443 1036,-443 1036,-391 918,-391"/>
<text text-anchor="start" x="926" y="-431" font-family="Helvetica,sans-Serif" font-size="10.00">/home/travis/build</text>
<text text-anchor="start" x="926" y="-420" font-family="Helvetica,sans-Serif" font-size="10.00">/AliceO2Group/AliceO2</text>
<text text-anchor="start" x="926" y="-409" font-family="Helvetica,sans-Serif" font-size="10.00">/Detectors/gconfig/src</text>
<text text-anchor="middle" x="977" y="-398" font-family="Helvetica,sans-Serif" font-size="10.00">/G3Config.cxx</text>
</a>
</g>
</g>
<!-- Node2&#45;&gt;Node7 -->
<g id="edge6" class="edge"><title>Node2&#45;&gt;Node7</title>
<path fill="none" stroke="midnightblue" d="M1174.86,-485.82C1135.2,-473.745 1087.49,-458.727 1045,-444 1042.13,-443.007 1039.21,-441.971 1036.26,-440.91"/>
<polygon fill="midnightblue" stroke="midnightblue" points="1173.91,-489.19 1184.5,-488.745 1175.94,-482.492 1173.91,-489.19"/>
</g>
<!-- Node8 -->
<g id="node8" class="node"><title>Node8</title>
<g id="a_node8"><a xlink:href="../../d4/d6b/G4Config_8cxx.html" target="_top" xlink:title="/home/travis/build\l/AliceO2Group/AliceO2\l/Detectors/gconfig/src\l/G4Config.cxx">
<polygon fill="none" stroke="black" points="1054,-391 1054,-443 1172,-443 1172,-391 1054,-391"/>
<text text-anchor="start" x="1062" y="-431" font-family="Helvetica,sans-Serif" font-size="10.00">/home/travis/build</text>
<text text-anchor="start" x="1062" y="-420" font-family="Helvetica,sans-Serif" font-size="10.00">/AliceO2Group/AliceO2</text>
<text text-anchor="start" x="1062" y="-409" font-family="Helvetica,sans-Serif" font-size="10.00">/Detectors/gconfig/src</text>
<text text-anchor="middle" x="1113" y="-398" font-family="Helvetica,sans-Serif" font-size="10.00">/G4Config.cxx</text>
</a>
</g>
</g>
<!-- Node2&#45;&gt;Node8 -->
<g id="edge7" class="edge"><title>Node2&#45;&gt;Node8</title>
<path fill="none" stroke="midnightblue" d="M1202.82,-474.825C1186.05,-464.218 1168.09,-452.855 1152.67,-443.1"/>
<polygon fill="midnightblue" stroke="midnightblue" points="1201.14,-477.902 1211.46,-480.291 1204.88,-471.986 1201.14,-477.902"/>
</g>
<!-- Node2&#45;&gt;Node9 -->
<g id="edge8" class="edge"><title>Node2&#45;&gt;Node9</title>
<path fill="none" stroke="midnightblue" d="M1174.11,-502.78C1102.45,-496.09 997.633,-486.693 906,-480 632.926,-460.055 559.966,-495.228 291,-444 288.163,-443.46 285.287,-442.845 282.396,-442.171"/>
<polygon fill="midnightblue" stroke="midnightblue" points="1174.15,-506.299 1184.43,-503.746 1174.8,-499.329 1174.15,-506.299"/>
</g>
<!-- Node10 -->
<g id="node10" class="node"><title>Node10</title>
<g id="a_node10"><a xlink:href="../../d0/d6b/ITSMFT_2MFT_2simulation_2src_2Detector_8cxx.html" target="_top" xlink:title="/home/travis/build\l/AliceO2Group/AliceO2\l/Detectors/ITSMFT/MFT\l/simulation/src/Detector.cxx">
<polygon fill="none" stroke="black" points="1190,-391 1190,-443 1330,-443 1330,-391 1190,-391"/>
<text text-anchor="start" x="1198" y="-431" font-family="Helvetica,sans-Serif" font-size="10.00">/home/travis/build</text>
<text text-anchor="start" x="1198" y="-420" font-family="Helvetica,sans-Serif" font-size="10.00">/AliceO2Group/AliceO2</text>
<text text-anchor="start" x="1198" y="-409" font-family="Helvetica,sans-Serif" font-size="10.00">/Detectors/ITSMFT/MFT</text>
<text text-anchor="middle" x="1260" y="-398" font-family="Helvetica,sans-Serif" font-size="10.00">/simulation/src/Detector.cxx</text>
</a>
</g>
</g>
<!-- Node2&#45;&gt;Node10 -->
<g id="edge9" class="edge"><title>Node2&#45;&gt;Node10</title>
<path fill="none" stroke="midnightblue" d="M1260,-470.112C1260,-460.917 1260,-451.423 1260,-443.1"/>
<polygon fill="midnightblue" stroke="midnightblue" points="1256.5,-470.291 1260,-480.291 1263.5,-470.291 1256.5,-470.291"/>
</g>
<!-- Node2&#45;&gt;Node11 -->
<g id="edge10" class="edge"><title>Node2&#45;&gt;Node11</title>
<path fill="none" stroke="midnightblue" d="M1345.56,-480.905C1347.05,-480.585 1348.53,-480.283 1350,-480 1671.59,-418.053 1762.58,-495.533 2086,-444 2089.12,-443.502 2092.29,-442.941 2095.48,-442.327"/>
<polygon fill="midnightblue" stroke="midnightblue" points="1344.62,-477.531 1335.7,-483.242 1346.23,-484.343 1344.62,-477.531"/>
</g>
<!-- Node12 -->
<g id="node12" class="node"><title>Node12</title>
<g id="a_node12"><a xlink:href="../../df/d4d/PHOS_2simulation_2src_2Detector_8cxx.html" target="_top" xlink:title="/home/travis/build\l/AliceO2Group/AliceO2\l/Detectors/PHOS/simulation\l/src/Detector.cxx">
<polygon fill="none" stroke="black" points="1348.5,-391 1348.5,-443 1489.5,-443 1489.5,-391 1348.5,-391"/>
<text text-anchor="start" x="1356.5" y="-431" font-family="Helvetica,sans-Serif" font-size="10.00">/home/travis/build</text>
<text text-anchor="start" x="1356.5" y="-420" font-family="Helvetica,sans-Serif" font-size="10.00">/AliceO2Group/AliceO2</text>
<text text-anchor="start" x="1356.5" y="-409" font-family="Helvetica,sans-Serif" font-size="10.00">/Detectors/PHOS/simulation</text>
<text text-anchor="middle" x="1419" y="-398" font-family="Helvetica,sans-Serif" font-size="10.00">/src/Detector.cxx</text>
</a>
</g>
</g>
<!-- Node2&#45;&gt;Node12 -->
<g id="edge11" class="edge"><title>Node2&#45;&gt;Node12</title>
<path fill="none" stroke="midnightblue" d="M1321.35,-475.117C1339.63,-464.426 1359.26,-452.945 1376.09,-443.1"/>
<polygon fill="midnightblue" stroke="midnightblue" points="1319.37,-472.221 1312.5,-480.291 1322.9,-478.263 1319.37,-472.221"/>
</g>
<!-- Node13 -->
<g id="node13" class="node"><title>Node13</title>
<g id="a_node13"><a xlink:href="../../d4/d59/TOF_2simulation_2src_2Detector_8cxx.html" target="_top" xlink:title="/home/travis/build\l/AliceO2Group/AliceO2\l/Detectors/TOF/simulation\l/src/Detector.cxx">
<polygon fill="none" stroke="black" points="1508,-391 1508,-443 1640,-443 1640,-391 1508,-391"/>
<text text-anchor="start" x="1516" y="-431" font-family="Helvetica,sans-Serif" font-size="10.00">/home/travis/build</text>
<text text-anchor="start" x="1516" y="-420" font-family="Helvetica,sans-Serif" font-size="10.00">/AliceO2Group/AliceO2</text>
<text text-anchor="start" x="1516" y="-409" font-family="Helvetica,sans-Serif" font-size="10.00">/Detectors/TOF/simulation</text>
<text text-anchor="middle" x="1574" y="-398" font-family="Helvetica,sans-Serif" font-size="10.00">/src/Detector.cxx</text>
</a>
</g>
</g>
<!-- Node2&#45;&gt;Node13 -->
<g id="edge12" class="edge"><title>Node2&#45;&gt;Node13</title>
<path fill="none" stroke="midnightblue" d="M1345.66,-481.29C1347.11,-480.852 1348.56,-480.421 1350,-480 1414.96,-460.956 1433.02,-462.976 1498,-444 1501.21,-443.062 1504.49,-442.071 1507.79,-441.046"/>
<polygon fill="midnightblue" stroke="midnightblue" points="1344.47,-477.992 1335.95,-484.283 1346.54,-484.682 1344.47,-477.992"/>
</g>
<!-- Node2&#45;&gt;Node14 -->
<g id="edge13" class="edge"><title>Node2&#45;&gt;Node14</title>
<path fill="none" stroke="midnightblue" d="M1345.79,-487.77C1359.81,-484.684 1374.24,-481.926 1388,-480 1778.74,-425.3 1887.19,-516.612 2275,-444 2278.02,-443.435 2281.07,-442.776 2284.15,-442.042"/>
<polygon fill="midnightblue" stroke="midnightblue" points="1344.65,-484.44 1335.67,-490.068 1346.2,-491.266 1344.65,-484.44"/>
</g>
<!-- Node15 -->
<g id="node15" class="node"><title>Node15</title>
<g id="a_node15"><a xlink:href="../../da/d16/TRD_2simulation_2src_2Detector_8cxx.html" target="_top" xlink:title="/home/travis/build\l/AliceO2Group/AliceO2\l/Detectors/TRD/simulation\l/src/Detector.cxx">
<polygon fill="none" stroke="black" points="1658,-391 1658,-443 1792,-443 1792,-391 1658,-391"/>
<text text-anchor="start" x="1666" y="-431" font-family="Helvetica,sans-Serif" font-size="10.00">/home/travis/build</text>
<text text-anchor="start" x="1666" y="-420" font-family="Helvetica,sans-Serif" font-size="10.00">/AliceO2Group/AliceO2</text>
<text text-anchor="start" x="1666" y="-409" font-family="Helvetica,sans-Serif" font-size="10.00">/Detectors/TRD/simulation</text>
<text text-anchor="middle" x="1725" y="-398" font-family="Helvetica,sans-Serif" font-size="10.00">/src/Detector.cxx</text>
</a>
</g>
</g>
<!-- Node2&#45;&gt;Node15 -->
<g id="edge14" class="edge"><title>Node2&#45;&gt;Node15</title>
<path fill="none" stroke="midnightblue" d="M1345.6,-481.05C1347.07,-480.686 1348.54,-480.335 1350,-480 1480.45,-450.037 1518.52,-473.827 1649,-444 1651.85,-443.347 1654.75,-442.627 1657.67,-441.854"/>
<polygon fill="midnightblue" stroke="midnightblue" points="1344.56,-477.703 1335.78,-483.634 1346.34,-484.473 1344.56,-477.703"/>
</g>
<!-- Node16 -->
<g id="node16" class="node"><title>Node16</title>
<g id="a_node16"><a xlink:href="../../db/d50/O2HitMerger_8h.html" target="_top" xlink:title="/home/travis/build\l/AliceO2Group/AliceO2\l/run/O2HitMerger.h">
<polygon fill="none" stroke="black" points="1761,-78.5 1761,-119.5 1879,-119.5 1879,-78.5 1761,-78.5"/>
<text text-anchor="start" x="1769" y="-107.5" font-family="Helvetica,sans-Serif" font-size="10.00">/home/travis/build</text>
<text text-anchor="start" x="1769" y="-96.5" font-family="Helvetica,sans-Serif" font-size="10.00">/AliceO2Group/AliceO2</text>
<text text-anchor="middle" x="1820" y="-85.5" font-family="Helvetica,sans-Serif" font-size="10.00">/run/O2HitMerger.h</text>
</a>
</g>
</g>
<!-- Node2&#45;&gt;Node16 -->
<g id="edge15" class="edge"><title>Node2&#45;&gt;Node16</title>
<path fill="none" stroke="midnightblue" d="M1345.87,-480.317C1427.67,-469.85 1765.12,-476.706 1801,-444 1837.66,-410.577 1820,-383.613 1820,-334 1820,-334 1820,-334 1820,-254 1820,-205.875 1820,-149.291 1820,-119.935"/>
<polygon fill="midnightblue" stroke="midnightblue" points="1345.02,-476.91 1335.73,-481.994 1346.16,-483.816 1345.02,-476.91"/>
</g>
<!-- Node18 -->
<g id="node18" class="node"><title>Node18</title>
<g id="a_node18"><a xlink:href="../../db/d82/O2SimDevice_8h.html" target="_top" xlink:title="/home/travis/build\l/AliceO2Group/AliceO2\l/run/O2SimDevice.h">
<polygon fill="none" stroke="black" points="1889,-156.5 1889,-197.5 2007,-197.5 2007,-156.5 1889,-156.5"/>
<text text-anchor="start" x="1897" y="-185.5" font-family="Helvetica,sans-Serif" font-size="10.00">/home/travis/build</text>
<text text-anchor="start" x="1897" y="-174.5" font-family="Helvetica,sans-Serif" font-size="10.00">/AliceO2Group/AliceO2</text>
<text text-anchor="middle" x="1948" y="-163.5" font-family="Helvetica,sans-Serif" font-size="10.00">/run/O2SimDevice.h</text>
</a>
</g>
</g>
<!-- Node2&#45;&gt;Node18 -->
<g id="edge18" class="edge"><title>Node2&#45;&gt;Node18</title>
<path fill="none" stroke="midnightblue" d="M1345.56,-480.09C1466.81,-459.76 1750.41,-509.497 1834,-444 1882.57,-405.946 1852.91,-368.804 1877,-312 1894.78,-270.068 1920.95,-223.614 1936.06,-197.9"/>
<polygon fill="midnightblue" stroke="midnightblue" points="1344.88,-476.655 1335.72,-481.975 1346.2,-483.53 1344.88,-476.655"/>
</g>
<!-- Node20 -->
<g id="node20" class="node"><title>Node20</title>
<g id="a_node20"><a xlink:href="../../dc/d50/O2PrimaryServerDevice_8h.html" target="_top" xlink:title="/home/travis/build\l/AliceO2Group/AliceO2\l/run/O2PrimaryServerDevice.h">
<polygon fill="none" stroke="black" points="300,-396.5 300,-437.5 450,-437.5 450,-396.5 300,-396.5"/>
<text text-anchor="start" x="308" y="-425.5" font-family="Helvetica,sans-Serif" font-size="10.00">/home/travis/build</text>
<text text-anchor="start" x="308" y="-414.5" font-family="Helvetica,sans-Serif" font-size="10.00">/AliceO2Group/AliceO2</text>
<text text-anchor="middle" x="375" y="-403.5" font-family="Helvetica,sans-Serif" font-size="10.00">/run/O2PrimaryServerDevice.h</text>
</a>
</g>
</g>
<!-- Node2&#45;&gt;Node20 -->
<g id="edge21" class="edge"><title>Node2&#45;&gt;Node20</title>
<path fill="none" stroke="midnightblue" d="M1174.07,-503.306C1102.39,-496.928 997.555,-487.695 906,-480 707.39,-463.306 654.713,-481.694 459,-444 450.306,-442.325 441.239,-440.075 432.415,-437.596"/>
<polygon fill="midnightblue" stroke="midnightblue" points="1174.13,-506.825 1184.4,-504.226 1174.75,-499.852 1174.13,-506.825"/>
</g>
<!-- Node22 -->
<g id="node22" class="node"><title>Node22</title>
<g id="a_node22"><a xlink:href="../../df/d82/O2MCApplication_8h.html" target="_top" xlink:title="/home/travis/build\l/AliceO2Group/AliceO2\l/Steer/include/Steer/O2MCApplication.h">
<polygon fill="none" stroke="black" points="1886.5,-396.5 1886.5,-437.5 2077.5,-437.5 2077.5,-396.5 1886.5,-396.5"/>
<text text-anchor="start" x="1894.5" y="-425.5" font-family="Helvetica,sans-Serif" font-size="10.00">/home/travis/build</text>
<text text-anchor="start" x="1894.5" y="-414.5" font-family="Helvetica,sans-Serif" font-size="10.00">/AliceO2Group/AliceO2</text>
<text text-anchor="middle" x="1982" y="-403.5" font-family="Helvetica,sans-Serif" font-size="10.00">/Steer/include/Steer/O2MCApplication.h</text>
</a>
</g>
</g>
<!-- Node2&#45;&gt;Node22 -->
<g id="edge23" class="edge"><title>Node2&#45;&gt;Node22</title>
<path fill="none" stroke="midnightblue" d="M1345.57,-480.946C1347.06,-480.614 1348.53,-480.298 1350,-480 1577.9,-433.734 1642.08,-478.862 1872,-444 1883.25,-442.294 1895.05,-440.026 1906.58,-437.539"/>
<polygon fill="midnightblue" stroke="midnightblue" points="1344.6,-477.58 1335.72,-483.352 1346.26,-484.38 1344.6,-477.58"/>
</g>
<!-- Node16&#45;&gt;Node16 -->
<g id="edge16" class="edge"><title>Node16&#45;&gt;Node16</title>
<path fill="none" stroke="midnightblue" d="M1889.03,-109.753C1893.98,-107.318 1897,-103.733 1897,-99 1897,-91.6113 1889.63,-87.0223 1879.08,-85.2328"/>
<polygon fill="midnightblue" stroke="midnightblue" points="1887.63,-106.518 1879.08,-112.767 1889.66,-113.217 1887.63,-106.518"/>
</g>
<!-- Node17 -->
<g id="node17" class="node"><title>Node17</title>
<g id="a_node17"><a xlink:href="../../d9/d16/O2HitMergerRunner_8cxx.html" target="_top" xlink:title="/home/travis/build\l/AliceO2Group/AliceO2\l/run/O2HitMergerRunner.cxx">
<polygon fill="none" stroke="black" points="1749,-0.5 1749,-41.5 1891,-41.5 1891,-0.5 1749,-0.5"/>
<text text-anchor="start" x="1757" y="-29.5" font-family="Helvetica,sans-Serif" font-size="10.00">/home/travis/build</text>
<text text-anchor="start" x="1757" y="-18.5" font-family="Helvetica,sans-Serif" font-size="10.00">/AliceO2Group/AliceO2</text>
<text text-anchor="middle" x="1820" y="-7.5" font-family="Helvetica,sans-Serif" font-size="10.00">/run/O2HitMergerRunner.cxx</text>
</a>
</g>
</g>
<!-- Node16&#45;&gt;Node17 -->
<g id="edge17" class="edge"><title>Node16&#45;&gt;Node17</title>
<path fill="none" stroke="midnightblue" d="M1820,-68.2965C1820,-59.3009 1820,-49.6532 1820,-41.5056"/>
<polygon fill="midnightblue" stroke="midnightblue" points="1816.5,-68.4281 1820,-78.4281 1823.5,-68.4281 1816.5,-68.4281"/>
</g>
<!-- Node18&#45;&gt;Node16 -->
<g id="edge19" class="edge"><title>Node18&#45;&gt;Node16</title>
<path fill="none" stroke="midnightblue" d="M1906.24,-151.203C1888.91,-140.918 1869.11,-129.159 1852.85,-119.506"/>
<polygon fill="midnightblue" stroke="midnightblue" points="1904.65,-154.332 1915.04,-156.428 1908.23,-148.313 1904.65,-154.332"/>
</g>
<!-- Node19 -->
<g id="node19" class="node"><title>Node19</title>
<g id="a_node19"><a xlink:href="../../d6/da5/O2SimDeviceRunner_8cxx.html" target="_top" xlink:title="/home/travis/build\l/AliceO2Group/AliceO2\l/run/O2SimDeviceRunner.cxx">
<polygon fill="none" stroke="black" points="1915.5,-78.5 1915.5,-119.5 2062.5,-119.5 2062.5,-78.5 1915.5,-78.5"/>
<text text-anchor="start" x="1923.5" y="-107.5" font-family="Helvetica,sans-Serif" font-size="10.00">/home/travis/build</text>
<text text-anchor="start" x="1923.5" y="-96.5" font-family="Helvetica,sans-Serif" font-size="10.00">/AliceO2Group/AliceO2</text>
<text text-anchor="middle" x="1989" y="-85.5" font-family="Helvetica,sans-Serif" font-size="10.00">/run/O2SimDeviceRunner.cxx</text>
</a>
</g>
</g>
<!-- Node18&#45;&gt;Node19 -->
<g id="edge20" class="edge"><title>Node18&#45;&gt;Node19</title>
<path fill="none" stroke="midnightblue" d="M1963.39,-147.466C1968.42,-138.143 1973.89,-128.007 1978.48,-119.506"/>
<polygon fill="midnightblue" stroke="midnightblue" points="1960.23,-145.965 1958.56,-156.428 1966.39,-149.289 1960.23,-145.965"/>
</g>
<!-- Node21 -->
<g id="node21" class="node"><title>Node21</title>
<g id="a_node21"><a xlink:href="../../db/d8f/O2PrimaryServerDeviceRunner_8cxx.html" target="_top" xlink:title="/home/travis/build\l/AliceO2Group/AliceO2\l/run/O2PrimaryServerDeviceRunner.cxx">
<polygon fill="none" stroke="black" points="279,-312.5 279,-353.5 471,-353.5 471,-312.5 279,-312.5"/>
<text text-anchor="start" x="287" y="-341.5" font-family="Helvetica,sans-Serif" font-size="10.00">/home/travis/build</text>
<text text-anchor="start" x="287" y="-330.5" font-family="Helvetica,sans-Serif" font-size="10.00">/AliceO2Group/AliceO2</text>
<text text-anchor="middle" x="375" y="-319.5" font-family="Helvetica,sans-Serif" font-size="10.00">/run/O2PrimaryServerDeviceRunner.cxx</text>
</a>
</g>
</g>
<!-- Node20&#45;&gt;Node21 -->
<g id="edge22" class="edge"><title>Node20&#45;&gt;Node21</title>
<path fill="none" stroke="midnightblue" d="M375,-385.881C375,-375.133 375,-363.309 375,-353.667"/>
<polygon fill="midnightblue" stroke="midnightblue" points="371.5,-386.15 375,-396.15 378.5,-386.15 371.5,-386.15"/>
</g>
<!-- Node23 -->
<g id="node23" class="node"><title>Node23</title>
<g id="a_node23"><a xlink:href="../../d9/d9b/O2RunSim_8h.html" target="_top" xlink:title="/home/travis/build\l/AliceO2Group/AliceO2\l/Steer/include/Steer/O2RunSim.h">
<polygon fill="none" stroke="black" points="2062,-312.5 2062,-353.5 2224,-353.5 2224,-312.5 2062,-312.5"/>
<text text-anchor="start" x="2070" y="-341.5" font-family="Helvetica,sans-Serif" font-size="10.00">/home/travis/build</text>
<text text-anchor="start" x="2070" y="-330.5" font-family="Helvetica,sans-Serif" font-size="10.00">/AliceO2Group/AliceO2</text>
<text text-anchor="middle" x="2143" y="-319.5" font-family="Helvetica,sans-Serif" font-size="10.00">/Steer/include/Steer/O2RunSim.h</text>
</a>
</g>
</g>
<!-- Node22&#45;&gt;Node23 -->
<g id="edge24" class="edge"><title>Node22&#45;&gt;Node23</title>
<path fill="none" stroke="midnightblue" d="M2029.79,-391.662C2053.62,-379.524 2082.06,-365.039 2104.47,-353.623"/>
<polygon fill="midnightblue" stroke="midnightblue" points="2027.89,-388.702 2020.56,-396.359 2031.06,-394.939 2027.89,-388.702"/>
</g>
<!-- Node26 -->
<g id="node26" class="node"><title>Node26</title>
<g id="a_node26"><a xlink:href="../../df/d3b/O2MCApplication_8cxx.html" target="_top" xlink:title="/home/travis/build\l/AliceO2Group/AliceO2\l/Steer/src/O2MCApplication.cxx">
<polygon fill="none" stroke="black" points="1886,-312.5 1886,-353.5 2044,-353.5 2044,-312.5 1886,-312.5"/>
<text text-anchor="start" x="1894" y="-341.5" font-family="Helvetica,sans-Serif" font-size="10.00">/home/travis/build</text>
<text text-anchor="start" x="1894" y="-330.5" font-family="Helvetica,sans-Serif" font-size="10.00">/AliceO2Group/AliceO2</text>
<text text-anchor="middle" x="1965" y="-319.5" font-family="Helvetica,sans-Serif" font-size="10.00">/Steer/src/O2MCApplication.cxx</text>
</a>
</g>
</g>
<!-- Node22&#45;&gt;Node26 -->
<g id="edge28" class="edge"><title>Node22&#45;&gt;Node26</title>
<path fill="none" stroke="midnightblue" d="M1975.83,-386.217C1973.58,-375.379 1971.1,-363.409 1969.08,-353.667"/>
<polygon fill="midnightblue" stroke="midnightblue" points="1972.43,-387.069 1977.88,-396.15 1979.28,-385.648 1972.43,-387.069"/>
</g>
<!-- Node24 -->
<g id="node24" class="node"><title>Node24</title>
<g id="a_node24"><a xlink:href="../../dc/d6b/o2sim_8C.html" target="_top" xlink:title="/home/travis/build\l/AliceO2Group/AliceO2\l/macro/o2sim.C">
<polygon fill="none" stroke="black" points="2054,-234.5 2054,-275.5 2172,-275.5 2172,-234.5 2054,-234.5"/>
<text text-anchor="start" x="2062" y="-263.5" font-family="Helvetica,sans-Serif" font-size="10.00">/home/travis/build</text>
<text text-anchor="start" x="2062" y="-252.5" font-family="Helvetica,sans-Serif" font-size="10.00">/AliceO2Group/AliceO2</text>
<text text-anchor="middle" x="2113" y="-241.5" font-family="Helvetica,sans-Serif" font-size="10.00">/macro/o2sim.C</text>
</a>
</g>
</g>
<!-- Node23&#45;&gt;Node24 -->
<g id="edge25" class="edge"><title>Node23&#45;&gt;Node24</title>
<path fill="none" stroke="midnightblue" d="M2131.51,-302.882C2127.89,-293.721 2123.99,-283.83 2120.7,-275.506"/>
<polygon fill="midnightblue" stroke="midnightblue" points="2128.35,-304.412 2135.27,-312.428 2134.86,-301.841 2128.35,-304.412"/>
</g>
<!-- Node24&#45;&gt;Node18 -->
<g id="edge26" class="edge"><title>Node24&#45;&gt;Node18</title>
<path fill="none" stroke="midnightblue" d="M2061.31,-230.189C2038.48,-219.675 2011.98,-207.469 1990.35,-197.506"/>
<polygon fill="midnightblue" stroke="midnightblue" points="2059.96,-233.423 2070.51,-234.428 2062.89,-227.065 2059.96,-233.423"/>
</g>
<!-- Node25 -->
<g id="node25" class="node"><title>Node25</title>
<g id="a_node25"><a xlink:href="../../d8/d07/o2sim_8cxx.html" target="_top" xlink:title="/home/travis/build\l/AliceO2Group/AliceO2\l/run/o2sim.cxx">
<polygon fill="none" stroke="black" points="2054,-156.5 2054,-197.5 2172,-197.5 2172,-156.5 2054,-156.5"/>
<text text-anchor="start" x="2062" y="-185.5" font-family="Helvetica,sans-Serif" font-size="10.00">/home/travis/build</text>
<text text-anchor="start" x="2062" y="-174.5" font-family="Helvetica,sans-Serif" font-size="10.00">/AliceO2Group/AliceO2</text>
<text text-anchor="middle" x="2113" y="-163.5" font-family="Helvetica,sans-Serif" font-size="10.00">/run/o2sim.cxx</text>
</a>
</g>
</g>
<!-- Node24&#45;&gt;Node25 -->
<g id="edge27" class="edge"><title>Node24&#45;&gt;Node25</title>
<path fill="none" stroke="midnightblue" d="M2113,-224.297C2113,-215.301 2113,-205.653 2113,-197.506"/>
<polygon fill="midnightblue" stroke="midnightblue" points="2109.5,-224.428 2113,-234.428 2116.5,-224.428 2109.5,-224.428"/>
</g>
</g>
</svg>
