<?xml version="1.0" encoding="UTF-8" standalone="no"?>
<!DOCTYPE svg PUBLIC "-//W3C//DTD SVG 1.1//EN"
 "http://www.w3.org/Graphics/SVG/1.1/DTD/svg11.dtd">
<!-- Generated by graphviz version 2.36.0 (20140111.2315)
 -->
<!-- Title: o2::header::DataHeader Pages: 1 -->
<!--zoomable 1086 -->
<svg id="main" version="1.1" xmlns="http://www.w3.org/2000/svg" xmlns:xlink="http://www.w3.org/1999/xlink" xml:space="preserve" onload="init(evt)">
<style type="text/css"><![CDATA[
.edge:hover path { stroke: red; }
.edge:hover polygon { stroke: red; fill: red; }
]]></style>
<script type="text/javascript"><![CDATA[
var edges = document.getElementsByTagName('g');
if (edges && edges.length) {
  for (var i=0;i<edges.length;i++) {
    if (edges[i].id.substr(0,4)=='edge') {
      edges[i].setAttribute('class','edge');
    }
  }
}
]]></script>
        <defs>
                <circle id="rim" cx="0" cy="0" r="7"/>
                <circle id="rim2" cx="0" cy="0" r="3.5"/>
                <g id="zoomPlus">
                        <use xlink:href="#rim" fill="#404040">
                                <set attributeName="fill" to="#808080" begin="zoomplus.mouseover" end="zoomplus.mouseout"/>
                        </use>
                        <path d="M-4,0h8M0,-4v8" fill="none" stroke="white" stroke-width="1.5" pointer-events="none"/>
                </g>
                <g id="zoomMin">
                        <use xlink:href="#rim" fill="#404040">
                                <set attributeName="fill" to="#808080" begin="zoomminus.mouseover" end="zoomminus.mouseout"/>
                        </use>
                        <path d="M-4,0h8" fill="none" stroke="white" stroke-width="1.5" pointer-events="none"/>
                </g>
                <g id="dirArrow">
                        <path fill="none" stroke="white" stroke-width="1.5" d="M0,-3.0v7 M-2.5,-0.5L0,-3.0L2.5,-0.5"/>
                </g>
               <g id="resetDef">
                       <use xlink:href="#rim2" fill="#404040">
                               <set attributeName="fill" to="#808080" begin="reset.mouseover" end="reset.mouseout"/>
                       </use>
               </g>
        </defs>

<script type="text/javascript">
var viewWidth = 1225;
var viewHeight = 1086;
var sectionId = 'dynsection-1';
</script>
<script xlink:href="../../svgpan.js"/>
<svg id="graph" class="graph">
<g id="viewport">
<title>o2::header::DataHeader</title>
<!-- Node1 -->
<g id="node1" class="node"><title>Node1</title>
<polygon fill="#bfbfbf" stroke="black" points="732.136,-1 732.136,-157 853.136,-157 853.136,-1 732.136,-1"/>
<text text-anchor="middle" x="792.636" y="-145" font-family="Helvetica,sans-Serif" font-size="10.00">o2::header::DataHeader</text>
<polyline fill="none" stroke="black" points="732.136,-138 853.136,-138 "/>
<text text-anchor="middle" x="792.636" y="-126" font-family="Helvetica,sans-Serif" font-size="10.00"> </text>
<polyline fill="none" stroke="black" points="732.136,-119 853.136,-119 "/>
<text text-anchor="start" x="740.136" y="-107" font-family="Helvetica,sans-Serif" font-size="10.00">+ DataHeader()</text>
<text text-anchor="start" x="740.136" y="-96" font-family="Helvetica,sans-Serif" font-size="10.00">+ DataHeader()</text>
<text text-anchor="start" x="740.136" y="-85" font-family="Helvetica,sans-Serif" font-size="10.00">+ DataHeader()</text>
<text text-anchor="start" x="740.136" y="-74" font-family="Helvetica,sans-Serif" font-size="10.00">+ operator=()</text>
<text text-anchor="start" x="740.136" y="-63" font-family="Helvetica,sans-Serif" font-size="10.00">+ operator==()</text>
<text text-anchor="start" x="740.136" y="-52" font-family="Helvetica,sans-Serif" font-size="10.00">+ operator==()</text>
<text text-anchor="start" x="740.136" y="-41" font-family="Helvetica,sans-Serif" font-size="10.00">+ operator==()</text>
<text text-anchor="start" x="740.136" y="-30" font-family="Helvetica,sans-Serif" font-size="10.00">+ operator==()</text>
<text text-anchor="start" x="740.136" y="-19" font-family="Helvetica,sans-Serif" font-size="10.00">+ print()</text>
<text text-anchor="start" x="740.136" y="-8" font-family="Helvetica,sans-Serif" font-size="10.00">+ Get()</text>
</g>
<!-- Node2 -->
<g id="node2" class="node"><title>Node2</title>
<g id="a_node2"><a xlink:href="../../d8/dbd/structo2_1_1header_1_1BaseHeader.html" target="_top" xlink:title="the base header struct Every header type must begin (i.e. derive) with this. Don&#39;t use this struct di...">
<polygon fill="none" stroke="black" points="431.636,-216.5 431.636,-361.5 553.636,-361.5 553.636,-216.5 431.636,-216.5"/>
<text text-anchor="middle" x="492.636" y="-349.5" font-family="Helvetica,sans-Serif" font-size="10.00">o2::header::BaseHeader</text>
<polyline fill="none" stroke="black" points="431.636,-342.5 553.636,-342.5 "/>
<text text-anchor="middle" x="492.636" y="-330.5" font-family="Helvetica,sans-Serif" font-size="10.00"> </text>
<polyline fill="none" stroke="black" points="431.636,-323.5 553.636,-323.5 "/>
<text text-anchor="start" x="439.636" y="-311.5" font-family="Helvetica,sans-Serif" font-size="10.00">+ BaseHeader()</text>
<text text-anchor="start" x="439.636" y="-300.5" font-family="Helvetica,sans-Serif" font-size="10.00">+ BaseHeader()</text>
<text text-anchor="start" x="439.636" y="-289.5" font-family="Helvetica,sans-Serif" font-size="10.00">+ BaseHeader()</text>
<text text-anchor="start" x="439.636" y="-278.5" font-family="Helvetica,sans-Serif" font-size="10.00">+ size()</text>
<text text-anchor="start" x="439.636" y="-267.5" font-family="Helvetica,sans-Serif" font-size="10.00">+ data()</text>
<text text-anchor="start" x="439.636" y="-256.5" font-family="Helvetica,sans-Serif" font-size="10.00">+ next()</text>
<text text-anchor="start" x="439.636" y="-245.5" font-family="Helvetica,sans-Serif" font-size="10.00">+ next()</text>
<text text-anchor="start" x="439.636" y="-234.5" font-family="Helvetica,sans-Serif" font-size="10.00">+ get()</text>
<text text-anchor="start" x="439.636" y="-223.5" font-family="Helvetica,sans-Serif" font-size="10.00">+ get()</text>
</a>
</g>
</g>
<!-- Node2&#45;&gt;Node1 -->
<g id="edge1" class="edge"><title>Node2&#45;&gt;Node1</title>
<path fill="none" stroke="midnightblue" d="M562.112,-239.83C613.477,-204.217 682.746,-156.19 731.907,-122.105"/>
<polygon fill="none" stroke="midnightblue" points="559.93,-237.083 553.707,-245.657 563.919,-242.836 559.93,-237.083"/>
</g>
<!-- Node3 -->
<g id="node3" class="node"><title>Node3</title>
<g id="a_node3"><a xlink:href="../../d9/db3/structo2_1_1header_1_1Descriptor.html" target="_top" xlink:title="{o2::header::Descriptor\l\&lt; gSizeHeaderDescriptionString \&gt;\n||+ Descriptor()\l+ Descriptor()\l+ Descriptor()\l+ Descriptor()\l+ operator=()\l+ operator ItgType()\l+ runtimeInit()\l+ operator==()\l+ operator==()\l+ operator!=()\l+ operator!=()\l+ as()\l+ print()\l}">
<polygon fill="none" stroke="black" points="490.636,-487 490.636,-687 656.636,-687 656.636,-487 490.636,-487"/>
<text text-anchor="start" x="498.636" y="-675" font-family="Helvetica,sans-Serif" font-size="10.00">o2::header::Descriptor</text>
<text text-anchor="middle" x="573.636" y="-664" font-family="Helvetica,sans-Serif" font-size="10.00">&lt; gSizeHeaderDescriptionString &gt;</text>
<polyline fill="none" stroke="black" points="490.636,-657 656.636,-657 "/>
<text text-anchor="middle" x="573.636" y="-645" font-family="Helvetica,sans-Serif" font-size="10.00"> </text>
<polyline fill="none" stroke="black" points="490.636,-638 656.636,-638 "/>
<text text-anchor="start" x="498.636" y="-626" font-family="Helvetica,sans-Serif" font-size="10.00">+ Descriptor()</text>
<text text-anchor="start" x="498.636" y="-615" font-family="Helvetica,sans-Serif" font-size="10.00">+ Descriptor()</text>
<text text-anchor="start" x="498.636" y="-604" font-family="Helvetica,sans-Serif" font-size="10.00">+ Descriptor()</text>
<text text-anchor="start" x="498.636" y="-593" font-family="Helvetica,sans-Serif" font-size="10.00">+ Descriptor()</text>
<text text-anchor="start" x="498.636" y="-582" font-family="Helvetica,sans-Serif" font-size="10.00">+ operator=()</text>
<text text-anchor="start" x="498.636" y="-571" font-family="Helvetica,sans-Serif" font-size="10.00">+ operator ItgType()</text>
<text text-anchor="start" x="498.636" y="-560" font-family="Helvetica,sans-Serif" font-size="10.00">+ runtimeInit()</text>
<text text-anchor="start" x="498.636" y="-549" font-family="Helvetica,sans-Serif" font-size="10.00">+ operator==()</text>
<text text-anchor="start" x="498.636" y="-538" font-family="Helvetica,sans-Serif" font-size="10.00">+ operator==()</text>
<text text-anchor="start" x="498.636" y="-527" font-family="Helvetica,sans-Serif" font-size="10.00">+ operator!=()</text>
<text text-anchor="start" x="498.636" y="-516" font-family="Helvetica,sans-Serif" font-size="10.00">+ operator!=()</text>
<text text-anchor="start" x="498.636" y="-505" font-family="Helvetica,sans-Serif" font-size="10.00">+ as()</text>
<text text-anchor="start" x="498.636" y="-494" font-family="Helvetica,sans-Serif" font-size="10.00">+ print()</text>
</a>
</g>
</g>
<!-- Node3&#45;&gt;Node2 -->
<g id="edge2" class="edge"><title>Node3&#45;&gt;Node2</title>
<path fill="none" stroke="#404040" d="M534.517,-486.929C532.417,-480.56 530.435,-474.213 528.636,-468 519.846,-437.657 512.423,-403.799 506.642,-373.826"/>
<polygon fill="none" stroke="#404040" points="506.574,-373.469 501.53,-368.315 504.347,-361.677 509.391,-366.83 506.574,-373.469"/>
<text text-anchor="middle" x="557.136" y="-421.5" font-family="Helvetica,sans-Serif" font-size="10.00"> +description</text>
</g>
<!-- Node4 -->
<g id="node4" class="node"><title>Node4</title>
<polygon fill="none" stroke="#bfbfbf" points="434.636,-1019.5 434.636,-1076.5 472.636,-1076.5 472.636,-1019.5 434.636,-1019.5"/>
<text text-anchor="middle" x="453.636" y="-1064.5" font-family="Helvetica,sans-Serif" font-size="10.00">Type</text>
<polyline fill="none" stroke="#bfbfbf" points="434.636,-1057.5 472.636,-1057.5 "/>
<text text-anchor="middle" x="453.636" y="-1045.5" font-family="Helvetica,sans-Serif" font-size="10.00"> </text>
<polyline fill="none" stroke="#bfbfbf" points="434.636,-1038.5 472.636,-1038.5 "/>
<text text-anchor="middle" x="453.636" y="-1026.5" font-family="Helvetica,sans-Serif" font-size="10.00"> </text>
</g>
<!-- Node4&#45;&gt;Node3 -->
<g id="edge3" class="edge"><title>Node4&#45;&gt;Node3</title>
<path fill="none" stroke="#404040" d="M472.657,-1023.63C487.347,-1004.42 507.061,-975.921 518.636,-948 553.751,-863.292 498.658,-813.582 560.636,-746 579.453,-725.481 604.017,-750.336 620.636,-728 627.181,-719.203 630.227,-709.439 630.762,-699.275"/>
<polygon fill="none" stroke="#404040" points="630.758,-699.185 626.529,-693.345 630.294,-687.194 634.523,-693.035 630.758,-699.185"/>
<text text-anchor="middle" x="570.636" y="-844.5" font-family="Helvetica,sans-Serif" font-size="10.00"> +itg</text>
</g>
<!-- Node8 -->
<g id="node8" class="node"><title>Node8</title>
<g id="a_node8"><a xlink:href="../../d9/db3/structo2_1_1header_1_1Descriptor.html" target="_top" xlink:title="{o2::header::Descriptor\l\&lt; N, PrinterPolicy \&gt;\n||+ Descriptor()\l+ Descriptor()\l+ Descriptor()\l+ operator=()\l+ operator ItgType()\l+ Descriptor()\l+ runtimeInit()\l+ operator==()\l+ operator!=()\l+ operator==()\l+ operator!=()\l+ as()\l+ print()\l}">
<polygon fill="none" stroke="black" points="397.136,-747 397.136,-947 510.136,-947 510.136,-747 397.136,-747"/>
<text text-anchor="start" x="405.136" y="-935" font-family="Helvetica,sans-Serif" font-size="10.00">o2::header::Descriptor</text>
<text text-anchor="middle" x="453.636" y="-924" font-family="Helvetica,sans-Serif" font-size="10.00">&lt; N, PrinterPolicy &gt;</text>
<polyline fill="none" stroke="black" points="397.136,-917 510.136,-917 "/>
<text text-anchor="middle" x="453.636" y="-905" font-family="Helvetica,sans-Serif" font-size="10.00"> </text>
<polyline fill="none" stroke="black" points="397.136,-898 510.136,-898 "/>
<text text-anchor="start" x="405.136" y="-886" font-family="Helvetica,sans-Serif" font-size="10.00">+ Descriptor()</text>
<text text-anchor="start" x="405.136" y="-875" font-family="Helvetica,sans-Serif" font-size="10.00">+ Descriptor()</text>
<text text-anchor="start" x="405.136" y="-864" font-family="Helvetica,sans-Serif" font-size="10.00">+ Descriptor()</text>
<text text-anchor="start" x="405.136" y="-853" font-family="Helvetica,sans-Serif" font-size="10.00">+ operator=()</text>
<text text-anchor="start" x="405.136" y="-842" font-family="Helvetica,sans-Serif" font-size="10.00">+ operator ItgType()</text>
<text text-anchor="start" x="405.136" y="-831" font-family="Helvetica,sans-Serif" font-size="10.00">+ Descriptor()</text>
<text text-anchor="start" x="405.136" y="-820" font-family="Helvetica,sans-Serif" font-size="10.00">+ runtimeInit()</text>
<text text-anchor="start" x="405.136" y="-809" font-family="Helvetica,sans-Serif" font-size="10.00">+ operator==()</text>
<text text-anchor="start" x="405.136" y="-798" font-family="Helvetica,sans-Serif" font-size="10.00">+ operator!=()</text>
<text text-anchor="start" x="405.136" y="-787" font-family="Helvetica,sans-Serif" font-size="10.00">+ operator==()</text>
<text text-anchor="start" x="405.136" y="-776" font-family="Helvetica,sans-Serif" font-size="10.00">+ operator!=()</text>
<text text-anchor="start" x="405.136" y="-765" font-family="Helvetica,sans-Serif" font-size="10.00">+ as()</text>
<text text-anchor="start" x="405.136" y="-754" font-family="Helvetica,sans-Serif" font-size="10.00">+ print()</text>
</a>
</g>
</g>
<!-- Node4&#45;&gt;Node8 -->
<g id="edge8" class="edge"><title>Node4&#45;&gt;Node8</title>
<path fill="none" stroke="#404040" d="M453.636,-1019.33C453.636,-1003.22 453.636,-981.721 453.636,-959.415"/>
<polygon fill="none" stroke="#404040" points="453.636,-959.336 449.636,-953.336 453.636,-947.336 457.636,-953.336 453.636,-959.336"/>
<text text-anchor="middle" x="463.636" y="-980.5" font-family="Helvetica,sans-Serif" font-size="10.00"> +itg</text>
</g>
<!-- Node10 -->
<g id="node10" class="node"><title>Node10</title>
<g id="a_node10"><a xlink:href="../../d9/db3/structo2_1_1header_1_1Descriptor.html" target="_top" xlink:title="{o2::header::Descriptor\l\&lt; gSizeSerializationMethodString \&gt;\n||+ Descriptor()\l+ Descriptor()\l+ Descriptor()\l+ Descriptor()\l+ operator=()\l+ operator ItgType()\l+ runtimeInit()\l+ operator==()\l+ operator==()\l+ operator!=()\l+ operator!=()\l+ as()\l+ print()\l}">
<polygon fill="none" stroke="black" points="169.636,-487 169.636,-687 339.636,-687 339.636,-487 169.636,-487"/>
<text text-anchor="start" x="177.636" y="-675" font-family="Helvetica,sans-Serif" font-size="10.00">o2::header::Descriptor</text>
<text text-anchor="middle" x="254.636" y="-664" font-family="Helvetica,sans-Serif" font-size="10.00">&lt; gSizeSerializationMethodString &gt;</text>
<polyline fill="none" stroke="black" points="169.636,-657 339.636,-657 "/>
<text text-anchor="middle" x="254.636" y="-645" font-family="Helvetica,sans-Serif" font-size="10.00"> </text>
<polyline fill="none" stroke="black" points="169.636,-638 339.636,-638 "/>
<text text-anchor="start" x="177.636" y="-626" font-family="Helvetica,sans-Serif" font-size="10.00">+ Descriptor()</text>
<text text-anchor="start" x="177.636" y="-615" font-family="Helvetica,sans-Serif" font-size="10.00">+ Descriptor()</text>
<text text-anchor="start" x="177.636" y="-604" font-family="Helvetica,sans-Serif" font-size="10.00">+ Descriptor()</text>
<text text-anchor="start" x="177.636" y="-593" font-family="Helvetica,sans-Serif" font-size="10.00">+ Descriptor()</text>
<text text-anchor="start" x="177.636" y="-582" font-family="Helvetica,sans-Serif" font-size="10.00">+ operator=()</text>
<text text-anchor="start" x="177.636" y="-571" font-family="Helvetica,sans-Serif" font-size="10.00">+ operator ItgType()</text>
<text text-anchor="start" x="177.636" y="-560" font-family="Helvetica,sans-Serif" font-size="10.00">+ runtimeInit()</text>
<text text-anchor="start" x="177.636" y="-549" font-family="Helvetica,sans-Serif" font-size="10.00">+ operator==()</text>
<text text-anchor="start" x="177.636" y="-538" font-family="Helvetica,sans-Serif" font-size="10.00">+ operator==()</text>
<text text-anchor="start" x="177.636" y="-527" font-family="Helvetica,sans-Serif" font-size="10.00">+ operator!=()</text>
<text text-anchor="start" x="177.636" y="-516" font-family="Helvetica,sans-Serif" font-size="10.00">+ operator!=()</text>
<text text-anchor="start" x="177.636" y="-505" font-family="Helvetica,sans-Serif" font-size="10.00">+ as()</text>
<text text-anchor="start" x="177.636" y="-494" font-family="Helvetica,sans-Serif" font-size="10.00">+ print()</text>
</a>
</g>
</g>
<!-- Node4&#45;&gt;Node10 -->
<g id="edge17" class="edge"><title>Node4&#45;&gt;Node10</title>
<path fill="none" stroke="#404040" d="M434.624,-1042.4C398.019,-1032.4 318.471,-1004.88 285.636,-948 242.409,-873.121 236.742,-774.52 240.721,-699.444"/>
<polygon fill="none" stroke="#404040" points="240.741,-699.111 237.113,-692.879 241.47,-687.133 245.098,-693.365 240.741,-699.111"/>
<text text-anchor="middle" x="295.636" y="-844.5" font-family="Helvetica,sans-Serif" font-size="10.00"> +itg</text>
</g>
<!-- Node5 -->
<g id="node5" class="node"><title>Node5</title>
<polygon fill="none" stroke="#bfbfbf" points="48.1356,-1019 48.1356,-1077 77.1356,-1077 77.1356,-1019 48.1356,-1019"/>
<polyline fill="none" stroke="#bfbfbf" points="48.1356,-1057 77.1356,-1057 "/>
<text text-anchor="middle" x="62.6356" y="-1045" font-family="Helvetica,sans-Serif" font-size="10.00"> </text>
<polyline fill="none" stroke="#bfbfbf" points="48.1356,-1038 77.1356,-1038 "/>
<text text-anchor="middle" x="62.6356" y="-1026" font-family="Helvetica,sans-Serif" font-size="10.00"> </text>
</g>
<!-- Node5&#45;&gt;Node2 -->
<g id="edge12" class="edge"><title>Node5&#45;&gt;Node2</title>
<path fill="none" stroke="#404040" d="M53.0281,-1018.94C51.2677,-1012.77 49.664,-1006.22 48.6356,-1000 44.8601,-977.182 47.0801,-971.124 46.6356,-948 44.91,-858.239 33.5986,-834.826 46.6356,-746 59.9632,-655.193 109.096,-557.657 160.636,-486 200.654,-430.36 210.543,-409.014 272.636,-380 331.531,-352.48 361.753,-388.779 420.627,-364.361"/>
<polygon fill="none" stroke="#404040" points="420.673,-364.34 424.427,-358.183 431.554,-359.28 427.801,-365.437 420.673,-364.34"/>
<text text-anchor="middle" x="70.1356" y="-714.5" font-family="Helvetica,sans-Serif" font-size="10.00"> +@11</text>
</g>
<!-- Node5&#45;&gt;Node2 -->
<g id="edge14" class="edge"><title>Node5&#45;&gt;Node2</title>
<path fill="none" stroke="#404040" d="M49.1247,-1018.88C46.6286,-1012.77 44.291,-1006.26 42.6356,-1000 36.6862,-977.509 39.0743,-971.136 36.6356,-948 15.0906,-743.607 -42.439,-666.07 56.6356,-486 89.9865,-425.384 107.174,-407.554 170.636,-380 271.58,-336.171 320.418,-406.301 420.462,-364.421"/>
<polygon fill="none" stroke="#404040" points="420.671,-364.326 424.492,-358.211 431.607,-359.386 427.786,-365.501 420.671,-364.326"/>
<text text-anchor="middle" x="19.1356" y="-714.5" font-family="Helvetica,sans-Serif" font-size="10.00"> +@13</text>
</g>
<!-- Node5&#45;&gt;Node3 -->
<g id="edge4" class="edge"><title>Node5&#45;&gt;Node3</title>
<path fill="none" stroke="#404040" d="M77.4418,-1040.28C104.744,-1027.01 162.602,-994.64 188.636,-948 232.675,-869.101 162.403,-821.767 211.636,-746 230.74,-716.599 246.238,-716.678 279.636,-706 363.413,-679.215 400.393,-725.195 479.604,-690.533"/>
<polygon fill="none" stroke="#404040" points="479.688,-690.493 483.402,-684.312 490.536,-685.363 486.822,-691.544 479.688,-690.493"/>
<text text-anchor="middle" x="224.136" y="-844.5" font-family="Helvetica,sans-Serif" font-size="10.00"> +@9</text>
</g>
<!-- Node5&#45;&gt;Node8 -->
<g id="edge9" class="edge"><title>Node5&#45;&gt;Node8</title>
<path fill="none" stroke="#404040" d="M77.3041,-1042.6C139.192,-1024.03 376.085,-952.743 382.636,-948 384.355,-946.755 386.048,-945.456 387.714,-944.108"/>
<polygon fill="none" stroke="#404040" points="387.986,-943.866 389.817,-936.891 396.959,-935.899 395.128,-942.874 387.986,-943.866"/>
<text text-anchor="middle" x="339.136" y="-980.5" font-family="Helvetica,sans-Serif" font-size="10.00"> +@9</text>
</g>
<!-- Node5&#45;&gt;Node10 -->
<g id="edge18" class="edge"><title>Node5&#45;&gt;Node10</title>
<path fill="none" stroke="#404040" d="M57.8573,-1018.71C49.8736,-963.235 38.7102,-837.616 82.6356,-746 100.111,-709.552 130.057,-677.531 160.113,-652.017"/>
<polygon fill="none" stroke="#404040" points="160.184,-651.958 162.257,-645.052 169.43,-644.31 167.356,-651.216 160.184,-651.958"/>
<text text-anchor="middle" x="95.1356" y="-844.5" font-family="Helvetica,sans-Serif" font-size="10.00"> +@9</text>
</g>
<!-- Node6 -->
<g id="node6" class="node"><title>Node6</title>
<polygon fill="none" stroke="#bfbfbf" points="616.136,-1019.5 616.136,-1076.5 651.136,-1076.5 651.136,-1019.5 616.136,-1019.5"/>
<text text-anchor="middle" x="633.636" y="-1064.5" font-family="Helvetica,sans-Serif" font-size="10.00">char</text>
<polyline fill="none" stroke="#bfbfbf" points="616.136,-1057.5 651.136,-1057.5 "/>
<text text-anchor="middle" x="633.636" y="-1045.5" font-family="Helvetica,sans-Serif" font-size="10.00"> </text>
<polyline fill="none" stroke="#bfbfbf" points="616.136,-1038.5 651.136,-1038.5 "/>
<text text-anchor="middle" x="633.636" y="-1026.5" font-family="Helvetica,sans-Serif" font-size="10.00"> </text>
</g>
<!-- Node6&#45;&gt;Node2 -->
<g id="edge15" class="edge"><title>Node6&#45;&gt;Node2</title>
<path fill="none" stroke="#404040" d="M651.345,-1022.85C664.185,-1003.66 680.354,-975.562 686.636,-948 698.054,-897.898 697.104,-526.624 665.636,-486 650.659,-466.666 630.71,-485.51 613.636,-468 584.981,-438.615 607.26,-414.884 585.636,-380 579.087,-369.436 571.025,-359.234 562.411,-349.732"/>
<polygon fill="none" stroke="#404040" points="562.257,-349.569 555.228,-347.956 554.014,-340.848 561.042,-342.461 562.257,-349.569"/>
<text text-anchor="middle" x="723.136" y="-714.5" font-family="Helvetica,sans-Serif" font-size="10.00"> +magicString</text>
</g>
<!-- Node6&#45;&gt;Node3 -->
<g id="edge5" class="edge"><title>Node6&#45;&gt;Node3</title>
<path fill="none" stroke="#404040" d="M640.187,-1019.36C652.958,-960.436 677.285,-818.633 645.636,-706 644.938,-703.518 644.173,-701.037 643.346,-698.56"/>
<polygon fill="none" stroke="#404040" points="643.237,-698.269 637.397,-694.04 639.054,-687.022 644.895,-691.251 643.237,-698.269"/>
<text text-anchor="middle" x="672.136" y="-844.5" font-family="Helvetica,sans-Serif" font-size="10.00"> +str</text>
</g>
<!-- Node6&#45;&gt;Node8 -->
<g id="edge10" class="edge"><title>Node6&#45;&gt;Node8</title>
<path fill="none" stroke="#404040" d="M616.006,-1034.29C603.742,-1025.19 587.22,-1012.4 573.636,-1000 550.181,-978.593 544.764,-972.561 524.636,-948 522.315,-945.168 519.985,-942.266 517.659,-939.315"/>
<polygon fill="none" stroke="#404040" points="517.602,-939.241 510.766,-936.946 510.255,-929.753 517.091,-932.048 517.602,-939.241"/>
<text text-anchor="middle" x="584.136" y="-980.5" font-family="Helvetica,sans-Serif" font-size="10.00"> +str</text>
</g>
<!-- Node6&#45;&gt;Node10 -->
<g id="edge19" class="edge"><title>Node6&#45;&gt;Node10</title>
<path fill="none" stroke="#404040" d="M632.624,-1019.09C629.603,-952.04 618.368,-784.615 580.636,-746 552.126,-716.824 529.807,-739.386 490.636,-728 464.56,-720.421 459.629,-713.856 433.636,-706 398.334,-695.331 384.873,-705.909 352.636,-688 351.819,-687.546 351.004,-687.084 350.193,-686.612"/>
<polygon fill="none" stroke="#404040" points="349.934,-686.449 342.725,-686.623 339.792,-680.035 347.001,-679.861 349.934,-686.449"/>
<text text-anchor="middle" x="639.136" y="-844.5" font-family="Helvetica,sans-Serif" font-size="10.00"> +str</text>
</g>
<!-- Node7 -->
<g id="node7" class="node"><title>Node7</title>
<polygon fill="none" stroke="#bfbfbf" points="313.136,-1019.5 313.136,-1076.5 342.136,-1076.5 342.136,-1019.5 313.136,-1019.5"/>
<text text-anchor="middle" x="327.636" y="-1064.5" font-family="Helvetica,sans-Serif" font-size="10.00">int</text>
<polyline fill="none" stroke="#bfbfbf" points="313.136,-1057.5 342.136,-1057.5 "/>
<text text-anchor="middle" x="327.636" y="-1045.5" font-family="Helvetica,sans-Serif" font-size="10.00"> </text>
<polyline fill="none" stroke="#bfbfbf" points="313.136,-1038.5 342.136,-1038.5 "/>
<text text-anchor="middle" x="327.636" y="-1026.5" font-family="Helvetica,sans-Serif" font-size="10.00"> </text>
</g>
<!-- Node7&#45;&gt;Node3 -->
<g id="edge6" class="edge"><title>Node7&#45;&gt;Node3</title>
<path fill="none" stroke="#404040" d="M328.132,-1019.34C328.9,-954.374 328.361,-793.937 305.636,-746 300.653,-735.489 291.232,-738.686 286.636,-728 282.772,-719.018 280.04,-713.219 286.636,-706 314.304,-675.716 426.897,-703.176 478.968,-689.605"/>
<polygon fill="none" stroke="#404040" points="479.269,-689.494 483.521,-683.67 490.533,-685.356 486.28,-691.18 479.269,-689.494"/>
<text text-anchor="middle" x="354.136" y="-855.5" font-family="Helvetica,sans-Serif" font-size="10.00"> +arraySize</text>
<text text-anchor="middle" x="354.136" y="-844.5" font-family="Helvetica,sans-Serif" font-size="10.00">+size</text>
<text text-anchor="middle" x="354.136" y="-833.5" font-family="Helvetica,sans-Serif" font-size="10.00">+bitcount</text>
</g>
<!-- Node7&#45;&gt;Node8 -->
<g id="edge11" class="edge"><title>Node7&#45;&gt;Node8</title>
<path fill="none" stroke="#404040" d="M342.336,-1023.78C354.42,-1004.7 372.428,-976.257 390.456,-947.784"/>
<polygon fill="none" stroke="#404040" points="390.668,-947.448 390.498,-940.239 397.088,-937.31 397.257,-944.519 390.668,-947.448"/>
<text text-anchor="middle" x="402.136" y="-991.5" font-family="Helvetica,sans-Serif" font-size="10.00"> +arraySize</text>
<text text-anchor="middle" x="402.136" y="-980.5" font-family="Helvetica,sans-Serif" font-size="10.00">+size</text>
<text text-anchor="middle" x="402.136" y="-969.5" font-family="Helvetica,sans-Serif" font-size="10.00">+bitcount</text>
</g>
<!-- Node7&#45;&gt;Node10 -->
<g id="edge20" class="edge"><title>Node7&#45;&gt;Node10</title>
<path fill="none" stroke="#404040" d="M312.883,-1044.86C274.865,-1038.45 173.988,-1015.45 137.636,-948 95.0413,-868.97 109.505,-831.257 137.636,-746 143.614,-727.881 152.56,-710.142 162.892,-693.48"/>
<polygon fill="none" stroke="#404040" points="162.985,-693.335 162.877,-686.125 169.491,-683.251 169.599,-690.462 162.985,-693.335"/>
<text text-anchor="middle" x="163.136" y="-855.5" font-family="Helvetica,sans-Serif" font-size="10.00"> +arraySize</text>
<text text-anchor="middle" x="163.136" y="-844.5" font-family="Helvetica,sans-Serif" font-size="10.00">+size</text>
<text text-anchor="middle" x="163.136" y="-833.5" font-family="Helvetica,sans-Serif" font-size="10.00">+bitcount</text>
</g>
<!-- Node8&#45;&gt;Node1 -->
<g id="edge28" class="edge"><title>Node8&#45;&gt;Node1</title>
<path fill="none" stroke="#404040" d="M510.175,-749.217C511.631,-748.096 513.117,-747.022 514.636,-746 555.727,-718.33 576.352,-739.081 624.636,-728 658.078,-720.325 665.511,-714.947 698.636,-706 731.313,-697.174 751.286,-714.265 772.636,-688 804.51,-648.788 799.903,-328.38 795.548,-169.145"/>
<polygon fill="none" stroke="#404040" points="795.545,-169.031 791.378,-163.145 795.208,-157.035 799.375,-162.921 795.545,-169.031"/>
<text text-anchor="middle" x="847.136" y="-427" font-family="Helvetica,sans-Serif" font-size="10.00"> +sHeaderType</text>
<text text-anchor="middle" x="847.136" y="-416" font-family="Helvetica,sans-Serif" font-size="10.00">+sSerializationMethod</text>
</g>
<!-- Node8&#45;&gt;Node2 -->
<g id="edge22" class="edge"><title>Node8&#45;&gt;Node2</title>
<path fill="none" stroke="#404040" d="M449.64,-746.778C445.512,-731.999 439.172,-717.792 429.636,-706 416.09,-689.251 396.712,-705.837 384.636,-688 334.304,-613.658 362.266,-572.946 384.636,-486 394.9,-446.104 415.189,-405.633 435.437,-371.908"/>
<polygon fill="none" stroke="#404040" points="435.442,-371.9 435.164,-364.694 441.709,-361.666 441.987,-368.872 435.442,-371.9"/>
<text text-anchor="middle" x="433.136" y="-590" font-family="Helvetica,sans-Serif" font-size="10.00"> +sHeaderType</text>
<text text-anchor="middle" x="433.136" y="-579" font-family="Helvetica,sans-Serif" font-size="10.00">+sSerializationMethod</text>
</g>
<!-- Node8&#45;&gt;Node3 -->
<g id="edge7" class="edge"><title>Node8&#45;&gt;Node3</title>
<path fill="none" stroke="orange" d="M489.197,-737.282C493.434,-726.591 497.936,-716.005 502.636,-706 505.533,-699.833 508.665,-693.576 511.944,-687.326"/>
<polygon fill="orange" stroke="orange" points="485.9,-736.103 485.542,-746.692 492.425,-738.637 485.9,-736.103"/>
<text text-anchor="start" x="502.636" y="-720" font-family="Helvetica,sans-Serif" font-size="10.00"> &lt; gSizeHeaderDescription</text>
<text text-anchor="middle" x="561.636" y="-709" font-family="Helvetica,sans-Serif" font-size="10.00">String &gt;</text>
</g>
<!-- Node8&#45;&gt;Node10 -->
<g id="edge21" class="edge"><title>Node8&#45;&gt;Node10</title>
<path fill="none" stroke="orange" d="M388.991,-750.629C386.917,-749.005 384.799,-747.458 382.636,-746 353.849,-726.602 332.644,-750.989 306.636,-728 294.105,-716.924 284.588,-702.542 277.361,-687.224"/>
<polygon fill="orange" stroke="orange" points="386.882,-753.431 396.763,-757.255 391.423,-748.104 386.882,-753.431"/>
<text text-anchor="start" x="306.636" y="-720" font-family="Helvetica,sans-Serif" font-size="10.00"> &lt; gSizeSerializationMethod</text>
<text text-anchor="middle" x="368.136" y="-709" font-family="Helvetica,sans-Serif" font-size="10.00">String &gt;</text>
</g>
<!-- Node9 -->
<g id="node9" class="node"><title>Node9</title>
<polygon fill="none" stroke="#bfbfbf" points="713.136,-558.5 713.136,-615.5 764.136,-615.5 764.136,-558.5 713.136,-558.5"/>
<text text-anchor="middle" x="738.636" y="-603.5" font-family="Helvetica,sans-Serif" font-size="10.00">uint32_t</text>
<polyline fill="none" stroke="#bfbfbf" points="713.136,-596.5 764.136,-596.5 "/>
<text text-anchor="middle" x="738.636" y="-584.5" font-family="Helvetica,sans-Serif" font-size="10.00"> </text>
<polyline fill="none" stroke="#bfbfbf" points="713.136,-577.5 764.136,-577.5 "/>
<text text-anchor="middle" x="738.636" y="-565.5" font-family="Helvetica,sans-Serif" font-size="10.00"> </text>
</g>
<!-- Node9&#45;&gt;Node1 -->
<g id="edge23" class="edge"><title>Node9&#45;&gt;Node1</title>
<path fill="none" stroke="#404040" d="M733.844,-558.203C724.048,-496.027 704.814,-341.336 731.636,-216 735.034,-200.117 740.433,-183.848 746.647,-168.336"/>
<polygon fill="none" stroke="#404040" points="746.677,-168.264 745.297,-161.187 751.299,-157.19 752.68,-164.268 746.677,-168.264"/>
<text text-anchor="middle" x="755.136" y="-292" font-family="Helvetica,sans-Serif" font-size="10.00"> +reserved</text>
<text text-anchor="middle" x="755.136" y="-281" font-family="Helvetica,sans-Serif" font-size="10.00">+sVersion</text>
</g>
<!-- Node9&#45;&gt;Node2 -->
<g id="edge13" class="edge"><title>Node9&#45;&gt;Node2</title>
<path fill="none" stroke="#404040" d="M734.489,-558.386C729.673,-535.826 719.532,-504.709 698.636,-486 676.303,-466.005 654.678,-489.35 633.636,-468 605.259,-439.209 633.04,-413.648 610.636,-380 598.407,-361.634 581.154,-345.484 563.607,-332.122"/>
<polygon fill="none" stroke="#404040" points="563.544,-332.076 556.339,-331.761 553.859,-324.99 561.063,-325.305 563.544,-332.076"/>
<text text-anchor="middle" x="673.636" y="-460" font-family="Helvetica,sans-Serif" font-size="10.00"> +headerVersion</text>
<text text-anchor="middle" x="673.636" y="-449" font-family="Helvetica,sans-Serif" font-size="10.00">+headerSize</text>
<text text-anchor="middle" x="673.636" y="-438" font-family="Helvetica,sans-Serif" font-size="10.00">+sMagicString</text>
<text text-anchor="middle" x="673.636" y="-427" font-family="Helvetica,sans-Serif" font-size="10.00">+flagsNextHeader</text>
<text text-anchor="middle" x="673.636" y="-416" font-family="Helvetica,sans-Serif" font-size="10.00">+magicStringInt</text>
<text text-anchor="middle" x="673.636" y="-405" font-family="Helvetica,sans-Serif" font-size="10.00">+flagsUnused</text>
<text text-anchor="middle" x="673.636" y="-394" font-family="Helvetica,sans-Serif" font-size="10.00">+flags</text>
<text text-anchor="middle" x="673.636" y="-383" font-family="Helvetica,sans-Serif" font-size="10.00">+sVersion</text>
</g>
<!-- Node10&#45;&gt;Node1 -->
<g id="edge27" class="edge"><title>Node10&#45;&gt;Node1</title>
<path fill="none" stroke="#404040" d="M236.536,-486.642C227.564,-404.324 229.826,-289.337 293.636,-216 349.392,-151.918 595.293,-108.272 719.827,-89.8578"/>
<polygon fill="none" stroke="#404040" points="719.978,-89.8358 725.338,-85.011 731.853,-88.1023 726.493,-92.9271 719.978,-89.8358"/>
<text text-anchor="middle" x="358.136" y="-286.5" font-family="Helvetica,sans-Serif" font-size="10.00"> +payloadSerializationMethod</text>
</g>
<!-- Node10&#45;&gt;Node2 -->
<g id="edge16" class="edge"><title>Node10&#45;&gt;Node2</title>
<path fill="none" stroke="#404040" d="M271.79,-486.83C281.11,-438.1 292.383,-388.071 300.636,-380 329.8,-351.479 353.16,-378.111 390.636,-362 400.981,-357.552 411.329,-351.944 421.251,-345.831"/>
<polygon fill="none" stroke="#404040" points="421.321,-345.786 424.209,-339.178 431.419,-339.303 428.531,-345.911 421.321,-345.786"/>
<text text-anchor="middle" x="331.136" y="-421.5" font-family="Helvetica,sans-Serif" font-size="10.00"> +serialization</text>
</g>
<!-- Node11 -->
<g id="node11" class="node"><title>Node11</title>
<polygon fill="none" stroke="#bfbfbf" points="821.136,-260.5 821.136,-317.5 872.136,-317.5 872.136,-260.5 821.136,-260.5"/>
<text text-anchor="middle" x="846.636" y="-305.5" font-family="Helvetica,sans-Serif" font-size="10.00">uint64_t</text>
<polyline fill="none" stroke="#bfbfbf" points="821.136,-298.5 872.136,-298.5 "/>
<text text-anchor="middle" x="846.636" y="-286.5" font-family="Helvetica,sans-Serif" font-size="10.00"> </text>
<polyline fill="none" stroke="#bfbfbf" points="821.136,-279.5 872.136,-279.5 "/>
<text text-anchor="middle" x="846.636" y="-267.5" font-family="Helvetica,sans-Serif" font-size="10.00"> </text>
</g>
<!-- Node11&#45;&gt;Node1 -->
<g id="edge24" class="edge"><title>Node11&#45;&gt;Node1</title>
<path fill="none" stroke="#404040" d="M839.465,-260.379C833.383,-236.955 824.311,-202.01 815.767,-169.097"/>
<polygon fill="none" stroke="#404040" points="815.665,-168.704 810.285,-163.902 812.649,-157.089 818.028,-161.891 815.665,-168.704"/>
<text text-anchor="middle" x="863.136" y="-190" font-family="Helvetica,sans-Serif" font-size="10.00"> +payloadSize</text>
<text text-anchor="middle" x="863.136" y="-179" font-family="Helvetica,sans-Serif" font-size="10.00">+subSpecification</text>
</g>
<!-- Node12 -->
<g id="node12" class="node"><title>Node12</title>
<polygon fill="none" stroke="#bfbfbf" points="890.636,-255 890.636,-323 1032.64,-323 1032.64,-255 890.636,-255"/>
<text text-anchor="start" x="898.636" y="-311" font-family="Helvetica,sans-Serif" font-size="10.00">Descriptor&lt; gSizeDataOrigin</text>
<text text-anchor="middle" x="961.636" y="-300" font-family="Helvetica,sans-Serif" font-size="10.00">String, printDataOrigin &gt;</text>
<polyline fill="none" stroke="#bfbfbf" points="890.636,-293 1032.64,-293 "/>
<text text-anchor="middle" x="961.636" y="-281" font-family="Helvetica,sans-Serif" font-size="10.00"> </text>
<polyline fill="none" stroke="#bfbfbf" points="890.636,-274 1032.64,-274 "/>
<text text-anchor="middle" x="961.636" y="-262" font-family="Helvetica,sans-Serif" font-size="10.00"> </text>
</g>
<!-- Node12&#45;&gt;Node1 -->
<g id="edge25" class="edge"><title>Node12&#45;&gt;Node1</title>
<path fill="none" stroke="#404040" d="M949.499,-254.567C940.016,-231.146 925.318,-199.89 906.636,-176 893.977,-159.814 878.202,-144.432 862.462,-130.913"/>
<polygon fill="none" stroke="#404040" points="862.423,-130.88 855.255,-130.095 853.223,-123.176 860.391,-123.961 862.423,-130.88"/>
<text text-anchor="middle" x="947.636" y="-184.5" font-family="Helvetica,sans-Serif" font-size="10.00"> +dataOrigin</text>
</g>
<!-- Node13 -->
<g id="node13" class="node"><title>Node13</title>
<polygon fill="none" stroke="#bfbfbf" points="1050.64,-255 1050.64,-323 1216.64,-323 1216.64,-255 1050.64,-255"/>
<text text-anchor="start" x="1058.64" y="-311" font-family="Helvetica,sans-Serif" font-size="10.00">Descriptor&lt; gSizeDataDescription</text>
<text text-anchor="middle" x="1133.64" y="-300" font-family="Helvetica,sans-Serif" font-size="10.00">String, printDataDescription &gt;</text>
<polyline fill="none" stroke="#bfbfbf" points="1050.64,-293 1216.64,-293 "/>
<text text-anchor="middle" x="1133.64" y="-281" font-family="Helvetica,sans-Serif" font-size="10.00"> </text>
<polyline fill="none" stroke="#bfbfbf" points="1050.64,-274 1216.64,-274 "/>
<text text-anchor="middle" x="1133.64" y="-262" font-family="Helvetica,sans-Serif" font-size="10.00"> </text>
</g>
<!-- Node13&#45;&gt;Node1 -->
<g id="edge26" class="edge"><title>Node13&#45;&gt;Node1</title>
<path fill="none" stroke="#404040" d="M1093.07,-254.863C1077.28,-242.332 1058.87,-228.168 1041.64,-216 985.033,-176.028 915.448,-138.918 864.241,-113.596"/>
<polygon fill="none" stroke="#404040" points="864.05,-113.502 856.902,-114.45 853.278,-108.215 860.426,-107.268 864.05,-113.502"/>
<text text-anchor="middle" x="1048.64" y="-184.5" font-family="Helvetica,sans-Serif" font-size="10.00"> +dataDescription</text>
</g>
</g>
</svg>
        <g id="navigator" transform="translate(0 0)" fill="#404254">
                <rect fill="#f2f5e9" fill-opacity="0.5" stroke="#606060" stroke-width=".5" x="0" y="0" width="60" height="60"/>
                <use id="zoomplus" xlink:href="#zoomPlus" x="17" y="9" onmousedown="handleZoom(evt,'in')"/>
                <use id="zoomminus" xlink:href="#zoomMin" x="42" y="9" onmousedown="handleZoom(evt,'out')"/>
                <use id="reset" xlink:href="#resetDef" x="30" y="36" onmousedown="handleReset()"/>
                <g id="arrowUp" xlink:href="#dirArrow" transform="translate(30 24)" onmousedown="handlePan(0,-1)">
                  <use xlink:href="#rim" fill="#404040">
                        <set attributeName="fill" to="#808080" begin="arrowUp.mouseover" end="arrowUp.mouseout"/>
                  </use>
                  <path fill="none" stroke="white" stroke-width="1.5" d="M0,-3.0v7 M-2.5,-0.5L0,-3.0L2.5,-0.5"/>
                </g>
                <g id="arrowRight" xlink:href="#dirArrow" transform="rotate(90) translate(36 -43)" onmousedown="handlePan(1,0)">
                  <use xlink:href="#rim" fill="#404040">
                        <set attributeName="fill" to="#808080" begin="arrowRight.mouseover" end="arrowRight.mouseout"/>
                  </use>
                  <path fill="none" stroke="white" stroke-width="1.5" d="M0,-3.0v7 M-2.5,-0.5L0,-3.0L2.5,-0.5"/>
                </g>
                <g id="arrowDown" xlink:href="#dirArrow" transform="rotate(180) translate(-30 -48)" onmousedown="handlePan(0,1)">
                  <use xlink:href="#rim" fill="#404040">
                        <set attributeName="fill" to="#808080" begin="arrowDown.mouseover" end="arrowDown.mouseout"/>
                  </use>
                  <path fill="none" stroke="white" stroke-width="1.5" d="M0,-3.0v7 M-2.5,-0.5L0,-3.0L2.5,-0.5"/>
                </g>
                <g id="arrowLeft" xlink:href="#dirArrow" transform="rotate(270) translate(-36 17)" onmousedown="handlePan(-1,0)">
                  <use xlink:href="#rim" fill="#404040">
                        <set attributeName="fill" to="#808080" begin="arrowLeft.mouseover" end="arrowLeft.mouseout"/>
                  </use>
                  <path fill="none" stroke="white" stroke-width="1.5" d="M0,-3.0v7 M-2.5,-0.5L0,-3.0L2.5,-0.5"/>
                </g>
        </g>
        <svg viewBox="0 0 15 15" width="100%" height="30px" preserveAspectRatio="xMaxYMin meet">
         <g id="arrow_out" transform="scale(0.3 0.3)">
          <a xlink:href="structo2_1_1header_1_1DataHeader__coll__graph_org.svg" target="_base">
           <rect id="button" ry="5" rx="5" y="6" x="6" height="38" width="38"
                fill="#f2f5e9" fill-opacity="0.5" stroke="#606060" stroke-width="1.0"/>
           <path id="arrow"
             d="M 11.500037,31.436501 C 11.940474,20.09759 22.043105,11.32322 32.158766,21.979434 L 37.068811,17.246167 C 37.068811,17.246167 37.088388,32 37.088388,32 L 22.160133,31.978069 C 22.160133,31.978069 26.997745,27.140456 26.997745,27.140456 C 18.528582,18.264221 13.291696,25.230495 11.500037,31.436501 z"
             style="fill:#404040;"/>
          </a>
         </g>
        </svg>
</svg>
