<?xml version="1.0" encoding="UTF-8" standalone="no"?>
<!DOCTYPE svg PUBLIC "-//W3C//DTD SVG 1.1//EN"
 "http://www.w3.org/Graphics/SVG/1.1/DTD/svg11.dtd">
<!-- Generated by graphviz version 2.36.0 (20140111.2315)
 -->
<!-- Title: /home/travis/build/AliceO2Group/AliceO2/Detectors/ITSMFT/ITS/base/include/ITSBase/GeometryTGeo.h Pages: 1 -->
<svg width="3458pt" height="396pt"
 viewBox="0.00 0.00 3458.00 396.00" xmlns="http://www.w3.org/2000/svg" xmlns:xlink="http://www.w3.org/1999/xlink">
<g id="graph0" class="graph" transform="scale(1 1) rotate(0) translate(4 392)">
<title>/home/travis/build/AliceO2Group/AliceO2/Detectors/ITSMFT/ITS/base/include/ITSBase/GeometryTGeo.h</title>
<!-- Node1 -->
<g id="node1" class="node"><title>Node1</title>
<polygon fill="#bfbfbf" stroke="black" points="1683.5,-324.5 1683.5,-387.5 1844.5,-387.5 1844.5,-324.5 1683.5,-324.5"/>
<text text-anchor="start" x="1691.5" y="-375.5" font-family="Helvetica,sans-Serif" font-size="10.00">/home/travis/build</text>
<text text-anchor="start" x="1691.5" y="-364.5" font-family="Helvetica,sans-Serif" font-size="10.00">/AliceO2Group/AliceO2</text>
<text text-anchor="start" x="1691.5" y="-353.5" font-family="Helvetica,sans-Serif" font-size="10.00">/Detectors/ITSMFT/ITS</text>
<text text-anchor="start" x="1691.5" y="-342.5" font-family="Helvetica,sans-Serif" font-size="10.00">/base/include/ITSBase/Geometry</text>
<text text-anchor="middle" x="1764" y="-331.5" font-family="Helvetica,sans-Serif" font-size="10.00">TGeo.h</text>
</g>
<!-- Node2 -->
<g id="node2" class="node"><title>Node2</title>
<g id="a_node2"><a xlink:href="../../dc/d59/MatchTPCITS_8cxx.html" target="_top" xlink:title="/home/travis/build\l/AliceO2Group/AliceO2\l/Detectors/GlobalTracking\l/src/MatchTPCITS.cxx">
<polygon fill="none" stroke="black" points="-0.5,-224 -0.5,-276 130.5,-276 130.5,-224 -0.5,-224"/>
<text text-anchor="start" x="7.5" y="-264" font-family="Helvetica,sans-Serif" font-size="10.00">/home/travis/build</text>
<text text-anchor="start" x="7.5" y="-253" font-family="Helvetica,sans-Serif" font-size="10.00">/AliceO2Group/AliceO2</text>
<text text-anchor="start" x="7.5" y="-242" font-family="Helvetica,sans-Serif" font-size="10.00">/Detectors/GlobalTracking</text>
<text text-anchor="middle" x="65" y="-231" font-family="Helvetica,sans-Serif" font-size="10.00">/src/MatchTPCITS.cxx</text>
</a>
</g>
</g>
<!-- Node1&#45;&gt;Node2 -->
<g id="edge1" class="edge"><title>Node1&#45;&gt;Node2</title>
<path fill="none" stroke="midnightblue" d="M1673.09,-353.45C1352.86,-347.686 288.39,-325.853 140,-288 129.308,-285.273 118.354,-280.903 108.236,-276.108"/>
<polygon fill="midnightblue" stroke="midnightblue" points="1673.2,-356.952 1683.26,-353.632 1673.33,-349.953 1673.2,-356.952"/>
</g>
<!-- Node3 -->
<g id="node3" class="node"><title>Node3</title>
<g id="a_node3"><a xlink:href="../../db/df2/ITS_2base_2src_2GeometryTGeo_8cxx.html" target="_top" xlink:title="/home/travis/build\l/AliceO2Group/AliceO2\l/Detectors/ITSMFT/ITS\l/base/src/GeometryTGeo.cxx">
<polygon fill="none" stroke="black" points="149,-224 149,-276 295,-276 295,-224 149,-224"/>
<text text-anchor="start" x="157" y="-264" font-family="Helvetica,sans-Serif" font-size="10.00">/home/travis/build</text>
<text text-anchor="start" x="157" y="-253" font-family="Helvetica,sans-Serif" font-size="10.00">/AliceO2Group/AliceO2</text>
<text text-anchor="start" x="157" y="-242" font-family="Helvetica,sans-Serif" font-size="10.00">/Detectors/ITSMFT/ITS</text>
<text text-anchor="middle" x="222" y="-231" font-family="Helvetica,sans-Serif" font-size="10.00">/base/src/GeometryTGeo.cxx</text>
</a>
</g>
</g>
<!-- Node1&#45;&gt;Node3 -->
<g id="edge2" class="edge"><title>Node1&#45;&gt;Node3</title>
<path fill="none" stroke="midnightblue" d="M1673.12,-355.289C1396.18,-355.469 565.738,-350.628 304,-288 292.456,-285.238 280.539,-280.855 269.488,-276.056"/>
<polygon fill="midnightblue" stroke="midnightblue" points="1673.14,-358.789 1683.13,-355.28 1673.13,-351.789 1673.14,-358.789"/>
</g>
<!-- Node4 -->
<g id="node4" class="node"><title>Node4</title>
<g id="a_node4"><a xlink:href="../../d5/de8/CheckClusters_8C.html" target="_top" xlink:title="/home/travis/build\l/AliceO2Group/AliceO2\l/Detectors/ITSMFT/ITS\l/macros/test/CheckClusters.C">
<polygon fill="none" stroke="black" points="313,-224 313,-276 463,-276 463,-224 313,-224"/>
<text text-anchor="start" x="321" y="-264" font-family="Helvetica,sans-Serif" font-size="10.00">/home/travis/build</text>
<text text-anchor="start" x="321" y="-253" font-family="Helvetica,sans-Serif" font-size="10.00">/AliceO2Group/AliceO2</text>
<text text-anchor="start" x="321" y="-242" font-family="Helvetica,sans-Serif" font-size="10.00">/Detectors/ITSMFT/ITS</text>
<text text-anchor="middle" x="388" y="-231" font-family="Helvetica,sans-Serif" font-size="10.00">/macros/test/CheckClusters.C</text>
</a>
</g>
</g>
<!-- Node1&#45;&gt;Node4 -->
<g id="edge3" class="edge"><title>Node1&#45;&gt;Node4</title>
<path fill="none" stroke="midnightblue" d="M1672.89,-354.492C1418,-352.401 701.403,-341.769 473,-288 461.25,-285.234 449.09,-280.913 437.767,-276.185"/>
<polygon fill="midnightblue" stroke="midnightblue" points="1673.19,-357.994 1683.22,-354.574 1673.25,-350.994 1673.19,-357.994"/>
</g>
<!-- Node5 -->
<g id="node5" class="node"><title>Node5</title>
<g id="a_node5"><a xlink:href="../../de/d5b/CheckClusterShape_8C.html" target="_top" xlink:title="/home/travis/build\l/AliceO2Group/AliceO2\l/Detectors/ITSMFT/ITS\l/macros/test/CheckClusterShape.C">
<polygon fill="none" stroke="black" points="481.5,-224 481.5,-276 654.5,-276 654.5,-224 481.5,-224"/>
<text text-anchor="start" x="489.5" y="-264" font-family="Helvetica,sans-Serif" font-size="10.00">/home/travis/build</text>
<text text-anchor="start" x="489.5" y="-253" font-family="Helvetica,sans-Serif" font-size="10.00">/AliceO2Group/AliceO2</text>
<text text-anchor="start" x="489.5" y="-242" font-family="Helvetica,sans-Serif" font-size="10.00">/Detectors/ITSMFT/ITS</text>
<text text-anchor="middle" x="568" y="-231" font-family="Helvetica,sans-Serif" font-size="10.00">/macros/test/CheckClusterShape.C</text>
</a>
</g>
</g>
<!-- Node1&#45;&gt;Node5 -->
<g id="edge4" class="edge"><title>Node1&#45;&gt;Node5</title>
<path fill="none" stroke="midnightblue" d="M1673.15,-353.047C1445.58,-347.58 855.598,-329.71 664,-288 650.91,-285.15 637.251,-280.795 624.478,-276.06"/>
<polygon fill="midnightblue" stroke="midnightblue" points="1673.31,-356.552 1683.39,-353.29 1673.47,-349.553 1673.31,-356.552"/>
</g>
<!-- Node6 -->
<g id="node6" class="node"><title>Node6</title>
<g id="a_node6"><a xlink:href="../../d9/dd0/CheckDigits_8C.html" target="_top" xlink:title="Simple macro to check ITSU clusters. ">
<polygon fill="none" stroke="black" points="672.5,-224 672.5,-276 811.5,-276 811.5,-224 672.5,-224"/>
<text text-anchor="start" x="680.5" y="-264" font-family="Helvetica,sans-Serif" font-size="10.00">/home/travis/build</text>
<text text-anchor="start" x="680.5" y="-253" font-family="Helvetica,sans-Serif" font-size="10.00">/AliceO2Group/AliceO2</text>
<text text-anchor="start" x="680.5" y="-242" font-family="Helvetica,sans-Serif" font-size="10.00">/Detectors/ITSMFT/ITS</text>
<text text-anchor="middle" x="742" y="-231" font-family="Helvetica,sans-Serif" font-size="10.00">/macros/test/CheckDigits.C</text>
</a>
</g>
</g>
<!-- Node1&#45;&gt;Node6 -->
<g id="edge5" class="edge"><title>Node1&#45;&gt;Node6</title>
<path fill="none" stroke="midnightblue" d="M1673.43,-352.779C1469.64,-347.099 980.427,-329.469 821,-288 810.007,-285.141 798.675,-280.781 788.145,-276.045"/>
<polygon fill="midnightblue" stroke="midnightblue" points="1673.41,-356.279 1683.5,-353.056 1673.6,-349.282 1673.41,-356.279"/>
</g>
<!-- Node7 -->
<g id="node7" class="node"><title>Node7</title>
<g id="a_node7"><a xlink:href="../../d9/db4/CheckTopologies_8C.html" target="_top" xlink:title="/home/travis/build\l/AliceO2Group/AliceO2\l/Detectors/ITSMFT/ITS\l/macros/test/CheckTopologies.C">
<polygon fill="none" stroke="black" points="829.5,-224 829.5,-276 990.5,-276 990.5,-224 829.5,-224"/>
<text text-anchor="start" x="837.5" y="-264" font-family="Helvetica,sans-Serif" font-size="10.00">/home/travis/build</text>
<text text-anchor="start" x="837.5" y="-253" font-family="Helvetica,sans-Serif" font-size="10.00">/AliceO2Group/AliceO2</text>
<text text-anchor="start" x="837.5" y="-242" font-family="Helvetica,sans-Serif" font-size="10.00">/Detectors/ITSMFT/ITS</text>
<text text-anchor="middle" x="910" y="-231" font-family="Helvetica,sans-Serif" font-size="10.00">/macros/test/CheckTopologies.C</text>
</a>
</g>
</g>
<!-- Node1&#45;&gt;Node7 -->
<g id="edge6" class="edge"><title>Node1&#45;&gt;Node7</title>
<path fill="none" stroke="midnightblue" d="M1673.09,-355.831C1528.46,-355.2 1237.99,-345.928 1000,-288 987.853,-285.043 975.209,-280.705 963.369,-276.029"/>
<polygon fill="midnightblue" stroke="midnightblue" points="1673.24,-359.331 1683.25,-355.862 1673.26,-352.331 1673.24,-359.331"/>
</g>
<!-- Node8 -->
<g id="node8" class="node"><title>Node8</title>
<g id="a_node8"><a xlink:href="../../d5/df6/DisplayTrack_8C.html" target="_top" xlink:title="Simple macro to display ITSU tracks. ">
<polygon fill="none" stroke="black" points="1008.5,-224 1008.5,-276 1151.5,-276 1151.5,-224 1008.5,-224"/>
<text text-anchor="start" x="1016.5" y="-264" font-family="Helvetica,sans-Serif" font-size="10.00">/home/travis/build</text>
<text text-anchor="start" x="1016.5" y="-253" font-family="Helvetica,sans-Serif" font-size="10.00">/AliceO2Group/AliceO2</text>
<text text-anchor="start" x="1016.5" y="-242" font-family="Helvetica,sans-Serif" font-size="10.00">/Detectors/ITSMFT/ITS</text>
<text text-anchor="middle" x="1080" y="-231" font-family="Helvetica,sans-Serif" font-size="10.00">/macros/test/DisplayTrack.C</text>
</a>
</g>
</g>
<!-- Node1&#45;&gt;Node8 -->
<g id="edge7" class="edge"><title>Node1&#45;&gt;Node8</title>
<path fill="none" stroke="midnightblue" d="M1673.26,-353.831C1553.77,-350.285 1338.08,-336.927 1161,-288 1150.12,-284.994 1138.86,-280.694 1128.32,-276.082"/>
<polygon fill="midnightblue" stroke="midnightblue" points="1673.37,-357.335 1683.46,-354.116 1673.57,-350.337 1673.37,-357.335"/>
</g>
<!-- Node9 -->
<g id="node9" class="node"><title>Node9</title>
<g id="a_node9"><a xlink:href="../../d6/d67/ITSMFT_2ITS_2reconstruction_2include_2ITSReconstruction_2ClustererTask_8h.html" target="_top" xlink:title="/home/travis/build\l/AliceO2Group/AliceO2\l/Detectors/ITSMFT/ITS\l/reconstruction/include\l/ITSReconstruction/ClustererTask.h">
<polygon fill="none" stroke="black" points="1170,-218.5 1170,-281.5 1344,-281.5 1344,-218.5 1170,-218.5"/>
<text text-anchor="start" x="1178" y="-269.5" font-family="Helvetica,sans-Serif" font-size="10.00">/home/travis/build</text>
<text text-anchor="start" x="1178" y="-258.5" font-family="Helvetica,sans-Serif" font-size="10.00">/AliceO2Group/AliceO2</text>
<text text-anchor="start" x="1178" y="-247.5" font-family="Helvetica,sans-Serif" font-size="10.00">/Detectors/ITSMFT/ITS</text>
<text text-anchor="start" x="1178" y="-236.5" font-family="Helvetica,sans-Serif" font-size="10.00">/reconstruction/include</text>
<text text-anchor="middle" x="1257" y="-225.5" font-family="Helvetica,sans-Serif" font-size="10.00">/ITSReconstruction/ClustererTask.h</text>
</a>
</g>
</g>
<!-- Node1&#45;&gt;Node9 -->
<g id="edge8" class="edge"><title>Node1&#45;&gt;Node9</title>
<path fill="none" stroke="midnightblue" d="M1673.18,-344.966C1590.22,-334.635 1464.61,-316.059 1358,-288 1350.78,-286.099 1343.34,-283.888 1335.95,-281.512"/>
<polygon fill="midnightblue" stroke="midnightblue" points="1672.98,-348.468 1683.33,-346.215 1673.83,-341.52 1672.98,-348.468"/>
</g>
<!-- Node12 -->
<g id="node12" class="node"><title>Node12</title>
<g id="a_node12"><a xlink:href="../../d6/d0c/CookedTracker_8h.html" target="_top" xlink:title="Definition of the &quot;Cooked Matrix&quot; ITS tracker. ">
<polygon fill="none" stroke="black" points="1400.5,-218.5 1400.5,-281.5 1579.5,-281.5 1579.5,-218.5 1400.5,-218.5"/>
<text text-anchor="start" x="1408.5" y="-269.5" font-family="Helvetica,sans-Serif" font-size="10.00">/home/travis/build</text>
<text text-anchor="start" x="1408.5" y="-258.5" font-family="Helvetica,sans-Serif" font-size="10.00">/AliceO2Group/AliceO2</text>
<text text-anchor="start" x="1408.5" y="-247.5" font-family="Helvetica,sans-Serif" font-size="10.00">/Detectors/ITSMFT/ITS</text>
<text text-anchor="start" x="1408.5" y="-236.5" font-family="Helvetica,sans-Serif" font-size="10.00">/reconstruction/include</text>
<text text-anchor="middle" x="1490" y="-225.5" font-family="Helvetica,sans-Serif" font-size="10.00">/ITSReconstruction/CookedTracker.h</text>
</a>
</g>
</g>
<!-- Node1&#45;&gt;Node12 -->
<g id="edge11" class="edge"><title>Node1&#45;&gt;Node12</title>
<path fill="none" stroke="midnightblue" d="M1673.88,-320.795C1640.47,-308.114 1602.84,-293.829 1570.36,-281.5"/>
<polygon fill="midnightblue" stroke="midnightblue" points="1673.05,-324.223 1683.64,-324.499 1675.54,-317.678 1673.05,-324.223"/>
</g>
<!-- Node13 -->
<g id="node13" class="node"><title>Node13</title>
<g id="a_node13"><a xlink:href="../../d3/d9f/CookedTrackerTask_8h.html" target="_top" xlink:title="Definition of the ITS &quot;Cooked Matrix&quot; tracker task. ">
<polygon fill="none" stroke="black" points="1310.5,-101 1310.5,-175 1481.5,-175 1481.5,-101 1310.5,-101"/>
<text text-anchor="start" x="1318.5" y="-163" font-family="Helvetica,sans-Serif" font-size="10.00">/home/travis/build</text>
<text text-anchor="start" x="1318.5" y="-152" font-family="Helvetica,sans-Serif" font-size="10.00">/AliceO2Group/AliceO2</text>
<text text-anchor="start" x="1318.5" y="-141" font-family="Helvetica,sans-Serif" font-size="10.00">/Detectors/ITSMFT/ITS</text>
<text text-anchor="start" x="1318.5" y="-130" font-family="Helvetica,sans-Serif" font-size="10.00">/reconstruction/include</text>
<text text-anchor="start" x="1318.5" y="-119" font-family="Helvetica,sans-Serif" font-size="10.00">/ITSReconstruction/CookedTracker</text>
<text text-anchor="middle" x="1396" y="-108" font-family="Helvetica,sans-Serif" font-size="10.00">Task.h</text>
</a>
</g>
</g>
<!-- Node1&#45;&gt;Node13 -->
<g id="edge16" class="edge"><title>Node1&#45;&gt;Node13</title>
<path fill="none" stroke="midnightblue" d="M1672.85,-351.564C1574.47,-345.714 1427.11,-330.001 1392,-288 1366.11,-257.028 1373.26,-208.474 1382.79,-175.267"/>
<polygon fill="midnightblue" stroke="midnightblue" points="1672.92,-355.074 1683.1,-352.149 1673.32,-348.085 1672.92,-355.074"/>
</g>
<!-- Node17 -->
<g id="node17" class="node"><title>Node17</title>
<g id="a_node17"><a xlink:href="../../d6/d49/TrivialClustererTask_8h.html" target="_top" xlink:title="Definition of the ITS cluster finder task. ">
<polygon fill="none" stroke="black" points="1598,-213 1598,-287 1768,-287 1768,-213 1598,-213"/>
<text text-anchor="start" x="1606" y="-275" font-family="Helvetica,sans-Serif" font-size="10.00">/home/travis/build</text>
<text text-anchor="start" x="1606" y="-264" font-family="Helvetica,sans-Serif" font-size="10.00">/AliceO2Group/AliceO2</text>
<text text-anchor="start" x="1606" y="-253" font-family="Helvetica,sans-Serif" font-size="10.00">/Detectors/ITSMFT/ITS</text>
<text text-anchor="start" x="1606" y="-242" font-family="Helvetica,sans-Serif" font-size="10.00">/reconstruction/include</text>
<text text-anchor="start" x="1606" y="-231" font-family="Helvetica,sans-Serif" font-size="10.00">/ITSReconstruction/TrivialClusterer</text>
<text text-anchor="middle" x="1683" y="-220" font-family="Helvetica,sans-Serif" font-size="10.00">Task.h</text>
</a>
</g>
</g>
<!-- Node1&#45;&gt;Node17 -->
<g id="edge17" class="edge"><title>Node1&#45;&gt;Node17</title>
<path fill="none" stroke="midnightblue" d="M1733.8,-316.228C1726.42,-306.751 1718.55,-296.647 1711.27,-287.292"/>
<polygon fill="midnightblue" stroke="midnightblue" points="1731.23,-318.62 1740.14,-324.359 1736.75,-314.319 1731.23,-318.62"/>
</g>
<!-- Node19 -->
<g id="node19" class="node"><title>Node19</title>
<g id="a_node19"><a xlink:href="../../d5/d1a/IOUtils_8cxx.html" target="_top" xlink:title="/home/travis/build\l/AliceO2Group/AliceO2\l/Detectors/ITSMFT/ITS\l/reconstruction/src/CA\l/IOUtils.cxx">
<polygon fill="none" stroke="black" points="1786,-218.5 1786,-281.5 1906,-281.5 1906,-218.5 1786,-218.5"/>
<text text-anchor="start" x="1794" y="-269.5" font-family="Helvetica,sans-Serif" font-size="10.00">/home/travis/build</text>
<text text-anchor="start" x="1794" y="-258.5" font-family="Helvetica,sans-Serif" font-size="10.00">/AliceO2Group/AliceO2</text>
<text text-anchor="start" x="1794" y="-247.5" font-family="Helvetica,sans-Serif" font-size="10.00">/Detectors/ITSMFT/ITS</text>
<text text-anchor="start" x="1794" y="-236.5" font-family="Helvetica,sans-Serif" font-size="10.00">/reconstruction/src/CA</text>
<text text-anchor="middle" x="1846" y="-225.5" font-family="Helvetica,sans-Serif" font-size="10.00">/IOUtils.cxx</text>
</a>
</g>
</g>
<!-- Node1&#45;&gt;Node19 -->
<g id="edge19" class="edge"><title>Node1&#45;&gt;Node19</title>
<path fill="none" stroke="midnightblue" d="M1794.54,-316.266C1803.51,-304.884 1813.2,-292.594 1821.73,-281.781"/>
<polygon fill="midnightblue" stroke="midnightblue" points="1791.6,-314.339 1788.16,-324.359 1797.1,-318.673 1791.6,-314.339"/>
</g>
<!-- Node20 -->
<g id="node20" class="node"><title>Node20</title>
<g id="a_node20"><a xlink:href="../../d9/d0d/ITSMFT_2ITS_2simulation_2src_2Detector_8cxx.html" target="_top" xlink:title="/home/travis/build\l/AliceO2Group/AliceO2\l/Detectors/ITSMFT/ITS\l/simulation/src/Detector.cxx">
<polygon fill="none" stroke="black" points="1924,-224 1924,-276 2064,-276 2064,-224 1924,-224"/>
<text text-anchor="start" x="1932" y="-264" font-family="Helvetica,sans-Serif" font-size="10.00">/home/travis/build</text>
<text text-anchor="start" x="1932" y="-253" font-family="Helvetica,sans-Serif" font-size="10.00">/AliceO2Group/AliceO2</text>
<text text-anchor="start" x="1932" y="-242" font-family="Helvetica,sans-Serif" font-size="10.00">/Detectors/ITSMFT/ITS</text>
<text text-anchor="middle" x="1994" y="-231" font-family="Helvetica,sans-Serif" font-size="10.00">/simulation/src/Detector.cxx</text>
</a>
</g>
</g>
<!-- Node1&#45;&gt;Node20 -->
<g id="edge20" class="edge"><title>Node1&#45;&gt;Node20</title>
<path fill="none" stroke="midnightblue" d="M1842.55,-320.146C1865.6,-309.856 1890.84,-298.529 1914,-288 1922.36,-284.201 1931.19,-280.15 1939.82,-276.174"/>
<polygon fill="midnightblue" stroke="midnightblue" points="1840.87,-317.065 1833.16,-324.335 1843.72,-323.458 1840.87,-317.065"/>
</g>
<!-- Node21 -->
<g id="node21" class="node"><title>Node21</title>
<g id="a_node21"><a xlink:href="../../da/d29/ITSMFT_2ITS_2simulation_2src_2DigitizerTask_8cxx.html" target="_top" xlink:title="/home/travis/build\l/AliceO2Group/AliceO2\l/Detectors/ITSMFT/ITS\l/simulation/src/DigitizerTask.cxx">
<polygon fill="none" stroke="black" points="2082,-224 2082,-276 2242,-276 2242,-224 2082,-224"/>
<text text-anchor="start" x="2090" y="-264" font-family="Helvetica,sans-Serif" font-size="10.00">/home/travis/build</text>
<text text-anchor="start" x="2090" y="-253" font-family="Helvetica,sans-Serif" font-size="10.00">/AliceO2Group/AliceO2</text>
<text text-anchor="start" x="2090" y="-242" font-family="Helvetica,sans-Serif" font-size="10.00">/Detectors/ITSMFT/ITS</text>
<text text-anchor="middle" x="2162" y="-231" font-family="Helvetica,sans-Serif" font-size="10.00">/simulation/src/DigitizerTask.cxx</text>
</a>
</g>
</g>
<!-- Node1&#45;&gt;Node21 -->
<g id="edge21" class="edge"><title>Node1&#45;&gt;Node21</title>
<path fill="none" stroke="midnightblue" d="M1854.91,-339.757C1917.07,-328.252 2000.93,-310.591 2073,-288 2083.86,-284.597 2095.23,-280.391 2106.07,-276.049"/>
<polygon fill="midnightblue" stroke="midnightblue" points="1853.95,-336.376 1844.74,-341.621 1855.21,-343.262 1853.95,-336.376"/>
</g>
<!-- Node22 -->
<g id="node22" class="node"><title>Node22</title>
<g id="a_node22"><a xlink:href="../../d5/dda/V1Layer_8cxx.html" target="_top" xlink:title="Implementation of the V1Layer class. ">
<polygon fill="none" stroke="black" points="2260,-224 2260,-276 2398,-276 2398,-224 2260,-224"/>
<text text-anchor="start" x="2268" y="-264" font-family="Helvetica,sans-Serif" font-size="10.00">/home/travis/build</text>
<text text-anchor="start" x="2268" y="-253" font-family="Helvetica,sans-Serif" font-size="10.00">/AliceO2Group/AliceO2</text>
<text text-anchor="start" x="2268" y="-242" font-family="Helvetica,sans-Serif" font-size="10.00">/Detectors/ITSMFT/ITS</text>
<text text-anchor="middle" x="2329" y="-231" font-family="Helvetica,sans-Serif" font-size="10.00">/simulation/src/V1Layer.cxx</text>
</a>
</g>
</g>
<!-- Node1&#45;&gt;Node22 -->
<g id="edge22" class="edge"><title>Node1&#45;&gt;Node22</title>
<path fill="none" stroke="midnightblue" d="M1854.87,-350.8C1954.03,-344.317 2116.58,-328.086 2251,-288 2261.34,-284.916 2272.04,-280.64 2282.07,-276.086"/>
<polygon fill="midnightblue" stroke="midnightblue" points="1854.64,-347.308 1844.88,-351.434 1855.08,-354.294 1854.64,-347.308"/>
</g>
<!-- Node23 -->
<g id="node23" class="node"><title>Node23</title>
<g id="a_node23"><a xlink:href="../../d9/d7c/V3Layer_8cxx.html" target="_top" xlink:title="Implementation of the V3Layer class. ">
<polygon fill="none" stroke="black" points="2416,-224 2416,-276 2554,-276 2554,-224 2416,-224"/>
<text text-anchor="start" x="2424" y="-264" font-family="Helvetica,sans-Serif" font-size="10.00">/home/travis/build</text>
<text text-anchor="start" x="2424" y="-253" font-family="Helvetica,sans-Serif" font-size="10.00">/AliceO2Group/AliceO2</text>
<text text-anchor="start" x="2424" y="-242" font-family="Helvetica,sans-Serif" font-size="10.00">/Detectors/ITSMFT/ITS</text>
<text text-anchor="middle" x="2485" y="-231" font-family="Helvetica,sans-Serif" font-size="10.00">/simulation/src/V3Layer.cxx</text>
</a>
</g>
</g>
<!-- Node1&#45;&gt;Node23 -->
<g id="edge23" class="edge"><title>Node1&#45;&gt;Node23</title>
<path fill="none" stroke="midnightblue" d="M1854.57,-355.13C1980.71,-353.173 2215.37,-341.732 2407,-288 2417.53,-285.046 2428.4,-280.768 2438.56,-276.162"/>
<polygon fill="midnightblue" stroke="midnightblue" points="1854.51,-351.631 1844.56,-355.269 1854.61,-358.63 1854.51,-351.631"/>
</g>
<!-- Node24 -->
<g id="node24" class="node"><title>Node24</title>
<g id="a_node24"><a xlink:href="../../d7/d4c/HitAnalysis_8cxx.html" target="_top" xlink:title="/home/travis/build\l/AliceO2Group/AliceO2\l/Detectors/ITSMFT/test\l/HitAnalysis/src/HitAnalysis.cxx">
<polygon fill="none" stroke="black" points="2572,-224 2572,-276 2730,-276 2730,-224 2572,-224"/>
<text text-anchor="start" x="2580" y="-264" font-family="Helvetica,sans-Serif" font-size="10.00">/home/travis/build</text>
<text text-anchor="start" x="2580" y="-253" font-family="Helvetica,sans-Serif" font-size="10.00">/AliceO2Group/AliceO2</text>
<text text-anchor="start" x="2580" y="-242" font-family="Helvetica,sans-Serif" font-size="10.00">/Detectors/ITSMFT/test</text>
<text text-anchor="middle" x="2651" y="-231" font-family="Helvetica,sans-Serif" font-size="10.00">/HitAnalysis/src/HitAnalysis.cxx</text>
</a>
</g>
</g>
<!-- Node1&#45;&gt;Node24 -->
<g id="edge24" class="edge"><title>Node1&#45;&gt;Node24</title>
<path fill="none" stroke="midnightblue" d="M1854.76,-350.975C2034.75,-342.404 2430.89,-320.447 2563,-288 2574.91,-285.075 2587.29,-280.749 2598.87,-276.077"/>
<polygon fill="midnightblue" stroke="midnightblue" points="1854.35,-347.49 1844.53,-351.459 1854.68,-354.482 1854.35,-347.49"/>
</g>
<!-- Node25 -->
<g id="node25" class="node"><title>Node25</title>
<g id="a_node25"><a xlink:href="../../dc/d97/run__rec__ca_8C.html" target="_top" xlink:title="/home/travis/build\l/AliceO2Group/AliceO2\l/macro/run_rec_ca.C">
<polygon fill="none" stroke="black" points="2748,-229.5 2748,-270.5 2866,-270.5 2866,-229.5 2748,-229.5"/>
<text text-anchor="start" x="2756" y="-258.5" font-family="Helvetica,sans-Serif" font-size="10.00">/home/travis/build</text>
<text text-anchor="start" x="2756" y="-247.5" font-family="Helvetica,sans-Serif" font-size="10.00">/AliceO2Group/AliceO2</text>
<text text-anchor="middle" x="2807" y="-236.5" font-family="Helvetica,sans-Serif" font-size="10.00">/macro/run_rec_ca.C</text>
</a>
</g>
</g>
<!-- Node1&#45;&gt;Node25 -->
<g id="edge25" class="edge"><title>Node1&#45;&gt;Node25</title>
<path fill="none" stroke="midnightblue" d="M1854.71,-353.621C2063.7,-349.662 2573.74,-335.312 2738,-288 2751.58,-284.087 2765.52,-277.247 2777.28,-270.504"/>
<polygon fill="midnightblue" stroke="midnightblue" points="1854.62,-350.122 1844.69,-353.808 1854.75,-357.121 1854.62,-350.122"/>
</g>
<!-- Node26 -->
<g id="node26" class="node"><title>Node26</title>
<g id="a_node26"><a xlink:href="../../d9/d71/run__sim_8C.html" target="_top" xlink:title="/home/travis/build\l/AliceO2Group/AliceO2\l/macro/run_sim.C">
<polygon fill="none" stroke="black" points="2884,-229.5 2884,-270.5 3002,-270.5 3002,-229.5 2884,-229.5"/>
<text text-anchor="start" x="2892" y="-258.5" font-family="Helvetica,sans-Serif" font-size="10.00">/home/travis/build</text>
<text text-anchor="start" x="2892" y="-247.5" font-family="Helvetica,sans-Serif" font-size="10.00">/AliceO2Group/AliceO2</text>
<text text-anchor="middle" x="2943" y="-236.5" font-family="Helvetica,sans-Serif" font-size="10.00">/macro/run_sim.C</text>
</a>
</g>
</g>
<!-- Node1&#45;&gt;Node26 -->
<g id="edge26" class="edge"><title>Node1&#45;&gt;Node26</title>
<path fill="none" stroke="midnightblue" d="M1854.89,-354.592C2084.7,-352.751 2684.29,-342.689 2875,-288 2888.44,-284.147 2902.18,-277.318 2913.76,-270.567"/>
<polygon fill="midnightblue" stroke="midnightblue" points="1854.53,-351.095 1844.55,-354.671 1854.58,-358.094 1854.53,-351.095"/>
</g>
<!-- Node27 -->
<g id="node27" class="node"><title>Node27</title>
<g id="a_node27"><a xlink:href="../../d5/dd2/run__sim__its__ALP3_8C.html" target="_top" xlink:title="/home/travis/build\l/AliceO2Group/AliceO2\l/macro/run_sim_its_ALP3.C">
<polygon fill="none" stroke="black" points="3020,-229.5 3020,-270.5 3160,-270.5 3160,-229.5 3020,-229.5"/>
<text text-anchor="start" x="3028" y="-258.5" font-family="Helvetica,sans-Serif" font-size="10.00">/home/travis/build</text>
<text text-anchor="start" x="3028" y="-247.5" font-family="Helvetica,sans-Serif" font-size="10.00">/AliceO2Group/AliceO2</text>
<text text-anchor="middle" x="3090" y="-236.5" font-family="Helvetica,sans-Serif" font-size="10.00">/macro/run_sim_its_ALP3.C</text>
</a>
</g>
</g>
<!-- Node1&#45;&gt;Node27 -->
<g id="edge27" class="edge"><title>Node1&#45;&gt;Node27</title>
<path fill="none" stroke="midnightblue" d="M1854.71,-354.614C2103.38,-352.843 2791.92,-342.971 3011,-288 3026.28,-284.167 3042.18,-277.341 3055.68,-270.588"/>
<polygon fill="midnightblue" stroke="midnightblue" points="1854.61,-351.114 1844.63,-354.683 1854.65,-358.114 1854.61,-351.114"/>
</g>
<!-- Node28 -->
<g id="node28" class="node"><title>Node28</title>
<g id="a_node28"><a xlink:href="../../d6/db2/run__trac__ca__its_8C.html" target="_top" xlink:title="/home/travis/build\l/AliceO2Group/AliceO2\l/macro/run_trac_ca_its.C">
<polygon fill="none" stroke="black" points="3178.5,-229.5 3178.5,-270.5 3305.5,-270.5 3305.5,-229.5 3178.5,-229.5"/>
<text text-anchor="start" x="3186.5" y="-258.5" font-family="Helvetica,sans-Serif" font-size="10.00">/home/travis/build</text>
<text text-anchor="start" x="3186.5" y="-247.5" font-family="Helvetica,sans-Serif" font-size="10.00">/AliceO2Group/AliceO2</text>
<text text-anchor="middle" x="3242" y="-236.5" font-family="Helvetica,sans-Serif" font-size="10.00">/macro/run_trac_ca_its.C</text>
</a>
</g>
</g>
<!-- Node1&#45;&gt;Node28 -->
<g id="edge28" class="edge"><title>Node1&#45;&gt;Node28</title>
<path fill="none" stroke="midnightblue" d="M1854.8,-355.615C2124.84,-356.666 2919.59,-353.917 3169,-288 3183.29,-284.224 3198.01,-277.41 3210.46,-270.649"/>
<polygon fill="midnightblue" stroke="midnightblue" points="1854.66,-352.115 1844.65,-355.573 1854.63,-359.114 1854.66,-352.115"/>
</g>
<!-- Node29 -->
<g id="node29" class="node"><title>Node29</title>
<g id="a_node29"><a xlink:href="../../d4/da9/run__vert__ca__its_8C.html" target="_top" xlink:title="/home/travis/build\l/AliceO2Group/AliceO2\l/macro/run_vert_ca_its.C">
<polygon fill="none" stroke="black" points="3323.5,-229.5 3323.5,-270.5 3450.5,-270.5 3450.5,-229.5 3323.5,-229.5"/>
<text text-anchor="start" x="3331.5" y="-258.5" font-family="Helvetica,sans-Serif" font-size="10.00">/home/travis/build</text>
<text text-anchor="start" x="3331.5" y="-247.5" font-family="Helvetica,sans-Serif" font-size="10.00">/AliceO2Group/AliceO2</text>
<text text-anchor="middle" x="3387" y="-236.5" font-family="Helvetica,sans-Serif" font-size="10.00">/macro/run_vert_ca_its.C</text>
</a>
</g>
</g>
<!-- Node1&#45;&gt;Node29 -->
<g id="edge29" class="edge"><title>Node1&#45;&gt;Node29</title>
<path fill="none" stroke="midnightblue" d="M1854.93,-353.312C2165.56,-347.237 3173.23,-324.87 3314,-288 3328.29,-284.256 3343.02,-277.448 3355.47,-270.683"/>
<polygon fill="midnightblue" stroke="midnightblue" points="1854.55,-349.819 1844.62,-353.513 1854.68,-356.817 1854.55,-349.819"/>
</g>
<!-- Node10 -->
<g id="node10" class="node"><title>Node10</title>
<g id="a_node10"><a xlink:href="../../d8/d95/ITSMFT_2ITS_2reconstruction_2src_2ClustererTask_8cxx.html" target="_top" xlink:title="/home/travis/build\l/AliceO2Group/AliceO2\l/Detectors/ITSMFT/ITS\l/reconstruction/src/ClustererTask.cxx">
<polygon fill="none" stroke="black" points="974.5,-112 974.5,-164 1155.5,-164 1155.5,-112 974.5,-112"/>
<text text-anchor="start" x="982.5" y="-152" font-family="Helvetica,sans-Serif" font-size="10.00">/home/travis/build</text>
<text text-anchor="start" x="982.5" y="-141" font-family="Helvetica,sans-Serif" font-size="10.00">/AliceO2Group/AliceO2</text>
<text text-anchor="start" x="982.5" y="-130" font-family="Helvetica,sans-Serif" font-size="10.00">/Detectors/ITSMFT/ITS</text>
<text text-anchor="middle" x="1065" y="-119" font-family="Helvetica,sans-Serif" font-size="10.00">/reconstruction/src/ClustererTask.cxx</text>
</a>
</g>
</g>
<!-- Node9&#45;&gt;Node10 -->
<g id="edge9" class="edge"><title>Node9&#45;&gt;Node10</title>
<path fill="none" stroke="midnightblue" d="M1194.59,-213.245C1166.58,-197.196 1134.2,-178.647 1108.82,-164.104"/>
<polygon fill="midnightblue" stroke="midnightblue" points="1193.1,-216.425 1203.52,-218.359 1196.58,-210.351 1193.1,-216.425"/>
</g>
<!-- Node11 -->
<g id="node11" class="node"><title>Node11</title>
<g id="a_node11"><a xlink:href="../../d6/da1/run__clus__its_8C.html" target="_top" xlink:title="/home/travis/build\l/AliceO2Group/AliceO2\l/macro/run_clus_its.C">
<polygon fill="none" stroke="black" points="1174,-117.5 1174,-158.5 1292,-158.5 1292,-117.5 1174,-117.5"/>
<text text-anchor="start" x="1182" y="-146.5" font-family="Helvetica,sans-Serif" font-size="10.00">/home/travis/build</text>
<text text-anchor="start" x="1182" y="-135.5" font-family="Helvetica,sans-Serif" font-size="10.00">/AliceO2Group/AliceO2</text>
<text text-anchor="middle" x="1233" y="-124.5" font-family="Helvetica,sans-Serif" font-size="10.00">/macro/run_clus_its.C</text>
</a>
</g>
</g>
<!-- Node9&#45;&gt;Node11 -->
<g id="edge10" class="edge"><title>Node9&#45;&gt;Node11</title>
<path fill="none" stroke="midnightblue" d="M1248.09,-208.154C1244.4,-191.267 1240.3,-172.47 1237.31,-158.741"/>
<polygon fill="midnightblue" stroke="midnightblue" points="1244.76,-209.335 1250.31,-218.359 1251.6,-207.843 1244.76,-209.335"/>
</g>
<!-- Node12&#45;&gt;Node13 -->
<g id="edge12" class="edge"><title>Node12&#45;&gt;Node13</title>
<path fill="none" stroke="midnightblue" d="M1457.21,-210.624C1447.42,-199.167 1436.72,-186.647 1427.04,-175.325"/>
<polygon fill="midnightblue" stroke="midnightblue" points="1454.66,-213.03 1463.82,-218.359 1459.98,-208.483 1454.66,-213.03"/>
</g>
<!-- Node16 -->
<g id="node16" class="node"><title>Node16</title>
<g id="a_node16"><a xlink:href="../../d7/dca/CookedTracker_8cxx.html" target="_top" xlink:title="Implementation of the &quot;Cooked Matrix&quot; ITS tracker. ">
<polygon fill="none" stroke="black" points="1500,-112 1500,-164 1686,-164 1686,-112 1500,-112"/>
<text text-anchor="start" x="1508" y="-152" font-family="Helvetica,sans-Serif" font-size="10.00">/home/travis/build</text>
<text text-anchor="start" x="1508" y="-141" font-family="Helvetica,sans-Serif" font-size="10.00">/AliceO2Group/AliceO2</text>
<text text-anchor="start" x="1508" y="-130" font-family="Helvetica,sans-Serif" font-size="10.00">/Detectors/ITSMFT/ITS</text>
<text text-anchor="middle" x="1593" y="-119" font-family="Helvetica,sans-Serif" font-size="10.00">/reconstruction/src/CookedTracker.cxx</text>
</a>
</g>
</g>
<!-- Node12&#45;&gt;Node16 -->
<g id="edge15" class="edge"><title>Node12&#45;&gt;Node16</title>
<path fill="none" stroke="midnightblue" d="M1525.62,-210.964C1540.07,-195.527 1556.37,-178.114 1569.33,-164.284"/>
<polygon fill="midnightblue" stroke="midnightblue" points="1522.97,-208.667 1518.69,-218.359 1528.08,-213.452 1522.97,-208.667"/>
</g>
<!-- Node14 -->
<g id="node14" class="node"><title>Node14</title>
<g id="a_node14"><a xlink:href="../../d5/da2/CookedTrackerTask_8cxx.html" target="_top" xlink:title="Implementation of the ITS &quot;Cooked Matrix&quot; tracker task. ">
<polygon fill="none" stroke="black" points="1231.5,-0.5 1231.5,-63.5 1398.5,-63.5 1398.5,-0.5 1231.5,-0.5"/>
<text text-anchor="start" x="1239.5" y="-51.5" font-family="Helvetica,sans-Serif" font-size="10.00">/home/travis/build</text>
<text text-anchor="start" x="1239.5" y="-40.5" font-family="Helvetica,sans-Serif" font-size="10.00">/AliceO2Group/AliceO2</text>
<text text-anchor="start" x="1239.5" y="-29.5" font-family="Helvetica,sans-Serif" font-size="10.00">/Detectors/ITSMFT/ITS</text>
<text text-anchor="start" x="1239.5" y="-18.5" font-family="Helvetica,sans-Serif" font-size="10.00">/reconstruction/src/CookedTracker</text>
<text text-anchor="middle" x="1315" y="-7.5" font-family="Helvetica,sans-Serif" font-size="10.00">Task.cxx</text>
</a>
</g>
</g>
<!-- Node13&#45;&gt;Node14 -->
<g id="edge13" class="edge"><title>Node13&#45;&gt;Node14</title>
<path fill="none" stroke="midnightblue" d="M1361.6,-92.8356C1354,-83.0712 1346.1,-72.9296 1339.01,-63.8307"/>
<polygon fill="midnightblue" stroke="midnightblue" points="1358.99,-95.1789 1367.9,-100.918 1364.51,-90.8776 1358.99,-95.1789"/>
</g>
<!-- Node15 -->
<g id="node15" class="node"><title>Node15</title>
<g id="a_node15"><a xlink:href="../../dd/d4e/run__trac__its_8C.html" target="_top" xlink:title="/home/travis/build\l/AliceO2Group/AliceO2\l/macro/run_trac_its.C">
<polygon fill="none" stroke="black" points="1417,-11.5 1417,-52.5 1535,-52.5 1535,-11.5 1417,-11.5"/>
<text text-anchor="start" x="1425" y="-40.5" font-family="Helvetica,sans-Serif" font-size="10.00">/home/travis/build</text>
<text text-anchor="start" x="1425" y="-29.5" font-family="Helvetica,sans-Serif" font-size="10.00">/AliceO2Group/AliceO2</text>
<text text-anchor="middle" x="1476" y="-18.5" font-family="Helvetica,sans-Serif" font-size="10.00">/macro/run_trac_its.C</text>
</a>
</g>
</g>
<!-- Node13&#45;&gt;Node15 -->
<g id="edge14" class="edge"><title>Node13&#45;&gt;Node15</title>
<path fill="none" stroke="midnightblue" d="M1430,-92.7957C1440.77,-78.7961 1452.13,-64.0252 1460.87,-52.6667"/>
<polygon fill="midnightblue" stroke="midnightblue" points="1427.08,-90.8575 1423.76,-100.918 1432.63,-95.1255 1427.08,-90.8575"/>
</g>
<!-- Node18 -->
<g id="node18" class="node"><title>Node18</title>
<g id="a_node18"><a xlink:href="../../dd/d81/TrivialClustererTask_8cxx.html" target="_top" xlink:title="Implementation of the ITS cluster finder task. ">
<polygon fill="none" stroke="black" points="1703.5,-106.5 1703.5,-169.5 1870.5,-169.5 1870.5,-106.5 1703.5,-106.5"/>
<text text-anchor="start" x="1711.5" y="-157.5" font-family="Helvetica,sans-Serif" font-size="10.00">/home/travis/build</text>
<text text-anchor="start" x="1711.5" y="-146.5" font-family="Helvetica,sans-Serif" font-size="10.00">/AliceO2Group/AliceO2</text>
<text text-anchor="start" x="1711.5" y="-135.5" font-family="Helvetica,sans-Serif" font-size="10.00">/Detectors/ITSMFT/ITS</text>
<text text-anchor="start" x="1711.5" y="-124.5" font-family="Helvetica,sans-Serif" font-size="10.00">/reconstruction/src/TrivialClusterer</text>
<text text-anchor="middle" x="1787" y="-113.5" font-family="Helvetica,sans-Serif" font-size="10.00">Task.cxx</text>
</a>
</g>
</g>
<!-- Node17&#45;&gt;Node18 -->
<g id="edge18" class="edge"><title>Node17&#45;&gt;Node18</title>
<path fill="none" stroke="midnightblue" d="M1724.03,-205.6C1735.43,-193.548 1747.56,-180.718 1758.1,-169.568"/>
<polygon fill="midnightblue" stroke="midnightblue" points="1721.38,-203.311 1717.05,-212.982 1726.47,-208.12 1721.38,-203.311"/>
</g>
</g>
</svg>
