<?xml version="1.0" encoding="UTF-8" standalone="no"?>
<!DOCTYPE svg PUBLIC "-//W3C//DTD SVG 1.1//EN"
 "http://www.w3.org/Graphics/SVG/1.1/DTD/svg11.dtd">
<!-- Generated by graphviz version 2.36.0 (20140111.2315)
 -->
<!-- Title: /home/travis/build/AliceO2Group/AliceO2/Detectors/ITSMFT/common/reconstruction/include/ITSMFTReconstruction/Clusterer.h Pages: 1 -->
<!--zoomable 468 -->
<svg id="main" version="1.1" xmlns="http://www.w3.org/2000/svg" xmlns:xlink="http://www.w3.org/1999/xlink" xml:space="preserve" onload="init(evt)">
<style type="text/css"><![CDATA[
.edge:hover path { stroke: red; }
.edge:hover polygon { stroke: red; fill: red; }
]]></style>
<script type="text/javascript"><![CDATA[
var edges = document.getElementsByTagName('g');
if (edges && edges.length) {
  for (var i=0;i<edges.length;i++) {
    if (edges[i].id.substr(0,4)=='edge') {
      edges[i].setAttribute('class','edge');
    }
  }
}
]]></script>
        <defs>
                <circle id="rim" cx="0" cy="0" r="7"/>
                <circle id="rim2" cx="0" cy="0" r="3.5"/>
                <g id="zoomPlus">
                        <use xlink:href="#rim" fill="#404040">
                                <set attributeName="fill" to="#808080" begin="zoomplus.mouseover" end="zoomplus.mouseout"/>
                        </use>
                        <path d="M-4,0h8M0,-4v8" fill="none" stroke="white" stroke-width="1.5" pointer-events="none"/>
                </g>
                <g id="zoomMin">
                        <use xlink:href="#rim" fill="#404040">
                                <set attributeName="fill" to="#808080" begin="zoomminus.mouseover" end="zoomminus.mouseout"/>
                        </use>
                        <path d="M-4,0h8" fill="none" stroke="white" stroke-width="1.5" pointer-events="none"/>
                </g>
                <g id="dirArrow">
                        <path fill="none" stroke="white" stroke-width="1.5" d="M0,-3.0v7 M-2.5,-0.5L0,-3.0L2.5,-0.5"/>
                </g>
               <g id="resetDef">
                       <use xlink:href="#rim2" fill="#404040">
                               <set attributeName="fill" to="#808080" begin="reset.mouseover" end="reset.mouseout"/>
                       </use>
               </g>
        </defs>

<script type="text/javascript">
var viewWidth = 1958;
var viewHeight = 468;
var sectionId = 'dynsection-0';
</script>
<script xlink:href="../../svgpan.js"/>
<svg id="graph" class="graph">
<g id="viewport">
<title>/home/travis/build/AliceO2Group/AliceO2/Detectors/ITSMFT/common/reconstruction/include/ITSMFTReconstruction/Clusterer.h</title>
<!-- Node1 -->
<g id="node1" class="node"><title>Node1</title>
<polygon fill="#bfbfbf" stroke="black" points="233.5,-396.5 233.5,-459.5 406.5,-459.5 406.5,-396.5 233.5,-396.5"/>
<text text-anchor="start" x="241.5" y="-447.5" font-family="Helvetica,sans-Serif" font-size="10.00">/home/travis/build</text>
<text text-anchor="start" x="241.5" y="-436.5" font-family="Helvetica,sans-Serif" font-size="10.00">/AliceO2Group/AliceO2</text>
<text text-anchor="start" x="241.5" y="-425.5" font-family="Helvetica,sans-Serif" font-size="10.00">/Detectors/ITSMFT/common</text>
<text text-anchor="start" x="241.5" y="-414.5" font-family="Helvetica,sans-Serif" font-size="10.00">/reconstruction/include</text>
<text text-anchor="middle" x="320" y="-403.5" font-family="Helvetica,sans-Serif" font-size="10.00">/ITSMFTReconstruction/Clusterer.h</text>
</g>
<!-- Node2 -->
<g id="node2" class="node"><title>Node2</title>
<polygon fill="none" stroke="#bfbfbf" points="0,-142.5 0,-161.5 40,-161.5 40,-142.5 0,-142.5"/>
<text text-anchor="middle" x="20" y="-149.5" font-family="Helvetica,sans-Serif" font-size="10.00">utility</text>
</g>
<!-- Node1&#45;&gt;Node2 -->
<g id="edge1" class="edge"><title>Node1&#45;&gt;Node2</title>
<path fill="none" stroke="midnightblue" d="M233.409,-406.739C177.477,-389.059 107.928,-357.576 68,-304 37.5366,-263.124 26.0244,-202.297 21.9898,-171.826"/>
<polygon fill="midnightblue" stroke="midnightblue" points="25.4464,-171.253 20.7857,-161.739 18.4958,-172.083 25.4464,-171.253"/>
</g>
<!-- Node3 -->
<g id="node3" class="node"><title>Node3</title>
<polygon fill="none" stroke="#bfbfbf" points="85,-142.5 85,-161.5 129,-161.5 129,-142.5 85,-142.5"/>
<text text-anchor="middle" x="107" y="-149.5" font-family="Helvetica,sans-Serif" font-size="10.00">vector</text>
</g>
<!-- Node1&#45;&gt;Node3 -->
<g id="edge2" class="edge"><title>Node1&#45;&gt;Node3</title>
<path fill="none" stroke="midnightblue" d="M238.393,-396.478C172.644,-366.813 85.3761,-314.62 49,-236 43.0279,-223.092 43.1389,-216.958 49,-204 56.0039,-188.515 70.2905,-175.861 82.9312,-167.032"/>
<polygon fill="midnightblue" stroke="midnightblue" points="84.8636,-169.95 91.3099,-161.542 81.0272,-164.095 84.8636,-169.95"/>
</g>
<!-- Node4 -->
<g id="node4" class="node"><title>Node4</title>
<g id="a_node4"><a xlink:href="../../d0/d2d/common_2base_2include_2ITSMFTBase_2GeometryTGeo_8h.html" target="_top" xlink:title="ITSMFTBase/GeometryTGeo.h">
<polygon fill="none" stroke="black" points="673.5,-340.5 673.5,-359.5 826.5,-359.5 826.5,-340.5 673.5,-340.5"/>
<text text-anchor="middle" x="750" y="-347.5" font-family="Helvetica,sans-Serif" font-size="10.00">ITSMFTBase/GeometryTGeo.h</text>
</a>
</g>
</g>
<!-- Node1&#45;&gt;Node4 -->
<g id="edge3" class="edge"><title>Node1&#45;&gt;Node4</title>
<path fill="none" stroke="midnightblue" d="M406.758,-411.666C491.577,-396.675 618.359,-374.267 691.755,-361.294"/>
<polygon fill="midnightblue" stroke="midnightblue" points="692.509,-364.715 701.748,-359.528 691.291,-357.822 692.509,-364.715"/>
</g>
<!-- Node11 -->
<g id="node11" class="node"><title>Node11</title>
<polygon fill="none" stroke="#bfbfbf" points="254,-74.5 254,-93.5 310,-93.5 310,-74.5 254,-74.5"/>
<text text-anchor="middle" x="282" y="-81.5" font-family="Helvetica,sans-Serif" font-size="10.00">Rtypes.h</text>
</g>
<!-- Node1&#45;&gt;Node11 -->
<g id="edge57" class="edge"><title>Node1&#45;&gt;Node11</title>
<path fill="none" stroke="midnightblue" d="M320,-396.306C320,-368.34 320,-325.896 320,-289 320,-289 320,-289 320,-219 320,-176.048 301.706,-128.189 290.504,-102.911"/>
<polygon fill="midnightblue" stroke="midnightblue" points="293.558,-101.174 286.212,-93.5403 287.194,-104.09 293.558,-101.174"/>
</g>
<!-- Node30 -->
<g id="node30" class="node"><title>Node30</title>
<g id="a_node30"><a xlink:href="../../d1/d62/DataFormats_2Detectors_2ITSMFT_2common_2include_2DataFormatsITSMFT_2Cluster_8h.html" target="_top" xlink:title="DataFormatsITSMFT/Cluster.h">
<polygon fill="none" stroke="black" points="457,-340.5 457,-359.5 609,-359.5 609,-340.5 457,-340.5"/>
<text text-anchor="middle" x="533" y="-347.5" font-family="Helvetica,sans-Serif" font-size="10.00">DataFormatsITSMFT/Cluster.h</text>
</a>
</g>
</g>
<!-- Node1&#45;&gt;Node30 -->
<g id="edge34" class="edge"><title>Node1&#45;&gt;Node30</title>
<path fill="none" stroke="midnightblue" d="M405.715,-396.416C438.576,-384.691 474.184,-371.986 499.359,-363.003"/>
<polygon fill="midnightblue" stroke="midnightblue" points="500.56,-366.291 508.802,-359.634 498.207,-359.698 500.56,-366.291"/>
</g>
<!-- Node35 -->
<g id="node35" class="node"><title>Node35</title>
<g id="a_node35"><a xlink:href="../../df/d2e/PixelReader_8h.html" target="_top" xlink:title="Definition of the ITS pixel reader. ">
<polygon fill="none" stroke="black" points="172.5,-273 172.5,-303 291.5,-303 291.5,-273 172.5,-273"/>
<text text-anchor="start" x="180.5" y="-291" font-family="Helvetica,sans-Serif" font-size="10.00">ITSMFTReconstruction</text>
<text text-anchor="middle" x="232" y="-280" font-family="Helvetica,sans-Serif" font-size="10.00">/PixelReader.h</text>
</a>
</g>
</g>
<!-- Node1&#45;&gt;Node35 -->
<g id="edge43" class="edge"><title>Node1&#45;&gt;Node35</title>
<path fill="none" stroke="midnightblue" d="M300.47,-396.373C284.109,-370.716 261.13,-334.681 246.401,-311.583"/>
<polygon fill="midnightblue" stroke="midnightblue" points="249.334,-309.674 241.007,-303.124 243.432,-313.437 249.334,-309.674"/>
</g>
<!-- Node36 -->
<g id="node36" class="node"><title>Node36</title>
<g id="a_node36"><a xlink:href="../../da/d8d/PixelData_8h.html" target="_top" xlink:title="Transient data classes for single pixel and set of pixels from current chip. ">
<polygon fill="none" stroke="black" points="58.5,-205 58.5,-235 177.5,-235 177.5,-205 58.5,-205"/>
<text text-anchor="start" x="66.5" y="-223" font-family="Helvetica,sans-Serif" font-size="10.00">ITSMFTReconstruction</text>
<text text-anchor="middle" x="118" y="-212" font-family="Helvetica,sans-Serif" font-size="10.00">/PixelData.h</text>
</a>
</g>
</g>
<!-- Node1&#45;&gt;Node36 -->
<g id="edge55" class="edge"><title>Node1&#45;&gt;Node36</title>
<path fill="none" stroke="midnightblue" d="M271.059,-396.446C237.679,-373.867 194.062,-340.764 163,-304 147.878,-286.102 135.613,-262.314 127.73,-244.793"/>
<polygon fill="midnightblue" stroke="midnightblue" points="130.799,-243.073 123.606,-235.293 124.377,-245.86 130.799,-243.073"/>
</g>
<!-- Node39 -->
<g id="node39" class="node"><title>Node39</title>
<g id="a_node39"><a xlink:href="../../d7/dcd/MCCompLabel_8h.html" target="_top" xlink:title="SimulationDataFormat\l/MCCompLabel.h">
<polygon fill="none" stroke="black" points="348,-205 348,-235 462,-235 462,-205 348,-205"/>
<text text-anchor="start" x="356" y="-223" font-family="Helvetica,sans-Serif" font-size="10.00">SimulationDataFormat</text>
<text text-anchor="middle" x="405" y="-212" font-family="Helvetica,sans-Serif" font-size="10.00">/MCCompLabel.h</text>
</a>
</g>
</g>
<!-- Node1&#45;&gt;Node39 -->
<g id="edge56" class="edge"><title>Node1&#45;&gt;Node39</title>
<path fill="none" stroke="midnightblue" d="M332.725,-396.16C349.828,-354.711 379.858,-281.934 395.27,-244.581"/>
<polygon fill="midnightblue" stroke="midnightblue" points="398.628,-245.619 399.207,-235.04 392.157,-242.949 398.628,-245.619"/>
</g>
<!-- Node40 -->
<g id="node40" class="node"><title>Node40</title>
<polygon fill="none" stroke="#bfbfbf" points="844.5,-340.5 844.5,-359.5 921.5,-359.5 921.5,-340.5 844.5,-340.5"/>
<text text-anchor="middle" x="883" y="-347.5" font-family="Helvetica,sans-Serif" font-size="10.00">TStopwatch.h</text>
</g>
<!-- Node1&#45;&gt;Node40 -->
<g id="edge58" class="edge"><title>Node1&#45;&gt;Node40</title>
<path fill="none" stroke="midnightblue" d="M406.778,-417.213C507.111,-405.558 677.439,-384.727 833.97,-360.085"/>
<polygon fill="midnightblue" stroke="midnightblue" points="834.93,-363.477 844.26,-358.456 833.835,-356.563 834.93,-363.477"/>
</g>
<!-- Node5 -->
<g id="node5" class="node"><title>Node5</title>
<polygon fill="none" stroke="#bfbfbf" points="827.5,-278.5 827.5,-297.5 896.5,-297.5 896.5,-278.5 827.5,-278.5"/>
<text text-anchor="middle" x="862" y="-285.5" font-family="Helvetica,sans-Serif" font-size="10.00">TObjArray.h</text>
</g>
<!-- Node4&#45;&gt;Node5 -->
<g id="edge4" class="edge"><title>Node4&#45;&gt;Node5</title>
<path fill="none" stroke="midnightblue" d="M766.047,-340.403C784.593,-330.468 815.34,-313.997 837.022,-302.381"/>
<polygon fill="midnightblue" stroke="midnightblue" points="838.821,-305.388 845.983,-297.581 835.515,-299.218 838.821,-305.388"/>
</g>
<!-- Node6 -->
<g id="node6" class="node"><title>Node6</title>
<polygon fill="none" stroke="#bfbfbf" points="729.5,-278.5 729.5,-297.5 770.5,-297.5 770.5,-278.5 729.5,-278.5"/>
<text text-anchor="middle" x="750" y="-285.5" font-family="Helvetica,sans-Serif" font-size="10.00">string</text>
</g>
<!-- Node4&#45;&gt;Node6 -->
<g id="edge5" class="edge"><title>Node4&#45;&gt;Node6</title>
<path fill="none" stroke="midnightblue" d="M750,-340.403C750,-331.938 750,-318.728 750,-307.82"/>
<polygon fill="midnightblue" stroke="midnightblue" points="753.5,-307.581 750,-297.581 746.5,-307.581 753.5,-307.581"/>
</g>
<!-- Node7 -->
<g id="node7" class="node"><title>Node7</title>
<g id="a_node7"><a xlink:href="../../d4/d20/DetMatrixCache_8h.html" target="_top" xlink:title="DetectorsCommonDataFormats\l/DetMatrixCache.h">
<polygon fill="none" stroke="black" points="750,-205 750,-235 906,-235 906,-205 750,-205"/>
<text text-anchor="start" x="758" y="-223" font-family="Helvetica,sans-Serif" font-size="10.00">DetectorsCommonDataFormats</text>
<text text-anchor="middle" x="828" y="-212" font-family="Helvetica,sans-Serif" font-size="10.00">/DetMatrixCache.h</text>
</a>
</g>
</g>
<!-- Node4&#45;&gt;Node7 -->
<g id="edge6" class="edge"><title>Node4&#45;&gt;Node7</title>
<path fill="none" stroke="midnightblue" d="M755.66,-340.437C761.58,-331.43 771.093,-316.814 779,-304 791.341,-284.001 804.888,-260.966 814.604,-244.244"/>
<polygon fill="midnightblue" stroke="midnightblue" points="817.86,-245.607 819.844,-235.199 811.803,-242.098 817.86,-245.607"/>
</g>
<!-- Node7&#45;&gt;Node3 -->
<g id="edge9" class="edge"><title>Node7&#45;&gt;Node3</title>
<path fill="none" stroke="midnightblue" d="M749.617,-211.461C722.51,-208.952 691.93,-206.231 664,-204 429.977,-185.307 363.516,-229.698 137,-168 134.809,-167.403 132.589,-166.64 130.4,-165.775"/>
<polygon fill="midnightblue" stroke="midnightblue" points="131.734,-162.536 121.187,-161.532 128.806,-168.894 131.734,-162.536"/>
</g>
<!-- Node8 -->
<g id="node8" class="node"><title>Node8</title>
<polygon fill="none" stroke="#bfbfbf" points="1469.5,-142.5 1469.5,-161.5 1540.5,-161.5 1540.5,-142.5 1469.5,-142.5"/>
<text text-anchor="middle" x="1505" y="-149.5" font-family="Helvetica,sans-Serif" font-size="10.00">FairLogger.h</text>
</g>
<!-- Node7&#45;&gt;Node8 -->
<g id="edge7" class="edge"><title>Node7&#45;&gt;Node8</title>
<path fill="none" stroke="midnightblue" d="M906.411,-217.897C1025.81,-215.035 1259.94,-204.768 1455,-168 1460.1,-167.038 1465.42,-165.756 1470.61,-164.345"/>
<polygon fill="midnightblue" stroke="midnightblue" points="1471.7,-167.672 1480.33,-161.522 1469.75,-160.95 1471.7,-167.672"/>
</g>
<!-- Node9 -->
<g id="node9" class="node"><title>Node9</title>
<polygon fill="none" stroke="#bfbfbf" points="1601,-6.5 1601,-25.5 1639,-25.5 1639,-6.5 1601,-6.5"/>
<text text-anchor="middle" x="1620" y="-13.5" font-family="Helvetica,sans-Serif" font-size="10.00">array</text>
</g>
<!-- Node7&#45;&gt;Node9 -->
<g id="edge8" class="edge"><title>Node7&#45;&gt;Node9</title>
<path fill="none" stroke="midnightblue" d="M906.192,-217.613C1035.72,-212.656 1300.49,-191.139 1502,-100 1522.74,-90.618 1523.56,-81.3559 1542,-68 1560.18,-54.829 1581.57,-40.9519 1597.35,-31.004"/>
<polygon fill="midnightblue" stroke="midnightblue" points="1599.3,-33.9092 1605.92,-25.636 1595.59,-27.9761 1599.3,-33.9092"/>
</g>
<!-- Node10 -->
<g id="node10" class="node"><title>Node10</title>
<g id="a_node10"><a xlink:href="../../d6/d31/DetID_8h.html" target="_top" xlink:title="DetectorsCommonDataFormats\l/DetID.h">
<polygon fill="none" stroke="black" points="1597,-137 1597,-167 1753,-167 1753,-137 1597,-137"/>
<text text-anchor="start" x="1605" y="-155" font-family="Helvetica,sans-Serif" font-size="10.00">DetectorsCommonDataFormats</text>
<text text-anchor="middle" x="1675" y="-144" font-family="Helvetica,sans-Serif" font-size="10.00">/DetID.h</text>
</a>
</g>
</g>
<!-- Node7&#45;&gt;Node10 -->
<g id="edge10" class="edge"><title>Node7&#45;&gt;Node10</title>
<path fill="none" stroke="midnightblue" d="M906.252,-214.696C1038.72,-207.133 1315.54,-190.14 1549,-168 1561.2,-166.843 1574.05,-165.481 1586.69,-164.057"/>
<polygon fill="midnightblue" stroke="midnightblue" points="1587.22,-167.518 1596.76,-162.904 1586.43,-160.563 1587.22,-167.518"/>
</g>
<!-- Node7&#45;&gt;Node11 -->
<g id="edge33" class="edge"><title>Node7&#45;&gt;Node11</title>
<path fill="none" stroke="midnightblue" d="M751.543,-204.984C651.082,-185.694 469.72,-147.85 319,-100 316.366,-99.1637 313.654,-98.2239 310.954,-97.2333"/>
<polygon fill="midnightblue" stroke="midnightblue" points="311.967,-93.8723 301.378,-93.5165 309.434,-100.398 311.967,-93.8723"/>
</g>
<!-- Node19 -->
<g id="node19" class="node"><title>Node19</title>
<g id="a_node19"><a xlink:href="../../dd/d76/Cartesian3D_8h.html" target="_top" xlink:title="MathUtils/Cartesian3D.h">
<polygon fill="none" stroke="black" points="750.5,-142.5 750.5,-161.5 875.5,-161.5 875.5,-142.5 750.5,-142.5"/>
<text text-anchor="middle" x="813" y="-149.5" font-family="Helvetica,sans-Serif" font-size="10.00">MathUtils/Cartesian3D.h</text>
</a>
</g>
</g>
<!-- Node7&#45;&gt;Node19 -->
<g id="edge21" class="edge"><title>Node7&#45;&gt;Node19</title>
<path fill="none" stroke="midnightblue" d="M824.745,-204.679C822.545,-194.999 819.619,-182.123 817.237,-171.645"/>
<polygon fill="midnightblue" stroke="midnightblue" points="820.636,-170.804 815.006,-161.828 813.81,-172.355 820.636,-170.804"/>
</g>
<!-- Node10&#45;&gt;Node9 -->
<g id="edge12" class="edge"><title>Node10&#45;&gt;Node9</title>
<path fill="none" stroke="midnightblue" d="M1663.05,-136.682C1655.45,-126.901 1645.94,-113.341 1640,-100 1630.6,-78.8962 1625.23,-52.724 1622.47,-35.4774"/>
<polygon fill="midnightblue" stroke="midnightblue" points="1625.93,-34.961 1621.02,-25.5759 1619.01,-35.9784 1625.93,-34.961"/>
</g>
<!-- Node10&#45;&gt;Node11 -->
<g id="edge11" class="edge"><title>Node10&#45;&gt;Node11</title>
<path fill="none" stroke="midnightblue" d="M1596.8,-140.592C1581,-138.799 1564.49,-137.146 1549,-136 1276.3,-115.817 586.601,-156.257 319,-100 315.744,-99.3155 312.408,-98.3604 309.137,-97.2601"/>
<polygon fill="midnightblue" stroke="midnightblue" points="310.253,-93.9398 299.662,-93.6497 307.76,-100.481 310.253,-93.9398"/>
</g>
<!-- Node12 -->
<g id="node12" class="node"><title>Node12</title>
<polygon fill="none" stroke="#bfbfbf" points="1550.5,-74.5 1550.5,-93.5 1591.5,-93.5 1591.5,-74.5 1550.5,-74.5"/>
<text text-anchor="middle" x="1571" y="-81.5" font-family="Helvetica,sans-Serif" font-size="10.00">bitset</text>
</g>
<!-- Node10&#45;&gt;Node12 -->
<g id="edge13" class="edge"><title>Node10&#45;&gt;Node12</title>
<path fill="none" stroke="midnightblue" d="M1652.69,-136.841C1635.1,-125.681 1610.71,-110.198 1593.16,-99.0625"/>
<polygon fill="midnightblue" stroke="midnightblue" points="1595,-96.085 1584.68,-93.6819 1591.25,-101.995 1595,-96.085"/>
</g>
<!-- Node13 -->
<g id="node13" class="node"><title>Node13</title>
<polygon fill="none" stroke="#bfbfbf" points="1648.5,-74.5 1648.5,-93.5 1697.5,-93.5 1697.5,-74.5 1648.5,-74.5"/>
<text text-anchor="middle" x="1673" y="-81.5" font-family="Helvetica,sans-Serif" font-size="10.00">cassert</text>
</g>
<!-- Node10&#45;&gt;Node13 -->
<g id="edge14" class="edge"><title>Node10&#45;&gt;Node13</title>
<path fill="none" stroke="midnightblue" d="M1674.57,-136.679C1674.28,-127.101 1673.89,-114.394 1673.58,-103.977"/>
<polygon fill="midnightblue" stroke="midnightblue" points="1677.07,-103.718 1673.27,-93.8283 1670.07,-103.93 1677.07,-103.718"/>
</g>
<!-- Node14 -->
<g id="node14" class="node"><title>Node14</title>
<polygon fill="none" stroke="#bfbfbf" points="1716,-74.5 1716,-93.5 1762,-93.5 1762,-74.5 1716,-74.5"/>
<text text-anchor="middle" x="1739" y="-81.5" font-family="Helvetica,sans-Serif" font-size="10.00">cstdint</text>
</g>
<!-- Node10&#45;&gt;Node14 -->
<g id="edge15" class="edge"><title>Node10&#45;&gt;Node14</title>
<path fill="none" stroke="midnightblue" d="M1688.89,-136.679C1699.06,-126.184 1712.88,-111.932 1723.43,-101.052"/>
<polygon fill="midnightblue" stroke="midnightblue" points="1725.99,-103.444 1730.44,-93.8283 1720.97,-98.5708 1725.99,-103.444"/>
</g>
<!-- Node15 -->
<g id="node15" class="node"><title>Node15</title>
<polygon fill="none" stroke="#bfbfbf" points="1888,-74.5 1888,-93.5 1950,-93.5 1950,-74.5 1888,-74.5"/>
<text text-anchor="middle" x="1919" y="-81.5" font-family="Helvetica,sans-Serif" font-size="10.00">type_traits</text>
</g>
<!-- Node10&#45;&gt;Node15 -->
<g id="edge16" class="edge"><title>Node10&#45;&gt;Node15</title>
<path fill="none" stroke="midnightblue" d="M1738.92,-136.991C1779.39,-127.637 1832.64,-114.436 1879,-100 1881.95,-99.0815 1885,-98.0647 1888.04,-97.006"/>
<polygon fill="midnightblue" stroke="midnightblue" points="1889.36,-100.25 1897.57,-93.5502 1886.97,-93.669 1889.36,-100.25"/>
</g>
<!-- Node16 -->
<g id="node16" class="node"><title>Node16</title>
<g id="a_node16"><a xlink:href="../../d9/d52/Common_2MathUtils_2include_2MathUtils_2Utils_8h.html" target="_top" xlink:title="MathUtils/Utils.h">
<polygon fill="none" stroke="black" points="1780,-74.5 1780,-93.5 1870,-93.5 1870,-74.5 1780,-74.5"/>
<text text-anchor="middle" x="1825" y="-81.5" font-family="Helvetica,sans-Serif" font-size="10.00">MathUtils/Utils.h</text>
</a>
</g>
</g>
<!-- Node10&#45;&gt;Node16 -->
<g id="edge17" class="edge"><title>Node10&#45;&gt;Node16</title>
<path fill="none" stroke="midnightblue" d="M1707.18,-136.841C1733.47,-125.272 1770.33,-109.055 1795.78,-97.8547"/>
<polygon fill="midnightblue" stroke="midnightblue" points="1797.52,-100.913 1805.27,-93.6819 1794.71,-94.5057 1797.52,-100.913"/>
</g>
<!-- Node16&#45;&gt;Node9 -->
<g id="edge18" class="edge"><title>Node16&#45;&gt;Node9</title>
<path fill="none" stroke="midnightblue" d="M1798.2,-74.3717C1759.56,-61.9321 1688.5,-39.0534 1648.78,-26.2672"/>
<polygon fill="midnightblue" stroke="midnightblue" points="1649.76,-22.9042 1639.17,-23.1711 1647.61,-29.5674 1649.76,-22.9042"/>
</g>
<!-- Node17 -->
<g id="node17" class="node"><title>Node17</title>
<polygon fill="none" stroke="#bfbfbf" points="1894,-6.5 1894,-25.5 1938,-25.5 1938,-6.5 1894,-6.5"/>
<text text-anchor="middle" x="1916" y="-13.5" font-family="Helvetica,sans-Serif" font-size="10.00">cmath</text>
</g>
<!-- Node16&#45;&gt;Node17 -->
<g id="edge19" class="edge"><title>Node16&#45;&gt;Node17</title>
<path fill="none" stroke="midnightblue" d="M1836.9,-74.3717C1851.88,-63.5015 1877.86,-44.6602 1895.94,-31.5474"/>
<polygon fill="midnightblue" stroke="midnightblue" points="1898.06,-34.3349 1904.1,-25.6305 1893.95,-28.6684 1898.06,-34.3349"/>
</g>
<!-- Node18 -->
<g id="node18" class="node"><title>Node18</title>
<g id="a_node18"><a xlink:href="../../d6/d84/MathConstants_8h.html" target="_top" xlink:title="useful math constants ">
<polygon fill="none" stroke="black" points="1696.5,-6.5 1696.5,-25.5 1875.5,-25.5 1875.5,-6.5 1696.5,-6.5"/>
<text text-anchor="middle" x="1786" y="-13.5" font-family="Helvetica,sans-Serif" font-size="10.00">CommonConstants/MathConstants.h</text>
</a>
</g>
</g>
<!-- Node16&#45;&gt;Node18 -->
<g id="edge20" class="edge"><title>Node16&#45;&gt;Node18</title>
<path fill="none" stroke="midnightblue" d="M1819.9,-74.3717C1813.98,-64.3478 1804.05,-47.5455 1796.46,-34.7076"/>
<polygon fill="midnightblue" stroke="midnightblue" points="1799.32,-32.6698 1791.22,-25.8411 1793.3,-36.231 1799.32,-32.6698"/>
</g>
<!-- Node19&#45;&gt;Node11 -->
<g id="edge27" class="edge"><title>Node19&#45;&gt;Node11</title>
<path fill="none" stroke="midnightblue" d="M773.568,-142.483C761.551,-140.113 748.274,-137.72 736,-136 551.778,-110.179 499.882,-143.429 319,-100 315.931,-99.2632 312.784,-98.314 309.682,-97.2513"/>
<polygon fill="midnightblue" stroke="midnightblue" points="310.677,-93.8848 300.087,-93.5906 308.182,-100.425 310.677,-93.8848"/>
</g>
<!-- Node20 -->
<g id="node20" class="node"><title>Node20</title>
<polygon fill="none" stroke="#bfbfbf" points="1342.5,-69 1342.5,-99 1493.5,-99 1493.5,-69 1342.5,-69"/>
<text text-anchor="start" x="1350.5" y="-87" font-family="Helvetica,sans-Serif" font-size="10.00">Math/GenVector/Displacement</text>
<text text-anchor="middle" x="1418" y="-76" font-family="Helvetica,sans-Serif" font-size="10.00">Vector3D.h</text>
</g>
<!-- Node19&#45;&gt;Node20 -->
<g id="edge22" class="edge"><title>Node19&#45;&gt;Node20</title>
<path fill="none" stroke="midnightblue" d="M875.616,-146.423C971.62,-139.06 1161.14,-123.163 1332.11,-100.056"/>
<polygon fill="midnightblue" stroke="midnightblue" points="1332.61,-103.52 1342.05,-98.702 1331.66,-96.5844 1332.61,-103.52"/>
</g>
<!-- Node21 -->
<g id="node21" class="node"><title>Node21</title>
<polygon fill="none" stroke="#bfbfbf" points="392,-74.5 392,-93.5 568,-93.5 568,-74.5 392,-74.5"/>
<text text-anchor="middle" x="480" y="-81.5" font-family="Helvetica,sans-Serif" font-size="10.00">Math/GenVector/PositionVector3D.h</text>
</g>
<!-- Node19&#45;&gt;Node21 -->
<g id="edge23" class="edge"><title>Node19&#45;&gt;Node21</title>
<path fill="none" stroke="midnightblue" d="M769.807,-142.439C709.171,-130.421 598.894,-108.565 533.253,-95.5547"/>
<polygon fill="midnightblue" stroke="midnightblue" points="533.606,-92.0565 523.116,-93.5455 532.245,-98.923 533.606,-92.0565"/>
</g>
<!-- Node22 -->
<g id="node22" class="node"><title>Node22</title>
<polygon fill="none" stroke="#bfbfbf" points="728.5,-74.5 728.5,-93.5 877.5,-93.5 877.5,-74.5 728.5,-74.5"/>
<text text-anchor="middle" x="803" y="-81.5" font-family="Helvetica,sans-Serif" font-size="10.00">Math/GenVector/Rotation3D.h</text>
</g>
<!-- Node19&#45;&gt;Node22 -->
<g id="edge24" class="edge"><title>Node19&#45;&gt;Node22</title>
<path fill="none" stroke="midnightblue" d="M811.693,-142.372C810.219,-132.643 807.777,-116.528 805.856,-103.85"/>
<polygon fill="midnightblue" stroke="midnightblue" points="809.298,-103.204 804.34,-93.8411 802.377,-104.253 809.298,-103.204"/>
</g>
<!-- Node23 -->
<g id="node23" class="node"><title>Node23</title>
<polygon fill="none" stroke="#bfbfbf" points="896,-74.5 896,-93.5 1052,-93.5 1052,-74.5 896,-74.5"/>
<text text-anchor="middle" x="974" y="-81.5" font-family="Helvetica,sans-Serif" font-size="10.00">Math/GenVector/Transform3D.h</text>
</g>
<!-- Node19&#45;&gt;Node23 -->
<g id="edge25" class="edge"><title>Node19&#45;&gt;Node23</title>
<path fill="none" stroke="midnightblue" d="M834.048,-142.372C862.088,-130.877 911.872,-110.469 943.882,-97.3465"/>
<polygon fill="midnightblue" stroke="midnightblue" points="945.277,-100.557 953.202,-93.5259 942.622,-94.0805 945.277,-100.557"/>
</g>
<!-- Node24 -->
<g id="node24" class="node"><title>Node24</title>
<polygon fill="none" stroke="#bfbfbf" points="1070,-74.5 1070,-93.5 1230,-93.5 1230,-74.5 1070,-74.5"/>
<text text-anchor="middle" x="1150" y="-81.5" font-family="Helvetica,sans-Serif" font-size="10.00">Math/GenVector/Translation3D.h</text>
</g>
<!-- Node19&#45;&gt;Node24 -->
<g id="edge26" class="edge"><title>Node19&#45;&gt;Node24</title>
<path fill="none" stroke="midnightblue" d="M856.711,-142.439C918.203,-130.396 1030.14,-108.475 1096.52,-95.4745"/>
<polygon fill="midnightblue" stroke="midnightblue" points="1097.23,-98.9023 1106.37,-93.5455 1095.88,-92.0328 1097.23,-98.9023"/>
</g>
<!-- Node25 -->
<g id="node25" class="node"><title>Node25</title>
<polygon fill="none" stroke="#bfbfbf" points="1248,-74.5 1248,-93.5 1324,-93.5 1324,-74.5 1248,-74.5"/>
<text text-anchor="middle" x="1286" y="-81.5" font-family="Helvetica,sans-Serif" font-size="10.00">TGeoMatrix.h</text>
</g>
<!-- Node19&#45;&gt;Node25 -->
<g id="edge28" class="edge"><title>Node19&#45;&gt;Node25</title>
<path fill="none" stroke="midnightblue" d="M875.7,-147.229C959.324,-141.354 1111.62,-127.688 1239,-100 1243.45,-99.0323 1248.08,-97.8193 1252.63,-96.5046"/>
<polygon fill="midnightblue" stroke="midnightblue" points="1253.8,-99.8055 1262.33,-93.5199 1251.74,-93.1149 1253.8,-99.8055"/>
</g>
<!-- Node26 -->
<g id="node26" class="node"><title>Node26</title>
<polygon fill="none" stroke="#bfbfbf" points="328.5,-74.5 328.5,-93.5 373.5,-93.5 373.5,-74.5 328.5,-74.5"/>
<text text-anchor="middle" x="351" y="-81.5" font-family="Helvetica,sans-Serif" font-size="10.00">iosfwd</text>
</g>
<!-- Node19&#45;&gt;Node26 -->
<g id="edge29" class="edge"><title>Node19&#45;&gt;Node26</title>
<path fill="none" stroke="midnightblue" d="M772.757,-142.445C760.95,-140.13 747.99,-137.776 736,-136 579.999,-112.899 534.99,-142.062 383,-100 380.655,-99.351 378.269,-98.5432 375.91,-97.6413"/>
<polygon fill="midnightblue" stroke="midnightblue" points="377.113,-94.3481 366.547,-93.57 374.322,-100.767 377.113,-94.3481"/>
</g>
<!-- Node27 -->
<g id="node27" class="node"><title>Node27</title>
<g id="a_node27"><a xlink:href="../../d2/dd0/Cartesian2D_8h.html" target="_top" xlink:title="MathUtils/Cartesian2D.h">
<polygon fill="none" stroke="black" points="585.5,-74.5 585.5,-93.5 710.5,-93.5 710.5,-74.5 585.5,-74.5"/>
<text text-anchor="middle" x="648" y="-81.5" font-family="Helvetica,sans-Serif" font-size="10.00">MathUtils/Cartesian2D.h</text>
</a>
</g>
</g>
<!-- Node19&#45;&gt;Node27 -->
<g id="edge30" class="edge"><title>Node19&#45;&gt;Node27</title>
<path fill="none" stroke="midnightblue" d="M791.429,-142.372C762.692,-130.877 711.672,-110.469 678.866,-97.3465"/>
<polygon fill="midnightblue" stroke="midnightblue" points="679.899,-93.9902 669.315,-93.5259 677.3,-100.49 679.899,-93.9902"/>
</g>
<!-- Node28 -->
<g id="node28" class="node"><title>Node28</title>
<polygon fill="none" stroke="#bfbfbf" points="481.5,-1 481.5,-31 632.5,-31 632.5,-1 481.5,-1"/>
<text text-anchor="start" x="489.5" y="-19" font-family="Helvetica,sans-Serif" font-size="10.00">Math/GenVector/Displacement</text>
<text text-anchor="middle" x="557" y="-8" font-family="Helvetica,sans-Serif" font-size="10.00">Vector2D.h</text>
</g>
<!-- Node27&#45;&gt;Node28 -->
<g id="edge31" class="edge"><title>Node27&#45;&gt;Node28</title>
<path fill="none" stroke="midnightblue" d="M636.103,-74.3717C623.221,-65.0286 602.22,-49.7966 585.093,-37.375"/>
<polygon fill="midnightblue" stroke="midnightblue" points="586.703,-34.2194 576.553,-31.1815 582.593,-39.8859 586.703,-34.2194"/>
</g>
<!-- Node29 -->
<g id="node29" class="node"><title>Node29</title>
<polygon fill="none" stroke="#bfbfbf" points="651,-6.5 651,-25.5 827,-25.5 827,-6.5 651,-6.5"/>
<text text-anchor="middle" x="739" y="-13.5" font-family="Helvetica,sans-Serif" font-size="10.00">Math/GenVector/PositionVector2D.h</text>
</g>
<!-- Node27&#45;&gt;Node29 -->
<g id="edge32" class="edge"><title>Node27&#45;&gt;Node29</title>
<path fill="none" stroke="midnightblue" d="M659.897,-74.3717C674.884,-63.5015 700.862,-44.6602 718.942,-31.5474"/>
<polygon fill="midnightblue" stroke="midnightblue" points="721.06,-34.3349 727.1,-25.6305 716.95,-28.6684 721.06,-34.3349"/>
</g>
<!-- Node31 -->
<g id="node31" class="node"><title>Node31</title>
<g id="a_node31"><a xlink:href="../../d4/de2/BaseCluster_8h.html" target="_top" xlink:title="ReconstructionDataFormats\l/BaseCluster.h">
<polygon fill="none" stroke="black" points="571,-273 571,-303 711,-303 711,-273 571,-273"/>
<text text-anchor="start" x="579" y="-291" font-family="Helvetica,sans-Serif" font-size="10.00">ReconstructionDataFormats</text>
<text text-anchor="middle" x="641" y="-280" font-family="Helvetica,sans-Serif" font-size="10.00">/BaseCluster.h</text>
</a>
</g>
</g>
<!-- Node30&#45;&gt;Node31 -->
<g id="edge35" class="edge"><title>Node30&#45;&gt;Node31</title>
<path fill="none" stroke="midnightblue" d="M548.474,-340.403C563.579,-332.011 587.077,-318.957 606.612,-308.104"/>
<polygon fill="midnightblue" stroke="midnightblue" points="608.505,-311.057 615.547,-303.141 605.105,-304.938 608.505,-311.057"/>
</g>
<!-- Node31&#45;&gt;Node7 -->
<g id="edge41" class="edge"><title>Node31&#45;&gt;Node7</title>
<path fill="none" stroke="midnightblue" d="M681.116,-272.841C709.683,-262.759 748.249,-249.147 778.695,-238.402"/>
<polygon fill="midnightblue" stroke="midnightblue" points="780.006,-241.651 788.272,-235.022 777.677,-235.05 780.006,-241.651"/>
</g>
<!-- Node31&#45;&gt;Node12 -->
<g id="edge37" class="edge"><title>Node31&#45;&gt;Node12</title>
<path fill="none" stroke="midnightblue" d="M711.171,-273.439C714.152,-272.938 717.104,-272.456 720,-272 903.405,-243.113 1409.2,-290.181 1549,-168 1567.21,-152.084 1571.18,-123.003 1571.64,-103.838"/>
<polygon fill="midnightblue" stroke="midnightblue" points="1575.14,-103.612 1571.58,-93.6335 1568.14,-103.654 1575.14,-103.612"/>
</g>
<!-- Node31&#45;&gt;Node19 -->
<g id="edge42" class="edge"><title>Node31&#45;&gt;Node19</title>
<path fill="none" stroke="midnightblue" d="M657.317,-272.8C676.859,-255.95 710.75,-227.213 741,-204 757.806,-191.103 777.467,-177.257 791.993,-167.251"/>
<polygon fill="midnightblue" stroke="midnightblue" points="794.03,-170.098 800.303,-161.559 790.074,-164.322 794.03,-170.098"/>
</g>
<!-- Node31&#45;&gt;Node26 -->
<g id="edge40" class="edge"><title>Node31&#45;&gt;Node26</title>
<path fill="none" stroke="midnightblue" d="M651.55,-272.873C663.261,-255.319 678.695,-225.107 664,-204 587.913,-94.709 505.842,-151.417 383,-100 381.366,-99.316 379.693,-98.5954 378.011,-97.8552"/>
<polygon fill="midnightblue" stroke="midnightblue" points="379.038,-94.4771 368.487,-93.52 376.138,-100.848 379.038,-94.4771"/>
</g>
<!-- Node32 -->
<g id="node32" class="node"><title>Node32</title>
<polygon fill="none" stroke="#bfbfbf" points="480.5,-210.5 480.5,-229.5 539.5,-229.5 539.5,-210.5 480.5,-210.5"/>
<text text-anchor="middle" x="510" y="-217.5" font-family="Helvetica,sans-Serif" font-size="10.00">TObject.h</text>
</g>
<!-- Node31&#45;&gt;Node32 -->
<g id="edge36" class="edge"><title>Node31&#45;&gt;Node32</title>
<path fill="none" stroke="midnightblue" d="M612.897,-272.841C590.238,-261.425 558.599,-245.485 536.405,-234.303"/>
<polygon fill="midnightblue" stroke="midnightblue" points="537.738,-231.056 527.232,-229.682 534.588,-237.307 537.738,-231.056"/>
</g>
<!-- Node33 -->
<g id="node33" class="node"><title>Node33</title>
<polygon fill="none" stroke="#bfbfbf" points="558,-210.5 558,-229.5 608,-229.5 608,-210.5 558,-210.5"/>
<text text-anchor="middle" x="583" y="-217.5" font-family="Helvetica,sans-Serif" font-size="10.00">iomanip</text>
</g>
<!-- Node31&#45;&gt;Node33 -->
<g id="edge38" class="edge"><title>Node31&#45;&gt;Node33</title>
<path fill="none" stroke="midnightblue" d="M628.415,-272.679C619.282,-262.286 606.91,-248.208 597.386,-237.37"/>
<polygon fill="midnightblue" stroke="midnightblue" points="599.988,-235.03 590.758,-229.828 594.73,-239.65 599.988,-235.03"/>
</g>
<!-- Node34 -->
<g id="node34" class="node"><title>Node34</title>
<polygon fill="none" stroke="#bfbfbf" points="626.5,-210.5 626.5,-229.5 655.5,-229.5 655.5,-210.5 626.5,-210.5"/>
<text text-anchor="middle" x="641" y="-217.5" font-family="Helvetica,sans-Serif" font-size="10.00">ios</text>
</g>
<!-- Node31&#45;&gt;Node34 -->
<g id="edge39" class="edge"><title>Node31&#45;&gt;Node34</title>
<path fill="none" stroke="midnightblue" d="M641,-272.679C641,-263.101 641,-250.394 641,-239.977"/>
<polygon fill="midnightblue" stroke="midnightblue" points="644.5,-239.828 641,-229.828 637.5,-239.828 644.5,-239.828"/>
</g>
<!-- Node35&#45;&gt;Node3 -->
<g id="edge54" class="edge"><title>Node35&#45;&gt;Node3</title>
<path fill="none" stroke="midnightblue" d="M226.643,-272.741C219.465,-255.051 205.353,-224.699 186,-204 177.482,-194.89 150.988,-178.485 131.011,-166.74"/>
<polygon fill="midnightblue" stroke="midnightblue" points="132.511,-163.563 122.107,-161.558 128.989,-169.613 132.511,-163.563"/>
</g>
<!-- Node35&#45;&gt;Node11 -->
<g id="edge44" class="edge"><title>Node35&#45;&gt;Node11</title>
<path fill="none" stroke="midnightblue" d="M235.65,-272.724C241.347,-250.399 252.667,-205.857 262,-168 267.419,-146.017 273.492,-120.718 277.509,-103.886"/>
<polygon fill="midnightblue" stroke="midnightblue" points="281.015,-104.27 279.928,-93.7306 274.206,-102.647 281.015,-104.27"/>
</g>
<!-- Node35&#45;&gt;Node36 -->
<g id="edge45" class="edge"><title>Node35&#45;&gt;Node36</title>
<path fill="none" stroke="midnightblue" d="M207.544,-272.841C191.165,-263.359 169.393,-250.754 151.42,-240.348"/>
<polygon fill="midnightblue" stroke="midnightblue" points="152.823,-237.117 142.415,-235.135 149.316,-243.175 152.823,-237.117"/>
</g>
<!-- Node37 -->
<g id="node37" class="node"><title>Node37</title>
<g id="a_node37"><a xlink:href="../../d0/d06/ITSMFT_2common_2base_2include_2ITSMFTBase_2Digit_8h.html" target="_top" xlink:title="ITSMFTBase/Digit.h">
<polygon fill="none" stroke="black" points="146.5,-142.5 146.5,-161.5 253.5,-161.5 253.5,-142.5 146.5,-142.5"/>
<text text-anchor="middle" x="200" y="-149.5" font-family="Helvetica,sans-Serif" font-size="10.00">ITSMFTBase/Digit.h</text>
</a>
</g>
</g>
<!-- Node35&#45;&gt;Node37 -->
<g id="edge51" class="edge"><title>Node35&#45;&gt;Node37</title>
<path fill="none" stroke="midnightblue" d="M230.965,-272.999C229.507,-256.34 226.294,-227.787 220,-204 217.034,-192.792 212.358,-180.693 208.273,-171.094"/>
<polygon fill="midnightblue" stroke="midnightblue" points="211.419,-169.555 204.18,-161.819 205.015,-172.381 211.419,-169.555"/>
</g>
<!-- Node35&#45;&gt;Node39 -->
<g id="edge52" class="edge"><title>Node35&#45;&gt;Node39</title>
<path fill="none" stroke="midnightblue" d="M269.113,-272.841C295.312,-262.846 330.602,-249.383 358.653,-238.682"/>
<polygon fill="midnightblue" stroke="midnightblue" points="360.15,-241.856 368.246,-235.022 357.655,-235.316 360.15,-241.856"/>
</g>
<!-- Node36&#45;&gt;Node2 -->
<g id="edge50" class="edge"><title>Node36&#45;&gt;Node2</title>
<path fill="none" stroke="midnightblue" d="M96.7355,-204.679C80.3011,-193.611 57.6602,-178.363 41.2336,-167.3"/>
<polygon fill="midnightblue" stroke="midnightblue" points="43.0754,-164.321 32.8259,-161.638 39.1652,-170.127 43.0754,-164.321"/>
</g>
<!-- Node36&#45;&gt;Node3 -->
<g id="edge49" class="edge"><title>Node36&#45;&gt;Node3</title>
<path fill="none" stroke="midnightblue" d="M115.613,-204.679C114.017,-195.101 111.899,-182.394 110.163,-171.977"/>
<polygon fill="midnightblue" stroke="midnightblue" points="113.568,-171.117 108.471,-161.828 106.663,-172.268 113.568,-171.117"/>
</g>
<!-- Node36&#45;&gt;Node37 -->
<g id="edge46" class="edge"><title>Node36&#45;&gt;Node37</title>
<path fill="none" stroke="midnightblue" d="M135.793,-204.679C149.211,-193.879 167.575,-179.098 181.227,-168.11"/>
<polygon fill="midnightblue" stroke="midnightblue" points="183.436,-170.825 189.032,-161.828 179.047,-165.372 183.436,-170.825"/>
</g>
<!-- Node37&#45;&gt;Node11 -->
<g id="edge47" class="edge"><title>Node37&#45;&gt;Node11</title>
<path fill="none" stroke="midnightblue" d="M210.72,-142.372C224.103,-131.6 247.209,-113.002 263.48,-99.9065"/>
<polygon fill="midnightblue" stroke="midnightblue" points="265.682,-102.627 271.277,-93.6305 261.293,-97.174 265.682,-102.627"/>
</g>
<!-- Node38 -->
<g id="node38" class="node"><title>Node38</title>
<polygon fill="none" stroke="#bfbfbf" points="177.5,-74.5 177.5,-93.5 222.5,-93.5 222.5,-74.5 177.5,-74.5"/>
<text text-anchor="middle" x="200" y="-81.5" font-family="Helvetica,sans-Serif" font-size="10.00">climits</text>
</g>
<!-- Node37&#45;&gt;Node38 -->
<g id="edge48" class="edge"><title>Node37&#45;&gt;Node38</title>
<path fill="none" stroke="midnightblue" d="M200,-142.372C200,-132.643 200,-116.528 200,-103.85"/>
<polygon fill="midnightblue" stroke="midnightblue" points="203.5,-103.841 200,-93.8411 196.5,-103.841 203.5,-103.841"/>
</g>
<!-- Node39&#45;&gt;Node11 -->
<g id="edge53" class="edge"><title>Node39&#45;&gt;Node11</title>
<path fill="none" stroke="midnightblue" d="M393.553,-204.872C379.811,-188.089 355.876,-159.418 334,-136 322.693,-123.896 309.344,-110.827 299.002,-100.949"/>
<polygon fill="midnightblue" stroke="midnightblue" points="301.115,-98.1294 291.449,-93.7906 296.299,-103.21 301.115,-98.1294"/>
</g>
</g>
</svg>
        <g id="navigator" transform="translate(0 0)" fill="#404254">
                <rect fill="#f2f5e9" fill-opacity="0.5" stroke="#606060" stroke-width=".5" x="0" y="0" width="60" height="60"/>
                <use id="zoomplus" xlink:href="#zoomPlus" x="17" y="9" onmousedown="handleZoom(evt,'in')"/>
                <use id="zoomminus" xlink:href="#zoomMin" x="42" y="9" onmousedown="handleZoom(evt,'out')"/>
                <use id="reset" xlink:href="#resetDef" x="30" y="36" onmousedown="handleReset()"/>
                <g id="arrowUp" xlink:href="#dirArrow" transform="translate(30 24)" onmousedown="handlePan(0,-1)">
                  <use xlink:href="#rim" fill="#404040">
                        <set attributeName="fill" to="#808080" begin="arrowUp.mouseover" end="arrowUp.mouseout"/>
                  </use>
                  <path fill="none" stroke="white" stroke-width="1.5" d="M0,-3.0v7 M-2.5,-0.5L0,-3.0L2.5,-0.5"/>
                </g>
                <g id="arrowRight" xlink:href="#dirArrow" transform="rotate(90) translate(36 -43)" onmousedown="handlePan(1,0)">
                  <use xlink:href="#rim" fill="#404040">
                        <set attributeName="fill" to="#808080" begin="arrowRight.mouseover" end="arrowRight.mouseout"/>
                  </use>
                  <path fill="none" stroke="white" stroke-width="1.5" d="M0,-3.0v7 M-2.5,-0.5L0,-3.0L2.5,-0.5"/>
                </g>
                <g id="arrowDown" xlink:href="#dirArrow" transform="rotate(180) translate(-30 -48)" onmousedown="handlePan(0,1)">
                  <use xlink:href="#rim" fill="#404040">
                        <set attributeName="fill" to="#808080" begin="arrowDown.mouseover" end="arrowDown.mouseout"/>
                  </use>
                  <path fill="none" stroke="white" stroke-width="1.5" d="M0,-3.0v7 M-2.5,-0.5L0,-3.0L2.5,-0.5"/>
                </g>
                <g id="arrowLeft" xlink:href="#dirArrow" transform="rotate(270) translate(-36 17)" onmousedown="handlePan(-1,0)">
                  <use xlink:href="#rim" fill="#404040">
                        <set attributeName="fill" to="#808080" begin="arrowLeft.mouseover" end="arrowLeft.mouseout"/>
                  </use>
                  <path fill="none" stroke="white" stroke-width="1.5" d="M0,-3.0v7 M-2.5,-0.5L0,-3.0L2.5,-0.5"/>
                </g>
        </g>
        <svg viewBox="0 0 15 15" width="100%" height="30px" preserveAspectRatio="xMaxYMin meet">
         <g id="arrow_out" transform="scale(0.3 0.3)">
          <a xlink:href="ITSMFT_2common_2reconstruction_2include_2ITSMFTReconstruction_2Clusterer_8h__incl_org.svg" target="_base">
           <rect id="button" ry="5" rx="5" y="6" x="6" height="38" width="38"
                fill="#f2f5e9" fill-opacity="0.5" stroke="#606060" stroke-width="1.0"/>
           <path id="arrow"
             d="M 11.500037,31.436501 C 11.940474,20.09759 22.043105,11.32322 32.158766,21.979434 L 37.068811,17.246167 C 37.068811,17.246167 37.088388,32 37.088388,32 L 22.160133,31.978069 C 22.160133,31.978069 26.997745,27.140456 26.997745,27.140456 C 18.528582,18.264221 13.291696,25.230495 11.500037,31.436501 z"
             style="fill:#404040;"/>
          </a>
         </g>
        </svg>
</svg>
