<?xml version="1.0" encoding="UTF-8" standalone="no"?>
<!DOCTYPE svg PUBLIC "-//W3C//DTD SVG 1.1//EN"
 "http://www.w3.org/Graphics/SVG/1.1/DTD/svg11.dtd">
<!-- Generated by graphviz version 2.36.0 (20140111.2315)
 -->
<!-- Title: o2::ITSMFT::DigitPixelReader Pages: 1 -->
<svg width="156pt" height="294pt"
 viewBox="0.00 0.00 156.00 294.00" xmlns="http://www.w3.org/2000/svg" xmlns:xlink="http://www.w3.org/1999/xlink">
<g id="graph0" class="graph" transform="scale(1 1) rotate(0) translate(4 290)">
<title>o2::ITSMFT::DigitPixelReader</title>
<!-- Node1 -->
<g id="node1" class="node"><title>Node1</title>
<polygon fill="#bfbfbf" stroke="black" points="-0.5,-1 -0.5,-113 148.5,-113 148.5,-1 -0.5,-1"/>
<text text-anchor="middle" x="74" y="-101" font-family="Helvetica,sans-Serif" font-size="10.00">o2::ITSMFT::DigitPixelReader</text>
<polyline fill="none" stroke="black" points="-0.5,-94 148.5,-94 "/>
<text text-anchor="middle" x="74" y="-82" font-family="Helvetica,sans-Serif" font-size="10.00"> </text>
<polyline fill="none" stroke="black" points="-0.5,-75 148.5,-75 "/>
<text text-anchor="start" x="7.5" y="-63" font-family="Helvetica,sans-Serif" font-size="10.00">+ DigitPixelReader()</text>
<text text-anchor="start" x="7.5" y="-52" font-family="Helvetica,sans-Serif" font-size="10.00">+ ~DigitPixelReader()</text>
<text text-anchor="start" x="7.5" y="-41" font-family="Helvetica,sans-Serif" font-size="10.00">+ setDigitArray()</text>
<text text-anchor="start" x="7.5" y="-30" font-family="Helvetica,sans-Serif" font-size="10.00">+ init()</text>
<text text-anchor="start" x="7.5" y="-19" font-family="Helvetica,sans-Serif" font-size="10.00">+ getNextChipData()</text>
<text text-anchor="start" x="7.5" y="-8" font-family="Helvetica,sans-Serif" font-size="10.00">+ getNextChipData()</text>
</g>
<!-- Node2 -->
<g id="node2" class="node"><title>Node2</title>
<g id="a_node2"><a xlink:href="../../de/d6d/classo2_1_1ITSMFT_1_1PixelReader.html" target="_top" xlink:title="PixelReader class for the ITSMFT. ">
<polygon fill="none" stroke="black" points="10,-151 10,-285 138,-285 138,-151 10,-151"/>
<text text-anchor="middle" x="74" y="-273" font-family="Helvetica,sans-Serif" font-size="10.00">o2::ITSMFT::PixelReader</text>
<polyline fill="none" stroke="black" points="10,-266 138,-266 "/>
<text text-anchor="middle" x="74" y="-254" font-family="Helvetica,sans-Serif" font-size="10.00"> </text>
<polyline fill="none" stroke="black" points="10,-247 138,-247 "/>
<text text-anchor="start" x="18" y="-235" font-family="Helvetica,sans-Serif" font-size="10.00">+ PixelReader()</text>
<text text-anchor="start" x="18" y="-224" font-family="Helvetica,sans-Serif" font-size="10.00">+ ~PixelReader()</text>
<text text-anchor="start" x="18" y="-213" font-family="Helvetica,sans-Serif" font-size="10.00">+ PixelReader()</text>
<text text-anchor="start" x="18" y="-202" font-family="Helvetica,sans-Serif" font-size="10.00">+ operator=()</text>
<text text-anchor="start" x="18" y="-191" font-family="Helvetica,sans-Serif" font-size="10.00">+ init()</text>
<text text-anchor="start" x="18" y="-180" font-family="Helvetica,sans-Serif" font-size="10.00">+ getNextChipData()</text>
<text text-anchor="start" x="18" y="-169" font-family="Helvetica,sans-Serif" font-size="10.00">+ getNextChipData()</text>
<text text-anchor="start" x="18" y="-158" font-family="Helvetica,sans-Serif" font-size="10.00"># ClassDef()</text>
</a>
</g>
</g>
<!-- Node2&#45;&gt;Node1 -->
<g id="edge1" class="edge"><title>Node2&#45;&gt;Node1</title>
<path fill="none" stroke="midnightblue" d="M74,-140.657C74,-131.494 74,-122.276 74,-113.49"/>
<polygon fill="none" stroke="midnightblue" points="70.5001,-140.951 74,-150.951 77.5001,-140.951 70.5001,-140.951"/>
</g>
</g>
</svg>
