<?xml version="1.0" encoding="UTF-8" standalone="no"?>
<!DOCTYPE svg PUBLIC "-//W3C//DTD SVG 1.1//EN"
 "http://www.w3.org/Graphics/SVG/1.1/DTD/svg11.dtd">
<!-- Generated by graphviz version 2.36.0 (20140111.2315)
 -->
<!-- Title: /home/travis/build/AliceO2Group/AliceO2/Detectors/FIT/base/include/FITBase/Geometry.h Pages: 1 -->
<svg width="665pt" height="432pt"
 viewBox="0.00 0.00 665.00 432.00" xmlns="http://www.w3.org/2000/svg" xmlns:xlink="http://www.w3.org/1999/xlink">
<g id="graph0" class="graph" transform="scale(1 1) rotate(0) translate(4 428)">
<title>/home/travis/build/AliceO2Group/AliceO2/Detectors/FIT/base/include/FITBase/Geometry.h</title>
<!-- Node1 -->
<g id="node1" class="node"><title>Node1</title>
<polygon fill="#bfbfbf" stroke="black" points="279,-371 279,-423 417,-423 417,-371 279,-371"/>
<text text-anchor="start" x="287" y="-411" font-family="Helvetica,sans-Serif" font-size="10.00">/home/travis/build</text>
<text text-anchor="start" x="287" y="-400" font-family="Helvetica,sans-Serif" font-size="10.00">/AliceO2Group/AliceO2</text>
<text text-anchor="start" x="287" y="-389" font-family="Helvetica,sans-Serif" font-size="10.00">/Detectors/FIT/base/include</text>
<text text-anchor="middle" x="348" y="-378" font-family="Helvetica,sans-Serif" font-size="10.00">/FITBase/Geometry.h</text>
</g>
<!-- Node2 -->
<g id="node2" class="node"><title>Node2</title>
<g id="a_node2"><a xlink:href="../../de/db4/FIT_2base_2src_2Geometry_8cxx.html" target="_top" xlink:title="/home/travis/build\l/AliceO2Group/AliceO2\l/Detectors/FIT/base/src\l/Geometry.cxx">
<polygon fill="none" stroke="black" points="50.5,-281 50.5,-333 171.5,-333 171.5,-281 50.5,-281"/>
<text text-anchor="start" x="58.5" y="-321" font-family="Helvetica,sans-Serif" font-size="10.00">/home/travis/build</text>
<text text-anchor="start" x="58.5" y="-310" font-family="Helvetica,sans-Serif" font-size="10.00">/AliceO2Group/AliceO2</text>
<text text-anchor="start" x="58.5" y="-299" font-family="Helvetica,sans-Serif" font-size="10.00">/Detectors/FIT/base/src</text>
<text text-anchor="middle" x="111" y="-288" font-family="Helvetica,sans-Serif" font-size="10.00">/Geometry.cxx</text>
</a>
</g>
</g>
<!-- Node1&#45;&gt;Node2 -->
<g id="edge1" class="edge"><title>Node1&#45;&gt;Node2</title>
<path fill="none" stroke="midnightblue" d="M270.235,-367.427C241.825,-356.954 209.443,-344.98 180,-334 177.241,-332.971 174.421,-331.917 171.573,-330.851"/>
<polygon fill="midnightblue" stroke="midnightblue" points="269.115,-370.744 279.708,-370.917 271.535,-364.175 269.115,-370.744"/>
</g>
<!-- Node3 -->
<g id="node3" class="node"><title>Node3</title>
<g id="a_node3"><a xlink:href="../../d3/d21/RecPoints_8cxx.html" target="_top" xlink:title="/home/travis/build\l/AliceO2Group/AliceO2\l/Detectors/FIT/reconstruction\l/src/RecPoints.cxx">
<polygon fill="none" stroke="black" points="189.5,-281 189.5,-333 334.5,-333 334.5,-281 189.5,-281"/>
<text text-anchor="start" x="197.5" y="-321" font-family="Helvetica,sans-Serif" font-size="10.00">/home/travis/build</text>
<text text-anchor="start" x="197.5" y="-310" font-family="Helvetica,sans-Serif" font-size="10.00">/AliceO2Group/AliceO2</text>
<text text-anchor="start" x="197.5" y="-299" font-family="Helvetica,sans-Serif" font-size="10.00">/Detectors/FIT/reconstruction</text>
<text text-anchor="middle" x="262" y="-288" font-family="Helvetica,sans-Serif" font-size="10.00">/src/RecPoints.cxx</text>
</a>
</g>
</g>
<!-- Node1&#45;&gt;Node3 -->
<g id="edge2" class="edge"><title>Node1&#45;&gt;Node3</title>
<path fill="none" stroke="midnightblue" d="M315.885,-363.139C306.169,-353.196 295.658,-342.441 286.522,-333.092"/>
<polygon fill="midnightblue" stroke="midnightblue" points="313.633,-365.841 323.125,-370.547 318.639,-360.949 313.633,-365.841"/>
</g>
<!-- Node4 -->
<g id="node4" class="node"><title>Node4</title>
<g id="a_node4"><a xlink:href="../../de/d6b/FIT_2simulation_2include_2FITSimulation_2Detector_8h.html" target="_top" xlink:title="/home/travis/build\l/AliceO2Group/AliceO2\l/Detectors/FIT/simulation\l/include/FITSimulation/Detector.h">
<polygon fill="none" stroke="black" points="352.5,-281 352.5,-333 515.5,-333 515.5,-281 352.5,-281"/>
<text text-anchor="start" x="360.5" y="-321" font-family="Helvetica,sans-Serif" font-size="10.00">/home/travis/build</text>
<text text-anchor="start" x="360.5" y="-310" font-family="Helvetica,sans-Serif" font-size="10.00">/AliceO2Group/AliceO2</text>
<text text-anchor="start" x="360.5" y="-299" font-family="Helvetica,sans-Serif" font-size="10.00">/Detectors/FIT/simulation</text>
<text text-anchor="middle" x="434" y="-288" font-family="Helvetica,sans-Serif" font-size="10.00">/include/FITSimulation/Detector.h</text>
</a>
</g>
</g>
<!-- Node1&#45;&gt;Node4 -->
<g id="edge3" class="edge"><title>Node1&#45;&gt;Node4</title>
<path fill="none" stroke="midnightblue" d="M380.115,-363.139C389.831,-353.196 400.342,-342.441 409.478,-333.092"/>
<polygon fill="midnightblue" stroke="midnightblue" points="377.361,-360.949 372.875,-370.547 382.367,-365.841 377.361,-360.949"/>
</g>
<!-- Node10 -->
<g id="node10" class="node"><title>Node10</title>
<g id="a_node10"><a xlink:href="../../d3/d5e/FIT_2simulation_2src_2Detector_8cxx.html" target="_top" xlink:title="/home/travis/build\l/AliceO2Group/AliceO2\l/Detectors/FIT/simulation\l/src/Detector.cxx">
<polygon fill="none" stroke="black" points="529,-191 529,-243 657,-243 657,-191 529,-191"/>
<text text-anchor="start" x="537" y="-231" font-family="Helvetica,sans-Serif" font-size="10.00">/home/travis/build</text>
<text text-anchor="start" x="537" y="-220" font-family="Helvetica,sans-Serif" font-size="10.00">/AliceO2Group/AliceO2</text>
<text text-anchor="start" x="537" y="-209" font-family="Helvetica,sans-Serif" font-size="10.00">/Detectors/FIT/simulation</text>
<text text-anchor="middle" x="593" y="-198" font-family="Helvetica,sans-Serif" font-size="10.00">/src/Detector.cxx</text>
</a>
</g>
</g>
<!-- Node1&#45;&gt;Node10 -->
<g id="edge14" class="edge"><title>Node1&#45;&gt;Node10</title>
<path fill="none" stroke="midnightblue" d="M427.045,-380.685C459.692,-371.358 496.295,-356.701 524,-334 553.544,-309.793 573.439,-269.384 583.995,-243.22"/>
<polygon fill="midnightblue" stroke="midnightblue" points="425.78,-377.402 417.055,-383.412 427.623,-384.155 425.78,-377.402"/>
</g>
<!-- Node5 -->
<g id="node5" class="node"><title>Node5</title>
<g id="a_node5"><a xlink:href="../../d3/da0/FIT_2simulation_2include_2FITSimulation_2Digitizer_8h.html" target="_top" xlink:title="/home/travis/build\l/AliceO2Group/AliceO2\l/Detectors/FIT/simulation\l/include/FITSimulation/Digitizer.h">
<polygon fill="none" stroke="black" points="195.5,-191 195.5,-243 356.5,-243 356.5,-191 195.5,-191"/>
<text text-anchor="start" x="203.5" y="-231" font-family="Helvetica,sans-Serif" font-size="10.00">/home/travis/build</text>
<text text-anchor="start" x="203.5" y="-220" font-family="Helvetica,sans-Serif" font-size="10.00">/AliceO2Group/AliceO2</text>
<text text-anchor="start" x="203.5" y="-209" font-family="Helvetica,sans-Serif" font-size="10.00">/Detectors/FIT/simulation</text>
<text text-anchor="middle" x="276" y="-198" font-family="Helvetica,sans-Serif" font-size="10.00">/include/FITSimulation/Digitizer.h</text>
</a>
</g>
</g>
<!-- Node4&#45;&gt;Node5 -->
<g id="edge4" class="edge"><title>Node4&#45;&gt;Node5</title>
<path fill="none" stroke="midnightblue" d="M379.805,-275.815C360.647,-265.145 339.323,-253.268 321.01,-243.069"/>
<polygon fill="midnightblue" stroke="midnightblue" points="378.284,-278.975 388.724,-280.783 381.69,-272.859 378.284,-278.975"/>
</g>
<!-- Node6 -->
<g id="node6" class="node"><title>Node6</title>
<g id="a_node6"><a xlink:href="../../d4/dcd/FIT_2simulation_2include_2FITSimulation_2DigitizerTask_8h.html" target="_top" xlink:title="/home/travis/build\l/AliceO2Group/AliceO2\l/Detectors/FIT/simulation\l/include/FITSimulation/Digitizer\lTask.h">
<polygon fill="none" stroke="black" points="57.5,-90.5 57.5,-153.5 210.5,-153.5 210.5,-90.5 57.5,-90.5"/>
<text text-anchor="start" x="65.5" y="-141.5" font-family="Helvetica,sans-Serif" font-size="10.00">/home/travis/build</text>
<text text-anchor="start" x="65.5" y="-130.5" font-family="Helvetica,sans-Serif" font-size="10.00">/AliceO2Group/AliceO2</text>
<text text-anchor="start" x="65.5" y="-119.5" font-family="Helvetica,sans-Serif" font-size="10.00">/Detectors/FIT/simulation</text>
<text text-anchor="start" x="65.5" y="-108.5" font-family="Helvetica,sans-Serif" font-size="10.00">/include/FITSimulation/Digitizer</text>
<text text-anchor="middle" x="134" y="-97.5" font-family="Helvetica,sans-Serif" font-size="10.00">Task.h</text>
</a>
</g>
</g>
<!-- Node4&#45;&gt;Node6 -->
<g id="edge9" class="edge"><title>Node4&#45;&gt;Node6</title>
<path fill="none" stroke="midnightblue" d="M342.328,-280.054C270.819,-264.404 238.615,-287.883 186,-244 158.608,-221.154 145.29,-181.22 139.066,-153.507"/>
<polygon fill="midnightblue" stroke="midnightblue" points="341.664,-283.494 352.203,-282.409 343.287,-276.685 341.664,-283.494"/>
</g>
<!-- Node4&#45;&gt;Node10 -->
<g id="edge10" class="edge"><title>Node4&#45;&gt;Node10</title>
<path fill="none" stroke="midnightblue" d="M488.538,-275.815C507.817,-265.145 529.276,-253.268 547.705,-243.069"/>
<polygon fill="midnightblue" stroke="midnightblue" points="486.618,-272.878 479.563,-280.783 490.007,-279.003 486.618,-272.878"/>
</g>
<!-- Node11 -->
<g id="node11" class="node"><title>Node11</title>
<g id="a_node11"><a xlink:href="../../db/d50/O2HitMerger_8h.html" target="_top" xlink:title="/home/travis/build\l/AliceO2Group/AliceO2\l/run/O2HitMerger.h">
<polygon fill="none" stroke="black" points="375,-196.5 375,-237.5 493,-237.5 493,-196.5 375,-196.5"/>
<text text-anchor="start" x="383" y="-225.5" font-family="Helvetica,sans-Serif" font-size="10.00">/home/travis/build</text>
<text text-anchor="start" x="383" y="-214.5" font-family="Helvetica,sans-Serif" font-size="10.00">/AliceO2Group/AliceO2</text>
<text text-anchor="middle" x="434" y="-203.5" font-family="Helvetica,sans-Serif" font-size="10.00">/run/O2HitMerger.h</text>
</a>
</g>
</g>
<!-- Node4&#45;&gt;Node11 -->
<g id="edge11" class="edge"><title>Node4&#45;&gt;Node11</title>
<path fill="none" stroke="midnightblue" d="M434,-270.515C434,-259.257 434,-247.227 434,-237.525"/>
<polygon fill="midnightblue" stroke="midnightblue" points="430.5,-270.547 434,-280.547 437.5,-270.547 430.5,-270.547"/>
</g>
<!-- Node5&#45;&gt;Node6 -->
<g id="edge5" class="edge"><title>Node5&#45;&gt;Node6</title>
<path fill="none" stroke="midnightblue" d="M229.147,-185.315C213.618,-175.144 196.339,-163.827 180.812,-153.659"/>
<polygon fill="midnightblue" stroke="midnightblue" points="227.29,-188.282 237.573,-190.833 231.125,-182.426 227.29,-188.282"/>
</g>
<!-- Node9 -->
<g id="node9" class="node"><title>Node9</title>
<g id="a_node9"><a xlink:href="../../d1/d0b/FIT_2simulation_2src_2Digitizer_8cxx.html" target="_top" xlink:title="/home/travis/build\l/AliceO2Group/AliceO2\l/Detectors/FIT/simulation\l/src/Digitizer.cxx">
<polygon fill="none" stroke="black" points="229,-96 229,-148 357,-148 357,-96 229,-96"/>
<text text-anchor="start" x="237" y="-136" font-family="Helvetica,sans-Serif" font-size="10.00">/home/travis/build</text>
<text text-anchor="start" x="237" y="-125" font-family="Helvetica,sans-Serif" font-size="10.00">/AliceO2Group/AliceO2</text>
<text text-anchor="start" x="237" y="-114" font-family="Helvetica,sans-Serif" font-size="10.00">/Detectors/FIT/simulation</text>
<text text-anchor="middle" x="293" y="-103" font-family="Helvetica,sans-Serif" font-size="10.00">/src/Digitizer.cxx</text>
</a>
</g>
</g>
<!-- Node5&#45;&gt;Node9 -->
<g id="edge8" class="edge"><title>Node5&#45;&gt;Node9</title>
<path fill="none" stroke="midnightblue" d="M282.48,-180.549C284.459,-169.722 286.594,-158.046 288.419,-148.06"/>
<polygon fill="midnightblue" stroke="midnightblue" points="279.001,-180.121 280.645,-190.587 285.887,-181.38 279.001,-180.121"/>
</g>
<!-- Node7 -->
<g id="node7" class="node"><title>Node7</title>
<g id="a_node7"><a xlink:href="../../d5/d69/FIT_2simulation_2src_2DigitizerTask_8cxx.html" target="_top" xlink:title="/home/travis/build\l/AliceO2Group/AliceO2\l/Detectors/FIT/simulation\l/src/DigitizerTask.cxx">
<polygon fill="none" stroke="black" points="0,-1 0,-53 128,-53 128,-1 0,-1"/>
<text text-anchor="start" x="8" y="-41" font-family="Helvetica,sans-Serif" font-size="10.00">/home/travis/build</text>
<text text-anchor="start" x="8" y="-30" font-family="Helvetica,sans-Serif" font-size="10.00">/AliceO2Group/AliceO2</text>
<text text-anchor="start" x="8" y="-19" font-family="Helvetica,sans-Serif" font-size="10.00">/Detectors/FIT/simulation</text>
<text text-anchor="middle" x="64" y="-8" font-family="Helvetica,sans-Serif" font-size="10.00">/src/DigitizerTask.cxx</text>
</a>
</g>
</g>
<!-- Node6&#45;&gt;Node7 -->
<g id="edge6" class="edge"><title>Node6&#45;&gt;Node7</title>
<path fill="none" stroke="midnightblue" d="M104.783,-82.1833C97.3834,-72.3522 89.6289,-62.0498 82.8926,-53.1001"/>
<polygon fill="midnightblue" stroke="midnightblue" points="102.075,-84.4057 110.885,-90.2906 107.668,-80.1961 102.075,-84.4057"/>
</g>
<!-- Node8 -->
<g id="node8" class="node"><title>Node8</title>
<g id="a_node8"><a xlink:href="../../d9/d7d/run__digi__fit_8C.html" target="_top" xlink:title="/home/travis/build\l/AliceO2Group/AliceO2\l/macro/run_digi_fit.C">
<polygon fill="none" stroke="black" points="146,-6.5 146,-47.5 264,-47.5 264,-6.5 146,-6.5"/>
<text text-anchor="start" x="154" y="-35.5" font-family="Helvetica,sans-Serif" font-size="10.00">/home/travis/build</text>
<text text-anchor="start" x="154" y="-24.5" font-family="Helvetica,sans-Serif" font-size="10.00">/AliceO2Group/AliceO2</text>
<text text-anchor="middle" x="205" y="-13.5" font-family="Helvetica,sans-Serif" font-size="10.00">/macro/run_digi_fit.C</text>
</a>
</g>
</g>
<!-- Node6&#45;&gt;Node8 -->
<g id="edge7" class="edge"><title>Node6&#45;&gt;Node8</title>
<path fill="none" stroke="midnightblue" d="M163.634,-82.1833C172.741,-70.2549 182.377,-57.6327 190.056,-47.5747"/>
<polygon fill="midnightblue" stroke="midnightblue" points="160.731,-80.2183 157.445,-90.2906 166.295,-84.466 160.731,-80.2183"/>
</g>
<!-- Node11&#45;&gt;Node11 -->
<g id="edge12" class="edge"><title>Node11&#45;&gt;Node11</title>
<path fill="none" stroke="midnightblue" d="M502.662,-229.611C507.826,-226.798 511,-222.595 511,-217 511,-208.475 503.63,-203.18 493.079,-201.115"/>
<polygon fill="midnightblue" stroke="midnightblue" points="501.41,-226.34 493.079,-232.885 503.674,-232.964 501.41,-226.34"/>
</g>
<!-- Node12 -->
<g id="node12" class="node"><title>Node12</title>
<g id="a_node12"><a xlink:href="../../d9/d16/O2HitMergerRunner_8cxx.html" target="_top" xlink:title="/home/travis/build\l/AliceO2Group/AliceO2\l/run/O2HitMergerRunner.cxx">
<polygon fill="none" stroke="black" points="375,-101.5 375,-142.5 517,-142.5 517,-101.5 375,-101.5"/>
<text text-anchor="start" x="383" y="-130.5" font-family="Helvetica,sans-Serif" font-size="10.00">/home/travis/build</text>
<text text-anchor="start" x="383" y="-119.5" font-family="Helvetica,sans-Serif" font-size="10.00">/AliceO2Group/AliceO2</text>
<text text-anchor="middle" x="446" y="-108.5" font-family="Helvetica,sans-Serif" font-size="10.00">/run/O2HitMergerRunner.cxx</text>
</a>
</g>
</g>
<!-- Node11&#45;&gt;Node12 -->
<g id="edge13" class="edge"><title>Node11&#45;&gt;Node12</title>
<path fill="none" stroke="midnightblue" d="M437.872,-185.992C439.703,-171.805 441.837,-155.265 443.459,-142.694"/>
<polygon fill="midnightblue" stroke="midnightblue" points="434.353,-185.911 436.545,-196.277 441.296,-186.807 434.353,-185.911"/>
</g>
</g>
</svg>
