<?xml version="1.0" encoding="UTF-8" standalone="no"?>
<!DOCTYPE svg PUBLIC "-//W3C//DTD SVG 1.1//EN"
 "http://www.w3.org/Graphics/SVG/1.1/DTD/svg11.dtd">
<!-- Generated by graphviz version 2.36.0 (20140111.2315)
 -->
<!-- Title: /home/travis/build/AliceO2Group/AliceO2/Detectors/ITSMFT/common/reconstruction/src/PixelReader.cxx Pages: 1 -->
<svg width="391pt" height="310pt"
 viewBox="0.00 0.00 390.78 310.00" xmlns="http://www.w3.org/2000/svg" xmlns:xlink="http://www.w3.org/1999/xlink">
<g id="graph0" class="graph" transform="scale(1 1) rotate(0) translate(4 306)">
<title>/home/travis/build/AliceO2Group/AliceO2/Detectors/ITSMFT/common/reconstruction/src/PixelReader.cxx</title>
<!-- Node1 -->
<g id="node1" class="node"><title>Node1</title>
<polygon fill="#bfbfbf" stroke="black" points="73.2838,-249 73.2838,-301 246.284,-301 246.284,-249 73.2838,-249"/>
<text text-anchor="start" x="81.2838" y="-289" font-family="Helvetica,sans-Serif" font-size="10.00">/home/travis/build</text>
<text text-anchor="start" x="81.2838" y="-278" font-family="Helvetica,sans-Serif" font-size="10.00">/AliceO2Group/AliceO2</text>
<text text-anchor="start" x="81.2838" y="-267" font-family="Helvetica,sans-Serif" font-size="10.00">/Detectors/ITSMFT/common</text>
<text text-anchor="middle" x="159.784" y="-256" font-family="Helvetica,sans-Serif" font-size="10.00">/reconstruction/src/PixelReader.cxx</text>
</g>
<!-- Node2 -->
<g id="node2" class="node"><title>Node2</title>
<g id="a_node2"><a xlink:href="../../df/d2e/PixelReader_8h.html" target="_top" xlink:title="Definition of the ITS pixel reader. ">
<polygon fill="none" stroke="black" points="100.284,-181 100.284,-211 219.284,-211 219.284,-181 100.284,-181"/>
<text text-anchor="start" x="108.284" y="-199" font-family="Helvetica,sans-Serif" font-size="10.00">ITSMFTReconstruction</text>
<text text-anchor="middle" x="159.784" y="-188" font-family="Helvetica,sans-Serif" font-size="10.00">/PixelReader.h</text>
</a>
</g>
</g>
<!-- Node1&#45;&gt;Node2 -->
<g id="edge1" class="edge"><title>Node1&#45;&gt;Node2</title>
<path fill="none" stroke="midnightblue" d="M159.784,-248.787C159.784,-240.029 159.784,-230.225 159.784,-221.523"/>
<polygon fill="midnightblue" stroke="midnightblue" points="163.284,-221.252 159.784,-211.252 156.284,-221.252 163.284,-221.252"/>
</g>
<!-- Node3 -->
<g id="node3" class="node"><title>Node3</title>
<polygon fill="none" stroke="#bfbfbf" points="46.7838,-0.5 46.7838,-19.5 102.784,-19.5 102.784,-0.5 46.7838,-0.5"/>
<text text-anchor="middle" x="74.7838" y="-7.5" font-family="Helvetica,sans-Serif" font-size="10.00">Rtypes.h</text>
</g>
<!-- Node2&#45;&gt;Node3 -->
<g id="edge2" class="edge"><title>Node2&#45;&gt;Node3</title>
<path fill="none" stroke="midnightblue" d="M100.154,-191.145C67.4811,-185.623 29.5165,-172.886 8.78377,-144 -19.2606,-104.927 28.6339,-52.16 56.6705,-26.4157"/>
<polygon fill="midnightblue" stroke="midnightblue" points="59.1601,-28.8853 64.3005,-19.621 54.5048,-23.6577 59.1601,-28.8853"/>
</g>
<!-- Node4 -->
<g id="node4" class="node"><title>Node4</title>
<g id="a_node4"><a xlink:href="../../da/d8d/PixelData_8h.html" target="_top" xlink:title="Transient data classes for single pixel and set of pixels from current chip. ">
<polygon fill="none" stroke="black" points="188.284,-113 188.284,-143 307.284,-143 307.284,-113 188.284,-113"/>
<text text-anchor="start" x="196.284" y="-131" font-family="Helvetica,sans-Serif" font-size="10.00">ITSMFTReconstruction</text>
<text text-anchor="middle" x="247.784" y="-120" font-family="Helvetica,sans-Serif" font-size="10.00">/PixelData.h</text>
</a>
</g>
</g>
<!-- Node2&#45;&gt;Node4 -->
<g id="edge3" class="edge"><title>Node2&#45;&gt;Node4</title>
<path fill="none" stroke="midnightblue" d="M178.878,-180.679C191.186,-171.449 207.369,-159.311 220.96,-149.118"/>
<polygon fill="midnightblue" stroke="midnightblue" points="223.129,-151.866 229.029,-143.066 218.929,-146.266 223.129,-151.866"/>
</g>
<!-- Node5 -->
<g id="node5" class="node"><title>Node5</title>
<g id="a_node5"><a xlink:href="../../d0/d06/ITSMFT_2common_2base_2include_2ITSMFTBase_2Digit_8h.html" target="_top" xlink:title="ITSMFTBase/Digit.h">
<polygon fill="none" stroke="black" points="276.284,-56.5 276.284,-75.5 383.284,-75.5 383.284,-56.5 276.284,-56.5"/>
<text text-anchor="middle" x="329.784" y="-63.5" font-family="Helvetica,sans-Serif" font-size="10.00">ITSMFTBase/Digit.h</text>
</a>
</g>
</g>
<!-- Node2&#45;&gt;Node5 -->
<g id="edge9" class="edge"><title>Node2&#45;&gt;Node5</title>
<path fill="none" stroke="midnightblue" d="M219.415,-190.182C252.503,-184.333 291.714,-171.591 315.784,-144 329.645,-128.111 331.846,-103.19 331.429,-86.026"/>
<polygon fill="midnightblue" stroke="midnightblue" points="334.898,-85.3736 330.834,-75.5891 327.909,-85.7723 334.898,-85.3736"/>
</g>
<!-- Node7 -->
<g id="node7" class="node"><title>Node7</title>
<polygon fill="none" stroke="#bfbfbf" points="143.784,-56.5 143.784,-75.5 187.784,-75.5 187.784,-56.5 143.784,-56.5"/>
<text text-anchor="middle" x="165.784" y="-63.5" font-family="Helvetica,sans-Serif" font-size="10.00">vector</text>
</g>
<!-- Node2&#45;&gt;Node7 -->
<g id="edge12" class="edge"><title>Node2&#45;&gt;Node7</title>
<path fill="none" stroke="midnightblue" d="M160.449,-180.813C161.534,-157.67 163.684,-111.785 164.898,-85.904"/>
<polygon fill="midnightblue" stroke="midnightblue" points="168.41,-85.7267 165.382,-75.5738 161.417,-85.3989 168.41,-85.7267"/>
</g>
<!-- Node9 -->
<g id="node9" class="node"><title>Node9</title>
<g id="a_node9"><a xlink:href="../../d7/dcd/MCCompLabel_8h.html" target="_top" xlink:title="SimulationDataFormat\l/MCCompLabel.h">
<polygon fill="none" stroke="black" points="17.7838,-113 17.7838,-143 131.784,-143 131.784,-113 17.7838,-113"/>
<text text-anchor="start" x="25.7838" y="-131" font-family="Helvetica,sans-Serif" font-size="10.00">SimulationDataFormat</text>
<text text-anchor="middle" x="74.7838" y="-120" font-family="Helvetica,sans-Serif" font-size="10.00">/MCCompLabel.h</text>
</a>
</g>
</g>
<!-- Node2&#45;&gt;Node9 -->
<g id="edge10" class="edge"><title>Node2&#45;&gt;Node9</title>
<path fill="none" stroke="midnightblue" d="M141.34,-180.679C129.564,-171.536 114.115,-159.54 101.066,-149.407"/>
<polygon fill="midnightblue" stroke="midnightblue" points="102.945,-146.435 92.8995,-143.066 98.6515,-151.964 102.945,-146.435"/>
</g>
<!-- Node4&#45;&gt;Node5 -->
<g id="edge4" class="edge"><title>Node4&#45;&gt;Node5</title>
<path fill="none" stroke="midnightblue" d="M267.217,-112.781C279.992,-103.433 296.673,-91.2273 309.598,-81.77"/>
<polygon fill="midnightblue" stroke="midnightblue" points="311.849,-84.4603 317.852,-75.7305 307.715,-78.8111 311.849,-84.4603"/>
</g>
<!-- Node4&#45;&gt;Node7 -->
<g id="edge7" class="edge"><title>Node4&#45;&gt;Node7</title>
<path fill="none" stroke="midnightblue" d="M228.351,-112.781C215.575,-103.433 198.894,-91.2273 185.969,-81.77"/>
<polygon fill="midnightblue" stroke="midnightblue" points="187.853,-78.8111 177.715,-75.7305 183.719,-84.4603 187.853,-78.8111"/>
</g>
<!-- Node8 -->
<g id="node8" class="node"><title>Node8</title>
<polygon fill="none" stroke="#bfbfbf" points="217.784,-56.5 217.784,-75.5 257.784,-75.5 257.784,-56.5 217.784,-56.5"/>
<text text-anchor="middle" x="237.784" y="-63.5" font-family="Helvetica,sans-Serif" font-size="10.00">utility</text>
</g>
<!-- Node4&#45;&gt;Node8 -->
<g id="edge8" class="edge"><title>Node4&#45;&gt;Node8</title>
<path fill="none" stroke="midnightblue" d="M245.414,-112.781C244.066,-104.691 242.361,-94.4617 240.905,-85.725"/>
<polygon fill="midnightblue" stroke="midnightblue" points="244.335,-85.019 239.239,-75.7305 237.431,-86.1699 244.335,-85.019"/>
</g>
<!-- Node5&#45;&gt;Node3 -->
<g id="edge5" class="edge"><title>Node5&#45;&gt;Node3</title>
<path fill="none" stroke="midnightblue" d="M289.378,-56.4435C240.838,-46.1645 160.038,-29.0539 112.655,-19.0198"/>
<polygon fill="midnightblue" stroke="midnightblue" points="113.298,-15.5785 102.79,-16.9308 111.848,-22.4266 113.298,-15.5785"/>
</g>
<!-- Node6 -->
<g id="node6" class="node"><title>Node6</title>
<polygon fill="none" stroke="#bfbfbf" points="307.284,-0.5 307.284,-19.5 352.284,-19.5 352.284,-0.5 307.284,-0.5"/>
<text text-anchor="middle" x="329.784" y="-7.5" font-family="Helvetica,sans-Serif" font-size="10.00">climits</text>
</g>
<!-- Node5&#45;&gt;Node6 -->
<g id="edge6" class="edge"><title>Node5&#45;&gt;Node6</title>
<path fill="none" stroke="midnightblue" d="M329.784,-56.083C329.784,-49.0059 329.784,-38.8611 329.784,-29.9865"/>
<polygon fill="midnightblue" stroke="midnightblue" points="333.284,-29.751 329.784,-19.7511 326.284,-29.7511 333.284,-29.751"/>
</g>
<!-- Node9&#45;&gt;Node3 -->
<g id="edge11" class="edge"><title>Node9&#45;&gt;Node3</title>
<path fill="none" stroke="midnightblue" d="M74.7838,-112.776C74.7838,-91.9707 74.7838,-53.1981 74.7838,-29.9809"/>
<polygon fill="midnightblue" stroke="midnightblue" points="78.2839,-29.7069 74.7838,-19.707 71.2839,-29.707 78.2839,-29.7069"/>
</g>
</g>
</svg>
