<?xml version="1.0" encoding="UTF-8" standalone="no"?>
<!DOCTYPE svg PUBLIC "-//W3C//DTD SVG 1.1//EN"
 "http://www.w3.org/Graphics/SVG/1.1/DTD/svg11.dtd">
<!-- Generated by graphviz version 2.36.0 (20140111.2315)
 -->
<!-- Title: /home/travis/build/AliceO2Group/AliceO2/Detectors/TOF/simulation/include/TOFSimulation/Digitizer.h Pages: 1 -->
<!--zoomable 402 -->
<svg id="main" version="1.1" xmlns="http://www.w3.org/2000/svg" xmlns:xlink="http://www.w3.org/1999/xlink" xml:space="preserve" onload="init(evt)">
<style type="text/css"><![CDATA[
.edge:hover path { stroke: red; }
.edge:hover polygon { stroke: red; fill: red; }
]]></style>
<script type="text/javascript"><![CDATA[
var edges = document.getElementsByTagName('g');
if (edges && edges.length) {
  for (var i=0;i<edges.length;i++) {
    if (edges[i].id.substr(0,4)=='edge') {
      edges[i].setAttribute('class','edge');
    }
  }
}
]]></script>
        <defs>
                <circle id="rim" cx="0" cy="0" r="7"/>
                <circle id="rim2" cx="0" cy="0" r="3.5"/>
                <g id="zoomPlus">
                        <use xlink:href="#rim" fill="#404040">
                                <set attributeName="fill" to="#808080" begin="zoomplus.mouseover" end="zoomplus.mouseout"/>
                        </use>
                        <path d="M-4,0h8M0,-4v8" fill="none" stroke="white" stroke-width="1.5" pointer-events="none"/>
                </g>
                <g id="zoomMin">
                        <use xlink:href="#rim" fill="#404040">
                                <set attributeName="fill" to="#808080" begin="zoomminus.mouseover" end="zoomminus.mouseout"/>
                        </use>
                        <path d="M-4,0h8" fill="none" stroke="white" stroke-width="1.5" pointer-events="none"/>
                </g>
                <g id="dirArrow">
                        <path fill="none" stroke="white" stroke-width="1.5" d="M0,-3.0v7 M-2.5,-0.5L0,-3.0L2.5,-0.5"/>
                </g>
               <g id="resetDef">
                       <use xlink:href="#rim2" fill="#404040">
                               <set attributeName="fill" to="#808080" begin="reset.mouseover" end="reset.mouseout"/>
                       </use>
               </g>
        </defs>

<script type="text/javascript">
var viewWidth = 1901;
var viewHeight = 402;
var sectionId = 'dynsection-0';
</script>
<script xlink:href="../../svgpan.js"/>
<svg id="graph" class="graph">
<g id="viewport">
<title>/home/travis/build/AliceO2Group/AliceO2/Detectors/TOF/simulation/include/TOFSimulation/Digitizer.h</title>
<!-- Node1 -->
<g id="node1" class="node"><title>Node1</title>
<polygon fill="#bfbfbf" stroke="black" points="322,-341 322,-393 488,-393 488,-341 322,-341"/>
<text text-anchor="start" x="330" y="-381" font-family="Helvetica,sans-Serif" font-size="10.00">/home/travis/build</text>
<text text-anchor="start" x="330" y="-370" font-family="Helvetica,sans-Serif" font-size="10.00">/AliceO2Group/AliceO2</text>
<text text-anchor="start" x="330" y="-359" font-family="Helvetica,sans-Serif" font-size="10.00">/Detectors/TOF/simulation</text>
<text text-anchor="middle" x="405" y="-348" font-family="Helvetica,sans-Serif" font-size="10.00">/include/TOFSimulation/Digitizer.h</text>
</g>
<!-- Node2 -->
<g id="node2" class="node"><title>Node2</title>
<g id="a_node2"><a xlink:href="../../d4/d54/Geo_8h.html" target="_top" xlink:title="TOFBase/Geo.h">
<polygon fill="none" stroke="black" points="361,-210.5 361,-229.5 449,-229.5 449,-210.5 361,-210.5"/>
<text text-anchor="middle" x="405" y="-217.5" font-family="Helvetica,sans-Serif" font-size="10.00">TOFBase/Geo.h</text>
</a>
</g>
</g>
<!-- Node1&#45;&gt;Node2 -->
<g id="edge1" class="edge"><title>Node1&#45;&gt;Node2</title>
<path fill="none" stroke="midnightblue" d="M405,-340.743C405,-312.035 405,-265.822 405,-240.007"/>
<polygon fill="midnightblue" stroke="midnightblue" points="408.5,-239.717 405,-229.717 401.5,-239.717 408.5,-239.717"/>
</g>
<!-- Node4 -->
<g id="node4" class="node"><title>Node4</title>
<g id="a_node4"><a xlink:href="../../df/d9c/TOF_2base_2include_2TOFBase_2Digit_8h.html" target="_top" xlink:title="TOFBase/Digit.h">
<polygon fill="none" stroke="black" points="204,-210.5 204,-229.5 294,-229.5 294,-210.5 204,-210.5"/>
<text text-anchor="middle" x="249" y="-217.5" font-family="Helvetica,sans-Serif" font-size="10.00">TOFBase/Digit.h</text>
</a>
</g>
</g>
<!-- Node1&#45;&gt;Node4 -->
<g id="edge3" class="edge"><title>Node1&#45;&gt;Node4</title>
<path fill="none" stroke="midnightblue" d="M377.827,-340.743C345.55,-310.742 292.705,-261.623 265.833,-236.646"/>
<polygon fill="midnightblue" stroke="midnightblue" points="268.086,-233.961 258.378,-229.717 263.32,-239.089 268.086,-233.961"/>
</g>
<!-- Node8 -->
<g id="node8" class="node"><title>Node8</title>
<g id="a_node8"><a xlink:href="../../d5/d3c/TOF_2simulation_2include_2TOFSimulation_2Detector_8h.html" target="_top" xlink:title="TOFSimulation/Detector.h">
<polygon fill="none" stroke="black" points="444.5,-278.5 444.5,-297.5 575.5,-297.5 575.5,-278.5 444.5,-278.5"/>
<text text-anchor="middle" x="510" y="-285.5" font-family="Helvetica,sans-Serif" font-size="10.00">TOFSimulation/Detector.h</text>
</a>
</g>
</g>
<!-- Node1&#45;&gt;Node8 -->
<g id="edge9" class="edge"><title>Node1&#45;&gt;Node8</title>
<path fill="none" stroke="midnightblue" d="M439.381,-340.787C456.221,-328.438 475.896,-314.01 490.195,-303.523"/>
<polygon fill="midnightblue" stroke="midnightblue" points="492.336,-306.294 498.33,-297.558 488.197,-300.649 492.336,-306.294"/>
</g>
<!-- Node37 -->
<g id="node37" class="node"><title>Node37</title>
<g id="a_node37"><a xlink:href="../../db/d14/MCTruthContainer_8h.html" target="_top" xlink:title="Definition of a container to keep Monte Carlo truth external to simulation objects. ">
<polygon fill="none" stroke="black" points="1601,-273 1601,-303 1715,-303 1715,-273 1601,-273"/>
<text text-anchor="start" x="1609" y="-291" font-family="Helvetica,sans-Serif" font-size="10.00">SimulationDataFormat</text>
<text text-anchor="middle" x="1658" y="-280" font-family="Helvetica,sans-Serif" font-size="10.00">/MCTruthContainer.h</text>
</a>
</g>
</g>
<!-- Node1&#45;&gt;Node37 -->
<g id="edge45" class="edge"><title>Node1&#45;&gt;Node37</title>
<path fill="none" stroke="midnightblue" d="M488.183,-360.888C721.445,-346.554 1378.58,-306.171 1590.92,-293.122"/>
<polygon fill="midnightblue" stroke="midnightblue" points="1591.23,-296.61 1600.99,-292.503 1590.8,-289.623 1591.23,-296.61"/>
</g>
<!-- Node42 -->
<g id="node42" class="node"><title>Node42</title>
<g id="a_node42"><a xlink:href="../../df/d71/MCLabel_8h.html" target="_top" xlink:title="TOFSimulation/MCLabel.h">
<polygon fill="none" stroke="black" points="103,-278.5 103,-297.5 235,-297.5 235,-278.5 103,-278.5"/>
<text text-anchor="middle" x="169" y="-285.5" font-family="Helvetica,sans-Serif" font-size="10.00">TOFSimulation/MCLabel.h</text>
</a>
</g>
</g>
<!-- Node1&#45;&gt;Node42 -->
<g id="edge51" class="edge"><title>Node1&#45;&gt;Node42</title>
<path fill="none" stroke="midnightblue" d="M328.051,-340.894C286.605,-327.371 237.44,-311.33 204.858,-300.699"/>
<polygon fill="midnightblue" stroke="midnightblue" points="205.898,-297.357 195.305,-297.583 203.726,-304.012 205.898,-297.357"/>
</g>
<!-- Node3 -->
<g id="node3" class="node"><title>Node3</title>
<polygon fill="none" stroke="#bfbfbf" points="259,-74.5 259,-93.5 315,-93.5 315,-74.5 259,-74.5"/>
<text text-anchor="middle" x="287" y="-81.5" font-family="Helvetica,sans-Serif" font-size="10.00">Rtypes.h</text>
</g>
<!-- Node2&#45;&gt;Node3 -->
<g id="edge2" class="edge"><title>Node2&#45;&gt;Node3</title>
<path fill="none" stroke="midnightblue" d="M401.899,-210.433C395.793,-194.425 380.961,-159.475 360,-136 346.441,-120.816 327.518,-107.759 312.336,-98.6589"/>
<polygon fill="midnightblue" stroke="midnightblue" points="313.857,-95.4953 303.448,-93.5201 310.353,-101.555 313.857,-95.4953"/>
</g>
<!-- Node4&#45;&gt;Node3 -->
<g id="edge7" class="edge"><title>Node4&#45;&gt;Node3</title>
<path fill="none" stroke="midnightblue" d="M282.618,-210.354C303.985,-202.927 329.991,-189.858 343,-168 350.274,-155.778 348.748,-149.009 343,-136 336.286,-120.804 322.56,-108.186 310.379,-99.3022"/>
<polygon fill="midnightblue" stroke="midnightblue" points="312.135,-96.263 301.904,-93.5098 308.185,-102.042 312.135,-96.263"/>
</g>
<!-- Node5 -->
<g id="node5" class="node"><title>Node5</title>
<g id="a_node5"><a xlink:href="../../df/d5d/common_2include_2CommonDataFormat_2TimeStamp_8h.html" target="_top" xlink:title="CommonDataFormat/TimeStamp.h">
<polygon fill="none" stroke="black" points="164,-142.5 164,-161.5 334,-161.5 334,-142.5 164,-142.5"/>
<text text-anchor="middle" x="249" y="-149.5" font-family="Helvetica,sans-Serif" font-size="10.00">CommonDataFormat/TimeStamp.h</text>
</a>
</g>
</g>
<!-- Node4&#45;&gt;Node5 -->
<g id="edge4" class="edge"><title>Node4&#45;&gt;Node5</title>
<path fill="none" stroke="midnightblue" d="M249,-210.372C249,-200.643 249,-184.528 249,-171.85"/>
<polygon fill="midnightblue" stroke="midnightblue" points="252.5,-171.841 249,-161.841 245.5,-171.841 252.5,-171.841"/>
</g>
<!-- Node6 -->
<g id="node6" class="node"><title>Node6</title>
<polygon fill="none" stroke="#bfbfbf" points="116.5,-74.5 116.5,-93.5 161.5,-93.5 161.5,-74.5 116.5,-74.5"/>
<text text-anchor="middle" x="139" y="-81.5" font-family="Helvetica,sans-Serif" font-size="10.00">iosfwd</text>
</g>
<!-- Node4&#45;&gt;Node6 -->
<g id="edge6" class="edge"><title>Node4&#45;&gt;Node6</title>
<path fill="none" stroke="midnightblue" d="M203.844,-214.373C148.861,-207.699 60.8499,-193.305 41,-168 32.2221,-156.81 33.6211,-148.158 41,-136 55.216,-112.576 84.0842,-99.4132 106.824,-92.3537"/>
<polygon fill="midnightblue" stroke="midnightblue" points="107.794,-95.7168 116.45,-89.6072 105.873,-88.9855 107.794,-95.7168"/>
</g>
<!-- Node7 -->
<g id="node7" class="node"><title>Node7</title>
<polygon fill="none" stroke="#bfbfbf" points="50.5,-137 50.5,-167 145.5,-167 145.5,-137 50.5,-137"/>
<text text-anchor="start" x="58.5" y="-155" font-family="Helvetica,sans-Serif" font-size="10.00">boost/serialization</text>
<text text-anchor="middle" x="98" y="-144" font-family="Helvetica,sans-Serif" font-size="10.00">/base_object.hpp</text>
</g>
<!-- Node4&#45;&gt;Node7 -->
<g id="edge8" class="edge"><title>Node4&#45;&gt;Node7</title>
<path fill="none" stroke="midnightblue" d="M229.259,-210.372C206.537,-200.44 168.59,-183.854 139.325,-171.063"/>
<polygon fill="midnightblue" stroke="midnightblue" points="140.724,-167.854 130.159,-167.056 137.92,-174.268 140.724,-167.854"/>
</g>
<!-- Node5&#45;&gt;Node3 -->
<g id="edge5" class="edge"><title>Node5&#45;&gt;Node3</title>
<path fill="none" stroke="midnightblue" d="M253.968,-142.372C259.739,-132.348 269.413,-115.546 276.805,-102.708"/>
<polygon fill="midnightblue" stroke="midnightblue" points="279.953,-104.254 281.91,-93.8411 273.887,-100.761 279.953,-104.254"/>
</g>
<!-- Node8&#45;&gt;Node2 -->
<g id="edge31" class="edge"><title>Node8&#45;&gt;Node2</title>
<path fill="none" stroke="midnightblue" d="M496.273,-278.372C478.744,-267.353 448.185,-248.145 427.295,-235.014"/>
<polygon fill="midnightblue" stroke="midnightblue" points="429.059,-231.989 418.73,-229.63 425.334,-237.915 429.059,-231.989"/>
</g>
<!-- Node9 -->
<g id="node9" class="node"><title>Node9</title>
<g id="a_node9"><a xlink:href="../../d1/d3a/Base_2include_2DetectorsBase_2Detector_8h.html" target="_top" xlink:title="DetectorsBase/Detector.h">
<polygon fill="none" stroke="black" points="1103.5,-210.5 1103.5,-229.5 1234.5,-229.5 1234.5,-210.5 1103.5,-210.5"/>
<text text-anchor="middle" x="1169" y="-217.5" font-family="Helvetica,sans-Serif" font-size="10.00">DetectorsBase/Detector.h</text>
</a>
</g>
</g>
<!-- Node8&#45;&gt;Node9 -->
<g id="edge10" class="edge"><title>Node8&#45;&gt;Node9</title>
<path fill="none" stroke="midnightblue" d="M575.597,-280.43C698.425,-268.129 962.447,-241.687 1092.88,-228.623"/>
<polygon fill="midnightblue" stroke="midnightblue" points="1093.58,-232.071 1103.18,-227.592 1092.88,-225.106 1093.58,-232.071"/>
</g>
<!-- Node26 -->
<g id="node26" class="node"><title>Node26</title>
<g id="a_node26"><a xlink:href="../../d4/d25/BaseHits_8h.html" target="_top" xlink:title="SimulationDataFormat\l/BaseHits.h">
<polygon fill="none" stroke="black" points="470,-205 470,-235 584,-235 584,-205 470,-205"/>
<text text-anchor="start" x="478" y="-223" font-family="Helvetica,sans-Serif" font-size="10.00">SimulationDataFormat</text>
<text text-anchor="middle" x="527" y="-212" font-family="Helvetica,sans-Serif" font-size="10.00">/BaseHits.h</text>
</a>
</g>
</g>
<!-- Node8&#45;&gt;Node26 -->
<g id="edge32" class="edge"><title>Node8&#45;&gt;Node26</title>
<path fill="none" stroke="midnightblue" d="M512.222,-278.372C514.386,-269.971 517.776,-256.811 520.763,-245.213"/>
<polygon fill="midnightblue" stroke="midnightblue" points="524.242,-245.738 523.347,-235.181 517.463,-243.992 524.242,-245.738"/>
</g>
<!-- Node9&#45;&gt;Node3 -->
<g id="edge22" class="edge"><title>Node9&#45;&gt;Node3</title>
<path fill="none" stroke="midnightblue" d="M1103.46,-217.491C951.296,-213.474 577.868,-200.523 457,-168 442.005,-163.965 356.385,-120.593 312.673,-98.2075"/>
<polygon fill="midnightblue" stroke="midnightblue" points="314.268,-95.0919 303.773,-93.6427 311.074,-101.321 314.268,-95.0919"/>
</g>
<!-- Node10 -->
<g id="node10" class="node"><title>Node10</title>
<polygon fill="none" stroke="#bfbfbf" points="1580.5,-74.5 1580.5,-93.5 1615.5,-93.5 1615.5,-74.5 1580.5,-74.5"/>
<text text-anchor="middle" x="1598" y="-81.5" font-family="Helvetica,sans-Serif" font-size="10.00">map</text>
</g>
<!-- Node9&#45;&gt;Node10 -->
<g id="edge11" class="edge"><title>Node9&#45;&gt;Node10</title>
<path fill="none" stroke="midnightblue" d="M1234.78,-218.15C1332.98,-215.628 1511.77,-205.811 1562,-168 1582.45,-152.601 1591.46,-123.16 1595.3,-103.804"/>
<polygon fill="midnightblue" stroke="midnightblue" points="1598.78,-104.2 1597.01,-93.7542 1591.88,-103.024 1598.78,-104.2"/>
</g>
<!-- Node11 -->
<g id="node11" class="node"><title>Node11</title>
<polygon fill="none" stroke="#bfbfbf" points="1223,-142.5 1223,-161.5 1267,-161.5 1267,-142.5 1223,-142.5"/>
<text text-anchor="middle" x="1245" y="-149.5" font-family="Helvetica,sans-Serif" font-size="10.00">vector</text>
</g>
<!-- Node9&#45;&gt;Node11 -->
<g id="edge12" class="edge"><title>Node9&#45;&gt;Node11</title>
<path fill="none" stroke="midnightblue" d="M1178.94,-210.372C1191.16,-199.758 1212.13,-181.545 1227.17,-168.485"/>
<polygon fill="midnightblue" stroke="midnightblue" points="1229.56,-171.041 1234.82,-161.841 1224.97,-165.755 1229.56,-171.041"/>
</g>
<!-- Node12 -->
<g id="node12" class="node"><title>Node12</title>
<polygon fill="none" stroke="#bfbfbf" points="1758.5,-74.5 1758.5,-93.5 1831.5,-93.5 1831.5,-74.5 1758.5,-74.5"/>
<text text-anchor="middle" x="1795" y="-81.5" font-family="Helvetica,sans-Serif" font-size="10.00">initializer_list</text>
</g>
<!-- Node9&#45;&gt;Node12 -->
<g id="edge13" class="edge"><title>Node9&#45;&gt;Node12</title>
<path fill="none" stroke="midnightblue" d="M1234.51,-215.739C1388.73,-207.771 1763.23,-186.601 1783,-168 1800.2,-151.811 1800.42,-122.804 1798.27,-103.729"/>
<polygon fill="midnightblue" stroke="midnightblue" points="1801.7,-102.973 1796.8,-93.5777 1794.77,-103.976 1801.7,-102.973"/>
</g>
<!-- Node13 -->
<g id="node13" class="node"><title>Node13</title>
<polygon fill="none" stroke="#bfbfbf" points="1285,-142.5 1285,-161.5 1337,-161.5 1337,-142.5 1285,-142.5"/>
<text text-anchor="middle" x="1311" y="-149.5" font-family="Helvetica,sans-Serif" font-size="10.00">memory</text>
</g>
<!-- Node9&#45;&gt;Node13 -->
<g id="edge14" class="edge"><title>Node9&#45;&gt;Node13</title>
<path fill="none" stroke="midnightblue" d="M1187.56,-210.372C1211.91,-199.057 1254.83,-179.105 1283.1,-165.968"/>
<polygon fill="midnightblue" stroke="midnightblue" points="1284.84,-169.019 1292.43,-161.63 1281.89,-162.671 1284.84,-169.019"/>
</g>
<!-- Node14 -->
<g id="node14" class="node"><title>Node14</title>
<polygon fill="none" stroke="#bfbfbf" points="1355.5,-142.5 1355.5,-161.5 1434.5,-161.5 1434.5,-142.5 1355.5,-142.5"/>
<text text-anchor="middle" x="1395" y="-149.5" font-family="Helvetica,sans-Serif" font-size="10.00">FairDetector.h</text>
</g>
<!-- Node9&#45;&gt;Node14 -->
<g id="edge15" class="edge"><title>Node9&#45;&gt;Node14</title>
<path fill="none" stroke="midnightblue" d="M1199.11,-210.488C1234.37,-200.483 1294.5,-183.301 1346,-168 1349.78,-166.878 1353.72,-165.695 1357.64,-164.505"/>
<polygon fill="midnightblue" stroke="midnightblue" points="1358.75,-167.828 1367.3,-161.568 1356.71,-161.131 1358.75,-167.828"/>
</g>
<!-- Node15 -->
<g id="node15" class="node"><title>Node15</title>
<polygon fill="none" stroke="#bfbfbf" points="1453,-142.5 1453,-161.5 1553,-161.5 1553,-142.5 1453,-142.5"/>
<text text-anchor="middle" x="1503" y="-149.5" font-family="Helvetica,sans-Serif" font-size="10.00">FairRootManager.h</text>
</g>
<!-- Node9&#45;&gt;Node15 -->
<g id="edge16" class="edge"><title>Node9&#45;&gt;Node15</title>
<path fill="none" stroke="midnightblue" d="M1219.94,-210.475C1275.1,-201.022 1365.58,-184.866 1443,-168 1448.71,-166.755 1454.71,-165.362 1460.61,-163.938"/>
<polygon fill="midnightblue" stroke="midnightblue" points="1461.51,-167.322 1470.39,-161.537 1459.84,-160.524 1461.51,-167.322"/>
</g>
<!-- Node16 -->
<g id="node16" class="node"><title>Node16</title>
<g id="a_node16"><a xlink:href="../../d0/d9a/MaterialManager_8h.html" target="_top" xlink:title="DetectorsBase/MaterialManager.h">
<polygon fill="none" stroke="black" points="1609.5,-142.5 1609.5,-161.5 1774.5,-161.5 1774.5,-142.5 1609.5,-142.5"/>
<text text-anchor="middle" x="1692" y="-149.5" font-family="Helvetica,sans-Serif" font-size="10.00">DetectorsBase/MaterialManager.h</text>
</a>
</g>
</g>
<!-- Node9&#45;&gt;Node16 -->
<g id="edge17" class="edge"><title>Node9&#45;&gt;Node16</title>
<path fill="none" stroke="midnightblue" d="M1234.77,-211.834C1318.54,-202.544 1467.7,-185.457 1595,-168 1606.1,-166.478 1617.89,-164.748 1629.3,-163.018"/>
<polygon fill="midnightblue" stroke="midnightblue" points="1629.83,-166.477 1639.19,-161.503 1628.77,-159.558 1629.83,-166.477"/>
</g>
<!-- Node18 -->
<g id="node18" class="node"><title>Node18</title>
<polygon fill="none" stroke="#bfbfbf" points="609.5,-142.5 609.5,-161.5 662.5,-161.5 662.5,-142.5 609.5,-142.5"/>
<text text-anchor="middle" x="636" y="-149.5" font-family="Helvetica,sans-Serif" font-size="10.00">cxxabi.h</text>
</g>
<!-- Node9&#45;&gt;Node18 -->
<g id="edge23" class="edge"><title>Node9&#45;&gt;Node18</title>
<path fill="none" stroke="midnightblue" d="M1103.43,-218.557C1007.12,-216.506 822.44,-207.23 671,-168 668.18,-167.27 665.294,-166.346 662.448,-165.318"/>
<polygon fill="midnightblue" stroke="midnightblue" points="663.665,-162.035 653.082,-161.546 661.05,-168.528 663.665,-162.035"/>
</g>
<!-- Node19 -->
<g id="node19" class="node"><title>Node19</title>
<polygon fill="none" stroke="#bfbfbf" points="680.5,-142.5 680.5,-161.5 731.5,-161.5 731.5,-142.5 680.5,-142.5"/>
<text text-anchor="middle" x="706" y="-149.5" font-family="Helvetica,sans-Serif" font-size="10.00">typeinfo</text>
</g>
<!-- Node9&#45;&gt;Node19 -->
<g id="edge24" class="edge"><title>Node9&#45;&gt;Node19</title>
<path fill="none" stroke="midnightblue" d="M1103.16,-217.218C1017.95,-213.547 865.523,-202.322 740,-168 737.495,-167.315 734.937,-166.475 732.405,-165.545"/>
<polygon fill="midnightblue" stroke="midnightblue" points="733.514,-162.216 722.934,-161.653 730.853,-168.691 733.514,-162.216"/>
</g>
<!-- Node20 -->
<g id="node20" class="node"><title>Node20</title>
<polygon fill="none" stroke="#bfbfbf" points="1831,-142.5 1831,-161.5 1893,-161.5 1893,-142.5 1831,-142.5"/>
<text text-anchor="middle" x="1862" y="-149.5" font-family="Helvetica,sans-Serif" font-size="10.00">type_traits</text>
</g>
<!-- Node9&#45;&gt;Node20 -->
<g id="edge25" class="edge"><title>Node9&#45;&gt;Node20</title>
<path fill="none" stroke="midnightblue" d="M1234.7,-215.861C1376.43,-208.758 1706.96,-190.323 1817,-168 1821.27,-167.134 1825.69,-165.986 1830.03,-164.71"/>
<polygon fill="midnightblue" stroke="midnightblue" points="1831.4,-167.945 1839.86,-161.569 1829.27,-161.277 1831.4,-167.945"/>
</g>
<!-- Node21 -->
<g id="node21" class="node"><title>Node21</title>
<polygon fill="none" stroke="#bfbfbf" points="749.5,-142.5 749.5,-161.5 790.5,-161.5 790.5,-142.5 749.5,-142.5"/>
<text text-anchor="middle" x="770" y="-149.5" font-family="Helvetica,sans-Serif" font-size="10.00">string</text>
</g>
<!-- Node9&#45;&gt;Node21 -->
<g id="edge26" class="edge"><title>Node9&#45;&gt;Node21</title>
<path fill="none" stroke="midnightblue" d="M1103.36,-216.665C1028.22,-212.469 902.22,-200.741 799,-168 797.136,-167.409 795.248,-166.704 793.375,-165.928"/>
<polygon fill="midnightblue" stroke="midnightblue" points="794.871,-162.764 784.336,-161.639 791.87,-169.088 794.871,-162.764"/>
</g>
<!-- Node22 -->
<g id="node22" class="node"><title>Node22</title>
<polygon fill="none" stroke="#bfbfbf" points="808.5,-142.5 808.5,-161.5 901.5,-161.5 901.5,-142.5 808.5,-142.5"/>
<text text-anchor="middle" x="855" y="-149.5" font-family="Helvetica,sans-Serif" font-size="10.00">FairMQChannel.h</text>
</g>
<!-- Node9&#45;&gt;Node22 -->
<g id="edge27" class="edge"><title>Node9&#45;&gt;Node22</title>
<path fill="none" stroke="midnightblue" d="M1120.09,-210.451C1067.84,-201.067 982.728,-185.055 910,-168 905.009,-166.83 899.786,-165.519 894.629,-164.172"/>
<polygon fill="midnightblue" stroke="midnightblue" points="895.437,-160.765 884.873,-161.566 893.631,-167.528 895.437,-160.765"/>
</g>
<!-- Node23 -->
<g id="node23" class="node"><title>Node23</title>
<polygon fill="none" stroke="#bfbfbf" points="919.5,-142.5 919.5,-161.5 1016.5,-161.5 1016.5,-142.5 919.5,-142.5"/>
<text text-anchor="middle" x="968" y="-149.5" font-family="Helvetica,sans-Serif" font-size="10.00">FairMQMessage.h</text>
</g>
<!-- Node9&#45;&gt;Node23 -->
<g id="edge28" class="edge"><title>Node9&#45;&gt;Node23</title>
<path fill="none" stroke="midnightblue" d="M1142.72,-210.372C1107.11,-198.679 1043.41,-177.762 1003.55,-164.674"/>
<polygon fill="midnightblue" stroke="midnightblue" points="1004.56,-161.32 993.965,-161.526 1002.37,-167.971 1004.56,-161.32"/>
</g>
<!-- Node24 -->
<g id="node24" class="node"><title>Node24</title>
<polygon fill="none" stroke="#bfbfbf" points="1035,-142.5 1035,-161.5 1115,-161.5 1115,-142.5 1035,-142.5"/>
<text text-anchor="middle" x="1075" y="-149.5" font-family="Helvetica,sans-Serif" font-size="10.00">FairMQParts.h</text>
</g>
<!-- Node9&#45;&gt;Node24 -->
<g id="edge29" class="edge"><title>Node9&#45;&gt;Node24</title>
<path fill="none" stroke="midnightblue" d="M1156.71,-210.372C1141.23,-199.502 1114.39,-180.66 1095.72,-167.547"/>
<polygon fill="midnightblue" stroke="midnightblue" points="1097.49,-164.512 1087.29,-161.63 1093.46,-170.241 1097.49,-164.512"/>
</g>
<!-- Node25 -->
<g id="node25" class="node"><title>Node25</title>
<polygon fill="none" stroke="#bfbfbf" points="1133.5,-142.5 1133.5,-161.5 1204.5,-161.5 1204.5,-142.5 1133.5,-142.5"/>
<text text-anchor="middle" x="1169" y="-149.5" font-family="Helvetica,sans-Serif" font-size="10.00">TMessage.h</text>
</g>
<!-- Node9&#45;&gt;Node25 -->
<g id="edge30" class="edge"><title>Node9&#45;&gt;Node25</title>
<path fill="none" stroke="midnightblue" d="M1169,-210.372C1169,-200.643 1169,-184.528 1169,-171.85"/>
<polygon fill="midnightblue" stroke="midnightblue" points="1172.5,-171.841 1169,-161.841 1165.5,-171.841 1172.5,-171.841"/>
</g>
<!-- Node16&#45;&gt;Node3 -->
<g id="edge18" class="edge"><title>Node16&#45;&gt;Node3</title>
<path fill="none" stroke="midnightblue" d="M1627.63,-142.466C1606.73,-139.992 1583.41,-137.544 1562,-136 1287.49,-116.208 593.345,-156.597 324,-100 320.744,-99.3158 317.408,-98.3609 314.137,-97.2607"/>
<polygon fill="midnightblue" stroke="midnightblue" points="315.253,-93.9404 304.662,-93.6504 312.76,-100.482 315.253,-93.9404"/>
</g>
<!-- Node16&#45;&gt;Node10 -->
<g id="edge19" class="edge"><title>Node16&#45;&gt;Node10</title>
<path fill="none" stroke="midnightblue" d="M1679.71,-142.372C1664.23,-131.502 1637.39,-112.66 1618.72,-99.5474"/>
<polygon fill="midnightblue" stroke="midnightblue" points="1620.49,-96.5124 1610.29,-93.6305 1616.46,-102.241 1620.49,-96.5124"/>
</g>
<!-- Node16&#45;&gt;Node12 -->
<g id="edge21" class="edge"><title>Node16&#45;&gt;Node12</title>
<path fill="none" stroke="midnightblue" d="M1705.47,-142.372C1722.58,-131.403 1752.37,-112.317 1772.85,-99.1912"/>
<polygon fill="midnightblue" stroke="midnightblue" points="1775,-101.973 1781.53,-93.6305 1771.22,-96.0788 1775,-101.973"/>
</g>
<!-- Node17 -->
<g id="node17" class="node"><title>Node17</title>
<polygon fill="none" stroke="#bfbfbf" points="1650.5,-74.5 1650.5,-93.5 1733.5,-93.5 1733.5,-74.5 1650.5,-74.5"/>
<text text-anchor="middle" x="1692" y="-81.5" font-family="Helvetica,sans-Serif" font-size="10.00">unordered_map</text>
</g>
<!-- Node16&#45;&gt;Node17 -->
<g id="edge20" class="edge"><title>Node16&#45;&gt;Node17</title>
<path fill="none" stroke="midnightblue" d="M1692,-142.372C1692,-132.643 1692,-116.528 1692,-103.85"/>
<polygon fill="midnightblue" stroke="midnightblue" points="1695.5,-103.841 1692,-93.8411 1688.5,-103.841 1695.5,-103.841"/>
</g>
<!-- Node27 -->
<g id="node27" class="node"><title>Node27</title>
<g id="a_node27"><a xlink:href="../../dd/d76/Cartesian3D_8h.html" target="_top" xlink:title="MathUtils/Cartesian3D.h">
<polygon fill="none" stroke="black" points="466.5,-142.5 466.5,-161.5 591.5,-161.5 591.5,-142.5 466.5,-142.5"/>
<text text-anchor="middle" x="529" y="-149.5" font-family="Helvetica,sans-Serif" font-size="10.00">MathUtils/Cartesian3D.h</text>
</a>
</g>
</g>
<!-- Node26&#45;&gt;Node27 -->
<g id="edge33" class="edge"><title>Node26&#45;&gt;Node27</title>
<path fill="none" stroke="midnightblue" d="M527.434,-204.679C527.724,-195.101 528.109,-182.394 528.425,-171.977"/>
<polygon fill="midnightblue" stroke="midnightblue" points="531.928,-171.93 528.732,-161.828 524.931,-171.718 531.928,-171.93"/>
</g>
<!-- Node27&#45;&gt;Node3 -->
<g id="edge39" class="edge"><title>Node27&#45;&gt;Node3</title>
<path fill="none" stroke="midnightblue" d="M487.286,-142.437C445.517,-133.44 379.628,-118.095 324,-100 321.431,-99.1645 318.787,-98.2357 316.151,-97.2615"/>
<polygon fill="midnightblue" stroke="midnightblue" points="317.368,-93.9797 306.779,-93.6195 314.832,-100.504 317.368,-93.9797"/>
</g>
<!-- Node27&#45;&gt;Node6 -->
<g id="edge41" class="edge"><title>Node27&#45;&gt;Node6</title>
<path fill="none" stroke="midnightblue" d="M478.414,-142.439C397.225,-128.7 240.05,-102.101 171.874,-90.5632"/>
<polygon fill="midnightblue" stroke="midnightblue" points="172.165,-87.0629 161.721,-88.8451 170.997,-93.9647 172.165,-87.0629"/>
</g>
<!-- Node28 -->
<g id="node28" class="node"><title>Node28</title>
<polygon fill="none" stroke="#bfbfbf" points="570.5,-69 570.5,-99 721.5,-99 721.5,-69 570.5,-69"/>
<text text-anchor="start" x="578.5" y="-87" font-family="Helvetica,sans-Serif" font-size="10.00">Math/GenVector/Displacement</text>
<text text-anchor="middle" x="646" y="-76" font-family="Helvetica,sans-Serif" font-size="10.00">Vector3D.h</text>
</g>
<!-- Node27&#45;&gt;Node28 -->
<g id="edge34" class="edge"><title>Node27&#45;&gt;Node28</title>
<path fill="none" stroke="midnightblue" d="M544.296,-142.372C561.39,-132.729 589.605,-116.812 611.986,-104.187"/>
<polygon fill="midnightblue" stroke="midnightblue" points="613.87,-107.143 620.86,-99.1815 610.431,-101.046 613.87,-107.143"/>
</g>
<!-- Node29 -->
<g id="node29" class="node"><title>Node29</title>
<polygon fill="none" stroke="#bfbfbf" points="740,-74.5 740,-93.5 916,-93.5 916,-74.5 740,-74.5"/>
<text text-anchor="middle" x="828" y="-81.5" font-family="Helvetica,sans-Serif" font-size="10.00">Math/GenVector/PositionVector3D.h</text>
</g>
<!-- Node27&#45;&gt;Node29 -->
<g id="edge35" class="edge"><title>Node27&#45;&gt;Node29</title>
<path fill="none" stroke="midnightblue" d="M567.782,-142.439C622.004,-130.471 720.431,-108.744 779.454,-95.7158"/>
<polygon fill="midnightblue" stroke="midnightblue" points="780.276,-99.1188 789.286,-93.5455 778.767,-92.2833 780.276,-99.1188"/>
</g>
<!-- Node30 -->
<g id="node30" class="node"><title>Node30</title>
<polygon fill="none" stroke="#bfbfbf" points="933.5,-74.5 933.5,-93.5 1082.5,-93.5 1082.5,-74.5 933.5,-74.5"/>
<text text-anchor="middle" x="1008" y="-81.5" font-family="Helvetica,sans-Serif" font-size="10.00">Math/GenVector/Rotation3D.h</text>
</g>
<!-- Node27&#45;&gt;Node30 -->
<g id="edge36" class="edge"><title>Node27&#45;&gt;Node30</title>
<path fill="none" stroke="midnightblue" d="M566.089,-142.451C576.975,-140.135 588.93,-137.78 600,-136 743.049,-112.998 780.607,-120.746 924,-100 933.467,-98.6303 943.502,-96.9973 953.217,-95.3209"/>
<polygon fill="midnightblue" stroke="midnightblue" points="953.944,-98.7468 963.187,-93.5675 952.732,-91.8526 953.944,-98.7468"/>
</g>
<!-- Node31 -->
<g id="node31" class="node"><title>Node31</title>
<polygon fill="none" stroke="#bfbfbf" points="1101,-74.5 1101,-93.5 1257,-93.5 1257,-74.5 1101,-74.5"/>
<text text-anchor="middle" x="1179" y="-81.5" font-family="Helvetica,sans-Serif" font-size="10.00">Math/GenVector/Transform3D.h</text>
</g>
<!-- Node27&#45;&gt;Node31 -->
<g id="edge37" class="edge"><title>Node27&#45;&gt;Node31</title>
<path fill="none" stroke="midnightblue" d="M564.588,-142.499C575.857,-140.072 588.399,-137.643 600,-136 816.646,-105.316 873.792,-126.413 1091,-100 1101.61,-98.7098 1112.89,-97.0263 1123.71,-95.2549"/>
<polygon fill="midnightblue" stroke="midnightblue" points="1124.62,-98.6505 1133.9,-93.5396 1123.46,-91.7475 1124.62,-98.6505"/>
</g>
<!-- Node32 -->
<g id="node32" class="node"><title>Node32</title>
<polygon fill="none" stroke="#bfbfbf" points="1275,-74.5 1275,-93.5 1435,-93.5 1435,-74.5 1275,-74.5"/>
<text text-anchor="middle" x="1355" y="-81.5" font-family="Helvetica,sans-Serif" font-size="10.00">Math/GenVector/Translation3D.h</text>
</g>
<!-- Node27&#45;&gt;Node32 -->
<g id="edge38" class="edge"><title>Node27&#45;&gt;Node32</title>
<path fill="none" stroke="midnightblue" d="M564.207,-142.442C575.568,-139.982 588.259,-137.548 600,-136 893.888,-97.2479 971.375,-132.685 1266,-100 1277.09,-98.7698 1288.89,-97.0635 1300.16,-95.2412"/>
<polygon fill="midnightblue" stroke="midnightblue" points="1301.03,-98.6443 1310.32,-93.5453 1299.88,-91.7399 1301.03,-98.6443"/>
</g>
<!-- Node33 -->
<g id="node33" class="node"><title>Node33</title>
<polygon fill="none" stroke="#bfbfbf" points="333,-74.5 333,-93.5 409,-93.5 409,-74.5 333,-74.5"/>
<text text-anchor="middle" x="371" y="-81.5" font-family="Helvetica,sans-Serif" font-size="10.00">TGeoMatrix.h</text>
</g>
<!-- Node27&#45;&gt;Node33 -->
<g id="edge40" class="edge"><title>Node27&#45;&gt;Node33</title>
<path fill="none" stroke="midnightblue" d="M508.344,-142.372C481.021,-130.958 432.659,-110.756 401.224,-97.6252"/>
<polygon fill="midnightblue" stroke="midnightblue" points="402.237,-94.2554 391.661,-93.6305 399.539,-100.715 402.237,-94.2554"/>
</g>
<!-- Node34 -->
<g id="node34" class="node"><title>Node34</title>
<g id="a_node34"><a xlink:href="../../d2/dd0/Cartesian2D_8h.html" target="_top" xlink:title="MathUtils/Cartesian2D.h">
<polygon fill="none" stroke="black" points="427.5,-74.5 427.5,-93.5 552.5,-93.5 552.5,-74.5 427.5,-74.5"/>
<text text-anchor="middle" x="490" y="-81.5" font-family="Helvetica,sans-Serif" font-size="10.00">MathUtils/Cartesian2D.h</text>
</a>
</g>
</g>
<!-- Node27&#45;&gt;Node34 -->
<g id="edge42" class="edge"><title>Node27&#45;&gt;Node34</title>
<path fill="none" stroke="midnightblue" d="M523.901,-142.372C517.978,-132.348 508.05,-115.546 500.464,-102.708"/>
<polygon fill="midnightblue" stroke="midnightblue" points="503.325,-100.67 495.224,-93.8411 497.298,-104.231 503.325,-100.67"/>
</g>
<!-- Node35 -->
<g id="node35" class="node"><title>Node35</title>
<polygon fill="none" stroke="#bfbfbf" points="323.5,-1 323.5,-31 474.5,-31 474.5,-1 323.5,-1"/>
<text text-anchor="start" x="331.5" y="-19" font-family="Helvetica,sans-Serif" font-size="10.00">Math/GenVector/Displacement</text>
<text text-anchor="middle" x="399" y="-8" font-family="Helvetica,sans-Serif" font-size="10.00">Vector2D.h</text>
</g>
<!-- Node34&#45;&gt;Node35 -->
<g id="edge43" class="edge"><title>Node34&#45;&gt;Node35</title>
<path fill="none" stroke="midnightblue" d="M478.103,-74.3717C465.221,-65.0286 444.22,-49.7966 427.093,-37.375"/>
<polygon fill="midnightblue" stroke="midnightblue" points="428.703,-34.2194 418.553,-31.1815 424.593,-39.8859 428.703,-34.2194"/>
</g>
<!-- Node36 -->
<g id="node36" class="node"><title>Node36</title>
<polygon fill="none" stroke="#bfbfbf" points="493,-6.5 493,-25.5 669,-25.5 669,-6.5 493,-6.5"/>
<text text-anchor="middle" x="581" y="-13.5" font-family="Helvetica,sans-Serif" font-size="10.00">Math/GenVector/PositionVector2D.h</text>
</g>
<!-- Node34&#45;&gt;Node36 -->
<g id="edge44" class="edge"><title>Node34&#45;&gt;Node36</title>
<path fill="none" stroke="midnightblue" d="M501.897,-74.3717C516.884,-63.5015 542.862,-44.6602 560.942,-31.5474"/>
<polygon fill="midnightblue" stroke="midnightblue" points="563.06,-34.3349 569.1,-25.6305 558.95,-28.6684 563.06,-34.3349"/>
</g>
<!-- Node37&#45;&gt;Node20 -->
<g id="edge50" class="edge"><title>Node37&#45;&gt;Node20</title>
<path fill="none" stroke="midnightblue" d="M1622.4,-272.838C1606.72,-264.6 1589.88,-252.527 1581,-236 1574.27,-223.471 1571.73,-214.788 1581,-204 1615.57,-163.758 1765.43,-180.433 1817,-168 1820.94,-167.05 1825.03,-165.911 1829.06,-164.691"/>
<polygon fill="midnightblue" stroke="midnightblue" points="1830.41,-167.935 1838.86,-161.551 1828.27,-161.269 1830.41,-167.935"/>
</g>
<!-- Node38 -->
<g id="node38" class="node"><title>Node38</title>
<polygon fill="none" stroke="#bfbfbf" points="1590,-210.5 1590,-229.5 1652,-229.5 1652,-210.5 1590,-210.5"/>
<text text-anchor="middle" x="1621" y="-217.5" font-family="Helvetica,sans-Serif" font-size="10.00">TNamed.h</text>
</g>
<!-- Node37&#45;&gt;Node38 -->
<g id="edge46" class="edge"><title>Node37&#45;&gt;Node38</title>
<path fill="none" stroke="midnightblue" d="M1649.97,-272.679C1644.37,-262.694 1636.87,-249.307 1630.9,-238.66"/>
<polygon fill="midnightblue" stroke="midnightblue" points="1633.89,-236.84 1625.95,-229.828 1627.79,-240.263 1633.89,-236.84"/>
</g>
<!-- Node39 -->
<g id="node39" class="node"><title>Node39</title>
<polygon fill="none" stroke="#bfbfbf" points="1670.5,-210.5 1670.5,-229.5 1719.5,-229.5 1719.5,-210.5 1670.5,-210.5"/>
<text text-anchor="middle" x="1695" y="-217.5" font-family="Helvetica,sans-Serif" font-size="10.00">cassert</text>
</g>
<!-- Node37&#45;&gt;Node39 -->
<g id="edge47" class="edge"><title>Node37&#45;&gt;Node39</title>
<path fill="none" stroke="midnightblue" d="M1666.03,-272.679C1671.63,-262.694 1679.13,-249.307 1685.1,-238.66"/>
<polygon fill="midnightblue" stroke="midnightblue" points="1688.21,-240.263 1690.05,-229.828 1682.11,-236.84 1688.21,-240.263"/>
</g>
<!-- Node40 -->
<g id="node40" class="node"><title>Node40</title>
<polygon fill="none" stroke="#bfbfbf" points="1737.5,-210.5 1737.5,-229.5 1796.5,-229.5 1796.5,-210.5 1737.5,-210.5"/>
<text text-anchor="middle" x="1767" y="-217.5" font-family="Helvetica,sans-Serif" font-size="10.00">stdexcept</text>
</g>
<!-- Node37&#45;&gt;Node40 -->
<g id="edge48" class="edge"><title>Node37&#45;&gt;Node40</title>
<path fill="none" stroke="midnightblue" d="M1681.38,-272.841C1699.9,-261.63 1725.62,-246.056 1744.03,-234.91"/>
<polygon fill="midnightblue" stroke="midnightblue" points="1745.92,-237.855 1752.66,-229.682 1742.29,-231.868 1745.92,-237.855"/>
</g>
<!-- Node41 -->
<g id="node41" class="node"><title>Node41</title>
<polygon fill="none" stroke="#bfbfbf" points="1814.5,-210.5 1814.5,-229.5 1859.5,-229.5 1859.5,-210.5 1814.5,-210.5"/>
<text text-anchor="middle" x="1837" y="-217.5" font-family="Helvetica,sans-Serif" font-size="10.00">gsl/gsl</text>
</g>
<!-- Node37&#45;&gt;Node41 -->
<g id="edge49" class="edge"><title>Node37&#45;&gt;Node41</title>
<path fill="none" stroke="midnightblue" d="M1702.51,-272.901C1731.9,-263.265 1771.09,-249.785 1805,-236 1806.64,-235.333 1808.32,-234.625 1810.01,-233.895"/>
<polygon fill="midnightblue" stroke="midnightblue" points="1811.87,-236.893 1819.54,-229.586 1808.99,-230.514 1811.87,-236.893"/>
</g>
<!-- Node43 -->
<g id="node43" class="node"><title>Node43</title>
<g id="a_node43"><a xlink:href="../../d7/dcd/MCCompLabel_8h.html" target="_top" xlink:title="SimulationDataFormat\l/MCCompLabel.h">
<polygon fill="none" stroke="black" points="0,-205 0,-235 114,-235 114,-205 0,-205"/>
<text text-anchor="start" x="8" y="-223" font-family="Helvetica,sans-Serif" font-size="10.00">SimulationDataFormat</text>
<text text-anchor="middle" x="57" y="-212" font-family="Helvetica,sans-Serif" font-size="10.00">/MCCompLabel.h</text>
</a>
</g>
</g>
<!-- Node42&#45;&gt;Node43 -->
<g id="edge52" class="edge"><title>Node42&#45;&gt;Node43</title>
<path fill="none" stroke="midnightblue" d="M154.358,-278.372C138.067,-268.771 111.225,-252.954 89.8463,-240.356"/>
<polygon fill="midnightblue" stroke="midnightblue" points="91.4578,-237.243 81.0655,-235.181 87.904,-243.274 91.4578,-237.243"/>
</g>
<!-- Node43&#45;&gt;Node3 -->
<g id="edge53" class="edge"><title>Node43&#45;&gt;Node3</title>
<path fill="none" stroke="midnightblue" d="M47.9909,-204.692C37.9147,-186.672 24.9735,-155.69 41,-136 54.0678,-119.945 183.038,-99.6554 248.824,-90.2408"/>
<polygon fill="midnightblue" stroke="midnightblue" points="249.402,-93.694 258.812,-88.8256 248.42,-86.7632 249.402,-93.694"/>
</g>
</g>
</svg>
        <g id="navigator" transform="translate(0 0)" fill="#404254">
                <rect fill="#f2f5e9" fill-opacity="0.5" stroke="#606060" stroke-width=".5" x="0" y="0" width="60" height="60"/>
                <use id="zoomplus" xlink:href="#zoomPlus" x="17" y="9" onmousedown="handleZoom(evt,'in')"/>
                <use id="zoomminus" xlink:href="#zoomMin" x="42" y="9" onmousedown="handleZoom(evt,'out')"/>
                <use id="reset" xlink:href="#resetDef" x="30" y="36" onmousedown="handleReset()"/>
                <g id="arrowUp" xlink:href="#dirArrow" transform="translate(30 24)" onmousedown="handlePan(0,-1)">
                  <use xlink:href="#rim" fill="#404040">
                        <set attributeName="fill" to="#808080" begin="arrowUp.mouseover" end="arrowUp.mouseout"/>
                  </use>
                  <path fill="none" stroke="white" stroke-width="1.5" d="M0,-3.0v7 M-2.5,-0.5L0,-3.0L2.5,-0.5"/>
                </g>
                <g id="arrowRight" xlink:href="#dirArrow" transform="rotate(90) translate(36 -43)" onmousedown="handlePan(1,0)">
                  <use xlink:href="#rim" fill="#404040">
                        <set attributeName="fill" to="#808080" begin="arrowRight.mouseover" end="arrowRight.mouseout"/>
                  </use>
                  <path fill="none" stroke="white" stroke-width="1.5" d="M0,-3.0v7 M-2.5,-0.5L0,-3.0L2.5,-0.5"/>
                </g>
                <g id="arrowDown" xlink:href="#dirArrow" transform="rotate(180) translate(-30 -48)" onmousedown="handlePan(0,1)">
                  <use xlink:href="#rim" fill="#404040">
                        <set attributeName="fill" to="#808080" begin="arrowDown.mouseover" end="arrowDown.mouseout"/>
                  </use>
                  <path fill="none" stroke="white" stroke-width="1.5" d="M0,-3.0v7 M-2.5,-0.5L0,-3.0L2.5,-0.5"/>
                </g>
                <g id="arrowLeft" xlink:href="#dirArrow" transform="rotate(270) translate(-36 17)" onmousedown="handlePan(-1,0)">
                  <use xlink:href="#rim" fill="#404040">
                        <set attributeName="fill" to="#808080" begin="arrowLeft.mouseover" end="arrowLeft.mouseout"/>
                  </use>
                  <path fill="none" stroke="white" stroke-width="1.5" d="M0,-3.0v7 M-2.5,-0.5L0,-3.0L2.5,-0.5"/>
                </g>
        </g>
        <svg viewBox="0 0 15 15" width="100%" height="30px" preserveAspectRatio="xMaxYMin meet">
         <g id="arrow_out" transform="scale(0.3 0.3)">
          <a xlink:href="TOF_2simulation_2include_2TOFSimulation_2Digitizer_8h__incl_org.svg" target="_base">
           <rect id="button" ry="5" rx="5" y="6" x="6" height="38" width="38"
                fill="#f2f5e9" fill-opacity="0.5" stroke="#606060" stroke-width="1.0"/>
           <path id="arrow"
             d="M 11.500037,31.436501 C 11.940474,20.09759 22.043105,11.32322 32.158766,21.979434 L 37.068811,17.246167 C 37.068811,17.246167 37.088388,32 37.088388,32 L 22.160133,31.978069 C 22.160133,31.978069 26.997745,27.140456 26.997745,27.140456 C 18.528582,18.264221 13.291696,25.230495 11.500037,31.436501 z"
             style="fill:#404040;"/>
          </a>
         </g>
        </svg>
</svg>
