<?xml version="1.0" encoding="UTF-8" standalone="no"?>
<!DOCTYPE svg PUBLIC "-//W3C//DTD SVG 1.1//EN"
 "http://www.w3.org/Graphics/SVG/1.1/DTD/svg11.dtd">
<!-- Generated by graphviz version 2.36.0 (20140111.2315)
 -->
<!-- Title: /home/travis/build/AliceO2Group/AliceO2/Detectors/FIT/base/include/FITBase/Digit.h Pages: 1 -->
<svg width="850pt" height="352pt"
 viewBox="0.00 0.00 850.00 352.00" xmlns="http://www.w3.org/2000/svg" xmlns:xlink="http://www.w3.org/1999/xlink">
<g id="graph0" class="graph" transform="scale(1 1) rotate(0) translate(4 348)">
<title>/home/travis/build/AliceO2Group/AliceO2/Detectors/FIT/base/include/FITBase/Digit.h</title>
<!-- Node1 -->
<g id="node1" class="node"><title>Node1</title>
<polygon fill="#bfbfbf" stroke="black" points="231,-291 231,-343 369,-343 369,-291 231,-291"/>
<text text-anchor="start" x="239" y="-331" font-family="Helvetica,sans-Serif" font-size="10.00">/home/travis/build</text>
<text text-anchor="start" x="239" y="-320" font-family="Helvetica,sans-Serif" font-size="10.00">/AliceO2Group/AliceO2</text>
<text text-anchor="start" x="239" y="-309" font-family="Helvetica,sans-Serif" font-size="10.00">/Detectors/FIT/base/include</text>
<text text-anchor="middle" x="300" y="-298" font-family="Helvetica,sans-Serif" font-size="10.00">/FITBase/Digit.h</text>
</g>
<!-- Node2 -->
<g id="node2" class="node"><title>Node2</title>
<g id="a_node2"><a xlink:href="../../d9/de8/FIT_2base_2src_2Digit_8cxx.html" target="_top" xlink:title="/home/travis/build\l/AliceO2Group/AliceO2\l/Detectors/FIT/base/src\l/Digit.cxx">
<polygon fill="none" stroke="black" points="-0.5,-196 -0.5,-248 120.5,-248 120.5,-196 -0.5,-196"/>
<text text-anchor="start" x="7.5" y="-236" font-family="Helvetica,sans-Serif" font-size="10.00">/home/travis/build</text>
<text text-anchor="start" x="7.5" y="-225" font-family="Helvetica,sans-Serif" font-size="10.00">/AliceO2Group/AliceO2</text>
<text text-anchor="start" x="7.5" y="-214" font-family="Helvetica,sans-Serif" font-size="10.00">/Detectors/FIT/base/src</text>
<text text-anchor="middle" x="60" y="-203" font-family="Helvetica,sans-Serif" font-size="10.00">/Digit.cxx</text>
</a>
</g>
</g>
<!-- Node1&#45;&gt;Node2 -->
<g id="edge1" class="edge"><title>Node1&#45;&gt;Node2</title>
<path fill="none" stroke="midnightblue" d="M221.986,-287.279C194.427,-276.976 163.266,-265.149 135,-254 130.151,-252.087 125.136,-250.08 120.106,-248.045"/>
<polygon fill="midnightblue" stroke="midnightblue" points="220.98,-290.639 231.573,-290.856 223.427,-284.081 220.98,-290.639"/>
</g>
<!-- Node3 -->
<g id="node3" class="node"><title>Node3</title>
<g id="a_node3"><a xlink:href="../../d1/d6c/CollisionTimeRecoTask_8h.html" target="_top" xlink:title="Definition of the FIT collision time reconstruction task. ">
<polygon fill="none" stroke="black" points="177.5,-90.5 177.5,-153.5 322.5,-153.5 322.5,-90.5 177.5,-90.5"/>
<text text-anchor="start" x="185.5" y="-141.5" font-family="Helvetica,sans-Serif" font-size="10.00">/home/travis/build</text>
<text text-anchor="start" x="185.5" y="-130.5" font-family="Helvetica,sans-Serif" font-size="10.00">/AliceO2Group/AliceO2</text>
<text text-anchor="start" x="185.5" y="-119.5" font-family="Helvetica,sans-Serif" font-size="10.00">/Detectors/FIT/reconstruction</text>
<text text-anchor="start" x="185.5" y="-108.5" font-family="Helvetica,sans-Serif" font-size="10.00">/include/FITReconstruction</text>
<text text-anchor="middle" x="250" y="-97.5" font-family="Helvetica,sans-Serif" font-size="10.00">/CollisionTimeRecoTask.h</text>
</a>
</g>
</g>
<!-- Node1&#45;&gt;Node3 -->
<g id="edge2" class="edge"><title>Node1&#45;&gt;Node3</title>
<path fill="none" stroke="midnightblue" d="M280.4,-281.661C276.068,-272.872 271.909,-263.276 269,-254 258.515,-220.559 253.779,-180.473 251.664,-153.526"/>
<polygon fill="midnightblue" stroke="midnightblue" points="277.43,-283.538 285.117,-290.829 283.654,-280.336 277.43,-283.538"/>
</g>
<!-- Node4 -->
<g id="node4" class="node"><title>Node4</title>
<g id="a_node4"><a xlink:href="../../d9/d2f/CollisionTimeRecoTask_8cxx.html" target="_top" xlink:title="Implementation of the FIT reconstruction task. ">
<polygon fill="none" stroke="black" points="170.5,-1 170.5,-53 329.5,-53 329.5,-1 170.5,-1"/>
<text text-anchor="start" x="178.5" y="-41" font-family="Helvetica,sans-Serif" font-size="10.00">/home/travis/build</text>
<text text-anchor="start" x="178.5" y="-30" font-family="Helvetica,sans-Serif" font-size="10.00">/AliceO2Group/AliceO2</text>
<text text-anchor="start" x="178.5" y="-19" font-family="Helvetica,sans-Serif" font-size="10.00">/Detectors/FIT/reconstruction</text>
<text text-anchor="middle" x="250" y="-8" font-family="Helvetica,sans-Serif" font-size="10.00">/src/CollisionTimeRecoTask.cxx</text>
</a>
</g>
</g>
<!-- Node1&#45;&gt;Node4 -->
<g id="edge8" class="edge"><title>Node1&#45;&gt;Node4</title>
<path fill="none" stroke="midnightblue" d="M262.263,-283.952C230.246,-254.082 186.634,-206.37 168,-154 158.464,-127.202 155.329,-115.466 168,-90 175.473,-74.9801 188.514,-62.6311 202.027,-53.0168"/>
<polygon fill="midnightblue" stroke="midnightblue" points="259.983,-286.611 269.721,-290.786 264.712,-281.449 259.983,-286.611"/>
</g>
<!-- Node5 -->
<g id="node5" class="node"><title>Node5</title>
<g id="a_node5"><a xlink:href="../../d4/d57/RecPoints_8h.html" target="_top" xlink:title="/home/travis/build\l/AliceO2Group/AliceO2\l/Detectors/FIT/reconstruction\l/include/FITReconstruction\l/RecPoints.h">
<polygon fill="none" stroke="black" points="278.5,-190.5 278.5,-253.5 423.5,-253.5 423.5,-190.5 278.5,-190.5"/>
<text text-anchor="start" x="286.5" y="-241.5" font-family="Helvetica,sans-Serif" font-size="10.00">/home/travis/build</text>
<text text-anchor="start" x="286.5" y="-230.5" font-family="Helvetica,sans-Serif" font-size="10.00">/AliceO2Group/AliceO2</text>
<text text-anchor="start" x="286.5" y="-219.5" font-family="Helvetica,sans-Serif" font-size="10.00">/Detectors/FIT/reconstruction</text>
<text text-anchor="start" x="286.5" y="-208.5" font-family="Helvetica,sans-Serif" font-size="10.00">/include/FITReconstruction</text>
<text text-anchor="middle" x="351" y="-197.5" font-family="Helvetica,sans-Serif" font-size="10.00">/RecPoints.h</text>
</a>
</g>
</g>
<!-- Node1&#45;&gt;Node5 -->
<g id="edge4" class="edge"><title>Node1&#45;&gt;Node5</title>
<path fill="none" stroke="midnightblue" d="M318.814,-281.692C323.849,-272.511 329.257,-262.648 334.177,-253.677"/>
<polygon fill="midnightblue" stroke="midnightblue" points="315.676,-280.136 313.936,-290.587 321.813,-283.502 315.676,-280.136"/>
</g>
<!-- Node7 -->
<g id="node7" class="node"><title>Node7</title>
<g id="a_node7"><a xlink:href="../../d3/da0/FIT_2simulation_2include_2FITSimulation_2Digitizer_8h.html" target="_top" xlink:title="/home/travis/build\l/AliceO2Group/AliceO2\l/Detectors/FIT/simulation\l/include/FITSimulation/Digitizer.h">
<polygon fill="none" stroke="black" points="538.5,-196 538.5,-248 699.5,-248 699.5,-196 538.5,-196"/>
<text text-anchor="start" x="546.5" y="-236" font-family="Helvetica,sans-Serif" font-size="10.00">/home/travis/build</text>
<text text-anchor="start" x="546.5" y="-225" font-family="Helvetica,sans-Serif" font-size="10.00">/AliceO2Group/AliceO2</text>
<text text-anchor="start" x="546.5" y="-214" font-family="Helvetica,sans-Serif" font-size="10.00">/Detectors/FIT/simulation</text>
<text text-anchor="middle" x="619" y="-203" font-family="Helvetica,sans-Serif" font-size="10.00">/include/FITSimulation/Digitizer.h</text>
</a>
</g>
</g>
<!-- Node1&#45;&gt;Node7 -->
<g id="edge9" class="edge"><title>Node1&#45;&gt;Node7</title>
<path fill="none" stroke="midnightblue" d="M379.047,-292.955C427.572,-278.808 489.556,-260.738 538.369,-246.507"/>
<polygon fill="midnightblue" stroke="midnightblue" points="377.839,-289.661 369.218,-295.82 379.798,-296.382 377.839,-289.661"/>
</g>
<!-- Node8 -->
<g id="node8" class="node"><title>Node8</title>
<g id="a_node8"><a xlink:href="../../d4/dcd/FIT_2simulation_2include_2FITSimulation_2DigitizerTask_8h.html" target="_top" xlink:title="/home/travis/build\l/AliceO2Group/AliceO2\l/Detectors/FIT/simulation\l/include/FITSimulation/Digitizer\lTask.h">
<polygon fill="none" stroke="black" points="542.5,-90.5 542.5,-153.5 695.5,-153.5 695.5,-90.5 542.5,-90.5"/>
<text text-anchor="start" x="550.5" y="-141.5" font-family="Helvetica,sans-Serif" font-size="10.00">/home/travis/build</text>
<text text-anchor="start" x="550.5" y="-130.5" font-family="Helvetica,sans-Serif" font-size="10.00">/AliceO2Group/AliceO2</text>
<text text-anchor="start" x="550.5" y="-119.5" font-family="Helvetica,sans-Serif" font-size="10.00">/Detectors/FIT/simulation</text>
<text text-anchor="start" x="550.5" y="-108.5" font-family="Helvetica,sans-Serif" font-size="10.00">/include/FITSimulation/Digitizer</text>
<text text-anchor="middle" x="619" y="-97.5" font-family="Helvetica,sans-Serif" font-size="10.00">Task.h</text>
</a>
</g>
</g>
<!-- Node1&#45;&gt;Node8 -->
<g id="edge14" class="edge"><title>Node1&#45;&gt;Node8</title>
<path fill="none" stroke="midnightblue" d="M368.067,-286.749C388.963,-277.051 411.771,-265.719 432,-254 460.554,-237.457 531.068,-187.019 576.882,-153.774"/>
<polygon fill="midnightblue" stroke="midnightblue" points="366.558,-283.59 358.93,-290.943 369.478,-289.952 366.558,-283.59"/>
</g>
<!-- Node3&#45;&gt;Node4 -->
<g id="edge3" class="edge"><title>Node3&#45;&gt;Node4</title>
<path fill="none" stroke="midnightblue" d="M250,-80.1125C250,-70.9165 250,-61.4234 250,-53.1001"/>
<polygon fill="midnightblue" stroke="midnightblue" points="246.5,-80.2905 250,-90.2906 253.5,-80.2906 246.5,-80.2905"/>
</g>
<!-- Node5&#45;&gt;Node3 -->
<g id="edge5" class="edge"><title>Node5&#45;&gt;Node3</title>
<path fill="none" stroke="midnightblue" d="M312.104,-183.259C302.001,-173.456 291.242,-163.017 281.568,-153.63"/>
<polygon fill="midnightblue" stroke="midnightblue" points="309.706,-185.809 319.32,-190.261 314.581,-180.785 309.706,-185.809"/>
</g>
<!-- Node5&#45;&gt;Node4 -->
<g id="edge6" class="edge"><title>Node5&#45;&gt;Node4</title>
<path fill="none" stroke="midnightblue" d="M352.469,-180.242C351.684,-152.963 347.108,-117.21 331,-90 322.34,-75.3704 308.784,-62.9942 295.222,-53.2387"/>
<polygon fill="midnightblue" stroke="midnightblue" points="348.969,-180.293 352.6,-190.247 355.968,-180.202 348.969,-180.293"/>
</g>
<!-- Node6 -->
<g id="node6" class="node"><title>Node6</title>
<g id="a_node6"><a xlink:href="../../d3/d21/RecPoints_8cxx.html" target="_top" xlink:title="/home/travis/build\l/AliceO2Group/AliceO2\l/Detectors/FIT/reconstruction\l/src/RecPoints.cxx">
<polygon fill="none" stroke="black" points="379.5,-96 379.5,-148 524.5,-148 524.5,-96 379.5,-96"/>
<text text-anchor="start" x="387.5" y="-136" font-family="Helvetica,sans-Serif" font-size="10.00">/home/travis/build</text>
<text text-anchor="start" x="387.5" y="-125" font-family="Helvetica,sans-Serif" font-size="10.00">/AliceO2Group/AliceO2</text>
<text text-anchor="start" x="387.5" y="-114" font-family="Helvetica,sans-Serif" font-size="10.00">/Detectors/FIT/reconstruction</text>
<text text-anchor="middle" x="452" y="-103" font-family="Helvetica,sans-Serif" font-size="10.00">/src/RecPoints.cxx</text>
</a>
</g>
</g>
<!-- Node5&#45;&gt;Node6 -->
<g id="edge7" class="edge"><title>Node5&#45;&gt;Node6</title>
<path fill="none" stroke="midnightblue" d="M390.072,-183.089C402.178,-171.342 415.209,-158.698 426.179,-148.054"/>
<polygon fill="midnightblue" stroke="midnightblue" points="387.419,-180.785 382.68,-190.261 392.294,-185.809 387.419,-180.785"/>
</g>
<!-- Node7&#45;&gt;Node8 -->
<g id="edge10" class="edge"><title>Node7&#45;&gt;Node8</title>
<path fill="none" stroke="midnightblue" d="M619,-185.692C619,-175.241 619,-163.887 619,-153.749"/>
<polygon fill="midnightblue" stroke="midnightblue" points="615.5,-185.763 619,-195.763 622.5,-185.763 615.5,-185.763"/>
</g>
<!-- Node11 -->
<g id="node11" class="node"><title>Node11</title>
<g id="a_node11"><a xlink:href="../../d1/d0b/FIT_2simulation_2src_2Digitizer_8cxx.html" target="_top" xlink:title="/home/travis/build\l/AliceO2Group/AliceO2\l/Detectors/FIT/simulation\l/src/Digitizer.cxx">
<polygon fill="none" stroke="black" points="714,-96 714,-148 842,-148 842,-96 714,-96"/>
<text text-anchor="start" x="722" y="-136" font-family="Helvetica,sans-Serif" font-size="10.00">/home/travis/build</text>
<text text-anchor="start" x="722" y="-125" font-family="Helvetica,sans-Serif" font-size="10.00">/AliceO2Group/AliceO2</text>
<text text-anchor="start" x="722" y="-114" font-family="Helvetica,sans-Serif" font-size="10.00">/Detectors/FIT/simulation</text>
<text text-anchor="middle" x="778" y="-103" font-family="Helvetica,sans-Serif" font-size="10.00">/src/Digitizer.cxx</text>
</a>
</g>
</g>
<!-- Node7&#45;&gt;Node11 -->
<g id="edge13" class="edge"><title>Node7&#45;&gt;Node11</title>
<path fill="none" stroke="midnightblue" d="M668.522,-190.477C690.585,-176.879 716.256,-161.056 737.192,-148.152"/>
<polygon fill="midnightblue" stroke="midnightblue" points="666.623,-187.536 659.946,-195.763 670.296,-193.495 666.623,-187.536"/>
</g>
<!-- Node9 -->
<g id="node9" class="node"><title>Node9</title>
<g id="a_node9"><a xlink:href="../../d5/d69/FIT_2simulation_2src_2DigitizerTask_8cxx.html" target="_top" xlink:title="/home/travis/build\l/AliceO2Group/AliceO2\l/Detectors/FIT/simulation\l/src/DigitizerTask.cxx">
<polygon fill="none" stroke="black" points="625,-1 625,-53 753,-53 753,-1 625,-1"/>
<text text-anchor="start" x="633" y="-41" font-family="Helvetica,sans-Serif" font-size="10.00">/home/travis/build</text>
<text text-anchor="start" x="633" y="-30" font-family="Helvetica,sans-Serif" font-size="10.00">/AliceO2Group/AliceO2</text>
<text text-anchor="start" x="633" y="-19" font-family="Helvetica,sans-Serif" font-size="10.00">/Detectors/FIT/simulation</text>
<text text-anchor="middle" x="689" y="-8" font-family="Helvetica,sans-Serif" font-size="10.00">/src/DigitizerTask.cxx</text>
</a>
</g>
</g>
<!-- Node8&#45;&gt;Node9 -->
<g id="edge11" class="edge"><title>Node8&#45;&gt;Node9</title>
<path fill="none" stroke="midnightblue" d="M648.217,-82.1833C655.617,-72.3522 663.371,-62.0498 670.107,-53.1001"/>
<polygon fill="midnightblue" stroke="midnightblue" points="645.332,-80.1961 642.115,-90.2906 650.925,-84.4057 645.332,-80.1961"/>
</g>
<!-- Node10 -->
<g id="node10" class="node"><title>Node10</title>
<g id="a_node10"><a xlink:href="../../d9/d7d/run__digi__fit_8C.html" target="_top" xlink:title="/home/travis/build\l/AliceO2Group/AliceO2\l/macro/run_digi_fit.C">
<polygon fill="none" stroke="black" points="489,-6.5 489,-47.5 607,-47.5 607,-6.5 489,-6.5"/>
<text text-anchor="start" x="497" y="-35.5" font-family="Helvetica,sans-Serif" font-size="10.00">/home/travis/build</text>
<text text-anchor="start" x="497" y="-24.5" font-family="Helvetica,sans-Serif" font-size="10.00">/AliceO2Group/AliceO2</text>
<text text-anchor="middle" x="548" y="-13.5" font-family="Helvetica,sans-Serif" font-size="10.00">/macro/run_digi_fit.C</text>
</a>
</g>
</g>
<!-- Node8&#45;&gt;Node10 -->
<g id="edge12" class="edge"><title>Node8&#45;&gt;Node10</title>
<path fill="none" stroke="midnightblue" d="M589.366,-82.1833C580.259,-70.2549 570.623,-57.6327 562.944,-47.5747"/>
<polygon fill="midnightblue" stroke="midnightblue" points="586.705,-84.466 595.555,-90.2906 592.269,-80.2183 586.705,-84.466"/>
</g>
</g>
</svg>
