<?xml version="1.0" encoding="UTF-8" standalone="no"?>
<!DOCTYPE svg PUBLIC "-//W3C//DTD SVG 1.1//EN"
 "http://www.w3.org/Graphics/SVG/1.1/DTD/svg11.dtd">
<!-- Generated by graphviz version 2.36.0 (20140111.2315)
 -->
<!-- Title: /home/travis/build/AliceO2Group/AliceO2/Detectors/ITSMFT/common/simulation/include/ITSMFTSimulation/Hit.h Pages: 1 -->
<svg width="2751pt" height="352pt"
 viewBox="0.00 0.00 2751.00 352.00" xmlns="http://www.w3.org/2000/svg" xmlns:xlink="http://www.w3.org/1999/xlink">
<g id="graph0" class="graph" transform="scale(1 1) rotate(0) translate(4 348)">
<title>/home/travis/build/AliceO2Group/AliceO2/Detectors/ITSMFT/common/simulation/include/ITSMFTSimulation/Hit.h</title>
<!-- Node1 -->
<g id="node1" class="node"><title>Node1</title>
<polygon fill="#bfbfbf" stroke="black" points="1421,-291 1421,-343 1627,-343 1627,-291 1421,-291"/>
<text text-anchor="start" x="1429" y="-331" font-family="Helvetica,sans-Serif" font-size="10.00">/home/travis/build</text>
<text text-anchor="start" x="1429" y="-320" font-family="Helvetica,sans-Serif" font-size="10.00">/AliceO2Group/AliceO2</text>
<text text-anchor="start" x="1429" y="-309" font-family="Helvetica,sans-Serif" font-size="10.00">/Detectors/ITSMFT/common</text>
<text text-anchor="middle" x="1524" y="-298" font-family="Helvetica,sans-Serif" font-size="10.00">/simulation/include/ITSMFTSimulation/Hit.h</text>
</g>
<!-- Node2 -->
<g id="node2" class="node"><title>Node2</title>
<g id="a_node2"><a xlink:href="../../d7/d9c/ITSMFT_2common_2simulation_2include_2ITSMFTSimulation_2Digitizer_8h.html" target="_top" xlink:title="/home/travis/build\l/AliceO2Group/AliceO2\l/Detectors/ITSMFT/common\l/simulation/include/ITSMFTSimulation\l/Digitizer.h">
<polygon fill="none" stroke="black" points="431,-190.5 431,-253.5 613,-253.5 613,-190.5 431,-190.5"/>
<text text-anchor="start" x="439" y="-241.5" font-family="Helvetica,sans-Serif" font-size="10.00">/home/travis/build</text>
<text text-anchor="start" x="439" y="-230.5" font-family="Helvetica,sans-Serif" font-size="10.00">/AliceO2Group/AliceO2</text>
<text text-anchor="start" x="439" y="-219.5" font-family="Helvetica,sans-Serif" font-size="10.00">/Detectors/ITSMFT/common</text>
<text text-anchor="start" x="439" y="-208.5" font-family="Helvetica,sans-Serif" font-size="10.00">/simulation/include/ITSMFTSimulation</text>
<text text-anchor="middle" x="522" y="-197.5" font-family="Helvetica,sans-Serif" font-size="10.00">/Digitizer.h</text>
</a>
</g>
</g>
<!-- Node1&#45;&gt;Node2 -->
<g id="edge1" class="edge"><title>Node1&#45;&gt;Node2</title>
<path fill="none" stroke="midnightblue" d="M1410.83,-312.487C1247.16,-306.337 935.122,-290.602 672,-254 652.905,-251.344 632.594,-247.706 613.289,-243.855"/>
<polygon fill="midnightblue" stroke="midnightblue" points="1410.8,-315.988 1420.92,-312.861 1411.05,-308.993 1410.8,-315.988"/>
</g>
<!-- Node4 -->
<g id="node4" class="node"><title>Node4</title>
<g id="a_node4"><a xlink:href="../../d9/d51/ITSMFT_2ITS_2simulation_2include_2ITSSimulation_2DigitizerTask_8h.html" target="_top" xlink:title="/home/travis/build\l/AliceO2Group/AliceO2\l/Detectors/ITSMFT/ITS\l/simulation/include/ITSSimulation\l/DigitizerTask.h">
<polygon fill="none" stroke="black" points="244,-90.5 244,-153.5 406,-153.5 406,-90.5 244,-90.5"/>
<text text-anchor="start" x="252" y="-141.5" font-family="Helvetica,sans-Serif" font-size="10.00">/home/travis/build</text>
<text text-anchor="start" x="252" y="-130.5" font-family="Helvetica,sans-Serif" font-size="10.00">/AliceO2Group/AliceO2</text>
<text text-anchor="start" x="252" y="-119.5" font-family="Helvetica,sans-Serif" font-size="10.00">/Detectors/ITSMFT/ITS</text>
<text text-anchor="start" x="252" y="-108.5" font-family="Helvetica,sans-Serif" font-size="10.00">/simulation/include/ITSSimulation</text>
<text text-anchor="middle" x="325" y="-97.5" font-family="Helvetica,sans-Serif" font-size="10.00">/DigitizerTask.h</text>
</a>
</g>
</g>
<!-- Node1&#45;&gt;Node4 -->
<g id="edge31" class="edge"><title>Node1&#45;&gt;Node4</title>
<path fill="none" stroke="midnightblue" d="M1410.6,-315.041C1146.71,-312.039 507.34,-300.048 422,-254 381.405,-232.095 353.18,-184.976 338.031,-153.632"/>
<polygon fill="midnightblue" stroke="midnightblue" points="1410.94,-318.544 1420.98,-315.156 1411.02,-311.545 1410.94,-318.544"/>
</g>
<!-- Node5 -->
<g id="node5" class="node"><title>Node5</title>
<g id="a_node5"><a xlink:href="../../da/d29/ITSMFT_2ITS_2simulation_2src_2DigitizerTask_8cxx.html" target="_top" xlink:title="/home/travis/build\l/AliceO2Group/AliceO2\l/Detectors/ITSMFT/ITS\l/simulation/src/DigitizerTask.cxx">
<polygon fill="none" stroke="black" points="0,-1 0,-53 160,-53 160,-1 0,-1"/>
<text text-anchor="start" x="8" y="-41" font-family="Helvetica,sans-Serif" font-size="10.00">/home/travis/build</text>
<text text-anchor="start" x="8" y="-30" font-family="Helvetica,sans-Serif" font-size="10.00">/AliceO2Group/AliceO2</text>
<text text-anchor="start" x="8" y="-19" font-family="Helvetica,sans-Serif" font-size="10.00">/Detectors/ITSMFT/ITS</text>
<text text-anchor="middle" x="80" y="-8" font-family="Helvetica,sans-Serif" font-size="10.00">/simulation/src/DigitizerTask.cxx</text>
</a>
</g>
</g>
<!-- Node1&#45;&gt;Node5 -->
<g id="edge33" class="edge"><title>Node1&#45;&gt;Node5</title>
<path fill="none" stroke="midnightblue" d="M1410.57,-313.971C1136.45,-308.501 453.462,-291.271 357,-254 244.396,-210.491 143.001,-102.638 100.782,-53.3293"/>
<polygon fill="midnightblue" stroke="midnightblue" points="1410.87,-317.478 1420.94,-314.177 1411.01,-310.479 1410.87,-317.478"/>
</g>
<!-- Node9 -->
<g id="node9" class="node"><title>Node9</title>
<g id="a_node9"><a xlink:href="../../dd/d11/ITSMFT_2MFT_2simulation_2include_2MFTSimulation_2DigitizerTask_8h.html" target="_top" xlink:title="/home/travis/build\l/AliceO2Group/AliceO2\l/Detectors/ITSMFT/MFT\l/simulation/include/MFTSimulation\l/DigitizerTask.h">
<polygon fill="none" stroke="black" points="584.5,-90.5 584.5,-153.5 751.5,-153.5 751.5,-90.5 584.5,-90.5"/>
<text text-anchor="start" x="592.5" y="-141.5" font-family="Helvetica,sans-Serif" font-size="10.00">/home/travis/build</text>
<text text-anchor="start" x="592.5" y="-130.5" font-family="Helvetica,sans-Serif" font-size="10.00">/AliceO2Group/AliceO2</text>
<text text-anchor="start" x="592.5" y="-119.5" font-family="Helvetica,sans-Serif" font-size="10.00">/Detectors/ITSMFT/MFT</text>
<text text-anchor="start" x="592.5" y="-108.5" font-family="Helvetica,sans-Serif" font-size="10.00">/simulation/include/MFTSimulation</text>
<text text-anchor="middle" x="668" y="-97.5" font-family="Helvetica,sans-Serif" font-size="10.00">/DigitizerTask.h</text>
</a>
</g>
</g>
<!-- Node1&#45;&gt;Node9 -->
<g id="edge38" class="edge"><title>Node1&#45;&gt;Node9</title>
<path fill="none" stroke="midnightblue" d="M1410.88,-312.692C1208.65,-305.944 801.046,-288.254 746,-254 709.481,-231.275 687.895,-184.617 677,-153.566"/>
<polygon fill="midnightblue" stroke="midnightblue" points="1410.83,-316.192 1420.94,-313.024 1411.06,-309.196 1410.83,-316.192"/>
</g>
<!-- Node10 -->
<g id="node10" class="node"><title>Node10</title>
<g id="a_node10"><a xlink:href="../../d6/d87/ITSMFT_2MFT_2simulation_2src_2DigitizerTask_8cxx.html" target="_top" xlink:title="/home/travis/build\l/AliceO2Group/AliceO2\l/Detectors/ITSMFT/MFT\l/simulation/src/DigitizerTask.cxx">
<polygon fill="none" stroke="black" points="722,-1 722,-53 882,-53 882,-1 722,-1"/>
<text text-anchor="start" x="730" y="-41" font-family="Helvetica,sans-Serif" font-size="10.00">/home/travis/build</text>
<text text-anchor="start" x="730" y="-30" font-family="Helvetica,sans-Serif" font-size="10.00">/AliceO2Group/AliceO2</text>
<text text-anchor="start" x="730" y="-19" font-family="Helvetica,sans-Serif" font-size="10.00">/Detectors/ITSMFT/MFT</text>
<text text-anchor="middle" x="802" y="-8" font-family="Helvetica,sans-Serif" font-size="10.00">/simulation/src/DigitizerTask.cxx</text>
</a>
</g>
</g>
<!-- Node1&#45;&gt;Node10 -->
<g id="edge40" class="edge"><title>Node1&#45;&gt;Node10</title>
<path fill="none" stroke="midnightblue" d="M1410.67,-314.83C1212.71,-311.599 820.842,-299.469 779,-254 752.561,-225.269 780.779,-105.787 794.922,-53.1213"/>
<polygon fill="midnightblue" stroke="midnightblue" points="1410.77,-318.332 1420.82,-314.991 1410.88,-311.333 1410.77,-318.332"/>
</g>
<!-- Node12 -->
<g id="node12" class="node"><title>Node12</title>
<g id="a_node12"><a xlink:href="../../da/d0c/ITSMFT_2common_2simulation_2src_2Hit_8cxx.html" target="_top" xlink:title="/home/travis/build\l/AliceO2Group/AliceO2\l/Detectors/ITSMFT/common\l/simulation/src/Hit.cxx">
<polygon fill="none" stroke="black" points="788,-196 788,-248 930,-248 930,-196 788,-196"/>
<text text-anchor="start" x="796" y="-236" font-family="Helvetica,sans-Serif" font-size="10.00">/home/travis/build</text>
<text text-anchor="start" x="796" y="-225" font-family="Helvetica,sans-Serif" font-size="10.00">/AliceO2Group/AliceO2</text>
<text text-anchor="start" x="796" y="-214" font-family="Helvetica,sans-Serif" font-size="10.00">/Detectors/ITSMFT/common</text>
<text text-anchor="middle" x="859" y="-203" font-family="Helvetica,sans-Serif" font-size="10.00">/simulation/src/Hit.cxx</text>
</a>
</g>
</g>
<!-- Node1&#45;&gt;Node12 -->
<g id="edge11" class="edge"><title>Node1&#45;&gt;Node12</title>
<path fill="none" stroke="midnightblue" d="M1410.67,-312.83C1291.71,-307.458 1099.95,-292.984 939,-254 932.341,-252.387 925.492,-250.353 918.736,-248.101"/>
<polygon fill="midnightblue" stroke="midnightblue" points="1410.74,-316.336 1420.89,-313.277 1411.05,-309.343 1410.74,-316.336"/>
</g>
<!-- Node13 -->
<g id="node13" class="node"><title>Node13</title>
<g id="a_node13"><a xlink:href="../../d5/de8/CheckClusters_8C.html" target="_top" xlink:title="/home/travis/build\l/AliceO2Group/AliceO2\l/Detectors/ITSMFT/ITS\l/macros/test/CheckClusters.C">
<polygon fill="none" stroke="black" points="948,-196 948,-248 1098,-248 1098,-196 948,-196"/>
<text text-anchor="start" x="956" y="-236" font-family="Helvetica,sans-Serif" font-size="10.00">/home/travis/build</text>
<text text-anchor="start" x="956" y="-225" font-family="Helvetica,sans-Serif" font-size="10.00">/AliceO2Group/AliceO2</text>
<text text-anchor="start" x="956" y="-214" font-family="Helvetica,sans-Serif" font-size="10.00">/Detectors/ITSMFT/ITS</text>
<text text-anchor="middle" x="1023" y="-203" font-family="Helvetica,sans-Serif" font-size="10.00">/macros/test/CheckClusters.C</text>
</a>
</g>
</g>
<!-- Node1&#45;&gt;Node13 -->
<g id="edge12" class="edge"><title>Node1&#45;&gt;Node13</title>
<path fill="none" stroke="midnightblue" d="M1410.72,-305.535C1326.13,-296.188 1208.18,-279.898 1107,-254 1100.37,-252.304 1093.54,-250.275 1086.78,-248.078"/>
<polygon fill="midnightblue" stroke="midnightblue" points="1410.54,-309.036 1420.86,-306.64 1411.3,-302.078 1410.54,-309.036"/>
</g>
<!-- Node14 -->
<g id="node14" class="node"><title>Node14</title>
<g id="a_node14"><a xlink:href="../../d9/dd0/CheckDigits_8C.html" target="_top" xlink:title="Simple macro to check ITSU clusters. ">
<polygon fill="none" stroke="black" points="1116.5,-196 1116.5,-248 1255.5,-248 1255.5,-196 1116.5,-196"/>
<text text-anchor="start" x="1124.5" y="-236" font-family="Helvetica,sans-Serif" font-size="10.00">/home/travis/build</text>
<text text-anchor="start" x="1124.5" y="-225" font-family="Helvetica,sans-Serif" font-size="10.00">/AliceO2Group/AliceO2</text>
<text text-anchor="start" x="1124.5" y="-214" font-family="Helvetica,sans-Serif" font-size="10.00">/Detectors/ITSMFT/ITS</text>
<text text-anchor="middle" x="1186" y="-203" font-family="Helvetica,sans-Serif" font-size="10.00">/macros/test/CheckDigits.C</text>
</a>
</g>
</g>
<!-- Node1&#45;&gt;Node14 -->
<g id="edge13" class="edge"><title>Node1&#45;&gt;Node14</title>
<path fill="none" stroke="midnightblue" d="M1410.89,-292.758C1364.9,-282.346 1311.51,-269.019 1264,-254 1258.3,-252.199 1252.43,-250.18 1246.58,-248.059"/>
<polygon fill="midnightblue" stroke="midnightblue" points="1410.36,-296.227 1420.88,-295.003 1411.89,-289.397 1410.36,-296.227"/>
</g>
<!-- Node15 -->
<g id="node15" class="node"><title>Node15</title>
<g id="a_node15"><a xlink:href="../../d9/db4/CheckTopologies_8C.html" target="_top" xlink:title="/home/travis/build\l/AliceO2Group/AliceO2\l/Detectors/ITSMFT/ITS\l/macros/test/CheckTopologies.C">
<polygon fill="none" stroke="black" points="1273.5,-196 1273.5,-248 1434.5,-248 1434.5,-196 1273.5,-196"/>
<text text-anchor="start" x="1281.5" y="-236" font-family="Helvetica,sans-Serif" font-size="10.00">/home/travis/build</text>
<text text-anchor="start" x="1281.5" y="-225" font-family="Helvetica,sans-Serif" font-size="10.00">/AliceO2Group/AliceO2</text>
<text text-anchor="start" x="1281.5" y="-214" font-family="Helvetica,sans-Serif" font-size="10.00">/Detectors/ITSMFT/ITS</text>
<text text-anchor="middle" x="1354" y="-203" font-family="Helvetica,sans-Serif" font-size="10.00">/macros/test/CheckTopologies.C</text>
</a>
</g>
</g>
<!-- Node1&#45;&gt;Node15 -->
<g id="edge14" class="edge"><title>Node1&#45;&gt;Node15</title>
<path fill="none" stroke="midnightblue" d="M1468.95,-285.886C1446.59,-273.653 1421.06,-259.685 1399.75,-248.026"/>
<polygon fill="midnightblue" stroke="midnightblue" points="1467.54,-289.104 1478,-290.833 1470.9,-282.963 1467.54,-289.104"/>
</g>
<!-- Node16 -->
<g id="node16" class="node"><title>Node16</title>
<g id="a_node16"><a xlink:href="../../d5/df6/DisplayTrack_8C.html" target="_top" xlink:title="Simple macro to display ITSU tracks. ">
<polygon fill="none" stroke="black" points="1452.5,-196 1452.5,-248 1595.5,-248 1595.5,-196 1452.5,-196"/>
<text text-anchor="start" x="1460.5" y="-236" font-family="Helvetica,sans-Serif" font-size="10.00">/home/travis/build</text>
<text text-anchor="start" x="1460.5" y="-225" font-family="Helvetica,sans-Serif" font-size="10.00">/AliceO2Group/AliceO2</text>
<text text-anchor="start" x="1460.5" y="-214" font-family="Helvetica,sans-Serif" font-size="10.00">/Detectors/ITSMFT/ITS</text>
<text text-anchor="middle" x="1524" y="-203" font-family="Helvetica,sans-Serif" font-size="10.00">/macros/test/DisplayTrack.C</text>
</a>
</g>
</g>
<!-- Node1&#45;&gt;Node16 -->
<g id="edge15" class="edge"><title>Node1&#45;&gt;Node16</title>
<path fill="none" stroke="midnightblue" d="M1524,-280.549C1524,-269.722 1524,-258.046 1524,-248.06"/>
<polygon fill="midnightblue" stroke="midnightblue" points="1520.5,-280.587 1524,-290.587 1527.5,-280.587 1520.5,-280.587"/>
</g>
<!-- Node17 -->
<g id="node17" class="node"><title>Node17</title>
<g id="a_node17"><a xlink:href="../../d6/d8d/ITSMFT_2ITS_2simulation_2include_2ITSSimulation_2Detector_8h.html" target="_top" xlink:title="/home/travis/build\l/AliceO2Group/AliceO2\l/Detectors/ITSMFT/ITS\l/simulation/include/ITSSimulation\l/Detector.h">
<polygon fill="none" stroke="black" points="1652,-190.5 1652,-253.5 1814,-253.5 1814,-190.5 1652,-190.5"/>
<text text-anchor="start" x="1660" y="-241.5" font-family="Helvetica,sans-Serif" font-size="10.00">/home/travis/build</text>
<text text-anchor="start" x="1660" y="-230.5" font-family="Helvetica,sans-Serif" font-size="10.00">/AliceO2Group/AliceO2</text>
<text text-anchor="start" x="1660" y="-219.5" font-family="Helvetica,sans-Serif" font-size="10.00">/Detectors/ITSMFT/ITS</text>
<text text-anchor="start" x="1660" y="-208.5" font-family="Helvetica,sans-Serif" font-size="10.00">/simulation/include/ITSSimulation</text>
<text text-anchor="middle" x="1733" y="-197.5" font-family="Helvetica,sans-Serif" font-size="10.00">/Detector.h</text>
</a>
</g>
</g>
<!-- Node1&#45;&gt;Node17 -->
<g id="edge16" class="edge"><title>Node1&#45;&gt;Node17</title>
<path fill="none" stroke="midnightblue" d="M1589.57,-286.821C1613.35,-276.24 1640.27,-264.262 1664.31,-253.564"/>
<polygon fill="midnightblue" stroke="midnightblue" points="1588,-283.692 1580.28,-290.955 1590.84,-290.088 1588,-283.692"/>
</g>
<!-- Node21 -->
<g id="node21" class="node"><title>Node21</title>
<g id="a_node21"><a xlink:href="../../d9/d0d/ITSMFT_2ITS_2simulation_2src_2Detector_8cxx.html" target="_top" xlink:title="/home/travis/build\l/AliceO2Group/AliceO2\l/Detectors/ITSMFT/ITS\l/simulation/src/Detector.cxx">
<polygon fill="none" stroke="black" points="1055,-1 1055,-53 1195,-53 1195,-1 1055,-1"/>
<text text-anchor="start" x="1063" y="-41" font-family="Helvetica,sans-Serif" font-size="10.00">/home/travis/build</text>
<text text-anchor="start" x="1063" y="-30" font-family="Helvetica,sans-Serif" font-size="10.00">/AliceO2Group/AliceO2</text>
<text text-anchor="start" x="1063" y="-19" font-family="Helvetica,sans-Serif" font-size="10.00">/Detectors/ITSMFT/ITS</text>
<text text-anchor="middle" x="1125" y="-8" font-family="Helvetica,sans-Serif" font-size="10.00">/simulation/src/Detector.cxx</text>
</a>
</g>
</g>
<!-- Node1&#45;&gt;Node21 -->
<g id="edge32" class="edge"><title>Node1&#45;&gt;Node21</title>
<path fill="none" stroke="midnightblue" d="M1578.76,-284.561C1588.95,-276.029 1598.21,-265.819 1604,-254 1616.52,-228.459 1623.36,-210.84 1604,-190 1529.99,-110.332 1190.01,-233.668 1116,-154 1091,-127.087 1102.57,-81.4508 1113.55,-53.1143"/>
<polygon fill="midnightblue" stroke="midnightblue" points="1576.56,-281.844 1570.83,-290.757 1580.86,-287.361 1576.56,-281.844"/>
</g>
<!-- Node28 -->
<g id="node28" class="node"><title>Node28</title>
<g id="a_node28"><a xlink:href="../../d5/d9e/ITSMFT_2MFT_2simulation_2include_2MFTSimulation_2Detector_8h.html" target="_top" xlink:title="/home/travis/build\l/AliceO2Group/AliceO2\l/Detectors/ITSMFT/MFT\l/simulation/include/MFTSimulation\l/Detector.h">
<polygon fill="none" stroke="black" points="1832.5,-190.5 1832.5,-253.5 1999.5,-253.5 1999.5,-190.5 1832.5,-190.5"/>
<text text-anchor="start" x="1840.5" y="-241.5" font-family="Helvetica,sans-Serif" font-size="10.00">/home/travis/build</text>
<text text-anchor="start" x="1840.5" y="-230.5" font-family="Helvetica,sans-Serif" font-size="10.00">/AliceO2Group/AliceO2</text>
<text text-anchor="start" x="1840.5" y="-219.5" font-family="Helvetica,sans-Serif" font-size="10.00">/Detectors/ITSMFT/MFT</text>
<text text-anchor="start" x="1840.5" y="-208.5" font-family="Helvetica,sans-Serif" font-size="10.00">/simulation/include/MFTSimulation</text>
<text text-anchor="middle" x="1916" y="-197.5" font-family="Helvetica,sans-Serif" font-size="10.00">/Detector.h</text>
</a>
</g>
</g>
<!-- Node1&#45;&gt;Node28 -->
<g id="edge34" class="edge"><title>Node1&#45;&gt;Node28</title>
<path fill="none" stroke="midnightblue" d="M1637.1,-295.795C1693.35,-284.925 1762.15,-270.389 1823,-254 1826.12,-253.159 1829.29,-252.272 1832.49,-251.351"/>
<polygon fill="midnightblue" stroke="midnightblue" points="1636.27,-292.391 1627.11,-297.713 1637.59,-299.266 1636.27,-292.391"/>
</g>
<!-- Node29 -->
<g id="node29" class="node"><title>Node29</title>
<g id="a_node29"><a xlink:href="../../d0/d6b/ITSMFT_2MFT_2simulation_2src_2Detector_8cxx.html" target="_top" xlink:title="/home/travis/build\l/AliceO2Group/AliceO2\l/Detectors/ITSMFT/MFT\l/simulation/src/Detector.cxx">
<polygon fill="none" stroke="black" points="2329,-96 2329,-148 2469,-148 2469,-96 2329,-96"/>
<text text-anchor="start" x="2337" y="-136" font-family="Helvetica,sans-Serif" font-size="10.00">/home/travis/build</text>
<text text-anchor="start" x="2337" y="-125" font-family="Helvetica,sans-Serif" font-size="10.00">/AliceO2Group/AliceO2</text>
<text text-anchor="start" x="2337" y="-114" font-family="Helvetica,sans-Serif" font-size="10.00">/Detectors/ITSMFT/MFT</text>
<text text-anchor="middle" x="2399" y="-103" font-family="Helvetica,sans-Serif" font-size="10.00">/simulation/src/Detector.cxx</text>
</a>
</g>
</g>
<!-- Node1&#45;&gt;Node29 -->
<g id="edge39" class="edge"><title>Node1&#45;&gt;Node29</title>
<path fill="none" stroke="midnightblue" d="M1637.26,-312.816C1760.8,-307.397 1948.86,-292.848 2008,-254 2035.65,-235.838 2018.38,-208.207 2046,-190 2148.55,-122.401 2201.06,-184.66 2320,-154 2326.42,-152.345 2333.02,-150.314 2339.55,-148.09"/>
<polygon fill="midnightblue" stroke="midnightblue" points="1636.85,-309.331 1627,-313.252 1637.14,-316.325 1636.85,-309.331"/>
</g>
<!-- Node31 -->
<g id="node31" class="node"><title>Node31</title>
<g id="a_node31"><a xlink:href="../../da/d9d/HitAnalysis_8h.html" target="_top" xlink:title="/home/travis/build\l/AliceO2Group/AliceO2\l/Detectors/ITSMFT/test\l/HitAnalysis/include/HitAnalysis\l/HitAnalysis.h">
<polygon fill="none" stroke="black" points="2055.5,-190.5 2055.5,-253.5 2212.5,-253.5 2212.5,-190.5 2055.5,-190.5"/>
<text text-anchor="start" x="2063.5" y="-241.5" font-family="Helvetica,sans-Serif" font-size="10.00">/home/travis/build</text>
<text text-anchor="start" x="2063.5" y="-230.5" font-family="Helvetica,sans-Serif" font-size="10.00">/AliceO2Group/AliceO2</text>
<text text-anchor="start" x="2063.5" y="-219.5" font-family="Helvetica,sans-Serif" font-size="10.00">/Detectors/ITSMFT/test</text>
<text text-anchor="start" x="2063.5" y="-208.5" font-family="Helvetica,sans-Serif" font-size="10.00">/HitAnalysis/include/HitAnalysis</text>
<text text-anchor="middle" x="2134" y="-197.5" font-family="Helvetica,sans-Serif" font-size="10.00">/HitAnalysis.h</text>
</a>
</g>
</g>
<!-- Node1&#45;&gt;Node31 -->
<g id="edge41" class="edge"><title>Node1&#45;&gt;Node31</title>
<path fill="none" stroke="midnightblue" d="M1637.09,-309.053C1742.58,-301.018 1903.85,-284.75 2041,-254 2045.73,-252.939 2050.56,-251.73 2055.41,-250.419"/>
<polygon fill="midnightblue" stroke="midnightblue" points="1636.77,-305.567 1627.06,-309.805 1637.29,-312.547 1636.77,-305.567"/>
</g>
<!-- Node32 -->
<g id="node32" class="node"><title>Node32</title>
<g id="a_node32"><a xlink:href="../../d7/d4c/HitAnalysis_8cxx.html" target="_top" xlink:title="/home/travis/build\l/AliceO2Group/AliceO2\l/Detectors/ITSMFT/test\l/HitAnalysis/src/HitAnalysis.cxx">
<polygon fill="none" stroke="black" points="2487,-96 2487,-148 2645,-148 2645,-96 2487,-96"/>
<text text-anchor="start" x="2495" y="-136" font-family="Helvetica,sans-Serif" font-size="10.00">/home/travis/build</text>
<text text-anchor="start" x="2495" y="-125" font-family="Helvetica,sans-Serif" font-size="10.00">/AliceO2Group/AliceO2</text>
<text text-anchor="start" x="2495" y="-114" font-family="Helvetica,sans-Serif" font-size="10.00">/Detectors/ITSMFT/test</text>
<text text-anchor="middle" x="2566" y="-103" font-family="Helvetica,sans-Serif" font-size="10.00">/HitAnalysis/src/HitAnalysis.cxx</text>
</a>
</g>
</g>
<!-- Node1&#45;&gt;Node32 -->
<g id="edge43" class="edge"><title>Node1&#45;&gt;Node32</title>
<path fill="none" stroke="midnightblue" d="M1637.16,-311.431C1821.86,-303.16 2172.52,-283.756 2221,-254 2249.59,-236.454 2233.1,-208.615 2261,-190 2342.33,-135.747 2383.31,-178.334 2478,-154 2484.75,-152.266 2491.71,-150.24 2498.62,-148.069"/>
<polygon fill="midnightblue" stroke="midnightblue" points="1636.97,-307.935 1627.14,-311.876 1637.28,-314.928 1636.97,-307.935"/>
</g>
<!-- Node33 -->
<g id="node33" class="node"><title>Node33</title>
<g id="a_node33"><a xlink:href="../../d4/d77/CheckClusters__mft_8C.html" target="_top" xlink:title="Simple macro to check MFT clusters. ">
<polygon fill="none" stroke="black" points="2269.5,-201.5 2269.5,-242.5 2414.5,-242.5 2414.5,-201.5 2269.5,-201.5"/>
<text text-anchor="start" x="2277.5" y="-230.5" font-family="Helvetica,sans-Serif" font-size="10.00">/home/travis/build</text>
<text text-anchor="start" x="2277.5" y="-219.5" font-family="Helvetica,sans-Serif" font-size="10.00">/AliceO2Group/AliceO2</text>
<text text-anchor="middle" x="2342" y="-208.5" font-family="Helvetica,sans-Serif" font-size="10.00">/macro/CheckClusters_mft.C</text>
</a>
</g>
</g>
<!-- Node1&#45;&gt;Node33 -->
<g id="edge44" class="edge"><title>Node1&#45;&gt;Node33</title>
<path fill="none" stroke="midnightblue" d="M1637.47,-315.381C1782.34,-312.544 2040,-300.604 2255,-254 2267.85,-251.215 2281.39,-247.033 2293.87,-242.636"/>
<polygon fill="midnightblue" stroke="midnightblue" points="1637.17,-311.885 1627.23,-315.569 1637.3,-318.884 1637.17,-311.885"/>
</g>
<!-- Node34 -->
<g id="node34" class="node"><title>Node34</title>
<g id="a_node34"><a xlink:href="../../d1/d88/CheckDigits__mft_8C.html" target="_top" xlink:title="Simple macro to check MFT digits. ">
<polygon fill="none" stroke="black" points="2433,-201.5 2433,-242.5 2567,-242.5 2567,-201.5 2433,-201.5"/>
<text text-anchor="start" x="2441" y="-230.5" font-family="Helvetica,sans-Serif" font-size="10.00">/home/travis/build</text>
<text text-anchor="start" x="2441" y="-219.5" font-family="Helvetica,sans-Serif" font-size="10.00">/AliceO2Group/AliceO2</text>
<text text-anchor="middle" x="2500" y="-208.5" font-family="Helvetica,sans-Serif" font-size="10.00">/macro/CheckDigits_mft.C</text>
</a>
</g>
</g>
<!-- Node1&#45;&gt;Node34 -->
<g id="edge45" class="edge"><title>Node1&#45;&gt;Node34</title>
<path fill="none" stroke="midnightblue" d="M1637.39,-312.605C1844.64,-305.666 2276.71,-287.605 2423,-254 2434.8,-251.29 2447.14,-247.021 2458.41,-242.507"/>
<polygon fill="midnightblue" stroke="midnightblue" points="1636.97,-309.117 1627.09,-312.947 1637.2,-316.113 1636.97,-309.117"/>
</g>
<!-- Node35 -->
<g id="node35" class="node"><title>Node35</title>
<g id="a_node35"><a xlink:href="../../df/d3b/O2MCApplication_8cxx.html" target="_top" xlink:title="/home/travis/build\l/AliceO2Group/AliceO2\l/Steer/src/O2MCApplication.cxx">
<polygon fill="none" stroke="black" points="2585,-201.5 2585,-242.5 2743,-242.5 2743,-201.5 2585,-201.5"/>
<text text-anchor="start" x="2593" y="-230.5" font-family="Helvetica,sans-Serif" font-size="10.00">/home/travis/build</text>
<text text-anchor="start" x="2593" y="-219.5" font-family="Helvetica,sans-Serif" font-size="10.00">/AliceO2Group/AliceO2</text>
<text text-anchor="middle" x="2664" y="-208.5" font-family="Helvetica,sans-Serif" font-size="10.00">/Steer/src/O2MCApplication.cxx</text>
</a>
</g>
</g>
<!-- Node1&#45;&gt;Node35 -->
<g id="edge46" class="edge"><title>Node1&#45;&gt;Node35</title>
<path fill="none" stroke="midnightblue" d="M1637.48,-313.316C1871.22,-307.131 2399.27,-289.6 2576,-254 2589.34,-251.313 2603.4,-247.052 2616.27,-242.539"/>
<polygon fill="midnightblue" stroke="midnightblue" points="1637.15,-309.823 1627.25,-313.584 1637.34,-316.821 1637.15,-309.823"/>
</g>
<!-- Node3 -->
<g id="node3" class="node"><title>Node3</title>
<g id="a_node3"><a xlink:href="../../dc/dbf/ITSMFT_2common_2simulation_2src_2Digitizer_8cxx.html" target="_top" xlink:title="/home/travis/build\l/AliceO2Group/AliceO2\l/Detectors/ITSMFT/common\l/simulation/src/Digitizer.cxx">
<polygon fill="none" stroke="black" points="424,-96 424,-148 566,-148 566,-96 424,-96"/>
<text text-anchor="start" x="432" y="-136" font-family="Helvetica,sans-Serif" font-size="10.00">/home/travis/build</text>
<text text-anchor="start" x="432" y="-125" font-family="Helvetica,sans-Serif" font-size="10.00">/AliceO2Group/AliceO2</text>
<text text-anchor="start" x="432" y="-114" font-family="Helvetica,sans-Serif" font-size="10.00">/Detectors/ITSMFT/common</text>
<text text-anchor="middle" x="495" y="-103" font-family="Helvetica,sans-Serif" font-size="10.00">/simulation/src/Digitizer.cxx</text>
</a>
</g>
</g>
<!-- Node2&#45;&gt;Node3 -->
<g id="edge2" class="edge"><title>Node2&#45;&gt;Node3</title>
<path fill="none" stroke="midnightblue" d="M510.818,-180.415C507.796,-169.445 504.614,-157.895 501.903,-148.054"/>
<polygon fill="midnightblue" stroke="midnightblue" points="507.501,-181.55 513.531,-190.261 514.249,-179.691 507.501,-181.55"/>
</g>
<!-- Node2&#45;&gt;Node4 -->
<g id="edge3" class="edge"><title>Node2&#45;&gt;Node4</title>
<path fill="none" stroke="midnightblue" d="M451.488,-185.923C430.209,-175.337 407.029,-163.806 386.394,-153.541"/>
<polygon fill="midnightblue" stroke="midnightblue" points="449.966,-189.075 460.478,-190.395 453.084,-182.808 449.966,-189.075"/>
</g>
<!-- Node2&#45;&gt;Node9 -->
<g id="edge8" class="edge"><title>Node2&#45;&gt;Node9</title>
<path fill="none" stroke="midnightblue" d="M576.106,-184.682C591.317,-174.472 607.704,-163.473 622.368,-153.63"/>
<polygon fill="midnightblue" stroke="midnightblue" points="574.147,-181.782 567.795,-190.261 578.048,-187.594 574.147,-181.782"/>
</g>
<!-- Node4&#45;&gt;Node5 -->
<g id="edge4" class="edge"><title>Node4&#45;&gt;Node5</title>
<path fill="none" stroke="midnightblue" d="M234.967,-86.8243C205.474,-75.6289 173.274,-63.4061 145.905,-53.0171"/>
<polygon fill="midnightblue" stroke="midnightblue" points="233.847,-90.1428 244.439,-90.4195 236.332,-83.5984 233.847,-90.1428"/>
</g>
<!-- Node6 -->
<g id="node6" class="node"><title>Node6</title>
<g id="a_node6"><a xlink:href="../../d1/d7a/run__digi_8C.html" target="_top" xlink:title="/home/travis/build\l/AliceO2Group/AliceO2\l/macro/run_digi.C">
<polygon fill="none" stroke="black" points="450,-6.5 450,-47.5 568,-47.5 568,-6.5 450,-6.5"/>
<text text-anchor="start" x="458" y="-35.5" font-family="Helvetica,sans-Serif" font-size="10.00">/home/travis/build</text>
<text text-anchor="start" x="458" y="-24.5" font-family="Helvetica,sans-Serif" font-size="10.00">/AliceO2Group/AliceO2</text>
<text text-anchor="middle" x="509" y="-13.5" font-family="Helvetica,sans-Serif" font-size="10.00">/macro/run_digi.C</text>
</a>
</g>
</g>
<!-- Node4&#45;&gt;Node6 -->
<g id="edge5" class="edge"><title>Node4&#45;&gt;Node6</title>
<path fill="none" stroke="midnightblue" d="M394.451,-85.897C420.081,-72.9426 448.2,-58.7305 470.164,-47.6292"/>
<polygon fill="midnightblue" stroke="midnightblue" points="392.849,-82.7849 385.503,-90.4195 396.007,-89.0322 392.849,-82.7849"/>
</g>
<!-- Node7 -->
<g id="node7" class="node"><title>Node7</title>
<g id="a_node7"><a xlink:href="../../d9/de3/run__digi__all_8C.html" target="_top" xlink:title="/home/travis/build\l/AliceO2Group/AliceO2\l/macro/run_digi_all.C">
<polygon fill="none" stroke="black" points="178,-6.5 178,-47.5 296,-47.5 296,-6.5 178,-6.5"/>
<text text-anchor="start" x="186" y="-35.5" font-family="Helvetica,sans-Serif" font-size="10.00">/home/travis/build</text>
<text text-anchor="start" x="186" y="-24.5" font-family="Helvetica,sans-Serif" font-size="10.00">/AliceO2Group/AliceO2</text>
<text text-anchor="middle" x="237" y="-13.5" font-family="Helvetica,sans-Serif" font-size="10.00">/macro/run_digi_all.C</text>
</a>
</g>
</g>
<!-- Node4&#45;&gt;Node7 -->
<g id="edge6" class="edge"><title>Node4&#45;&gt;Node7</title>
<path fill="none" stroke="midnightblue" d="M288.921,-82.8707C277.443,-70.7413 265.223,-57.8261 255.522,-47.5747"/>
<polygon fill="midnightblue" stroke="midnightblue" points="286.526,-85.4325 295.942,-90.2906 291.611,-80.6213 286.526,-85.4325"/>
</g>
<!-- Node8 -->
<g id="node8" class="node"><title>Node8</title>
<g id="a_node8"><a xlink:href="../../d0/dcb/run__digi__its_8C.html" target="_top" xlink:title="/home/travis/build\l/AliceO2Group/AliceO2\l/macro/run_digi_its.C">
<polygon fill="none" stroke="black" points="314,-6.5 314,-47.5 432,-47.5 432,-6.5 314,-6.5"/>
<text text-anchor="start" x="322" y="-35.5" font-family="Helvetica,sans-Serif" font-size="10.00">/home/travis/build</text>
<text text-anchor="start" x="322" y="-24.5" font-family="Helvetica,sans-Serif" font-size="10.00">/AliceO2Group/AliceO2</text>
<text text-anchor="middle" x="373" y="-13.5" font-family="Helvetica,sans-Serif" font-size="10.00">/macro/run_digi_its.C</text>
</a>
</g>
</g>
<!-- Node4&#45;&gt;Node8 -->
<g id="edge7" class="edge"><title>Node4&#45;&gt;Node8</title>
<path fill="none" stroke="midnightblue" d="M345.568,-81.1494C351.566,-69.5288 357.855,-57.3426 362.897,-47.5747"/>
<polygon fill="midnightblue" stroke="midnightblue" points="342.326,-79.7991 340.85,-90.2906 348.547,-83.0096 342.326,-79.7991"/>
</g>
<!-- Node9&#45;&gt;Node10 -->
<g id="edge9" class="edge"><title>Node9&#45;&gt;Node10</title>
<path fill="none" stroke="midnightblue" d="M720.544,-84.5328C735.707,-74.0092 751.907,-62.7658 765.834,-53.1001"/>
<polygon fill="midnightblue" stroke="midnightblue" points="718.468,-81.7135 712.248,-90.2906 722.459,-87.4642 718.468,-81.7135"/>
</g>
<!-- Node11 -->
<g id="node11" class="node"><title>Node11</title>
<g id="a_node11"><a xlink:href="../../d2/d31/run__digi__mft_8C.html" target="_top" xlink:title="/home/travis/build\l/AliceO2Group/AliceO2\l/macro/run_digi_mft.C">
<polygon fill="none" stroke="black" points="586,-6.5 586,-47.5 704,-47.5 704,-6.5 586,-6.5"/>
<text text-anchor="start" x="594" y="-35.5" font-family="Helvetica,sans-Serif" font-size="10.00">/home/travis/build</text>
<text text-anchor="start" x="594" y="-24.5" font-family="Helvetica,sans-Serif" font-size="10.00">/AliceO2Group/AliceO2</text>
<text text-anchor="middle" x="645" y="-13.5" font-family="Helvetica,sans-Serif" font-size="10.00">/macro/run_digi_mft.C</text>
</a>
</g>
</g>
<!-- Node9&#45;&gt;Node11 -->
<g id="edge10" class="edge"><title>Node9&#45;&gt;Node11</title>
<path fill="none" stroke="midnightblue" d="M657.974,-80.4584C655.151,-69.0472 652.209,-57.1492 649.841,-47.5747"/>
<polygon fill="midnightblue" stroke="midnightblue" points="654.607,-81.4233 660.405,-90.2906 661.402,-79.7427 654.607,-81.4233"/>
</g>
<!-- Node18 -->
<g id="node18" class="node"><title>Node18</title>
<g id="a_node18"><a xlink:href="../../d0/d25/V1Layer_8h.html" target="_top" xlink:title="/home/travis/build\l/AliceO2Group/AliceO2\l/Detectors/ITSMFT/ITS\l/simulation/include/ITSSimulation\l/V1Layer.h">
<polygon fill="none" stroke="black" points="1859,-90.5 1859,-153.5 2021,-153.5 2021,-90.5 1859,-90.5"/>
<text text-anchor="start" x="1867" y="-141.5" font-family="Helvetica,sans-Serif" font-size="10.00">/home/travis/build</text>
<text text-anchor="start" x="1867" y="-130.5" font-family="Helvetica,sans-Serif" font-size="10.00">/AliceO2Group/AliceO2</text>
<text text-anchor="start" x="1867" y="-119.5" font-family="Helvetica,sans-Serif" font-size="10.00">/Detectors/ITSMFT/ITS</text>
<text text-anchor="start" x="1867" y="-108.5" font-family="Helvetica,sans-Serif" font-size="10.00">/simulation/include/ITSSimulation</text>
<text text-anchor="middle" x="1940" y="-97.5" font-family="Helvetica,sans-Serif" font-size="10.00">/V1Layer.h</text>
</a>
</g>
</g>
<!-- Node17&#45;&gt;Node18 -->
<g id="edge17" class="edge"><title>Node17&#45;&gt;Node18</title>
<path fill="none" stroke="midnightblue" d="M1806.79,-186.065C1829.23,-175.44 1853.71,-163.852 1875.49,-153.541"/>
<polygon fill="midnightblue" stroke="midnightblue" points="1805.19,-182.953 1797.64,-190.395 1808.18,-189.28 1805.19,-182.953"/>
</g>
<!-- Node19 -->
<g id="node19" class="node"><title>Node19</title>
<g id="a_node19"><a xlink:href="../../d5/dda/V1Layer_8cxx.html" target="_top" xlink:title="Implementation of the V1Layer class. ">
<polygon fill="none" stroke="black" points="1816,-1 1816,-53 1954,-53 1954,-1 1816,-1"/>
<text text-anchor="start" x="1824" y="-41" font-family="Helvetica,sans-Serif" font-size="10.00">/home/travis/build</text>
<text text-anchor="start" x="1824" y="-30" font-family="Helvetica,sans-Serif" font-size="10.00">/AliceO2Group/AliceO2</text>
<text text-anchor="start" x="1824" y="-19" font-family="Helvetica,sans-Serif" font-size="10.00">/Detectors/ITSMFT/ITS</text>
<text text-anchor="middle" x="1885" y="-8" font-family="Helvetica,sans-Serif" font-size="10.00">/simulation/src/V1Layer.cxx</text>
</a>
</g>
</g>
<!-- Node17&#45;&gt;Node19 -->
<g id="edge23" class="edge"><title>Node17&#45;&gt;Node19</title>
<path fill="none" stroke="midnightblue" d="M1782.37,-183.655C1792.79,-174.572 1803.27,-164.445 1812,-154 1815.66,-149.624 1850.45,-88.7796 1870.65,-53.2718"/>
<polygon fill="midnightblue" stroke="midnightblue" points="1779.8,-181.247 1774.44,-190.386 1784.33,-186.585 1779.8,-181.247"/>
</g>
<!-- Node20 -->
<g id="node20" class="node"><title>Node20</title>
<g id="a_node20"><a xlink:href="../../db/d28/V3Layer_8h.html" target="_top" xlink:title="Definition of the V3Layer class. ">
<polygon fill="none" stroke="black" points="1153,-90.5 1153,-153.5 1315,-153.5 1315,-90.5 1153,-90.5"/>
<text text-anchor="start" x="1161" y="-141.5" font-family="Helvetica,sans-Serif" font-size="10.00">/home/travis/build</text>
<text text-anchor="start" x="1161" y="-130.5" font-family="Helvetica,sans-Serif" font-size="10.00">/AliceO2Group/AliceO2</text>
<text text-anchor="start" x="1161" y="-119.5" font-family="Helvetica,sans-Serif" font-size="10.00">/Detectors/ITSMFT/ITS</text>
<text text-anchor="start" x="1161" y="-108.5" font-family="Helvetica,sans-Serif" font-size="10.00">/simulation/include/ITSSimulation</text>
<text text-anchor="middle" x="1234" y="-97.5" font-family="Helvetica,sans-Serif" font-size="10.00">/V3Layer.h</text>
</a>
</g>
</g>
<!-- Node17&#45;&gt;Node20 -->
<g id="edge19" class="edge"><title>Node17&#45;&gt;Node20</title>
<path fill="none" stroke="midnightblue" d="M1641.88,-190.877C1640.58,-190.574 1639.29,-190.282 1638,-190 1502.94,-160.407 1464.06,-183.593 1329,-154 1324.42,-152.997 1319.76,-151.861 1315.07,-150.631"/>
<polygon fill="midnightblue" stroke="midnightblue" points="1641.38,-194.359 1651.93,-193.369 1643.07,-187.565 1641.38,-194.359"/>
</g>
<!-- Node17&#45;&gt;Node21 -->
<g id="edge22" class="edge"><title>Node17&#45;&gt;Node21</title>
<path fill="none" stroke="midnightblue" d="M1641.9,-190.798C1640.59,-190.52 1639.29,-190.254 1638,-190 1584,-179.386 1184.38,-191.39 1144,-154 1116.65,-128.675 1117.07,-82.1007 1120.56,-53.2216"/>
<polygon fill="midnightblue" stroke="midnightblue" points="1641.45,-194.287 1651.98,-193.131 1643.03,-187.467 1641.45,-194.287"/>
</g>
<!-- Node22 -->
<g id="node22" class="node"><title>Node22</title>
<g id="a_node22"><a xlink:href="../../d9/d7c/V3Layer_8cxx.html" target="_top" xlink:title="Implementation of the V3Layer class. ">
<polygon fill="none" stroke="black" points="1243,-1 1243,-53 1381,-53 1381,-1 1243,-1"/>
<text text-anchor="start" x="1251" y="-41" font-family="Helvetica,sans-Serif" font-size="10.00">/home/travis/build</text>
<text text-anchor="start" x="1251" y="-30" font-family="Helvetica,sans-Serif" font-size="10.00">/AliceO2Group/AliceO2</text>
<text text-anchor="start" x="1251" y="-19" font-family="Helvetica,sans-Serif" font-size="10.00">/Detectors/ITSMFT/ITS</text>
<text text-anchor="middle" x="1312" y="-8" font-family="Helvetica,sans-Serif" font-size="10.00">/simulation/src/V3Layer.cxx</text>
</a>
</g>
</g>
<!-- Node17&#45;&gt;Node22 -->
<g id="edge24" class="edge"><title>Node17&#45;&gt;Node22</title>
<path fill="none" stroke="midnightblue" d="M1641.88,-190.902C1640.58,-190.592 1639.28,-190.291 1638,-190 1577.67,-176.347 1410.81,-191.99 1362,-154 1345.61,-141.244 1328.05,-86.1836 1318.73,-53.2163"/>
<polygon fill="midnightblue" stroke="midnightblue" points="1641.36,-194.382 1651.91,-193.444 1643.08,-187.596 1641.36,-194.382"/>
</g>
<!-- Node23 -->
<g id="node23" class="node"><title>Node23</title>
<g id="a_node23"><a xlink:href="../../dd/d2b/o2__sim__its__ALP3_8cxx.html" target="_top" xlink:title="/home/travis/build\l/AliceO2Group/AliceO2\l/Framework/TestWorkflows\l/src/o2_sim_its_ALP3.cxx">
<polygon fill="none" stroke="black" points="1371.5,-96 1371.5,-148 1508.5,-148 1508.5,-96 1371.5,-96"/>
<text text-anchor="start" x="1379.5" y="-136" font-family="Helvetica,sans-Serif" font-size="10.00">/home/travis/build</text>
<text text-anchor="start" x="1379.5" y="-125" font-family="Helvetica,sans-Serif" font-size="10.00">/AliceO2Group/AliceO2</text>
<text text-anchor="start" x="1379.5" y="-114" font-family="Helvetica,sans-Serif" font-size="10.00">/Framework/TestWorkflows</text>
<text text-anchor="middle" x="1440" y="-103" font-family="Helvetica,sans-Serif" font-size="10.00">/src/o2_sim_its_ALP3.cxx</text>
</a>
</g>
</g>
<!-- Node17&#45;&gt;Node23 -->
<g id="edge25" class="edge"><title>Node17&#45;&gt;Node23</title>
<path fill="none" stroke="midnightblue" d="M1642.3,-191.351C1640.86,-190.896 1639.42,-190.445 1638,-190 1584.86,-173.362 1570.59,-172.3 1518,-154 1512.63,-152.132 1507.09,-150.114 1501.55,-148.035"/>
<polygon fill="midnightblue" stroke="midnightblue" points="1641.35,-194.719 1651.94,-194.404 1643.46,-188.046 1641.35,-194.719"/>
</g>
<!-- Node24 -->
<g id="node24" class="node"><title>Node24</title>
<g id="a_node24"><a xlink:href="../../d9/d71/run__sim_8C.html" target="_top" xlink:title="/home/travis/build\l/AliceO2Group/AliceO2\l/macro/run_sim.C">
<polygon fill="none" stroke="black" points="1527,-101.5 1527,-142.5 1645,-142.5 1645,-101.5 1527,-101.5"/>
<text text-anchor="start" x="1535" y="-130.5" font-family="Helvetica,sans-Serif" font-size="10.00">/home/travis/build</text>
<text text-anchor="start" x="1535" y="-119.5" font-family="Helvetica,sans-Serif" font-size="10.00">/AliceO2Group/AliceO2</text>
<text text-anchor="middle" x="1586" y="-108.5" font-family="Helvetica,sans-Serif" font-size="10.00">/macro/run_sim.C</text>
</a>
</g>
</g>
<!-- Node17&#45;&gt;Node24 -->
<g id="edge26" class="edge"><title>Node17&#45;&gt;Node24</title>
<path fill="none" stroke="midnightblue" d="M1678.5,-184.669C1657.08,-170.389 1633.35,-154.569 1615.29,-142.527"/>
<polygon fill="midnightblue" stroke="midnightblue" points="1676.63,-187.626 1686.89,-190.261 1680.51,-181.802 1676.63,-187.626"/>
</g>
<!-- Node25 -->
<g id="node25" class="node"><title>Node25</title>
<g id="a_node25"><a xlink:href="../../d5/dd2/run__sim__its__ALP3_8C.html" target="_top" xlink:title="/home/travis/build\l/AliceO2Group/AliceO2\l/macro/run_sim_its_ALP3.C">
<polygon fill="none" stroke="black" points="1663,-101.5 1663,-142.5 1803,-142.5 1803,-101.5 1663,-101.5"/>
<text text-anchor="start" x="1671" y="-130.5" font-family="Helvetica,sans-Serif" font-size="10.00">/home/travis/build</text>
<text text-anchor="start" x="1671" y="-119.5" font-family="Helvetica,sans-Serif" font-size="10.00">/AliceO2Group/AliceO2</text>
<text text-anchor="middle" x="1733" y="-108.5" font-family="Helvetica,sans-Serif" font-size="10.00">/macro/run_sim_its_ALP3.C</text>
</a>
</g>
</g>
<!-- Node17&#45;&gt;Node25 -->
<g id="edge27" class="edge"><title>Node17&#45;&gt;Node25</title>
<path fill="none" stroke="midnightblue" d="M1733,-180.074C1733,-167.072 1733,-153.29 1733,-142.527"/>
<polygon fill="midnightblue" stroke="midnightblue" points="1729.5,-180.261 1733,-190.261 1736.5,-180.261 1729.5,-180.261"/>
</g>
<!-- Node26 -->
<g id="node26" class="node"><title>Node26</title>
<g id="a_node26"><a xlink:href="../../db/d50/O2HitMerger_8h.html" target="_top" xlink:title="/home/travis/build\l/AliceO2Group/AliceO2\l/run/O2HitMerger.h">
<polygon fill="none" stroke="black" points="2039,-101.5 2039,-142.5 2157,-142.5 2157,-101.5 2039,-101.5"/>
<text text-anchor="start" x="2047" y="-130.5" font-family="Helvetica,sans-Serif" font-size="10.00">/home/travis/build</text>
<text text-anchor="start" x="2047" y="-119.5" font-family="Helvetica,sans-Serif" font-size="10.00">/AliceO2Group/AliceO2</text>
<text text-anchor="middle" x="2098" y="-108.5" font-family="Helvetica,sans-Serif" font-size="10.00">/run/O2HitMerger.h</text>
</a>
</g>
</g>
<!-- Node17&#45;&gt;Node26 -->
<g id="edge28" class="edge"><title>Node17&#45;&gt;Node26</title>
<path fill="none" stroke="midnightblue" d="M1824.18,-189.871C1915.37,-167.687 1943.84,-180.65 2030,-154 2039.79,-150.971 2050.02,-146.86 2059.47,-142.622"/>
<polygon fill="midnightblue" stroke="midnightblue" points="1823.11,-186.532 1814.26,-192.361 1824.81,-193.321 1823.11,-186.532"/>
</g>
<!-- Node18&#45;&gt;Node19 -->
<g id="edge18" class="edge"><title>Node18&#45;&gt;Node19</title>
<path fill="none" stroke="midnightblue" d="M1916.69,-81.5929C1910.99,-71.9407 1905.03,-61.8709 1899.84,-53.1001"/>
<polygon fill="midnightblue" stroke="midnightblue" points="1913.74,-83.4648 1921.84,-90.2906 1919.76,-79.9015 1913.74,-83.4648"/>
</g>
<!-- Node20&#45;&gt;Node21 -->
<g id="edge20" class="edge"><title>Node20&#45;&gt;Node21</title>
<path fill="none" stroke="midnightblue" d="M1190.23,-83.6542C1178.19,-73.3858 1165.43,-62.4973 1154.42,-53.1001"/>
<polygon fill="midnightblue" stroke="midnightblue" points="1188.13,-86.4625 1198.01,-90.2906 1192.67,-81.1373 1188.13,-86.4625"/>
</g>
<!-- Node20&#45;&gt;Node22 -->
<g id="edge21" class="edge"><title>Node20&#45;&gt;Node22</title>
<path fill="none" stroke="midnightblue" d="M1266.31,-82.4781C1274.63,-72.5584 1283.37,-62.1393 1290.95,-53.1001"/>
<polygon fill="midnightblue" stroke="midnightblue" points="1263.5,-80.3795 1259.76,-90.2906 1268.86,-84.8778 1263.5,-80.3795"/>
</g>
<!-- Node26&#45;&gt;Node26 -->
<g id="edge29" class="edge"><title>Node26&#45;&gt;Node26</title>
<path fill="none" stroke="midnightblue" d="M2166.66,-135.171C2171.83,-132.234 2175,-127.843 2175,-122 2175,-113.096 2167.63,-107.565 2157.08,-105.409"/>
<polygon fill="midnightblue" stroke="midnightblue" points="2165.32,-131.934 2157.08,-138.591 2167.67,-138.526 2165.32,-131.934"/>
</g>
<!-- Node27 -->
<g id="node27" class="node"><title>Node27</title>
<g id="a_node27"><a xlink:href="../../d9/d16/O2HitMergerRunner_8cxx.html" target="_top" xlink:title="/home/travis/build\l/AliceO2Group/AliceO2\l/run/O2HitMergerRunner.cxx">
<polygon fill="none" stroke="black" points="2027,-6.5 2027,-47.5 2169,-47.5 2169,-6.5 2027,-6.5"/>
<text text-anchor="start" x="2035" y="-35.5" font-family="Helvetica,sans-Serif" font-size="10.00">/home/travis/build</text>
<text text-anchor="start" x="2035" y="-24.5" font-family="Helvetica,sans-Serif" font-size="10.00">/AliceO2Group/AliceO2</text>
<text text-anchor="middle" x="2098" y="-13.5" font-family="Helvetica,sans-Serif" font-size="10.00">/run/O2HitMergerRunner.cxx</text>
</a>
</g>
</g>
<!-- Node26&#45;&gt;Node27 -->
<g id="edge30" class="edge"><title>Node26&#45;&gt;Node27</title>
<path fill="none" stroke="midnightblue" d="M2098,-90.9916C2098,-76.8048 2098,-60.2651 2098,-47.6945"/>
<polygon fill="midnightblue" stroke="midnightblue" points="2094.5,-91.2771 2098,-101.277 2101.5,-91.2771 2094.5,-91.2771"/>
</g>
<!-- Node28&#45;&gt;Node26 -->
<g id="edge37" class="edge"><title>Node28&#45;&gt;Node26</title>
<path fill="none" stroke="midnightblue" d="M1982.07,-185.425C2008.95,-170.951 2038.98,-154.782 2061.73,-142.527"/>
<polygon fill="midnightblue" stroke="midnightblue" points="1980.23,-182.438 1973.09,-190.261 1983.55,-188.602 1980.23,-182.438"/>
</g>
<!-- Node28&#45;&gt;Node29 -->
<g id="edge35" class="edge"><title>Node28&#45;&gt;Node29</title>
<path fill="none" stroke="midnightblue" d="M2009.68,-190.736C2010.79,-190.484 2011.9,-190.238 2013,-190 2147.27,-160.955 2186.73,-187.367 2320,-154 2326.57,-152.354 2333.34,-150.298 2340.01,-148.034"/>
<polygon fill="midnightblue" stroke="midnightblue" points="2008.48,-187.425 1999.59,-193.18 2010.13,-194.228 2008.48,-187.425"/>
</g>
<!-- Node30 -->
<g id="node30" class="node"><title>Node30</title>
<g id="a_node30"><a xlink:href="../../d4/d5f/run__sim__mft_8C.html" target="_top" xlink:title="/home/travis/build\l/AliceO2Group/AliceO2\l/macro/run_sim_mft.C">
<polygon fill="none" stroke="black" points="2193,-101.5 2193,-142.5 2311,-142.5 2311,-101.5 2193,-101.5"/>
<text text-anchor="start" x="2201" y="-130.5" font-family="Helvetica,sans-Serif" font-size="10.00">/home/travis/build</text>
<text text-anchor="start" x="2201" y="-119.5" font-family="Helvetica,sans-Serif" font-size="10.00">/AliceO2Group/AliceO2</text>
<text text-anchor="middle" x="2252" y="-108.5" font-family="Helvetica,sans-Serif" font-size="10.00">/macro/run_sim_mft.C</text>
</a>
</g>
</g>
<!-- Node28&#45;&gt;Node30 -->
<g id="edge36" class="edge"><title>Node28&#45;&gt;Node30</title>
<path fill="none" stroke="midnightblue" d="M2009.71,-190.878C2010.81,-190.581 2011.91,-190.288 2013,-190 2088.09,-170.153 2110.22,-178.255 2184,-154 2193.61,-150.839 2203.68,-146.727 2213.04,-142.536"/>
<polygon fill="midnightblue" stroke="midnightblue" points="2008.4,-187.611 1999.7,-193.663 2010.28,-194.355 2008.4,-187.611"/>
</g>
<!-- Node31&#45;&gt;Node32 -->
<g id="edge42" class="edge"><title>Node31&#45;&gt;Node32</title>
<path fill="none" stroke="midnightblue" d="M2222.55,-191.084C2224.04,-190.711 2225.52,-190.349 2227,-190 2336.68,-164.077 2368.55,-180.851 2478,-154 2484.92,-152.302 2492.06,-150.272 2499.15,-148.074"/>
<polygon fill="midnightblue" stroke="midnightblue" points="2221.39,-187.771 2212.62,-193.71 2223.18,-194.538 2221.39,-187.771"/>
</g>
</g>
</svg>
