<?xml version="1.0" encoding="UTF-8" standalone="no"?>
<!DOCTYPE svg PUBLIC "-//W3C//DTD SVG 1.1//EN"
 "http://www.w3.org/Graphics/SVG/1.1/DTD/svg11.dtd">
<!-- Generated by graphviz version 2.36.0 (20140111.2315)
 -->
<!-- Title: /home/travis/build/AliceO2Group/AliceO2/Detectors/MUON/MCH/Simulation/src/Station1Geometry.cxx Pages: 1 -->
<svg width="1148pt" height="174pt"
 viewBox="0.00 0.00 1148.00 174.00" xmlns="http://www.w3.org/2000/svg" xmlns:xlink="http://www.w3.org/1999/xlink">
<g id="graph0" class="graph" transform="scale(1 1) rotate(0) translate(4 170)">
<title>/home/travis/build/AliceO2Group/AliceO2/Detectors/MUON/MCH/Simulation/src/Station1Geometry.cxx</title>
<!-- Node1 -->
<g id="node1" class="node"><title>Node1</title>
<polygon fill="#bfbfbf" stroke="black" points="533.5,-113 533.5,-165 704.5,-165 704.5,-113 533.5,-113"/>
<text text-anchor="start" x="541.5" y="-153" font-family="Helvetica,sans-Serif" font-size="10.00">/home/travis/build</text>
<text text-anchor="start" x="541.5" y="-142" font-family="Helvetica,sans-Serif" font-size="10.00">/AliceO2Group/AliceO2</text>
<text text-anchor="start" x="541.5" y="-131" font-family="Helvetica,sans-Serif" font-size="10.00">/Detectors/MUON/MCH/Simulation</text>
<text text-anchor="middle" x="619" y="-120" font-family="Helvetica,sans-Serif" font-size="10.00">/src/Station1Geometry.cxx</text>
</g>
<!-- Node2 -->
<g id="node2" class="node"><title>Node2</title>
<g id="a_node2"><a xlink:href="../../d9/d26/Materials_8h.html" target="_top" xlink:title="Implementation of the MCH materials definitions. ">
<polygon fill="none" stroke="black" points="-0.5,-56.5 -0.5,-75.5 64.5,-75.5 64.5,-56.5 -0.5,-56.5"/>
<text text-anchor="middle" x="32" y="-63.5" font-family="Helvetica,sans-Serif" font-size="10.00">Materials.h</text>
</a>
</g>
</g>
<!-- Node1&#45;&gt;Node2 -->
<g id="edge1" class="edge"><title>Node1&#45;&gt;Node2</title>
<path fill="none" stroke="midnightblue" d="M533.16,-130.146C426.412,-119.92 238.744,-100.43 79,-76 77.5371,-75.7763 76.0503,-75.5401 74.5499,-75.2943"/>
<polygon fill="midnightblue" stroke="midnightblue" points="75.0125,-71.8224 64.5615,-73.5624 73.8165,-78.7195 75.0125,-71.8224"/>
</g>
<!-- Node3 -->
<g id="node3" class="node"><title>Node3</title>
<polygon fill="none" stroke="#bfbfbf" points="19.5,-0.5 19.5,-19.5 102.5,-19.5 102.5,-0.5 19.5,-0.5"/>
<text text-anchor="middle" x="61" y="-7.5" font-family="Helvetica,sans-Serif" font-size="10.00">TGeoMedium.h</text>
</g>
<!-- Node1&#45;&gt;Node3 -->
<g id="edge7" class="edge"><title>Node1&#45;&gt;Node3</title>
<path fill="none" stroke="midnightblue" d="M533.245,-135.36C407.954,-130.197 182.14,-115.565 112,-76 92.7333,-65.1319 78.1715,-43.7691 69.6381,-28.5001"/>
<polygon fill="midnightblue" stroke="midnightblue" points="72.6658,-26.7379 64.912,-19.5178 66.4709,-29.9973 72.6658,-26.7379"/>
</g>
<!-- Node4 -->
<g id="node4" class="node"><title>Node4</title>
<g id="a_node4"><a xlink:href="../../dc/d11/Station1Geometry_8h.html" target="_top" xlink:title="Implementation of the station 1 geometry. ">
<polygon fill="none" stroke="black" points="121,-56.5 121,-75.5 225,-75.5 225,-56.5 121,-56.5"/>
<text text-anchor="middle" x="173" y="-63.5" font-family="Helvetica,sans-Serif" font-size="10.00">Station1Geometry.h</text>
</a>
</g>
</g>
<!-- Node1&#45;&gt;Node4 -->
<g id="edge3" class="edge"><title>Node1&#45;&gt;Node4</title>
<path fill="none" stroke="midnightblue" d="M533.271,-124.353C445.972,-110.455 312.737,-89.2451 235.114,-76.888"/>
<polygon fill="midnightblue" stroke="midnightblue" points="235.43,-73.3944 225.004,-75.2786 234.329,-80.3073 235.43,-73.3944"/>
</g>
<!-- Node6 -->
<g id="node6" class="node"><title>Node6</title>
<polygon fill="none" stroke="#bfbfbf" points="243,-56.5 243,-75.5 367,-75.5 367,-56.5 243,-56.5"/>
<text text-anchor="middle" x="305" y="-63.5" font-family="Helvetica,sans-Serif" font-size="10.00">TGeoCompositeShape.h</text>
</g>
<!-- Node1&#45;&gt;Node6 -->
<g id="edge5" class="edge"><title>Node1&#45;&gt;Node6</title>
<path fill="none" stroke="midnightblue" d="M533.198,-118.599C475.052,-105.451 400.375,-88.5657 352.59,-77.7608"/>
<polygon fill="midnightblue" stroke="midnightblue" points="353.343,-74.3427 342.817,-75.551 351.799,-81.1704 353.343,-74.3427"/>
</g>
<!-- Node7 -->
<g id="node7" class="node"><title>Node7</title>
<polygon fill="none" stroke="#bfbfbf" points="385,-56.5 385,-75.5 471,-75.5 471,-56.5 385,-56.5"/>
<text text-anchor="middle" x="428" y="-63.5" font-family="Helvetica,sans-Serif" font-size="10.00">TGeoManager.h</text>
</g>
<!-- Node1&#45;&gt;Node7 -->
<g id="edge6" class="edge"><title>Node1&#45;&gt;Node7</title>
<path fill="none" stroke="midnightblue" d="M551.661,-112.968C520.887,-101.529 485.83,-88.4969 460.92,-79.2373"/>
<polygon fill="midnightblue" stroke="midnightblue" points="461.833,-75.8426 451.24,-75.6389 459.394,-82.404 461.833,-75.8426"/>
</g>
<!-- Node8 -->
<g id="node8" class="node"><title>Node8</title>
<polygon fill="none" stroke="#bfbfbf" points="489.5,-56.5 489.5,-75.5 566.5,-75.5 566.5,-56.5 489.5,-56.5"/>
<text text-anchor="middle" x="528" y="-63.5" font-family="Helvetica,sans-Serif" font-size="10.00">TGeoShape.h</text>
</g>
<!-- Node1&#45;&gt;Node8 -->
<g id="edge8" class="edge"><title>Node1&#45;&gt;Node8</title>
<path fill="none" stroke="midnightblue" d="M586.917,-112.968C573.705,-102.66 558.836,-91.0589 547.341,-82.09"/>
<polygon fill="midnightblue" stroke="midnightblue" points="549.328,-79.2015 539.291,-75.8095 545.022,-84.7205 549.328,-79.2015"/>
</g>
<!-- Node9 -->
<g id="node9" class="node"><title>Node9</title>
<polygon fill="none" stroke="#bfbfbf" points="584.5,-56.5 584.5,-75.5 653.5,-75.5 653.5,-56.5 584.5,-56.5"/>
<text text-anchor="middle" x="619" y="-63.5" font-family="Helvetica,sans-Serif" font-size="10.00">TGeoArb8.h</text>
</g>
<!-- Node1&#45;&gt;Node9 -->
<g id="edge9" class="edge"><title>Node1&#45;&gt;Node9</title>
<path fill="none" stroke="midnightblue" d="M619,-112.768C619,-103.89 619,-94.0737 619,-85.8165"/>
<polygon fill="midnightblue" stroke="midnightblue" points="622.5,-85.7571 619,-75.7572 615.5,-85.7572 622.5,-85.7571"/>
</g>
<!-- Node10 -->
<g id="node10" class="node"><title>Node10</title>
<polygon fill="none" stroke="#bfbfbf" points="671.5,-56.5 671.5,-75.5 738.5,-75.5 738.5,-56.5 671.5,-56.5"/>
<text text-anchor="middle" x="705" y="-63.5" font-family="Helvetica,sans-Serif" font-size="10.00">TGeoXtru.h</text>
</g>
<!-- Node1&#45;&gt;Node10 -->
<g id="edge10" class="edge"><title>Node1&#45;&gt;Node10</title>
<path fill="none" stroke="midnightblue" d="M649.563,-112.768C661.905,-102.578 675.744,-91.1531 686.507,-82.2671"/>
<polygon fill="midnightblue" stroke="midnightblue" points="688.909,-84.8227 694.393,-75.7572 684.453,-79.4246 688.909,-84.8227"/>
</g>
<!-- Node11 -->
<g id="node11" class="node"><title>Node11</title>
<polygon fill="none" stroke="#bfbfbf" points="756.5,-56.5 756.5,-75.5 827.5,-75.5 827.5,-56.5 756.5,-56.5"/>
<text text-anchor="middle" x="792" y="-63.5" font-family="Helvetica,sans-Serif" font-size="10.00">TGeoTube.h</text>
</g>
<!-- Node1&#45;&gt;Node11 -->
<g id="edge11" class="edge"><title>Node1&#45;&gt;Node11</title>
<path fill="none" stroke="midnightblue" d="M679.993,-112.968C707.619,-101.63 739.056,-88.7284 761.579,-79.4851"/>
<polygon fill="midnightblue" stroke="midnightblue" points="763.028,-82.6736 770.95,-75.6389 760.37,-76.1978 763.028,-82.6736"/>
</g>
<!-- Node12 -->
<g id="node12" class="node"><title>Node12</title>
<polygon fill="none" stroke="#bfbfbf" points="846,-56.5 846,-75.5 928,-75.5 928,-56.5 846,-56.5"/>
<text text-anchor="middle" x="887" y="-63.5" font-family="Helvetica,sans-Serif" font-size="10.00">TGeoVolume.h</text>
</g>
<!-- Node1&#45;&gt;Node12 -->
<g id="edge12" class="edge"><title>Node1&#45;&gt;Node12</title>
<path fill="none" stroke="midnightblue" d="M704.534,-115.34C751.301,-102.95 807.172,-88.1484 844.661,-78.2166"/>
<polygon fill="midnightblue" stroke="midnightblue" points="845.955,-81.4947 854.725,-75.5505 844.162,-74.7282 845.955,-81.4947"/>
</g>
<!-- Node13 -->
<g id="node13" class="node"><title>Node13</title>
<polygon fill="none" stroke="#bfbfbf" points="946.5,-56.5 946.5,-75.5 1011.5,-75.5 1011.5,-56.5 946.5,-56.5"/>
<text text-anchor="middle" x="979" y="-63.5" font-family="Helvetica,sans-Serif" font-size="10.00">TVector3.h</text>
</g>
<!-- Node1&#45;&gt;Node13 -->
<g id="edge13" class="edge"><title>Node1&#45;&gt;Node13</title>
<path fill="none" stroke="midnightblue" d="M704.791,-121.72C766.461,-109.913 851.856,-93.3508 936.653,-76.041"/>
<polygon fill="midnightblue" stroke="midnightblue" points="937.357,-79.4695 946.453,-74.0366 935.955,-72.6115 937.357,-79.4695"/>
</g>
<!-- Node14 -->
<g id="node14" class="node"><title>Node14</title>
<polygon fill="none" stroke="#bfbfbf" points="1030,-56.5 1030,-75.5 1084,-75.5 1084,-56.5 1030,-56.5"/>
<text text-anchor="middle" x="1057" y="-63.5" font-family="Helvetica,sans-Serif" font-size="10.00">iostream</text>
</g>
<!-- Node1&#45;&gt;Node14 -->
<g id="edge14" class="edge"><title>Node1&#45;&gt;Node14</title>
<path fill="none" stroke="midnightblue" d="M704.636,-126.913C786.079,-115.861 911.864,-97.4707 1020,-76 1020.1,-75.9799 1020.2,-75.9597 1020.3,-75.9394"/>
<polygon fill="midnightblue" stroke="midnightblue" points="1020.94,-79.3822 1029.98,-73.8536 1019.47,-72.5393 1020.94,-79.3822"/>
</g>
<!-- Node15 -->
<g id="node15" class="node"><title>Node15</title>
<polygon fill="none" stroke="#bfbfbf" points="1102,-56.5 1102,-75.5 1140,-75.5 1140,-56.5 1102,-56.5"/>
<text text-anchor="middle" x="1121" y="-63.5" font-family="Helvetica,sans-Serif" font-size="10.00">array</text>
</g>
<!-- Node1&#45;&gt;Node15 -->
<g id="edge15" class="edge"><title>Node1&#45;&gt;Node15</title>
<path fill="none" stroke="midnightblue" d="M704.58,-131.498C797.895,-123.351 951.563,-106.843 1091.78,-75.9128"/>
<polygon fill="midnightblue" stroke="midnightblue" points="1092.85,-79.2587 1101.85,-73.6608 1091.32,-72.4274 1092.85,-79.2587"/>
</g>
<!-- Node2&#45;&gt;Node3 -->
<g id="edge2" class="edge"><title>Node2&#45;&gt;Node3</title>
<path fill="none" stroke="midnightblue" d="M36.7888,-56.083C40.7584,-48.6913 46.5251,-37.9533 51.4348,-28.8111"/>
<polygon fill="midnightblue" stroke="midnightblue" points="54.6525,-30.217 56.3003,-19.7511 48.4855,-26.9051 54.6525,-30.217"/>
</g>
<!-- Node5 -->
<g id="node5" class="node"><title>Node5</title>
<polygon fill="none" stroke="#bfbfbf" points="151,-0.5 151,-19.5 195,-19.5 195,-0.5 151,-0.5"/>
<text text-anchor="middle" x="173" y="-7.5" font-family="Helvetica,sans-Serif" font-size="10.00">vector</text>
</g>
<!-- Node4&#45;&gt;Node5 -->
<g id="edge4" class="edge"><title>Node4&#45;&gt;Node5</title>
<path fill="none" stroke="midnightblue" d="M173,-56.083C173,-49.0059 173,-38.8611 173,-29.9865"/>
<polygon fill="midnightblue" stroke="midnightblue" points="176.5,-29.751 173,-19.7511 169.5,-29.7511 176.5,-29.751"/>
</g>
</g>
</svg>
