<?xml version="1.0" encoding="UTF-8" standalone="no"?>
<!DOCTYPE svg PUBLIC "-//W3C//DTD SVG 1.1//EN"
 "http://www.w3.org/Graphics/SVG/1.1/DTD/svg11.dtd">
<!-- Generated by graphviz version 2.36.0 (20140111.2315)
 -->
<!-- Title: /home/travis/build/AliceO2Group/AliceO2/Detectors/FIT/simulation/include/FITSimulation/Digitizer.h Pages: 1 -->
<svg width="365pt" height="252pt"
 viewBox="0.00 0.00 365.00 252.00" xmlns="http://www.w3.org/2000/svg" xmlns:xlink="http://www.w3.org/1999/xlink">
<g id="graph0" class="graph" transform="scale(1 1) rotate(0) translate(4 248)">
<title>/home/travis/build/AliceO2Group/AliceO2/Detectors/FIT/simulation/include/FITSimulation/Digitizer.h</title>
<!-- Node1 -->
<g id="node1" class="node"><title>Node1</title>
<polygon fill="#bfbfbf" stroke="black" points="132.5,-191 132.5,-243 293.5,-243 293.5,-191 132.5,-191"/>
<text text-anchor="start" x="140.5" y="-231" font-family="Helvetica,sans-Serif" font-size="10.00">/home/travis/build</text>
<text text-anchor="start" x="140.5" y="-220" font-family="Helvetica,sans-Serif" font-size="10.00">/AliceO2Group/AliceO2</text>
<text text-anchor="start" x="140.5" y="-209" font-family="Helvetica,sans-Serif" font-size="10.00">/Detectors/FIT/simulation</text>
<text text-anchor="middle" x="213" y="-198" font-family="Helvetica,sans-Serif" font-size="10.00">/include/FITSimulation/Digitizer.h</text>
</g>
<!-- Node2 -->
<g id="node2" class="node"><title>Node2</title>
<g id="a_node2"><a xlink:href="../../d4/dcd/FIT_2simulation_2include_2FITSimulation_2DigitizerTask_8h.html" target="_top" xlink:title="/home/travis/build\l/AliceO2Group/AliceO2\l/Detectors/FIT/simulation\l/include/FITSimulation/Digitizer\lTask.h">
<polygon fill="none" stroke="black" points="57.5,-90.5 57.5,-153.5 210.5,-153.5 210.5,-90.5 57.5,-90.5"/>
<text text-anchor="start" x="65.5" y="-141.5" font-family="Helvetica,sans-Serif" font-size="10.00">/home/travis/build</text>
<text text-anchor="start" x="65.5" y="-130.5" font-family="Helvetica,sans-Serif" font-size="10.00">/AliceO2Group/AliceO2</text>
<text text-anchor="start" x="65.5" y="-119.5" font-family="Helvetica,sans-Serif" font-size="10.00">/Detectors/FIT/simulation</text>
<text text-anchor="start" x="65.5" y="-108.5" font-family="Helvetica,sans-Serif" font-size="10.00">/include/FITSimulation/Digitizer</text>
<text text-anchor="middle" x="134" y="-97.5" font-family="Helvetica,sans-Serif" font-size="10.00">Task.h</text>
</a>
</g>
</g>
<!-- Node1&#45;&gt;Node2 -->
<g id="edge1" class="edge"><title>Node1&#45;&gt;Node2</title>
<path fill="none" stroke="midnightblue" d="M184.829,-182.836C176.758,-173.335 167.997,-163.022 160.059,-153.677"/>
<polygon fill="midnightblue" stroke="midnightblue" points="182.271,-185.232 191.413,-190.587 187.606,-180.7 182.271,-185.232"/>
</g>
<!-- Node5 -->
<g id="node5" class="node"><title>Node5</title>
<g id="a_node5"><a xlink:href="../../d1/d0b/FIT_2simulation_2src_2Digitizer_8cxx.html" target="_top" xlink:title="/home/travis/build\l/AliceO2Group/AliceO2\l/Detectors/FIT/simulation\l/src/Digitizer.cxx">
<polygon fill="none" stroke="black" points="229,-96 229,-148 357,-148 357,-96 229,-96"/>
<text text-anchor="start" x="237" y="-136" font-family="Helvetica,sans-Serif" font-size="10.00">/home/travis/build</text>
<text text-anchor="start" x="237" y="-125" font-family="Helvetica,sans-Serif" font-size="10.00">/AliceO2Group/AliceO2</text>
<text text-anchor="start" x="237" y="-114" font-family="Helvetica,sans-Serif" font-size="10.00">/Detectors/FIT/simulation</text>
<text text-anchor="middle" x="293" y="-103" font-family="Helvetica,sans-Serif" font-size="10.00">/src/Digitizer.cxx</text>
</a>
</g>
</g>
<!-- Node1&#45;&gt;Node5 -->
<g id="edge4" class="edge"><title>Node1&#45;&gt;Node5</title>
<path fill="none" stroke="midnightblue" d="M241.491,-182.879C251.352,-171.416 262.233,-158.767 271.443,-148.06"/>
<polygon fill="midnightblue" stroke="midnightblue" points="238.728,-180.724 234.86,-190.587 244.035,-185.289 238.728,-180.724"/>
</g>
<!-- Node3 -->
<g id="node3" class="node"><title>Node3</title>
<g id="a_node3"><a xlink:href="../../d5/d69/FIT_2simulation_2src_2DigitizerTask_8cxx.html" target="_top" xlink:title="/home/travis/build\l/AliceO2Group/AliceO2\l/Detectors/FIT/simulation\l/src/DigitizerTask.cxx">
<polygon fill="none" stroke="black" points="0,-1 0,-53 128,-53 128,-1 0,-1"/>
<text text-anchor="start" x="8" y="-41" font-family="Helvetica,sans-Serif" font-size="10.00">/home/travis/build</text>
<text text-anchor="start" x="8" y="-30" font-family="Helvetica,sans-Serif" font-size="10.00">/AliceO2Group/AliceO2</text>
<text text-anchor="start" x="8" y="-19" font-family="Helvetica,sans-Serif" font-size="10.00">/Detectors/FIT/simulation</text>
<text text-anchor="middle" x="64" y="-8" font-family="Helvetica,sans-Serif" font-size="10.00">/src/DigitizerTask.cxx</text>
</a>
</g>
</g>
<!-- Node2&#45;&gt;Node3 -->
<g id="edge2" class="edge"><title>Node2&#45;&gt;Node3</title>
<path fill="none" stroke="midnightblue" d="M104.783,-82.1833C97.3834,-72.3522 89.6289,-62.0498 82.8926,-53.1001"/>
<polygon fill="midnightblue" stroke="midnightblue" points="102.075,-84.4057 110.885,-90.2906 107.668,-80.1961 102.075,-84.4057"/>
</g>
<!-- Node4 -->
<g id="node4" class="node"><title>Node4</title>
<g id="a_node4"><a xlink:href="../../d9/d7d/run__digi__fit_8C.html" target="_top" xlink:title="/home/travis/build\l/AliceO2Group/AliceO2\l/macro/run_digi_fit.C">
<polygon fill="none" stroke="black" points="146,-6.5 146,-47.5 264,-47.5 264,-6.5 146,-6.5"/>
<text text-anchor="start" x="154" y="-35.5" font-family="Helvetica,sans-Serif" font-size="10.00">/home/travis/build</text>
<text text-anchor="start" x="154" y="-24.5" font-family="Helvetica,sans-Serif" font-size="10.00">/AliceO2Group/AliceO2</text>
<text text-anchor="middle" x="205" y="-13.5" font-family="Helvetica,sans-Serif" font-size="10.00">/macro/run_digi_fit.C</text>
</a>
</g>
</g>
<!-- Node2&#45;&gt;Node4 -->
<g id="edge3" class="edge"><title>Node2&#45;&gt;Node4</title>
<path fill="none" stroke="midnightblue" d="M163.634,-82.1833C172.741,-70.2549 182.377,-57.6327 190.056,-47.5747"/>
<polygon fill="midnightblue" stroke="midnightblue" points="160.731,-80.2183 157.445,-90.2906 166.295,-84.466 160.731,-80.2183"/>
</g>
</g>
</svg>
