<?xml version="1.0" encoding="UTF-8" standalone="no"?>
<!DOCTYPE svg PUBLIC "-//W3C//DTD SVG 1.1//EN"
 "http://www.w3.org/Graphics/SVG/1.1/DTD/svg11.dtd">
<!-- Generated by graphviz version 2.36.0 (20140111.2315)
 -->
<!-- Title: /home/travis/build/AliceO2Group/AliceO2/Framework/Core/include/Framework/DataRefUtils.h Pages: 1 -->
<svg width="1785pt" height="242pt"
 viewBox="0.00 0.00 1785.00 242.00" xmlns="http://www.w3.org/2000/svg" xmlns:xlink="http://www.w3.org/1999/xlink">
<g id="graph0" class="graph" transform="scale(1 1) rotate(0) translate(4 238)">
<title>/home/travis/build/AliceO2Group/AliceO2/Framework/Core/include/Framework/DataRefUtils.h</title>
<!-- Node1 -->
<g id="node1" class="node"><title>Node1</title>
<polygon fill="#bfbfbf" stroke="black" points="1324.5,-181 1324.5,-233 1461.5,-233 1461.5,-181 1324.5,-181"/>
<text text-anchor="start" x="1332.5" y="-221" font-family="Helvetica,sans-Serif" font-size="10.00">/home/travis/build</text>
<text text-anchor="start" x="1332.5" y="-210" font-family="Helvetica,sans-Serif" font-size="10.00">/AliceO2Group/AliceO2</text>
<text text-anchor="start" x="1332.5" y="-199" font-family="Helvetica,sans-Serif" font-size="10.00">/Framework/Core/include</text>
<text text-anchor="middle" x="1393" y="-188" font-family="Helvetica,sans-Serif" font-size="10.00">/Framework/DataRefUtils.h</text>
</g>
<!-- Node2 -->
<g id="node2" class="node"><title>Node2</title>
<g id="a_node2"><a xlink:href="../../d5/dfb/DataRef_8h.html" target="_top" xlink:title="Framework/DataRef.h">
<polygon fill="none" stroke="black" points="254.5,-124.5 254.5,-143.5 367.5,-143.5 367.5,-124.5 254.5,-124.5"/>
<text text-anchor="middle" x="311" y="-131.5" font-family="Helvetica,sans-Serif" font-size="10.00">Framework/DataRef.h</text>
</a>
</g>
</g>
<!-- Node1&#45;&gt;Node2 -->
<g id="edge1" class="edge"><title>Node1&#45;&gt;Node2</title>
<path fill="none" stroke="midnightblue" d="M1324.41,-203.636C1161.79,-197.638 739.924,-179.781 377.846,-144.117"/>
<polygon fill="midnightblue" stroke="midnightblue" points="377.986,-140.614 367.69,-143.11 377.296,-147.579 377.986,-140.614"/>
</g>
<!-- Node3 -->
<g id="node3" class="node"><title>Node3</title>
<g id="a_node3"><a xlink:href="../../dc/dcd/DataHeader_8h.html" target="_top" xlink:title="Headers/DataHeader.h">
<polygon fill="none" stroke="black" points="897.5,-124.5 897.5,-143.5 1014.5,-143.5 1014.5,-124.5 897.5,-124.5"/>
<text text-anchor="middle" x="956" y="-131.5" font-family="Helvetica,sans-Serif" font-size="10.00">Headers/DataHeader.h</text>
</a>
</g>
</g>
<!-- Node1&#45;&gt;Node3 -->
<g id="edge2" class="edge"><title>Node1&#45;&gt;Node3</title>
<path fill="none" stroke="midnightblue" d="M1324.24,-194.828C1240.33,-181.196 1099.67,-158.343 1018.65,-145.178"/>
<polygon fill="midnightblue" stroke="midnightblue" points="1019.02,-141.693 1008.59,-143.544 1017.9,-148.602 1019.02,-141.693"/>
</g>
<!-- Node9 -->
<g id="node9" class="node"><title>Node9</title>
<polygon fill="none" stroke="#bfbfbf" points="1270.5,-68.5 1270.5,-87.5 1329.5,-87.5 1329.5,-68.5 1270.5,-68.5"/>
<text text-anchor="middle" x="1300" y="-75.5" font-family="Helvetica,sans-Serif" font-size="10.00">stdexcept</text>
</g>
<!-- Node1&#45;&gt;Node9 -->
<g id="edge39" class="edge"><title>Node1&#45;&gt;Node9</title>
<path fill="none" stroke="midnightblue" d="M1374.63,-180.909C1356.19,-155.734 1328.31,-117.659 1312.36,-95.8792"/>
<polygon fill="midnightblue" stroke="midnightblue" points="1315.05,-93.6281 1306.32,-87.6278 1309.4,-97.7638 1315.05,-93.6281"/>
</g>
<!-- Node16 -->
<g id="node16" class="node"><title>Node16</title>
<polygon fill="none" stroke="#bfbfbf" points="1671,-6.5 1671,-25.5 1733,-25.5 1733,-6.5 1671,-6.5"/>
<text text-anchor="middle" x="1702" y="-13.5" font-family="Helvetica,sans-Serif" font-size="10.00">type_traits</text>
</g>
<!-- Node1&#45;&gt;Node16 -->
<g id="edge41" class="edge"><title>Node1&#45;&gt;Node16</title>
<path fill="none" stroke="midnightblue" d="M1461.54,-181.787C1487.21,-171.568 1516.16,-158.633 1541,-144 1598.23,-110.288 1657.56,-58.2546 1685.53,-32.514"/>
<polygon fill="midnightblue" stroke="midnightblue" points="1687.92,-35.0728 1692.86,-25.7028 1683.15,-29.9439 1687.92,-35.0728"/>
</g>
<!-- Node22 -->
<g id="node22" class="node"><title>Node22</title>
<g id="a_node22"><a xlink:href="../../d8/d3c/TMessageSerializer_8h.html" target="_top" xlink:title="Framework/TMessageSerializer.h">
<polygon fill="none" stroke="black" points="385.5,-124.5 385.5,-143.5 548.5,-143.5 548.5,-124.5 385.5,-124.5"/>
<text text-anchor="middle" x="467" y="-131.5" font-family="Helvetica,sans-Serif" font-size="10.00">Framework/TMessageSerializer.h</text>
</a>
</g>
</g>
<!-- Node1&#45;&gt;Node22 -->
<g id="edge23" class="edge"><title>Node1&#45;&gt;Node22</title>
<path fill="none" stroke="midnightblue" d="M1324.16,-200.721C1159.73,-188.114 744.09,-156.246 558.706,-142.031"/>
<polygon fill="midnightblue" stroke="midnightblue" points="558.949,-138.54 548.711,-141.265 558.414,-145.519 558.949,-138.54"/>
</g>
<!-- Node31 -->
<g id="node31" class="node"><title>Node31</title>
<g id="a_node31"><a xlink:href="../../d1/d53/SerializationMethods_8h.html" target="_top" xlink:title="Type wrappers for enfording a specific serialization method. ">
<polygon fill="none" stroke="black" points="1365.5,-124.5 1365.5,-143.5 1532.5,-143.5 1532.5,-124.5 1365.5,-124.5"/>
<text text-anchor="middle" x="1449" y="-131.5" font-family="Helvetica,sans-Serif" font-size="10.00">Framework/SerializationMethods.h</text>
</a>
</g>
</g>
<!-- Node1&#45;&gt;Node31 -->
<g id="edge33" class="edge"><title>Node1&#45;&gt;Node31</title>
<path fill="none" stroke="midnightblue" d="M1412.9,-180.768C1420.46,-171.183 1428.88,-160.506 1435.69,-151.877"/>
<polygon fill="midnightblue" stroke="midnightblue" points="1438.65,-153.776 1442.09,-143.757 1433.15,-149.441 1438.65,-153.776"/>
</g>
<!-- Node32 -->
<g id="node32" class="node"><title>Node32</title>
<g id="a_node32"><a xlink:href="../../d0/d95/TypeTraits_8h.html" target="_top" xlink:title="Framework/TypeTraits.h">
<polygon fill="none" stroke="black" points="1398.5,-68.5 1398.5,-87.5 1521.5,-87.5 1521.5,-68.5 1398.5,-68.5"/>
<text text-anchor="middle" x="1460" y="-75.5" font-family="Helvetica,sans-Serif" font-size="10.00">Framework/TypeTraits.h</text>
</a>
</g>
</g>
<!-- Node1&#45;&gt;Node32 -->
<g id="edge37" class="edge"><title>Node1&#45;&gt;Node32</title>
<path fill="none" stroke="midnightblue" d="M1369.33,-180.871C1356.47,-164.054 1345.34,-141.823 1357,-124 1367.5,-107.949 1385.13,-97.5902 1402.85,-90.9182"/>
<polygon fill="midnightblue" stroke="midnightblue" points="1404.33,-94.1133 1412.67,-87.5781 1402.07,-87.4866 1404.33,-94.1133"/>
</g>
<!-- Node33 -->
<g id="node33" class="node"><title>Node33</title>
<polygon fill="none" stroke="#bfbfbf" points="1588,-124.5 1588,-143.5 1644,-143.5 1644,-124.5 1588,-124.5"/>
<text text-anchor="middle" x="1616" y="-131.5" font-family="Helvetica,sans-Serif" font-size="10.00">TClass.h</text>
</g>
<!-- Node1&#45;&gt;Node33 -->
<g id="edge38" class="edge"><title>Node1&#45;&gt;Node33</title>
<path fill="none" stroke="midnightblue" d="M1461.73,-184.118C1500.53,-171.765 1547.47,-156.818 1579.31,-146.681"/>
<polygon fill="midnightblue" stroke="midnightblue" points="1580.62,-149.938 1589.09,-143.569 1578.5,-143.267 1580.62,-149.938"/>
</g>
<!-- Node34 -->
<g id="node34" class="node"><title>Node34</title>
<polygon fill="none" stroke="#bfbfbf" points="1662,-124.5 1662,-143.5 1714,-143.5 1714,-124.5 1662,-124.5"/>
<text text-anchor="middle" x="1688" y="-131.5" font-family="Helvetica,sans-Serif" font-size="10.00">sstream</text>
</g>
<!-- Node1&#45;&gt;Node34 -->
<g id="edge40" class="edge"><title>Node1&#45;&gt;Node34</title>
<path fill="none" stroke="midnightblue" d="M1461.75,-189.739C1511.63,-177.898 1580.99,-161.337 1651.68,-144.059"/>
<polygon fill="midnightblue" stroke="midnightblue" points="1652.78,-147.393 1661.66,-141.617 1651.12,-140.594 1652.78,-147.393"/>
</g>
<!-- Node35 -->
<g id="node35" class="node"><title>Node35</title>
<polygon fill="none" stroke="#bfbfbf" points="1732.5,-124.5 1732.5,-143.5 1777.5,-143.5 1777.5,-124.5 1732.5,-124.5"/>
<text text-anchor="middle" x="1755" y="-131.5" font-family="Helvetica,sans-Serif" font-size="10.00">gsl/gsl</text>
</g>
<!-- Node1&#45;&gt;Node35 -->
<g id="edge42" class="edge"><title>Node1&#45;&gt;Node35</title>
<path fill="none" stroke="midnightblue" d="M1461.63,-194.928C1526.41,-184.063 1626.41,-166.226 1722.46,-143.951"/>
<polygon fill="midnightblue" stroke="midnightblue" points="1723.4,-147.326 1732.34,-141.641 1721.8,-140.51 1723.4,-147.326"/>
</g>
<!-- Node4 -->
<g id="node4" class="node"><title>Node4</title>
<polygon fill="none" stroke="#bfbfbf" points="776,-68.5 776,-87.5 822,-87.5 822,-68.5 776,-68.5"/>
<text text-anchor="middle" x="799" y="-75.5" font-family="Helvetica,sans-Serif" font-size="10.00">cstdint</text>
</g>
<!-- Node3&#45;&gt;Node4 -->
<g id="edge3" class="edge"><title>Node3&#45;&gt;Node4</title>
<path fill="none" stroke="midnightblue" d="M931.123,-124.444C904.245,-115.199 861.3,-100.428 831.707,-90.2495"/>
<polygon fill="midnightblue" stroke="midnightblue" points="832.82,-86.9312 822.225,-86.9883 830.543,-93.5506 832.82,-86.9312"/>
</g>
<!-- Node5 -->
<g id="node5" class="node"><title>Node5</title>
<polygon fill="none" stroke="#bfbfbf" points="706,-68.5 706,-87.5 758,-87.5 758,-68.5 706,-68.5"/>
<text text-anchor="middle" x="732" y="-75.5" font-family="Helvetica,sans-Serif" font-size="10.00">memory</text>
</g>
<!-- Node3&#45;&gt;Node5 -->
<g id="edge4" class="edge"><title>Node3&#45;&gt;Node5</title>
<path fill="none" stroke="midnightblue" d="M919.367,-124.483C883.267,-116.045 826.286,-102.604 768.088,-88.2394"/>
<polygon fill="midnightblue" stroke="midnightblue" points="768.908,-84.8369 758.36,-85.8324 767.227,-91.6319 768.908,-84.8369"/>
</g>
<!-- Node6 -->
<g id="node6" class="node"><title>Node6</title>
<polygon fill="none" stroke="#bfbfbf" points="840.5,-68.5 840.5,-87.5 889.5,-87.5 889.5,-68.5 840.5,-68.5"/>
<text text-anchor="middle" x="865" y="-75.5" font-family="Helvetica,sans-Serif" font-size="10.00">cassert</text>
</g>
<!-- Node3&#45;&gt;Node6 -->
<g id="edge5" class="edge"><title>Node3&#45;&gt;Node6</title>
<path fill="none" stroke="midnightblue" d="M941.379,-124.324C927.051,-115.822 904.987,-102.729 888.251,-92.7975"/>
<polygon fill="midnightblue" stroke="midnightblue" points="889.97,-89.7478 879.584,-87.6545 886.398,-95.7677 889.97,-89.7478"/>
</g>
<!-- Node7 -->
<g id="node7" class="node"><title>Node7</title>
<polygon fill="none" stroke="#bfbfbf" points="483,-6.5 483,-25.5 529,-25.5 529,-6.5 483,-6.5"/>
<text text-anchor="middle" x="506" y="-13.5" font-family="Helvetica,sans-Serif" font-size="10.00">cstring</text>
</g>
<!-- Node3&#45;&gt;Node7 -->
<g id="edge6" class="edge"><title>Node3&#45;&gt;Node7</title>
<path fill="none" stroke="midnightblue" d="M951.26,-124.409C942.741,-109.909 923.338,-80.9013 898,-68 754.707,4.96053 693.015,-74.7353 538,-32 535.654,-31.3533 533.268,-30.5471 530.909,-29.6462"/>
<polygon fill="midnightblue" stroke="midnightblue" points="532.112,-26.3529 521.545,-25.5765 529.321,-32.7727 532.112,-26.3529"/>
</g>
<!-- Node8 -->
<g id="node8" class="node"><title>Node8</title>
<polygon fill="none" stroke="#bfbfbf" points="1196,-68.5 1196,-87.5 1252,-87.5 1252,-68.5 1196,-68.5"/>
<text text-anchor="middle" x="1224" y="-75.5" font-family="Helvetica,sans-Serif" font-size="10.00">algorithm</text>
</g>
<!-- Node3&#45;&gt;Node8 -->
<g id="edge7" class="edge"><title>Node3&#45;&gt;Node8</title>
<path fill="none" stroke="midnightblue" d="M1002.37,-124.483C1048.9,-115.806 1122.57,-101.711 1186,-88 1186.1,-87.9785 1186.2,-87.957 1186.3,-87.9354"/>
<polygon fill="midnightblue" stroke="midnightblue" points="1186.81,-91.4071 1195.81,-85.8077 1185.28,-84.5761 1186.81,-91.4071"/>
</g>
<!-- Node3&#45;&gt;Node9 -->
<g id="edge8" class="edge"><title>Node3&#45;&gt;Node9</title>
<path fill="none" stroke="midnightblue" d="M1014.78,-125.618C1076.17,-117.599 1175.16,-103.801 1260,-88 1260.1,-87.9805 1260.21,-87.9608 1260.32,-87.9411"/>
<polygon fill="midnightblue" stroke="midnightblue" points="1261.23,-91.3281 1270.34,-85.9305 1259.85,-84.4647 1261.23,-91.3281"/>
</g>
<!-- Node10 -->
<g id="node10" class="node"><title>Node10</title>
<polygon fill="none" stroke="#bfbfbf" points="547.5,-6.5 547.5,-25.5 588.5,-25.5 588.5,-6.5 547.5,-6.5"/>
<text text-anchor="middle" x="568" y="-13.5" font-family="Helvetica,sans-Serif" font-size="10.00">string</text>
</g>
<!-- Node3&#45;&gt;Node10 -->
<g id="edge9" class="edge"><title>Node3&#45;&gt;Node10</title>
<path fill="none" stroke="midnightblue" d="M955.556,-124.164C954.319,-109.837 949.645,-81.7577 932,-68 873.128,-22.098 669.63,-53.0254 598,-32 596.03,-31.4219 594.035,-30.7186 592.057,-29.9355"/>
<polygon fill="midnightblue" stroke="midnightblue" points="593.075,-26.5521 582.526,-25.5659 590.158,-32.9152 593.075,-26.5521"/>
</g>
<!-- Node11 -->
<g id="node11" class="node"><title>Node11</title>
<g id="a_node11"><a xlink:href="../../dc/d03/MemoryResources_8h.html" target="_top" xlink:title="MemoryResources/MemoryResources.h">
<polygon fill="none" stroke="black" points="984.5,-68.5 984.5,-87.5 1177.5,-87.5 1177.5,-68.5 984.5,-68.5"/>
<text text-anchor="middle" x="1081" y="-75.5" font-family="Helvetica,sans-Serif" font-size="10.00">MemoryResources/MemoryResources.h</text>
</a>
</g>
</g>
<!-- Node3&#45;&gt;Node11 -->
<g id="edge10" class="edge"><title>Node3&#45;&gt;Node11</title>
<path fill="none" stroke="midnightblue" d="M975.807,-124.444C996.287,-115.596 1028.48,-101.687 1051.86,-91.5865"/>
<polygon fill="midnightblue" stroke="midnightblue" points="1053.49,-94.6953 1061.29,-87.5164 1050.72,-88.2692 1053.49,-94.6953"/>
</g>
<!-- Node11&#45;&gt;Node7 -->
<g id="edge15" class="edge"><title>Node11&#45;&gt;Node7</title>
<path fill="none" stroke="midnightblue" d="M984.218,-70.8481C839.677,-61.3772 579.845,-43.1546 538,-32 535.649,-31.3733 533.258,-30.5808 530.897,-29.6889"/>
<polygon fill="midnightblue" stroke="midnightblue" points="532.098,-26.3948 521.53,-25.6333 529.316,-32.8185 532.098,-26.3948"/>
</g>
<!-- Node11&#45;&gt;Node10 -->
<g id="edge16" class="edge"><title>Node11&#45;&gt;Node10</title>
<path fill="none" stroke="midnightblue" d="M984.233,-68.9047C848.571,-57.4218 616.258,-37.216 598,-32 596.026,-31.4361 594.027,-30.7432 592.048,-29.9673"/>
<polygon fill="midnightblue" stroke="midnightblue" points="593.063,-26.5835 582.513,-25.6116 590.155,-32.9505 593.063,-26.5835"/>
</g>
<!-- Node12 -->
<g id="node12" class="node"><title>Node12</title>
<polygon fill="none" stroke="#bfbfbf" points="1031,-1 1031,-31 1131,-31 1131,-1 1031,-1"/>
<text text-anchor="start" x="1039" y="-19" font-family="Helvetica,sans-Serif" font-size="10.00">boost/container/flat</text>
<text text-anchor="middle" x="1081" y="-8" font-family="Helvetica,sans-Serif" font-size="10.00">_map.hpp</text>
</g>
<!-- Node11&#45;&gt;Node12 -->
<g id="edge11" class="edge"><title>Node11&#45;&gt;Node12</title>
<path fill="none" stroke="midnightblue" d="M1081,-68.4035C1081,-61.3405 1081,-50.975 1081,-41.399"/>
<polygon fill="midnightblue" stroke="midnightblue" points="1084.5,-41.1408 1081,-31.1408 1077.5,-41.1408 1084.5,-41.1408"/>
</g>
<!-- Node13 -->
<g id="node13" class="node"><title>Node13</title>
<polygon fill="none" stroke="#bfbfbf" points="1149,-1 1149,-31 1265,-31 1265,-1 1149,-1"/>
<text text-anchor="start" x="1157" y="-19" font-family="Helvetica,sans-Serif" font-size="10.00">boost/container/pmr</text>
<text text-anchor="middle" x="1207" y="-8" font-family="Helvetica,sans-Serif" font-size="10.00">/memory_resource.hpp</text>
</g>
<!-- Node11&#45;&gt;Node13 -->
<g id="edge12" class="edge"><title>Node11&#45;&gt;Node13</title>
<path fill="none" stroke="midnightblue" d="M1099.05,-68.4035C1116.99,-59.8596 1145.09,-46.483 1168.11,-35.5171"/>
<polygon fill="midnightblue" stroke="midnightblue" points="1169.78,-38.6002 1177.3,-31.1408 1166.77,-32.2802 1169.78,-38.6002"/>
</g>
<!-- Node14 -->
<g id="node14" class="node"><title>Node14</title>
<polygon fill="none" stroke="#bfbfbf" points="1283,-1 1283,-31 1439,-31 1439,-1 1283,-1"/>
<text text-anchor="start" x="1291" y="-19" font-family="Helvetica,sans-Serif" font-size="10.00">boost/container/pmr</text>
<text text-anchor="middle" x="1361" y="-8" font-family="Helvetica,sans-Serif" font-size="10.00">/monotonic_buffer_resource.hpp</text>
</g>
<!-- Node11&#45;&gt;Node14 -->
<g id="edge13" class="edge"><title>Node11&#45;&gt;Node14</title>
<path fill="none" stroke="midnightblue" d="M1120.82,-68.4672C1163.51,-59.3184 1232.31,-44.5763 1285.35,-33.2097"/>
<polygon fill="midnightblue" stroke="midnightblue" points="1286.36,-36.5742 1295.4,-31.0565 1284.89,-29.7296 1286.36,-36.5742"/>
</g>
<!-- Node15 -->
<g id="node15" class="node"><title>Node15</title>
<polygon fill="none" stroke="#bfbfbf" points="1457.5,-1 1457.5,-31 1590.5,-31 1590.5,-1 1457.5,-1"/>
<text text-anchor="start" x="1465.5" y="-19" font-family="Helvetica,sans-Serif" font-size="10.00">boost/container/pmr</text>
<text text-anchor="middle" x="1524" y="-8" font-family="Helvetica,sans-Serif" font-size="10.00">/polymorphic_allocator.hpp</text>
</g>
<!-- Node11&#45;&gt;Node15 -->
<g id="edge14" class="edge"><title>Node11&#45;&gt;Node15</title>
<path fill="none" stroke="midnightblue" d="M1164.69,-68.4941C1236.91,-60.75 1344.21,-48.2798 1447.35,-32.03"/>
<polygon fill="midnightblue" stroke="midnightblue" points="1447.99,-35.4722 1457.32,-30.4457 1446.9,-28.559 1447.99,-35.4722"/>
</g>
<!-- Node11&#45;&gt;Node16 -->
<g id="edge17" class="edge"><title>Node11&#45;&gt;Node16</title>
<path fill="none" stroke="midnightblue" d="M1177.76,-68.7488C1180.88,-68.4945 1183.96,-68.2443 1187,-68 1397.59,-51.0628 1454.51,-76.7166 1661,-32 1664.7,-31.1989 1668.52,-30.1396 1672.26,-28.9532"/>
<polygon fill="midnightblue" stroke="midnightblue" points="1673.59,-32.196 1681.89,-25.6064 1671.29,-25.5841 1673.59,-32.196"/>
</g>
<!-- Node17 -->
<g id="node17" class="node"><title>Node17</title>
<polygon fill="none" stroke="#bfbfbf" points="607,-6.5 607,-25.5 647,-25.5 647,-6.5 607,-6.5"/>
<text text-anchor="middle" x="627" y="-13.5" font-family="Helvetica,sans-Serif" font-size="10.00">utility</text>
</g>
<!-- Node11&#45;&gt;Node17 -->
<g id="edge18" class="edge"><title>Node11&#45;&gt;Node17</title>
<path fill="none" stroke="midnightblue" d="M984.381,-68.6725C868.698,-58.4042 686.626,-41.1866 656,-32 654.086,-31.4259 652.15,-30.7256 650.233,-29.9445"/>
<polygon fill="midnightblue" stroke="midnightblue" points="651.546,-26.694 641.01,-25.5789 648.551,-33.021 651.546,-26.694"/>
</g>
<!-- Node18 -->
<g id="node18" class="node"><title>Node18</title>
<polygon fill="none" stroke="#bfbfbf" points="1609,-6.5 1609,-25.5 1653,-25.5 1653,-6.5 1609,-6.5"/>
<text text-anchor="middle" x="1631" y="-13.5" font-family="Helvetica,sans-Serif" font-size="10.00">vector</text>
</g>
<!-- Node11&#45;&gt;Node18 -->
<g id="edge19" class="edge"><title>Node11&#45;&gt;Node18</title>
<path fill="none" stroke="midnightblue" d="M1177.55,-68.7181C1326.72,-55.9074 1596.48,-32.6776 1599,-32 1601.35,-31.3686 1603.74,-30.5729 1606.1,-29.6789"/>
<polygon fill="midnightblue" stroke="midnightblue" points="1607.68,-32.8078 1615.47,-25.62 1604.9,-26.385 1607.68,-32.8078"/>
</g>
<!-- Node19 -->
<g id="node19" class="node"><title>Node19</title>
<polygon fill="none" stroke="#bfbfbf" points="665.5,-6.5 665.5,-25.5 748.5,-25.5 748.5,-6.5 665.5,-6.5"/>
<text text-anchor="middle" x="707" y="-13.5" font-family="Helvetica,sans-Serif" font-size="10.00">unordered_map</text>
</g>
<!-- Node11&#45;&gt;Node19 -->
<g id="edge20" class="edge"><title>Node11&#45;&gt;Node19</title>
<path fill="none" stroke="midnightblue" d="M993.036,-68.4757C927.501,-61.2338 836.067,-49.244 757,-32 752.268,-30.968 747.333,-29.7133 742.486,-28.3738"/>
<polygon fill="midnightblue" stroke="midnightblue" points="743.333,-24.9751 732.753,-25.5494 741.382,-31.6977 743.333,-24.9751"/>
</g>
<!-- Node20 -->
<g id="node20" class="node"><title>Node20</title>
<polygon fill="none" stroke="#bfbfbf" points="766.5,-6.5 766.5,-25.5 863.5,-25.5 863.5,-6.5 766.5,-6.5"/>
<text text-anchor="middle" x="815" y="-13.5" font-family="Helvetica,sans-Serif" font-size="10.00">FairMQMessage.h</text>
</g>
<!-- Node11&#45;&gt;Node20 -->
<g id="edge21" class="edge"><title>Node11&#45;&gt;Node20</title>
<path fill="none" stroke="midnightblue" d="M1038.44,-68.425C996.119,-59.7592 929.397,-45.7239 872,-32 866.906,-30.7819 861.57,-29.4513 856.292,-28.1017"/>
<polygon fill="midnightblue" stroke="midnightblue" points="856.854,-24.6315 846.295,-25.5079 855.096,-31.4072 856.854,-24.6315"/>
</g>
<!-- Node21 -->
<g id="node21" class="node"><title>Node21</title>
<polygon fill="none" stroke="#bfbfbf" points="881.5,-6.5 881.5,-25.5 1012.5,-25.5 1012.5,-6.5 881.5,-6.5"/>
<text text-anchor="middle" x="947" y="-13.5" font-family="Helvetica,sans-Serif" font-size="10.00">FairMQTransportFactory.h</text>
</g>
<!-- Node11&#45;&gt;Node21 -->
<g id="edge22" class="edge"><title>Node11&#45;&gt;Node21</title>
<path fill="none" stroke="midnightblue" d="M1061.8,-68.4035C1039.21,-58.2896 1001.5,-41.4036 975.499,-29.761"/>
<polygon fill="midnightblue" stroke="midnightblue" points="976.721,-26.4729 966.163,-25.5806 973.86,-32.8617 976.721,-26.4729"/>
</g>
<!-- Node22&#45;&gt;Node5 -->
<g id="edge31" class="edge"><title>Node22&#45;&gt;Node5</title>
<path fill="none" stroke="midnightblue" d="M514.074,-124.475C558.298,-116.304 626.55,-103.277 695.513,-88.01"/>
<polygon fill="midnightblue" stroke="midnightblue" points="696.692,-91.3334 705.691,-85.7416 695.169,-84.501 696.692,-91.3334"/>
</g>
<!-- Node23 -->
<g id="node23" class="node"><title>Node23</title>
<polygon fill="none" stroke="#bfbfbf" points="133.5,-68.5 133.5,-87.5 260.5,-87.5 260.5,-68.5 133.5,-68.5"/>
<text text-anchor="middle" x="197" y="-75.5" font-family="Helvetica,sans-Serif" font-size="10.00">fairmq/FairMQMessage.h</text>
</g>
<!-- Node22&#45;&gt;Node23 -->
<g id="edge24" class="edge"><title>Node22&#45;&gt;Node23</title>
<path fill="none" stroke="midnightblue" d="M424.218,-124.444C376.821,-114.964 300.374,-99.6747 249.417,-89.4835"/>
<polygon fill="midnightblue" stroke="midnightblue" points="250.074,-86.0456 239.582,-87.5164 248.702,-92.9097 250.074,-86.0456"/>
</g>
<!-- Node24 -->
<g id="node24" class="node"><title>Node24</title>
<polygon fill="none" stroke="#bfbfbf" points="278.5,-68.5 278.5,-87.5 325.5,-87.5 325.5,-68.5 278.5,-68.5"/>
<text text-anchor="middle" x="302" y="-75.5" font-family="Helvetica,sans-Serif" font-size="10.00">TList.h</text>
</g>
<!-- Node22&#45;&gt;Node24 -->
<g id="edge25" class="edge"><title>Node22&#45;&gt;Node24</title>
<path fill="none" stroke="midnightblue" d="M440.855,-124.444C412.239,-115.078 366.293,-100.042 335.163,-89.8532"/>
<polygon fill="midnightblue" stroke="midnightblue" points="336.209,-86.5131 325.616,-86.729 334.032,-93.1659 336.209,-86.5131"/>
</g>
<!-- Node25 -->
<g id="node25" class="node"><title>Node25</title>
<polygon fill="none" stroke="#bfbfbf" points="343.5,-68.5 343.5,-87.5 414.5,-87.5 414.5,-68.5 343.5,-68.5"/>
<text text-anchor="middle" x="379" y="-75.5" font-family="Helvetica,sans-Serif" font-size="10.00">TMessage.h</text>
</g>
<!-- Node22&#45;&gt;Node25 -->
<g id="edge26" class="edge"><title>Node22&#45;&gt;Node25</title>
<path fill="none" stroke="midnightblue" d="M452.861,-124.324C439.134,-115.9 418.064,-102.971 401.936,-93.0741"/>
<polygon fill="midnightblue" stroke="midnightblue" points="403.457,-89.9016 393.104,-87.6545 399.796,-95.8678 403.457,-89.9016"/>
</g>
<!-- Node26 -->
<g id="node26" class="node"><title>Node26</title>
<polygon fill="none" stroke="#bfbfbf" points="432.5,-68.5 432.5,-87.5 501.5,-87.5 501.5,-68.5 432.5,-68.5"/>
<text text-anchor="middle" x="467" y="-75.5" font-family="Helvetica,sans-Serif" font-size="10.00">TObjArray.h</text>
</g>
<!-- Node22&#45;&gt;Node26 -->
<g id="edge27" class="edge"><title>Node22&#45;&gt;Node26</title>
<path fill="none" stroke="midnightblue" d="M467,-124.083C467,-117.006 467,-106.861 467,-97.9865"/>
<polygon fill="midnightblue" stroke="midnightblue" points="470.5,-97.751 467,-87.7511 463.5,-97.7511 470.5,-97.751"/>
</g>
<!-- Node27 -->
<g id="node27" class="node"><title>Node27</title>
<polygon fill="none" stroke="#bfbfbf" points="519.5,-68.5 519.5,-87.5 606.5,-87.5 606.5,-68.5 519.5,-68.5"/>
<text text-anchor="middle" x="563" y="-75.5" font-family="Helvetica,sans-Serif" font-size="10.00">TStreamerInfo.h</text>
</g>
<!-- Node22&#45;&gt;Node27 -->
<g id="edge28" class="edge"><title>Node22&#45;&gt;Node27</title>
<path fill="none" stroke="midnightblue" d="M482.424,-124.324C497.54,-115.822 520.815,-102.729 538.471,-92.7975"/>
<polygon fill="midnightblue" stroke="midnightblue" points="540.614,-95.6077 547.614,-87.6545 537.183,-89.5066 540.614,-95.6077"/>
</g>
<!-- Node28 -->
<g id="node28" class="node"><title>Node28</title>
<polygon fill="none" stroke="#bfbfbf" points="624.5,-68.5 624.5,-87.5 687.5,-87.5 687.5,-68.5 624.5,-68.5"/>
<text text-anchor="middle" x="656" y="-75.5" font-family="Helvetica,sans-Serif" font-size="10.00">gsl/gsl_util</text>
</g>
<!-- Node22&#45;&gt;Node28 -->
<g id="edge29" class="edge"><title>Node22&#45;&gt;Node28</title>
<path fill="none" stroke="midnightblue" d="M496.948,-124.444C529.158,-115.241 580.534,-100.562 616.142,-90.3879"/>
<polygon fill="midnightblue" stroke="midnightblue" points="617.539,-93.629 626.192,-87.5164 615.616,-86.8984 617.539,-93.629"/>
</g>
<!-- Node29 -->
<g id="node29" class="node"><title>Node29</title>
<polygon fill="none" stroke="#bfbfbf" points="-0.5,-68.5 -0.5,-87.5 52.5,-87.5 52.5,-68.5 -0.5,-68.5"/>
<text text-anchor="middle" x="26" y="-75.5" font-family="Helvetica,sans-Serif" font-size="10.00">gsl/span</text>
</g>
<!-- Node22&#45;&gt;Node29 -->
<g id="edge30" class="edge"><title>Node22&#45;&gt;Node29</title>
<path fill="none" stroke="midnightblue" d="M385.287,-124.516C283.626,-113.875 117.646,-96.1934 62.8474,-87.7816"/>
<polygon fill="midnightblue" stroke="midnightblue" points="63.0887,-84.2738 52.65,-86.0862 61.9405,-91.179 63.0887,-84.2738"/>
</g>
<!-- Node30 -->
<g id="node30" class="node"><title>Node30</title>
<polygon fill="none" stroke="#bfbfbf" points="71,-68.5 71,-87.5 115,-87.5 115,-68.5 71,-68.5"/>
<text text-anchor="middle" x="93" y="-75.5" font-family="Helvetica,sans-Serif" font-size="10.00">mutex</text>
</g>
<!-- Node22&#45;&gt;Node30 -->
<g id="edge32" class="edge"><title>Node22&#45;&gt;Node30</title>
<path fill="none" stroke="midnightblue" d="M391.536,-124.458C310.94,-115.108 187.411,-100.067 125.073,-87.902"/>
<polygon fill="midnightblue" stroke="midnightblue" points="125.747,-84.4674 115.249,-85.8986 124.348,-91.3262 125.747,-84.4674"/>
</g>
<!-- Node31&#45;&gt;Node32 -->
<g id="edge34" class="edge"><title>Node31&#45;&gt;Node32</title>
<path fill="none" stroke="midnightblue" d="M1450.82,-124.083C1452.27,-116.927 1454.37,-106.635 1456.19,-97.6911"/>
<polygon fill="midnightblue" stroke="midnightblue" points="1459.65,-98.2485 1458.22,-87.7511 1452.79,-96.8512 1459.65,-98.2485"/>
</g>
<!-- Node32&#45;&gt;Node16 -->
<g id="edge35" class="edge"><title>Node32&#45;&gt;Node16</title>
<path fill="none" stroke="midnightblue" d="M1505.94,-68.4909C1546.96,-60.4726 1608.5,-47.4084 1661,-32 1664.13,-31.0821 1667.36,-30.0494 1670.58,-28.9663"/>
<polygon fill="midnightblue" stroke="midnightblue" points="1671.78,-32.2541 1680.05,-25.6304 1669.45,-25.6517 1671.78,-32.2541"/>
</g>
<!-- Node32&#45;&gt;Node18 -->
<g id="edge36" class="edge"><title>Node32&#45;&gt;Node18</title>
<path fill="none" stroke="midnightblue" d="M1489.94,-68.4918C1518.35,-60.1403 1562.07,-46.5661 1599,-32 1600.65,-31.3499 1602.33,-30.6556 1604.02,-29.9354"/>
<polygon fill="midnightblue" stroke="midnightblue" points="1605.88,-32.9396 1613.57,-25.6538 1603.01,-26.5526 1605.88,-32.9396"/>
</g>
</g>
</svg>
