<?xml version="1.0" encoding="UTF-8" standalone="no"?>
<!DOCTYPE svg PUBLIC "-//W3C//DTD SVG 1.1//EN"
 "http://www.w3.org/Graphics/SVG/1.1/DTD/svg11.dtd">
<!-- Generated by graphviz version 2.36.0 (20140111.2315)
 -->
<!-- Title: /home/travis/build/AliceO2Group/AliceO2/Detectors/HMPID/simulation/src/Detector.cxx Pages: 1 -->
<!--zoomable 390 -->
<svg id="main" version="1.1" xmlns="http://www.w3.org/2000/svg" xmlns:xlink="http://www.w3.org/1999/xlink" xml:space="preserve" onload="init(evt)">
<style type="text/css"><![CDATA[
.edge:hover path { stroke: red; }
.edge:hover polygon { stroke: red; fill: red; }
]]></style>
<script type="text/javascript"><![CDATA[
var edges = document.getElementsByTagName('g');
if (edges && edges.length) {
  for (var i=0;i<edges.length;i++) {
    if (edges[i].id.substr(0,4)=='edge') {
      edges[i].setAttribute('class','edge');
    }
  }
}
]]></script>
        <defs>
                <circle id="rim" cx="0" cy="0" r="7"/>
                <circle id="rim2" cx="0" cy="0" r="3.5"/>
                <g id="zoomPlus">
                        <use xlink:href="#rim" fill="#404040">
                                <set attributeName="fill" to="#808080" begin="zoomplus.mouseover" end="zoomplus.mouseout"/>
                        </use>
                        <path d="M-4,0h8M0,-4v8" fill="none" stroke="white" stroke-width="1.5" pointer-events="none"/>
                </g>
                <g id="zoomMin">
                        <use xlink:href="#rim" fill="#404040">
                                <set attributeName="fill" to="#808080" begin="zoomminus.mouseover" end="zoomminus.mouseout"/>
                        </use>
                        <path d="M-4,0h8" fill="none" stroke="white" stroke-width="1.5" pointer-events="none"/>
                </g>
                <g id="dirArrow">
                        <path fill="none" stroke="white" stroke-width="1.5" d="M0,-3.0v7 M-2.5,-0.5L0,-3.0L2.5,-0.5"/>
                </g>
               <g id="resetDef">
                       <use xlink:href="#rim2" fill="#404040">
                               <set attributeName="fill" to="#808080" begin="reset.mouseover" end="reset.mouseout"/>
                       </use>
               </g>
        </defs>

<script type="text/javascript">
var viewWidth = 2632;
var viewHeight = 390;
var sectionId = 'dynsection-0';
</script>
<script xlink:href="../../svgpan.js"/>
<svg id="graph" class="graph">
<g id="viewport">
<title>/home/travis/build/AliceO2Group/AliceO2/Detectors/HMPID/simulation/src/Detector.cxx</title>
<!-- Node1 -->
<g id="node1" class="node"><title>Node1</title>
<polygon fill="#bfbfbf" stroke="black" points="2075,-329 2075,-381 2221,-381 2221,-329 2075,-329"/>
<text text-anchor="start" x="2083" y="-369" font-family="Helvetica,sans-Serif" font-size="10.00">/home/travis/build</text>
<text text-anchor="start" x="2083" y="-358" font-family="Helvetica,sans-Serif" font-size="10.00">/AliceO2Group/AliceO2</text>
<text text-anchor="start" x="2083" y="-347" font-family="Helvetica,sans-Serif" font-size="10.00">/Detectors/HMPID/simulation</text>
<text text-anchor="middle" x="2148" y="-336" font-family="Helvetica,sans-Serif" font-size="10.00">/src/Detector.cxx</text>
</g>
<!-- Node2 -->
<g id="node2" class="node"><title>Node2</title>
<g id="a_node2"><a xlink:href="../../df/d79/HMPID_2simulation_2include_2HMPIDSimulation_2Detector_8h.html" target="_top" xlink:title="../../simulation/include\l/HMPIDSimulation/Detector.h">
<polygon fill="none" stroke="black" points="1140.5,-261 1140.5,-291 1287.5,-291 1287.5,-261 1140.5,-261"/>
<text text-anchor="start" x="1148.5" y="-279" font-family="Helvetica,sans-Serif" font-size="10.00">../../simulation/include</text>
<text text-anchor="middle" x="1214" y="-268" font-family="Helvetica,sans-Serif" font-size="10.00">/HMPIDSimulation/Detector.h</text>
</a>
</g>
</g>
<!-- Node1&#45;&gt;Node2 -->
<g id="edge1" class="edge"><title>Node1&#45;&gt;Node2</title>
<path fill="none" stroke="midnightblue" d="M2074.71,-347.958C1903.56,-333.848 1478.45,-298.801 1297.59,-283.891"/>
<polygon fill="midnightblue" stroke="midnightblue" points="1297.85,-280.401 1287.59,-283.067 1297.27,-287.377 1297.85,-280.401"/>
</g>
<!-- Node10 -->
<g id="node10" class="node"><title>Node10</title>
<g id="a_node10"><a xlink:href="../../d0/d9a/MaterialManager_8h.html" target="_top" xlink:title="DetectorsBase/MaterialManager.h">
<polygon fill="none" stroke="black" points="1949.5,-136.5 1949.5,-155.5 2114.5,-155.5 2114.5,-136.5 1949.5,-136.5"/>
<text text-anchor="middle" x="2032" y="-143.5" font-family="Helvetica,sans-Serif" font-size="10.00">DetectorsBase/MaterialManager.h</text>
</a>
</g>
</g>
<!-- Node1&#45;&gt;Node10 -->
<g id="edge46" class="edge"><title>Node1&#45;&gt;Node10</title>
<path fill="none" stroke="midnightblue" d="M2074.78,-352.804C1976.1,-349.464 1808.31,-337.111 1770,-292 1707.75,-218.713 1872.21,-175.636 1968.28,-157.371"/>
<polygon fill="midnightblue" stroke="midnightblue" points="1969.02,-160.794 1978.21,-155.525 1967.74,-153.912 1969.02,-160.794"/>
</g>
<!-- Node33 -->
<g id="node33" class="node"><title>Node33</title>
<polygon fill="none" stroke="#bfbfbf" points="1779,-266.5 1779,-285.5 1865,-285.5 1865,-266.5 1779,-266.5"/>
<text text-anchor="middle" x="1822" y="-273.5" font-family="Helvetica,sans-Serif" font-size="10.00">TGeoManager.h</text>
</g>
<!-- Node1&#45;&gt;Node33 -->
<g id="edge37" class="edge"><title>Node1&#45;&gt;Node33</title>
<path fill="none" stroke="midnightblue" d="M2074.74,-338.639C2019.4,-326.74 1941.66,-309.399 1874,-292 1869.58,-290.864 1864.97,-289.619 1860.39,-288.347"/>
<polygon fill="midnightblue" stroke="midnightblue" points="1861.1,-284.911 1850.53,-285.553 1859.19,-291.646 1861.1,-284.911"/>
</g>
<!-- Node34 -->
<g id="node34" class="node"><title>Node34</title>
<polygon fill="none" stroke="#bfbfbf" points="1883,-266.5 1883,-285.5 2003,-285.5 2003,-266.5 1883,-266.5"/>
<text text-anchor="middle" x="1943" y="-273.5" font-family="Helvetica,sans-Serif" font-size="10.00">TGeoShapeAssembly.h</text>
</g>
<!-- Node1&#45;&gt;Node34 -->
<g id="edge38" class="edge"><title>Node1&#45;&gt;Node34</title>
<path fill="none" stroke="midnightblue" d="M2081.16,-328.894C2045.62,-315.546 2003.55,-299.745 1975.25,-289.114"/>
<polygon fill="midnightblue" stroke="midnightblue" points="1976.44,-285.822 1965.85,-285.583 1973.98,-292.375 1976.44,-285.822"/>
</g>
<!-- Node35 -->
<g id="node35" class="node"><title>Node35</title>
<polygon fill="none" stroke="#bfbfbf" points="2021,-266.5 2021,-285.5 2093,-285.5 2093,-266.5 2021,-266.5"/>
<text text-anchor="middle" x="2057" y="-273.5" font-family="Helvetica,sans-Serif" font-size="10.00">TGeoNode.h</text>
</g>
<!-- Node1&#45;&gt;Node35 -->
<g id="edge39" class="edge"><title>Node1&#45;&gt;Node35</title>
<path fill="none" stroke="midnightblue" d="M2118.2,-328.787C2103.88,-316.671 2087.2,-302.553 2074.87,-292.121"/>
<polygon fill="midnightblue" stroke="midnightblue" points="2077.01,-289.345 2067.11,-285.558 2072.49,-294.689 2077.01,-289.345"/>
</g>
<!-- Node36 -->
<g id="node36" class="node"><title>Node36</title>
<polygon fill="none" stroke="#bfbfbf" points="2111.5,-266.5 2111.5,-285.5 2184.5,-285.5 2184.5,-266.5 2111.5,-266.5"/>
<text text-anchor="middle" x="2148" y="-273.5" font-family="Helvetica,sans-Serif" font-size="10.00">TGeoBBox.h</text>
</g>
<!-- Node1&#45;&gt;Node36 -->
<g id="edge40" class="edge"><title>Node1&#45;&gt;Node36</title>
<path fill="none" stroke="midnightblue" d="M2148,-328.787C2148,-318.069 2148,-305.785 2148,-295.871"/>
<polygon fill="midnightblue" stroke="midnightblue" points="2151.5,-295.558 2148,-285.558 2144.5,-295.558 2151.5,-295.558"/>
</g>
<!-- Node37 -->
<g id="node37" class="node"><title>Node37</title>
<polygon fill="none" stroke="#bfbfbf" points="2202.5,-266.5 2202.5,-285.5 2269.5,-285.5 2269.5,-266.5 2202.5,-266.5"/>
<text text-anchor="middle" x="2236" y="-273.5" font-family="Helvetica,sans-Serif" font-size="10.00">TGeoXtru.h</text>
</g>
<!-- Node1&#45;&gt;Node37 -->
<g id="edge41" class="edge"><title>Node1&#45;&gt;Node37</title>
<path fill="none" stroke="midnightblue" d="M2176.81,-328.787C2190.53,-316.787 2206.49,-302.825 2218.37,-292.423"/>
<polygon fill="midnightblue" stroke="midnightblue" points="2221,-294.777 2226.22,-285.558 2216.39,-289.509 2221,-294.777"/>
</g>
<!-- Node38 -->
<g id="node38" class="node"><title>Node38</title>
<polygon fill="none" stroke="#bfbfbf" points="2288,-266.5 2288,-285.5 2412,-285.5 2412,-266.5 2288,-266.5"/>
<text text-anchor="middle" x="2350" y="-273.5" font-family="Helvetica,sans-Serif" font-size="10.00">TGeoCompositeShape.h</text>
</g>
<!-- Node1&#45;&gt;Node38 -->
<g id="edge42" class="edge"><title>Node1&#45;&gt;Node38</title>
<path fill="none" stroke="midnightblue" d="M2213.86,-328.894C2248.73,-315.604 2289.97,-299.883 2317.85,-289.254"/>
<polygon fill="midnightblue" stroke="midnightblue" points="2319.39,-292.415 2327.48,-285.583 2316.89,-285.874 2319.39,-292.415"/>
</g>
<!-- Node39 -->
<g id="node39" class="node"><title>Node39</title>
<polygon fill="none" stroke="#bfbfbf" points="2430,-266.5 2430,-285.5 2504,-285.5 2504,-266.5 2430,-266.5"/>
<text text-anchor="middle" x="2467" y="-273.5" font-family="Helvetica,sans-Serif" font-size="10.00">TVirtualMC.h</text>
</g>
<!-- Node1&#45;&gt;Node39 -->
<g id="edge43" class="edge"><title>Node1&#45;&gt;Node39</title>
<path fill="none" stroke="midnightblue" d="M2221.15,-339.087C2276.14,-327.449 2353.19,-310.241 2420,-292 2423.8,-290.964 2427.74,-289.816 2431.66,-288.631"/>
<polygon fill="midnightblue" stroke="midnightblue" points="2432.75,-291.959 2441.26,-285.649 2430.67,-285.275 2432.75,-291.959"/>
</g>
<!-- Node40 -->
<g id="node40" class="node"><title>Node40</title>
<polygon fill="none" stroke="#bfbfbf" points="2522,-266.5 2522,-285.5 2564,-285.5 2564,-266.5 2522,-266.5"/>
<text text-anchor="middle" x="2543" y="-273.5" font-family="Helvetica,sans-Serif" font-size="10.00">TF1.h</text>
</g>
<!-- Node1&#45;&gt;Node40 -->
<g id="edge44" class="edge"><title>Node1&#45;&gt;Node40</title>
<path fill="none" stroke="midnightblue" d="M2221.2,-347.971C2296,-340.337 2414.79,-324.105 2513,-292 2514.91,-291.376 2516.85,-290.647 2518.78,-289.854"/>
<polygon fill="midnightblue" stroke="midnightblue" points="2520.51,-292.91 2528.11,-285.531 2517.56,-286.559 2520.51,-292.91"/>
</g>
<!-- Node41 -->
<g id="node41" class="node"><title>Node41</title>
<polygon fill="none" stroke="#bfbfbf" points="2582,-266.5 2582,-285.5 2624,-285.5 2624,-266.5 2582,-266.5"/>
<text text-anchor="middle" x="2603" y="-273.5" font-family="Helvetica,sans-Serif" font-size="10.00">TF2.h</text>
</g>
<!-- Node1&#45;&gt;Node41 -->
<g id="edge45" class="edge"><title>Node1&#45;&gt;Node41</title>
<path fill="none" stroke="midnightblue" d="M2221.12,-350.091C2306.83,-343.969 2452.35,-328.742 2572,-292 2574.14,-291.344 2576.31,-290.56 2578.46,-289.699"/>
<polygon fill="midnightblue" stroke="midnightblue" points="2579.92,-292.882 2587.61,-285.593 2577.05,-286.496 2579.92,-292.882"/>
</g>
<!-- Node3 -->
<g id="node3" class="node"><title>Node3</title>
<polygon fill="none" stroke="#bfbfbf" points="831,-136.5 831,-155.5 875,-155.5 875,-136.5 831,-136.5"/>
<text text-anchor="middle" x="853" y="-143.5" font-family="Helvetica,sans-Serif" font-size="10.00">vector</text>
</g>
<!-- Node2&#45;&gt;Node3 -->
<g id="edge2" class="edge"><title>Node2&#45;&gt;Node3</title>
<path fill="none" stroke="midnightblue" d="M1174.33,-260.936C1102.18,-235.353 950.84,-181.691 884.874,-158.302"/>
<polygon fill="midnightblue" stroke="midnightblue" points="885.64,-154.86 875.046,-154.817 883.301,-161.457 885.64,-154.86"/>
</g>
<!-- Node4 -->
<g id="node4" class="node"><title>Node4</title>
<g id="a_node4"><a xlink:href="../../d1/d3a/Base_2include_2DetectorsBase_2Detector_8h.html" target="_top" xlink:title="DetectorsBase/Detector.h">
<polygon fill="none" stroke="black" points="1310.5,-198.5 1310.5,-217.5 1441.5,-217.5 1441.5,-198.5 1310.5,-198.5"/>
<text text-anchor="middle" x="1376" y="-205.5" font-family="Helvetica,sans-Serif" font-size="10.00">DetectorsBase/Detector.h</text>
</a>
</g>
</g>
<!-- Node2&#45;&gt;Node4 -->
<g id="edge3" class="edge"><title>Node2&#45;&gt;Node4</title>
<path fill="none" stroke="midnightblue" d="M1248.75,-260.841C1277.4,-249.169 1317.66,-232.768 1345.17,-221.558"/>
<polygon fill="midnightblue" stroke="midnightblue" points="1346.75,-224.696 1354.69,-217.682 1344.11,-218.214 1346.75,-224.696"/>
</g>
<!-- Node21 -->
<g id="node21" class="node"><title>Node21</title>
<g id="a_node21"><a xlink:href="../../d4/d25/BaseHits_8h.html" target="_top" xlink:title="SimulationDataFormat\l/BaseHits.h">
<polygon fill="none" stroke="black" points="806,-193 806,-223 920,-223 920,-193 806,-193"/>
<text text-anchor="start" x="814" y="-211" font-family="Helvetica,sans-Serif" font-size="10.00">SimulationDataFormat</text>
<text text-anchor="middle" x="863" y="-200" font-family="Helvetica,sans-Serif" font-size="10.00">/BaseHits.h</text>
</a>
</g>
</g>
<!-- Node2&#45;&gt;Node21 -->
<g id="edge24" class="edge"><title>Node2&#45;&gt;Node21</title>
<path fill="none" stroke="midnightblue" d="M1140.42,-261.164C1078.37,-249.498 990.321,-232.941 930.163,-221.629"/>
<polygon fill="midnightblue" stroke="midnightblue" points="930.487,-218.129 920.013,-219.72 929.194,-225.008 930.487,-218.129"/>
</g>
<!-- Node4&#45;&gt;Node3 -->
<g id="edge5" class="edge"><title>Node4&#45;&gt;Node3</title>
<path fill="none" stroke="midnightblue" d="M1310.09,-201.257C1196.46,-191.161 968.218,-169.979 889,-156 887.751,-155.78 886.481,-155.54 885.201,-155.285"/>
<polygon fill="midnightblue" stroke="midnightblue" points="885.884,-151.852 875.364,-153.108 884.371,-158.686 885.884,-151.852"/>
</g>
<!-- Node5 -->
<g id="node5" class="node"><title>Node5</title>
<polygon fill="none" stroke="#bfbfbf" points="2108.5,-74.5 2108.5,-93.5 2143.5,-93.5 2143.5,-74.5 2108.5,-74.5"/>
<text text-anchor="middle" x="2126" y="-81.5" font-family="Helvetica,sans-Serif" font-size="10.00">map</text>
</g>
<!-- Node4&#45;&gt;Node5 -->
<g id="edge4" class="edge"><title>Node4&#45;&gt;Node5</title>
<path fill="none" stroke="midnightblue" d="M1441.52,-207.403C1614.96,-207.802 2075.97,-204.267 2123,-156 2136.15,-142.503 2134.68,-119.835 2131.35,-103.745"/>
<polygon fill="midnightblue" stroke="midnightblue" points="2134.7,-102.72 2128.9,-93.851 2127.9,-104.399 2134.7,-102.72"/>
</g>
<!-- Node6 -->
<g id="node6" class="node"><title>Node6</title>
<polygon fill="none" stroke="#bfbfbf" points="1808.5,-74.5 1808.5,-93.5 1881.5,-93.5 1881.5,-74.5 1808.5,-74.5"/>
<text text-anchor="middle" x="1845" y="-81.5" font-family="Helvetica,sans-Serif" font-size="10.00">initializer_list</text>
</g>
<!-- Node4&#45;&gt;Node6 -->
<g id="edge6" class="edge"><title>Node4&#45;&gt;Node6</title>
<path fill="none" stroke="midnightblue" d="M1441.73,-205.95C1515.14,-202.901 1636.44,-192.197 1734,-156 1752.88,-148.994 1798.31,-118.032 1824.83,-99.386"/>
<polygon fill="midnightblue" stroke="midnightblue" points="1826.88,-102.218 1833.03,-93.5871 1822.84,-96.5019 1826.88,-102.218"/>
</g>
<!-- Node7 -->
<g id="node7" class="node"><title>Node7</title>
<polygon fill="none" stroke="#bfbfbf" points="1782,-136.5 1782,-155.5 1834,-155.5 1834,-136.5 1782,-136.5"/>
<text text-anchor="middle" x="1808" y="-143.5" font-family="Helvetica,sans-Serif" font-size="10.00">memory</text>
</g>
<!-- Node4&#45;&gt;Node7 -->
<g id="edge7" class="edge"><title>Node4&#45;&gt;Node7</title>
<path fill="none" stroke="midnightblue" d="M1441.83,-200.306C1519.94,-191.932 1653.96,-176.203 1768,-156 1769.26,-155.776 1770.54,-155.54 1771.84,-155.293"/>
<polygon fill="midnightblue" stroke="midnightblue" points="1772.72,-158.684 1781.82,-153.253 1771.32,-151.826 1772.72,-158.684"/>
</g>
<!-- Node8 -->
<g id="node8" class="node"><title>Node8</title>
<polygon fill="none" stroke="#bfbfbf" points="1852.5,-136.5 1852.5,-155.5 1931.5,-155.5 1931.5,-136.5 1852.5,-136.5"/>
<text text-anchor="middle" x="1892" y="-143.5" font-family="Helvetica,sans-Serif" font-size="10.00">FairDetector.h</text>
</g>
<!-- Node4&#45;&gt;Node8 -->
<g id="edge8" class="edge"><title>Node4&#45;&gt;Node8</title>
<path fill="none" stroke="midnightblue" d="M1441.55,-201.361C1530.04,-193.409 1692.84,-177.591 1842.19,-156.014"/>
<polygon fill="midnightblue" stroke="midnightblue" points="1843.07,-159.423 1852.46,-154.518 1842.06,-152.496 1843.07,-159.423"/>
</g>
<!-- Node9 -->
<g id="node9" class="node"><title>Node9</title>
<polygon fill="none" stroke="#bfbfbf" points="931,-136.5 931,-155.5 1031,-155.5 1031,-136.5 931,-136.5"/>
<text text-anchor="middle" x="981" y="-143.5" font-family="Helvetica,sans-Serif" font-size="10.00">FairRootManager.h</text>
</g>
<!-- Node4&#45;&gt;Node9 -->
<g id="edge9" class="edge"><title>Node4&#45;&gt;Node9</title>
<path fill="none" stroke="midnightblue" d="M1319.82,-198.485C1255.18,-188.686 1145.55,-172.058 1041.28,-156.194"/>
<polygon fill="midnightblue" stroke="midnightblue" points="1041.62,-152.706 1031.21,-154.662 1040.57,-159.626 1041.62,-152.706"/>
</g>
<!-- Node4&#45;&gt;Node10 -->
<g id="edge10" class="edge"><title>Node4&#45;&gt;Node10</title>
<path fill="none" stroke="midnightblue" d="M1441.58,-201.227C1544.9,-192.097 1752.2,-173.639 1939.23,-156.066"/>
<polygon fill="midnightblue" stroke="midnightblue" points="1939.62,-159.545 1949.25,-155.124 1938.97,-152.576 1939.62,-159.545"/>
</g>
<!-- Node11 -->
<g id="node11" class="node"><title>Node11</title>
<polygon fill="none" stroke="#bfbfbf" points="1183,-74.5 1183,-93.5 1239,-93.5 1239,-74.5 1183,-74.5"/>
<text text-anchor="middle" x="1211" y="-81.5" font-family="Helvetica,sans-Serif" font-size="10.00">Rtypes.h</text>
</g>
<!-- Node4&#45;&gt;Node11 -->
<g id="edge15" class="edge"><title>Node4&#45;&gt;Node11</title>
<path fill="none" stroke="midnightblue" d="M1310.32,-201.922C1187.62,-192.121 934.786,-170.303 922,-156 916.076,-149.373 916.178,-142.717 922,-136 958.908,-93.421 1118.53,-114.443 1173,-100 1176.06,-99.1899 1179.2,-98.2073 1182.31,-97.1368"/>
<polygon fill="midnightblue" stroke="midnightblue" points="1183.82,-100.306 1191.96,-93.5214 1181.37,-93.7503 1183.82,-100.306"/>
</g>
<!-- Node13 -->
<g id="node13" class="node"><title>Node13</title>
<polygon fill="none" stroke="#bfbfbf" points="1049.5,-136.5 1049.5,-155.5 1102.5,-155.5 1102.5,-136.5 1049.5,-136.5"/>
<text text-anchor="middle" x="1076" y="-143.5" font-family="Helvetica,sans-Serif" font-size="10.00">cxxabi.h</text>
</g>
<!-- Node4&#45;&gt;Node13 -->
<g id="edge16" class="edge"><title>Node4&#45;&gt;Node13</title>
<path fill="none" stroke="midnightblue" d="M1326.97,-198.497C1275.72,-189.401 1192.77,-174.091 1112.49,-156.239"/>
<polygon fill="midnightblue" stroke="midnightblue" points="1113.24,-152.82 1102.71,-154.049 1111.71,-159.651 1113.24,-152.82"/>
</g>
<!-- Node14 -->
<g id="node14" class="node"><title>Node14</title>
<polygon fill="none" stroke="#bfbfbf" points="1120.5,-136.5 1120.5,-155.5 1171.5,-155.5 1171.5,-136.5 1120.5,-136.5"/>
<text text-anchor="middle" x="1146" y="-143.5" font-family="Helvetica,sans-Serif" font-size="10.00">typeinfo</text>
</g>
<!-- Node4&#45;&gt;Node14 -->
<g id="edge17" class="edge"><title>Node4&#45;&gt;Node14</title>
<path fill="none" stroke="midnightblue" d="M1343.05,-198.403C1300.18,-187.22 1225.57,-167.758 1181.49,-156.259"/>
<polygon fill="midnightblue" stroke="midnightblue" points="1182.34,-152.862 1171.78,-153.724 1180.57,-159.635 1182.34,-152.862"/>
</g>
<!-- Node15 -->
<g id="node15" class="node"><title>Node15</title>
<polygon fill="none" stroke="#bfbfbf" points="1190,-136.5 1190,-155.5 1252,-155.5 1252,-136.5 1190,-136.5"/>
<text text-anchor="middle" x="1221" y="-143.5" font-family="Helvetica,sans-Serif" font-size="10.00">type_traits</text>
</g>
<!-- Node4&#45;&gt;Node15 -->
<g id="edge18" class="edge"><title>Node4&#45;&gt;Node15</title>
<path fill="none" stroke="midnightblue" d="M1353.79,-198.403C1327.32,-188.156 1282.89,-170.956 1252.78,-159.302"/>
<polygon fill="midnightblue" stroke="midnightblue" points="1253.76,-155.927 1243.17,-155.581 1251.23,-162.455 1253.76,-155.927"/>
</g>
<!-- Node16 -->
<g id="node16" class="node"><title>Node16</title>
<polygon fill="none" stroke="#bfbfbf" points="1270.5,-136.5 1270.5,-155.5 1311.5,-155.5 1311.5,-136.5 1270.5,-136.5"/>
<text text-anchor="middle" x="1291" y="-143.5" font-family="Helvetica,sans-Serif" font-size="10.00">string</text>
</g>
<!-- Node4&#45;&gt;Node16 -->
<g id="edge19" class="edge"><title>Node4&#45;&gt;Node16</title>
<path fill="none" stroke="midnightblue" d="M1363.82,-198.403C1350.19,-188.78 1327.87,-173.024 1311.53,-161.489"/>
<polygon fill="midnightblue" stroke="midnightblue" points="1313.34,-158.488 1303.16,-155.581 1309.31,-164.207 1313.34,-158.488"/>
</g>
<!-- Node17 -->
<g id="node17" class="node"><title>Node17</title>
<polygon fill="none" stroke="#bfbfbf" points="1329.5,-136.5 1329.5,-155.5 1422.5,-155.5 1422.5,-136.5 1329.5,-136.5"/>
<text text-anchor="middle" x="1376" y="-143.5" font-family="Helvetica,sans-Serif" font-size="10.00">FairMQChannel.h</text>
</g>
<!-- Node4&#45;&gt;Node17 -->
<g id="edge20" class="edge"><title>Node4&#45;&gt;Node17</title>
<path fill="none" stroke="midnightblue" d="M1376,-198.403C1376,-189.938 1376,-176.728 1376,-165.82"/>
<polygon fill="midnightblue" stroke="midnightblue" points="1379.5,-165.581 1376,-155.581 1372.5,-165.581 1379.5,-165.581"/>
</g>
<!-- Node18 -->
<g id="node18" class="node"><title>Node18</title>
<polygon fill="none" stroke="#bfbfbf" points="1440.5,-136.5 1440.5,-155.5 1537.5,-155.5 1537.5,-136.5 1440.5,-136.5"/>
<text text-anchor="middle" x="1489" y="-143.5" font-family="Helvetica,sans-Serif" font-size="10.00">FairMQMessage.h</text>
</g>
<!-- Node4&#45;&gt;Node18 -->
<g id="edge21" class="edge"><title>Node4&#45;&gt;Node18</title>
<path fill="none" stroke="midnightblue" d="M1392.19,-198.403C1410.9,-188.468 1441.92,-171.997 1463.8,-160.381"/>
<polygon fill="midnightblue" stroke="midnightblue" points="1465.65,-163.362 1472.84,-155.581 1462.37,-157.179 1465.65,-163.362"/>
</g>
<!-- Node19 -->
<g id="node19" class="node"><title>Node19</title>
<polygon fill="none" stroke="#bfbfbf" points="1556,-136.5 1556,-155.5 1636,-155.5 1636,-136.5 1556,-136.5"/>
<text text-anchor="middle" x="1596" y="-143.5" font-family="Helvetica,sans-Serif" font-size="10.00">FairMQParts.h</text>
</g>
<!-- Node4&#45;&gt;Node19 -->
<g id="edge22" class="edge"><title>Node4&#45;&gt;Node19</title>
<path fill="none" stroke="midnightblue" d="M1407.52,-198.403C1446.24,-187.844 1512.02,-169.903 1554.74,-158.254"/>
<polygon fill="midnightblue" stroke="midnightblue" points="1555.81,-161.589 1564.54,-155.581 1553.97,-154.835 1555.81,-161.589"/>
</g>
<!-- Node20 -->
<g id="node20" class="node"><title>Node20</title>
<polygon fill="none" stroke="#bfbfbf" points="1654.5,-136.5 1654.5,-155.5 1725.5,-155.5 1725.5,-136.5 1654.5,-136.5"/>
<text text-anchor="middle" x="1690" y="-143.5" font-family="Helvetica,sans-Serif" font-size="10.00">TMessage.h</text>
</g>
<!-- Node4&#45;&gt;Node20 -->
<g id="edge23" class="edge"><title>Node4&#45;&gt;Node20</title>
<path fill="none" stroke="midnightblue" d="M1421.72,-198.476C1473.22,-188.842 1559.71,-172.567 1644.13,-156.154"/>
<polygon fill="midnightblue" stroke="midnightblue" points="1645,-159.551 1654.15,-154.205 1643.66,-152.68 1645,-159.551"/>
</g>
<!-- Node10&#45;&gt;Node5 -->
<g id="edge12" class="edge"><title>Node10&#45;&gt;Node5</title>
<path fill="none" stroke="midnightblue" d="M2045.47,-136.403C2060.68,-126.691 2085.69,-110.732 2103.8,-99.1697"/>
<polygon fill="midnightblue" stroke="midnightblue" points="2106.01,-101.911 2112.56,-93.5806 2102.24,-96.0108 2106.01,-101.911"/>
</g>
<!-- Node10&#45;&gt;Node6 -->
<g id="edge14" class="edge"><title>Node10&#45;&gt;Node6</title>
<path fill="none" stroke="midnightblue" d="M2005.21,-136.403C1972.71,-125.978 1917.79,-108.356 1881.46,-96.6992"/>
<polygon fill="midnightblue" stroke="midnightblue" points="1882.33,-93.3031 1871.74,-93.5806 1880.2,-99.9685 1882.33,-93.3031"/>
</g>
<!-- Node10&#45;&gt;Node11 -->
<g id="edge11" class="edge"><title>Node10&#45;&gt;Node11</title>
<path fill="none" stroke="midnightblue" d="M1949.26,-136.797C1946.13,-136.521 1943.04,-136.255 1940,-136 1676.02,-113.859 1357.7,-93.9083 1249.29,-87.304"/>
<polygon fill="midnightblue" stroke="midnightblue" points="1249.36,-83.802 1239.17,-86.689 1248.94,-90.7891 1249.36,-83.802"/>
</g>
<!-- Node12 -->
<g id="node12" class="node"><title>Node12</title>
<polygon fill="none" stroke="#bfbfbf" points="1990.5,-74.5 1990.5,-93.5 2073.5,-93.5 2073.5,-74.5 1990.5,-74.5"/>
<text text-anchor="middle" x="2032" y="-81.5" font-family="Helvetica,sans-Serif" font-size="10.00">unordered_map</text>
</g>
<!-- Node10&#45;&gt;Node12 -->
<g id="edge13" class="edge"><title>Node10&#45;&gt;Node12</title>
<path fill="none" stroke="midnightblue" d="M2032,-136.403C2032,-127.938 2032,-114.728 2032,-103.82"/>
<polygon fill="midnightblue" stroke="midnightblue" points="2035.5,-103.581 2032,-93.5806 2028.5,-103.581 2035.5,-103.581"/>
</g>
<!-- Node22 -->
<g id="node22" class="node"><title>Node22</title>
<g id="a_node22"><a xlink:href="../../dd/d76/Cartesian3D_8h.html" target="_top" xlink:title="MathUtils/Cartesian3D.h">
<polygon fill="none" stroke="black" points="688.5,-136.5 688.5,-155.5 813.5,-155.5 813.5,-136.5 688.5,-136.5"/>
<text text-anchor="middle" x="751" y="-143.5" font-family="Helvetica,sans-Serif" font-size="10.00">MathUtils/Cartesian3D.h</text>
</a>
</g>
</g>
<!-- Node21&#45;&gt;Node22 -->
<g id="edge25" class="edge"><title>Node21&#45;&gt;Node22</title>
<path fill="none" stroke="midnightblue" d="M836.741,-192.933C818.52,-183.171 794.382,-170.24 776.36,-160.586"/>
<polygon fill="midnightblue" stroke="midnightblue" points="777.521,-157.237 767.053,-155.6 774.215,-163.407 777.521,-157.237"/>
</g>
<!-- Node22&#45;&gt;Node11 -->
<g id="edge31" class="edge"><title>Node22&#45;&gt;Node11</title>
<path fill="none" stroke="midnightblue" d="M813.71,-136.968C816.511,-136.636 819.284,-136.311 822,-136 977.798,-118.138 1020.64,-137.137 1173,-100 1176.24,-99.2106 1179.57,-98.2054 1182.85,-97.0904"/>
<polygon fill="midnightblue" stroke="midnightblue" points="1184.25,-100.303 1192.39,-93.5213 1181.8,-93.7468 1184.25,-100.303"/>
</g>
<!-- Node23 -->
<g id="node23" class="node"><title>Node23</title>
<polygon fill="none" stroke="#bfbfbf" points="1013.5,-69 1013.5,-99 1164.5,-99 1164.5,-69 1013.5,-69"/>
<text text-anchor="start" x="1021.5" y="-87" font-family="Helvetica,sans-Serif" font-size="10.00">Math/GenVector/Displacement</text>
<text text-anchor="middle" x="1089" y="-76" font-family="Helvetica,sans-Serif" font-size="10.00">Vector3D.h</text>
</g>
<!-- Node22&#45;&gt;Node23 -->
<g id="edge26" class="edge"><title>Node22&#45;&gt;Node23</title>
<path fill="none" stroke="midnightblue" d="M799.068,-136.467C852.093,-127.054 938.473,-111.721 1003.18,-100.234"/>
<polygon fill="midnightblue" stroke="midnightblue" points="1004.14,-103.619 1013.37,-98.4254 1002.91,-96.7272 1004.14,-103.619"/>
</g>
<!-- Node24 -->
<g id="node24" class="node"><title>Node24</title>
<polygon fill="none" stroke="#bfbfbf" points="0,-74.5 0,-93.5 176,-93.5 176,-74.5 0,-74.5"/>
<text text-anchor="middle" x="88" y="-81.5" font-family="Helvetica,sans-Serif" font-size="10.00">Math/GenVector/PositionVector3D.h</text>
</g>
<!-- Node22&#45;&gt;Node24 -->
<g id="edge27" class="edge"><title>Node22&#45;&gt;Node24</title>
<path fill="none" stroke="midnightblue" d="M688.341,-141.584C583.654,-135.528 366.657,-121.487 184,-100 172.22,-98.6143 159.669,-96.8582 147.66,-95.0397"/>
<polygon fill="midnightblue" stroke="midnightblue" points="148.145,-91.5733 137.727,-93.5043 147.075,-98.4911 148.145,-91.5733"/>
</g>
<!-- Node25 -->
<g id="node25" class="node"><title>Node25</title>
<polygon fill="none" stroke="#bfbfbf" points="193.5,-74.5 193.5,-93.5 342.5,-93.5 342.5,-74.5 193.5,-74.5"/>
<text text-anchor="middle" x="268" y="-81.5" font-family="Helvetica,sans-Serif" font-size="10.00">Math/GenVector/Rotation3D.h</text>
</g>
<!-- Node22&#45;&gt;Node25 -->
<g id="edge28" class="edge"><title>Node22&#45;&gt;Node25</title>
<path fill="none" stroke="midnightblue" d="M688.296,-139.189C609.575,-131.603 470.479,-117.241 352,-100 342.534,-98.6225 332.5,-96.9856 322.785,-95.3078"/>
<polygon fill="midnightblue" stroke="midnightblue" points="323.27,-91.8395 312.815,-93.5537 322.057,-98.7336 323.27,-91.8395"/>
</g>
<!-- Node26 -->
<g id="node26" class="node"><title>Node26</title>
<polygon fill="none" stroke="#bfbfbf" points="361,-74.5 361,-93.5 517,-93.5 517,-74.5 361,-74.5"/>
<text text-anchor="middle" x="439" y="-81.5" font-family="Helvetica,sans-Serif" font-size="10.00">Math/GenVector/Transform3D.h</text>
</g>
<!-- Node22&#45;&gt;Node26 -->
<g id="edge29" class="edge"><title>Node22&#45;&gt;Node26</title>
<path fill="none" stroke="midnightblue" d="M706.629,-136.467C650.489,-125.671 553.845,-107.086 493.341,-95.4501"/>
<polygon fill="midnightblue" stroke="midnightblue" points="493.699,-91.9549 483.218,-93.5034 492.377,-98.829 493.699,-91.9549"/>
</g>
<!-- Node27 -->
<g id="node27" class="node"><title>Node27</title>
<polygon fill="none" stroke="#bfbfbf" points="535,-74.5 535,-93.5 695,-93.5 695,-74.5 535,-74.5"/>
<text text-anchor="middle" x="615" y="-81.5" font-family="Helvetica,sans-Serif" font-size="10.00">Math/GenVector/Translation3D.h</text>
</g>
<!-- Node22&#45;&gt;Node27 -->
<g id="edge30" class="edge"><title>Node22&#45;&gt;Node27</title>
<path fill="none" stroke="midnightblue" d="M731.515,-136.403C708.59,-126.29 670.315,-109.404 643.925,-97.761"/>
<polygon fill="midnightblue" stroke="midnightblue" points="645.011,-94.4148 634.449,-93.5806 642.186,-100.819 645.011,-94.4148"/>
</g>
<!-- Node28 -->
<g id="node28" class="node"><title>Node28</title>
<polygon fill="none" stroke="#bfbfbf" points="713,-74.5 713,-93.5 789,-93.5 789,-74.5 713,-74.5"/>
<text text-anchor="middle" x="751" y="-81.5" font-family="Helvetica,sans-Serif" font-size="10.00">TGeoMatrix.h</text>
</g>
<!-- Node22&#45;&gt;Node28 -->
<g id="edge32" class="edge"><title>Node22&#45;&gt;Node28</title>
<path fill="none" stroke="midnightblue" d="M751,-136.403C751,-127.938 751,-114.728 751,-103.82"/>
<polygon fill="midnightblue" stroke="midnightblue" points="754.5,-103.581 751,-93.5806 747.5,-103.581 754.5,-103.581"/>
</g>
<!-- Node29 -->
<g id="node29" class="node"><title>Node29</title>
<polygon fill="none" stroke="#bfbfbf" points="807.5,-74.5 807.5,-93.5 852.5,-93.5 852.5,-74.5 807.5,-74.5"/>
<text text-anchor="middle" x="830" y="-81.5" font-family="Helvetica,sans-Serif" font-size="10.00">iosfwd</text>
</g>
<!-- Node22&#45;&gt;Node29 -->
<g id="edge33" class="edge"><title>Node22&#45;&gt;Node29</title>
<path fill="none" stroke="midnightblue" d="M762.319,-136.403C774.873,-126.869 795.351,-111.315 810.499,-99.8106"/>
<polygon fill="midnightblue" stroke="midnightblue" points="812.856,-102.416 818.702,-93.5806 808.622,-96.8417 812.856,-102.416"/>
</g>
<!-- Node30 -->
<g id="node30" class="node"><title>Node30</title>
<g id="a_node30"><a xlink:href="../../d2/dd0/Cartesian2D_8h.html" target="_top" xlink:title="MathUtils/Cartesian2D.h">
<polygon fill="none" stroke="black" points="870.5,-74.5 870.5,-93.5 995.5,-93.5 995.5,-74.5 870.5,-74.5"/>
<text text-anchor="middle" x="933" y="-81.5" font-family="Helvetica,sans-Serif" font-size="10.00">MathUtils/Cartesian2D.h</text>
</a>
</g>
</g>
<!-- Node22&#45;&gt;Node30 -->
<g id="edge34" class="edge"><title>Node22&#45;&gt;Node30</title>
<path fill="none" stroke="midnightblue" d="M777.076,-136.403C808.566,-126.022 861.698,-108.506 897.058,-96.849"/>
<polygon fill="midnightblue" stroke="midnightblue" points="898.571,-100.036 906.972,-93.5806 896.379,-93.3876 898.571,-100.036"/>
</g>
<!-- Node31 -->
<g id="node31" class="node"><title>Node31</title>
<polygon fill="none" stroke="#bfbfbf" points="766.5,-1 766.5,-31 917.5,-31 917.5,-1 766.5,-1"/>
<text text-anchor="start" x="774.5" y="-19" font-family="Helvetica,sans-Serif" font-size="10.00">Math/GenVector/Displacement</text>
<text text-anchor="middle" x="842" y="-8" font-family="Helvetica,sans-Serif" font-size="10.00">Vector2D.h</text>
</g>
<!-- Node30&#45;&gt;Node31 -->
<g id="edge35" class="edge"><title>Node30&#45;&gt;Node31</title>
<path fill="none" stroke="midnightblue" d="M921.103,-74.3717C908.221,-65.0286 887.22,-49.7966 870.093,-37.375"/>
<polygon fill="midnightblue" stroke="midnightblue" points="871.703,-34.2194 861.553,-31.1815 867.593,-39.8859 871.703,-34.2194"/>
</g>
<!-- Node32 -->
<g id="node32" class="node"><title>Node32</title>
<polygon fill="none" stroke="#bfbfbf" points="936,-6.5 936,-25.5 1112,-25.5 1112,-6.5 936,-6.5"/>
<text text-anchor="middle" x="1024" y="-13.5" font-family="Helvetica,sans-Serif" font-size="10.00">Math/GenVector/PositionVector2D.h</text>
</g>
<!-- Node30&#45;&gt;Node32 -->
<g id="edge36" class="edge"><title>Node30&#45;&gt;Node32</title>
<path fill="none" stroke="midnightblue" d="M944.897,-74.3717C959.884,-63.5015 985.862,-44.6602 1003.94,-31.5474"/>
<polygon fill="midnightblue" stroke="midnightblue" points="1006.06,-34.3349 1012.1,-25.6305 1001.95,-28.6684 1006.06,-34.3349"/>
</g>
</g>
</svg>
        <g id="navigator" transform="translate(0 0)" fill="#404254">
                <rect fill="#f2f5e9" fill-opacity="0.5" stroke="#606060" stroke-width=".5" x="0" y="0" width="60" height="60"/>
                <use id="zoomplus" xlink:href="#zoomPlus" x="17" y="9" onmousedown="handleZoom(evt,'in')"/>
                <use id="zoomminus" xlink:href="#zoomMin" x="42" y="9" onmousedown="handleZoom(evt,'out')"/>
                <use id="reset" xlink:href="#resetDef" x="30" y="36" onmousedown="handleReset()"/>
                <g id="arrowUp" xlink:href="#dirArrow" transform="translate(30 24)" onmousedown="handlePan(0,-1)">
                  <use xlink:href="#rim" fill="#404040">
                        <set attributeName="fill" to="#808080" begin="arrowUp.mouseover" end="arrowUp.mouseout"/>
                  </use>
                  <path fill="none" stroke="white" stroke-width="1.5" d="M0,-3.0v7 M-2.5,-0.5L0,-3.0L2.5,-0.5"/>
                </g>
                <g id="arrowRight" xlink:href="#dirArrow" transform="rotate(90) translate(36 -43)" onmousedown="handlePan(1,0)">
                  <use xlink:href="#rim" fill="#404040">
                        <set attributeName="fill" to="#808080" begin="arrowRight.mouseover" end="arrowRight.mouseout"/>
                  </use>
                  <path fill="none" stroke="white" stroke-width="1.5" d="M0,-3.0v7 M-2.5,-0.5L0,-3.0L2.5,-0.5"/>
                </g>
                <g id="arrowDown" xlink:href="#dirArrow" transform="rotate(180) translate(-30 -48)" onmousedown="handlePan(0,1)">
                  <use xlink:href="#rim" fill="#404040">
                        <set attributeName="fill" to="#808080" begin="arrowDown.mouseover" end="arrowDown.mouseout"/>
                  </use>
                  <path fill="none" stroke="white" stroke-width="1.5" d="M0,-3.0v7 M-2.5,-0.5L0,-3.0L2.5,-0.5"/>
                </g>
                <g id="arrowLeft" xlink:href="#dirArrow" transform="rotate(270) translate(-36 17)" onmousedown="handlePan(-1,0)">
                  <use xlink:href="#rim" fill="#404040">
                        <set attributeName="fill" to="#808080" begin="arrowLeft.mouseover" end="arrowLeft.mouseout"/>
                  </use>
                  <path fill="none" stroke="white" stroke-width="1.5" d="M0,-3.0v7 M-2.5,-0.5L0,-3.0L2.5,-0.5"/>
                </g>
        </g>
        <svg viewBox="0 0 15 15" width="100%" height="30px" preserveAspectRatio="xMaxYMin meet">
         <g id="arrow_out" transform="scale(0.3 0.3)">
          <a xlink:href="HMPID_2simulation_2src_2Detector_8cxx__incl_org.svg" target="_base">
           <rect id="button" ry="5" rx="5" y="6" x="6" height="38" width="38"
                fill="#f2f5e9" fill-opacity="0.5" stroke="#606060" stroke-width="1.0"/>
           <path id="arrow"
             d="M 11.500037,31.436501 C 11.940474,20.09759 22.043105,11.32322 32.158766,21.979434 L 37.068811,17.246167 C 37.068811,17.246167 37.088388,32 37.088388,32 L 22.160133,31.978069 C 22.160133,31.978069 26.997745,27.140456 26.997745,27.140456 C 18.528582,18.264221 13.291696,25.230495 11.500037,31.436501 z"
             style="fill:#404040;"/>
          </a>
         </g>
        </svg>
</svg>
