<?xml version="1.0" encoding="UTF-8" standalone="no"?>
<!DOCTYPE svg PUBLIC "-//W3C//DTD SVG 1.1//EN"
 "http://www.w3.org/Graphics/SVG/1.1/DTD/svg11.dtd">
<!-- Generated by graphviz version 2.36.0 (20140111.2315)
 -->
<!-- Title: /home/travis/build/AliceO2Group/AliceO2/Detectors/ITSMFT/common/reconstruction/include/ITSMFTReconstruction/PixelData.h Pages: 1 -->
<svg width="687pt" height="462pt"
 viewBox="0.00 0.00 687.00 462.00" xmlns="http://www.w3.org/2000/svg" xmlns:xlink="http://www.w3.org/1999/xlink">
<g id="graph0" class="graph" transform="scale(1 1) rotate(0) translate(4 458)">
<title>/home/travis/build/AliceO2Group/AliceO2/Detectors/ITSMFT/common/reconstruction/include/ITSMFTReconstruction/PixelData.h</title>
<!-- Node1 -->
<g id="node1" class="node"><title>Node1</title>
<polygon fill="#bfbfbf" stroke="black" points="297,-390.5 297,-453.5 473,-453.5 473,-390.5 297,-390.5"/>
<text text-anchor="start" x="305" y="-441.5" font-family="Helvetica,sans-Serif" font-size="10.00">/home/travis/build</text>
<text text-anchor="start" x="305" y="-430.5" font-family="Helvetica,sans-Serif" font-size="10.00">/AliceO2Group/AliceO2</text>
<text text-anchor="start" x="305" y="-419.5" font-family="Helvetica,sans-Serif" font-size="10.00">/Detectors/ITSMFT/common</text>
<text text-anchor="start" x="305" y="-408.5" font-family="Helvetica,sans-Serif" font-size="10.00">/reconstruction/include</text>
<text text-anchor="middle" x="385" y="-397.5" font-family="Helvetica,sans-Serif" font-size="10.00">/ITSMFTReconstruction/PixelData.h</text>
</g>
<!-- Node2 -->
<g id="node2" class="node"><title>Node2</title>
<g id="a_node2"><a xlink:href="../../d6/d04/ITSMFT_2common_2reconstruction_2include_2ITSMFTReconstruction_2Clusterer_8h.html" target="_top" xlink:title="/home/travis/build\l/AliceO2Group/AliceO2\l/Detectors/ITSMFT/common\l/reconstruction/include\l/ITSMFTReconstruction/Clusterer.h">
<polygon fill="none" stroke="black" points="177.5,-190.5 177.5,-253.5 350.5,-253.5 350.5,-190.5 177.5,-190.5"/>
<text text-anchor="start" x="185.5" y="-241.5" font-family="Helvetica,sans-Serif" font-size="10.00">/home/travis/build</text>
<text text-anchor="start" x="185.5" y="-230.5" font-family="Helvetica,sans-Serif" font-size="10.00">/AliceO2Group/AliceO2</text>
<text text-anchor="start" x="185.5" y="-219.5" font-family="Helvetica,sans-Serif" font-size="10.00">/Detectors/ITSMFT/common</text>
<text text-anchor="start" x="185.5" y="-208.5" font-family="Helvetica,sans-Serif" font-size="10.00">/reconstruction/include</text>
<text text-anchor="middle" x="264" y="-197.5" font-family="Helvetica,sans-Serif" font-size="10.00">/ITSMFTReconstruction/Clusterer.h</text>
</a>
</g>
</g>
<!-- Node1&#45;&gt;Node2 -->
<g id="edge1" class="edge"><title>Node1&#45;&gt;Node2</title>
<path fill="none" stroke="midnightblue" d="M312.036,-384.394C300.793,-375.835 290.461,-365.722 283,-354 263.75,-323.756 260.905,-281.727 261.621,-253.506"/>
<polygon fill="midnightblue" stroke="midnightblue" points="310.188,-387.376 320.356,-390.353 314.264,-381.685 310.188,-387.376"/>
</g>
<!-- Node10 -->
<g id="node10" class="node"><title>Node10</title>
<g id="a_node10"><a xlink:href="../../df/d2e/PixelReader_8h.html" target="_top" xlink:title="Definition of the ITS pixel reader. ">
<polygon fill="none" stroke="black" points="292,-290.5 292,-353.5 478,-353.5 478,-290.5 292,-290.5"/>
<text text-anchor="start" x="300" y="-341.5" font-family="Helvetica,sans-Serif" font-size="10.00">/home/travis/build</text>
<text text-anchor="start" x="300" y="-330.5" font-family="Helvetica,sans-Serif" font-size="10.00">/AliceO2Group/AliceO2</text>
<text text-anchor="start" x="300" y="-319.5" font-family="Helvetica,sans-Serif" font-size="10.00">/Detectors/ITSMFT/common</text>
<text text-anchor="start" x="300" y="-308.5" font-family="Helvetica,sans-Serif" font-size="10.00">/reconstruction/include</text>
<text text-anchor="middle" x="385" y="-297.5" font-family="Helvetica,sans-Serif" font-size="10.00">/ITSMFTReconstruction/PixelReader.h</text>
</a>
</g>
</g>
<!-- Node1&#45;&gt;Node10 -->
<g id="edge9" class="edge"><title>Node1&#45;&gt;Node10</title>
<path fill="none" stroke="midnightblue" d="M385,-380.099C385,-371.238 385,-362.015 385,-353.63"/>
<polygon fill="midnightblue" stroke="midnightblue" points="381.5,-380.261 385,-390.261 388.5,-380.261 381.5,-380.261"/>
</g>
<!-- Node12 -->
<g id="node12" class="node"><title>Node12</title>
<g id="a_node12"><a xlink:href="../../d3/d38/PixelData_8cxx.html" target="_top" xlink:title="Implementation for transient data of single pixel and set of pixels from current chip. ">
<polygon fill="none" stroke="black" points="496,-296 496,-348 658,-348 658,-296 496,-296"/>
<text text-anchor="start" x="504" y="-336" font-family="Helvetica,sans-Serif" font-size="10.00">/home/travis/build</text>
<text text-anchor="start" x="504" y="-325" font-family="Helvetica,sans-Serif" font-size="10.00">/AliceO2Group/AliceO2</text>
<text text-anchor="start" x="504" y="-314" font-family="Helvetica,sans-Serif" font-size="10.00">/Detectors/ITSMFT/common</text>
<text text-anchor="middle" x="577" y="-303" font-family="Helvetica,sans-Serif" font-size="10.00">/reconstruction/src/PixelData.cxx</text>
</a>
</g>
</g>
<!-- Node1&#45;&gt;Node12 -->
<g id="edge14" class="edge"><title>Node1&#45;&gt;Node12</title>
<path fill="none" stroke="midnightblue" d="M454.161,-385.699C478.527,-373.262 505.401,-359.545 527.784,-348.121"/>
<polygon fill="midnightblue" stroke="midnightblue" points="452.276,-382.732 444.96,-390.395 455.458,-388.966 452.276,-382.732"/>
</g>
<!-- Node3 -->
<g id="node3" class="node"><title>Node3</title>
<g id="a_node3"><a xlink:href="../../de/d69/ITSMFT_2common_2reconstruction_2src_2Clusterer_8cxx.html" target="_top" xlink:title="/home/travis/build\l/AliceO2Group/AliceO2\l/Detectors/ITSMFT/common\l/reconstruction/src/Clusterer.cxx">
<polygon fill="none" stroke="black" points="-0.5,-96 -0.5,-148 158.5,-148 158.5,-96 -0.5,-96"/>
<text text-anchor="start" x="7.5" y="-136" font-family="Helvetica,sans-Serif" font-size="10.00">/home/travis/build</text>
<text text-anchor="start" x="7.5" y="-125" font-family="Helvetica,sans-Serif" font-size="10.00">/AliceO2Group/AliceO2</text>
<text text-anchor="start" x="7.5" y="-114" font-family="Helvetica,sans-Serif" font-size="10.00">/Detectors/ITSMFT/common</text>
<text text-anchor="middle" x="79" y="-103" font-family="Helvetica,sans-Serif" font-size="10.00">/reconstruction/src/Clusterer.cxx</text>
</a>
</g>
</g>
<!-- Node2&#45;&gt;Node3 -->
<g id="edge2" class="edge"><title>Node2&#45;&gt;Node3</title>
<path fill="none" stroke="midnightblue" d="M197.36,-185.699C173.883,-173.262 147.988,-159.545 126.422,-148.121"/>
<polygon fill="midnightblue" stroke="midnightblue" points="195.751,-188.807 206.226,-190.395 199.027,-182.621 195.751,-188.807"/>
</g>
<!-- Node4 -->
<g id="node4" class="node"><title>Node4</title>
<g id="a_node4"><a xlink:href="../../d6/d67/ITSMFT_2ITS_2reconstruction_2include_2ITSReconstruction_2ClustererTask_8h.html" target="_top" xlink:title="/home/travis/build\l/AliceO2Group/AliceO2\l/Detectors/ITSMFT/ITS\l/reconstruction/include\l/ITSReconstruction/ClustererTask.h">
<polygon fill="none" stroke="black" points="177,-90.5 177,-153.5 351,-153.5 351,-90.5 177,-90.5"/>
<text text-anchor="start" x="185" y="-141.5" font-family="Helvetica,sans-Serif" font-size="10.00">/home/travis/build</text>
<text text-anchor="start" x="185" y="-130.5" font-family="Helvetica,sans-Serif" font-size="10.00">/AliceO2Group/AliceO2</text>
<text text-anchor="start" x="185" y="-119.5" font-family="Helvetica,sans-Serif" font-size="10.00">/Detectors/ITSMFT/ITS</text>
<text text-anchor="start" x="185" y="-108.5" font-family="Helvetica,sans-Serif" font-size="10.00">/reconstruction/include</text>
<text text-anchor="middle" x="264" y="-97.5" font-family="Helvetica,sans-Serif" font-size="10.00">/ITSReconstruction/ClustererTask.h</text>
</a>
</g>
</g>
<!-- Node2&#45;&gt;Node4 -->
<g id="edge3" class="edge"><title>Node2&#45;&gt;Node4</title>
<path fill="none" stroke="midnightblue" d="M264,-180.099C264,-171.238 264,-162.015 264,-153.63"/>
<polygon fill="midnightblue" stroke="midnightblue" points="260.5,-180.261 264,-190.261 267.5,-180.261 260.5,-180.261"/>
</g>
<!-- Node7 -->
<g id="node7" class="node"><title>Node7</title>
<g id="a_node7"><a xlink:href="../../db/d12/ITSMFT_2MFT_2reconstruction_2include_2MFTReconstruction_2ClustererTask_8h.html" target="_top" xlink:title="/home/travis/build\l/AliceO2Group/AliceO2\l/Detectors/ITSMFT/MFT\l/reconstruction/include\l/MFTReconstruction/ClustererTask.h">
<polygon fill="none" stroke="black" points="369.5,-90.5 369.5,-153.5 548.5,-153.5 548.5,-90.5 369.5,-90.5"/>
<text text-anchor="start" x="377.5" y="-141.5" font-family="Helvetica,sans-Serif" font-size="10.00">/home/travis/build</text>
<text text-anchor="start" x="377.5" y="-130.5" font-family="Helvetica,sans-Serif" font-size="10.00">/AliceO2Group/AliceO2</text>
<text text-anchor="start" x="377.5" y="-119.5" font-family="Helvetica,sans-Serif" font-size="10.00">/Detectors/ITSMFT/MFT</text>
<text text-anchor="start" x="377.5" y="-108.5" font-family="Helvetica,sans-Serif" font-size="10.00">/reconstruction/include</text>
<text text-anchor="middle" x="459" y="-97.5" font-family="Helvetica,sans-Serif" font-size="10.00">/MFTReconstruction/ClustererTask.h</text>
</a>
</g>
</g>
<!-- Node2&#45;&gt;Node7 -->
<g id="edge6" class="edge"><title>Node2&#45;&gt;Node7</title>
<path fill="none" stroke="midnightblue" d="M334.078,-185.781C355.064,-175.234 377.895,-163.76 398.23,-153.541"/>
<polygon fill="midnightblue" stroke="midnightblue" points="332.261,-182.778 324.897,-190.395 335.404,-189.032 332.261,-182.778"/>
</g>
<!-- Node5 -->
<g id="node5" class="node"><title>Node5</title>
<g id="a_node5"><a xlink:href="../../d8/d95/ITSMFT_2ITS_2reconstruction_2src_2ClustererTask_8cxx.html" target="_top" xlink:title="/home/travis/build\l/AliceO2Group/AliceO2\l/Detectors/ITSMFT/ITS\l/reconstruction/src/ClustererTask.cxx">
<polygon fill="none" stroke="black" points="12.5,-1 12.5,-53 193.5,-53 193.5,-1 12.5,-1"/>
<text text-anchor="start" x="20.5" y="-41" font-family="Helvetica,sans-Serif" font-size="10.00">/home/travis/build</text>
<text text-anchor="start" x="20.5" y="-30" font-family="Helvetica,sans-Serif" font-size="10.00">/AliceO2Group/AliceO2</text>
<text text-anchor="start" x="20.5" y="-19" font-family="Helvetica,sans-Serif" font-size="10.00">/Detectors/ITSMFT/ITS</text>
<text text-anchor="middle" x="103" y="-8" font-family="Helvetica,sans-Serif" font-size="10.00">/reconstruction/src/ClustererTask.cxx</text>
</a>
</g>
</g>
<!-- Node4&#45;&gt;Node5 -->
<g id="edge4" class="edge"><title>Node4&#45;&gt;Node5</title>
<path fill="none" stroke="midnightblue" d="M202.132,-85.2624C183.553,-74.5306 163.573,-62.9896 146.453,-53.1001"/>
<polygon fill="midnightblue" stroke="midnightblue" points="200.427,-88.3194 210.836,-90.2906 203.928,-82.2579 200.427,-88.3194"/>
</g>
<!-- Node6 -->
<g id="node6" class="node"><title>Node6</title>
<g id="a_node6"><a xlink:href="../../d6/da1/run__clus__its_8C.html" target="_top" xlink:title="/home/travis/build\l/AliceO2Group/AliceO2\l/macro/run_clus_its.C">
<polygon fill="none" stroke="black" points="212,-6.5 212,-47.5 330,-47.5 330,-6.5 212,-6.5"/>
<text text-anchor="start" x="220" y="-35.5" font-family="Helvetica,sans-Serif" font-size="10.00">/home/travis/build</text>
<text text-anchor="start" x="220" y="-24.5" font-family="Helvetica,sans-Serif" font-size="10.00">/AliceO2Group/AliceO2</text>
<text text-anchor="middle" x="271" y="-13.5" font-family="Helvetica,sans-Serif" font-size="10.00">/macro/run_clus_its.C</text>
</a>
</g>
</g>
<!-- Node4&#45;&gt;Node6 -->
<g id="edge5" class="edge"><title>Node4&#45;&gt;Node6</title>
<path fill="none" stroke="midnightblue" d="M267.078,-80.1125C267.929,-68.807 268.813,-57.0525 269.527,-47.5747"/>
<polygon fill="midnightblue" stroke="midnightblue" points="263.572,-80.0561 266.311,-90.2906 270.552,-80.5815 263.572,-80.0561"/>
</g>
<!-- Node8 -->
<g id="node8" class="node"><title>Node8</title>
<g id="a_node8"><a xlink:href="../../d9/d5e/ITSMFT_2MFT_2reconstruction_2src_2ClustererTask_8cxx.html" target="_top" xlink:title="/home/travis/build\l/AliceO2Group/AliceO2\l/Detectors/ITSMFT/MFT\l/reconstruction/src/ClustererTask.cxx">
<polygon fill="none" stroke="black" points="361.5,-1 361.5,-53 542.5,-53 542.5,-1 361.5,-1"/>
<text text-anchor="start" x="369.5" y="-41" font-family="Helvetica,sans-Serif" font-size="10.00">/home/travis/build</text>
<text text-anchor="start" x="369.5" y="-30" font-family="Helvetica,sans-Serif" font-size="10.00">/AliceO2Group/AliceO2</text>
<text text-anchor="start" x="369.5" y="-19" font-family="Helvetica,sans-Serif" font-size="10.00">/Detectors/ITSMFT/MFT</text>
<text text-anchor="middle" x="452" y="-8" font-family="Helvetica,sans-Serif" font-size="10.00">/reconstruction/src/ClustererTask.cxx</text>
</a>
</g>
</g>
<!-- Node7&#45;&gt;Node8 -->
<g id="edge7" class="edge"><title>Node7&#45;&gt;Node8</title>
<path fill="none" stroke="midnightblue" d="M455.922,-80.1125C455.23,-70.9165 454.516,-61.4234 453.889,-53.1001"/>
<polygon fill="midnightblue" stroke="midnightblue" points="452.448,-80.5815 456.689,-90.2906 459.428,-80.0561 452.448,-80.5815"/>
</g>
<!-- Node9 -->
<g id="node9" class="node"><title>Node9</title>
<g id="a_node9"><a xlink:href="../../d4/dfd/run__clus__mft_8C.html" target="_top" xlink:title="/home/travis/build\l/AliceO2Group/AliceO2\l/macro/run_clus_mft.C">
<polygon fill="none" stroke="black" points="561,-6.5 561,-47.5 679,-47.5 679,-6.5 561,-6.5"/>
<text text-anchor="start" x="569" y="-35.5" font-family="Helvetica,sans-Serif" font-size="10.00">/home/travis/build</text>
<text text-anchor="start" x="569" y="-24.5" font-family="Helvetica,sans-Serif" font-size="10.00">/AliceO2Group/AliceO2</text>
<text text-anchor="middle" x="620" y="-13.5" font-family="Helvetica,sans-Serif" font-size="10.00">/macro/run_clus_mft.C</text>
</a>
</g>
</g>
<!-- Node7&#45;&gt;Node9 -->
<g id="edge8" class="edge"><title>Node7&#45;&gt;Node9</title>
<path fill="none" stroke="midnightblue" d="M520.868,-85.2624C543.034,-72.4587 567.194,-58.5031 586.113,-47.5747"/>
<polygon fill="midnightblue" stroke="midnightblue" points="519.072,-82.2579 512.164,-90.2906 522.573,-88.3194 519.072,-82.2579"/>
</g>
<!-- Node10&#45;&gt;Node2 -->
<g id="edge10" class="edge"><title>Node10&#45;&gt;Node2</title>
<path fill="none" stroke="midnightblue" d="M339.106,-283.83C326.799,-273.862 313.634,-263.199 301.818,-253.63"/>
<polygon fill="midnightblue" stroke="midnightblue" points="337.073,-286.687 347.047,-290.261 341.479,-281.247 337.073,-286.687"/>
</g>
<!-- Node10&#45;&gt;Node4 -->
<g id="edge12" class="edge"><title>Node10&#45;&gt;Node4</title>
<path fill="none" stroke="midnightblue" d="M384.628,-280.193C382.617,-252.741 376.42,-216.808 359,-190 349.763,-175.785 336.359,-163.684 322.518,-153.842"/>
<polygon fill="midnightblue" stroke="midnightblue" points="381.139,-280.48 385.208,-290.262 388.127,-280.077 381.139,-280.48"/>
</g>
<!-- Node10&#45;&gt;Node7 -->
<g id="edge13" class="edge"><title>Node10&#45;&gt;Node7</title>
<path fill="none" stroke="midnightblue" d="M400.003,-280.857C414.077,-243.201 434.816,-187.708 447.587,-153.538"/>
<polygon fill="midnightblue" stroke="midnightblue" points="396.623,-279.904 396.4,-290.496 403.18,-282.355 396.623,-279.904"/>
</g>
<!-- Node11 -->
<g id="node11" class="node"><title>Node11</title>
<g id="a_node11"><a xlink:href="../../d2/dff/PixelReader_8cxx.html" target="_top" xlink:title="Implementation of the ITS pixel reader class. ">
<polygon fill="none" stroke="black" points="445.5,-196 445.5,-248 618.5,-248 618.5,-196 445.5,-196"/>
<text text-anchor="start" x="453.5" y="-236" font-family="Helvetica,sans-Serif" font-size="10.00">/home/travis/build</text>
<text text-anchor="start" x="453.5" y="-225" font-family="Helvetica,sans-Serif" font-size="10.00">/AliceO2Group/AliceO2</text>
<text text-anchor="start" x="453.5" y="-214" font-family="Helvetica,sans-Serif" font-size="10.00">/Detectors/ITSMFT/common</text>
<text text-anchor="middle" x="532" y="-203" font-family="Helvetica,sans-Serif" font-size="10.00">/reconstruction/src/PixelReader.cxx</text>
</a>
</g>
</g>
<!-- Node10&#45;&gt;Node11 -->
<g id="edge11" class="edge"><title>Node10&#45;&gt;Node11</title>
<path fill="none" stroke="midnightblue" d="M439.878,-284.415C458.051,-272.299 477.85,-259.1 494.42,-248.054"/>
<polygon fill="midnightblue" stroke="midnightblue" points="437.487,-281.802 431.108,-290.261 441.37,-287.626 437.487,-281.802"/>
</g>
</g>
</svg>
