<?xml version="1.0" encoding="UTF-8" standalone="no"?>
<!DOCTYPE svg PUBLIC "-//W3C//DTD SVG 1.1//EN"
 "http://www.w3.org/Graphics/SVG/1.1/DTD/svg11.dtd">
<!-- Generated by graphviz version 2.36.0 (20140111.2315)
 -->
<!-- Title: /home/travis/build/AliceO2Group/AliceO2/Framework/Core/include/Framework/ControlService.h Pages: 1 -->
<!--zoomable 242 -->
<svg id="main" version="1.1" xmlns="http://www.w3.org/2000/svg" xmlns:xlink="http://www.w3.org/1999/xlink" xml:space="preserve" onload="init(evt)">
<style type="text/css"><![CDATA[
.edge:hover path { stroke: red; }
.edge:hover polygon { stroke: red; fill: red; }
]]></style>
<script type="text/javascript"><![CDATA[
var edges = document.getElementsByTagName('g');
if (edges && edges.length) {
  for (var i=0;i<edges.length;i++) {
    if (edges[i].id.substr(0,4)=='edge') {
      edges[i].setAttribute('class','edge');
    }
  }
}
]]></script>
        <defs>
                <circle id="rim" cx="0" cy="0" r="7"/>
                <circle id="rim2" cx="0" cy="0" r="3.5"/>
                <g id="zoomPlus">
                        <use xlink:href="#rim" fill="#404040">
                                <set attributeName="fill" to="#808080" begin="zoomplus.mouseover" end="zoomplus.mouseout"/>
                        </use>
                        <path d="M-4,0h8M0,-4v8" fill="none" stroke="white" stroke-width="1.5" pointer-events="none"/>
                </g>
                <g id="zoomMin">
                        <use xlink:href="#rim" fill="#404040">
                                <set attributeName="fill" to="#808080" begin="zoomminus.mouseover" end="zoomminus.mouseout"/>
                        </use>
                        <path d="M-4,0h8" fill="none" stroke="white" stroke-width="1.5" pointer-events="none"/>
                </g>
                <g id="dirArrow">
                        <path fill="none" stroke="white" stroke-width="1.5" d="M0,-3.0v7 M-2.5,-0.5L0,-3.0L2.5,-0.5"/>
                </g>
               <g id="resetDef">
                       <use xlink:href="#rim2" fill="#404040">
                               <set attributeName="fill" to="#808080" begin="reset.mouseover" end="reset.mouseout"/>
                       </use>
               </g>
        </defs>

<script type="text/javascript">
var viewWidth = 2643;
var viewHeight = 242;
var sectionId = 'dynsection-0';
</script>
<script xlink:href="../../svgpan.js"/>
<svg id="graph" class="graph">
<g id="viewport">
<title>/home/travis/build/AliceO2Group/AliceO2/Framework/Core/include/Framework/ControlService.h</title>
<!-- Node1 -->
<g id="node1" class="node"><title>Node1</title>
<polygon fill="#bfbfbf" stroke="black" points="1343,-181 1343,-233 1487,-233 1487,-181 1343,-181"/>
<text text-anchor="start" x="1351" y="-221" font-family="Helvetica,sans-Serif" font-size="10.00">/home/travis/build</text>
<text text-anchor="start" x="1351" y="-210" font-family="Helvetica,sans-Serif" font-size="10.00">/AliceO2Group/AliceO2</text>
<text text-anchor="start" x="1351" y="-199" font-family="Helvetica,sans-Serif" font-size="10.00">/Framework/Core/include</text>
<text text-anchor="middle" x="1415" y="-188" font-family="Helvetica,sans-Serif" font-size="10.00">/Framework/ControlService.h</text>
</g>
<!-- Node2 -->
<g id="node2" class="node"><title>Node2</title>
<g id="a_node2"><a xlink:href="../../da/da1/TextControlService_8h.html" target="_top" xlink:title="/home/travis/build\l/AliceO2Group/AliceO2\l/Framework/Core/include\l/Framework/TextControlService.h">
<polygon fill="none" stroke="black" points="128,-91 128,-143 292,-143 292,-91 128,-91"/>
<text text-anchor="start" x="136" y="-131" font-family="Helvetica,sans-Serif" font-size="10.00">/home/travis/build</text>
<text text-anchor="start" x="136" y="-120" font-family="Helvetica,sans-Serif" font-size="10.00">/AliceO2Group/AliceO2</text>
<text text-anchor="start" x="136" y="-109" font-family="Helvetica,sans-Serif" font-size="10.00">/Framework/Core/include</text>
<text text-anchor="middle" x="210" y="-98" font-family="Helvetica,sans-Serif" font-size="10.00">/Framework/TextControlService.h</text>
</a>
</g>
</g>
<!-- Node1&#45;&gt;Node2 -->
<g id="edge1" class="edge"><title>Node1&#45;&gt;Node2</title>
<path fill="none" stroke="midnightblue" d="M1332.59,-203.793C1109.89,-197.45 499.483,-177.448 301,-144 298.084,-143.509 295.127,-142.958 292.151,-142.358"/>
<polygon fill="midnightblue" stroke="midnightblue" points="1332.8,-207.3 1342.9,-204.085 1333,-200.303 1332.8,-207.3"/>
</g>
<!-- Node5 -->
<g id="node5" class="node"><title>Node5</title>
<g id="a_node5"><a xlink:href="../../d2/da2/test__DataAllocator_8cxx.html" target="_top" xlink:title="/home/travis/build\l/AliceO2Group/AliceO2\l/Framework/Core/test/test\l_DataAllocator.cxx">
<polygon fill="none" stroke="black" points="310.5,-91 310.5,-143 441.5,-143 441.5,-91 310.5,-91"/>
<text text-anchor="start" x="318.5" y="-131" font-family="Helvetica,sans-Serif" font-size="10.00">/home/travis/build</text>
<text text-anchor="start" x="318.5" y="-120" font-family="Helvetica,sans-Serif" font-size="10.00">/AliceO2Group/AliceO2</text>
<text text-anchor="start" x="318.5" y="-109" font-family="Helvetica,sans-Serif" font-size="10.00">/Framework/Core/test/test</text>
<text text-anchor="middle" x="376" y="-98" font-family="Helvetica,sans-Serif" font-size="10.00">_DataAllocator.cxx</text>
</a>
</g>
</g>
<!-- Node1&#45;&gt;Node5 -->
<g id="edge4" class="edge"><title>Node1&#45;&gt;Node5</title>
<path fill="none" stroke="midnightblue" d="M1332.72,-203.604C1131.33,-197.275 617.853,-178.204 450,-144 447.198,-143.429 444.358,-142.777 441.504,-142.06"/>
<polygon fill="midnightblue" stroke="midnightblue" points="1332.84,-207.109 1342.94,-203.923 1333.06,-200.113 1332.84,-207.109"/>
</g>
<!-- Node6 -->
<g id="node6" class="node"><title>Node6</title>
<g id="a_node6"><a xlink:href="../../d0/d0b/test__ParallelProducer_8cxx.html" target="_top" xlink:title="/home/travis/build\l/AliceO2Group/AliceO2\l/Framework/Core/test/test\l_ParallelProducer.cxx">
<polygon fill="none" stroke="black" points="459.5,-91 459.5,-143 590.5,-143 590.5,-91 459.5,-91"/>
<text text-anchor="start" x="467.5" y="-131" font-family="Helvetica,sans-Serif" font-size="10.00">/home/travis/build</text>
<text text-anchor="start" x="467.5" y="-120" font-family="Helvetica,sans-Serif" font-size="10.00">/AliceO2Group/AliceO2</text>
<text text-anchor="start" x="467.5" y="-109" font-family="Helvetica,sans-Serif" font-size="10.00">/Framework/Core/test/test</text>
<text text-anchor="middle" x="525" y="-98" font-family="Helvetica,sans-Serif" font-size="10.00">_ParallelProducer.cxx</text>
</a>
</g>
</g>
<!-- Node1&#45;&gt;Node6 -->
<g id="edge5" class="edge"><title>Node1&#45;&gt;Node6</title>
<path fill="none" stroke="midnightblue" d="M1332.35,-206.695C1184.03,-206.403 863.558,-198.748 600,-144 596.897,-143.355 593.745,-142.617 590.58,-141.806"/>
<polygon fill="midnightblue" stroke="midnightblue" points="1332.72,-210.195 1342.73,-206.704 1332.73,-203.195 1332.72,-210.195"/>
</g>
<!-- Node7 -->
<g id="node7" class="node"><title>Node7</title>
<g id="a_node7"><a xlink:href="../../da/d12/test__SimpleStatefulProcessing01_8cxx.html" target="_top" xlink:title="/home/travis/build\l/AliceO2Group/AliceO2\l/Framework/Core/test/test\l_SimpleStatefulProcessing01.cxx">
<polygon fill="none" stroke="black" points="609,-91 609,-143 773,-143 773,-91 609,-91"/>
<text text-anchor="start" x="617" y="-131" font-family="Helvetica,sans-Serif" font-size="10.00">/home/travis/build</text>
<text text-anchor="start" x="617" y="-120" font-family="Helvetica,sans-Serif" font-size="10.00">/AliceO2Group/AliceO2</text>
<text text-anchor="start" x="617" y="-109" font-family="Helvetica,sans-Serif" font-size="10.00">/Framework/Core/test/test</text>
<text text-anchor="middle" x="691" y="-98" font-family="Helvetica,sans-Serif" font-size="10.00">_SimpleStatefulProcessing01.cxx</text>
</a>
</g>
</g>
<!-- Node1&#45;&gt;Node7 -->
<g id="edge6" class="edge"><title>Node1&#45;&gt;Node7</title>
<path fill="none" stroke="midnightblue" d="M1332.39,-202.672C1210.89,-196.705 977.262,-181.141 782,-144 779.095,-143.447 776.148,-142.844 773.18,-142.199"/>
<polygon fill="midnightblue" stroke="midnightblue" points="1332.57,-206.184 1342.73,-203.169 1332.91,-199.193 1332.57,-206.184"/>
</g>
<!-- Node8 -->
<g id="node8" class="node"><title>Node8</title>
<g id="a_node8"><a xlink:href="../../d3/d4e/test__SingleDataSource_8cxx.html" target="_top" xlink:title="/home/travis/build\l/AliceO2Group/AliceO2\l/Framework/Core/test/test\l_SingleDataSource.cxx">
<polygon fill="none" stroke="black" points="791.5,-91 791.5,-143 922.5,-143 922.5,-91 791.5,-91"/>
<text text-anchor="start" x="799.5" y="-131" font-family="Helvetica,sans-Serif" font-size="10.00">/home/travis/build</text>
<text text-anchor="start" x="799.5" y="-120" font-family="Helvetica,sans-Serif" font-size="10.00">/AliceO2Group/AliceO2</text>
<text text-anchor="start" x="799.5" y="-109" font-family="Helvetica,sans-Serif" font-size="10.00">/Framework/Core/test/test</text>
<text text-anchor="middle" x="857" y="-98" font-family="Helvetica,sans-Serif" font-size="10.00">_SingleDataSource.cxx</text>
</a>
</g>
</g>
<!-- Node1&#45;&gt;Node8 -->
<g id="edge7" class="edge"><title>Node1&#45;&gt;Node8</title>
<path fill="none" stroke="midnightblue" d="M1332.76,-200.761C1235.7,-193.364 1069.93,-176.916 931,-144 928.217,-143.341 925.393,-142.615 922.554,-141.837"/>
<polygon fill="midnightblue" stroke="midnightblue" points="1332.57,-204.256 1342.81,-201.512 1333.1,-197.275 1332.57,-204.256"/>
</g>
<!-- Node9 -->
<g id="node9" class="node"><title>Node9</title>
<g id="a_node9"><a xlink:href="../../d2/d5d/test__WorkflowOptions_8cxx.html" target="_top" xlink:title="/home/travis/build\l/AliceO2Group/AliceO2\l/Framework/Core/test/test\l_WorkflowOptions.cxx">
<polygon fill="none" stroke="black" points="940.5,-91 940.5,-143 1071.5,-143 1071.5,-91 940.5,-91"/>
<text text-anchor="start" x="948.5" y="-131" font-family="Helvetica,sans-Serif" font-size="10.00">/home/travis/build</text>
<text text-anchor="start" x="948.5" y="-120" font-family="Helvetica,sans-Serif" font-size="10.00">/AliceO2Group/AliceO2</text>
<text text-anchor="start" x="948.5" y="-109" font-family="Helvetica,sans-Serif" font-size="10.00">/Framework/Core/test/test</text>
<text text-anchor="middle" x="1006" y="-98" font-family="Helvetica,sans-Serif" font-size="10.00">_WorkflowOptions.cxx</text>
</a>
</g>
</g>
<!-- Node1&#45;&gt;Node9 -->
<g id="edge8" class="edge"><title>Node1&#45;&gt;Node9</title>
<path fill="none" stroke="midnightblue" d="M1332.46,-194.374C1264.16,-183.886 1164.94,-166.636 1080,-144 1077.24,-143.264 1074.43,-142.473 1071.6,-141.642"/>
<polygon fill="midnightblue" stroke="midnightblue" points="1332.31,-197.892 1342.73,-195.936 1333.37,-190.972 1332.31,-197.892"/>
</g>
<!-- Node10 -->
<g id="node10" class="node"><title>Node10</title>
<g id="a_node10"><a xlink:href="../../d3/d09/o2ParallelWorkflow_8cxx.html" target="_top" xlink:title="/home/travis/build\l/AliceO2Group/AliceO2\l/Framework/TestWorkflows\l/src/o2ParallelWorkflow.cxx">
<polygon fill="none" stroke="black" points="1089.5,-91 1089.5,-143 1228.5,-143 1228.5,-91 1089.5,-91"/>
<text text-anchor="start" x="1097.5" y="-131" font-family="Helvetica,sans-Serif" font-size="10.00">/home/travis/build</text>
<text text-anchor="start" x="1097.5" y="-120" font-family="Helvetica,sans-Serif" font-size="10.00">/AliceO2Group/AliceO2</text>
<text text-anchor="start" x="1097.5" y="-109" font-family="Helvetica,sans-Serif" font-size="10.00">/Framework/TestWorkflows</text>
<text text-anchor="middle" x="1159" y="-98" font-family="Helvetica,sans-Serif" font-size="10.00">/src/o2ParallelWorkflow.cxx</text>
</a>
</g>
</g>
<!-- Node1&#45;&gt;Node10 -->
<g id="edge9" class="edge"><title>Node1&#45;&gt;Node10</title>
<path fill="none" stroke="midnightblue" d="M1332.86,-177.764C1299.22,-166.202 1260.72,-152.966 1228.51,-141.893"/>
<polygon fill="midnightblue" stroke="midnightblue" points="1332.07,-181.195 1342.67,-181.136 1334.35,-174.575 1332.07,-181.195"/>
</g>
<!-- Node11 -->
<g id="node11" class="node"><title>Node11</title>
<g id="a_node11"><a xlink:href="../../d8/d33/test__CompletionPolicies_8cxx.html" target="_top" xlink:title="/home/travis/build\l/AliceO2Group/AliceO2\l/Framework/TestWorkflows\l/src/test_CompletionPolicies.cxx">
<polygon fill="none" stroke="black" points="1246.5,-91 1246.5,-143 1407.5,-143 1407.5,-91 1246.5,-91"/>
<text text-anchor="start" x="1254.5" y="-131" font-family="Helvetica,sans-Serif" font-size="10.00">/home/travis/build</text>
<text text-anchor="start" x="1254.5" y="-120" font-family="Helvetica,sans-Serif" font-size="10.00">/AliceO2Group/AliceO2</text>
<text text-anchor="start" x="1254.5" y="-109" font-family="Helvetica,sans-Serif" font-size="10.00">/Framework/TestWorkflows</text>
<text text-anchor="middle" x="1327" y="-98" font-family="Helvetica,sans-Serif" font-size="10.00">/src/test_CompletionPolicies.cxx</text>
</a>
</g>
</g>
<!-- Node1&#45;&gt;Node11 -->
<g id="edge10" class="edge"><title>Node1&#45;&gt;Node11</title>
<path fill="none" stroke="midnightblue" d="M1382.43,-173.431C1372.41,-163.407 1361.53,-152.533 1352.09,-143.092"/>
<polygon fill="midnightblue" stroke="midnightblue" points="1380,-175.951 1389.55,-180.547 1384.95,-171.001 1380,-175.951"/>
</g>
<!-- Node12 -->
<g id="node12" class="node"><title>Node12</title>
<g id="a_node12"><a xlink:href="../../db/d78/test__MakeDPLObjects_8cxx.html" target="_top" xlink:title="/home/travis/build\l/AliceO2Group/AliceO2\l/Framework/TestWorkflows\l/test/test_MakeDPLObjects.cxx">
<polygon fill="none" stroke="black" points="1425.5,-91 1425.5,-143 1582.5,-143 1582.5,-91 1425.5,-91"/>
<text text-anchor="start" x="1433.5" y="-131" font-family="Helvetica,sans-Serif" font-size="10.00">/home/travis/build</text>
<text text-anchor="start" x="1433.5" y="-120" font-family="Helvetica,sans-Serif" font-size="10.00">/AliceO2Group/AliceO2</text>
<text text-anchor="start" x="1433.5" y="-109" font-family="Helvetica,sans-Serif" font-size="10.00">/Framework/TestWorkflows</text>
<text text-anchor="middle" x="1504" y="-98" font-family="Helvetica,sans-Serif" font-size="10.00">/test/test_MakeDPLObjects.cxx</text>
</a>
</g>
</g>
<!-- Node1&#45;&gt;Node12 -->
<g id="edge11" class="edge"><title>Node1&#45;&gt;Node12</title>
<path fill="none" stroke="midnightblue" d="M1447.94,-173.431C1458.08,-163.407 1469.08,-152.533 1478.62,-143.092"/>
<polygon fill="midnightblue" stroke="midnightblue" points="1445.39,-171.027 1440.74,-180.547 1450.31,-176.005 1445.39,-171.027"/>
</g>
<!-- Node13 -->
<g id="node13" class="node"><title>Node13</title>
<g id="a_node13"><a xlink:href="../../d5/dc8/MakeRootTreeWriterSpec_8h.html" target="_top" xlink:title="Configurable generator for RootTreeWriter processor spec. ">
<polygon fill="none" stroke="black" points="1601,-91 1601,-143 1765,-143 1765,-91 1601,-91"/>
<text text-anchor="start" x="1609" y="-131" font-family="Helvetica,sans-Serif" font-size="10.00">/home/travis/build</text>
<text text-anchor="start" x="1609" y="-120" font-family="Helvetica,sans-Serif" font-size="10.00">/AliceO2Group/AliceO2</text>
<text text-anchor="start" x="1609" y="-109" font-family="Helvetica,sans-Serif" font-size="10.00">/Framework/Utils/include</text>
<text text-anchor="middle" x="1683" y="-98" font-family="Helvetica,sans-Serif" font-size="10.00">/Utils/MakeRootTreeWriterSpec.h</text>
</a>
</g>
</g>
<!-- Node1&#45;&gt;Node13 -->
<g id="edge12" class="edge"><title>Node1&#45;&gt;Node13</title>
<path fill="none" stroke="midnightblue" d="M1496.85,-179.123C1531.73,-167.669 1572.2,-154.382 1606.48,-143.127"/>
<polygon fill="midnightblue" stroke="midnightblue" points="1495.58,-175.857 1487.17,-182.302 1497.76,-182.507 1495.58,-175.857"/>
</g>
<!-- Node15 -->
<g id="node15" class="node"><title>Node15</title>
<g id="a_node15"><a xlink:href="../../d1/d02/test__RootTreeWriterWorkflow_8cxx.html" target="_top" xlink:title="/home/travis/build\l/AliceO2Group/AliceO2\l/Framework/Utils/test\l/test_RootTreeWriterWorkflow.cxx">
<polygon fill="none" stroke="black" points="1709,-1 1709,-53 1877,-53 1877,-1 1709,-1"/>
<text text-anchor="start" x="1717" y="-41" font-family="Helvetica,sans-Serif" font-size="10.00">/home/travis/build</text>
<text text-anchor="start" x="1717" y="-30" font-family="Helvetica,sans-Serif" font-size="10.00">/AliceO2Group/AliceO2</text>
<text text-anchor="start" x="1717" y="-19" font-family="Helvetica,sans-Serif" font-size="10.00">/Framework/Utils/test</text>
<text text-anchor="middle" x="1793" y="-8" font-family="Helvetica,sans-Serif" font-size="10.00">/test_RootTreeWriterWorkflow.cxx</text>
</a>
</g>
</g>
<!-- Node1&#45;&gt;Node15 -->
<g id="edge16" class="edge"><title>Node1&#45;&gt;Node15</title>
<path fill="none" stroke="midnightblue" d="M1497.22,-202.594C1590.99,-196.918 1736.25,-182.083 1774,-144 1797.42,-120.377 1798.72,-79.809 1796.57,-53.4511"/>
<polygon fill="midnightblue" stroke="midnightblue" points="1496.96,-199.103 1487.18,-203.178 1497.37,-206.091 1496.96,-199.103"/>
</g>
<!-- Node16 -->
<g id="node16" class="node"><title>Node16</title>
<g id="a_node16"><a xlink:href="../../d6/d0d/test__RootTreeReader_8cxx.html" target="_top" xlink:title="/home/travis/build\l/AliceO2Group/AliceO2\l/Framework/Utils/test\l/test_RootTreeReader.cxx">
<polygon fill="none" stroke="black" points="1821,-91 1821,-143 1953,-143 1953,-91 1821,-91"/>
<text text-anchor="start" x="1829" y="-131" font-family="Helvetica,sans-Serif" font-size="10.00">/home/travis/build</text>
<text text-anchor="start" x="1829" y="-120" font-family="Helvetica,sans-Serif" font-size="10.00">/AliceO2Group/AliceO2</text>
<text text-anchor="start" x="1829" y="-109" font-family="Helvetica,sans-Serif" font-size="10.00">/Framework/Utils/test</text>
<text text-anchor="middle" x="1887" y="-98" font-family="Helvetica,sans-Serif" font-size="10.00">/test_RootTreeReader.cxx</text>
</a>
</g>
</g>
<!-- Node1&#45;&gt;Node16 -->
<g id="edge15" class="edge"><title>Node1&#45;&gt;Node16</title>
<path fill="none" stroke="midnightblue" d="M1497.19,-196.822C1577.02,-187.014 1701.31,-169.367 1807,-144 1811.54,-142.909 1816.2,-141.685 1820.88,-140.378"/>
<polygon fill="midnightblue" stroke="midnightblue" points="1496.7,-193.356 1487.2,-198.038 1497.55,-200.305 1496.7,-193.356"/>
</g>
<!-- Node17 -->
<g id="node17" class="node"><title>Node17</title>
<g id="a_node17"><a xlink:href="../../d3/d87/CollisionTimePrinter_8cxx.html" target="_top" xlink:title="/home/travis/build\l/AliceO2Group/AliceO2\l/Steer/DigitizerWorkflow\l/src/CollisionTimePrinter.cxx">
<polygon fill="none" stroke="black" points="1971.5,-91 1971.5,-143 2114.5,-143 2114.5,-91 1971.5,-91"/>
<text text-anchor="start" x="1979.5" y="-131" font-family="Helvetica,sans-Serif" font-size="10.00">/home/travis/build</text>
<text text-anchor="start" x="1979.5" y="-120" font-family="Helvetica,sans-Serif" font-size="10.00">/AliceO2Group/AliceO2</text>
<text text-anchor="start" x="1979.5" y="-109" font-family="Helvetica,sans-Serif" font-size="10.00">/Steer/DigitizerWorkflow</text>
<text text-anchor="middle" x="2043" y="-98" font-family="Helvetica,sans-Serif" font-size="10.00">/src/CollisionTimePrinter.cxx</text>
</a>
</g>
</g>
<!-- Node1&#45;&gt;Node17 -->
<g id="edge17" class="edge"><title>Node1&#45;&gt;Node17</title>
<path fill="none" stroke="midnightblue" d="M1497.57,-201.736C1605.39,-195.011 1799.52,-178.926 1962,-144 1965.03,-143.348 1968.11,-142.628 1971.21,-141.856"/>
<polygon fill="midnightblue" stroke="midnightblue" points="1497.18,-198.253 1487.41,-202.358 1497.61,-205.24 1497.18,-198.253"/>
</g>
<!-- Node18 -->
<g id="node18" class="node"><title>Node18</title>
<g id="a_node18"><a xlink:href="../../d3/d13/SimReaderSpec_8cxx.html" target="_top" xlink:title="/home/travis/build\l/AliceO2Group/AliceO2\l/Steer/DigitizerWorkflow\l/src/SimReaderSpec.cxx">
<polygon fill="none" stroke="black" points="2133,-91 2133,-143 2259,-143 2259,-91 2133,-91"/>
<text text-anchor="start" x="2141" y="-131" font-family="Helvetica,sans-Serif" font-size="10.00">/home/travis/build</text>
<text text-anchor="start" x="2141" y="-120" font-family="Helvetica,sans-Serif" font-size="10.00">/AliceO2Group/AliceO2</text>
<text text-anchor="start" x="2141" y="-109" font-family="Helvetica,sans-Serif" font-size="10.00">/Steer/DigitizerWorkflow</text>
<text text-anchor="middle" x="2196" y="-98" font-family="Helvetica,sans-Serif" font-size="10.00">/src/SimReaderSpec.cxx</text>
</a>
</g>
</g>
<!-- Node1&#45;&gt;Node18 -->
<g id="edge18" class="edge"><title>Node1&#45;&gt;Node18</title>
<path fill="none" stroke="midnightblue" d="M1497.11,-205.557C1630.11,-203.339 1900.21,-192.595 2123,-144 2126.29,-143.283 2129.63,-142.459 2132.98,-141.554"/>
<polygon fill="midnightblue" stroke="midnightblue" points="1496.95,-202.059 1487,-205.713 1497.06,-209.058 1496.95,-202.059"/>
</g>
<!-- Node19 -->
<g id="node19" class="node"><title>Node19</title>
<g id="a_node19"><a xlink:href="../../d8/dd2/TPCDigitRootWriterSpec_8cxx.html" target="_top" xlink:title="/home/travis/build\l/AliceO2Group/AliceO2\l/Steer/DigitizerWorkflow\l/src/TPCDigitRootWriterSpec.cxx">
<polygon fill="none" stroke="black" points="2277.5,-91 2277.5,-143 2442.5,-143 2442.5,-91 2277.5,-91"/>
<text text-anchor="start" x="2285.5" y="-131" font-family="Helvetica,sans-Serif" font-size="10.00">/home/travis/build</text>
<text text-anchor="start" x="2285.5" y="-120" font-family="Helvetica,sans-Serif" font-size="10.00">/AliceO2Group/AliceO2</text>
<text text-anchor="start" x="2285.5" y="-109" font-family="Helvetica,sans-Serif" font-size="10.00">/Steer/DigitizerWorkflow</text>
<text text-anchor="middle" x="2360" y="-98" font-family="Helvetica,sans-Serif" font-size="10.00">/src/TPCDigitRootWriterSpec.cxx</text>
</a>
</g>
</g>
<!-- Node1&#45;&gt;Node19 -->
<g id="edge19" class="edge"><title>Node1&#45;&gt;Node19</title>
<path fill="none" stroke="midnightblue" d="M1497.47,-205.541C1650.52,-203.469 1988.35,-193.155 2268,-144 2271.11,-143.454 2274.26,-142.846 2277.43,-142.188"/>
<polygon fill="midnightblue" stroke="midnightblue" points="1497.17,-202.045 1487.22,-205.672 1497.26,-209.044 1497.17,-202.045"/>
</g>
<!-- Node20 -->
<g id="node20" class="node"><title>Node20</title>
<g id="a_node20"><a xlink:href="../../db/df6/TPCDriftTimeDigitizerSpec_8cxx.html" target="_top" xlink:title="/home/travis/build\l/AliceO2Group/AliceO2\l/Steer/DigitizerWorkflow\l/src/TPCDriftTimeDigitizerSpec.cxx">
<polygon fill="none" stroke="black" points="2461,-91 2461,-143 2635,-143 2635,-91 2461,-91"/>
<text text-anchor="start" x="2469" y="-131" font-family="Helvetica,sans-Serif" font-size="10.00">/home/travis/build</text>
<text text-anchor="start" x="2469" y="-120" font-family="Helvetica,sans-Serif" font-size="10.00">/AliceO2Group/AliceO2</text>
<text text-anchor="start" x="2469" y="-109" font-family="Helvetica,sans-Serif" font-size="10.00">/Steer/DigitizerWorkflow</text>
<text text-anchor="middle" x="2548" y="-98" font-family="Helvetica,sans-Serif" font-size="10.00">/src/TPCDriftTimeDigitizerSpec.cxx</text>
</a>
</g>
</g>
<!-- Node1&#45;&gt;Node20 -->
<g id="edge20" class="edge"><title>Node1&#45;&gt;Node20</title>
<path fill="none" stroke="midnightblue" d="M1497.37,-206.694C1673.57,-206.95 2099.62,-201.005 2451,-144 2454.27,-143.47 2457.59,-142.875 2460.93,-142.228"/>
<polygon fill="midnightblue" stroke="midnightblue" points="1497.15,-203.194 1487.14,-206.672 1497.13,-210.194 1497.15,-203.194"/>
</g>
<!-- Node3 -->
<g id="node3" class="node"><title>Node3</title>
<g id="a_node3"><a xlink:href="../../d7/d54/runDataProcessing_8cxx.html" target="_top" xlink:title="/home/travis/build\l/AliceO2Group/AliceO2\l/Framework/Core/src/runDataProcessing.cxx">
<polygon fill="none" stroke="black" points="0,-6.5 0,-47.5 214,-47.5 214,-6.5 0,-6.5"/>
<text text-anchor="start" x="8" y="-35.5" font-family="Helvetica,sans-Serif" font-size="10.00">/home/travis/build</text>
<text text-anchor="start" x="8" y="-24.5" font-family="Helvetica,sans-Serif" font-size="10.00">/AliceO2Group/AliceO2</text>
<text text-anchor="middle" x="107" y="-13.5" font-family="Helvetica,sans-Serif" font-size="10.00">/Framework/Core/src/runDataProcessing.cxx</text>
</a>
</g>
</g>
<!-- Node2&#45;&gt;Node3 -->
<g id="edge2" class="edge"><title>Node2&#45;&gt;Node3</title>
<path fill="none" stroke="midnightblue" d="M172.735,-84.1619C158.436,-71.9452 142.548,-58.371 129.974,-47.6283"/>
<polygon fill="midnightblue" stroke="midnightblue" points="170.608,-86.948 180.484,-90.7827 175.155,-81.6259 170.608,-86.948"/>
</g>
<!-- Node4 -->
<g id="node4" class="node"><title>Node4</title>
<g id="a_node4"><a xlink:href="../../d3/dac/TextControlService_8cxx.html" target="_top" xlink:title="/home/travis/build\l/AliceO2Group/AliceO2\l/Framework/Core/src/TextControl\lService.cxx">
<polygon fill="none" stroke="black" points="232.5,-1 232.5,-53 395.5,-53 395.5,-1 232.5,-1"/>
<text text-anchor="start" x="240.5" y="-41" font-family="Helvetica,sans-Serif" font-size="10.00">/home/travis/build</text>
<text text-anchor="start" x="240.5" y="-30" font-family="Helvetica,sans-Serif" font-size="10.00">/AliceO2Group/AliceO2</text>
<text text-anchor="start" x="240.5" y="-19" font-family="Helvetica,sans-Serif" font-size="10.00">/Framework/Core/src/TextControl</text>
<text text-anchor="middle" x="314" y="-8" font-family="Helvetica,sans-Serif" font-size="10.00">Service.cxx</text>
</a>
</g>
</g>
<!-- Node2&#45;&gt;Node4 -->
<g id="edge3" class="edge"><title>Node2&#45;&gt;Node4</title>
<path fill="none" stroke="midnightblue" d="M247.532,-84.2423C259.587,-74.0416 272.77,-62.8871 284.193,-53.221"/>
<polygon fill="midnightblue" stroke="midnightblue" points="245.175,-81.6514 239.802,-90.7827 249.697,-86.9951 245.175,-81.6514"/>
</g>
<!-- Node14 -->
<g id="node14" class="node"><title>Node14</title>
<g id="a_node14"><a xlink:href="../../da/dcf/test__RootTreeWriter_8cxx.html" target="_top" xlink:title="/home/travis/build\l/AliceO2Group/AliceO2\l/Framework/Utils/test\l/test_RootTreeWriter.cxx">
<polygon fill="none" stroke="black" points="1563.5,-1 1563.5,-53 1690.5,-53 1690.5,-1 1563.5,-1"/>
<text text-anchor="start" x="1571.5" y="-41" font-family="Helvetica,sans-Serif" font-size="10.00">/home/travis/build</text>
<text text-anchor="start" x="1571.5" y="-30" font-family="Helvetica,sans-Serif" font-size="10.00">/AliceO2Group/AliceO2</text>
<text text-anchor="start" x="1571.5" y="-19" font-family="Helvetica,sans-Serif" font-size="10.00">/Framework/Utils/test</text>
<text text-anchor="middle" x="1627" y="-8" font-family="Helvetica,sans-Serif" font-size="10.00">/test_RootTreeWriter.cxx</text>
</a>
</g>
</g>
<!-- Node13&#45;&gt;Node14 -->
<g id="edge13" class="edge"><title>Node13&#45;&gt;Node14</title>
<path fill="none" stroke="midnightblue" d="M1661.34,-81.9652C1655.23,-72.3545 1648.68,-62.0742 1642.97,-53.0921"/>
<polygon fill="midnightblue" stroke="midnightblue" points="1658.48,-83.9892 1666.8,-90.5468 1664.39,-80.231 1658.48,-83.9892"/>
</g>
<!-- Node13&#45;&gt;Node15 -->
<g id="edge14" class="edge"><title>Node13&#45;&gt;Node15</title>
<path fill="none" stroke="midnightblue" d="M1722.33,-84.5335C1735.18,-74.2542 1749.28,-62.9791 1761.47,-53.221"/>
<polygon fill="midnightblue" stroke="midnightblue" points="1720.14,-81.8027 1714.52,-90.7827 1724.52,-87.2688 1720.14,-81.8027"/>
</g>
</g>
</svg>
        <g id="navigator" transform="translate(0 0)" fill="#404254">
                <rect fill="#f2f5e9" fill-opacity="0.5" stroke="#606060" stroke-width=".5" x="0" y="0" width="60" height="60"/>
                <use id="zoomplus" xlink:href="#zoomPlus" x="17" y="9" onmousedown="handleZoom(evt,'in')"/>
                <use id="zoomminus" xlink:href="#zoomMin" x="42" y="9" onmousedown="handleZoom(evt,'out')"/>
                <use id="reset" xlink:href="#resetDef" x="30" y="36" onmousedown="handleReset()"/>
                <g id="arrowUp" xlink:href="#dirArrow" transform="translate(30 24)" onmousedown="handlePan(0,-1)">
                  <use xlink:href="#rim" fill="#404040">
                        <set attributeName="fill" to="#808080" begin="arrowUp.mouseover" end="arrowUp.mouseout"/>
                  </use>
                  <path fill="none" stroke="white" stroke-width="1.5" d="M0,-3.0v7 M-2.5,-0.5L0,-3.0L2.5,-0.5"/>
                </g>
                <g id="arrowRight" xlink:href="#dirArrow" transform="rotate(90) translate(36 -43)" onmousedown="handlePan(1,0)">
                  <use xlink:href="#rim" fill="#404040">
                        <set attributeName="fill" to="#808080" begin="arrowRight.mouseover" end="arrowRight.mouseout"/>
                  </use>
                  <path fill="none" stroke="white" stroke-width="1.5" d="M0,-3.0v7 M-2.5,-0.5L0,-3.0L2.5,-0.5"/>
                </g>
                <g id="arrowDown" xlink:href="#dirArrow" transform="rotate(180) translate(-30 -48)" onmousedown="handlePan(0,1)">
                  <use xlink:href="#rim" fill="#404040">
                        <set attributeName="fill" to="#808080" begin="arrowDown.mouseover" end="arrowDown.mouseout"/>
                  </use>
                  <path fill="none" stroke="white" stroke-width="1.5" d="M0,-3.0v7 M-2.5,-0.5L0,-3.0L2.5,-0.5"/>
                </g>
                <g id="arrowLeft" xlink:href="#dirArrow" transform="rotate(270) translate(-36 17)" onmousedown="handlePan(-1,0)">
                  <use xlink:href="#rim" fill="#404040">
                        <set attributeName="fill" to="#808080" begin="arrowLeft.mouseover" end="arrowLeft.mouseout"/>
                  </use>
                  <path fill="none" stroke="white" stroke-width="1.5" d="M0,-3.0v7 M-2.5,-0.5L0,-3.0L2.5,-0.5"/>
                </g>
        </g>
        <svg viewBox="0 0 15 15" width="100%" height="30px" preserveAspectRatio="xMaxYMin meet">
         <g id="arrow_out" transform="scale(0.3 0.3)">
          <a xlink:href="ControlService_8h__dep__incl_org.svg" target="_base">
           <rect id="button" ry="5" rx="5" y="6" x="6" height="38" width="38"
                fill="#f2f5e9" fill-opacity="0.5" stroke="#606060" stroke-width="1.0"/>
           <path id="arrow"
             d="M 11.500037,31.436501 C 11.940474,20.09759 22.043105,11.32322 32.158766,21.979434 L 37.068811,17.246167 C 37.068811,17.246167 37.088388,32 37.088388,32 L 22.160133,31.978069 C 22.160133,31.978069 26.997745,27.140456 26.997745,27.140456 C 18.528582,18.264221 13.291696,25.230495 11.500037,31.436501 z"
             style="fill:#404040;"/>
          </a>
         </g>
        </svg>
</svg>
