<?xml version="1.0" encoding="UTF-8" standalone="no"?>
<!DOCTYPE svg PUBLIC "-//W3C//DTD SVG 1.1//EN"
 "http://www.w3.org/Graphics/SVG/1.1/DTD/svg11.dtd">
<!-- Generated by graphviz version 2.36.0 (20140111.2315)
 -->
<!-- Title: o2::memoryResources::ChannelResource Pages: 1 -->
<svg width="142pt" height="400pt"
 viewBox="0.00 0.00 142.00 400.00" xmlns="http://www.w3.org/2000/svg" xmlns:xlink="http://www.w3.org/1999/xlink">
<g id="graph0" class="graph" transform="scale(1 1) rotate(0) translate(4 396)">
<title>o2::memoryResources::ChannelResource</title>
<!-- Node1 -->
<g id="node1" class="node"><title>Node1</title>
<polygon fill="#bfbfbf" stroke="black" points="-0.5,-1 -0.5,-157 134.5,-157 134.5,-1 -0.5,-1"/>
<text text-anchor="start" x="7.5" y="-145" font-family="Helvetica,sans-Serif" font-size="10.00">o2::memoryResources</text>
<text text-anchor="middle" x="67" y="-134" font-family="Helvetica,sans-Serif" font-size="10.00">::ChannelResource</text>
<polyline fill="none" stroke="black" points="-0.5,-127 134.5,-127 "/>
<text text-anchor="start" x="7.5" y="-115" font-family="Helvetica,sans-Serif" font-size="10.00"># factory</text>
<text text-anchor="start" x="7.5" y="-104" font-family="Helvetica,sans-Serif" font-size="10.00"># messageMap</text>
<polyline fill="none" stroke="black" points="-0.5,-97 134.5,-97 "/>
<text text-anchor="start" x="7.5" y="-85" font-family="Helvetica,sans-Serif" font-size="10.00">+ ChannelResource()</text>
<text text-anchor="start" x="7.5" y="-74" font-family="Helvetica,sans-Serif" font-size="10.00">+ ChannelResource()</text>
<text text-anchor="start" x="7.5" y="-63" font-family="Helvetica,sans-Serif" font-size="10.00">+ getMessage()</text>
<text text-anchor="start" x="7.5" y="-52" font-family="Helvetica,sans-Serif" font-size="10.00">+ getTransportFactory()</text>
<text text-anchor="start" x="7.5" y="-41" font-family="Helvetica,sans-Serif" font-size="10.00">+ getNumberOfMessages()</text>
<text text-anchor="start" x="7.5" y="-30" font-family="Helvetica,sans-Serif" font-size="10.00"># do_allocate()</text>
<text text-anchor="start" x="7.5" y="-19" font-family="Helvetica,sans-Serif" font-size="10.00"># do_deallocate()</text>
<text text-anchor="start" x="7.5" y="-8" font-family="Helvetica,sans-Serif" font-size="10.00"># do_is_equal()</text>
</g>
<!-- Node2 -->
<g id="node2" class="node"><title>Node2</title>
<g id="a_node2"><a xlink:href="../../d1/dcc/classo2_1_1memoryResources_1_1FairMQMemoryResource.html" target="_top" xlink:title="All FairMQ related memory resources need to inherit from this interface class for the getMessage() ap...">
<polygon fill="none" stroke="black" points="-0.5,-195 -0.5,-285 134.5,-285 134.5,-195 -0.5,-195"/>
<text text-anchor="start" x="7.5" y="-273" font-family="Helvetica,sans-Serif" font-size="10.00">o2::memoryResources</text>
<text text-anchor="middle" x="67" y="-262" font-family="Helvetica,sans-Serif" font-size="10.00">::FairMQMemoryResource</text>
<polyline fill="none" stroke="black" points="-0.5,-255 134.5,-255 "/>
<text text-anchor="middle" x="67" y="-243" font-family="Helvetica,sans-Serif" font-size="10.00"> </text>
<polyline fill="none" stroke="black" points="-0.5,-236 134.5,-236 "/>
<text text-anchor="start" x="7.5" y="-224" font-family="Helvetica,sans-Serif" font-size="10.00">+ getMessage()</text>
<text text-anchor="start" x="7.5" y="-213" font-family="Helvetica,sans-Serif" font-size="10.00">+ getTransportFactory()</text>
<text text-anchor="start" x="7.5" y="-202" font-family="Helvetica,sans-Serif" font-size="10.00">+ getNumberOfMessages()</text>
</a>
</g>
</g>
<!-- Node2&#45;&gt;Node1 -->
<g id="edge1" class="edge"><title>Node2&#45;&gt;Node1</title>
<path fill="none" stroke="midnightblue" d="M67,-184.592C67,-175.768 67,-166.485 67,-157.242"/>
<polygon fill="none" stroke="midnightblue" points="63.5001,-184.71 67,-194.71 70.5001,-184.71 63.5001,-184.71"/>
</g>
<!-- Node3 -->
<g id="node3" class="node"><title>Node3</title>
<polygon fill="none" stroke="#bfbfbf" points="12.5,-323 12.5,-391 121.5,-391 121.5,-323 12.5,-323"/>
<text text-anchor="start" x="20.5" y="-379" font-family="Helvetica,sans-Serif" font-size="10.00">boost::container::pmr</text>
<text text-anchor="middle" x="67" y="-368" font-family="Helvetica,sans-Serif" font-size="10.00">::memory_resource</text>
<polyline fill="none" stroke="#bfbfbf" points="12.5,-361 121.5,-361 "/>
<text text-anchor="middle" x="67" y="-349" font-family="Helvetica,sans-Serif" font-size="10.00"> </text>
<polyline fill="none" stroke="#bfbfbf" points="12.5,-342 121.5,-342 "/>
<text text-anchor="middle" x="67" y="-330" font-family="Helvetica,sans-Serif" font-size="10.00"> </text>
</g>
<!-- Node3&#45;&gt;Node2 -->
<g id="edge2" class="edge"><title>Node3&#45;&gt;Node2</title>
<path fill="none" stroke="midnightblue" d="M67,-312.555C67,-303.646 67,-294.257 67,-285.318"/>
<polygon fill="none" stroke="midnightblue" points="63.5001,-312.737 67,-322.737 70.5001,-312.737 63.5001,-312.737"/>
</g>
</g>
</svg>
