<?xml version="1.0" encoding="UTF-8" standalone="no"?>
<!DOCTYPE svg PUBLIC "-//W3C//DTD SVG 1.1//EN"
 "http://www.w3.org/Graphics/SVG/1.1/DTD/svg11.dtd">
<!-- Generated by graphviz version 2.36.0 (20140111.2315)
 -->
<!-- Title: o2::framework::ErrorContext Pages: 1 -->
<svg width="406pt" height="416pt"
 viewBox="0.00 0.00 406.00 416.00" xmlns="http://www.w3.org/2000/svg" xmlns:xlink="http://www.w3.org/1999/xlink">
<g id="graph0" class="graph" transform="scale(1 1) rotate(0) translate(4 412)">
<title>o2::framework::ErrorContext</title>
<!-- Node1 -->
<g id="node1" class="node"><title>Node1</title>
<polygon fill="#bfbfbf" stroke="black" points="94,-1 94,-91 234,-91 234,-1 94,-1"/>
<text text-anchor="middle" x="164" y="-79" font-family="Helvetica,sans-Serif" font-size="10.00">o2::framework::ErrorContext</text>
<polyline fill="none" stroke="black" points="94,-72 234,-72 "/>
<text text-anchor="middle" x="164" y="-60" font-family="Helvetica,sans-Serif" font-size="10.00"> </text>
<polyline fill="none" stroke="black" points="94,-53 234,-53 "/>
<text text-anchor="start" x="102" y="-41" font-family="Helvetica,sans-Serif" font-size="10.00">+ ErrorContext()</text>
<text text-anchor="start" x="102" y="-30" font-family="Helvetica,sans-Serif" font-size="10.00">+ inputs()</text>
<text text-anchor="start" x="102" y="-19" font-family="Helvetica,sans-Serif" font-size="10.00">+ services()</text>
<text text-anchor="start" x="102" y="-8" font-family="Helvetica,sans-Serif" font-size="10.00">+ exception()</text>
</g>
<!-- Node2 -->
<g id="node2" class="node"><title>Node2</title>
<polygon fill="none" stroke="#bfbfbf" points="0,-245.5 0,-302.5 68,-302.5 68,-245.5 0,-245.5"/>
<text text-anchor="middle" x="34" y="-290.5" font-family="Helvetica,sans-Serif" font-size="10.00">exception &amp;</text>
<polyline fill="none" stroke="#bfbfbf" points="0,-283.5 68,-283.5 "/>
<text text-anchor="middle" x="34" y="-271.5" font-family="Helvetica,sans-Serif" font-size="10.00"> </text>
<polyline fill="none" stroke="#bfbfbf" points="0,-264.5 68,-264.5 "/>
<text text-anchor="middle" x="34" y="-252.5" font-family="Helvetica,sans-Serif" font-size="10.00"> </text>
</g>
<!-- Node2&#45;&gt;Node1 -->
<g id="edge1" class="edge"><title>Node2&#45;&gt;Node1</title>
<path fill="none" stroke="#404040" d="M40.2112,-245.242C47.0216,-217.609 59.3766,-174.461 77,-140 84.5283,-125.279 88.1363,-122.464 99,-110 101.907,-106.664 104.961,-103.3 108.095,-99.9544"/>
<polygon fill="none" stroke="#404040" points="108.216,-99.8279 109.487,-92.7297 116.528,-91.1725 115.257,-98.2708 108.216,-99.8279"/>
<text text-anchor="middle" x="129.5" y="-113.5" font-family="Helvetica,sans-Serif" font-size="10.00"> +mException</text>
</g>
<!-- Node3 -->
<g id="node3" class="node"><title>Node3</title>
<g id="a_node3"><a xlink:href="../../d7/d13/classo2_1_1framework_1_1ServiceRegistry.html" target="_top" xlink:title="{o2::framework::ServiceRegistry\n||+ registerService()\l+ get()\l}">
<polygon fill="none" stroke="black" points="86.5,-240 86.5,-308 241.5,-308 241.5,-240 86.5,-240"/>
<text text-anchor="middle" x="164" y="-296" font-family="Helvetica,sans-Serif" font-size="10.00">o2::framework::ServiceRegistry</text>
<polyline fill="none" stroke="black" points="86.5,-289 241.5,-289 "/>
<text text-anchor="middle" x="164" y="-277" font-family="Helvetica,sans-Serif" font-size="10.00"> </text>
<polyline fill="none" stroke="black" points="86.5,-270 241.5,-270 "/>
<text text-anchor="start" x="94.5" y="-258" font-family="Helvetica,sans-Serif" font-size="10.00">+ registerService()</text>
<text text-anchor="start" x="94.5" y="-247" font-family="Helvetica,sans-Serif" font-size="10.00">+ get()</text>
</a>
</g>
</g>
<!-- Node3&#45;&gt;Node1 -->
<g id="edge2" class="edge"><title>Node3&#45;&gt;Node1</title>
<path fill="none" stroke="#404040" d="M164,-239.653C164,-203.892 164,-146.476 164,-103.614"/>
<polygon fill="none" stroke="#404040" points="164,-103.381 160,-97.3807 164,-91.3807 168,-97.3806 164,-103.381"/>
<text text-anchor="middle" x="192" y="-113.5" font-family="Helvetica,sans-Serif" font-size="10.00"> +mServices</text>
</g>
<!-- Node4 -->
<g id="node4" class="node"><title>Node4</title>
<g id="a_node4"><a xlink:href="../../df/d24/classo2_1_1framework_1_1InputRecord.html" target="_top" xlink:title="The input API of the Data Processing Layer This class holds the inputs which are being processed by t...">
<polygon fill="none" stroke="black" points="260,-141 260,-407 398,-407 398,-141 260,-141"/>
<text text-anchor="middle" x="329" y="-395" font-family="Helvetica,sans-Serif" font-size="10.00">o2::framework::InputRecord</text>
<polyline fill="none" stroke="black" points="260,-388 398,-388 "/>
<text text-anchor="middle" x="329" y="-376" font-family="Helvetica,sans-Serif" font-size="10.00"> </text>
<polyline fill="none" stroke="black" points="260,-369 398,-369 "/>
<text text-anchor="start" x="268" y="-357" font-family="Helvetica,sans-Serif" font-size="10.00">+ InputRecord()</text>
<text text-anchor="start" x="268" y="-346" font-family="Helvetica,sans-Serif" font-size="10.00">+ getPos()</text>
<text text-anchor="start" x="268" y="-335" font-family="Helvetica,sans-Serif" font-size="10.00">+ getPos()</text>
<text text-anchor="start" x="268" y="-324" font-family="Helvetica,sans-Serif" font-size="10.00">+ getByPos()</text>
<text text-anchor="start" x="268" y="-313" font-family="Helvetica,sans-Serif" font-size="10.00">+ get()</text>
<text text-anchor="start" x="268" y="-302" font-family="Helvetica,sans-Serif" font-size="10.00">+ get()</text>
<text text-anchor="start" x="268" y="-291" font-family="Helvetica,sans-Serif" font-size="10.00">+ get()</text>
<text text-anchor="start" x="268" y="-280" font-family="Helvetica,sans-Serif" font-size="10.00">+ get()</text>
<text text-anchor="start" x="268" y="-269" font-family="Helvetica,sans-Serif" font-size="10.00">+ get()</text>
<text text-anchor="start" x="268" y="-258" font-family="Helvetica,sans-Serif" font-size="10.00">+ get()</text>
<text text-anchor="start" x="268" y="-247" font-family="Helvetica,sans-Serif" font-size="10.00">+ get()</text>
<text text-anchor="start" x="268" y="-236" font-family="Helvetica,sans-Serif" font-size="10.00">+ get()</text>
<text text-anchor="start" x="268" y="-225" font-family="Helvetica,sans-Serif" font-size="10.00">+ get()</text>
<text text-anchor="start" x="268" y="-214" font-family="Helvetica,sans-Serif" font-size="10.00">+ get()</text>
<text text-anchor="start" x="268" y="-203" font-family="Helvetica,sans-Serif" font-size="10.00">+ isValid()</text>
<text text-anchor="start" x="268" y="-192" font-family="Helvetica,sans-Serif" font-size="10.00">+ isValid()</text>
<text text-anchor="start" x="268" y="-181" font-family="Helvetica,sans-Serif" font-size="10.00">+ isValid()</text>
<text text-anchor="start" x="268" y="-170" font-family="Helvetica,sans-Serif" font-size="10.00">+ size()</text>
<text text-anchor="start" x="268" y="-159" font-family="Helvetica,sans-Serif" font-size="10.00">+ begin()</text>
<text text-anchor="start" x="268" y="-148" font-family="Helvetica,sans-Serif" font-size="10.00">+ end()</text>
</a>
</g>
</g>
<!-- Node4&#45;&gt;Node1 -->
<g id="edge3" class="edge"><title>Node4&#45;&gt;Node1</title>
<path fill="none" stroke="#404040" d="M259.85,-154.1C256.59,-149.292 253.3,-144.574 250,-140 239.676,-125.692 235.865,-123.059 224,-110 221.032,-106.734 217.96,-103.392 214.847,-100.035"/>
<polygon fill="none" stroke="#404040" points="214.742,-99.9235 207.723,-98.2699 206.55,-91.1548 213.569,-92.8085 214.742,-99.9235"/>
<text text-anchor="middle" x="257.5" y="-113.5" font-family="Helvetica,sans-Serif" font-size="10.00"> +mInputs</text>
</g>
</g>
</svg>
