<?xml version="1.0" encoding="UTF-8" standalone="no"?>
<!DOCTYPE svg PUBLIC "-//W3C//DTD SVG 1.1//EN"
 "http://www.w3.org/Graphics/SVG/1.1/DTD/svg11.dtd">
<!-- Generated by graphviz version 2.36.0 (20140111.2315)
 -->
<!-- Title: test::MetaHeader Pages: 1 -->
<!--zoomable 976 -->
<svg id="main" version="1.1" xmlns="http://www.w3.org/2000/svg" xmlns:xlink="http://www.w3.org/1999/xlink" xml:space="preserve" onload="init(evt)">
<style type="text/css"><![CDATA[
.edge:hover path { stroke: red; }
.edge:hover polygon { stroke: red; fill: red; }
]]></style>
<script type="text/javascript"><![CDATA[
var edges = document.getElementsByTagName('g');
if (edges && edges.length) {
  for (var i=0;i<edges.length;i++) {
    if (edges[i].id.substr(0,4)=='edge') {
      edges[i].setAttribute('class','edge');
    }
  }
}
]]></script>
        <defs>
                <circle id="rim" cx="0" cy="0" r="7"/>
                <circle id="rim2" cx="0" cy="0" r="3.5"/>
                <g id="zoomPlus">
                        <use xlink:href="#rim" fill="#404040">
                                <set attributeName="fill" to="#808080" begin="zoomplus.mouseover" end="zoomplus.mouseout"/>
                        </use>
                        <path d="M-4,0h8M0,-4v8" fill="none" stroke="white" stroke-width="1.5" pointer-events="none"/>
                </g>
                <g id="zoomMin">
                        <use xlink:href="#rim" fill="#404040">
                                <set attributeName="fill" to="#808080" begin="zoomminus.mouseover" end="zoomminus.mouseout"/>
                        </use>
                        <path d="M-4,0h8" fill="none" stroke="white" stroke-width="1.5" pointer-events="none"/>
                </g>
                <g id="dirArrow">
                        <path fill="none" stroke="white" stroke-width="1.5" d="M0,-3.0v7 M-2.5,-0.5L0,-3.0L2.5,-0.5"/>
                </g>
               <g id="resetDef">
                       <use xlink:href="#rim2" fill="#404040">
                               <set attributeName="fill" to="#808080" begin="reset.mouseover" end="reset.mouseout"/>
                       </use>
               </g>
        </defs>

<script type="text/javascript">
var viewWidth = 968;
var viewHeight = 976;
var sectionId = 'dynsection-1';
</script>
<script xlink:href="../../svgpan.js"/>
<svg id="graph" class="graph">
<g id="viewport">
<title>test::MetaHeader</title>
<!-- Node1 -->
<g id="node1" class="node"><title>Node1</title>
<polygon fill="#bfbfbf" stroke="black" points="741.919,-0.5 741.919,-57.5 833.919,-57.5 833.919,-0.5 741.919,-0.5"/>
<text text-anchor="middle" x="787.919" y="-45.5" font-family="Helvetica,sans-Serif" font-size="10.00">test::MetaHeader</text>
<polyline fill="none" stroke="black" points="741.919,-38.5 833.919,-38.5 "/>
<text text-anchor="middle" x="787.919" y="-26.5" font-family="Helvetica,sans-Serif" font-size="10.00"> </text>
<polyline fill="none" stroke="black" points="741.919,-19.5 833.919,-19.5 "/>
<text text-anchor="start" x="749.919" y="-7.5" font-family="Helvetica,sans-Serif" font-size="10.00">+ MetaHeader()</text>
</g>
<!-- Node2 -->
<g id="node2" class="node"><title>Node2</title>
<g id="a_node2"><a xlink:href="../../d8/dbd/structo2_1_1header_1_1BaseHeader.html" target="_top" xlink:title="the base header struct Every header type must begin (i.e. derive) with this. Don&#39;t use this struct di...">
<polygon fill="none" stroke="black" points="566.919,-106.5 566.919,-251.5 688.919,-251.5 688.919,-106.5 566.919,-106.5"/>
<text text-anchor="middle" x="627.919" y="-239.5" font-family="Helvetica,sans-Serif" font-size="10.00">o2::header::BaseHeader</text>
<polyline fill="none" stroke="black" points="566.919,-232.5 688.919,-232.5 "/>
<text text-anchor="middle" x="627.919" y="-220.5" font-family="Helvetica,sans-Serif" font-size="10.00"> </text>
<polyline fill="none" stroke="black" points="566.919,-213.5 688.919,-213.5 "/>
<text text-anchor="start" x="574.919" y="-201.5" font-family="Helvetica,sans-Serif" font-size="10.00">+ BaseHeader()</text>
<text text-anchor="start" x="574.919" y="-190.5" font-family="Helvetica,sans-Serif" font-size="10.00">+ BaseHeader()</text>
<text text-anchor="start" x="574.919" y="-179.5" font-family="Helvetica,sans-Serif" font-size="10.00">+ BaseHeader()</text>
<text text-anchor="start" x="574.919" y="-168.5" font-family="Helvetica,sans-Serif" font-size="10.00">+ size()</text>
<text text-anchor="start" x="574.919" y="-157.5" font-family="Helvetica,sans-Serif" font-size="10.00">+ data()</text>
<text text-anchor="start" x="574.919" y="-146.5" font-family="Helvetica,sans-Serif" font-size="10.00">+ next()</text>
<text text-anchor="start" x="574.919" y="-135.5" font-family="Helvetica,sans-Serif" font-size="10.00">+ next()</text>
<text text-anchor="start" x="574.919" y="-124.5" font-family="Helvetica,sans-Serif" font-size="10.00">+ get()</text>
<text text-anchor="start" x="574.919" y="-113.5" font-family="Helvetica,sans-Serif" font-size="10.00">+ get()</text>
</a>
</g>
</g>
<!-- Node2&#45;&gt;Node1 -->
<g id="edge1" class="edge"><title>Node2&#45;&gt;Node1</title>
<path fill="none" stroke="midnightblue" d="M696.861,-114.229C718.331,-94.3687 740.886,-73.506 758.176,-57.5124"/>
<polygon fill="none" stroke="midnightblue" points="694.286,-111.843 689.322,-121.203 699.04,-116.982 694.286,-111.843"/>
</g>
<!-- Node3 -->
<g id="node3" class="node"><title>Node3</title>
<g id="a_node3"><a xlink:href="../../d9/db3/structo2_1_1header_1_1Descriptor.html" target="_top" xlink:title="{o2::header::Descriptor\l\&lt; gSizeHeaderDescriptionString \&gt;\n||+ Descriptor()\l+ Descriptor()\l+ Descriptor()\l+ Descriptor()\l+ operator=()\l+ operator ItgType()\l+ runtimeInit()\l+ operator==()\l+ operator==()\l+ operator!=()\l+ operator!=()\l+ as()\l+ print()\l}">
<polygon fill="none" stroke="black" points="488.919,-377 488.919,-577 654.919,-577 654.919,-377 488.919,-377"/>
<text text-anchor="start" x="496.919" y="-565" font-family="Helvetica,sans-Serif" font-size="10.00">o2::header::Descriptor</text>
<text text-anchor="middle" x="571.919" y="-554" font-family="Helvetica,sans-Serif" font-size="10.00">&lt; gSizeHeaderDescriptionString &gt;</text>
<polyline fill="none" stroke="black" points="488.919,-547 654.919,-547 "/>
<text text-anchor="middle" x="571.919" y="-535" font-family="Helvetica,sans-Serif" font-size="10.00"> </text>
<polyline fill="none" stroke="black" points="488.919,-528 654.919,-528 "/>
<text text-anchor="start" x="496.919" y="-516" font-family="Helvetica,sans-Serif" font-size="10.00">+ Descriptor()</text>
<text text-anchor="start" x="496.919" y="-505" font-family="Helvetica,sans-Serif" font-size="10.00">+ Descriptor()</text>
<text text-anchor="start" x="496.919" y="-494" font-family="Helvetica,sans-Serif" font-size="10.00">+ Descriptor()</text>
<text text-anchor="start" x="496.919" y="-483" font-family="Helvetica,sans-Serif" font-size="10.00">+ Descriptor()</text>
<text text-anchor="start" x="496.919" y="-472" font-family="Helvetica,sans-Serif" font-size="10.00">+ operator=()</text>
<text text-anchor="start" x="496.919" y="-461" font-family="Helvetica,sans-Serif" font-size="10.00">+ operator ItgType()</text>
<text text-anchor="start" x="496.919" y="-450" font-family="Helvetica,sans-Serif" font-size="10.00">+ runtimeInit()</text>
<text text-anchor="start" x="496.919" y="-439" font-family="Helvetica,sans-Serif" font-size="10.00">+ operator==()</text>
<text text-anchor="start" x="496.919" y="-428" font-family="Helvetica,sans-Serif" font-size="10.00">+ operator==()</text>
<text text-anchor="start" x="496.919" y="-417" font-family="Helvetica,sans-Serif" font-size="10.00">+ operator!=()</text>
<text text-anchor="start" x="496.919" y="-406" font-family="Helvetica,sans-Serif" font-size="10.00">+ operator!=()</text>
<text text-anchor="start" x="496.919" y="-395" font-family="Helvetica,sans-Serif" font-size="10.00">+ as()</text>
<text text-anchor="start" x="496.919" y="-384" font-family="Helvetica,sans-Serif" font-size="10.00">+ print()</text>
</a>
</g>
</g>
<!-- Node3&#45;&gt;Node2 -->
<g id="edge2" class="edge"><title>Node3&#45;&gt;Node2</title>
<path fill="none" stroke="#404040" d="M590.722,-376.613C597.658,-339.955 605.44,-298.821 612.086,-263.689"/>
<polygon fill="none" stroke="#404040" points="612.156,-263.32 609.341,-256.681 614.387,-251.529 617.202,-258.168 612.156,-263.32"/>
<text text-anchor="middle" x="638.419" y="-311.5" font-family="Helvetica,sans-Serif" font-size="10.00"> +description</text>
</g>
<!-- Node4 -->
<g id="node4" class="node"><title>Node4</title>
<polygon fill="none" stroke="#bfbfbf" points="223.919,-909.5 223.919,-966.5 261.919,-966.5 261.919,-909.5 223.919,-909.5"/>
<text text-anchor="middle" x="242.919" y="-954.5" font-family="Helvetica,sans-Serif" font-size="10.00">Type</text>
<polyline fill="none" stroke="#bfbfbf" points="223.919,-947.5 261.919,-947.5 "/>
<text text-anchor="middle" x="242.919" y="-935.5" font-family="Helvetica,sans-Serif" font-size="10.00"> </text>
<polyline fill="none" stroke="#bfbfbf" points="223.919,-928.5 261.919,-928.5 "/>
<text text-anchor="middle" x="242.919" y="-916.5" font-family="Helvetica,sans-Serif" font-size="10.00"> </text>
</g>
<!-- Node4&#45;&gt;Node3 -->
<g id="edge3" class="edge"><title>Node4&#45;&gt;Node3</title>
<path fill="none" stroke="#404040" d="M262.255,-929.503C279.325,-923.102 304.992,-914.004 327.919,-908 370.336,-896.892 395.015,-922.068 424.919,-890 502.41,-806.902 379.02,-721.441 453.919,-636 475.663,-611.196 501.766,-640.463 525.919,-618 535.005,-609.55 542.3,-599.276 548.155,-588.174"/>
<polygon fill="none" stroke="#404040" points="548.172,-588.138 547.146,-581.001 553.34,-577.308 554.366,-584.446 548.172,-588.138"/>
<text text-anchor="middle" x="463.919" y="-734.5" font-family="Helvetica,sans-Serif" font-size="10.00"> +itg</text>
</g>
<!-- Node8 -->
<g id="node8" class="node"><title>Node8</title>
<g id="a_node8"><a xlink:href="../../d9/db3/structo2_1_1header_1_1Descriptor.html" target="_top" xlink:title="{o2::header::Descriptor\l\&lt; N, PrinterPolicy \&gt;\n||+ Descriptor()\l+ Descriptor()\l+ Descriptor()\l+ operator=()\l+ operator ItgType()\l+ Descriptor()\l+ runtimeInit()\l+ operator==()\l+ operator!=()\l+ operator==()\l+ operator!=()\l+ as()\l+ print()\l}">
<polygon fill="none" stroke="black" points="202.419,-637 202.419,-837 315.419,-837 315.419,-637 202.419,-637"/>
<text text-anchor="start" x="210.419" y="-825" font-family="Helvetica,sans-Serif" font-size="10.00">o2::header::Descriptor</text>
<text text-anchor="middle" x="258.919" y="-814" font-family="Helvetica,sans-Serif" font-size="10.00">&lt; N, PrinterPolicy &gt;</text>
<polyline fill="none" stroke="black" points="202.419,-807 315.419,-807 "/>
<text text-anchor="middle" x="258.919" y="-795" font-family="Helvetica,sans-Serif" font-size="10.00"> </text>
<polyline fill="none" stroke="black" points="202.419,-788 315.419,-788 "/>
<text text-anchor="start" x="210.419" y="-776" font-family="Helvetica,sans-Serif" font-size="10.00">+ Descriptor()</text>
<text text-anchor="start" x="210.419" y="-765" font-family="Helvetica,sans-Serif" font-size="10.00">+ Descriptor()</text>
<text text-anchor="start" x="210.419" y="-754" font-family="Helvetica,sans-Serif" font-size="10.00">+ Descriptor()</text>
<text text-anchor="start" x="210.419" y="-743" font-family="Helvetica,sans-Serif" font-size="10.00">+ operator=()</text>
<text text-anchor="start" x="210.419" y="-732" font-family="Helvetica,sans-Serif" font-size="10.00">+ operator ItgType()</text>
<text text-anchor="start" x="210.419" y="-721" font-family="Helvetica,sans-Serif" font-size="10.00">+ Descriptor()</text>
<text text-anchor="start" x="210.419" y="-710" font-family="Helvetica,sans-Serif" font-size="10.00">+ runtimeInit()</text>
<text text-anchor="start" x="210.419" y="-699" font-family="Helvetica,sans-Serif" font-size="10.00">+ operator==()</text>
<text text-anchor="start" x="210.419" y="-688" font-family="Helvetica,sans-Serif" font-size="10.00">+ operator!=()</text>
<text text-anchor="start" x="210.419" y="-677" font-family="Helvetica,sans-Serif" font-size="10.00">+ operator==()</text>
<text text-anchor="start" x="210.419" y="-666" font-family="Helvetica,sans-Serif" font-size="10.00">+ operator!=()</text>
<text text-anchor="start" x="210.419" y="-655" font-family="Helvetica,sans-Serif" font-size="10.00">+ as()</text>
<text text-anchor="start" x="210.419" y="-644" font-family="Helvetica,sans-Serif" font-size="10.00">+ print()</text>
</a>
</g>
</g>
<!-- Node4&#45;&gt;Node8 -->
<g id="edge8" class="edge"><title>Node4&#45;&gt;Node8</title>
<path fill="none" stroke="#404040" d="M242.48,-909.227C242.429,-893.576 242.691,-873.677 243.919,-856 244.074,-853.779 244.242,-851.536 244.422,-849.276"/>
<polygon fill="none" stroke="#404040" points="244.444,-849.022 240.984,-842.695 245.493,-837.068 248.953,-843.395 244.444,-849.022"/>
<text text-anchor="middle" x="253.919" y="-870.5" font-family="Helvetica,sans-Serif" font-size="10.00"> +itg</text>
</g>
<!-- Node10 -->
<g id="node10" class="node"><title>Node10</title>
<g id="a_node10"><a xlink:href="../../d9/db3/structo2_1_1header_1_1Descriptor.html" target="_top" xlink:title="{o2::header::Descriptor\l\&lt; gSizeSerializationMethodString \&gt;\n||+ Descriptor()\l+ Descriptor()\l+ Descriptor()\l+ Descriptor()\l+ operator=()\l+ operator ItgType()\l+ runtimeInit()\l+ operator==()\l+ operator==()\l+ operator!=()\l+ operator!=()\l+ as()\l+ print()\l}">
<polygon fill="none" stroke="black" points="167.919,-377 167.919,-577 337.919,-577 337.919,-377 167.919,-377"/>
<text text-anchor="start" x="175.919" y="-565" font-family="Helvetica,sans-Serif" font-size="10.00">o2::header::Descriptor</text>
<text text-anchor="middle" x="252.919" y="-554" font-family="Helvetica,sans-Serif" font-size="10.00">&lt; gSizeSerializationMethodString &gt;</text>
<polyline fill="none" stroke="black" points="167.919,-547 337.919,-547 "/>
<text text-anchor="middle" x="252.919" y="-535" font-family="Helvetica,sans-Serif" font-size="10.00"> </text>
<polyline fill="none" stroke="black" points="167.919,-528 337.919,-528 "/>
<text text-anchor="start" x="175.919" y="-516" font-family="Helvetica,sans-Serif" font-size="10.00">+ Descriptor()</text>
<text text-anchor="start" x="175.919" y="-505" font-family="Helvetica,sans-Serif" font-size="10.00">+ Descriptor()</text>
<text text-anchor="start" x="175.919" y="-494" font-family="Helvetica,sans-Serif" font-size="10.00">+ Descriptor()</text>
<text text-anchor="start" x="175.919" y="-483" font-family="Helvetica,sans-Serif" font-size="10.00">+ Descriptor()</text>
<text text-anchor="start" x="175.919" y="-472" font-family="Helvetica,sans-Serif" font-size="10.00">+ operator=()</text>
<text text-anchor="start" x="175.919" y="-461" font-family="Helvetica,sans-Serif" font-size="10.00">+ operator ItgType()</text>
<text text-anchor="start" x="175.919" y="-450" font-family="Helvetica,sans-Serif" font-size="10.00">+ runtimeInit()</text>
<text text-anchor="start" x="175.919" y="-439" font-family="Helvetica,sans-Serif" font-size="10.00">+ operator==()</text>
<text text-anchor="start" x="175.919" y="-428" font-family="Helvetica,sans-Serif" font-size="10.00">+ operator==()</text>
<text text-anchor="start" x="175.919" y="-417" font-family="Helvetica,sans-Serif" font-size="10.00">+ operator!=()</text>
<text text-anchor="start" x="175.919" y="-406" font-family="Helvetica,sans-Serif" font-size="10.00">+ operator!=()</text>
<text text-anchor="start" x="175.919" y="-395" font-family="Helvetica,sans-Serif" font-size="10.00">+ as()</text>
<text text-anchor="start" x="175.919" y="-384" font-family="Helvetica,sans-Serif" font-size="10.00">+ print()</text>
</a>
</g>
</g>
<!-- Node4&#45;&gt;Node10 -->
<g id="edge17" class="edge"><title>Node4&#45;&gt;Node10</title>
<path fill="none" stroke="#404040" d="M223.752,-928.667C208.562,-920.972 188.235,-908.004 177.919,-890 153.154,-846.777 136.162,-789.968 172.919,-636 176.711,-620.117 182.373,-604.024 188.965,-588.492"/>
<polygon fill="none" stroke="#404040" points="189.064,-588.267 187.832,-581.162 193.917,-577.292 195.149,-584.397 189.064,-588.267"/>
<text text-anchor="middle" x="182.919" y="-734.5" font-family="Helvetica,sans-Serif" font-size="10.00"> +itg</text>
</g>
<!-- Node5 -->
<g id="node5" class="node"><title>Node5</title>
<polygon fill="none" stroke="#bfbfbf" points="628.419,-909 628.419,-967 657.419,-967 657.419,-909 628.419,-909"/>
<polyline fill="none" stroke="#bfbfbf" points="628.419,-947 657.419,-947 "/>
<text text-anchor="middle" x="642.919" y="-935" font-family="Helvetica,sans-Serif" font-size="10.00"> </text>
<polyline fill="none" stroke="#bfbfbf" points="628.419,-928 657.419,-928 "/>
<text text-anchor="middle" x="642.919" y="-916" font-family="Helvetica,sans-Serif" font-size="10.00"> </text>
</g>
<!-- Node5&#45;&gt;Node2 -->
<g id="edge12" class="edge"><title>Node5&#45;&gt;Node2</title>
<path fill="none" stroke="#404040" d="M651.27,-908.704C656.626,-889.064 663.088,-862.185 665.919,-838 690.722,-626.109 668.253,-571.336 668.919,-358 669.041,-318.889 677.215,-308.221 668.919,-270 668.421,-267.703 667.858,-265.395 667.24,-263.083"/>
<polygon fill="none" stroke="#404040" points="667.217,-263.006 661.644,-258.43 663.725,-251.525 669.298,-256.102 667.217,-263.006"/>
<text text-anchor="middle" x="693.419" y="-604.5" font-family="Helvetica,sans-Serif" font-size="10.00"> +@11</text>
</g>
<!-- Node5&#45;&gt;Node2 -->
<g id="edge14" class="edge"><title>Node5&#45;&gt;Node2</title>
<path fill="none" stroke="#404040" d="M657.534,-918.219C663.364,-909.95 669.683,-899.883 673.919,-890 701.148,-826.474 706.444,-723.92 712.919,-618 722.388,-463.123 734.484,-417.037 684.919,-270 684.112,-267.604 683.228,-265.207 682.278,-262.816"/>
<polygon fill="none" stroke="#404040" points="682.22,-262.684 676.144,-258.801 677.391,-251.699 683.467,-255.582 682.22,-262.684"/>
<text text-anchor="middle" x="730.419" y="-604.5" font-family="Helvetica,sans-Serif" font-size="10.00"> +@13</text>
</g>
<!-- Node5&#45;&gt;Node3 -->
<g id="edge4" class="edge"><title>Node5&#45;&gt;Node3</title>
<path fill="none" stroke="#404040" d="M641.701,-908.822C638.724,-850.037 629.361,-710.292 603.919,-596 603.409,-593.708 602.883,-591.394 602.344,-589.063"/>
<polygon fill="none" stroke="#404040" points="602.324,-588.981 597.044,-584.069 599.547,-577.307 604.827,-582.218 602.324,-588.981"/>
<text text-anchor="middle" x="649.419" y="-734.5" font-family="Helvetica,sans-Serif" font-size="10.00"> +@9</text>
</g>
<!-- Node5&#45;&gt;Node8 -->
<g id="edge9" class="edge"><title>Node5&#45;&gt;Node8</title>
<path fill="none" stroke="#404040" d="M628.368,-935.681C580.982,-930.754 428.481,-909.842 329.919,-838 328.204,-836.75 326.515,-835.445 324.852,-834.093"/>
<polygon fill="none" stroke="#404040" points="324.578,-833.849 317.438,-832.841 315.622,-825.862 322.763,-826.87 324.578,-833.849"/>
<text text-anchor="middle" x="437.419" y="-870.5" font-family="Helvetica,sans-Serif" font-size="10.00"> +@9</text>
</g>
<!-- Node5&#45;&gt;Node10 -->
<g id="edge18" class="edge"><title>Node5&#45;&gt;Node10</title>
<path fill="none" stroke="#404040" d="M628.339,-918.103C614.442,-899.014 594.163,-868.119 583.919,-838 548.434,-733.669 625.938,-650.08 529.919,-596 462.416,-557.981 424.589,-608.522 349.453,-577.774"/>
<polygon fill="none" stroke="#404040" points="349.019,-577.578 341.904,-578.747 338.088,-572.628 345.204,-571.459 349.019,-577.578"/>
<text text-anchor="middle" x="596.419" y="-734.5" font-family="Helvetica,sans-Serif" font-size="10.00"> +@9</text>
</g>
<!-- Node6 -->
<g id="node6" class="node"><title>Node6</title>
<polygon fill="none" stroke="#bfbfbf" points="60.4193,-909.5 60.4193,-966.5 95.4193,-966.5 95.4193,-909.5 60.4193,-909.5"/>
<text text-anchor="middle" x="77.9193" y="-954.5" font-family="Helvetica,sans-Serif" font-size="10.00">char</text>
<polyline fill="none" stroke="#bfbfbf" points="60.4193,-947.5 95.4193,-947.5 "/>
<text text-anchor="middle" x="77.9193" y="-935.5" font-family="Helvetica,sans-Serif" font-size="10.00"> </text>
<polyline fill="none" stroke="#bfbfbf" points="60.4193,-928.5 95.4193,-928.5 "/>
<text text-anchor="middle" x="77.9193" y="-916.5" font-family="Helvetica,sans-Serif" font-size="10.00"> </text>
</g>
<!-- Node6&#45;&gt;Node2 -->
<g id="edge15" class="edge"><title>Node6&#45;&gt;Node2</title>
<path fill="none" stroke="#404040" d="M60.2619,-911.38C56.1344,-904.633 52.0382,-897.217 48.9193,-890 39.4246,-868.03 39.2355,-861.542 34.9193,-838 15.4428,-731.772 -18.2686,-699.398 12.9193,-596 46.8075,-483.649 87.1263,-468.827 158.919,-376 197.622,-325.958 199.358,-302.019 253.919,-270 285.351,-251.554 298.441,-260.335 333.919,-252 409.418,-234.263 495.578,-213.048 555.014,-198.259"/>
<polygon fill="none" stroke="#404040" points="555.261,-198.198 560.117,-192.866 566.906,-195.298 562.05,-200.629 555.261,-198.198"/>
<text text-anchor="middle" x="43.4193" y="-604.5" font-family="Helvetica,sans-Serif" font-size="10.00"> +magicString</text>
</g>
<!-- Node6&#45;&gt;Node3 -->
<g id="edge5" class="edge"><title>Node6&#45;&gt;Node3</title>
<path fill="none" stroke="#404040" d="M80.9765,-909.296C88.9322,-839.043 110.781,-657.937 126.919,-636 190.153,-550.045 402.013,-599.77 477.221,-579.648"/>
<polygon fill="none" stroke="#404040" points="477.57,-579.521 481.839,-573.709 488.846,-575.415 484.577,-581.226 477.57,-579.521"/>
<text text-anchor="middle" x="137.419" y="-734.5" font-family="Helvetica,sans-Serif" font-size="10.00"> +str</text>
</g>
<!-- Node6&#45;&gt;Node8 -->
<g id="edge10" class="edge"><title>Node6&#45;&gt;Node8</title>
<path fill="none" stroke="#404040" d="M95.7869,-922.995C118.514,-904.733 158.354,-871.19 187.919,-838 190.21,-835.429 192.494,-832.783 194.764,-830.084"/>
<polygon fill="none" stroke="#404040" points="194.82,-830.014 195.52,-822.837 202.414,-820.722 201.714,-827.899 194.82,-830.014"/>
<text text-anchor="middle" x="179.419" y="-870.5" font-family="Helvetica,sans-Serif" font-size="10.00"> +str</text>
</g>
<!-- Node6&#45;&gt;Node10 -->
<g id="edge19" class="edge"><title>Node6&#45;&gt;Node10</title>
<path fill="none" stroke="#404040" d="M67.5956,-909.13C48.7706,-853.328 15.087,-725.564 63.9193,-636 86.6988,-594.22 116.96,-607.975 153.919,-578 155.517,-576.704 157.117,-575.385 158.717,-574.046"/>
<polygon fill="none" stroke="#404040" points="158.77,-574.001 160.713,-567.056 167.87,-566.178 165.928,-573.123 158.77,-574.001"/>
<text text-anchor="middle" x="74.4193" y="-734.5" font-family="Helvetica,sans-Serif" font-size="10.00"> +str</text>
</g>
<!-- Node7 -->
<g id="node7" class="node"><title>Node7</title>
<polygon fill="none" stroke="#bfbfbf" points="337.419,-909.5 337.419,-966.5 366.419,-966.5 366.419,-909.5 337.419,-909.5"/>
<text text-anchor="middle" x="351.919" y="-954.5" font-family="Helvetica,sans-Serif" font-size="10.00">int</text>
<polyline fill="none" stroke="#bfbfbf" points="337.419,-947.5 366.419,-947.5 "/>
<text text-anchor="middle" x="351.919" y="-935.5" font-family="Helvetica,sans-Serif" font-size="10.00"> </text>
<polyline fill="none" stroke="#bfbfbf" points="337.419,-928.5 366.419,-928.5 "/>
<text text-anchor="middle" x="351.919" y="-916.5" font-family="Helvetica,sans-Serif" font-size="10.00"> </text>
</g>
<!-- Node7&#45;&gt;Node3 -->
<g id="edge6" class="edge"><title>Node7&#45;&gt;Node3</title>
<path fill="none" stroke="#404040" d="M366.471,-934.449C388.677,-929.761 430.771,-917.606 452.919,-890 525.259,-799.832 434.126,-724.144 508.919,-636 522.856,-619.575 540.728,-635.029 553.919,-618 560.697,-609.25 565.644,-599.23 569.194,-588.661"/>
<polygon fill="none" stroke="#404040" points="569.226,-588.549 567.026,-581.682 572.519,-577.01 574.719,-583.878 569.226,-588.549"/>
<text text-anchor="middle" x="534.419" y="-745.5" font-family="Helvetica,sans-Serif" font-size="10.00"> +arraySize</text>
<text text-anchor="middle" x="534.419" y="-734.5" font-family="Helvetica,sans-Serif" font-size="10.00">+size</text>
<text text-anchor="middle" x="534.419" y="-723.5" font-family="Helvetica,sans-Serif" font-size="10.00">+bitcount</text>
</g>
<!-- Node7&#45;&gt;Node8 -->
<g id="edge11" class="edge"><title>Node7&#45;&gt;Node8</title>
<path fill="none" stroke="#404040" d="M337.217,-930.496C322.08,-922.997 299.043,-909.19 286.919,-890 279.06,-877.56 273.283,-863.474 269.056,-849.019"/>
<polygon fill="none" stroke="#404040" points="269.045,-848.976 263.649,-844.192 265.989,-837.371 271.385,-842.155 269.045,-848.976"/>
<text text-anchor="middle" x="312.419" y="-881.5" font-family="Helvetica,sans-Serif" font-size="10.00"> +arraySize</text>
<text text-anchor="middle" x="312.419" y="-870.5" font-family="Helvetica,sans-Serif" font-size="10.00">+size</text>
<text text-anchor="middle" x="312.419" y="-859.5" font-family="Helvetica,sans-Serif" font-size="10.00">+bitcount</text>
</g>
<!-- Node7&#45;&gt;Node10 -->
<g id="edge20" class="edge"><title>Node7&#45;&gt;Node10</title>
<path fill="none" stroke="#404040" d="M355.58,-909.076C362.302,-849.601 372.695,-706.806 334.919,-596 334.036,-593.41 333.078,-590.825 332.054,-588.25"/>
<polygon fill="none" stroke="#404040" points="331.959,-588.032 325.892,-584.134 327.158,-577.035 333.224,-580.933 331.959,-588.032"/>
<text text-anchor="middle" x="388.419" y="-745.5" font-family="Helvetica,sans-Serif" font-size="10.00"> +arraySize</text>
<text text-anchor="middle" x="388.419" y="-734.5" font-family="Helvetica,sans-Serif" font-size="10.00">+size</text>
<text text-anchor="middle" x="388.419" y="-723.5" font-family="Helvetica,sans-Serif" font-size="10.00">+bitcount</text>
</g>
<!-- Node8&#45;&gt;Node1 -->
<g id="edge25" class="edge"><title>Node8&#45;&gt;Node1</title>
<path fill="none" stroke="#404040" d="M202.416,-644.655C200.567,-641.733 198.731,-638.842 196.919,-636 180.354,-610.013 167.732,-607.531 158.919,-578 119.625,-446.324 97.1333,-374.879 185.919,-270 329.153,-100.804 608.501,-49.8853 729.602,-35.4043"/>
<polygon fill="none" stroke="#404040" points="729.93,-35.3668 735.435,-30.7095 741.851,-34.0001 736.346,-38.6575 729.93,-35.3668"/>
<text text-anchor="middle" x="219.919" y="-311.5" font-family="Helvetica,sans-Serif" font-size="10.00"> +sHeaderType</text>
</g>
<!-- Node8&#45;&gt;Node2 -->
<g id="edge22" class="edge"><title>Node8&#45;&gt;Node2</title>
<path fill="none" stroke="#404040" d="M315.485,-662.062C324.362,-647.979 332.657,-632.953 338.919,-618 381.146,-517.166 327.07,-469.976 382.919,-376 424.16,-306.604 499.759,-251.87 556.114,-218.079"/>
<polygon fill="none" stroke="#404040" points="556.417,-217.9 559.556,-211.408 566.756,-211.808 563.617,-218.3 556.417,-217.9"/>
<text text-anchor="middle" x="431.419" y="-480" font-family="Helvetica,sans-Serif" font-size="10.00"> +sHeaderType</text>
<text text-anchor="middle" x="431.419" y="-469" font-family="Helvetica,sans-Serif" font-size="10.00">+sSerializationMethod</text>
</g>
<!-- Node8&#45;&gt;Node3 -->
<g id="edge7" class="edge"><title>Node8&#45;&gt;Node3</title>
<path fill="none" stroke="orange" d="M323.071,-641.433C325.306,-639.533 327.589,-637.717 329.919,-636 350.628,-620.747 362.855,-631.218 384.919,-618 397.054,-610.73 395.593,-602.94 407.919,-596 434.787,-580.872 448.34,-593.628 474.919,-578 479.61,-575.242 484.226,-572.196 488.744,-568.934"/>
<polygon fill="orange" stroke="orange" points="320.689,-638.869 315.665,-648.197 325.41,-644.038 320.689,-638.869"/>
<text text-anchor="start" x="407.919" y="-610" font-family="Helvetica,sans-Serif" font-size="10.00"> &lt; gSizeHeaderDescription</text>
<text text-anchor="middle" x="466.919" y="-599" font-family="Helvetica,sans-Serif" font-size="10.00">String &gt;</text>
</g>
<!-- Node8&#45;&gt;Node10 -->
<g id="edge21" class="edge"><title>Node8&#45;&gt;Node10</title>
<path fill="none" stroke="orange" d="M213.786,-626.728C213.099,-623.806 212.474,-620.893 211.919,-618 209.367,-604.693 209.672,-590.833 211.751,-577.234"/>
<polygon fill="orange" stroke="orange" points="210.465,-627.869 216.342,-636.685 217.245,-626.129 210.465,-627.869"/>
<text text-anchor="start" x="211.919" y="-610" font-family="Helvetica,sans-Serif" font-size="10.00"> &lt; gSizeSerializationMethod</text>
<text text-anchor="middle" x="273.419" y="-599" font-family="Helvetica,sans-Serif" font-size="10.00">String &gt;</text>
</g>
<!-- Node9 -->
<g id="node9" class="node"><title>Node9</title>
<polygon fill="none" stroke="#bfbfbf" points="786.419,-448.5 786.419,-505.5 837.419,-505.5 837.419,-448.5 786.419,-448.5"/>
<text text-anchor="middle" x="811.919" y="-493.5" font-family="Helvetica,sans-Serif" font-size="10.00">uint32_t</text>
<polyline fill="none" stroke="#bfbfbf" points="786.419,-486.5 837.419,-486.5 "/>
<text text-anchor="middle" x="811.919" y="-474.5" font-family="Helvetica,sans-Serif" font-size="10.00"> </text>
<polyline fill="none" stroke="#bfbfbf" points="786.419,-467.5 837.419,-467.5 "/>
<text text-anchor="middle" x="811.919" y="-455.5" font-family="Helvetica,sans-Serif" font-size="10.00"> </text>
</g>
<!-- Node9&#45;&gt;Node1 -->
<g id="edge23" class="edge"><title>Node9&#45;&gt;Node1</title>
<path fill="none" stroke="#404040" d="M816.725,-448.45C820.628,-424.604 825.817,-389.146 827.919,-358 830.553,-318.978 831.145,-308.978 827.919,-270 822.018,-198.702 806.418,-116.697 796.534,-69.3585"/>
<polygon fill="none" stroke="#404040" points="796.516,-69.271 791.361,-64.2286 794.033,-57.5308 799.188,-62.5732 796.516,-69.271"/>
<text text-anchor="middle" x="850.919" y="-176.5" font-family="Helvetica,sans-Serif" font-size="10.00"> +sVersion</text>
</g>
<!-- Node9&#45;&gt;Node2 -->
<g id="edge13" class="edge"><title>Node9&#45;&gt;Node2</title>
<path fill="none" stroke="#404040" d="M794.412,-448.315C780.267,-424.97 760.68,-390.295 747.919,-358 733.064,-320.404 745.676,-304.689 724.919,-270 717.547,-257.679 707.993,-246.01 697.761,-235.409"/>
<polygon fill="none" stroke="#404040" points="697.563,-235.213 690.486,-233.829 689.041,-226.764 696.118,-228.148 697.563,-235.213"/>
<text text-anchor="middle" x="787.919" y="-350" font-family="Helvetica,sans-Serif" font-size="10.00"> +headerVersion</text>
<text text-anchor="middle" x="787.919" y="-339" font-family="Helvetica,sans-Serif" font-size="10.00">+headerSize</text>
<text text-anchor="middle" x="787.919" y="-328" font-family="Helvetica,sans-Serif" font-size="10.00">+sMagicString</text>
<text text-anchor="middle" x="787.919" y="-317" font-family="Helvetica,sans-Serif" font-size="10.00">+flagsNextHeader</text>
<text text-anchor="middle" x="787.919" y="-306" font-family="Helvetica,sans-Serif" font-size="10.00">+magicStringInt</text>
<text text-anchor="middle" x="787.919" y="-295" font-family="Helvetica,sans-Serif" font-size="10.00">+flagsUnused</text>
<text text-anchor="middle" x="787.919" y="-284" font-family="Helvetica,sans-Serif" font-size="10.00">+flags</text>
<text text-anchor="middle" x="787.919" y="-273" font-family="Helvetica,sans-Serif" font-size="10.00">+sVersion</text>
</g>
<!-- Node10&#45;&gt;Node2 -->
<g id="edge16" class="edge"><title>Node10&#45;&gt;Node2</title>
<path fill="none" stroke="#404040" d="M253.989,-376.98C259.323,-339.207 271.794,-298.44 298.919,-270 333.868,-233.357 468.954,-205.506 554.785,-191.054"/>
<polygon fill="none" stroke="#404040" points="554.975,-191.023 560.24,-186.096 566.813,-189.062 561.548,-193.988 554.975,-191.023"/>
<text text-anchor="middle" x="329.419" y="-311.5" font-family="Helvetica,sans-Serif" font-size="10.00"> +serialization</text>
</g>
<!-- Node11 -->
<g id="node11" class="node"><title>Node11</title>
<polygon fill="none" stroke="#bfbfbf" points="908.419,-150.5 908.419,-207.5 959.419,-207.5 959.419,-150.5 908.419,-150.5"/>
<text text-anchor="middle" x="933.919" y="-195.5" font-family="Helvetica,sans-Serif" font-size="10.00">uint64_t</text>
<polyline fill="none" stroke="#bfbfbf" points="908.419,-188.5 959.419,-188.5 "/>
<text text-anchor="middle" x="933.919" y="-176.5" font-family="Helvetica,sans-Serif" font-size="10.00"> </text>
<polyline fill="none" stroke="#bfbfbf" points="908.419,-169.5 959.419,-169.5 "/>
<text text-anchor="middle" x="933.919" y="-157.5" font-family="Helvetica,sans-Serif" font-size="10.00"> </text>
</g>
<!-- Node11&#45;&gt;Node1 -->
<g id="edge24" class="edge"><title>Node11&#45;&gt;Node1</title>
<path fill="none" stroke="#404040" d="M921.804,-150.393C914.836,-136.264 905.222,-119.289 893.919,-106 879.939,-89.5623 861.678,-74.8311 844.261,-62.8137"/>
<polygon fill="none" stroke="#404040" points="844.123,-62.7216 836.912,-62.7173 834.142,-56.0592 841.354,-56.0635 844.123,-62.7216"/>
<text text-anchor="middle" x="893.419" y="-79.5" font-family="Helvetica,sans-Serif" font-size="10.00"> +secret</text>
</g>
</g>
</svg>
        <g id="navigator" transform="translate(0 0)" fill="#404254">
                <rect fill="#f2f5e9" fill-opacity="0.5" stroke="#606060" stroke-width=".5" x="0" y="0" width="60" height="60"/>
                <use id="zoomplus" xlink:href="#zoomPlus" x="17" y="9" onmousedown="handleZoom(evt,'in')"/>
                <use id="zoomminus" xlink:href="#zoomMin" x="42" y="9" onmousedown="handleZoom(evt,'out')"/>
                <use id="reset" xlink:href="#resetDef" x="30" y="36" onmousedown="handleReset()"/>
                <g id="arrowUp" xlink:href="#dirArrow" transform="translate(30 24)" onmousedown="handlePan(0,-1)">
                  <use xlink:href="#rim" fill="#404040">
                        <set attributeName="fill" to="#808080" begin="arrowUp.mouseover" end="arrowUp.mouseout"/>
                  </use>
                  <path fill="none" stroke="white" stroke-width="1.5" d="M0,-3.0v7 M-2.5,-0.5L0,-3.0L2.5,-0.5"/>
                </g>
                <g id="arrowRight" xlink:href="#dirArrow" transform="rotate(90) translate(36 -43)" onmousedown="handlePan(1,0)">
                  <use xlink:href="#rim" fill="#404040">
                        <set attributeName="fill" to="#808080" begin="arrowRight.mouseover" end="arrowRight.mouseout"/>
                  </use>
                  <path fill="none" stroke="white" stroke-width="1.5" d="M0,-3.0v7 M-2.5,-0.5L0,-3.0L2.5,-0.5"/>
                </g>
                <g id="arrowDown" xlink:href="#dirArrow" transform="rotate(180) translate(-30 -48)" onmousedown="handlePan(0,1)">
                  <use xlink:href="#rim" fill="#404040">
                        <set attributeName="fill" to="#808080" begin="arrowDown.mouseover" end="arrowDown.mouseout"/>
                  </use>
                  <path fill="none" stroke="white" stroke-width="1.5" d="M0,-3.0v7 M-2.5,-0.5L0,-3.0L2.5,-0.5"/>
                </g>
                <g id="arrowLeft" xlink:href="#dirArrow" transform="rotate(270) translate(-36 17)" onmousedown="handlePan(-1,0)">
                  <use xlink:href="#rim" fill="#404040">
                        <set attributeName="fill" to="#808080" begin="arrowLeft.mouseover" end="arrowLeft.mouseout"/>
                  </use>
                  <path fill="none" stroke="white" stroke-width="1.5" d="M0,-3.0v7 M-2.5,-0.5L0,-3.0L2.5,-0.5"/>
                </g>
        </g>
        <svg viewBox="0 0 15 15" width="100%" height="30px" preserveAspectRatio="xMaxYMin meet">
         <g id="arrow_out" transform="scale(0.3 0.3)">
          <a xlink:href="structtest_1_1MetaHeader__coll__graph_org.svg" target="_base">
           <rect id="button" ry="5" rx="5" y="6" x="6" height="38" width="38"
                fill="#f2f5e9" fill-opacity="0.5" stroke="#606060" stroke-width="1.0"/>
           <path id="arrow"
             d="M 11.500037,31.436501 C 11.940474,20.09759 22.043105,11.32322 32.158766,21.979434 L 37.068811,17.246167 C 37.068811,17.246167 37.088388,32 37.088388,32 L 22.160133,31.978069 C 22.160133,31.978069 26.997745,27.140456 26.997745,27.140456 C 18.528582,18.264221 13.291696,25.230495 11.500037,31.436501 z"
             style="fill:#404040;"/>
          </a>
         </g>
        </svg>
</svg>
