<?xml version="1.0" encoding="UTF-8" standalone="no"?>
<!DOCTYPE svg PUBLIC "-//W3C//DTD SVG 1.1//EN"
 "http://www.w3.org/Graphics/SVG/1.1/DTD/svg11.dtd">
<!-- Generated by graphviz version 2.36.0 (20140111.2315)
 -->
<!-- Title: o2::ITSMFT::RawPixelReader Pages: 1 -->
<svg width="156pt" height="282pt"
 viewBox="0.00 0.00 156.00 282.00" xmlns="http://www.w3.org/2000/svg" xmlns:xlink="http://www.w3.org/1999/xlink">
<g id="graph0" class="graph" transform="scale(1 1) rotate(0) translate(4 278)">
<title>o2::ITSMFT::RawPixelReader</title>
<!-- Node1 -->
<g id="node1" class="node"><title>Node1</title>
<polygon fill="#bfbfbf" stroke="black" points="-0.5,-0.5 -0.5,-101.5 148.5,-101.5 148.5,-0.5 -0.5,-0.5"/>
<text text-anchor="middle" x="74" y="-89.5" font-family="Helvetica,sans-Serif" font-size="10.00">o2::ITSMFT::RawPixelReader</text>
<polyline fill="none" stroke="black" points="-0.5,-82.5 148.5,-82.5 "/>
<text text-anchor="middle" x="74" y="-70.5" font-family="Helvetica,sans-Serif" font-size="10.00"> </text>
<polyline fill="none" stroke="black" points="-0.5,-63.5 148.5,-63.5 "/>
<text text-anchor="start" x="7.5" y="-51.5" font-family="Helvetica,sans-Serif" font-size="10.00">+ RawPixelReader()</text>
<text text-anchor="start" x="7.5" y="-40.5" font-family="Helvetica,sans-Serif" font-size="10.00">+ ~RawPixelReader()</text>
<text text-anchor="start" x="7.5" y="-29.5" font-family="Helvetica,sans-Serif" font-size="10.00">+ getNextChipData()</text>
<text text-anchor="start" x="7.5" y="-18.5" font-family="Helvetica,sans-Serif" font-size="10.00">+ getNextChipData()</text>
<text text-anchor="start" x="7.5" y="-7.5" font-family="Helvetica,sans-Serif" font-size="10.00">+ ClassDefOverride()</text>
</g>
<!-- Node2 -->
<g id="node2" class="node"><title>Node2</title>
<g id="a_node2"><a xlink:href="../../de/d6d/classo2_1_1ITSMFT_1_1PixelReader.html" target="_top" xlink:title="PixelReader class for the ITSMFT. ">
<polygon fill="none" stroke="black" points="10,-139 10,-273 138,-273 138,-139 10,-139"/>
<text text-anchor="middle" x="74" y="-261" font-family="Helvetica,sans-Serif" font-size="10.00">o2::ITSMFT::PixelReader</text>
<polyline fill="none" stroke="black" points="10,-254 138,-254 "/>
<text text-anchor="middle" x="74" y="-242" font-family="Helvetica,sans-Serif" font-size="10.00"> </text>
<polyline fill="none" stroke="black" points="10,-235 138,-235 "/>
<text text-anchor="start" x="18" y="-223" font-family="Helvetica,sans-Serif" font-size="10.00">+ PixelReader()</text>
<text text-anchor="start" x="18" y="-212" font-family="Helvetica,sans-Serif" font-size="10.00">+ ~PixelReader()</text>
<text text-anchor="start" x="18" y="-201" font-family="Helvetica,sans-Serif" font-size="10.00">+ PixelReader()</text>
<text text-anchor="start" x="18" y="-190" font-family="Helvetica,sans-Serif" font-size="10.00">+ operator=()</text>
<text text-anchor="start" x="18" y="-179" font-family="Helvetica,sans-Serif" font-size="10.00">+ init()</text>
<text text-anchor="start" x="18" y="-168" font-family="Helvetica,sans-Serif" font-size="10.00">+ getNextChipData()</text>
<text text-anchor="start" x="18" y="-157" font-family="Helvetica,sans-Serif" font-size="10.00">+ getNextChipData()</text>
<text text-anchor="start" x="18" y="-146" font-family="Helvetica,sans-Serif" font-size="10.00"># ClassDef()</text>
</a>
</g>
</g>
<!-- Node2&#45;&gt;Node1 -->
<g id="edge1" class="edge"><title>Node2&#45;&gt;Node1</title>
<path fill="none" stroke="midnightblue" d="M74,-128.524C74,-119.414 74,-110.304 74,-101.709"/>
<polygon fill="none" stroke="midnightblue" points="70.5001,-128.782 74,-138.782 77.5001,-128.782 70.5001,-128.782"/>
</g>
</g>
</svg>
