<?xml version="1.0" encoding="UTF-8" standalone="no"?>
<!DOCTYPE svg PUBLIC "-//W3C//DTD SVG 1.1//EN"
 "http://www.w3.org/Graphics/SVG/1.1/DTD/svg11.dtd">
<!-- Generated by graphviz version 2.36.0 (20140111.2315)
 -->
<!-- Title: /home/travis/build/AliceO2Group/AliceO2/Framework/Core/include/Framework/CallbackRegistry.h Pages: 1 -->
<svg width="1497pt" height="332pt"
 viewBox="0.00 0.00 1497.00 332.00" xmlns="http://www.w3.org/2000/svg" xmlns:xlink="http://www.w3.org/1999/xlink">
<g id="graph0" class="graph" transform="scale(1 1) rotate(0) translate(4 328)">
<title>/home/travis/build/AliceO2Group/AliceO2/Framework/Core/include/Framework/CallbackRegistry.h</title>
<!-- Node1 -->
<g id="node1" class="node"><title>Node1</title>
<polygon fill="#bfbfbf" stroke="black" points="839.5,-271 839.5,-323 994.5,-323 994.5,-271 839.5,-271"/>
<text text-anchor="start" x="847.5" y="-311" font-family="Helvetica,sans-Serif" font-size="10.00">/home/travis/build</text>
<text text-anchor="start" x="847.5" y="-300" font-family="Helvetica,sans-Serif" font-size="10.00">/AliceO2Group/AliceO2</text>
<text text-anchor="start" x="847.5" y="-289" font-family="Helvetica,sans-Serif" font-size="10.00">/Framework/Core/include</text>
<text text-anchor="middle" x="917" y="-278" font-family="Helvetica,sans-Serif" font-size="10.00">/Framework/CallbackRegistry.h</text>
</g>
<!-- Node2 -->
<g id="node2" class="node"><title>Node2</title>
<g id="a_node2"><a xlink:href="../../d9/d7f/CallbackService_8h.html" target="_top" xlink:title="/home/travis/build\l/AliceO2Group/AliceO2\l/Framework/Core/include\l/Framework/CallbackService.h">
<polygon fill="none" stroke="black" points="762.5,-181 762.5,-233 913.5,-233 913.5,-181 762.5,-181"/>
<text text-anchor="start" x="770.5" y="-221" font-family="Helvetica,sans-Serif" font-size="10.00">/home/travis/build</text>
<text text-anchor="start" x="770.5" y="-210" font-family="Helvetica,sans-Serif" font-size="10.00">/AliceO2Group/AliceO2</text>
<text text-anchor="start" x="770.5" y="-199" font-family="Helvetica,sans-Serif" font-size="10.00">/Framework/Core/include</text>
<text text-anchor="middle" x="838" y="-188" font-family="Helvetica,sans-Serif" font-size="10.00">/Framework/CallbackService.h</text>
</a>
</g>
</g>
<!-- Node1&#45;&gt;Node2 -->
<g id="edge1" class="edge"><title>Node1&#45;&gt;Node2</title>
<path fill="none" stroke="midnightblue" d="M887.237,-262.846C878.384,-252.985 868.836,-242.349 860.526,-233.092"/>
<polygon fill="midnightblue" stroke="midnightblue" points="884.865,-265.443 894.15,-270.547 890.074,-260.767 884.865,-265.443"/>
</g>
<!-- Node13 -->
<g id="node13" class="node"><title>Node13</title>
<g id="a_node13"><a xlink:href="../../d5/d79/test__CallbackRegistry_8cxx.html" target="_top" xlink:title="/home/travis/build\l/AliceO2Group/AliceO2\l/Framework/Core/test/test\l_CallbackRegistry.cxx">
<polygon fill="none" stroke="black" points="931.5,-181 931.5,-233 1062.5,-233 1062.5,-181 931.5,-181"/>
<text text-anchor="start" x="939.5" y="-221" font-family="Helvetica,sans-Serif" font-size="10.00">/home/travis/build</text>
<text text-anchor="start" x="939.5" y="-210" font-family="Helvetica,sans-Serif" font-size="10.00">/AliceO2Group/AliceO2</text>
<text text-anchor="start" x="939.5" y="-199" font-family="Helvetica,sans-Serif" font-size="10.00">/Framework/Core/test/test</text>
<text text-anchor="middle" x="997" y="-188" font-family="Helvetica,sans-Serif" font-size="10.00">_CallbackRegistry.cxx</text>
</a>
</g>
</g>
<!-- Node1&#45;&gt;Node13 -->
<g id="edge13" class="edge"><title>Node1&#45;&gt;Node13</title>
<path fill="none" stroke="midnightblue" d="M946.874,-263.139C955.913,-253.196 965.69,-242.441 974.189,-233.092"/>
<polygon fill="midnightblue" stroke="midnightblue" points="944.276,-260.793 940.139,-270.547 949.456,-265.502 944.276,-260.793"/>
</g>
<!-- Node3 -->
<g id="node3" class="node"><title>Node3</title>
<g id="a_node3"><a xlink:href="../../d7/d0c/RootFileWriterSpec_8cxx.html" target="_top" xlink:title="Processor spec for a ROOT file writer. ">
<polygon fill="none" stroke="black" points="0,-91 0,-143 140,-143 140,-91 0,-91"/>
<text text-anchor="start" x="8" y="-131" font-family="Helvetica,sans-Serif" font-size="10.00">/home/travis/build</text>
<text text-anchor="start" x="8" y="-120" font-family="Helvetica,sans-Serif" font-size="10.00">/AliceO2Group/AliceO2</text>
<text text-anchor="start" x="8" y="-109" font-family="Helvetica,sans-Serif" font-size="10.00">/Detectors/TPC/workflow</text>
<text text-anchor="middle" x="70" y="-98" font-family="Helvetica,sans-Serif" font-size="10.00">/src/RootFileWriterSpec.cxx</text>
</a>
</g>
</g>
<!-- Node2&#45;&gt;Node3 -->
<g id="edge2" class="edge"><title>Node2&#45;&gt;Node3</title>
<path fill="none" stroke="midnightblue" d="M752.116,-204.542C620.847,-200.911 362.997,-188.237 149,-144 146.172,-143.415 143.304,-142.763 140.419,-142.058"/>
<polygon fill="midnightblue" stroke="midnightblue" points="752.409,-208.051 762.499,-204.818 752.595,-201.054 752.409,-208.051"/>
</g>
<!-- Node4 -->
<g id="node4" class="node"><title>Node4</title>
<g id="a_node4"><a xlink:href="../../db/dac/DataProcessingDevice_8cxx.html" target="_top" xlink:title="/home/travis/build\l/AliceO2Group/AliceO2\l/Framework/Core/src/DataProcessing\lDevice.cxx">
<polygon fill="none" stroke="black" points="158,-91 158,-143 340,-143 340,-91 158,-91"/>
<text text-anchor="start" x="166" y="-131" font-family="Helvetica,sans-Serif" font-size="10.00">/home/travis/build</text>
<text text-anchor="start" x="166" y="-120" font-family="Helvetica,sans-Serif" font-size="10.00">/AliceO2Group/AliceO2</text>
<text text-anchor="start" x="166" y="-109" font-family="Helvetica,sans-Serif" font-size="10.00">/Framework/Core/src/DataProcessing</text>
<text text-anchor="middle" x="249" y="-98" font-family="Helvetica,sans-Serif" font-size="10.00">Device.cxx</text>
</a>
</g>
</g>
<!-- Node2&#45;&gt;Node4 -->
<g id="edge3" class="edge"><title>Node2&#45;&gt;Node4</title>
<path fill="none" stroke="midnightblue" d="M751.972,-198.462C653.886,-189.088 489,-170.96 349,-144 346.094,-143.44 343.146,-142.845 340.176,-142.22"/>
<polygon fill="midnightblue" stroke="midnightblue" points="751.845,-201.965 762.13,-199.424 752.505,-194.996 751.845,-201.965"/>
</g>
<!-- Node5 -->
<g id="node5" class="node"><title>Node5</title>
<g id="a_node5"><a xlink:href="../../d0/d9f/DataSourceDevice_8cxx.html" target="_top" xlink:title="/home/travis/build\l/AliceO2Group/AliceO2\l/Framework/Core/src/DataSource\lDevice.cxx">
<polygon fill="none" stroke="black" points="358,-91 358,-143 522,-143 522,-91 358,-91"/>
<text text-anchor="start" x="366" y="-131" font-family="Helvetica,sans-Serif" font-size="10.00">/home/travis/build</text>
<text text-anchor="start" x="366" y="-120" font-family="Helvetica,sans-Serif" font-size="10.00">/AliceO2Group/AliceO2</text>
<text text-anchor="start" x="366" y="-109" font-family="Helvetica,sans-Serif" font-size="10.00">/Framework/Core/src/DataSource</text>
<text text-anchor="middle" x="440" y="-98" font-family="Helvetica,sans-Serif" font-size="10.00">Device.cxx</text>
</a>
</g>
</g>
<!-- Node2&#45;&gt;Node5 -->
<g id="edge4" class="edge"><title>Node2&#45;&gt;Node5</title>
<path fill="none" stroke="midnightblue" d="M752.153,-190.544C690.37,-178.964 605.193,-162.061 531,-144 528.126,-143.3 525.207,-142.571 522.262,-141.819"/>
<polygon fill="midnightblue" stroke="midnightblue" points="751.776,-194.034 762.249,-192.428 753.06,-187.153 751.776,-194.034"/>
</g>
<!-- Node6 -->
<g id="node6" class="node"><title>Node6</title>
<g id="a_node6"><a xlink:href="../../d7/d54/runDataProcessing_8cxx.html" target="_top" xlink:title="/home/travis/build\l/AliceO2Group/AliceO2\l/Framework/Core/src/runDataProcessing.cxx">
<polygon fill="none" stroke="black" points="540,-96.5 540,-137.5 754,-137.5 754,-96.5 540,-96.5"/>
<text text-anchor="start" x="548" y="-125.5" font-family="Helvetica,sans-Serif" font-size="10.00">/home/travis/build</text>
<text text-anchor="start" x="548" y="-114.5" font-family="Helvetica,sans-Serif" font-size="10.00">/AliceO2Group/AliceO2</text>
<text text-anchor="middle" x="647" y="-103.5" font-family="Helvetica,sans-Serif" font-size="10.00">/Framework/Core/src/runDataProcessing.cxx</text>
</a>
</g>
</g>
<!-- Node2&#45;&gt;Node6 -->
<g id="edge5" class="edge"><title>Node2&#45;&gt;Node6</title>
<path fill="none" stroke="midnightblue" d="M774.23,-176.619C746.319,-163.759 714.328,-149.02 689.407,-137.538"/>
<polygon fill="midnightblue" stroke="midnightblue" points="772.976,-179.895 783.523,-180.901 775.905,-173.537 772.976,-179.895"/>
</g>
<!-- Node7 -->
<g id="node7" class="node"><title>Node7</title>
<g id="a_node7"><a xlink:href="../../dd/d19/test__Services_8cxx.html" target="_top" xlink:title="/home/travis/build\l/AliceO2Group/AliceO2\l/Framework/Core/test/test\l_Services.cxx">
<polygon fill="none" stroke="black" points="772.5,-91 772.5,-143 903.5,-143 903.5,-91 772.5,-91"/>
<text text-anchor="start" x="780.5" y="-131" font-family="Helvetica,sans-Serif" font-size="10.00">/home/travis/build</text>
<text text-anchor="start" x="780.5" y="-120" font-family="Helvetica,sans-Serif" font-size="10.00">/AliceO2Group/AliceO2</text>
<text text-anchor="start" x="780.5" y="-109" font-family="Helvetica,sans-Serif" font-size="10.00">/Framework/Core/test/test</text>
<text text-anchor="middle" x="838" y="-98" font-family="Helvetica,sans-Serif" font-size="10.00">_Services.cxx</text>
</a>
</g>
</g>
<!-- Node2&#45;&gt;Node7 -->
<g id="edge6" class="edge"><title>Node2&#45;&gt;Node7</title>
<path fill="none" stroke="midnightblue" d="M838,-170.489C838,-161.309 838,-151.616 838,-143.092"/>
<polygon fill="midnightblue" stroke="midnightblue" points="834.5,-170.547 838,-180.547 841.5,-170.547 834.5,-170.547"/>
</g>
<!-- Node8 -->
<g id="node8" class="node"><title>Node8</title>
<g id="a_node8"><a xlink:href="../../da/d12/test__SimpleStatefulProcessing01_8cxx.html" target="_top" xlink:title="/home/travis/build\l/AliceO2Group/AliceO2\l/Framework/Core/test/test\l_SimpleStatefulProcessing01.cxx">
<polygon fill="none" stroke="black" points="922,-91 922,-143 1086,-143 1086,-91 922,-91"/>
<text text-anchor="start" x="930" y="-131" font-family="Helvetica,sans-Serif" font-size="10.00">/home/travis/build</text>
<text text-anchor="start" x="930" y="-120" font-family="Helvetica,sans-Serif" font-size="10.00">/AliceO2Group/AliceO2</text>
<text text-anchor="start" x="930" y="-109" font-family="Helvetica,sans-Serif" font-size="10.00">/Framework/Core/test/test</text>
<text text-anchor="middle" x="1004" y="-98" font-family="Helvetica,sans-Serif" font-size="10.00">_SimpleStatefulProcessing01.cxx</text>
</a>
</g>
</g>
<!-- Node2&#45;&gt;Node8 -->
<g id="edge7" class="edge"><title>Node2&#45;&gt;Node8</title>
<path fill="none" stroke="midnightblue" d="M894.666,-175.96C914.864,-165.253 937.384,-153.315 956.711,-143.069"/>
<polygon fill="midnightblue" stroke="midnightblue" points="892.765,-173.007 885.569,-180.783 896.044,-179.191 892.765,-173.007"/>
</g>
<!-- Node9 -->
<g id="node9" class="node"><title>Node9</title>
<g id="a_node9"><a xlink:href="../../d5/dc8/MakeRootTreeWriterSpec_8h.html" target="_top" xlink:title="Configurable generator for RootTreeWriter processor spec. ">
<polygon fill="none" stroke="black" points="1104,-91 1104,-143 1268,-143 1268,-91 1104,-91"/>
<text text-anchor="start" x="1112" y="-131" font-family="Helvetica,sans-Serif" font-size="10.00">/home/travis/build</text>
<text text-anchor="start" x="1112" y="-120" font-family="Helvetica,sans-Serif" font-size="10.00">/AliceO2Group/AliceO2</text>
<text text-anchor="start" x="1112" y="-109" font-family="Helvetica,sans-Serif" font-size="10.00">/Framework/Utils/include</text>
<text text-anchor="middle" x="1186" y="-98" font-family="Helvetica,sans-Serif" font-size="10.00">/Utils/MakeRootTreeWriterSpec.h</text>
</a>
</g>
</g>
<!-- Node2&#45;&gt;Node9 -->
<g id="edge8" class="edge"><title>Node2&#45;&gt;Node9</title>
<path fill="none" stroke="midnightblue" d="M924.015,-179.839C1000.42,-160.701 1022.29,-161.971 1095,-144 1097.87,-143.29 1100.79,-142.552 1103.73,-141.792"/>
<polygon fill="midnightblue" stroke="midnightblue" points="922.733,-176.554 913.903,-182.41 924.458,-183.338 922.733,-176.554"/>
</g>
<!-- Node11 -->
<g id="node11" class="node"><title>Node11</title>
<g id="a_node11"><a xlink:href="../../d1/d02/test__RootTreeWriterWorkflow_8cxx.html" target="_top" xlink:title="/home/travis/build\l/AliceO2Group/AliceO2\l/Framework/Utils/test\l/test_RootTreeWriterWorkflow.cxx">
<polygon fill="none" stroke="black" points="1212,-1 1212,-53 1380,-53 1380,-1 1212,-1"/>
<text text-anchor="start" x="1220" y="-41" font-family="Helvetica,sans-Serif" font-size="10.00">/home/travis/build</text>
<text text-anchor="start" x="1220" y="-30" font-family="Helvetica,sans-Serif" font-size="10.00">/AliceO2Group/AliceO2</text>
<text text-anchor="start" x="1220" y="-19" font-family="Helvetica,sans-Serif" font-size="10.00">/Framework/Utils/test</text>
<text text-anchor="middle" x="1296" y="-8" font-family="Helvetica,sans-Serif" font-size="10.00">/test_RootTreeWriterWorkflow.cxx</text>
</a>
</g>
</g>
<!-- Node2&#45;&gt;Node11 -->
<g id="edge11" class="edge"><title>Node2&#45;&gt;Node11</title>
<path fill="none" stroke="midnightblue" d="M923.713,-180.29C1016.12,-166.69 1221.49,-196.224 1277,-144 1301.38,-121.067 1302.32,-79.9107 1299.85,-53.2912"/>
<polygon fill="midnightblue" stroke="midnightblue" points="923.066,-176.85 913.811,-182.008 924.262,-183.747 923.066,-176.85"/>
</g>
<!-- Node12 -->
<g id="node12" class="node"><title>Node12</title>
<g id="a_node12"><a xlink:href="../../d8/dd2/TPCDigitRootWriterSpec_8cxx.html" target="_top" xlink:title="/home/travis/build\l/AliceO2Group/AliceO2\l/Steer/DigitizerWorkflow\l/src/TPCDigitRootWriterSpec.cxx">
<polygon fill="none" stroke="black" points="1324.5,-91 1324.5,-143 1489.5,-143 1489.5,-91 1324.5,-91"/>
<text text-anchor="start" x="1332.5" y="-131" font-family="Helvetica,sans-Serif" font-size="10.00">/home/travis/build</text>
<text text-anchor="start" x="1332.5" y="-120" font-family="Helvetica,sans-Serif" font-size="10.00">/AliceO2Group/AliceO2</text>
<text text-anchor="start" x="1332.5" y="-109" font-family="Helvetica,sans-Serif" font-size="10.00">/Steer/DigitizerWorkflow</text>
<text text-anchor="middle" x="1407" y="-98" font-family="Helvetica,sans-Serif" font-size="10.00">/src/TPCDigitRootWriterSpec.cxx</text>
</a>
</g>
</g>
<!-- Node2&#45;&gt;Node12 -->
<g id="edge12" class="edge"><title>Node2&#45;&gt;Node12</title>
<path fill="none" stroke="midnightblue" d="M923.871,-180.019C1094.33,-147.604 1143.2,-173.89 1310,-144 1314.72,-143.154 1319.54,-142.19 1324.4,-141.143"/>
<polygon fill="midnightblue" stroke="midnightblue" points="922.954,-176.632 913.805,-181.974 924.288,-183.504 922.954,-176.632"/>
</g>
<!-- Node10 -->
<g id="node10" class="node"><title>Node10</title>
<g id="a_node10"><a xlink:href="../../da/dcf/test__RootTreeWriter_8cxx.html" target="_top" xlink:title="/home/travis/build\l/AliceO2Group/AliceO2\l/Framework/Utils/test\l/test_RootTreeWriter.cxx">
<polygon fill="none" stroke="black" points="1066.5,-1 1066.5,-53 1193.5,-53 1193.5,-1 1066.5,-1"/>
<text text-anchor="start" x="1074.5" y="-41" font-family="Helvetica,sans-Serif" font-size="10.00">/home/travis/build</text>
<text text-anchor="start" x="1074.5" y="-30" font-family="Helvetica,sans-Serif" font-size="10.00">/AliceO2Group/AliceO2</text>
<text text-anchor="start" x="1074.5" y="-19" font-family="Helvetica,sans-Serif" font-size="10.00">/Framework/Utils/test</text>
<text text-anchor="middle" x="1130" y="-8" font-family="Helvetica,sans-Serif" font-size="10.00">/test_RootTreeWriter.cxx</text>
</a>
</g>
</g>
<!-- Node9&#45;&gt;Node10 -->
<g id="edge9" class="edge"><title>Node9&#45;&gt;Node10</title>
<path fill="none" stroke="midnightblue" d="M1164.34,-81.9652C1158.23,-72.3545 1151.68,-62.0742 1145.97,-53.0921"/>
<polygon fill="midnightblue" stroke="midnightblue" points="1161.48,-83.9892 1169.8,-90.5468 1167.39,-80.231 1161.48,-83.9892"/>
</g>
<!-- Node9&#45;&gt;Node11 -->
<g id="edge10" class="edge"><title>Node9&#45;&gt;Node11</title>
<path fill="none" stroke="midnightblue" d="M1225.33,-84.5335C1238.18,-74.2542 1252.28,-62.9791 1264.47,-53.221"/>
<polygon fill="midnightblue" stroke="midnightblue" points="1223.14,-81.8027 1217.52,-90.7827 1227.52,-87.2688 1223.14,-81.8027"/>
</g>
</g>
</svg>
