<?xml version="1.0" encoding="UTF-8" standalone="no"?>
<!DOCTYPE svg PUBLIC "-//W3C//DTD SVG 1.1//EN"
 "http://www.w3.org/Graphics/SVG/1.1/DTD/svg11.dtd">
<!-- Generated by graphviz version 2.36.0 (20140111.2315)
 -->
<!-- Title: /home/travis/build/AliceO2Group/AliceO2/Framework/Core/include/Framework/DataAllocator.h Pages: 1 -->
<svg width="2524pt" height="354pt"
 viewBox="0.00 0.00 2524.00 354.00" xmlns="http://www.w3.org/2000/svg" xmlns:xlink="http://www.w3.org/1999/xlink">
<g id="graph0" class="graph" transform="scale(1 1) rotate(0) translate(4 350)">
<title>/home/travis/build/AliceO2Group/AliceO2/Framework/Core/include/Framework/DataAllocator.h</title>
<!-- Node1 -->
<g id="node1" class="node"><title>Node1</title>
<polygon fill="#bfbfbf" stroke="black" points="1365.5,-293 1365.5,-345 1504.5,-345 1504.5,-293 1365.5,-293"/>
<text text-anchor="start" x="1373.5" y="-333" font-family="Helvetica,sans-Serif" font-size="10.00">/home/travis/build</text>
<text text-anchor="start" x="1373.5" y="-322" font-family="Helvetica,sans-Serif" font-size="10.00">/AliceO2Group/AliceO2</text>
<text text-anchor="start" x="1373.5" y="-311" font-family="Helvetica,sans-Serif" font-size="10.00">/Framework/Core/include</text>
<text text-anchor="middle" x="1435" y="-300" font-family="Helvetica,sans-Serif" font-size="10.00">/Framework/DataAllocator.h</text>
</g>
<!-- Node2 -->
<g id="node2" class="node"><title>Node2</title>
<g id="a_node2"><a xlink:href="../../dc/dcd/DataHeader_8h.html" target="_top" xlink:title="Headers/DataHeader.h">
<polygon fill="none" stroke="black" points="892.5,-124.5 892.5,-143.5 1009.5,-143.5 1009.5,-124.5 892.5,-124.5"/>
<text text-anchor="middle" x="951" y="-131.5" font-family="Helvetica,sans-Serif" font-size="10.00">Headers/DataHeader.h</text>
</a>
</g>
</g>
<!-- Node1&#45;&gt;Node2 -->
<g id="edge1" class="edge"><title>Node1&#45;&gt;Node2</title>
<path fill="none" stroke="midnightblue" d="M1365.48,-315.553C1245.9,-310.338 1007.07,-295.224 934,-256 898.8,-237.105 867.459,-215.387 886,-180 893.279,-166.108 907.009,-155.652 919.983,-148.333"/>
<polygon fill="midnightblue" stroke="midnightblue" points="921.928,-151.266 929.192,-143.553 918.704,-145.053 921.928,-151.266"/>
</g>
<!-- Node9 -->
<g id="node9" class="node"><title>Node9</title>
<polygon fill="none" stroke="#bfbfbf" points="1154.5,-6.5 1154.5,-25.5 1195.5,-25.5 1195.5,-6.5 1154.5,-6.5"/>
<text text-anchor="middle" x="1175" y="-13.5" font-family="Helvetica,sans-Serif" font-size="10.00">string</text>
</g>
<!-- Node1&#45;&gt;Node9 -->
<g id="edge64" class="edge"><title>Node1&#45;&gt;Node9</title>
<path fill="none" stroke="midnightblue" d="M1452.77,-292.809C1462.08,-276.362 1470.03,-254.574 1462,-236 1433.19,-169.328 1400.33,-168.594 1343,-124 1294.81,-86.5108 1233.17,-49.8338 1199.56,-30.6831"/>
<polygon fill="midnightblue" stroke="midnightblue" points="1200.9,-27.4167 1190.47,-25.5403 1197.45,-33.5097 1200.9,-27.4167"/>
</g>
<!-- Node15 -->
<g id="node15" class="node"><title>Node15</title>
<polygon fill="none" stroke="#bfbfbf" points="1065,-6.5 1065,-25.5 1127,-25.5 1127,-6.5 1065,-6.5"/>
<text text-anchor="middle" x="1096" y="-13.5" font-family="Helvetica,sans-Serif" font-size="10.00">type_traits</text>
</g>
<!-- Node1&#45;&gt;Node15 -->
<g id="edge66" class="edge"><title>Node1&#45;&gt;Node15</title>
<path fill="none" stroke="midnightblue" d="M1365.34,-314.156C1226.68,-305.985 920.817,-285.215 820,-256 766.546,-240.51 737.259,-247.341 708,-200 664.984,-130.399 641.453,-158.98 828,-68 920.207,-23.0299 956.799,-58.1441 1056,-32 1059.23,-31.1495 1062.56,-30.1344 1065.85,-29.0391"/>
<polygon fill="midnightblue" stroke="midnightblue" points="1067.26,-32.2539 1075.5,-25.596 1064.9,-25.6612 1067.26,-32.2539"/>
</g>
<!-- Node16 -->
<g id="node16" class="node"><title>Node16</title>
<polygon fill="none" stroke="#bfbfbf" points="0,-6.5 0,-25.5 40,-25.5 40,-6.5 0,-6.5"/>
<text text-anchor="middle" x="20" y="-13.5" font-family="Helvetica,sans-Serif" font-size="10.00">utility</text>
</g>
<!-- Node1&#45;&gt;Node16 -->
<g id="edge65" class="edge"><title>Node1&#45;&gt;Node16</title>
<path fill="none" stroke="midnightblue" d="M1365.32,-317.939C1110.37,-316.81 243,-304.618 243,-191 243,-191 243,-191 243,-133 243,-132.656 104.475,-60.7965 45.7834,-30.3657"/>
<polygon fill="midnightblue" stroke="midnightblue" points="47.25,-27.1837 36.7612,-25.6881 44.0281,-33.3981 47.25,-27.1837"/>
</g>
<!-- Node17 -->
<g id="node17" class="node"><title>Node17</title>
<polygon fill="none" stroke="#bfbfbf" points="1571,-6.5 1571,-25.5 1615,-25.5 1615,-6.5 1571,-6.5"/>
<text text-anchor="middle" x="1593" y="-13.5" font-family="Helvetica,sans-Serif" font-size="10.00">vector</text>
</g>
<!-- Node1&#45;&gt;Node17 -->
<g id="edge62" class="edge"><title>Node1&#45;&gt;Node17</title>
<path fill="none" stroke="midnightblue" d="M1504.72,-315.939C1722.88,-308.574 2378,-279.12 2378,-191 2378,-191 2378,-191 2378,-133 2378,-55.6353 1773.61,-24.7271 1625.48,-18.3136"/>
<polygon fill="midnightblue" stroke="midnightblue" points="1625.37,-14.806 1615.23,-17.8778 1625.07,-21.7997 1625.37,-14.806"/>
</g>
<!-- Node21 -->
<g id="node21" class="node"><title>Node21</title>
<g id="a_node21"><a xlink:href="../../d3/ddf/Output_8h.html" target="_top" xlink:title="Framework/Output.h">
<polygon fill="none" stroke="black" points="895,-180.5 895,-199.5 1001,-199.5 1001,-180.5 895,-180.5"/>
<text text-anchor="middle" x="948" y="-187.5" font-family="Helvetica,sans-Serif" font-size="10.00">Framework/Output.h</text>
</a>
</g>
</g>
<!-- Node1&#45;&gt;Node21 -->
<g id="edge22" class="edge"><title>Node1&#45;&gt;Node21</title>
<path fill="none" stroke="midnightblue" d="M1365.3,-314.208C1236.63,-306.49 972.34,-287.017 945,-256 934.047,-243.574 936.625,-224.059 940.827,-209.652"/>
<polygon fill="midnightblue" stroke="midnightblue" points="944.26,-210.427 944.16,-199.832 937.632,-208.177 944.26,-210.427"/>
</g>
<!-- Node23 -->
<g id="node23" class="node"><title>Node23</title>
<g id="a_node23"><a xlink:href="../../d6/d5a/OutputRef_8h.html" target="_top" xlink:title="Framework/OutputRef.h">
<polygon fill="none" stroke="black" points="717,-180.5 717,-199.5 839,-199.5 839,-180.5 717,-180.5"/>
<text text-anchor="middle" x="778" y="-187.5" font-family="Helvetica,sans-Serif" font-size="10.00">Framework/OutputRef.h</text>
</a>
</g>
</g>
<!-- Node1&#45;&gt;Node23 -->
<g id="edge25" class="edge"><title>Node1&#45;&gt;Node23</title>
<path fill="none" stroke="midnightblue" d="M1365.29,-315.777C1231.39,-310.66 943.45,-295.324 853,-256 827.935,-245.103 805.136,-222.754 791.419,-207.329"/>
<polygon fill="midnightblue" stroke="midnightblue" points="793.945,-204.897 784.776,-199.588 788.633,-209.456 793.945,-204.897"/>
</g>
<!-- Node24 -->
<g id="node24" class="node"><title>Node24</title>
<g id="a_node24"><a xlink:href="../../d6/df4/OutputRoute_8h.html" target="_top" xlink:title="Framework/OutputRoute.h">
<polygon fill="none" stroke="black" points="954,-236.5 954,-255.5 1086,-255.5 1086,-236.5 954,-236.5"/>
<text text-anchor="middle" x="1020" y="-243.5" font-family="Helvetica,sans-Serif" font-size="10.00">Framework/OutputRoute.h</text>
</a>
</g>
</g>
<!-- Node1&#45;&gt;Node24 -->
<g id="edge28" class="edge"><title>Node1&#45;&gt;Node24</title>
<path fill="none" stroke="midnightblue" d="M1365.07,-306.036C1285.2,-292.372 1155.85,-270.242 1080.26,-257.31"/>
<polygon fill="midnightblue" stroke="midnightblue" points="1080.41,-253.785 1069.97,-255.549 1079.23,-260.685 1080.41,-253.785"/>
</g>
<!-- Node27 -->
<g id="node27" class="node"><title>Node27</title>
<g id="a_node27"><a xlink:href="../../d7/d31/DataChunk_8h.html" target="_top" xlink:title="Framework/DataChunk.h">
<polygon fill="none" stroke="black" points="1327,-236.5 1327,-255.5 1453,-255.5 1453,-236.5 1327,-236.5"/>
<text text-anchor="middle" x="1390" y="-243.5" font-family="Helvetica,sans-Serif" font-size="10.00">Framework/DataChunk.h</text>
</a>
</g>
</g>
<!-- Node1&#45;&gt;Node27 -->
<g id="edge34" class="edge"><title>Node1&#45;&gt;Node27</title>
<path fill="none" stroke="midnightblue" d="M1419.01,-292.768C1413.06,-283.385 1406.45,-272.955 1401.04,-264.425"/>
<polygon fill="midnightblue" stroke="midnightblue" points="1403.86,-262.33 1395.55,-255.757 1397.95,-266.077 1403.86,-262.33"/>
</g>
<!-- Node28 -->
<g id="node28" class="node"><title>Node28</title>
<g id="a_node28"><a xlink:href="../../d8/d71/FairMQDeviceProxy_8h.html" target="_top" xlink:title="Framework/FairMQDeviceProxy.h">
<polygon fill="none" stroke="black" points="1739.5,-124.5 1739.5,-143.5 1904.5,-143.5 1904.5,-124.5 1739.5,-124.5"/>
<text text-anchor="middle" x="1822" y="-131.5" font-family="Helvetica,sans-Serif" font-size="10.00">Framework/FairMQDeviceProxy.h</text>
</a>
</g>
</g>
<!-- Node1&#45;&gt;Node28 -->
<g id="edge35" class="edge"><title>Node1&#45;&gt;Node28</title>
<path fill="none" stroke="midnightblue" d="M1480.67,-292.885C1498.52,-282.33 1518.79,-269.397 1536,-256 1574.19,-226.268 1571.36,-202.896 1614,-180 1638.26,-166.974 1704.79,-153.86 1756.14,-145.178"/>
<polygon fill="midnightblue" stroke="midnightblue" points="1756.9,-148.599 1766.19,-143.502 1755.75,-141.694 1756.9,-148.599"/>
</g>
<!-- Node29 -->
<g id="node29" class="node"><title>Node29</title>
<g id="a_node29"><a xlink:href="../../dc/dc4/MessageContext_8h.html" target="_top" xlink:title="Framework/MessageContext.h">
<polygon fill="none" stroke="black" points="1391.5,-124.5 1391.5,-143.5 1542.5,-143.5 1542.5,-124.5 1391.5,-124.5"/>
<text text-anchor="middle" x="1467" y="-131.5" font-family="Helvetica,sans-Serif" font-size="10.00">Framework/MessageContext.h</text>
</a>
</g>
</g>
<!-- Node1&#45;&gt;Node29 -->
<g id="edge37" class="edge"><title>Node1&#45;&gt;Node29</title>
<path fill="none" stroke="midnightblue" d="M1468.11,-292.76C1478.79,-282.633 1489.33,-270.024 1495,-256 1509.29,-220.69 1490.52,-176.492 1477.52,-152.488"/>
<polygon fill="midnightblue" stroke="midnightblue" points="1480.56,-150.755 1472.57,-143.792 1474.47,-154.215 1480.56,-150.755"/>
</g>
<!-- Node31 -->
<g id="node31" class="node"><title>Node31</title>
<g id="a_node31"><a xlink:href="../../d2/d80/RootObjectContext_8h.html" target="_top" xlink:title="Framework/RootObjectContext.h">
<polygon fill="none" stroke="black" points="1560.5,-124.5 1560.5,-143.5 1721.5,-143.5 1721.5,-124.5 1560.5,-124.5"/>
<text text-anchor="middle" x="1641" y="-131.5" font-family="Helvetica,sans-Serif" font-size="10.00">Framework/RootObjectContext.h</text>
</a>
</g>
</g>
<!-- Node1&#45;&gt;Node31 -->
<g id="edge42" class="edge"><title>Node1&#45;&gt;Node31</title>
<path fill="none" stroke="midnightblue" d="M1468.54,-292.84C1482.41,-281.975 1498.39,-268.831 1512,-256 1545.2,-224.71 1547.27,-210.714 1581,-180 1593.12,-168.963 1607.83,-157.898 1619.66,-149.501"/>
<polygon fill="midnightblue" stroke="midnightblue" points="1621.85,-152.24 1628.04,-143.646 1617.84,-146.501 1621.85,-152.24"/>
</g>
<!-- Node32 -->
<g id="node32" class="node"><title>Node32</title>
<g id="a_node32"><a xlink:href="../../d8/d3c/TMessageSerializer_8h.html" target="_top" xlink:title="Framework/TMessageSerializer.h">
<polygon fill="none" stroke="black" points="1923.5,-236.5 1923.5,-255.5 2086.5,-255.5 2086.5,-236.5 1923.5,-236.5"/>
<text text-anchor="middle" x="2005" y="-243.5" font-family="Helvetica,sans-Serif" font-size="10.00">Framework/TMessageSerializer.h</text>
</a>
</g>
</g>
<!-- Node1&#45;&gt;Node32 -->
<g id="edge47" class="edge"><title>Node1&#45;&gt;Node32</title>
<path fill="none" stroke="midnightblue" d="M1504.61,-309.33C1611.31,-296.039 1814.66,-270.709 1926.48,-256.78"/>
<polygon fill="midnightblue" stroke="midnightblue" points="1927.19,-260.219 1936.68,-255.51 1926.32,-253.273 1927.19,-260.219"/>
</g>
<!-- Node39 -->
<g id="node39" class="node"><title>Node39</title>
<polygon fill="none" stroke="#bfbfbf" points="2296.5,-180.5 2296.5,-199.5 2349.5,-199.5 2349.5,-180.5 2296.5,-180.5"/>
<text text-anchor="middle" x="2323" y="-187.5" font-family="Helvetica,sans-Serif" font-size="10.00">gsl/span</text>
</g>
<!-- Node1&#45;&gt;Node39 -->
<g id="edge67" class="edge"><title>Node1&#45;&gt;Node39</title>
<path fill="none" stroke="midnightblue" d="M1504.95,-315.656C1626.09,-310.659 1882.35,-295.947 2095,-256 2165.18,-242.816 2244.95,-217.65 2289.08,-202.796"/>
<polygon fill="midnightblue" stroke="midnightblue" points="2290.38,-206.052 2298.72,-199.524 2288.13,-199.423 2290.38,-206.052"/>
</g>
<!-- Node41 -->
<g id="node41" class="node"><title>Node41</title>
<g id="a_node41"><a xlink:href="../../d0/d95/TypeTraits_8h.html" target="_top" xlink:title="Framework/TypeTraits.h">
<polygon fill="none" stroke="black" points="1211.5,-124.5 1211.5,-143.5 1334.5,-143.5 1334.5,-124.5 1211.5,-124.5"/>
<text text-anchor="middle" x="1273" y="-131.5" font-family="Helvetica,sans-Serif" font-size="10.00">Framework/TypeTraits.h</text>
</a>
</g>
</g>
<!-- Node1&#45;&gt;Node41 -->
<g id="edge57" class="edge"><title>Node1&#45;&gt;Node41</title>
<path fill="none" stroke="midnightblue" d="M1365.16,-313.682C1285,-307.098 1160.86,-291.359 1132,-256 1126.38,-249.113 1126.63,-243.08 1132,-236 1167.99,-188.59 1220.84,-243.932 1261,-200 1272.24,-187.703 1274.59,-168.447 1274.52,-154.081"/>
<polygon fill="midnightblue" stroke="midnightblue" points="1278.01,-153.67 1274.07,-143.835 1271.01,-153.979 1278.01,-153.67"/>
</g>
<!-- Node42 -->
<g id="node42" class="node"><title>Node42</title>
<g id="a_node42"><a xlink:href="../../d1/d53/SerializationMethods_8h.html" target="_top" xlink:title="Type wrappers for enfording a specific serialization method. ">
<polygon fill="none" stroke="black" points="1141.5,-236.5 1141.5,-255.5 1308.5,-255.5 1308.5,-236.5 1141.5,-236.5"/>
<text text-anchor="middle" x="1225" y="-243.5" font-family="Helvetica,sans-Serif" font-size="10.00">Framework/SerializationMethods.h</text>
</a>
</g>
</g>
<!-- Node1&#45;&gt;Node42 -->
<g id="edge60" class="edge"><title>Node1&#45;&gt;Node42</title>
<path fill="none" stroke="midnightblue" d="M1365.36,-294.457C1329.91,-282.469 1288.36,-268.421 1259.71,-258.736"/>
<polygon fill="midnightblue" stroke="midnightblue" points="1260.74,-255.39 1250.15,-255.503 1258.5,-262.022 1260.74,-255.39"/>
</g>
<!-- Node43 -->
<g id="node43" class="node"><title>Node43</title>
<polygon fill="none" stroke="#bfbfbf" points="2406.5,-236.5 2406.5,-255.5 2441.5,-255.5 2441.5,-236.5 2406.5,-236.5"/>
<text text-anchor="middle" x="2424" y="-243.5" font-family="Helvetica,sans-Serif" font-size="10.00">map</text>
</g>
<!-- Node1&#45;&gt;Node43 -->
<g id="edge63" class="edge"><title>Node1&#45;&gt;Node43</title>
<path fill="none" stroke="midnightblue" d="M1504.63,-318.458C1663.3,-318.423 2063.37,-312.219 2392,-256 2393.46,-255.751 2394.94,-255.461 2396.44,-255.142"/>
<polygon fill="midnightblue" stroke="midnightblue" points="2397.35,-258.522 2406.21,-252.715 2395.66,-251.728 2397.35,-258.522"/>
</g>
<!-- Node44 -->
<g id="node44" class="node"><title>Node44</title>
<polygon fill="none" stroke="#bfbfbf" points="2460,-236.5 2460,-255.5 2516,-255.5 2516,-236.5 2460,-236.5"/>
<text text-anchor="middle" x="2488" y="-243.5" font-family="Helvetica,sans-Serif" font-size="10.00">TClass.h</text>
</g>
<!-- Node1&#45;&gt;Node44 -->
<g id="edge68" class="edge"><title>Node1&#45;&gt;Node44</title>
<path fill="none" stroke="midnightblue" d="M1504.65,-317.848C1669.74,-316.596 2097.43,-308.125 2450,-256 2450.1,-255.985 2450.2,-255.97 2450.3,-255.955"/>
<polygon fill="midnightblue" stroke="midnightblue" points="2450.66,-259.447 2459.88,-254.227 2449.42,-252.558 2450.66,-259.447"/>
</g>
<!-- Node3 -->
<g id="node3" class="node"><title>Node3</title>
<polygon fill="none" stroke="#bfbfbf" points="979,-68.5 979,-87.5 1025,-87.5 1025,-68.5 979,-68.5"/>
<text text-anchor="middle" x="1002" y="-75.5" font-family="Helvetica,sans-Serif" font-size="10.00">cstdint</text>
</g>
<!-- Node2&#45;&gt;Node3 -->
<g id="edge2" class="edge"><title>Node2&#45;&gt;Node3</title>
<path fill="none" stroke="midnightblue" d="M959.422,-124.083C966.848,-116.22 977.852,-104.569 986.812,-95.0813"/>
<polygon fill="midnightblue" stroke="midnightblue" points="989.413,-97.4244 993.735,-87.7511 984.324,-92.618 989.413,-97.4244"/>
</g>
<!-- Node4 -->
<g id="node4" class="node"><title>Node4</title>
<polygon fill="none" stroke="#bfbfbf" points="1746,-68.5 1746,-87.5 1798,-87.5 1798,-68.5 1746,-68.5"/>
<text text-anchor="middle" x="1772" y="-75.5" font-family="Helvetica,sans-Serif" font-size="10.00">memory</text>
</g>
<!-- Node2&#45;&gt;Node4 -->
<g id="edge3" class="edge"><title>Node2&#45;&gt;Node4</title>
<path fill="none" stroke="midnightblue" d="M1009.8,-124.852C1012.57,-124.546 1015.31,-124.26 1018,-124 1159.87,-110.257 1604.5,-87.4049 1735.4,-80.8243"/>
<polygon fill="midnightblue" stroke="midnightblue" points="1735.87,-84.3052 1745.68,-80.3085 1735.52,-77.314 1735.87,-84.3052"/>
</g>
<!-- Node5 -->
<g id="node5" class="node"><title>Node5</title>
<polygon fill="none" stroke="#bfbfbf" points="1387.5,-68.5 1387.5,-87.5 1436.5,-87.5 1436.5,-68.5 1387.5,-68.5"/>
<text text-anchor="middle" x="1412" y="-75.5" font-family="Helvetica,sans-Serif" font-size="10.00">cassert</text>
</g>
<!-- Node2&#45;&gt;Node5 -->
<g id="edge4" class="edge"><title>Node2&#45;&gt;Node5</title>
<path fill="none" stroke="midnightblue" d="M1009.82,-125.032C1012.58,-124.679 1015.32,-124.333 1018,-124 1150.3,-107.561 1307.88,-90.2441 1376.8,-82.7832"/>
<polygon fill="midnightblue" stroke="midnightblue" points="1377.52,-86.2263 1387.09,-81.6721 1376.77,-79.2668 1377.52,-86.2263"/>
</g>
<!-- Node6 -->
<g id="node6" class="node"><title>Node6</title>
<polygon fill="none" stroke="#bfbfbf" points="1001,-6.5 1001,-25.5 1047,-25.5 1047,-6.5 1001,-6.5"/>
<text text-anchor="middle" x="1024" y="-13.5" font-family="Helvetica,sans-Serif" font-size="10.00">cstring</text>
</g>
<!-- Node2&#45;&gt;Node6 -->
<g id="edge5" class="edge"><title>Node2&#45;&gt;Node6</title>
<path fill="none" stroke="midnightblue" d="M952.045,-124.421C953.94,-111.405 958.831,-86.2513 970,-68 978.582,-53.9762 992.01,-41.2708 1003.33,-32.0492"/>
<polygon fill="midnightblue" stroke="midnightblue" points="1005.72,-34.6209 1011.46,-25.7123 1001.42,-29.1002 1005.72,-34.6209"/>
</g>
<!-- Node7 -->
<g id="node7" class="node"><title>Node7</title>
<polygon fill="none" stroke="#bfbfbf" points="1043,-68.5 1043,-87.5 1099,-87.5 1099,-68.5 1043,-68.5"/>
<text text-anchor="middle" x="1071" y="-75.5" font-family="Helvetica,sans-Serif" font-size="10.00">algorithm</text>
</g>
<!-- Node2&#45;&gt;Node7 -->
<g id="edge6" class="edge"><title>Node2&#45;&gt;Node7</title>
<path fill="none" stroke="midnightblue" d="M970.014,-124.444C989.588,-115.636 1020.31,-101.812 1042.73,-91.722"/>
<polygon fill="midnightblue" stroke="midnightblue" points="1044.39,-94.8119 1052.07,-87.5164 1041.52,-88.4284 1044.39,-94.8119"/>
</g>
<!-- Node8 -->
<g id="node8" class="node"><title>Node8</title>
<polygon fill="none" stroke="#bfbfbf" points="863.5,-68.5 863.5,-87.5 922.5,-87.5 922.5,-68.5 863.5,-68.5"/>
<text text-anchor="middle" x="893" y="-75.5" font-family="Helvetica,sans-Serif" font-size="10.00">stdexcept</text>
</g>
<!-- Node2&#45;&gt;Node8 -->
<g id="edge7" class="edge"><title>Node2&#45;&gt;Node8</title>
<path fill="none" stroke="midnightblue" d="M941.681,-124.324C933.107,-116.341 920.188,-104.313 909.812,-94.6529"/>
<polygon fill="midnightblue" stroke="midnightblue" points="912.192,-92.0865 902.488,-87.8339 907.422,-97.2098 912.192,-92.0865"/>
</g>
<!-- Node2&#45;&gt;Node9 -->
<g id="edge8" class="edge"><title>Node2&#45;&gt;Node9</title>
<path fill="none" stroke="midnightblue" d="M1006.21,-124.426C1037.43,-117.833 1076.25,-106.598 1107,-88 1130.17,-73.9897 1150.73,-50.0821 1163.02,-33.9215"/>
<polygon fill="midnightblue" stroke="midnightblue" points="1165.86,-35.9801 1168.97,-25.8525 1160.22,-31.8292 1165.86,-35.9801"/>
</g>
<!-- Node10 -->
<g id="node10" class="node"><title>Node10</title>
<g id="a_node10"><a xlink:href="../../dc/d03/MemoryResources_8h.html" target="_top" xlink:title="MemoryResources/MemoryResources.h">
<polygon fill="none" stroke="black" points="511.5,-68.5 511.5,-87.5 704.5,-87.5 704.5,-68.5 511.5,-68.5"/>
<text text-anchor="middle" x="608" y="-75.5" font-family="Helvetica,sans-Serif" font-size="10.00">MemoryResources/MemoryResources.h</text>
</a>
</g>
</g>
<!-- Node2&#45;&gt;Node10 -->
<g id="edge9" class="edge"><title>Node2&#45;&gt;Node10</title>
<path fill="none" stroke="midnightblue" d="M896.651,-124.444C835.686,-114.846 736.889,-99.2916 672.177,-89.1037"/>
<polygon fill="midnightblue" stroke="midnightblue" points="672.518,-85.6143 662.095,-87.5164 671.429,-92.5291 672.518,-85.6143"/>
</g>
<!-- Node10&#45;&gt;Node6 -->
<g id="edge14" class="edge"><title>Node10&#45;&gt;Node6</title>
<path fill="none" stroke="midnightblue" d="M704.592,-69.2399C800.258,-60.915 939.791,-46.8715 992,-32 994.34,-31.3334 996.723,-30.5134 999.079,-29.6036"/>
<polygon fill="midnightblue" stroke="midnightblue" points="1000.67,-32.727 1008.44,-25.5199 997.873,-26.3112 1000.67,-32.727"/>
</g>
<!-- Node10&#45;&gt;Node9 -->
<g id="edge15" class="edge"><title>Node10&#45;&gt;Node9</title>
<path fill="none" stroke="midnightblue" d="M704.664,-71.9157C833.833,-64.575 1055.67,-49.904 1135,-32 1138.51,-31.2086 1142.12,-30.1792 1145.67,-29.0302"/>
<polygon fill="midnightblue" stroke="midnightblue" points="1147.14,-32.223 1155.39,-25.5741 1144.79,-25.6278 1147.14,-32.223"/>
</g>
<!-- Node11 -->
<g id="node11" class="node"><title>Node11</title>
<polygon fill="none" stroke="#bfbfbf" points="575,-1 575,-31 675,-31 675,-1 575,-1"/>
<text text-anchor="start" x="583" y="-19" font-family="Helvetica,sans-Serif" font-size="10.00">boost/container/flat</text>
<text text-anchor="middle" x="625" y="-8" font-family="Helvetica,sans-Serif" font-size="10.00">_map.hpp</text>
</g>
<!-- Node10&#45;&gt;Node11 -->
<g id="edge10" class="edge"><title>Node10&#45;&gt;Node11</title>
<path fill="none" stroke="midnightblue" d="M610.436,-68.4035C612.48,-61.1886 615.5,-50.5277 618.262,-40.7823"/>
<polygon fill="midnightblue" stroke="midnightblue" points="621.635,-41.7162 620.993,-31.1408 614.9,-39.8079 621.635,-41.7162"/>
</g>
<!-- Node12 -->
<g id="node12" class="node"><title>Node12</title>
<polygon fill="none" stroke="#bfbfbf" points="693,-1 693,-31 809,-31 809,-1 693,-1"/>
<text text-anchor="start" x="701" y="-19" font-family="Helvetica,sans-Serif" font-size="10.00">boost/container/pmr</text>
<text text-anchor="middle" x="751" y="-8" font-family="Helvetica,sans-Serif" font-size="10.00">/memory_resource.hpp</text>
</g>
<!-- Node10&#45;&gt;Node12 -->
<g id="edge11" class="edge"><title>Node10&#45;&gt;Node12</title>
<path fill="none" stroke="midnightblue" d="M628.488,-68.4035C649.192,-59.7168 681.801,-46.0346 708.173,-34.9694"/>
<polygon fill="midnightblue" stroke="midnightblue" points="709.706,-38.1218 717.573,-31.0253 706.998,-31.667 709.706,-38.1218"/>
</g>
<!-- Node13 -->
<g id="node13" class="node"><title>Node13</title>
<polygon fill="none" stroke="#bfbfbf" points="827,-1 827,-31 983,-31 983,-1 827,-1"/>
<text text-anchor="start" x="835" y="-19" font-family="Helvetica,sans-Serif" font-size="10.00">boost/container/pmr</text>
<text text-anchor="middle" x="905" y="-8" font-family="Helvetica,sans-Serif" font-size="10.00">/monotonic_buffer_resource.hpp</text>
</g>
<!-- Node10&#45;&gt;Node13 -->
<g id="edge12" class="edge"><title>Node10&#45;&gt;Node13</title>
<path fill="none" stroke="midnightblue" d="M650.237,-68.4672C695.712,-59.2804 769.105,-44.4536 825.463,-33.0681"/>
<polygon fill="midnightblue" stroke="midnightblue" points="826.311,-36.4675 835.42,-31.0565 824.925,-29.6061 826.311,-36.4675"/>
</g>
<!-- Node14 -->
<g id="node14" class="node"><title>Node14</title>
<polygon fill="none" stroke="#bfbfbf" points="58.5,-1 58.5,-31 191.5,-31 191.5,-1 58.5,-1"/>
<text text-anchor="start" x="66.5" y="-19" font-family="Helvetica,sans-Serif" font-size="10.00">boost/container/pmr</text>
<text text-anchor="middle" x="125" y="-8" font-family="Helvetica,sans-Serif" font-size="10.00">/polymorphic_allocator.hpp</text>
</g>
<!-- Node10&#45;&gt;Node14 -->
<g id="edge13" class="edge"><title>Node10&#45;&gt;Node14</title>
<path fill="none" stroke="midnightblue" d="M511.236,-68.7332C430.796,-61.3035 313.124,-49.1494 201.675,-32.1843"/>
<polygon fill="midnightblue" stroke="midnightblue" points="202.018,-28.696 191.602,-30.6351 200.954,-35.6146 202.018,-28.696"/>
</g>
<!-- Node10&#45;&gt;Node15 -->
<g id="edge16" class="edge"><title>Node10&#45;&gt;Node15</title>
<path fill="none" stroke="midnightblue" d="M704.688,-68.6257C826.138,-57.8986 1022.74,-39.7669 1056,-32 1059.5,-31.1824 1063.11,-30.1368 1066.66,-28.9786"/>
<polygon fill="midnightblue" stroke="midnightblue" points="1068.13,-32.1697 1076.37,-25.5131 1065.78,-25.5766 1068.13,-32.1697"/>
</g>
<!-- Node10&#45;&gt;Node16 -->
<g id="edge17" class="edge"><title>Node10&#45;&gt;Node16</title>
<path fill="none" stroke="midnightblue" d="M511.44,-73.8226C375.043,-68.5501 133.183,-56.1013 49,-32 47.0791,-31.4501 45.1373,-30.7672 43.2169,-29.9983"/>
<polygon fill="midnightblue" stroke="midnightblue" points="44.5262,-26.7464 33.9876,-25.6562 41.5462,-33.0804 44.5262,-26.7464"/>
</g>
<!-- Node10&#45;&gt;Node17 -->
<g id="edge18" class="edge"><title>Node10&#45;&gt;Node17</title>
<path fill="none" stroke="midnightblue" d="M704.69,-71.1103C919.207,-58.0432 1426.57,-27.1378 1560.25,-18.995"/>
<polygon fill="midnightblue" stroke="midnightblue" points="1560.85,-22.4647 1570.62,-18.3631 1560.43,-15.4777 1560.85,-22.4647"/>
</g>
<!-- Node18 -->
<g id="node18" class="node"><title>Node18</title>
<polygon fill="none" stroke="#bfbfbf" points="209.5,-6.5 209.5,-25.5 292.5,-25.5 292.5,-6.5 209.5,-6.5"/>
<text text-anchor="middle" x="251" y="-13.5" font-family="Helvetica,sans-Serif" font-size="10.00">unordered_map</text>
</g>
<!-- Node10&#45;&gt;Node18 -->
<g id="edge19" class="edge"><title>Node10&#45;&gt;Node18</title>
<path fill="none" stroke="midnightblue" d="M527.585,-68.4673C465.31,-61.0773 377.12,-48.9021 301,-32 296.272,-30.9502 291.34,-29.6851 286.494,-28.3403"/>
<polygon fill="midnightblue" stroke="midnightblue" points="287.341,-24.9419 276.762,-25.5115 285.387,-31.6637 287.341,-24.9419"/>
</g>
<!-- Node19 -->
<g id="node19" class="node"><title>Node19</title>
<polygon fill="none" stroke="#bfbfbf" points="310.5,-6.5 310.5,-25.5 407.5,-25.5 407.5,-6.5 310.5,-6.5"/>
<text text-anchor="middle" x="359" y="-13.5" font-family="Helvetica,sans-Serif" font-size="10.00">FairMQMessage.h</text>
</g>
<!-- Node10&#45;&gt;Node19 -->
<g id="edge20" class="edge"><title>Node10&#45;&gt;Node19</title>
<path fill="none" stroke="midnightblue" d="M570.04,-68.4223C531.255,-59.5835 469.325,-45.2629 416,-32 411.038,-30.7659 405.841,-29.442 400.691,-28.1105"/>
<polygon fill="midnightblue" stroke="midnightblue" points="401.476,-24.6983 390.917,-25.5621 399.71,-31.4719 401.476,-24.6983"/>
</g>
<!-- Node20 -->
<g id="node20" class="node"><title>Node20</title>
<polygon fill="none" stroke="#bfbfbf" points="425.5,-6.5 425.5,-25.5 556.5,-25.5 556.5,-6.5 425.5,-6.5"/>
<text text-anchor="middle" x="491" y="-13.5" font-family="Helvetica,sans-Serif" font-size="10.00">FairMQTransportFactory.h</text>
</g>
<!-- Node10&#45;&gt;Node20 -->
<g id="edge21" class="edge"><title>Node10&#45;&gt;Node20</title>
<path fill="none" stroke="midnightblue" d="M591.237,-68.4035C571.775,-58.4232 539.455,-41.8487 516.789,-30.2253"/>
<polygon fill="midnightblue" stroke="midnightblue" points="518.227,-27.0294 507.732,-25.5806 515.033,-33.2582 518.227,-27.0294"/>
</g>
<!-- Node21&#45;&gt;Node2 -->
<g id="edge23" class="edge"><title>Node21&#45;&gt;Node2</title>
<path fill="none" stroke="midnightblue" d="M948.495,-180.083C948.889,-173.006 949.452,-162.861 949.945,-153.986"/>
<polygon fill="midnightblue" stroke="midnightblue" points="953.454,-153.93 950.514,-143.751 946.464,-153.542 953.454,-153.93"/>
</g>
<!-- Node22 -->
<g id="node22" class="node"><title>Node22</title>
<g id="a_node22"><a xlink:href="../../dc/dca/Lifetime_8h.html" target="_top" xlink:title="Framework/Lifetime.h">
<polygon fill="none" stroke="black" points="1027.5,-124.5 1027.5,-143.5 1138.5,-143.5 1138.5,-124.5 1027.5,-124.5"/>
<text text-anchor="middle" x="1083" y="-131.5" font-family="Helvetica,sans-Serif" font-size="10.00">Framework/Lifetime.h</text>
</a>
</g>
</g>
<!-- Node21&#45;&gt;Node22 -->
<g id="edge24" class="edge"><title>Node21&#45;&gt;Node22</title>
<path fill="none" stroke="midnightblue" d="M969.391,-180.444C991.707,-171.517 1026.9,-157.439 1052.21,-147.317"/>
<polygon fill="midnightblue" stroke="midnightblue" points="1053.72,-150.48 1061.71,-143.516 1051.12,-143.981 1053.72,-150.48"/>
</g>
<!-- Node23&#45;&gt;Node2 -->
<g id="edge26" class="edge"><title>Node23&#45;&gt;Node2</title>
<path fill="none" stroke="midnightblue" d="M805.412,-180.444C834.769,-171.28 881.519,-156.688 914.096,-146.519"/>
<polygon fill="midnightblue" stroke="midnightblue" points="915.213,-149.837 923.716,-143.516 913.127,-143.155 915.213,-149.837"/>
</g>
<!-- Node23&#45;&gt;Node9 -->
<g id="edge27" class="edge"><title>Node23&#45;&gt;Node9</title>
<path fill="none" stroke="midnightblue" d="M780.532,-180.437C787.746,-157.699 810.732,-95.6539 854,-68 960.092,-0.193454 1012.79,-62.3075 1135,-32 1138.41,-31.1531 1141.94,-30.105 1145.41,-28.9594"/>
<polygon fill="midnightblue" stroke="midnightblue" points="1146.7,-32.2166 1154.94,-25.5585 1144.34,-25.624 1146.7,-32.2166"/>
</g>
<!-- Node24&#45;&gt;Node9 -->
<g id="edge33" class="edge"><title>Node24&#45;&gt;Node9</title>
<path fill="none" stroke="midnightblue" d="M1086.22,-238.422C1111.83,-232.417 1139.01,-221.124 1156,-200 1194.66,-151.937 1185.81,-72.2601 1179.12,-36.0087"/>
<polygon fill="midnightblue" stroke="midnightblue" points="1182.49,-34.9788 1177.09,-25.8598 1175.62,-36.3522 1182.49,-34.9788"/>
</g>
<!-- Node25 -->
<g id="node25" class="node"><title>Node25</title>
<g id="a_node25"><a xlink:href="../../db/d2d/OutputSpec_8h.html" target="_top" xlink:title="Framework/OutputSpec.h">
<polygon fill="none" stroke="black" points="1019,-180.5 1019,-199.5 1147,-199.5 1147,-180.5 1019,-180.5"/>
<text text-anchor="middle" x="1083" y="-187.5" font-family="Helvetica,sans-Serif" font-size="10.00">Framework/OutputSpec.h</text>
</a>
</g>
</g>
<!-- Node24&#45;&gt;Node25 -->
<g id="edge29" class="edge"><title>Node24&#45;&gt;Node25</title>
<path fill="none" stroke="midnightblue" d="M1030.12,-236.324C1039.53,-228.263 1053.74,-216.077 1065.07,-206.369"/>
<polygon fill="midnightblue" stroke="midnightblue" points="1067.38,-208.999 1072.69,-199.834 1062.82,-203.684 1067.38,-208.999"/>
</g>
<!-- Node26 -->
<g id="node26" class="node"><title>Node26</title>
<polygon fill="none" stroke="#bfbfbf" points="1203.5,-180.5 1203.5,-199.5 1252.5,-199.5 1252.5,-180.5 1203.5,-180.5"/>
<text text-anchor="middle" x="1228" y="-187.5" font-family="Helvetica,sans-Serif" font-size="10.00">cstddef</text>
</g>
<!-- Node24&#45;&gt;Node26 -->
<g id="edge32" class="edge"><title>Node24&#45;&gt;Node26</title>
<path fill="none" stroke="midnightblue" d="M1052.96,-236.444C1091.34,-226.479 1154.45,-210.095 1193.48,-199.961"/>
<polygon fill="midnightblue" stroke="midnightblue" points="1194.54,-203.303 1203.34,-197.403 1192.78,-196.528 1194.54,-203.303"/>
</g>
<!-- Node25&#45;&gt;Node2 -->
<g id="edge30" class="edge"><title>Node25&#45;&gt;Node2</title>
<path fill="none" stroke="midnightblue" d="M1062.08,-180.444C1040.26,-171.517 1005.85,-157.439 981.108,-147.317"/>
<polygon fill="midnightblue" stroke="midnightblue" points="982.399,-144.063 971.818,-143.516 979.748,-150.542 982.399,-144.063"/>
</g>
<!-- Node25&#45;&gt;Node22 -->
<g id="edge31" class="edge"><title>Node25&#45;&gt;Node22</title>
<path fill="none" stroke="midnightblue" d="M1083,-180.083C1083,-173.006 1083,-162.861 1083,-153.986"/>
<polygon fill="midnightblue" stroke="midnightblue" points="1086.5,-153.751 1083,-143.751 1079.5,-153.751 1086.5,-153.751"/>
</g>
<!-- Node28&#45;&gt;Node4 -->
<g id="edge36" class="edge"><title>Node28&#45;&gt;Node4</title>
<path fill="none" stroke="midnightblue" d="M1813.74,-124.083C1806.54,-116.298 1795.89,-104.801 1787.15,-95.3665"/>
<polygon fill="midnightblue" stroke="midnightblue" points="1789.47,-92.7108 1780.1,-87.7511 1784.33,-97.4666 1789.47,-92.7108"/>
</g>
<!-- Node29&#45;&gt;Node5 -->
<g id="edge40" class="edge"><title>Node29&#45;&gt;Node5</title>
<path fill="none" stroke="midnightblue" d="M1457.92,-124.083C1449.83,-116.141 1437.8,-104.335 1428.09,-94.7973"/>
<polygon fill="midnightblue" stroke="midnightblue" points="1430.5,-92.2595 1420.91,-87.7511 1425.6,-97.2545 1430.5,-92.2595"/>
</g>
<!-- Node29&#45;&gt;Node9 -->
<g id="edge41" class="edge"><title>Node29&#45;&gt;Node9</title>
<path fill="none" stroke="midnightblue" d="M1450.06,-124.48C1417.09,-107.932 1346.55,-72.6545 1335,-68 1290.83,-50.2023 1237.9,-34.3557 1205.36,-25.2147"/>
<polygon fill="midnightblue" stroke="midnightblue" points="1206.12,-21.7937 1195.55,-22.4885 1204.25,-28.5381 1206.12,-21.7937"/>
</g>
<!-- Node29&#45;&gt;Node17 -->
<g id="edge39" class="edge"><title>Node29&#45;&gt;Node17</title>
<path fill="none" stroke="midnightblue" d="M1509.91,-124.468C1531.96,-117.981 1557.58,-106.835 1574,-88 1586.69,-73.4504 1591.01,-51.3026 1592.43,-35.6177"/>
<polygon fill="midnightblue" stroke="midnightblue" points="1595.93,-35.7292 1593.03,-25.54 1588.94,-35.3159 1595.93,-35.7292"/>
</g>
<!-- Node30 -->
<g id="node30" class="node"><title>Node30</title>
<polygon fill="none" stroke="#bfbfbf" points="1455,-68.5 1455,-87.5 1565,-87.5 1565,-68.5 1455,-68.5"/>
<text text-anchor="middle" x="1510" y="-75.5" font-family="Helvetica,sans-Serif" font-size="10.00">fairmq/FairMQParts.h</text>
</g>
<!-- Node29&#45;&gt;Node30 -->
<g id="edge38" class="edge"><title>Node29&#45;&gt;Node30</title>
<path fill="none" stroke="midnightblue" d="M1474.1,-124.083C1480.24,-116.377 1489.27,-105.033 1496.74,-95.6531"/>
<polygon fill="midnightblue" stroke="midnightblue" points="1499.54,-97.7542 1503.03,-87.7511 1494.06,-93.3936 1499.54,-97.7542"/>
</g>
<!-- Node31&#45;&gt;Node4 -->
<g id="edge46" class="edge"><title>Node31&#45;&gt;Node4</title>
<path fill="none" stroke="midnightblue" d="M1661.76,-124.444C1683.32,-115.557 1717.26,-101.563 1741.79,-91.4514"/>
<polygon fill="midnightblue" stroke="midnightblue" points="1743.43,-94.5634 1751.34,-87.5164 1740.76,-88.0917 1743.43,-94.5634"/>
</g>
<!-- Node31&#45;&gt;Node5 -->
<g id="edge44" class="edge"><title>Node31&#45;&gt;Node5</title>
<path fill="none" stroke="midnightblue" d="M1602.43,-124.482C1565.11,-116.154 1506.7,-102.897 1446.86,-88.1539"/>
<polygon fill="midnightblue" stroke="midnightblue" points="1447.41,-84.6832 1436.86,-85.6784 1445.73,-91.4782 1447.41,-84.6832"/>
</g>
<!-- Node31&#45;&gt;Node9 -->
<g id="edge45" class="edge"><title>Node31&#45;&gt;Node9</title>
<path fill="none" stroke="midnightblue" d="M1635.14,-124.475C1624.72,-110.076 1601.45,-81.2166 1574,-68 1508.81,-36.6168 1287.77,-22.6259 1205.87,-18.4321"/>
<polygon fill="midnightblue" stroke="midnightblue" points="1205.86,-14.9277 1195.7,-17.9258 1205.51,-21.919 1205.86,-14.9277"/>
</g>
<!-- Node31&#45;&gt;Node17 -->
<g id="edge43" class="edge"><title>Node31&#45;&gt;Node17</title>
<path fill="none" stroke="midnightblue" d="M1643.93,-124.176C1647.7,-111.276 1652.88,-86.7638 1645,-68 1638.84,-53.3208 1626.16,-40.7443 1614.86,-31.7531"/>
<polygon fill="midnightblue" stroke="midnightblue" points="1616.73,-28.7812 1606.63,-25.6008 1612.54,-34.3893 1616.73,-28.7812"/>
</g>
<!-- Node32&#45;&gt;Node4 -->
<g id="edge55" class="edge"><title>Node32&#45;&gt;Node4</title>
<path fill="none" stroke="midnightblue" d="M2075.99,-236.493C2143.69,-227.652 2236.96,-213.276 2248,-200 2253.68,-193.166 2253.6,-186.907 2248,-180 2192.34,-111.291 1909.41,-87.4157 1808.13,-80.995"/>
<polygon fill="midnightblue" stroke="midnightblue" points="1808.27,-77.4973 1798.07,-80.3777 1807.84,-84.4841 1808.27,-77.4973"/>
</g>
<!-- Node33 -->
<g id="node33" class="node"><title>Node33</title>
<polygon fill="none" stroke="#bfbfbf" points="1623.5,-180.5 1623.5,-199.5 1750.5,-199.5 1750.5,-180.5 1623.5,-180.5"/>
<text text-anchor="middle" x="1687" y="-187.5" font-family="Helvetica,sans-Serif" font-size="10.00">fairmq/FairMQMessage.h</text>
</g>
<!-- Node32&#45;&gt;Node33 -->
<g id="edge48" class="edge"><title>Node32&#45;&gt;Node33</title>
<path fill="none" stroke="midnightblue" d="M1954.61,-236.444C1898.32,-226.885 1807.25,-211.419 1747.24,-201.23"/>
<polygon fill="midnightblue" stroke="midnightblue" points="1747.6,-197.74 1737.15,-199.516 1746.43,-204.641 1747.6,-197.74"/>
</g>
<!-- Node34 -->
<g id="node34" class="node"><title>Node34</title>
<polygon fill="none" stroke="#bfbfbf" points="1768.5,-180.5 1768.5,-199.5 1815.5,-199.5 1815.5,-180.5 1768.5,-180.5"/>
<text text-anchor="middle" x="1792" y="-187.5" font-family="Helvetica,sans-Serif" font-size="10.00">TList.h</text>
</g>
<!-- Node32&#45;&gt;Node34 -->
<g id="edge49" class="edge"><title>Node32&#45;&gt;Node34</title>
<path fill="none" stroke="midnightblue" d="M1969.2,-236.441C1934.7,-228.116 1880.78,-214.91 1825.68,-200.393"/>
<polygon fill="midnightblue" stroke="midnightblue" points="1826.31,-196.939 1815.74,-197.765 1824.52,-203.706 1826.31,-196.939"/>
</g>
<!-- Node35 -->
<g id="node35" class="node"><title>Node35</title>
<polygon fill="none" stroke="#bfbfbf" points="1833.5,-180.5 1833.5,-199.5 1904.5,-199.5 1904.5,-180.5 1833.5,-180.5"/>
<text text-anchor="middle" x="1869" y="-187.5" font-family="Helvetica,sans-Serif" font-size="10.00">TMessage.h</text>
</g>
<!-- Node32&#45;&gt;Node35 -->
<g id="edge50" class="edge"><title>Node32&#45;&gt;Node35</title>
<path fill="none" stroke="midnightblue" d="M1983.45,-236.444C1960.97,-227.517 1925.51,-213.439 1900.02,-203.317"/>
<polygon fill="midnightblue" stroke="midnightblue" points="1901.03,-199.954 1890.45,-199.516 1898.45,-206.46 1901.03,-199.954"/>
</g>
<!-- Node36 -->
<g id="node36" class="node"><title>Node36</title>
<polygon fill="none" stroke="#bfbfbf" points="1922.5,-180.5 1922.5,-199.5 1991.5,-199.5 1991.5,-180.5 1922.5,-180.5"/>
<text text-anchor="middle" x="1957" y="-187.5" font-family="Helvetica,sans-Serif" font-size="10.00">TObjArray.h</text>
</g>
<!-- Node32&#45;&gt;Node36 -->
<g id="edge51" class="edge"><title>Node32&#45;&gt;Node36</title>
<path fill="none" stroke="midnightblue" d="M1997.07,-236.083C1990.15,-228.298 1979.93,-216.801 1971.55,-207.367"/>
<polygon fill="midnightblue" stroke="midnightblue" points="1974.04,-204.9 1964.78,-199.751 1968.81,-209.55 1974.04,-204.9"/>
</g>
<!-- Node37 -->
<g id="node37" class="node"><title>Node37</title>
<polygon fill="none" stroke="#bfbfbf" points="2009.5,-180.5 2009.5,-199.5 2096.5,-199.5 2096.5,-180.5 2009.5,-180.5"/>
<text text-anchor="middle" x="2053" y="-187.5" font-family="Helvetica,sans-Serif" font-size="10.00">TStreamerInfo.h</text>
</g>
<!-- Node32&#45;&gt;Node37 -->
<g id="edge52" class="edge"><title>Node32&#45;&gt;Node37</title>
<path fill="none" stroke="midnightblue" d="M2012.93,-236.083C2019.85,-228.298 2030.07,-216.801 2038.45,-207.367"/>
<polygon fill="midnightblue" stroke="midnightblue" points="2041.19,-209.55 2045.22,-199.751 2035.96,-204.9 2041.19,-209.55"/>
</g>
<!-- Node38 -->
<g id="node38" class="node"><title>Node38</title>
<polygon fill="none" stroke="#bfbfbf" points="2114.5,-180.5 2114.5,-199.5 2177.5,-199.5 2177.5,-180.5 2114.5,-180.5"/>
<text text-anchor="middle" x="2146" y="-187.5" font-family="Helvetica,sans-Serif" font-size="10.00">gsl/gsl_util</text>
</g>
<!-- Node32&#45;&gt;Node38 -->
<g id="edge53" class="edge"><title>Node32&#45;&gt;Node38</title>
<path fill="none" stroke="midnightblue" d="M2027.34,-236.444C2050.75,-227.478 2087.74,-213.314 2114.19,-203.183"/>
<polygon fill="midnightblue" stroke="midnightblue" points="2115.68,-206.361 2123.76,-199.516 2113.17,-199.824 2115.68,-206.361"/>
</g>
<!-- Node32&#45;&gt;Node39 -->
<g id="edge54" class="edge"><title>Node32&#45;&gt;Node39</title>
<path fill="none" stroke="midnightblue" d="M2063.26,-236.489C2119.43,-228.059 2206.74,-214.361 2282,-200 2283.29,-199.754 2284.6,-199.498 2285.92,-199.235"/>
<polygon fill="midnightblue" stroke="midnightblue" points="2287.06,-202.575 2296.14,-197.118 2285.64,-195.72 2287.06,-202.575"/>
</g>
<!-- Node40 -->
<g id="node40" class="node"><title>Node40</title>
<polygon fill="none" stroke="#bfbfbf" points="2196,-180.5 2196,-199.5 2240,-199.5 2240,-180.5 2196,-180.5"/>
<text text-anchor="middle" x="2218" y="-187.5" font-family="Helvetica,sans-Serif" font-size="10.00">mutex</text>
</g>
<!-- Node32&#45;&gt;Node40 -->
<g id="edge56" class="edge"><title>Node32&#45;&gt;Node40</title>
<path fill="none" stroke="midnightblue" d="M2040.8,-236.441C2077.37,-227.616 2135.76,-213.306 2186,-200 2186.1,-199.973 2186.2,-199.946 2186.3,-199.919"/>
<polygon fill="midnightblue" stroke="midnightblue" points="2187.26,-203.287 2195.99,-197.285 2185.42,-196.532 2187.26,-203.287"/>
</g>
<!-- Node41&#45;&gt;Node15 -->
<g id="edge58" class="edge"><title>Node41&#45;&gt;Node15</title>
<path fill="none" stroke="midnightblue" d="M1259.98,-124.47C1229.81,-104.694 1154.82,-55.5484 1117.63,-31.1728"/>
<polygon fill="midnightblue" stroke="midnightblue" points="1119.32,-28.0963 1109.03,-25.5423 1115.48,-33.9511 1119.32,-28.0963"/>
</g>
<!-- Node41&#45;&gt;Node17 -->
<g id="edge59" class="edge"><title>Node41&#45;&gt;Node17</title>
<path fill="none" stroke="midnightblue" d="M1284.3,-124.284C1302.85,-110.383 1341.37,-83.2116 1378,-68 1440.06,-42.2298 1517.84,-27.8488 1560.78,-21.3359"/>
<polygon fill="midnightblue" stroke="midnightblue" points="1561.53,-24.7634 1570.92,-19.8475 1560.52,-17.8377 1561.53,-24.7634"/>
</g>
<!-- Node42&#45;&gt;Node41 -->
<g id="edge61" class="edge"><title>Node42&#45;&gt;Node41</title>
<path fill="none" stroke="midnightblue" d="M1249.47,-236.438C1265.57,-229.378 1285.38,-217.626 1295,-200 1303.35,-184.707 1294.98,-165.673 1286.27,-152.164"/>
<polygon fill="midnightblue" stroke="midnightblue" points="1289,-149.969 1280.38,-143.808 1283.28,-154 1289,-149.969"/>
</g>
</g>
</svg>
