<?xml version="1.0" encoding="UTF-8" standalone="no"?>
<!DOCTYPE svg PUBLIC "-//W3C//DTD SVG 1.1//EN"
 "http://www.w3.org/Graphics/SVG/1.1/DTD/svg11.dtd">
<!-- Generated by graphviz version 2.36.0 (20140111.2315)
 -->
<!-- Title: /home/travis/build/AliceO2Group/AliceO2/Steer/src/HitProcessingManager.cxx Pages: 1 -->
<svg width="979pt" height="286pt"
 viewBox="0.00 0.00 979.18 286.00" xmlns="http://www.w3.org/2000/svg" xmlns:xlink="http://www.w3.org/1999/xlink">
<g id="graph0" class="graph" transform="scale(1 1) rotate(0) translate(4 282)">
<title>/home/travis/build/AliceO2Group/AliceO2/Steer/src/HitProcessingManager.cxx</title>
<!-- Node1 -->
<g id="node1" class="node"><title>Node1</title>
<polygon fill="#bfbfbf" stroke="black" points="633.181,-236.5 633.181,-277.5 813.181,-277.5 813.181,-236.5 633.181,-236.5"/>
<text text-anchor="start" x="641.181" y="-265.5" font-family="Helvetica,sans-Serif" font-size="10.00">/home/travis/build</text>
<text text-anchor="start" x="641.181" y="-254.5" font-family="Helvetica,sans-Serif" font-size="10.00">/AliceO2Group/AliceO2</text>
<text text-anchor="middle" x="723.181" y="-243.5" font-family="Helvetica,sans-Serif" font-size="10.00">/Steer/src/HitProcessingManager.cxx</text>
</g>
<!-- Node2 -->
<g id="node2" class="node"><title>Node2</title>
<g id="a_node2"><a xlink:href="../../dd/d40/HitProcessingManager_8h.html" target="_top" xlink:title="Steer/HitProcessingManager.h">
<polygon fill="none" stroke="black" points="364.181,-180.5 364.181,-199.5 514.181,-199.5 514.181,-180.5 364.181,-180.5"/>
<text text-anchor="middle" x="439.181" y="-187.5" font-family="Helvetica,sans-Serif" font-size="10.00">Steer/HitProcessingManager.h</text>
</a>
</g>
</g>
<!-- Node1&#45;&gt;Node2 -->
<g id="edge1" class="edge"><title>Node1&#45;&gt;Node2</title>
<path fill="none" stroke="midnightblue" d="M637.971,-236.498C588.312,-225.132 527.557,-211.227 486.381,-201.803"/>
<polygon fill="midnightblue" stroke="midnightblue" points="487.141,-198.386 476.612,-199.567 485.579,-205.21 487.141,-198.386"/>
</g>
<!-- Node8 -->
<g id="node8" class="node"><title>Node8</title>
<polygon fill="none" stroke="#bfbfbf" points="371.181,-62.5 371.181,-81.5 415.181,-81.5 415.181,-62.5 371.181,-62.5"/>
<text text-anchor="middle" x="393.181" y="-69.5" font-family="Helvetica,sans-Serif" font-size="10.00">vector</text>
</g>
<!-- Node1&#45;&gt;Node8 -->
<g id="edge18" class="edge"><title>Node1&#45;&gt;Node8</title>
<path fill="none" stroke="midnightblue" d="M705.689,-236.268C696.897,-225.863 686.394,-212.66 678.181,-200 657.517,-168.15 669.392,-146.993 639.181,-124 605.935,-98.6974 484.683,-82.7039 425.761,-76.2567"/>
<polygon fill="midnightblue" stroke="midnightblue" points="425.834,-72.7447 415.519,-75.1638 425.092,-79.7052 425.834,-72.7447"/>
</g>
<!-- Node13 -->
<g id="node13" class="node"><title>Node13</title>
<polygon fill="none" stroke="#bfbfbf" points="595.681,-124.5 595.681,-143.5 630.681,-143.5 630.681,-124.5 595.681,-124.5"/>
<text text-anchor="middle" x="613.181" y="-131.5" font-family="Helvetica,sans-Serif" font-size="10.00">map</text>
</g>
<!-- Node1&#45;&gt;Node13 -->
<g id="edge19" class="edge"><title>Node1&#45;&gt;Node13</title>
<path fill="none" stroke="midnightblue" d="M688.361,-236.3C673.687,-226.746 657.249,-214.246 645.181,-200 633.39,-186.081 624.688,-167.071 619.36,-153.205"/>
<polygon fill="midnightblue" stroke="midnightblue" points="622.641,-151.987 615.947,-143.775 616.059,-154.369 622.641,-151.987"/>
</g>
<!-- Node16 -->
<g id="node16" class="node"><title>Node16</title>
<polygon fill="none" stroke="#bfbfbf" points="687.681,-180.5 687.681,-199.5 758.681,-199.5 758.681,-180.5 687.681,-180.5"/>
<text text-anchor="middle" x="723.181" y="-187.5" font-family="Helvetica,sans-Serif" font-size="10.00">FairLogger.h</text>
</g>
<!-- Node1&#45;&gt;Node16 -->
<g id="edge17" class="edge"><title>Node1&#45;&gt;Node16</title>
<path fill="none" stroke="midnightblue" d="M723.181,-236.498C723.181,-228.065 723.181,-218.235 723.181,-209.874"/>
<polygon fill="midnightblue" stroke="midnightblue" points="726.681,-209.652 723.181,-199.652 719.681,-209.653 726.681,-209.652"/>
</g>
<!-- Node17 -->
<g id="node17" class="node"><title>Node17</title>
<polygon fill="none" stroke="#bfbfbf" points="777.181,-180.5 777.181,-199.5 831.181,-199.5 831.181,-180.5 777.181,-180.5"/>
<text text-anchor="middle" x="804.181" y="-187.5" font-family="Helvetica,sans-Serif" font-size="10.00">iostream</text>
</g>
<!-- Node1&#45;&gt;Node17 -->
<g id="edge20" class="edge"><title>Node1&#45;&gt;Node17</title>
<path fill="none" stroke="midnightblue" d="M747.483,-236.498C759.663,-226.724 774.183,-215.072 785.48,-206.007"/>
<polygon fill="midnightblue" stroke="midnightblue" points="787.79,-208.641 793.398,-199.652 783.408,-203.181 787.79,-208.641"/>
</g>
<!-- Node18 -->
<g id="node18" class="node"><title>Node18</title>
<polygon fill="none" stroke="#bfbfbf" points="849.681,-180.5 849.681,-199.5 896.681,-199.5 896.681,-180.5 849.681,-180.5"/>
<text text-anchor="middle" x="873.181" y="-187.5" font-family="Helvetica,sans-Serif" font-size="10.00">TFile.h</text>
</g>
<!-- Node1&#45;&gt;Node18 -->
<g id="edge21" class="edge"><title>Node1&#45;&gt;Node18</title>
<path fill="none" stroke="midnightblue" d="M768.186,-236.498C792.731,-225.861 822.409,-213.001 843.941,-203.67"/>
<polygon fill="midnightblue" stroke="midnightblue" points="845.429,-206.84 853.213,-199.652 842.646,-200.417 845.429,-206.84"/>
</g>
<!-- Node19 -->
<g id="node19" class="node"><title>Node19</title>
<polygon fill="none" stroke="#bfbfbf" points="915.181,-180.5 915.181,-199.5 971.181,-199.5 971.181,-180.5 915.181,-180.5"/>
<text text-anchor="middle" x="943.181" y="-187.5" font-family="Helvetica,sans-Serif" font-size="10.00">TClass.h</text>
</g>
<!-- Node1&#45;&gt;Node19 -->
<g id="edge22" class="edge"><title>Node1&#45;&gt;Node19</title>
<path fill="none" stroke="midnightblue" d="M789.188,-236.498C827.105,-225.295 873.371,-211.626 905.235,-202.211"/>
<polygon fill="midnightblue" stroke="midnightblue" points="906.447,-205.503 915.045,-199.313 904.463,-198.79 906.447,-205.503"/>
</g>
<!-- Node3 -->
<g id="node3" class="node"><title>Node3</title>
<g id="a_node3"><a xlink:href="../../df/dff/InteractionSampler_8h.html" target="_top" xlink:title="Steer/InteractionSampler.h">
<polygon fill="none" stroke="black" points="90.6806,-124.5 90.6806,-143.5 223.681,-143.5 223.681,-124.5 90.6806,-124.5"/>
<text text-anchor="middle" x="157.181" y="-131.5" font-family="Helvetica,sans-Serif" font-size="10.00">Steer/InteractionSampler.h</text>
</a>
</g>
</g>
<!-- Node2&#45;&gt;Node3 -->
<g id="edge2" class="edge"><title>Node2&#45;&gt;Node3</title>
<path fill="none" stroke="midnightblue" d="M394.497,-180.444C344.89,-170.944 264.816,-155.611 211.595,-145.42"/>
<polygon fill="midnightblue" stroke="midnightblue" points="212.135,-141.96 201.655,-143.516 210.819,-148.835 212.135,-141.96"/>
</g>
<!-- Node2&#45;&gt;Node8 -->
<g id="edge13" class="edge"><title>Node2&#45;&gt;Node8</title>
<path fill="none" stroke="midnightblue" d="M377.561,-180.448C335.204,-173.161 284.324,-161.127 271.181,-144 230.247,-90.6596 291.489,-119.035 362.181,-88 363.583,-87.3841 365.016,-86.7412 366.458,-86.0829"/>
<polygon fill="midnightblue" stroke="midnightblue" points="368.348,-89.062 375.906,-81.6375 365.368,-82.728 368.348,-89.062"/>
</g>
<!-- Node11 -->
<g id="node11" class="node"><title>Node11</title>
<polygon fill="none" stroke="#bfbfbf" points="280.181,-124.5 280.181,-143.5 366.181,-143.5 366.181,-124.5 280.181,-124.5"/>
<text text-anchor="middle" x="323.181" y="-131.5" font-family="Helvetica,sans-Serif" font-size="10.00">TGeoManager.h</text>
</g>
<!-- Node2&#45;&gt;Node11 -->
<g id="edge11" class="edge"><title>Node2&#45;&gt;Node11</title>
<path fill="none" stroke="midnightblue" d="M420.8,-180.444C401.964,-171.675 372.449,-157.935 350.801,-147.858"/>
<polygon fill="midnightblue" stroke="midnightblue" points="352.018,-144.564 341.475,-143.516 349.064,-150.91 352.018,-144.564"/>
</g>
<!-- Node12 -->
<g id="node12" class="node"><title>Node12</title>
<polygon fill="none" stroke="#bfbfbf" points="384.681,-124.5 384.681,-143.5 425.681,-143.5 425.681,-124.5 384.681,-124.5"/>
<text text-anchor="middle" x="405.181" y="-131.5" font-family="Helvetica,sans-Serif" font-size="10.00">string</text>
</g>
<!-- Node2&#45;&gt;Node12 -->
<g id="edge12" class="edge"><title>Node2&#45;&gt;Node12</title>
<path fill="none" stroke="midnightblue" d="M433.566,-180.083C428.813,-172.534 421.863,-161.495 416.029,-152.23"/>
<polygon fill="midnightblue" stroke="midnightblue" points="418.981,-150.349 410.691,-143.751 413.057,-154.078 418.981,-150.349"/>
</g>
<!-- Node2&#45;&gt;Node13 -->
<g id="edge14" class="edge"><title>Node2&#45;&gt;Node13</title>
<path fill="none" stroke="midnightblue" d="M467.201,-180.473C496.616,-171.496 544.195,-156.903 585.181,-144 585.388,-143.935 585.595,-143.869 585.804,-143.804"/>
<polygon fill="midnightblue" stroke="midnightblue" points="586.948,-147.113 595.416,-140.745 584.826,-140.442 586.948,-147.113"/>
</g>
<!-- Node14 -->
<g id="node14" class="node"><title>Node14</title>
<polygon fill="none" stroke="#bfbfbf" points="443.681,-124.5 443.681,-143.5 502.681,-143.5 502.681,-124.5 443.681,-124.5"/>
<text text-anchor="middle" x="473.181" y="-131.5" font-family="Helvetica,sans-Serif" font-size="10.00">functional</text>
</g>
<!-- Node2&#45;&gt;Node14 -->
<g id="edge15" class="edge"><title>Node2&#45;&gt;Node14</title>
<path fill="none" stroke="midnightblue" d="M444.795,-180.083C449.548,-172.534 456.499,-161.495 462.332,-152.23"/>
<polygon fill="midnightblue" stroke="midnightblue" points="465.304,-154.078 467.671,-143.751 459.381,-150.349 465.304,-154.078"/>
</g>
<!-- Node15 -->
<g id="node15" class="node"><title>Node15</title>
<polygon fill="none" stroke="#bfbfbf" points="521.181,-124.5 521.181,-143.5 577.181,-143.5 577.181,-124.5 521.181,-124.5"/>
<text text-anchor="middle" x="549.181" y="-131.5" font-family="Helvetica,sans-Serif" font-size="10.00">TChain.h</text>
</g>
<!-- Node2&#45;&gt;Node15 -->
<g id="edge16" class="edge"><title>Node2&#45;&gt;Node15</title>
<path fill="none" stroke="midnightblue" d="M456.854,-180.324C474.575,-171.625 502.084,-158.12 522.469,-148.113"/>
<polygon fill="midnightblue" stroke="midnightblue" points="524.117,-151.203 531.551,-143.655 521.032,-144.919 524.117,-151.203"/>
</g>
<!-- Node4 -->
<g id="node4" class="node"><title>Node4</title>
<polygon fill="none" stroke="#bfbfbf" points="78.1806,-0.5 78.1806,-19.5 134.181,-19.5 134.181,-0.5 78.1806,-0.5"/>
<text text-anchor="middle" x="106.181" y="-7.5" font-family="Helvetica,sans-Serif" font-size="10.00">Rtypes.h</text>
</g>
<!-- Node3&#45;&gt;Node4 -->
<g id="edge3" class="edge"><title>Node3&#45;&gt;Node4</title>
<path fill="none" stroke="midnightblue" d="M90.4462,-130.554C59.6317,-125.657 25.6357,-114.099 6.1806,-88 -2.31948,-76.5974 -1.54165,-67.9431 6.1806,-56 19.8061,-34.927 45.9117,-23.6245 68.0333,-17.6177"/>
<polygon fill="midnightblue" stroke="midnightblue" points="68.9758,-20.9904 77.8578,-15.2145 67.3125,-14.1909 68.9758,-20.9904"/>
</g>
<!-- Node5 -->
<g id="node5" class="node"><title>Node5</title>
<polygon fill="none" stroke="#bfbfbf" points="15.6806,-62.5 15.6806,-81.5 68.6806,-81.5 68.6806,-62.5 15.6806,-62.5"/>
<text text-anchor="middle" x="42.1806" y="-69.5" font-family="Helvetica,sans-Serif" font-size="10.00">TMath.h</text>
</g>
<!-- Node3&#45;&gt;Node5 -->
<g id="edge4" class="edge"><title>Node3&#45;&gt;Node5</title>
<path fill="none" stroke="midnightblue" d="M140.704,-124.403C121.575,-114.423 89.8073,-97.8487 67.529,-86.2253"/>
<polygon fill="midnightblue" stroke="midnightblue" points="69.1116,-83.1033 58.6267,-81.5806 65.8736,-89.3094 69.1116,-83.1033"/>
</g>
<!-- Node6 -->
<g id="node6" class="node"><title>Node6</title>
<polygon fill="none" stroke="#bfbfbf" points="87.1806,-62.5 87.1806,-81.5 155.181,-81.5 155.181,-62.5 87.1806,-62.5"/>
<text text-anchor="middle" x="121.181" y="-69.5" font-family="Helvetica,sans-Serif" font-size="10.00">TRandom.h</text>
</g>
<!-- Node3&#45;&gt;Node6 -->
<g id="edge5" class="edge"><title>Node3&#45;&gt;Node6</title>
<path fill="none" stroke="midnightblue" d="M152.023,-124.403C146.73,-115.582 138.345,-101.608 131.653,-90.4548"/>
<polygon fill="midnightblue" stroke="midnightblue" points="134.475,-88.3548 126.329,-81.5806 128.473,-91.9563 134.475,-88.3548"/>
</g>
<!-- Node7 -->
<g id="node7" class="node"><title>Node7</title>
<polygon fill="none" stroke="#bfbfbf" points="173.681,-62.5 173.681,-81.5 214.681,-81.5 214.681,-62.5 173.681,-62.5"/>
<text text-anchor="middle" x="194.181" y="-69.5" font-family="Helvetica,sans-Serif" font-size="10.00">bitset</text>
</g>
<!-- Node3&#45;&gt;Node7 -->
<g id="edge6" class="edge"><title>Node3&#45;&gt;Node7</title>
<path fill="none" stroke="midnightblue" d="M162.482,-124.403C167.977,-115.493 176.714,-101.325 183.625,-90.1177"/>
<polygon fill="midnightblue" stroke="midnightblue" points="186.619,-91.9294 188.889,-81.5806 180.661,-88.2552 186.619,-91.9294"/>
</g>
<!-- Node3&#45;&gt;Node8 -->
<g id="edge7" class="edge"><title>Node3&#45;&gt;Node8</title>
<path fill="none" stroke="midnightblue" d="M212.528,-124.48C254.341,-117.178 312.771,-105.11 362.181,-88 364.087,-87.3397 366.03,-86.5928 367.966,-85.7936"/>
<polygon fill="midnightblue" stroke="midnightblue" points="369.731,-88.8364 377.395,-81.5206 366.842,-82.4606 369.731,-88.8364"/>
</g>
<!-- Node9 -->
<g id="node9" class="node"><title>Node9</title>
<g id="a_node9"><a xlink:href="../../d1/dbe/MCInteractionRecord_8h.html" target="_top" xlink:title="SimulationDataFormat\l/MCInteractionRecord.h">
<polygon fill="none" stroke="black" points="232.681,-57 232.681,-87 353.681,-87 353.681,-57 232.681,-57"/>
<text text-anchor="start" x="240.681" y="-75" font-family="Helvetica,sans-Serif" font-size="10.00">SimulationDataFormat</text>
<text text-anchor="middle" x="293.181" y="-64" font-family="Helvetica,sans-Serif" font-size="10.00">/MCInteractionRecord.h</text>
</a>
</g>
</g>
<!-- Node3&#45;&gt;Node9 -->
<g id="edge8" class="edge"><title>Node3&#45;&gt;Node9</title>
<path fill="none" stroke="midnightblue" d="M176.666,-124.403C196.269,-115.755 227.097,-102.155 252.12,-91.1152"/>
<polygon fill="midnightblue" stroke="midnightblue" points="253.653,-94.264 261.39,-87.0253 250.828,-87.8596 253.653,-94.264"/>
</g>
<!-- Node9&#45;&gt;Node4 -->
<g id="edge9" class="edge"><title>Node9&#45;&gt;Node4</title>
<path fill="none" stroke="midnightblue" d="M249.337,-56.9327C216.846,-46.5077 173.085,-32.4667 142.532,-22.6635"/>
<polygon fill="midnightblue" stroke="midnightblue" points="143.303,-19.2353 132.712,-19.5127 141.164,-25.9006 143.303,-19.2353"/>
</g>
<!-- Node10 -->
<g id="node10" class="node"><title>Node10</title>
<polygon fill="none" stroke="#bfbfbf" points="270.681,-0.5 270.681,-19.5 315.681,-19.5 315.681,-0.5 270.681,-0.5"/>
<text text-anchor="middle" x="293.181" y="-7.5" font-family="Helvetica,sans-Serif" font-size="10.00">iosfwd</text>
</g>
<!-- Node9&#45;&gt;Node10 -->
<g id="edge10" class="edge"><title>Node9&#45;&gt;Node10</title>
<path fill="none" stroke="midnightblue" d="M293.181,-56.7808C293.181,-48.7812 293.181,-38.6887 293.181,-30.0168"/>
<polygon fill="midnightblue" stroke="midnightblue" points="296.681,-29.7305 293.181,-19.7305 289.681,-29.7306 296.681,-29.7305"/>
</g>
</g>
</svg>
