<?xml version="1.0" encoding="UTF-8" standalone="no"?>
<!DOCTYPE svg PUBLIC "-//W3C//DTD SVG 1.1//EN"
 "http://www.w3.org/Graphics/SVG/1.1/DTD/svg11.dtd">
<!-- Generated by graphviz version 2.36.0 (20140111.2315)
 -->
<!-- Title: /home/travis/build/AliceO2Group/AliceO2/Detectors/TOF/simulation/src/DigitizerTask.cxx Pages: 1 -->
<svg width="2691pt" height="514pt"
 viewBox="0.00 0.00 2691.00 514.00" xmlns="http://www.w3.org/2000/svg" xmlns:xlink="http://www.w3.org/1999/xlink">
<g id="graph0" class="graph" transform="scale(1 1) rotate(0) translate(4 510)">
<title>/home/travis/build/AliceO2Group/AliceO2/Detectors/TOF/simulation/src/DigitizerTask.cxx</title>
<!-- Node1 -->
<g id="node1" class="node"><title>Node1</title>
<polygon fill="#bfbfbf" stroke="black" points="1674,-453 1674,-505 1806,-505 1806,-453 1674,-453"/>
<text text-anchor="start" x="1682" y="-493" font-family="Helvetica,sans-Serif" font-size="10.00">/home/travis/build</text>
<text text-anchor="start" x="1682" y="-482" font-family="Helvetica,sans-Serif" font-size="10.00">/AliceO2Group/AliceO2</text>
<text text-anchor="start" x="1682" y="-471" font-family="Helvetica,sans-Serif" font-size="10.00">/Detectors/TOF/simulation</text>
<text text-anchor="middle" x="1740" y="-460" font-family="Helvetica,sans-Serif" font-size="10.00">/src/DigitizerTask.cxx</text>
</g>
<!-- Node2 -->
<g id="node2" class="node"><title>Node2</title>
<g id="a_node2"><a xlink:href="../../d8/dc6/TOF_2simulation_2include_2TOFSimulation_2DigitizerTask_8h.html" target="_top" xlink:title="TOFSimulation/DigitizerTask.h">
<polygon fill="none" stroke="black" points="1248.5,-396.5 1248.5,-415.5 1399.5,-415.5 1399.5,-396.5 1248.5,-396.5"/>
<text text-anchor="middle" x="1324" y="-403.5" font-family="Helvetica,sans-Serif" font-size="10.00">TOFSimulation/DigitizerTask.h</text>
</a>
</g>
</g>
<!-- Node1&#45;&gt;Node2 -->
<g id="edge1" class="edge"><title>Node1&#45;&gt;Node2</title>
<path fill="none" stroke="midnightblue" d="M1673.62,-466.671C1593.71,-453.033 1460.69,-430.33 1383.82,-417.211"/>
<polygon fill="midnightblue" stroke="midnightblue" points="1384.27,-413.735 1373.82,-415.503 1383.09,-420.636 1384.27,-413.735"/>
</g>
<!-- Node16 -->
<g id="node16" class="node"><title>Node16</title>
<polygon fill="none" stroke="#bfbfbf" points="1675,-142.5 1675,-161.5 1775,-161.5 1775,-142.5 1675,-142.5"/>
<text text-anchor="middle" x="1725" y="-149.5" font-family="Helvetica,sans-Serif" font-size="10.00">FairRootManager.h</text>
</g>
<!-- Node1&#45;&gt;Node16 -->
<g id="edge66" class="edge"><title>Node1&#45;&gt;Node16</title>
<path fill="none" stroke="midnightblue" d="M1728.41,-452.812C1717.89,-427.605 1704,-387.439 1704,-351 1704,-351 1704,-351 1704,-287 1704,-245.36 1714.02,-197.309 1720.22,-171.572"/>
<polygon fill="midnightblue" stroke="midnightblue" points="1723.65,-172.255 1722.67,-161.706 1716.86,-170.565 1723.65,-172.255"/>
</g>
<!-- Node47 -->
<g id="node47" class="node"><title>Node47</title>
<g id="a_node47"><a xlink:href="../../d9/d52/Common_2MathUtils_2include_2MathUtils_2Utils_8h.html" target="_top" xlink:title="MathUtils/Utils.h">
<polygon fill="none" stroke="black" points="1732,-396.5 1732,-415.5 1822,-415.5 1822,-396.5 1732,-396.5"/>
<text text-anchor="middle" x="1777" y="-403.5" font-family="Helvetica,sans-Serif" font-size="10.00">MathUtils/Utils.h</text>
</a>
</g>
</g>
<!-- Node1&#45;&gt;Node47 -->
<g id="edge61" class="edge"><title>Node1&#45;&gt;Node47</title>
<path fill="none" stroke="midnightblue" d="M1753.15,-452.768C1757.99,-443.486 1763.36,-433.179 1767.78,-424.7"/>
<polygon fill="midnightblue" stroke="midnightblue" points="1770.92,-426.243 1772.44,-415.757 1764.71,-423.008 1770.92,-426.243"/>
</g>
<!-- Node51 -->
<g id="node51" class="node"><title>Node51</title>
<polygon fill="none" stroke="#bfbfbf" points="1840.5,-396.5 1840.5,-415.5 1911.5,-415.5 1911.5,-396.5 1840.5,-396.5"/>
<text text-anchor="middle" x="1876" y="-403.5" font-family="Helvetica,sans-Serif" font-size="10.00">FairLogger.h</text>
</g>
<!-- Node1&#45;&gt;Node51 -->
<g id="edge65" class="edge"><title>Node1&#45;&gt;Node51</title>
<path fill="none" stroke="midnightblue" d="M1787.95,-452.968C1808.98,-441.986 1832.83,-429.537 1850.4,-420.366"/>
<polygon fill="midnightblue" stroke="midnightblue" points="1852.21,-423.369 1859.45,-415.639 1848.97,-417.164 1852.21,-423.369"/>
</g>
<!-- Node3 -->
<g id="node3" class="node"><title>Node3</title>
<polygon fill="none" stroke="#bfbfbf" points="1139.5,-340.5 1139.5,-359.5 1202.5,-359.5 1202.5,-340.5 1139.5,-340.5"/>
<text text-anchor="middle" x="1171" y="-347.5" font-family="Helvetica,sans-Serif" font-size="10.00">FairTask.h</text>
</g>
<!-- Node2&#45;&gt;Node3 -->
<g id="edge2" class="edge"><title>Node2&#45;&gt;Node3</title>
<path fill="none" stroke="midnightblue" d="M1299.76,-396.444C1274.13,-387.399 1233.51,-373.064 1204.76,-362.916"/>
<polygon fill="midnightblue" stroke="midnightblue" points="1205.72,-359.544 1195.13,-359.516 1203.39,-366.145 1205.72,-359.544"/>
</g>
<!-- Node4 -->
<g id="node4" class="node"><title>Node4</title>
<polygon fill="none" stroke="#bfbfbf" points="1260,-74.5 1260,-93.5 1316,-93.5 1316,-74.5 1260,-74.5"/>
<text text-anchor="middle" x="1288" y="-81.5" font-family="Helvetica,sans-Serif" font-size="10.00">Rtypes.h</text>
</g>
<!-- Node2&#45;&gt;Node4 -->
<g id="edge3" class="edge"><title>Node2&#45;&gt;Node4</title>
<path fill="none" stroke="midnightblue" d="M1301.01,-396.496C1284.47,-389.233 1262.89,-377.208 1250,-360 1230.41,-333.857 1231,-321.666 1231,-289 1231,-289 1231,-289 1231,-219 1231,-173.717 1258.9,-126.202 1275.66,-101.746"/>
<polygon fill="midnightblue" stroke="midnightblue" points="1278.54,-103.739 1281.46,-93.5548 1272.83,-99.6958 1278.54,-103.739"/>
</g>
<!-- Node5 -->
<g id="node5" class="node"><title>Node5</title>
<g id="a_node5"><a xlink:href="../../df/d9c/TOF_2base_2include_2TOFBase_2Digit_8h.html" target="_top" xlink:title="TOFBase/Digit.h">
<polygon fill="none" stroke="black" points="1574,-210.5 1574,-229.5 1664,-229.5 1664,-210.5 1574,-210.5"/>
<text text-anchor="middle" x="1619" y="-217.5" font-family="Helvetica,sans-Serif" font-size="10.00">TOFBase/Digit.h</text>
</a>
</g>
</g>
<!-- Node2&#45;&gt;Node5 -->
<g id="edge4" class="edge"><title>Node2&#45;&gt;Node5</title>
<path fill="none" stroke="midnightblue" d="M1399.75,-400.827C1467.23,-392.716 1562.84,-369.52 1613,-304 1626.96,-285.76 1625.9,-258.16 1623.08,-239.862"/>
<polygon fill="midnightblue" stroke="midnightblue" points="1626.49,-239.033 1621.22,-229.839 1619.61,-240.309 1626.49,-239.033"/>
</g>
<!-- Node9 -->
<g id="node9" class="node"><title>Node9</title>
<g id="a_node9"><a xlink:href="../../d5/d3c/TOF_2simulation_2include_2TOFSimulation_2Detector_8h.html" target="_top" xlink:title="TOFSimulation/Detector.h">
<polygon fill="none" stroke="black" points="1297.5,-278.5 1297.5,-297.5 1428.5,-297.5 1428.5,-278.5 1297.5,-278.5"/>
<text text-anchor="middle" x="1363" y="-285.5" font-family="Helvetica,sans-Serif" font-size="10.00">TOFSimulation/Detector.h</text>
</a>
</g>
</g>
<!-- Node2&#45;&gt;Node9 -->
<g id="edge10" class="edge"><title>Node2&#45;&gt;Node9</title>
<path fill="none" stroke="midnightblue" d="M1350.21,-396.414C1366.85,-389.445 1387.06,-377.809 1397,-360 1407.23,-341.675 1392.95,-319.787 1379.89,-305.205"/>
<polygon fill="midnightblue" stroke="midnightblue" points="1382.36,-302.727 1372.92,-297.924 1377.31,-307.568 1382.36,-302.727"/>
</g>
<!-- Node39 -->
<g id="node39" class="node"><title>Node39</title>
<g id="a_node39"><a xlink:href="../../d0/d85/TOF_2simulation_2include_2TOFSimulation_2Digitizer_8h.html" target="_top" xlink:title="TOFSimulation/Digitizer.h">
<polygon fill="none" stroke="black" points="1259.5,-340.5 1259.5,-359.5 1388.5,-359.5 1388.5,-340.5 1259.5,-340.5"/>
<text text-anchor="middle" x="1324" y="-347.5" font-family="Helvetica,sans-Serif" font-size="10.00">TOFSimulation/Digitizer.h</text>
</a>
</g>
</g>
<!-- Node2&#45;&gt;Node39 -->
<g id="edge47" class="edge"><title>Node2&#45;&gt;Node39</title>
<path fill="none" stroke="midnightblue" d="M1324,-396.083C1324,-389.006 1324,-378.861 1324,-369.986"/>
<polygon fill="midnightblue" stroke="midnightblue" points="1327.5,-369.751 1324,-359.751 1320.5,-369.751 1327.5,-369.751"/>
</g>
<!-- Node40 -->
<g id="node40" class="node"><title>Node40</title>
<g id="a_node40"><a xlink:href="../../db/d14/MCTruthContainer_8h.html" target="_top" xlink:title="Definition of a container to keep Monte Carlo truth external to simulation objects. ">
<polygon fill="none" stroke="black" points="491,-273 491,-303 605,-303 605,-273 491,-273"/>
<text text-anchor="start" x="499" y="-291" font-family="Helvetica,sans-Serif" font-size="10.00">SimulationDataFormat</text>
<text text-anchor="middle" x="548" y="-280" font-family="Helvetica,sans-Serif" font-size="10.00">/MCTruthContainer.h</text>
</a>
</g>
</g>
<!-- Node2&#45;&gt;Node40 -->
<g id="edge60" class="edge"><title>Node2&#45;&gt;Node40</title>
<path fill="none" stroke="midnightblue" d="M1266.94,-396.47C1126.66,-375.5 765.456,-321.506 615.165,-299.04"/>
<polygon fill="midnightblue" stroke="midnightblue" points="615.552,-295.559 605.145,-297.542 614.517,-302.482 615.552,-295.559"/>
</g>
<!-- Node5&#45;&gt;Node4 -->
<g id="edge8" class="edge"><title>Node5&#45;&gt;Node4</title>
<path fill="none" stroke="midnightblue" d="M1623.68,-210.245C1631.87,-193.608 1646.25,-157.197 1628,-136 1608.46,-113.315 1410.72,-94.8622 1326.09,-87.9415"/>
<polygon fill="midnightblue" stroke="midnightblue" points="1326.36,-84.4522 1316.11,-87.1363 1325.8,-91.4295 1326.36,-84.4522"/>
</g>
<!-- Node6 -->
<g id="node6" class="node"><title>Node6</title>
<g id="a_node6"><a xlink:href="../../df/d5d/common_2include_2CommonDataFormat_2TimeStamp_8h.html" target="_top" xlink:title="CommonDataFormat/TimeStamp.h">
<polygon fill="none" stroke="black" points="1449,-142.5 1449,-161.5 1619,-161.5 1619,-142.5 1449,-142.5"/>
<text text-anchor="middle" x="1534" y="-149.5" font-family="Helvetica,sans-Serif" font-size="10.00">CommonDataFormat/TimeStamp.h</text>
</a>
</g>
</g>
<!-- Node5&#45;&gt;Node6 -->
<g id="edge5" class="edge"><title>Node5&#45;&gt;Node6</title>
<path fill="none" stroke="midnightblue" d="M1607.89,-210.372C1594.02,-199.6 1570.06,-181.002 1553.2,-167.906"/>
<polygon fill="midnightblue" stroke="midnightblue" points="1555.16,-164.999 1545.11,-161.63 1550.87,-170.528 1555.16,-164.999"/>
</g>
<!-- Node7 -->
<g id="node7" class="node"><title>Node7</title>
<polygon fill="none" stroke="#bfbfbf" points="1517.5,-74.5 1517.5,-93.5 1562.5,-93.5 1562.5,-74.5 1517.5,-74.5"/>
<text text-anchor="middle" x="1540" y="-81.5" font-family="Helvetica,sans-Serif" font-size="10.00">iosfwd</text>
</g>
<!-- Node5&#45;&gt;Node7 -->
<g id="edge7" class="edge"><title>Node5&#45;&gt;Node7</title>
<path fill="none" stroke="midnightblue" d="M1664.09,-213.016C1724.81,-203.153 1821.19,-180.036 1784,-136 1753.17,-99.4915 1617.6,-114.271 1572,-100 1569.73,-99.2888 1567.41,-98.4485 1565.11,-97.5345"/>
<polygon fill="midnightblue" stroke="midnightblue" points="1566.5,-94.3239 1555.94,-93.5051 1563.69,-100.732 1566.5,-94.3239"/>
</g>
<!-- Node8 -->
<g id="node8" class="node"><title>Node8</title>
<polygon fill="none" stroke="#bfbfbf" points="1335.5,-137 1335.5,-167 1430.5,-167 1430.5,-137 1335.5,-137"/>
<text text-anchor="start" x="1343.5" y="-155" font-family="Helvetica,sans-Serif" font-size="10.00">boost/serialization</text>
<text text-anchor="middle" x="1383" y="-144" font-family="Helvetica,sans-Serif" font-size="10.00">/base_object.hpp</text>
</g>
<!-- Node5&#45;&gt;Node8 -->
<g id="edge9" class="edge"><title>Node5&#45;&gt;Node8</title>
<path fill="none" stroke="midnightblue" d="M1588.15,-210.372C1550.7,-199.9 1486.81,-182.032 1440.26,-169.013"/>
<polygon fill="midnightblue" stroke="midnightblue" points="1441.18,-165.635 1430.6,-166.313 1439.29,-172.377 1441.18,-165.635"/>
</g>
<!-- Node6&#45;&gt;Node4 -->
<g id="edge6" class="edge"><title>Node6&#45;&gt;Node4</title>
<path fill="none" stroke="midnightblue" d="M1502.09,-142.439C1456.82,-130.293 1374.09,-108.099 1325.8,-95.1427"/>
<polygon fill="midnightblue" stroke="midnightblue" points="1326.61,-91.7361 1316.05,-92.5252 1324.8,-98.497 1326.61,-91.7361"/>
</g>
<!-- Node10 -->
<g id="node10" class="node"><title>Node10</title>
<g id="a_node10"><a xlink:href="../../d1/d3a/Base_2include_2DetectorsBase_2Detector_8h.html" target="_top" xlink:title="DetectorsBase/Detector.h">
<polygon fill="none" stroke="black" points="669.5,-210.5 669.5,-229.5 800.5,-229.5 800.5,-210.5 669.5,-210.5"/>
<text text-anchor="middle" x="735" y="-217.5" font-family="Helvetica,sans-Serif" font-size="10.00">DetectorsBase/Detector.h</text>
</a>
</g>
</g>
<!-- Node9&#45;&gt;Node10 -->
<g id="edge11" class="edge"><title>Node9&#45;&gt;Node10</title>
<path fill="none" stroke="midnightblue" d="M1297.28,-280.093C1179.95,-267.762 935.136,-242.033 810.869,-228.973"/>
<polygon fill="midnightblue" stroke="midnightblue" points="810.991,-225.467 800.68,-227.903 810.259,-232.429 810.991,-225.467"/>
</g>
<!-- Node27 -->
<g id="node27" class="node"><title>Node27</title>
<g id="a_node27"><a xlink:href="../../d4/d54/Geo_8h.html" target="_top" xlink:title="TOFBase/Geo.h">
<polygon fill="none" stroke="black" points="1259,-210.5 1259,-229.5 1347,-229.5 1347,-210.5 1259,-210.5"/>
<text text-anchor="middle" x="1303" y="-217.5" font-family="Helvetica,sans-Serif" font-size="10.00">TOFBase/Geo.h</text>
</a>
</g>
</g>
<!-- Node9&#45;&gt;Node27 -->
<g id="edge32" class="edge"><title>Node9&#45;&gt;Node27</title>
<path fill="none" stroke="midnightblue" d="M1355.16,-278.372C1345.78,-268.053 1329.86,-250.551 1318.08,-237.585"/>
<polygon fill="midnightblue" stroke="midnightblue" points="1320.35,-234.886 1311.04,-229.841 1315.17,-239.595 1320.35,-234.886"/>
</g>
<!-- Node28 -->
<g id="node28" class="node"><title>Node28</title>
<g id="a_node28"><a xlink:href="../../d4/d25/BaseHits_8h.html" target="_top" xlink:title="SimulationDataFormat\l/BaseHits.h">
<polygon fill="none" stroke="black" points="1784,-205 1784,-235 1898,-235 1898,-205 1784,-205"/>
<text text-anchor="start" x="1792" y="-223" font-family="Helvetica,sans-Serif" font-size="10.00">SimulationDataFormat</text>
<text text-anchor="middle" x="1841" y="-212" font-family="Helvetica,sans-Serif" font-size="10.00">/BaseHits.h</text>
</a>
</g>
</g>
<!-- Node9&#45;&gt;Node28 -->
<g id="edge34" class="edge"><title>Node9&#45;&gt;Node28</title>
<path fill="none" stroke="midnightblue" d="M1402.99,-278.45C1414.28,-276.187 1426.6,-273.859 1438,-272 1555.65,-252.817 1693.62,-236.733 1773.79,-228.018"/>
<polygon fill="midnightblue" stroke="midnightblue" points="1774.19,-231.495 1783.75,-226.941 1773.44,-224.536 1774.19,-231.495"/>
</g>
<!-- Node10&#45;&gt;Node4 -->
<g id="edge23" class="edge"><title>Node10&#45;&gt;Node4</title>
<path fill="none" stroke="midnightblue" d="M800.676,-219.556C884.691,-218.356 1033.61,-209.74 1153,-168 1176.76,-159.695 1235.5,-120.874 1267.09,-99.3921"/>
<polygon fill="midnightblue" stroke="midnightblue" points="1269.31,-102.114 1275.6,-93.5835 1265.37,-96.3343 1269.31,-102.114"/>
</g>
<!-- Node11 -->
<g id="node11" class="node"><title>Node11</title>
<polygon fill="none" stroke="#bfbfbf" points="89.5,-74.5 89.5,-93.5 124.5,-93.5 124.5,-74.5 89.5,-74.5"/>
<text text-anchor="middle" x="107" y="-81.5" font-family="Helvetica,sans-Serif" font-size="10.00">map</text>
</g>
<!-- Node10&#45;&gt;Node11 -->
<g id="edge12" class="edge"><title>Node10&#45;&gt;Node11</title>
<path fill="none" stroke="midnightblue" d="M696.886,-210.474C684.823,-208.046 671.402,-205.623 659,-204 598.276,-196.054 151.402,-212.189 109,-168 92.8157,-151.134 96.3338,-122.328 101.087,-103.479"/>
<polygon fill="midnightblue" stroke="midnightblue" points="104.5,-104.274 103.888,-93.6966 97.7703,-102.346 104.5,-104.274"/>
</g>
<!-- Node12 -->
<g id="node12" class="node"><title>Node12</title>
<polygon fill="none" stroke="#bfbfbf" points="302,-142.5 302,-161.5 346,-161.5 346,-142.5 302,-142.5"/>
<text text-anchor="middle" x="324" y="-149.5" font-family="Helvetica,sans-Serif" font-size="10.00">vector</text>
</g>
<!-- Node10&#45;&gt;Node12 -->
<g id="edge13" class="edge"><title>Node10&#45;&gt;Node12</title>
<path fill="none" stroke="midnightblue" d="M694.872,-210.48C683.325,-208.192 670.691,-205.843 659,-204 524.605,-182.812 485.595,-206.157 355,-168 352.808,-167.36 350.581,-166.577 348.377,-165.708"/>
<polygon fill="midnightblue" stroke="midnightblue" points="349.606,-162.423 339.05,-161.524 346.742,-168.81 349.606,-162.423"/>
</g>
<!-- Node13 -->
<g id="node13" class="node"><title>Node13</title>
<polygon fill="none" stroke="#bfbfbf" points="689.5,-74.5 689.5,-93.5 762.5,-93.5 762.5,-74.5 689.5,-74.5"/>
<text text-anchor="middle" x="726" y="-81.5" font-family="Helvetica,sans-Serif" font-size="10.00">initializer_list</text>
</g>
<!-- Node10&#45;&gt;Node13 -->
<g id="edge14" class="edge"><title>Node10&#45;&gt;Node13</title>
<path fill="none" stroke="midnightblue" d="M800.502,-215.316C908.272,-208.581 1113.28,-192.661 1135,-168 1144.4,-157.326 1144.41,-146.661 1135,-136 1111.3,-109.164 874.705,-93.1185 772.557,-87.3927"/>
<polygon fill="midnightblue" stroke="midnightblue" points="772.7,-83.8954 762.523,-86.8393 772.315,-90.8848 772.7,-83.8954"/>
</g>
<!-- Node14 -->
<g id="node14" class="node"><title>Node14</title>
<polygon fill="none" stroke="#bfbfbf" points="364,-142.5 364,-161.5 416,-161.5 416,-142.5 364,-142.5"/>
<text text-anchor="middle" x="390" y="-149.5" font-family="Helvetica,sans-Serif" font-size="10.00">memory</text>
</g>
<!-- Node10&#45;&gt;Node14 -->
<g id="edge15" class="edge"><title>Node10&#45;&gt;Node14</title>
<path fill="none" stroke="midnightblue" d="M693.247,-210.43C682.135,-208.239 670.127,-205.953 659,-204 555.361,-185.809 526.161,-196.955 425,-168 422.35,-167.242 419.636,-166.333 416.947,-165.342"/>
<polygon fill="midnightblue" stroke="midnightblue" points="418.072,-162.021 407.489,-161.52 415.45,-168.512 418.072,-162.021"/>
</g>
<!-- Node15 -->
<g id="node15" class="node"><title>Node15</title>
<polygon fill="none" stroke="#bfbfbf" points="434.5,-142.5 434.5,-161.5 513.5,-161.5 513.5,-142.5 434.5,-142.5"/>
<text text-anchor="middle" x="474" y="-149.5" font-family="Helvetica,sans-Serif" font-size="10.00">FairDetector.h</text>
</g>
<!-- Node10&#45;&gt;Node15 -->
<g id="edge16" class="edge"><title>Node10&#45;&gt;Node15</title>
<path fill="none" stroke="midnightblue" d="M695.93,-210.481C653.055,-200.939 582.302,-184.621 522,-168 518.133,-166.934 514.109,-165.768 510.108,-164.572"/>
<polygon fill="midnightblue" stroke="midnightblue" points="510.899,-161.154 500.313,-161.576 508.852,-167.848 510.899,-161.154"/>
</g>
<!-- Node10&#45;&gt;Node16 -->
<g id="edge17" class="edge"><title>Node10&#45;&gt;Node16</title>
<path fill="none" stroke="midnightblue" d="M800.716,-217.415C948.76,-213.369 1319.53,-200.583 1628,-168 1640.18,-166.713 1653.17,-164.967 1665.55,-163.12"/>
<polygon fill="midnightblue" stroke="midnightblue" points="1666.42,-166.528 1675.77,-161.553 1665.36,-159.608 1666.42,-166.528"/>
</g>
<!-- Node17 -->
<g id="node17" class="node"><title>Node17</title>
<g id="a_node17"><a xlink:href="../../d0/d9a/MaterialManager_8h.html" target="_top" xlink:title="DetectorsBase/MaterialManager.h">
<polygon fill="none" stroke="black" points="118.5,-142.5 118.5,-161.5 283.5,-161.5 283.5,-142.5 118.5,-142.5"/>
<text text-anchor="middle" x="201" y="-149.5" font-family="Helvetica,sans-Serif" font-size="10.00">DetectorsBase/MaterialManager.h</text>
</a>
</g>
</g>
<!-- Node10&#45;&gt;Node17 -->
<g id="edge18" class="edge"><title>Node10&#45;&gt;Node17</title>
<path fill="none" stroke="midnightblue" d="M695.68,-210.486C683.923,-208.145 670.975,-205.766 659,-204 497.298,-180.147 455.076,-189.162 293,-168 282.188,-166.588 270.695,-164.881 259.628,-163.131"/>
<polygon fill="midnightblue" stroke="midnightblue" points="260.045,-159.653 249.616,-161.519 258.933,-166.564 260.045,-159.653"/>
</g>
<!-- Node19 -->
<g id="node19" class="node"><title>Node19</title>
<polygon fill="none" stroke="#bfbfbf" points="531.5,-142.5 531.5,-161.5 584.5,-161.5 584.5,-142.5 531.5,-142.5"/>
<text text-anchor="middle" x="558" y="-149.5" font-family="Helvetica,sans-Serif" font-size="10.00">cxxabi.h</text>
</g>
<!-- Node10&#45;&gt;Node19 -->
<g id="edge24" class="edge"><title>Node10&#45;&gt;Node19</title>
<path fill="none" stroke="midnightblue" d="M709.692,-210.425C681.158,-200.638 633.464,-183.921 593,-168 591.108,-167.256 589.166,-166.474 587.213,-165.674"/>
<polygon fill="midnightblue" stroke="midnightblue" points="588.112,-162.256 577.536,-161.618 585.406,-168.712 588.112,-162.256"/>
</g>
<!-- Node20 -->
<g id="node20" class="node"><title>Node20</title>
<polygon fill="none" stroke="#bfbfbf" points="602.5,-142.5 602.5,-161.5 653.5,-161.5 653.5,-142.5 602.5,-142.5"/>
<text text-anchor="middle" x="628" y="-149.5" font-family="Helvetica,sans-Serif" font-size="10.00">typeinfo</text>
</g>
<!-- Node10&#45;&gt;Node20 -->
<g id="edge25" class="edge"><title>Node10&#45;&gt;Node20</title>
<path fill="none" stroke="midnightblue" d="M721.012,-210.372C703.149,-199.353 672.008,-180.145 650.72,-167.014"/>
<polygon fill="midnightblue" stroke="midnightblue" points="652.34,-163.901 641.992,-161.63 648.665,-169.859 652.34,-163.901"/>
</g>
<!-- Node21 -->
<g id="node21" class="node"><title>Node21</title>
<polygon fill="none" stroke="#bfbfbf" points="0,-142.5 0,-161.5 62,-161.5 62,-142.5 0,-142.5"/>
<text text-anchor="middle" x="31" y="-149.5" font-family="Helvetica,sans-Serif" font-size="10.00">type_traits</text>
</g>
<!-- Node10&#45;&gt;Node21 -->
<g id="edge26" class="edge"><title>Node10&#45;&gt;Node21</title>
<path fill="none" stroke="midnightblue" d="M696.89,-210.446C684.827,-208.017 671.405,-205.6 659,-204 401.528,-170.792 330.849,-217.465 76,-168 71.7255,-167.17 67.297,-166.043 62.9605,-164.778"/>
<polygon fill="midnightblue" stroke="midnightblue" points="63.7152,-161.345 53.1247,-161.646 61.5915,-168.015 63.7152,-161.345"/>
</g>
<!-- Node22 -->
<g id="node22" class="node"><title>Node22</title>
<polygon fill="none" stroke="#bfbfbf" points="671.5,-142.5 671.5,-161.5 712.5,-161.5 712.5,-142.5 671.5,-142.5"/>
<text text-anchor="middle" x="692" y="-149.5" font-family="Helvetica,sans-Serif" font-size="10.00">string</text>
</g>
<!-- Node10&#45;&gt;Node22 -->
<g id="edge27" class="edge"><title>Node10&#45;&gt;Node22</title>
<path fill="none" stroke="midnightblue" d="M729.379,-210.372C722.784,-200.25 711.686,-183.215 703.292,-170.331"/>
<polygon fill="midnightblue" stroke="midnightblue" points="706.151,-168.309 697.76,-161.841 700.286,-172.13 706.151,-168.309"/>
</g>
<!-- Node23 -->
<g id="node23" class="node"><title>Node23</title>
<polygon fill="none" stroke="#bfbfbf" points="730.5,-142.5 730.5,-161.5 823.5,-161.5 823.5,-142.5 730.5,-142.5"/>
<text text-anchor="middle" x="777" y="-149.5" font-family="Helvetica,sans-Serif" font-size="10.00">FairMQChannel.h</text>
</g>
<!-- Node10&#45;&gt;Node23 -->
<g id="edge28" class="edge"><title>Node10&#45;&gt;Node23</title>
<path fill="none" stroke="midnightblue" d="M740.491,-210.372C746.932,-200.25 757.772,-183.215 765.971,-170.331"/>
<polygon fill="midnightblue" stroke="midnightblue" points="768.958,-172.157 771.374,-161.841 763.052,-168.399 768.958,-172.157"/>
</g>
<!-- Node24 -->
<g id="node24" class="node"><title>Node24</title>
<polygon fill="none" stroke="#bfbfbf" points="841.5,-142.5 841.5,-161.5 938.5,-161.5 938.5,-142.5 841.5,-142.5"/>
<text text-anchor="middle" x="890" y="-149.5" font-family="Helvetica,sans-Serif" font-size="10.00">FairMQMessage.h</text>
</g>
<!-- Node10&#45;&gt;Node24 -->
<g id="edge29" class="edge"><title>Node10&#45;&gt;Node24</title>
<path fill="none" stroke="midnightblue" d="M755.264,-210.372C782.068,-198.958 829.512,-178.756 860.35,-165.625"/>
<polygon fill="midnightblue" stroke="midnightblue" points="861.902,-168.768 869.731,-161.63 859.16,-162.328 861.902,-168.768"/>
</g>
<!-- Node25 -->
<g id="node25" class="node"><title>Node25</title>
<polygon fill="none" stroke="#bfbfbf" points="957,-142.5 957,-161.5 1037,-161.5 1037,-142.5 957,-142.5"/>
<text text-anchor="middle" x="997" y="-149.5" font-family="Helvetica,sans-Serif" font-size="10.00">FairMQParts.h</text>
</g>
<!-- Node10&#45;&gt;Node25 -->
<g id="edge30" class="edge"><title>Node10&#45;&gt;Node25</title>
<path fill="none" stroke="midnightblue" d="M773.46,-210.422C816.06,-200.764 886.699,-184.285 947,-168 951.134,-166.884 955.445,-165.668 959.728,-164.429"/>
<polygon fill="midnightblue" stroke="midnightblue" points="960.968,-167.712 969.57,-161.527 958.988,-160.998 960.968,-167.712"/>
</g>
<!-- Node26 -->
<g id="node26" class="node"><title>Node26</title>
<polygon fill="none" stroke="#bfbfbf" points="1055.5,-142.5 1055.5,-161.5 1126.5,-161.5 1126.5,-142.5 1055.5,-142.5"/>
<text text-anchor="middle" x="1091" y="-149.5" font-family="Helvetica,sans-Serif" font-size="10.00">TMessage.h</text>
</g>
<!-- Node10&#45;&gt;Node26 -->
<g id="edge31" class="edge"><title>Node10&#45;&gt;Node26</title>
<path fill="none" stroke="midnightblue" d="M800.538,-211.337C863.903,-203.205 962.339,-188.664 1046,-168 1049.85,-167.05 1053.84,-165.927 1057.78,-164.729"/>
<polygon fill="midnightblue" stroke="midnightblue" points="1058.93,-168.038 1067.39,-161.656 1056.8,-161.371 1058.93,-168.038"/>
</g>
<!-- Node17&#45;&gt;Node4 -->
<g id="edge19" class="edge"><title>Node17&#45;&gt;Node4</title>
<path fill="none" stroke="midnightblue" d="M247.196,-142.445C261.801,-140.015 278.035,-137.599 293,-136 664.335,-96.3341 1117.04,-87.2993 1249.75,-85.4422"/>
<polygon fill="midnightblue" stroke="midnightblue" points="1249.86,-88.9411 1259.82,-85.3067 1249.77,-81.9417 1249.86,-88.9411"/>
</g>
<!-- Node17&#45;&gt;Node11 -->
<g id="edge20" class="edge"><title>Node17&#45;&gt;Node11</title>
<path fill="none" stroke="midnightblue" d="M188.711,-142.372C173.229,-131.502 146.395,-112.66 127.719,-99.5474"/>
<polygon fill="midnightblue" stroke="midnightblue" points="129.487,-96.5124 119.292,-93.6305 125.465,-102.241 129.487,-96.5124"/>
</g>
<!-- Node17&#45;&gt;Node13 -->
<g id="edge22" class="edge"><title>Node17&#45;&gt;Node13</title>
<path fill="none" stroke="midnightblue" d="M250.595,-142.5C264.313,-140.262 279.218,-137.934 293,-136 433.247,-116.317 599.781,-98.1633 679.265,-89.8171"/>
<polygon fill="midnightblue" stroke="midnightblue" points="679.853,-93.2747 689.434,-88.7529 679.124,-86.3128 679.853,-93.2747"/>
</g>
<!-- Node18 -->
<g id="node18" class="node"><title>Node18</title>
<polygon fill="none" stroke="#bfbfbf" points="159.5,-74.5 159.5,-93.5 242.5,-93.5 242.5,-74.5 159.5,-74.5"/>
<text text-anchor="middle" x="201" y="-81.5" font-family="Helvetica,sans-Serif" font-size="10.00">unordered_map</text>
</g>
<!-- Node17&#45;&gt;Node18 -->
<g id="edge21" class="edge"><title>Node17&#45;&gt;Node18</title>
<path fill="none" stroke="midnightblue" d="M201,-142.372C201,-132.643 201,-116.528 201,-103.85"/>
<polygon fill="midnightblue" stroke="midnightblue" points="204.5,-103.841 201,-93.8411 197.5,-103.841 204.5,-103.841"/>
</g>
<!-- Node27&#45;&gt;Node4 -->
<g id="edge33" class="edge"><title>Node27&#45;&gt;Node4</title>
<path fill="none" stroke="midnightblue" d="M1300.95,-210.394C1298.63,-200.301 1294.92,-183.036 1293,-168 1290.21,-146.127 1288.97,-120.806 1288.42,-103.939"/>
<polygon fill="midnightblue" stroke="midnightblue" points="1291.92,-103.66 1288.14,-93.7591 1284.92,-103.851 1291.92,-103.66"/>
</g>
<!-- Node29 -->
<g id="node29" class="node"><title>Node29</title>
<g id="a_node29"><a xlink:href="../../dd/d76/Cartesian3D_8h.html" target="_top" xlink:title="MathUtils/Cartesian3D.h">
<polygon fill="none" stroke="black" points="1831.5,-142.5 1831.5,-161.5 1956.5,-161.5 1956.5,-142.5 1831.5,-142.5"/>
<text text-anchor="middle" x="1894" y="-149.5" font-family="Helvetica,sans-Serif" font-size="10.00">MathUtils/Cartesian3D.h</text>
</a>
</g>
</g>
<!-- Node28&#45;&gt;Node29 -->
<g id="edge35" class="edge"><title>Node28&#45;&gt;Node29</title>
<path fill="none" stroke="midnightblue" d="M1852.5,-204.679C1860.76,-194.388 1871.93,-180.484 1880.6,-169.69"/>
<polygon fill="midnightblue" stroke="midnightblue" points="1883.38,-171.817 1886.91,-161.828 1877.92,-167.434 1883.38,-171.817"/>
</g>
<!-- Node29&#45;&gt;Node4 -->
<g id="edge41" class="edge"><title>Node29&#45;&gt;Node4</title>
<path fill="none" stroke="midnightblue" d="M1834.1,-142.466C1817.86,-140.252 1800.27,-137.945 1784,-136 1613.37,-115.6 1409.13,-96.1718 1325.99,-88.4745"/>
<polygon fill="midnightblue" stroke="midnightblue" points="1326.28,-84.9864 1316,-87.5521 1325.64,-91.9568 1326.28,-84.9864"/>
</g>
<!-- Node29&#45;&gt;Node7 -->
<g id="edge43" class="edge"><title>Node29&#45;&gt;Node7</title>
<path fill="none" stroke="midnightblue" d="M1852.1,-142.471C1840.73,-140.257 1828.41,-137.949 1817,-136 1708.51,-117.473 1677.4,-131.694 1572,-100 1569.72,-99.3142 1567.39,-98.4916 1565.09,-97.5894"/>
<polygon fill="midnightblue" stroke="midnightblue" points="1566.48,-94.3769 1555.92,-93.5792 1563.68,-100.791 1566.48,-94.3769"/>
</g>
<!-- Node30 -->
<g id="node30" class="node"><title>Node30</title>
<polygon fill="none" stroke="#bfbfbf" points="1818.5,-69 1818.5,-99 1969.5,-99 1969.5,-69 1818.5,-69"/>
<text text-anchor="start" x="1826.5" y="-87" font-family="Helvetica,sans-Serif" font-size="10.00">Math/GenVector/Displacement</text>
<text text-anchor="middle" x="1894" y="-76" font-family="Helvetica,sans-Serif" font-size="10.00">Vector3D.h</text>
</g>
<!-- Node29&#45;&gt;Node30 -->
<g id="edge36" class="edge"><title>Node29&#45;&gt;Node30</title>
<path fill="none" stroke="midnightblue" d="M1894,-142.372C1894,-133.971 1894,-120.811 1894,-109.213"/>
<polygon fill="midnightblue" stroke="midnightblue" points="1897.5,-109.181 1894,-99.1815 1890.5,-109.181 1897.5,-109.181"/>
</g>
<!-- Node31 -->
<g id="node31" class="node"><title>Node31</title>
<polygon fill="none" stroke="#bfbfbf" points="1988,-74.5 1988,-93.5 2164,-93.5 2164,-74.5 1988,-74.5"/>
<text text-anchor="middle" x="2076" y="-81.5" font-family="Helvetica,sans-Serif" font-size="10.00">Math/GenVector/PositionVector3D.h</text>
</g>
<!-- Node29&#45;&gt;Node31 -->
<g id="edge37" class="edge"><title>Node29&#45;&gt;Node31</title>
<path fill="none" stroke="midnightblue" d="M1917.79,-142.372C1949.76,-130.778 2006.74,-110.116 2042.89,-97.0087"/>
<polygon fill="midnightblue" stroke="midnightblue" points="2044.28,-100.225 2052.49,-93.5259 2041.9,-93.6447 2044.28,-100.225"/>
</g>
<!-- Node32 -->
<g id="node32" class="node"><title>Node32</title>
<polygon fill="none" stroke="#bfbfbf" points="2181.5,-74.5 2181.5,-93.5 2330.5,-93.5 2330.5,-74.5 2181.5,-74.5"/>
<text text-anchor="middle" x="2256" y="-81.5" font-family="Helvetica,sans-Serif" font-size="10.00">Math/GenVector/Rotation3D.h</text>
</g>
<!-- Node29&#45;&gt;Node32 -->
<g id="edge38" class="edge"><title>Node29&#45;&gt;Node32</title>
<path fill="none" stroke="midnightblue" d="M1940.95,-142.439C2007.14,-130.372 2127.74,-108.384 2198.99,-95.3945"/>
<polygon fill="midnightblue" stroke="midnightblue" points="2199.92,-98.7825 2209.13,-93.5455 2198.66,-91.896 2199.92,-98.7825"/>
</g>
<!-- Node33 -->
<g id="node33" class="node"><title>Node33</title>
<polygon fill="none" stroke="#bfbfbf" points="2349,-74.5 2349,-93.5 2505,-93.5 2505,-74.5 2349,-74.5"/>
<text text-anchor="middle" x="2427" y="-81.5" font-family="Helvetica,sans-Serif" font-size="10.00">Math/GenVector/Transform3D.h</text>
</g>
<!-- Node29&#45;&gt;Node33 -->
<g id="edge39" class="edge"><title>Node29&#45;&gt;Node33</title>
<path fill="none" stroke="midnightblue" d="M1956.78,-144.899C2043.08,-136.262 2203.12,-119.352 2339,-100 2348.9,-98.5905 2359.39,-96.9391 2369.56,-95.2571"/>
<polygon fill="midnightblue" stroke="midnightblue" points="2370.3,-98.6821 2379.58,-93.5727 2369.14,-91.779 2370.3,-98.6821"/>
</g>
<!-- Node34 -->
<g id="node34" class="node"><title>Node34</title>
<polygon fill="none" stroke="#bfbfbf" points="2523,-74.5 2523,-93.5 2683,-93.5 2683,-74.5 2523,-74.5"/>
<text text-anchor="middle" x="2603" y="-81.5" font-family="Helvetica,sans-Serif" font-size="10.00">Math/GenVector/Translation3D.h</text>
</g>
<!-- Node29&#45;&gt;Node34 -->
<g id="edge40" class="edge"><title>Node29&#45;&gt;Node34</title>
<path fill="none" stroke="midnightblue" d="M1956.66,-147.61C2068.77,-141.151 2310.92,-125.419 2514,-100 2524.71,-98.659 2536.11,-96.9531 2547.04,-95.176"/>
<polygon fill="midnightblue" stroke="midnightblue" points="2547.63,-98.6265 2556.92,-93.5323 2546.48,-91.7215 2547.63,-98.6265"/>
</g>
<!-- Node35 -->
<g id="node35" class="node"><title>Node35</title>
<polygon fill="none" stroke="#bfbfbf" points="1581,-74.5 1581,-93.5 1657,-93.5 1657,-74.5 1581,-74.5"/>
<text text-anchor="middle" x="1619" y="-81.5" font-family="Helvetica,sans-Serif" font-size="10.00">TGeoMatrix.h</text>
</g>
<!-- Node29&#45;&gt;Node35 -->
<g id="edge42" class="edge"><title>Node29&#45;&gt;Node35</title>
<path fill="none" stroke="midnightblue" d="M1850.43,-142.456C1804.34,-133.136 1729.62,-117.231 1666,-100 1662.11,-98.9469 1658.07,-97.7745 1654.05,-96.5621"/>
<polygon fill="midnightblue" stroke="midnightblue" points="1654.83,-93.14 1644.25,-93.5114 1652.75,-99.8241 1654.83,-93.14"/>
</g>
<!-- Node36 -->
<g id="node36" class="node"><title>Node36</title>
<g id="a_node36"><a xlink:href="../../d2/dd0/Cartesian2D_8h.html" target="_top" xlink:title="MathUtils/Cartesian2D.h">
<polygon fill="none" stroke="black" points="1675.5,-74.5 1675.5,-93.5 1800.5,-93.5 1800.5,-74.5 1675.5,-74.5"/>
<text text-anchor="middle" x="1738" y="-81.5" font-family="Helvetica,sans-Serif" font-size="10.00">MathUtils/Cartesian2D.h</text>
</a>
</g>
</g>
<!-- Node29&#45;&gt;Node36 -->
<g id="edge44" class="edge"><title>Node29&#45;&gt;Node36</title>
<path fill="none" stroke="midnightblue" d="M1873.61,-142.372C1846.63,-130.958 1798.88,-110.756 1767.84,-97.6252"/>
<polygon fill="midnightblue" stroke="midnightblue" points="1768.97,-94.3035 1758.4,-93.6305 1766.25,-100.75 1768.97,-94.3035"/>
</g>
<!-- Node37 -->
<g id="node37" class="node"><title>Node37</title>
<polygon fill="none" stroke="#bfbfbf" points="1571.5,-1 1571.5,-31 1722.5,-31 1722.5,-1 1571.5,-1"/>
<text text-anchor="start" x="1579.5" y="-19" font-family="Helvetica,sans-Serif" font-size="10.00">Math/GenVector/Displacement</text>
<text text-anchor="middle" x="1647" y="-8" font-family="Helvetica,sans-Serif" font-size="10.00">Vector2D.h</text>
</g>
<!-- Node36&#45;&gt;Node37 -->
<g id="edge45" class="edge"><title>Node36&#45;&gt;Node37</title>
<path fill="none" stroke="midnightblue" d="M1726.1,-74.3717C1713.22,-65.0286 1692.22,-49.7966 1675.09,-37.375"/>
<polygon fill="midnightblue" stroke="midnightblue" points="1676.7,-34.2194 1666.55,-31.1815 1672.59,-39.8859 1676.7,-34.2194"/>
</g>
<!-- Node38 -->
<g id="node38" class="node"><title>Node38</title>
<polygon fill="none" stroke="#bfbfbf" points="1741,-6.5 1741,-25.5 1917,-25.5 1917,-6.5 1741,-6.5"/>
<text text-anchor="middle" x="1829" y="-13.5" font-family="Helvetica,sans-Serif" font-size="10.00">Math/GenVector/PositionVector2D.h</text>
</g>
<!-- Node36&#45;&gt;Node38 -->
<g id="edge46" class="edge"><title>Node36&#45;&gt;Node38</title>
<path fill="none" stroke="midnightblue" d="M1749.9,-74.3717C1764.88,-63.5015 1790.86,-44.6602 1808.94,-31.5474"/>
<polygon fill="midnightblue" stroke="midnightblue" points="1811.06,-34.3349 1817.1,-25.6305 1806.95,-28.6684 1811.06,-34.3349"/>
</g>
<!-- Node39&#45;&gt;Node5 -->
<g id="edge49" class="edge"><title>Node39&#45;&gt;Node5</title>
<path fill="none" stroke="midnightblue" d="M1388.54,-345.299C1456.7,-340.146 1558.35,-328.523 1588,-304 1607.32,-288.019 1614.61,-258.737 1617.35,-239.573"/>
<polygon fill="midnightblue" stroke="midnightblue" points="1620.83,-239.971 1618.5,-229.635 1613.87,-239.168 1620.83,-239.971"/>
</g>
<!-- Node39&#45;&gt;Node9 -->
<g id="edge50" class="edge"><title>Node39&#45;&gt;Node9</title>
<path fill="none" stroke="midnightblue" d="M1329.59,-340.403C1335.38,-331.493 1344.59,-317.325 1351.87,-306.118"/>
<polygon fill="midnightblue" stroke="midnightblue" points="1354.91,-307.873 1357.42,-297.581 1349.04,-304.058 1354.91,-307.873"/>
</g>
<!-- Node39&#45;&gt;Node27 -->
<g id="edge48" class="edge"><title>Node39&#45;&gt;Node27</title>
<path fill="none" stroke="midnightblue" d="M1313.84,-340.185C1305.09,-331.87 1293.1,-318.539 1288,-304 1280.45,-282.488 1287.63,-256.443 1294.42,-239.336"/>
<polygon fill="midnightblue" stroke="midnightblue" points="1297.72,-240.528 1298.46,-229.959 1291.29,-237.759 1297.72,-240.528"/>
</g>
<!-- Node39&#45;&gt;Node40 -->
<g id="edge51" class="edge"><title>Node39&#45;&gt;Node40</title>
<path fill="none" stroke="midnightblue" d="M1259.47,-343.83C1243.62,-342.568 1226.7,-341.229 1211,-340 993.206,-322.95 735.126,-303.24 615.324,-294.118"/>
<polygon fill="midnightblue" stroke="midnightblue" points="615.442,-290.617 605.205,-293.348 614.911,-297.597 615.442,-290.617"/>
</g>
<!-- Node45 -->
<g id="node45" class="node"><title>Node45</title>
<g id="a_node45"><a xlink:href="../../df/d71/MCLabel_8h.html" target="_top" xlink:title="TOFSimulation/MCLabel.h">
<polygon fill="none" stroke="black" points="1447,-278.5 1447,-297.5 1579,-297.5 1579,-278.5 1447,-278.5"/>
<text text-anchor="middle" x="1513" y="-285.5" font-family="Helvetica,sans-Serif" font-size="10.00">TOFSimulation/MCLabel.h</text>
</a>
</g>
</g>
<!-- Node39&#45;&gt;Node45 -->
<g id="edge57" class="edge"><title>Node39&#45;&gt;Node45</title>
<path fill="none" stroke="midnightblue" d="M1351.08,-340.403C1383.92,-329.978 1439.43,-312.356 1476.15,-300.699"/>
<polygon fill="midnightblue" stroke="midnightblue" points="1477.5,-303.942 1485.97,-297.581 1475.38,-297.271 1477.5,-303.942"/>
</g>
<!-- Node40&#45;&gt;Node21 -->
<g id="edge56" class="edge"><title>Node40&#45;&gt;Node21</title>
<path fill="none" stroke="midnightblue" d="M490.959,-274.073C401.85,-253.553 224.44,-211.386 76,-168 72.5764,-166.999 69.0232,-165.908 65.4821,-164.785"/>
<polygon fill="midnightblue" stroke="midnightblue" points="66.2451,-161.353 55.6528,-161.587 64.0791,-168.009 66.2451,-161.353"/>
</g>
<!-- Node41 -->
<g id="node41" class="node"><title>Node41</title>
<polygon fill="none" stroke="#bfbfbf" points="589,-210.5 589,-229.5 651,-229.5 651,-210.5 589,-210.5"/>
<text text-anchor="middle" x="620" y="-217.5" font-family="Helvetica,sans-Serif" font-size="10.00">TNamed.h</text>
</g>
<!-- Node40&#45;&gt;Node41 -->
<g id="edge52" class="edge"><title>Node40&#45;&gt;Node41</title>
<path fill="none" stroke="midnightblue" d="M563.623,-272.679C575.183,-262.082 590.922,-247.655 602.833,-236.736"/>
<polygon fill="midnightblue" stroke="midnightblue" points="605.363,-239.166 610.369,-229.828 600.633,-234.006 605.363,-239.166"/>
</g>
<!-- Node42 -->
<g id="node42" class="node"><title>Node42</title>
<polygon fill="none" stroke="#bfbfbf" points="381.5,-210.5 381.5,-229.5 430.5,-229.5 430.5,-210.5 381.5,-210.5"/>
<text text-anchor="middle" x="406" y="-217.5" font-family="Helvetica,sans-Serif" font-size="10.00">cassert</text>
</g>
<!-- Node40&#45;&gt;Node42 -->
<g id="edge53" class="edge"><title>Node40&#45;&gt;Node42</title>
<path fill="none" stroke="midnightblue" d="M517.537,-272.841C492.755,-261.323 458.064,-245.199 433.978,-234.004"/>
<polygon fill="midnightblue" stroke="midnightblue" points="435.223,-230.723 424.679,-229.682 432.272,-237.071 435.223,-230.723"/>
</g>
<!-- Node43 -->
<g id="node43" class="node"><title>Node43</title>
<polygon fill="none" stroke="#bfbfbf" points="448.5,-210.5 448.5,-229.5 507.5,-229.5 507.5,-210.5 448.5,-210.5"/>
<text text-anchor="middle" x="478" y="-217.5" font-family="Helvetica,sans-Serif" font-size="10.00">stdexcept</text>
</g>
<!-- Node40&#45;&gt;Node43 -->
<g id="edge54" class="edge"><title>Node40&#45;&gt;Node43</title>
<path fill="none" stroke="midnightblue" d="M532.811,-272.679C521.572,-262.082 506.27,-247.655 494.69,-236.736"/>
<polygon fill="midnightblue" stroke="midnightblue" points="497.04,-234.142 487.363,-229.828 492.238,-239.235 497.04,-234.142"/>
</g>
<!-- Node44 -->
<g id="node44" class="node"><title>Node44</title>
<polygon fill="none" stroke="#bfbfbf" points="525.5,-210.5 525.5,-229.5 570.5,-229.5 570.5,-210.5 525.5,-210.5"/>
<text text-anchor="middle" x="548" y="-217.5" font-family="Helvetica,sans-Serif" font-size="10.00">gsl/gsl</text>
</g>
<!-- Node40&#45;&gt;Node44 -->
<g id="edge55" class="edge"><title>Node40&#45;&gt;Node44</title>
<path fill="none" stroke="midnightblue" d="M548,-272.679C548,-263.101 548,-250.394 548,-239.977"/>
<polygon fill="midnightblue" stroke="midnightblue" points="551.5,-239.828 548,-229.828 544.5,-239.828 551.5,-239.828"/>
</g>
<!-- Node46 -->
<g id="node46" class="node"><title>Node46</title>
<g id="a_node46"><a xlink:href="../../d7/dcd/MCCompLabel_8h.html" target="_top" xlink:title="SimulationDataFormat\l/MCCompLabel.h">
<polygon fill="none" stroke="black" points="1397,-205 1397,-235 1511,-235 1511,-205 1397,-205"/>
<text text-anchor="start" x="1405" y="-223" font-family="Helvetica,sans-Serif" font-size="10.00">SimulationDataFormat</text>
<text text-anchor="middle" x="1454" y="-212" font-family="Helvetica,sans-Serif" font-size="10.00">/MCCompLabel.h</text>
</a>
</g>
</g>
<!-- Node45&#45;&gt;Node46 -->
<g id="edge58" class="edge"><title>Node45&#45;&gt;Node46</title>
<path fill="none" stroke="midnightblue" d="M1505.29,-278.372C1497.24,-269.371 1484.31,-254.907 1473.45,-242.753"/>
<polygon fill="midnightblue" stroke="midnightblue" points="1475.95,-240.304 1466.68,-235.181 1470.73,-244.969 1475.95,-240.304"/>
</g>
<!-- Node46&#45;&gt;Node4 -->
<g id="edge59" class="edge"><title>Node46&#45;&gt;Node4</title>
<path fill="none" stroke="midnightblue" d="M1396.81,-206.373C1372.58,-198.641 1345.5,-186.546 1326,-168 1307.46,-150.371 1297.19,-121.976 1292.14,-103.399"/>
<polygon fill="midnightblue" stroke="midnightblue" points="1295.49,-102.382 1289.69,-93.5186 1288.7,-104.067 1295.49,-102.382"/>
</g>
<!-- Node48 -->
<g id="node48" class="node"><title>Node48</title>
<polygon fill="none" stroke="#bfbfbf" points="1992,-340.5 1992,-359.5 2030,-359.5 2030,-340.5 1992,-340.5"/>
<text text-anchor="middle" x="2011" y="-347.5" font-family="Helvetica,sans-Serif" font-size="10.00">array</text>
</g>
<!-- Node47&#45;&gt;Node48 -->
<g id="edge62" class="edge"><title>Node47&#45;&gt;Node48</title>
<path fill="none" stroke="midnightblue" d="M1820.85,-396.497C1862.53,-388.149 1926.87,-374.577 1982,-360 1982.1,-359.974 1982.2,-359.948 1982.3,-359.921"/>
<polygon fill="midnightblue" stroke="midnightblue" points="1983.07,-363.341 1991.72,-357.233 1981.15,-356.61 1983.07,-363.341"/>
</g>
<!-- Node49 -->
<g id="node49" class="node"><title>Node49</title>
<polygon fill="none" stroke="#bfbfbf" points="1732,-340.5 1732,-359.5 1776,-359.5 1776,-340.5 1732,-340.5"/>
<text text-anchor="middle" x="1754" y="-347.5" font-family="Helvetica,sans-Serif" font-size="10.00">cmath</text>
</g>
<!-- Node47&#45;&gt;Node49 -->
<g id="edge63" class="edge"><title>Node47&#45;&gt;Node49</title>
<path fill="none" stroke="midnightblue" d="M1773.2,-396.083C1770.09,-388.77 1765.58,-378.181 1761.71,-369.103"/>
<polygon fill="midnightblue" stroke="midnightblue" points="1764.87,-367.58 1757.73,-359.751 1758.43,-370.323 1764.87,-367.58"/>
</g>
<!-- Node50 -->
<g id="node50" class="node"><title>Node50</title>
<g id="a_node50"><a xlink:href="../../d6/d84/MathConstants_8h.html" target="_top" xlink:title="useful math constants ">
<polygon fill="none" stroke="black" points="1794.5,-340.5 1794.5,-359.5 1973.5,-359.5 1973.5,-340.5 1794.5,-340.5"/>
<text text-anchor="middle" x="1884" y="-347.5" font-family="Helvetica,sans-Serif" font-size="10.00">CommonConstants/MathConstants.h</text>
</a>
</g>
</g>
<!-- Node47&#45;&gt;Node50 -->
<g id="edge64" class="edge"><title>Node47&#45;&gt;Node50</title>
<path fill="none" stroke="midnightblue" d="M1794.19,-396.324C1811.35,-387.664 1837.95,-374.242 1857.75,-364.249"/>
<polygon fill="midnightblue" stroke="midnightblue" points="1859.5,-367.285 1866.85,-359.655 1856.35,-361.035 1859.5,-367.285"/>
</g>
</g>
</svg>
