<?xml version="1.0" encoding="UTF-8" standalone="no"?>
<!DOCTYPE svg PUBLIC "-//W3C//DTD SVG 1.1//EN"
 "http://www.w3.org/Graphics/SVG/1.1/DTD/svg11.dtd">
<!-- Generated by graphviz version 2.36.0 (20140111.2315)
 -->
<!-- Title: o2::framework::InputRoute Pages: 1 -->
<svg width="617pt" height="290pt"
 viewBox="0.00 0.00 617.00 290.00" xmlns="http://www.w3.org/2000/svg" xmlns:xlink="http://www.w3.org/1999/xlink">
<g id="graph0" class="graph" transform="scale(1 1) rotate(0) translate(4 286)">
<title>o2::framework::InputRoute</title>
<!-- Node1 -->
<g id="node1" class="node"><title>Node1</title>
<polygon fill="#bfbfbf" stroke="black" points="18.5,-0.5 18.5,-57.5 151.5,-57.5 151.5,-0.5 18.5,-0.5"/>
<text text-anchor="middle" x="85" y="-45.5" font-family="Helvetica,sans-Serif" font-size="10.00">o2::framework::InputRoute</text>
<polyline fill="none" stroke="black" points="18.5,-38.5 151.5,-38.5 "/>
<text text-anchor="middle" x="85" y="-26.5" font-family="Helvetica,sans-Serif" font-size="10.00"> </text>
<polyline fill="none" stroke="black" points="18.5,-19.5 151.5,-19.5 "/>
<text text-anchor="middle" x="85" y="-7.5" font-family="Helvetica,sans-Serif" font-size="10.00"> </text>
</g>
<!-- Node2 -->
<g id="node2" class="node"><title>Node2</title>
<polygon fill="none" stroke="#bfbfbf" points="-0.5,-106.5 -0.5,-163.5 42.5,-163.5 42.5,-106.5 -0.5,-106.5"/>
<text text-anchor="middle" x="21" y="-151.5" font-family="Helvetica,sans-Serif" font-size="10.00">size_t</text>
<polyline fill="none" stroke="#bfbfbf" points="-0.5,-144.5 42.5,-144.5 "/>
<text text-anchor="middle" x="21" y="-132.5" font-family="Helvetica,sans-Serif" font-size="10.00"> </text>
<polyline fill="none" stroke="#bfbfbf" points="-0.5,-125.5 42.5,-125.5 "/>
<text text-anchor="middle" x="21" y="-113.5" font-family="Helvetica,sans-Serif" font-size="10.00"> </text>
</g>
<!-- Node2&#45;&gt;Node1 -->
<g id="edge1" class="edge"><title>Node2&#45;&gt;Node1</title>
<path fill="none" stroke="#404040" d="M16.5247,-106.478C16.127,-96.3945 17.2221,-85.2072 22,-76 23.7222,-72.6812 25.8058,-69.5432 28.1526,-66.5856"/>
<polygon fill="none" stroke="#404040" points="28.2217,-66.5119 29.4035,-59.3983 36.4245,-57.7533 35.2426,-64.8669 28.2217,-66.5119"/>
<text text-anchor="middle" x="46.5" y="-79.5" font-family="Helvetica,sans-Serif" font-size="10.00"> +timeslice</text>
</g>
<!-- Node3 -->
<g id="node3" class="node"><title>Node3</title>
<polygon fill="none" stroke="#bfbfbf" points="70.5,-218.5 70.5,-275.5 99.5,-275.5 99.5,-218.5 70.5,-218.5"/>
<text text-anchor="middle" x="85" y="-263.5" font-family="Helvetica,sans-Serif" font-size="10.00">int</text>
<polyline fill="none" stroke="#bfbfbf" points="70.5,-256.5 99.5,-256.5 "/>
<text text-anchor="middle" x="85" y="-244.5" font-family="Helvetica,sans-Serif" font-size="10.00"> </text>
<polyline fill="none" stroke="#bfbfbf" points="70.5,-237.5 99.5,-237.5 "/>
<text text-anchor="middle" x="85" y="-225.5" font-family="Helvetica,sans-Serif" font-size="10.00"> </text>
</g>
<!-- Node3&#45;&gt;Node1 -->
<g id="edge2" class="edge"><title>Node3&#45;&gt;Node1</title>
<path fill="none" stroke="#404040" d="M85,-218.204C85,-180.536 85,-113.049 85,-69.9535"/>
<polygon fill="none" stroke="#404040" points="85.0001,-69.6893 81,-63.6894 85,-57.6893 89,-63.6893 85.0001,-69.6893"/>
<text text-anchor="middle" x="122.5" y="-132.5" font-family="Helvetica,sans-Serif" font-size="10.00"> +sourceChannel</text>
</g>
<!-- Node4 -->
<g id="node4" class="node"><title>Node4</title>
<g id="a_node4"><a xlink:href="../../da/d96/structo2_1_1framework_1_1InputSpec.html" target="_top" xlink:title="{o2::framework::InputSpec\n||}">
<polygon fill="none" stroke="black" points="185.5,-106.5 185.5,-163.5 314.5,-163.5 314.5,-106.5 185.5,-106.5"/>
<text text-anchor="middle" x="250" y="-151.5" font-family="Helvetica,sans-Serif" font-size="10.00">o2::framework::InputSpec</text>
<polyline fill="none" stroke="black" points="185.5,-144.5 314.5,-144.5 "/>
<text text-anchor="middle" x="250" y="-132.5" font-family="Helvetica,sans-Serif" font-size="10.00"> </text>
<polyline fill="none" stroke="black" points="185.5,-125.5 314.5,-125.5 "/>
<text text-anchor="middle" x="250" y="-113.5" font-family="Helvetica,sans-Serif" font-size="10.00"> </text>
</a>
</g>
</g>
<!-- Node3&#45;&gt;Node4 -->
<g id="edge8" class="edge"><title>Node3&#45;&gt;Node4</title>
<path fill="none" stroke="#404040" d="M99.6494,-222.204C102.25,-218.636 105.07,-215.114 108,-212 126.36,-192.485 150.871,-176.932 174.356,-165.108"/>
<polygon fill="none" stroke="#404040" points="174.602,-164.989 178.265,-158.777 185.408,-159.77 181.745,-165.981 174.602,-164.989"/>
<text text-anchor="middle" x="162" y="-185.5" font-family="Helvetica,sans-Serif" font-size="10.00"> +binding</text>
</g>
<!-- Node4&#45;&gt;Node1 -->
<g id="edge3" class="edge"><title>Node4&#45;&gt;Node1</title>
<path fill="none" stroke="#404040" d="M206.216,-106.403C185.622,-93.4226 160.866,-77.8187 139.11,-64.1056"/>
<polygon fill="none" stroke="#404040" points="138.854,-63.9441 131.645,-64.1287 128.702,-57.5454 135.911,-57.3608 138.854,-63.9441"/>
<text text-anchor="middle" x="195.5" y="-79.5" font-family="Helvetica,sans-Serif" font-size="10.00"> +matcher</text>
</g>
<!-- Node5 -->
<g id="node5" class="node"><title>Node5</title>
<polygon fill="none" stroke="#bfbfbf" points="117.5,-218.5 117.5,-275.5 168.5,-275.5 168.5,-218.5 117.5,-218.5"/>
<text text-anchor="middle" x="143" y="-263.5" font-family="Helvetica,sans-Serif" font-size="10.00">uint64_t</text>
<polyline fill="none" stroke="#bfbfbf" points="117.5,-256.5 168.5,-256.5 "/>
<text text-anchor="middle" x="143" y="-244.5" font-family="Helvetica,sans-Serif" font-size="10.00"> </text>
<polyline fill="none" stroke="#bfbfbf" points="117.5,-237.5 168.5,-237.5 "/>
<text text-anchor="middle" x="143" y="-225.5" font-family="Helvetica,sans-Serif" font-size="10.00"> </text>
</g>
<!-- Node5&#45;&gt;Node4 -->
<g id="edge4" class="edge"><title>Node5&#45;&gt;Node4</title>
<path fill="none" stroke="#404040" d="M167.899,-218.244C178.285,-206.863 190.571,-193.652 202,-182 205.134,-178.804 208.421,-175.521 211.741,-172.251"/>
<polygon fill="none" stroke="#404040" points="211.932,-172.064 213.439,-165.012 220.528,-163.69 219.021,-170.742 211.932,-172.064"/>
<text text-anchor="middle" x="226" y="-185.5" font-family="Helvetica,sans-Serif" font-size="10.00"> +subSpec</text>
</g>
<!-- Node6 -->
<g id="node6" class="node"><title>Node6</title>
<polygon fill="none" stroke="#bfbfbf" points="187,-213 187,-281 329,-281 329,-213 187,-213"/>
<text text-anchor="start" x="195" y="-269" font-family="Helvetica,sans-Serif" font-size="10.00">Descriptor&lt; gSizeDataOrigin</text>
<text text-anchor="middle" x="258" y="-258" font-family="Helvetica,sans-Serif" font-size="10.00">String, printDataOrigin &gt;</text>
<polyline fill="none" stroke="#bfbfbf" points="187,-251 329,-251 "/>
<text text-anchor="middle" x="258" y="-239" font-family="Helvetica,sans-Serif" font-size="10.00"> </text>
<polyline fill="none" stroke="#bfbfbf" points="187,-232 329,-232 "/>
<text text-anchor="middle" x="258" y="-220" font-family="Helvetica,sans-Serif" font-size="10.00"> </text>
</g>
<!-- Node6&#45;&gt;Node4 -->
<g id="edge5" class="edge"><title>Node6&#45;&gt;Node4</title>
<path fill="none" stroke="#404040" d="M255.6,-212.996C254.753,-201.348 253.791,-188.124 252.906,-175.963"/>
<polygon fill="none" stroke="#404040" points="252.891,-175.753 248.466,-170.059 252.021,-163.784 256.445,-169.478 252.891,-175.753"/>
<text text-anchor="middle" x="270.5" y="-185.5" font-family="Helvetica,sans-Serif" font-size="10.00"> +origin</text>
</g>
<!-- Node7 -->
<g id="node7" class="node"><title>Node7</title>
<polygon fill="none" stroke="#bfbfbf" points="347,-218.5 347,-275.5 425,-275.5 425,-218.5 347,-218.5"/>
<text text-anchor="middle" x="386" y="-263.5" font-family="Helvetica,sans-Serif" font-size="10.00">enum Lifetime</text>
<polyline fill="none" stroke="#bfbfbf" points="347,-256.5 425,-256.5 "/>
<text text-anchor="middle" x="386" y="-244.5" font-family="Helvetica,sans-Serif" font-size="10.00"> </text>
<polyline fill="none" stroke="#bfbfbf" points="347,-237.5 425,-237.5 "/>
<text text-anchor="middle" x="386" y="-225.5" font-family="Helvetica,sans-Serif" font-size="10.00"> </text>
</g>
<!-- Node7&#45;&gt;Node4 -->
<g id="edge6" class="edge"><title>Node7&#45;&gt;Node4</title>
<path fill="none" stroke="#404040" d="M351.681,-218.242C334.125,-204.042 312.562,-186.601 293.817,-171.44"/>
<polygon fill="none" stroke="#404040" points="293.638,-171.295 286.457,-170.632 284.308,-163.749 291.488,-164.412 293.638,-171.295"/>
<text text-anchor="middle" x="338.5" y="-185.5" font-family="Helvetica,sans-Serif" font-size="10.00"> +lifetime</text>
</g>
<!-- Node8 -->
<g id="node8" class="node"><title>Node8</title>
<polygon fill="none" stroke="#bfbfbf" points="443,-213 443,-281 609,-281 609,-213 443,-213"/>
<text text-anchor="start" x="451" y="-269" font-family="Helvetica,sans-Serif" font-size="10.00">Descriptor&lt; gSizeDataDescription</text>
<text text-anchor="middle" x="526" y="-258" font-family="Helvetica,sans-Serif" font-size="10.00">String, printDataDescription &gt;</text>
<polyline fill="none" stroke="#bfbfbf" points="443,-251 609,-251 "/>
<text text-anchor="middle" x="526" y="-239" font-family="Helvetica,sans-Serif" font-size="10.00"> </text>
<polyline fill="none" stroke="#bfbfbf" points="443,-232 609,-232 "/>
<text text-anchor="middle" x="526" y="-220" font-family="Helvetica,sans-Serif" font-size="10.00"> </text>
</g>
<!-- Node8&#45;&gt;Node4 -->
<g id="edge7" class="edge"><title>Node8&#45;&gt;Node4</title>
<path fill="none" stroke="#404040" d="M443.191,-212.996C406.082,-198.207 362.598,-180.876 326.291,-166.406"/>
<polygon fill="none" stroke="#404040" points="325.92,-166.258 318.865,-167.752 314.772,-161.815 321.827,-160.321 325.92,-166.258"/>
<text text-anchor="middle" x="416.5" y="-185.5" font-family="Helvetica,sans-Serif" font-size="10.00"> +description</text>
</g>
</g>
</svg>
