<?xml version="1.0" encoding="UTF-8" standalone="no"?>
<!DOCTYPE svg PUBLIC "-//W3C//DTD SVG 1.1//EN"
 "http://www.w3.org/Graphics/SVG/1.1/DTD/svg11.dtd">
<!-- Generated by graphviz version 2.36.0 (20140111.2315)
 -->
<!-- Title: o2::ITS::TrivialClusterer Pages: 1 -->
<svg width="544pt" height="1382pt"
 viewBox="0.00 0.00 544.00 1382.00" xmlns="http://www.w3.org/2000/svg" xmlns:xlink="http://www.w3.org/1999/xlink">
<g id="graph0" class="graph" transform="scale(1 1) rotate(0) translate(4 1378)">
<title>o2::ITS::TrivialClusterer</title>
<!-- Node1 -->
<g id="node1" class="node"><title>Node1</title>
<polygon fill="#bfbfbf" stroke="black" points="253.5,-0.5 253.5,-123.5 378.5,-123.5 378.5,-0.5 253.5,-0.5"/>
<text text-anchor="middle" x="316" y="-111.5" font-family="Helvetica,sans-Serif" font-size="10.00">o2::ITS::TrivialClusterer</text>
<polyline fill="none" stroke="black" points="253.5,-104.5 378.5,-104.5 "/>
<text text-anchor="middle" x="316" y="-92.5" font-family="Helvetica,sans-Serif" font-size="10.00"> </text>
<polyline fill="none" stroke="black" points="253.5,-85.5 378.5,-85.5 "/>
<text text-anchor="start" x="261.5" y="-73.5" font-family="Helvetica,sans-Serif" font-size="10.00">+ TrivialClusterer()</text>
<text text-anchor="start" x="261.5" y="-62.5" font-family="Helvetica,sans-Serif" font-size="10.00">+ ~TrivialClusterer()</text>
<text text-anchor="start" x="261.5" y="-51.5" font-family="Helvetica,sans-Serif" font-size="10.00">+ TrivialClusterer()</text>
<text text-anchor="start" x="261.5" y="-40.5" font-family="Helvetica,sans-Serif" font-size="10.00">+ operator=()</text>
<text text-anchor="start" x="261.5" y="-29.5" font-family="Helvetica,sans-Serif" font-size="10.00">+ process()</text>
<text text-anchor="start" x="261.5" y="-18.5" font-family="Helvetica,sans-Serif" font-size="10.00">+ setGeometry()</text>
<text text-anchor="start" x="261.5" y="-7.5" font-family="Helvetica,sans-Serif" font-size="10.00">+ setMCTruthContainer()</text>
</g>
<!-- Node2 -->
<g id="node2" class="node"><title>Node2</title>
<g id="a_node2"><a xlink:href="../../d7/d98/classo2_1_1ITSMFT_1_1GeometryTGeo.html" target="_top" xlink:title="{o2::ITSMFT::GeometryTGeo\n||+ GeometryTGeo()\l+ GeometryTGeo()\l+ operator=()\l+ GeometryTGeo()\l+ ~GeometryTGeo()\l+ getNumberOfChips()\l+ Build()\l# ClassDefOverride()\l}">
<polygon fill="none" stroke="black" points="145,-228 145,-362 287,-362 287,-228 145,-228"/>
<text text-anchor="middle" x="216" y="-350" font-family="Helvetica,sans-Serif" font-size="10.00">o2::ITSMFT::GeometryTGeo</text>
<polyline fill="none" stroke="black" points="145,-343 287,-343 "/>
<text text-anchor="middle" x="216" y="-331" font-family="Helvetica,sans-Serif" font-size="10.00"> </text>
<polyline fill="none" stroke="black" points="145,-324 287,-324 "/>
<text text-anchor="start" x="153" y="-312" font-family="Helvetica,sans-Serif" font-size="10.00">+ GeometryTGeo()</text>
<text text-anchor="start" x="153" y="-301" font-family="Helvetica,sans-Serif" font-size="10.00">+ GeometryTGeo()</text>
<text text-anchor="start" x="153" y="-290" font-family="Helvetica,sans-Serif" font-size="10.00">+ operator=()</text>
<text text-anchor="start" x="153" y="-279" font-family="Helvetica,sans-Serif" font-size="10.00">+ GeometryTGeo()</text>
<text text-anchor="start" x="153" y="-268" font-family="Helvetica,sans-Serif" font-size="10.00">+ ~GeometryTGeo()</text>
<text text-anchor="start" x="153" y="-257" font-family="Helvetica,sans-Serif" font-size="10.00">+ getNumberOfChips()</text>
<text text-anchor="start" x="153" y="-246" font-family="Helvetica,sans-Serif" font-size="10.00">+ Build()</text>
<text text-anchor="start" x="153" y="-235" font-family="Helvetica,sans-Serif" font-size="10.00"># ClassDefOverride()</text>
</a>
</g>
</g>
<!-- Node2&#45;&gt;Node1 -->
<g id="edge1" class="edge"><title>Node2&#45;&gt;Node1</title>
<path fill="none" stroke="#404040" d="M243.306,-227.982C254.504,-201.218 267.702,-170.06 280,-142 281.016,-139.681 282.054,-137.327 283.106,-134.951"/>
<polygon fill="none" stroke="#404040" points="283.221,-134.694 282.012,-127.585 288.109,-123.734 289.318,-130.843 283.221,-134.694"/>
<text text-anchor="middle" x="310" y="-145.5" font-family="Helvetica,sans-Serif" font-size="10.00"> #mGeometry</text>
</g>
<!-- Node3 -->
<g id="node3" class="node"><title>Node3</title>
<g id="a_node3"><a xlink:href="../../df/d06/classo2_1_1detectors_1_1DetMatrixCache.html" target="_top" xlink:title="{o2::detectors::DetMatrix\lCache\n||+ DetMatrixCache()\l+ DetMatrixCache()\l+ ~DetMatrixCache()\l+ DetMatrixCache()\l+ operator=()\l+ getDetID()\l+ getName()\l+ getCacheT2L()\l+ getCacheT2G()\l+ getCacheL2G()\l+ getCacheT2GRot()\l+ getMatrixT2L()\l+ getMatrixT2G()\l+ getMatrixL2G()\l+ getMatrixT2GRot()\l+ isBuilt()\l+ getSize()\l+ fillMatrixCache()\l+ setSize()\l+ getCacheT2L()\l+ getCacheT2G()\l+ getCacheL2G()\l+ getCacheT2GRot()\l+ ClassDef()\l}">
<polygon fill="none" stroke="black" points="155,-466.5 155,-787.5 277,-787.5 277,-466.5 155,-466.5"/>
<text text-anchor="start" x="163" y="-775.5" font-family="Helvetica,sans-Serif" font-size="10.00">o2::detectors::DetMatrix</text>
<text text-anchor="middle" x="216" y="-764.5" font-family="Helvetica,sans-Serif" font-size="10.00">Cache</text>
<polyline fill="none" stroke="black" points="155,-757.5 277,-757.5 "/>
<text text-anchor="middle" x="216" y="-745.5" font-family="Helvetica,sans-Serif" font-size="10.00"> </text>
<polyline fill="none" stroke="black" points="155,-738.5 277,-738.5 "/>
<text text-anchor="start" x="163" y="-726.5" font-family="Helvetica,sans-Serif" font-size="10.00">+ DetMatrixCache()</text>
<text text-anchor="start" x="163" y="-715.5" font-family="Helvetica,sans-Serif" font-size="10.00">+ DetMatrixCache()</text>
<text text-anchor="start" x="163" y="-704.5" font-family="Helvetica,sans-Serif" font-size="10.00">+ ~DetMatrixCache()</text>
<text text-anchor="start" x="163" y="-693.5" font-family="Helvetica,sans-Serif" font-size="10.00">+ DetMatrixCache()</text>
<text text-anchor="start" x="163" y="-682.5" font-family="Helvetica,sans-Serif" font-size="10.00">+ operator=()</text>
<text text-anchor="start" x="163" y="-671.5" font-family="Helvetica,sans-Serif" font-size="10.00">+ getDetID()</text>
<text text-anchor="start" x="163" y="-660.5" font-family="Helvetica,sans-Serif" font-size="10.00">+ getName()</text>
<text text-anchor="start" x="163" y="-649.5" font-family="Helvetica,sans-Serif" font-size="10.00">+ getCacheT2L()</text>
<text text-anchor="start" x="163" y="-638.5" font-family="Helvetica,sans-Serif" font-size="10.00">+ getCacheT2G()</text>
<text text-anchor="start" x="163" y="-627.5" font-family="Helvetica,sans-Serif" font-size="10.00">+ getCacheL2G()</text>
<text text-anchor="start" x="163" y="-616.5" font-family="Helvetica,sans-Serif" font-size="10.00">+ getCacheT2GRot()</text>
<text text-anchor="start" x="163" y="-605.5" font-family="Helvetica,sans-Serif" font-size="10.00">+ getMatrixT2L()</text>
<text text-anchor="start" x="163" y="-594.5" font-family="Helvetica,sans-Serif" font-size="10.00">+ getMatrixT2G()</text>
<text text-anchor="start" x="163" y="-583.5" font-family="Helvetica,sans-Serif" font-size="10.00">+ getMatrixL2G()</text>
<text text-anchor="start" x="163" y="-572.5" font-family="Helvetica,sans-Serif" font-size="10.00">+ getMatrixT2GRot()</text>
<text text-anchor="start" x="163" y="-561.5" font-family="Helvetica,sans-Serif" font-size="10.00">+ isBuilt()</text>
<text text-anchor="start" x="163" y="-550.5" font-family="Helvetica,sans-Serif" font-size="10.00">+ getSize()</text>
<text text-anchor="start" x="163" y="-539.5" font-family="Helvetica,sans-Serif" font-size="10.00">+ fillMatrixCache()</text>
<text text-anchor="start" x="163" y="-528.5" font-family="Helvetica,sans-Serif" font-size="10.00">+ setSize()</text>
<text text-anchor="start" x="163" y="-517.5" font-family="Helvetica,sans-Serif" font-size="10.00">+ getCacheT2L()</text>
<text text-anchor="start" x="163" y="-506.5" font-family="Helvetica,sans-Serif" font-size="10.00">+ getCacheT2G()</text>
<text text-anchor="start" x="163" y="-495.5" font-family="Helvetica,sans-Serif" font-size="10.00">+ getCacheL2G()</text>
<text text-anchor="start" x="163" y="-484.5" font-family="Helvetica,sans-Serif" font-size="10.00">+ getCacheT2GRot()</text>
<text text-anchor="start" x="163" y="-473.5" font-family="Helvetica,sans-Serif" font-size="10.00">+ ClassDef()</text>
</a>
</g>
</g>
<!-- Node3&#45;&gt;Node2 -->
<g id="edge2" class="edge"><title>Node3&#45;&gt;Node2</title>
<path fill="none" stroke="midnightblue" d="M216,-455.949C216,-422.55 216,-389.427 216,-362.062"/>
<polygon fill="none" stroke="midnightblue" points="212.5,-456.317 216,-466.317 219.5,-456.317 212.5,-456.317"/>
</g>
<!-- Node4 -->
<g id="node4" class="node"><title>Node4</title>
<g id="a_node4"><a xlink:href="../../d6/dd5/classo2_1_1detectors_1_1DetID.html" target="_top" xlink:title="Static class with identifiers, bitmasks and names for ALICE detectors. ">
<polygon fill="none" stroke="black" points="35,-858.5 35,-1069.5 141,-1069.5 141,-858.5 35,-858.5"/>
<text text-anchor="middle" x="88" y="-1057.5" font-family="Helvetica,sans-Serif" font-size="10.00">o2::detectors::DetID</text>
<polyline fill="none" stroke="black" points="35,-1050.5 141,-1050.5 "/>
<text text-anchor="start" x="43" y="-1038.5" font-family="Helvetica,sans-Serif" font-size="10.00">+ TOF</text>
<text text-anchor="start" x="43" y="-1027.5" font-family="Helvetica,sans-Serif" font-size="10.00">+ PHS</text>
<text text-anchor="start" x="43" y="-1016.5" font-family="Helvetica,sans-Serif" font-size="10.00">+ EMC</text>
<text text-anchor="start" x="43" y="-1005.5" font-family="Helvetica,sans-Serif" font-size="10.00">+ HMP</text>
<text text-anchor="start" x="43" y="-994.5" font-family="Helvetica,sans-Serif" font-size="10.00">+ MFT</text>
<text text-anchor="start" x="43" y="-983.5" font-family="Helvetica,sans-Serif" font-size="10.00">+ Last</text>
<polyline fill="none" stroke="black" points="35,-976.5 141,-976.5 "/>
<text text-anchor="start" x="43" y="-964.5" font-family="Helvetica,sans-Serif" font-size="10.00">+ DetID()</text>
<text text-anchor="start" x="43" y="-953.5" font-family="Helvetica,sans-Serif" font-size="10.00">+ DetID()</text>
<text text-anchor="start" x="43" y="-942.5" font-family="Helvetica,sans-Serif" font-size="10.00">+ getID()</text>
<text text-anchor="start" x="43" y="-931.5" font-family="Helvetica,sans-Serif" font-size="10.00">+ getMask()</text>
<text text-anchor="start" x="43" y="-920.5" font-family="Helvetica,sans-Serif" font-size="10.00">+ getName()</text>
<text text-anchor="start" x="43" y="-909.5" font-family="Helvetica,sans-Serif" font-size="10.00">+ operator int()</text>
<text text-anchor="start" x="43" y="-898.5" font-family="Helvetica,sans-Serif" font-size="10.00">+ DetID()</text>
<text text-anchor="start" x="43" y="-887.5" font-family="Helvetica,sans-Serif" font-size="10.00">+ getNDetectors()</text>
<text text-anchor="start" x="43" y="-876.5" font-family="Helvetica,sans-Serif" font-size="10.00">+ getName()</text>
<text text-anchor="start" x="43" y="-865.5" font-family="Helvetica,sans-Serif" font-size="10.00">+ getMask()</text>
</a>
</g>
</g>
<!-- Node4&#45;&gt;Node3 -->
<g id="edge3" class="edge"><title>Node4&#45;&gt;Node3</title>
<path fill="none" stroke="#404040" d="M104.048,-858.331C108.071,-840.611 113.001,-822.591 119,-806 127.176,-783.388 137.896,-760.168 149.221,-738.275"/>
<polygon fill="none" stroke="#404040" points="149.229,-738.26 148.486,-731.087 154.821,-727.642 155.564,-734.815 149.229,-738.26"/>
<text text-anchor="middle" x="141" y="-820.5" font-family="Helvetica,sans-Serif" font-size="10.00"> +mDetID</text>
</g>
<!-- Node5 -->
<g id="node5" class="node"><title>Node5</title>
<polygon fill="none" stroke="#bfbfbf" points="0,-1272.5 0,-1329.5 100,-1329.5 100,-1272.5 0,-1272.5"/>
<text text-anchor="middle" x="50" y="-1317.5" font-family="Helvetica,sans-Serif" font-size="10.00">static constexpr ID</text>
<polyline fill="none" stroke="#bfbfbf" points="0,-1310.5 100,-1310.5 "/>
<text text-anchor="middle" x="50" y="-1298.5" font-family="Helvetica,sans-Serif" font-size="10.00"> </text>
<polyline fill="none" stroke="#bfbfbf" points="0,-1291.5 100,-1291.5 "/>
<text text-anchor="middle" x="50" y="-1279.5" font-family="Helvetica,sans-Serif" font-size="10.00"> </text>
</g>
<!-- Node5&#45;&gt;Node4 -->
<g id="edge4" class="edge"><title>Node5&#45;&gt;Node4</title>
<path fill="none" stroke="#404040" d="M47.6211,-1272.36C44.6872,-1231.71 41.2005,-1153.52 51,-1088 51.326,-1085.82 51.6819,-1083.63 52.065,-1081.42"/>
<polygon fill="none" stroke="#404040" points="52.0818,-1081.33 49.292,-1074.68 54.3571,-1069.55 57.1469,-1076.2 52.0818,-1081.33"/>
<text text-anchor="middle" x="66.5" y="-1201.5" font-family="Helvetica,sans-Serif" font-size="10.00"> +ACO</text>
<text text-anchor="middle" x="66.5" y="-1190.5" font-family="Helvetica,sans-Serif" font-size="10.00">+First</text>
<text text-anchor="middle" x="66.5" y="-1179.5" font-family="Helvetica,sans-Serif" font-size="10.00">+FIT</text>
<text text-anchor="middle" x="66.5" y="-1168.5" font-family="Helvetica,sans-Serif" font-size="10.00">+MCH</text>
<text text-anchor="middle" x="66.5" y="-1157.5" font-family="Helvetica,sans-Serif" font-size="10.00">+TRD</text>
<text text-anchor="middle" x="66.5" y="-1146.5" font-family="Helvetica,sans-Serif" font-size="10.00">+TPC</text>
<text text-anchor="middle" x="66.5" y="-1135.5" font-family="Helvetica,sans-Serif" font-size="10.00">+ZDC</text>
<text text-anchor="middle" x="66.5" y="-1124.5" font-family="Helvetica,sans-Serif" font-size="10.00">+MID</text>
<text text-anchor="middle" x="66.5" y="-1113.5" font-family="Helvetica,sans-Serif" font-size="10.00">+ITS</text>
<text text-anchor="middle" x="66.5" y="-1102.5" font-family="Helvetica,sans-Serif" font-size="10.00">+CPV</text>
<text text-anchor="middle" x="66.5" y="-1091.5" font-family="Helvetica,sans-Serif" font-size="10.00">...</text>
</g>
<!-- Node6 -->
<g id="node6" class="node"><title>Node6</title>
<polygon fill="none" stroke="#bfbfbf" points="140.5,-1272.5 140.5,-1329.5 169.5,-1329.5 169.5,-1272.5 140.5,-1272.5"/>
<text text-anchor="middle" x="155" y="-1317.5" font-family="Helvetica,sans-Serif" font-size="10.00">int</text>
<polyline fill="none" stroke="#bfbfbf" points="140.5,-1310.5 169.5,-1310.5 "/>
<text text-anchor="middle" x="155" y="-1298.5" font-family="Helvetica,sans-Serif" font-size="10.00"> </text>
<polyline fill="none" stroke="#bfbfbf" points="140.5,-1291.5 169.5,-1291.5 "/>
<text text-anchor="middle" x="155" y="-1279.5" font-family="Helvetica,sans-Serif" font-size="10.00"> </text>
</g>
<!-- Node6&#45;&gt;Node3 -->
<g id="edge8" class="edge"><title>Node6&#45;&gt;Node3</title>
<path fill="none" stroke="#404040" d="M157.618,-1272.44C159.268,-1254.63 161.384,-1230.96 163,-1210 175.052,-1053.69 170.742,-1014.03 186,-858 187.842,-839.165 190.018,-819.494 192.345,-799.929"/>
<polygon fill="none" stroke="#404040" points="192.374,-799.683 189.121,-793.247 193.811,-787.769 197.064,-794.205 192.374,-799.683"/>
<text text-anchor="middle" x="204.5" y="-961.5" font-family="Helvetica,sans-Serif" font-size="10.00"> +mSize</text>
</g>
<!-- Node6&#45;&gt;Node4 -->
<g id="edge5" class="edge"><title>Node6&#45;&gt;Node4</title>
<path fill="none" stroke="#404040" d="M140.301,-1279.71C128.477,-1262.19 112.62,-1235.71 105,-1210 92.8953,-1169.17 87.6487,-1122.9 85.7512,-1081.65"/>
<polygon fill="none" stroke="#404040" points="85.7487,-1081.58 81.5192,-1075.74 85.2837,-1069.59 89.5132,-1075.43 85.7487,-1081.58"/>
<text text-anchor="middle" x="134" y="-1146.5" font-family="Helvetica,sans-Serif" font-size="10.00"> +nDetectors</text>
</g>
<!-- Node7 -->
<g id="node7" class="node"><title>Node7</title>
<g id="a_node7"><a xlink:href="../../d4/daa/classo2_1_1detectors_1_1MatrixCache.html" target="_top" xlink:title="{o2::detectors::MatrixCache\l\&lt; o2::Transform3D \&gt;\n||+ MatrixCache()\l+ MatrixCache()\l+ ~MatrixCache()\l+ operator=()\l+ setSize()\l+ getSize()\l+ setMatrix()\l+ getMatrix()\l+ isFilled()\l}">
<polygon fill="none" stroke="black" points="232.5,-886 232.5,-1042 367.5,-1042 367.5,-886 232.5,-886"/>
<text text-anchor="start" x="240.5" y="-1030" font-family="Helvetica,sans-Serif" font-size="10.00">o2::detectors::MatrixCache</text>
<text text-anchor="middle" x="300" y="-1019" font-family="Helvetica,sans-Serif" font-size="10.00">&lt; o2::Transform3D &gt;</text>
<polyline fill="none" stroke="black" points="232.5,-1012 367.5,-1012 "/>
<text text-anchor="middle" x="300" y="-1000" font-family="Helvetica,sans-Serif" font-size="10.00"> </text>
<polyline fill="none" stroke="black" points="232.5,-993 367.5,-993 "/>
<text text-anchor="start" x="240.5" y="-981" font-family="Helvetica,sans-Serif" font-size="10.00">+ MatrixCache()</text>
<text text-anchor="start" x="240.5" y="-970" font-family="Helvetica,sans-Serif" font-size="10.00">+ MatrixCache()</text>
<text text-anchor="start" x="240.5" y="-959" font-family="Helvetica,sans-Serif" font-size="10.00">+ ~MatrixCache()</text>
<text text-anchor="start" x="240.5" y="-948" font-family="Helvetica,sans-Serif" font-size="10.00">+ operator=()</text>
<text text-anchor="start" x="240.5" y="-937" font-family="Helvetica,sans-Serif" font-size="10.00">+ setSize()</text>
<text text-anchor="start" x="240.5" y="-926" font-family="Helvetica,sans-Serif" font-size="10.00">+ getSize()</text>
<text text-anchor="start" x="240.5" y="-915" font-family="Helvetica,sans-Serif" font-size="10.00">+ setMatrix()</text>
<text text-anchor="start" x="240.5" y="-904" font-family="Helvetica,sans-Serif" font-size="10.00">+ getMatrix()</text>
<text text-anchor="start" x="240.5" y="-893" font-family="Helvetica,sans-Serif" font-size="10.00">+ isFilled()</text>
</a>
</g>
</g>
<!-- Node7&#45;&gt;Node3 -->
<g id="edge6" class="edge"><title>Node7&#45;&gt;Node3</title>
<path fill="none" stroke="#404040" d="M280.623,-885.724C274.122,-859.795 266.589,-829.754 259.013,-799.538"/>
<polygon fill="none" stroke="#404040" points="258.914,-799.145 253.575,-794.298 255.995,-787.505 261.335,-792.352 258.914,-799.145"/>
<text text-anchor="middle" x="286.5" y="-831.5" font-family="Helvetica,sans-Serif" font-size="10.00"> +mT2G</text>
<text text-anchor="middle" x="286.5" y="-820.5" font-family="Helvetica,sans-Serif" font-size="10.00">+mT2L</text>
<text text-anchor="middle" x="286.5" y="-809.5" font-family="Helvetica,sans-Serif" font-size="10.00">+mL2G</text>
</g>
<!-- Node8 -->
<g id="node8" class="node"><title>Node8</title>
<g id="a_node8"><a xlink:href="../../d4/daa/classo2_1_1detectors_1_1MatrixCache.html" target="_top" xlink:title="MatrixCache is a vector of cached transform matrices (per sensor) for specific Transformation type...">
<polygon fill="none" stroke="black" points="288.5,-1228.5 288.5,-1373.5 447.5,-1373.5 447.5,-1228.5 288.5,-1228.5"/>
<text text-anchor="middle" x="368" y="-1361.5" font-family="Helvetica,sans-Serif" font-size="10.00">o2::detectors::MatrixCache&lt; T &gt;</text>
<polyline fill="none" stroke="black" points="288.5,-1354.5 447.5,-1354.5 "/>
<text text-anchor="middle" x="368" y="-1342.5" font-family="Helvetica,sans-Serif" font-size="10.00"> </text>
<polyline fill="none" stroke="black" points="288.5,-1335.5 447.5,-1335.5 "/>
<text text-anchor="start" x="296.5" y="-1323.5" font-family="Helvetica,sans-Serif" font-size="10.00">+ MatrixCache()</text>
<text text-anchor="start" x="296.5" y="-1312.5" font-family="Helvetica,sans-Serif" font-size="10.00">+ ~MatrixCache()</text>
<text text-anchor="start" x="296.5" y="-1301.5" font-family="Helvetica,sans-Serif" font-size="10.00">+ MatrixCache()</text>
<text text-anchor="start" x="296.5" y="-1290.5" font-family="Helvetica,sans-Serif" font-size="10.00">+ operator=()</text>
<text text-anchor="start" x="296.5" y="-1279.5" font-family="Helvetica,sans-Serif" font-size="10.00">+ setSize()</text>
<text text-anchor="start" x="296.5" y="-1268.5" font-family="Helvetica,sans-Serif" font-size="10.00">+ getSize()</text>
<text text-anchor="start" x="296.5" y="-1257.5" font-family="Helvetica,sans-Serif" font-size="10.00">+ setMatrix()</text>
<text text-anchor="start" x="296.5" y="-1246.5" font-family="Helvetica,sans-Serif" font-size="10.00">+ getMatrix()</text>
<text text-anchor="start" x="296.5" y="-1235.5" font-family="Helvetica,sans-Serif" font-size="10.00">+ isFilled()</text>
</a>
</g>
</g>
<!-- Node8&#45;&gt;Node7 -->
<g id="edge7" class="edge"><title>Node8&#45;&gt;Node7</title>
<path fill="none" stroke="orange" d="M329.654,-1218.84C328.696,-1215.88 327.806,-1212.93 327,-1210 311.867,-1155.02 305.173,-1090.9 302.232,-1042.05"/>
<polygon fill="orange" stroke="orange" points="326.349,-1219.99 332.931,-1228.29 332.964,-1217.7 326.349,-1219.99"/>
<text text-anchor="middle" x="374.5" y="-1146.5" font-family="Helvetica,sans-Serif" font-size="10.00"> &lt; o2::Transform3D &gt;</text>
</g>
<!-- Node9 -->
<g id="node9" class="node"><title>Node9</title>
<g id="a_node9"><a xlink:href="../../d4/daa/classo2_1_1detectors_1_1MatrixCache.html" target="_top" xlink:title="{o2::detectors::MatrixCache\l\&lt; o2::Rotation2D \&gt;\n||+ MatrixCache()\l+ MatrixCache()\l+ ~MatrixCache()\l+ operator=()\l+ setSize()\l+ getSize()\l+ setMatrix()\l+ getMatrix()\l+ isFilled()\l}">
<polygon fill="none" stroke="black" points="385.5,-886 385.5,-1042 520.5,-1042 520.5,-886 385.5,-886"/>
<text text-anchor="start" x="393.5" y="-1030" font-family="Helvetica,sans-Serif" font-size="10.00">o2::detectors::MatrixCache</text>
<text text-anchor="middle" x="453" y="-1019" font-family="Helvetica,sans-Serif" font-size="10.00">&lt; o2::Rotation2D &gt;</text>
<polyline fill="none" stroke="black" points="385.5,-1012 520.5,-1012 "/>
<text text-anchor="middle" x="453" y="-1000" font-family="Helvetica,sans-Serif" font-size="10.00"> </text>
<polyline fill="none" stroke="black" points="385.5,-993 520.5,-993 "/>
<text text-anchor="start" x="393.5" y="-981" font-family="Helvetica,sans-Serif" font-size="10.00">+ MatrixCache()</text>
<text text-anchor="start" x="393.5" y="-970" font-family="Helvetica,sans-Serif" font-size="10.00">+ MatrixCache()</text>
<text text-anchor="start" x="393.5" y="-959" font-family="Helvetica,sans-Serif" font-size="10.00">+ ~MatrixCache()</text>
<text text-anchor="start" x="393.5" y="-948" font-family="Helvetica,sans-Serif" font-size="10.00">+ operator=()</text>
<text text-anchor="start" x="393.5" y="-937" font-family="Helvetica,sans-Serif" font-size="10.00">+ setSize()</text>
<text text-anchor="start" x="393.5" y="-926" font-family="Helvetica,sans-Serif" font-size="10.00">+ getSize()</text>
<text text-anchor="start" x="393.5" y="-915" font-family="Helvetica,sans-Serif" font-size="10.00">+ setMatrix()</text>
<text text-anchor="start" x="393.5" y="-904" font-family="Helvetica,sans-Serif" font-size="10.00">+ getMatrix()</text>
<text text-anchor="start" x="393.5" y="-893" font-family="Helvetica,sans-Serif" font-size="10.00">+ isFilled()</text>
</a>
</g>
</g>
<!-- Node8&#45;&gt;Node9 -->
<g id="edge10" class="edge"><title>Node8&#45;&gt;Node9</title>
<path fill="none" stroke="orange" d="M418.627,-1218.89C419.845,-1215.93 420.975,-1212.96 422,-1210 440.752,-1155.81 448.372,-1091.37 451.373,-1042.18"/>
<polygon fill="orange" stroke="orange" points="415.303,-1217.76 414.465,-1228.32 421.707,-1220.58 415.303,-1217.76"/>
<text text-anchor="middle" x="492" y="-1146.5" font-family="Helvetica,sans-Serif" font-size="10.00"> &lt; o2::Rotation2D &gt;</text>
</g>
<!-- Node9&#45;&gt;Node3 -->
<g id="edge9" class="edge"><title>Node9&#45;&gt;Node3</title>
<path fill="none" stroke="#404040" d="M398.331,-885.726C391.028,-876.224 383.475,-866.777 376,-858 347.675,-824.743 333.356,-822.838 307,-788 298.948,-777.356 291.1,-765.926 283.606,-754.251"/>
<polygon fill="none" stroke="#404040" points="283.508,-754.096 276.926,-751.149 277.114,-743.941 283.696,-746.887 283.508,-754.096"/>
<text text-anchor="middle" x="386" y="-820.5" font-family="Helvetica,sans-Serif" font-size="10.00"> +mT2GRot</text>
</g>
<!-- Node10 -->
<g id="node10" class="node"><title>Node10</title>
<g id="a_node10"><a xlink:href="../../dc/daa/classo2_1_1dataformats_1_1MCTruthContainer.html" target="_top" xlink:title="{o2::dataformats::MCTruth\lContainer\&lt; o2::o2::MCCompLabel \&gt;\n||+ MCTruthContainer()\l+ MCTruthContainer()\l+ ~MCTruthContainer()\l+ operator=()\l+ getMCTruthHeader()\l+ getElement()\l+ getIndexedSize()\l+ getNElements()\l+ getLabels()\l+ getLabels()\l+ clear()\l+ addElement()\l+ addElements()\l+ addElements()\l+ addElementRandomAccess()\l+ mergeAtBack()\l+ ClassDefNV()\l}">
<polygon fill="none" stroke="black" points="305.5,-173 305.5,-417 480.5,-417 480.5,-173 305.5,-173"/>
<text text-anchor="start" x="313.5" y="-405" font-family="Helvetica,sans-Serif" font-size="10.00">o2::dataformats::MCTruth</text>
<text text-anchor="middle" x="393" y="-394" font-family="Helvetica,sans-Serif" font-size="10.00">Container&lt; o2::o2::MCCompLabel &gt;</text>
<polyline fill="none" stroke="black" points="305.5,-387 480.5,-387 "/>
<text text-anchor="middle" x="393" y="-375" font-family="Helvetica,sans-Serif" font-size="10.00"> </text>
<polyline fill="none" stroke="black" points="305.5,-368 480.5,-368 "/>
<text text-anchor="start" x="313.5" y="-356" font-family="Helvetica,sans-Serif" font-size="10.00">+ MCTruthContainer()</text>
<text text-anchor="start" x="313.5" y="-345" font-family="Helvetica,sans-Serif" font-size="10.00">+ MCTruthContainer()</text>
<text text-anchor="start" x="313.5" y="-334" font-family="Helvetica,sans-Serif" font-size="10.00">+ ~MCTruthContainer()</text>
<text text-anchor="start" x="313.5" y="-323" font-family="Helvetica,sans-Serif" font-size="10.00">+ operator=()</text>
<text text-anchor="start" x="313.5" y="-312" font-family="Helvetica,sans-Serif" font-size="10.00">+ getMCTruthHeader()</text>
<text text-anchor="start" x="313.5" y="-301" font-family="Helvetica,sans-Serif" font-size="10.00">+ getElement()</text>
<text text-anchor="start" x="313.5" y="-290" font-family="Helvetica,sans-Serif" font-size="10.00">+ getIndexedSize()</text>
<text text-anchor="start" x="313.5" y="-279" font-family="Helvetica,sans-Serif" font-size="10.00">+ getNElements()</text>
<text text-anchor="start" x="313.5" y="-268" font-family="Helvetica,sans-Serif" font-size="10.00">+ getLabels()</text>
<text text-anchor="start" x="313.5" y="-257" font-family="Helvetica,sans-Serif" font-size="10.00">+ getLabels()</text>
<text text-anchor="start" x="313.5" y="-246" font-family="Helvetica,sans-Serif" font-size="10.00">+ clear()</text>
<text text-anchor="start" x="313.5" y="-235" font-family="Helvetica,sans-Serif" font-size="10.00">+ addElement()</text>
<text text-anchor="start" x="313.5" y="-224" font-family="Helvetica,sans-Serif" font-size="10.00">+ addElements()</text>
<text text-anchor="start" x="313.5" y="-213" font-family="Helvetica,sans-Serif" font-size="10.00">+ addElements()</text>
<text text-anchor="start" x="313.5" y="-202" font-family="Helvetica,sans-Serif" font-size="10.00">+ addElementRandomAccess()</text>
<text text-anchor="start" x="313.5" y="-191" font-family="Helvetica,sans-Serif" font-size="10.00">+ mergeAtBack()</text>
<text text-anchor="start" x="313.5" y="-180" font-family="Helvetica,sans-Serif" font-size="10.00">+ ClassDefNV()</text>
</a>
</g>
</g>
<!-- Node10&#45;&gt;Node1 -->
<g id="edge11" class="edge"><title>Node10&#45;&gt;Node1</title>
<path fill="none" stroke="#404040" d="M352.583,-172.75C348.335,-160.005 344.118,-147.354 340.14,-135.42"/>
<polygon fill="none" stroke="#404040" points="340.044,-135.131 334.352,-130.704 336.249,-123.747 341.941,-128.174 340.044,-135.131"/>
<text text-anchor="middle" x="376.5" y="-145.5" font-family="Helvetica,sans-Serif" font-size="10.00"> #mClsLabels</text>
</g>
<!-- Node11 -->
<g id="node11" class="node"><title>Node11</title>
<g id="a_node11"><a xlink:href="../../dc/daa/classo2_1_1dataformats_1_1MCTruthContainer.html" target="_top" xlink:title="{o2::dataformats::MCTruth\lContainer\&lt; T \&gt;\n||+ MCTruthContainer()\l+ ~MCTruthContainer()\l+ MCTruthContainer()\l+ operator=()\l+ getMCTruthHeader()\l+ getElement()\l+ getIndexedSize()\l+ getNElements()\l+ getLabels()\l+ getLabels()\l+ clear()\l+ addElement()\l+ addElements()\l+ addElements()\l+ addElementRandomAccess()\l+ mergeAtBack()\l+ ClassDefNV()\l}">
<polygon fill="none" stroke="black" points="316.5,-505 316.5,-749 469.5,-749 469.5,-505 316.5,-505"/>
<text text-anchor="start" x="324.5" y="-737" font-family="Helvetica,sans-Serif" font-size="10.00">o2::dataformats::MCTruth</text>
<text text-anchor="middle" x="393" y="-726" font-family="Helvetica,sans-Serif" font-size="10.00">Container&lt; T &gt;</text>
<polyline fill="none" stroke="black" points="316.5,-719 469.5,-719 "/>
<text text-anchor="middle" x="393" y="-707" font-family="Helvetica,sans-Serif" font-size="10.00"> </text>
<polyline fill="none" stroke="black" points="316.5,-700 469.5,-700 "/>
<text text-anchor="start" x="324.5" y="-688" font-family="Helvetica,sans-Serif" font-size="10.00">+ MCTruthContainer()</text>
<text text-anchor="start" x="324.5" y="-677" font-family="Helvetica,sans-Serif" font-size="10.00">+ ~MCTruthContainer()</text>
<text text-anchor="start" x="324.5" y="-666" font-family="Helvetica,sans-Serif" font-size="10.00">+ MCTruthContainer()</text>
<text text-anchor="start" x="324.5" y="-655" font-family="Helvetica,sans-Serif" font-size="10.00">+ operator=()</text>
<text text-anchor="start" x="324.5" y="-644" font-family="Helvetica,sans-Serif" font-size="10.00">+ getMCTruthHeader()</text>
<text text-anchor="start" x="324.5" y="-633" font-family="Helvetica,sans-Serif" font-size="10.00">+ getElement()</text>
<text text-anchor="start" x="324.5" y="-622" font-family="Helvetica,sans-Serif" font-size="10.00">+ getIndexedSize()</text>
<text text-anchor="start" x="324.5" y="-611" font-family="Helvetica,sans-Serif" font-size="10.00">+ getNElements()</text>
<text text-anchor="start" x="324.5" y="-600" font-family="Helvetica,sans-Serif" font-size="10.00">+ getLabels()</text>
<text text-anchor="start" x="324.5" y="-589" font-family="Helvetica,sans-Serif" font-size="10.00">+ getLabels()</text>
<text text-anchor="start" x="324.5" y="-578" font-family="Helvetica,sans-Serif" font-size="10.00">+ clear()</text>
<text text-anchor="start" x="324.5" y="-567" font-family="Helvetica,sans-Serif" font-size="10.00">+ addElement()</text>
<text text-anchor="start" x="324.5" y="-556" font-family="Helvetica,sans-Serif" font-size="10.00">+ addElements()</text>
<text text-anchor="start" x="324.5" y="-545" font-family="Helvetica,sans-Serif" font-size="10.00">+ addElements()</text>
<text text-anchor="start" x="324.5" y="-534" font-family="Helvetica,sans-Serif" font-size="10.00">+ addElementRandomAccess()</text>
<text text-anchor="start" x="324.5" y="-523" font-family="Helvetica,sans-Serif" font-size="10.00">+ mergeAtBack()</text>
<text text-anchor="start" x="324.5" y="-512" font-family="Helvetica,sans-Serif" font-size="10.00">+ ClassDefNV()</text>
</a>
</g>
</g>
<!-- Node11&#45;&gt;Node10 -->
<g id="edge12" class="edge"><title>Node11&#45;&gt;Node10</title>
<path fill="none" stroke="orange" d="M393,-494.866C393,-469.266 393,-442.53 393,-417.267"/>
<polygon fill="orange" stroke="orange" points="389.5,-494.994 393,-504.994 396.5,-494.994 389.5,-494.994"/>
<text text-anchor="middle" x="453" y="-439.5" font-family="Helvetica,sans-Serif" font-size="10.00"> &lt; o2::o2::MCCompLabel &gt;</text>
</g>
</g>
</svg>
