<?xml version="1.0" encoding="UTF-8" standalone="no"?>
<!DOCTYPE svg PUBLIC "-//W3C//DTD SVG 1.1//EN"
 "http://www.w3.org/Graphics/SVG/1.1/DTD/svg11.dtd">
<!-- Generated by graphviz version 2.36.0 (20140111.2315)
 -->
<!-- Title: o2::ITS::ClustererTask Pages: 1 -->
<svg width="122pt" height="204pt"
 viewBox="0.00 0.00 122.00 204.00" xmlns="http://www.w3.org/2000/svg" xmlns:xlink="http://www.w3.org/1999/xlink">
<g id="graph0" class="graph" transform="scale(1 1) rotate(0) translate(4 200)">
<title>o2::ITS::ClustererTask</title>
<!-- Node1 -->
<g id="node1" class="node"><title>Node1</title>
<polygon fill="#bfbfbf" stroke="black" points="-1,-0.5 -1,-101.5 115,-101.5 115,-0.5 -1,-0.5"/>
<text text-anchor="middle" x="57" y="-89.5" font-family="Helvetica,sans-Serif" font-size="10.00">o2::ITS::ClustererTask</text>
<polyline fill="none" stroke="black" points="-1,-82.5 115,-82.5 "/>
<text text-anchor="middle" x="57" y="-70.5" font-family="Helvetica,sans-Serif" font-size="10.00"> </text>
<polyline fill="none" stroke="black" points="-1,-63.5 115,-63.5 "/>
<text text-anchor="start" x="7" y="-51.5" font-family="Helvetica,sans-Serif" font-size="10.00">+ ClustererTask()</text>
<text text-anchor="start" x="7" y="-40.5" font-family="Helvetica,sans-Serif" font-size="10.00">+ ~ClustererTask()</text>
<text text-anchor="start" x="7" y="-29.5" font-family="Helvetica,sans-Serif" font-size="10.00">+ Init()</text>
<text text-anchor="start" x="7" y="-18.5" font-family="Helvetica,sans-Serif" font-size="10.00">+ Exec()</text>
<text text-anchor="start" x="7" y="-7.5" font-family="Helvetica,sans-Serif" font-size="10.00">+ getClusterer()</text>
</g>
<!-- Node2 -->
<g id="node2" class="node"><title>Node2</title>
<g id="a_node2"><a xlink:href="../../d2/d9e/classFairTask.html" target="_top" xlink:title="{FairTask\n||}">
<polygon fill="none" stroke="black" points="29.5,-138.5 29.5,-195.5 84.5,-195.5 84.5,-138.5 29.5,-138.5"/>
<text text-anchor="middle" x="57" y="-183.5" font-family="Helvetica,sans-Serif" font-size="10.00">FairTask</text>
<polyline fill="none" stroke="black" points="29.5,-176.5 84.5,-176.5 "/>
<text text-anchor="middle" x="57" y="-164.5" font-family="Helvetica,sans-Serif" font-size="10.00"> </text>
<polyline fill="none" stroke="black" points="29.5,-157.5 84.5,-157.5 "/>
<text text-anchor="middle" x="57" y="-145.5" font-family="Helvetica,sans-Serif" font-size="10.00"> </text>
</a>
</g>
</g>
<!-- Node2&#45;&gt;Node1 -->
<g id="edge1" class="edge"><title>Node2&#45;&gt;Node1</title>
<path fill="none" stroke="midnightblue" d="M57,-128.354C57,-119.796 57,-110.578 57,-101.608"/>
<polygon fill="none" stroke="midnightblue" points="53.5001,-128.404 57,-138.404 60.5001,-128.404 53.5001,-128.404"/>
</g>
</g>
</svg>
