<?xml version="1.0" encoding="UTF-8" standalone="no"?>
<!DOCTYPE svg PUBLIC "-//W3C//DTD SVG 1.1//EN"
 "http://www.w3.org/Graphics/SVG/1.1/DTD/svg11.dtd">
<!-- Generated by graphviz version 2.36.0 (20140111.2315)
 -->
<!-- Title: /home/travis/build/AliceO2Group/AliceO2/Framework/Utils/include/Utils/RootTreeReader.h Pages: 1 -->
<!--zoomable 298 -->
<svg id="main" version="1.1" xmlns="http://www.w3.org/2000/svg" xmlns:xlink="http://www.w3.org/1999/xlink" xml:space="preserve" onload="init(evt)">
<style type="text/css"><![CDATA[
.edge:hover path { stroke: red; }
.edge:hover polygon { stroke: red; fill: red; }
]]></style>
<script type="text/javascript"><![CDATA[
var edges = document.getElementsByTagName('g');
if (edges && edges.length) {
  for (var i=0;i<edges.length;i++) {
    if (edges[i].id.substr(0,4)=='edge') {
      edges[i].setAttribute('class','edge');
    }
  }
}
]]></script>
        <defs>
                <circle id="rim" cx="0" cy="0" r="7"/>
                <circle id="rim2" cx="0" cy="0" r="3.5"/>
                <g id="zoomPlus">
                        <use xlink:href="#rim" fill="#404040">
                                <set attributeName="fill" to="#808080" begin="zoomplus.mouseover" end="zoomplus.mouseout"/>
                        </use>
                        <path d="M-4,0h8M0,-4v8" fill="none" stroke="white" stroke-width="1.5" pointer-events="none"/>
                </g>
                <g id="zoomMin">
                        <use xlink:href="#rim" fill="#404040">
                                <set attributeName="fill" to="#808080" begin="zoomminus.mouseover" end="zoomminus.mouseout"/>
                        </use>
                        <path d="M-4,0h8" fill="none" stroke="white" stroke-width="1.5" pointer-events="none"/>
                </g>
                <g id="dirArrow">
                        <path fill="none" stroke="white" stroke-width="1.5" d="M0,-3.0v7 M-2.5,-0.5L0,-3.0L2.5,-0.5"/>
                </g>
               <g id="resetDef">
                       <use xlink:href="#rim2" fill="#404040">
                               <set attributeName="fill" to="#808080" begin="reset.mouseover" end="reset.mouseout"/>
                       </use>
               </g>
        </defs>

<script type="text/javascript">
var viewWidth = 1292;
var viewHeight = 298;
var sectionId = 'dynsection-0';
</script>
<script xlink:href="../../svgpan.js"/>
<svg id="graph" class="graph">
<g id="viewport">
<title>/home/travis/build/AliceO2Group/AliceO2/Framework/Utils/include/Utils/RootTreeReader.h</title>
<!-- Node1 -->
<g id="node1" class="node"><title>Node1</title>
<polygon fill="#bfbfbf" stroke="black" points="819.5,-237 819.5,-289 944.5,-289 944.5,-237 819.5,-237"/>
<text text-anchor="start" x="827.5" y="-277" font-family="Helvetica,sans-Serif" font-size="10.00">/home/travis/build</text>
<text text-anchor="start" x="827.5" y="-266" font-family="Helvetica,sans-Serif" font-size="10.00">/AliceO2Group/AliceO2</text>
<text text-anchor="start" x="827.5" y="-255" font-family="Helvetica,sans-Serif" font-size="10.00">/Framework/Utils/include</text>
<text text-anchor="middle" x="882" y="-244" font-family="Helvetica,sans-Serif" font-size="10.00">/Utils/RootTreeReader.h</text>
</g>
<!-- Node2 -->
<g id="node2" class="node"><title>Node2</title>
<g id="a_node2"><a xlink:href="../../d3/ddf/Output_8h.html" target="_top" xlink:title="Framework/Output.h">
<polygon fill="none" stroke="black" points="361,-180.5 361,-199.5 467,-199.5 467,-180.5 361,-180.5"/>
<text text-anchor="middle" x="414" y="-187.5" font-family="Helvetica,sans-Serif" font-size="10.00">Framework/Output.h</text>
</a>
</g>
</g>
<!-- Node1&#45;&gt;Node2 -->
<g id="edge1" class="edge"><title>Node1&#45;&gt;Node2</title>
<path fill="none" stroke="midnightblue" d="M819.369,-252.498C730.032,-238.945 566.926,-214.2 477.25,-200.596"/>
<polygon fill="midnightblue" stroke="midnightblue" points="477.629,-197.113 467.217,-199.074 476.579,-204.034 477.629,-197.113"/>
</g>
<!-- Node5 -->
<g id="node5" class="node"><title>Node5</title>
<polygon fill="none" stroke="#bfbfbf" points="60,-68.5 60,-87.5 112,-87.5 112,-68.5 60,-68.5"/>
<text text-anchor="middle" x="86" y="-75.5" font-family="Helvetica,sans-Serif" font-size="10.00">memory</text>
</g>
<!-- Node1&#45;&gt;Node5 -->
<g id="edge32" class="edge"><title>Node1&#45;&gt;Node5</title>
<path fill="none" stroke="midnightblue" d="M819.403,-260.109C719.226,-255.878 517.344,-242.391 352,-200 287.883,-183.562 274.229,-171.454 214,-144 177.602,-127.409 136.532,-106.073 110.954,-92.4623"/>
<polygon fill="midnightblue" stroke="midnightblue" points="112.421,-89.2777 101.952,-87.6502 109.121,-95.4511 112.421,-89.2777"/>
</g>
<!-- Node9 -->
<g id="node9" class="node"><title>Node9</title>
<polygon fill="none" stroke="#bfbfbf" points="737.5,-68.5 737.5,-87.5 796.5,-87.5 796.5,-68.5 737.5,-68.5"/>
<text text-anchor="middle" x="767" y="-75.5" font-family="Helvetica,sans-Serif" font-size="10.00">stdexcept</text>
</g>
<!-- Node1&#45;&gt;Node9 -->
<g id="edge30" class="edge"><title>Node1&#45;&gt;Node9</title>
<path fill="none" stroke="midnightblue" d="M846.443,-236.932C833.884,-226.655 820.529,-213.903 811,-200 788.753,-167.543 776.297,-122.507 770.685,-97.5405"/>
<polygon fill="midnightblue" stroke="midnightblue" points="774.076,-96.6557 768.578,-87.5987 767.228,-98.1071 774.076,-96.6557"/>
</g>
<!-- Node10 -->
<g id="node10" class="node"><title>Node10</title>
<polygon fill="none" stroke="#bfbfbf" points="64.5,-6.5 64.5,-25.5 105.5,-25.5 105.5,-6.5 64.5,-6.5"/>
<text text-anchor="middle" x="85" y="-13.5" font-family="Helvetica,sans-Serif" font-size="10.00">string</text>
</g>
<!-- Node1&#45;&gt;Node10 -->
<g id="edge29" class="edge"><title>Node1&#45;&gt;Node10</title>
<path fill="none" stroke="midnightblue" d="M829.719,-236.94C740.197,-195.126 550.851,-111.443 382,-68 265.61,-38.0544 228.618,-68.1396 114,-32 112.135,-31.4119 110.246,-30.7099 108.373,-29.9354"/>
<polygon fill="midnightblue" stroke="midnightblue" points="109.868,-26.7707 99.3325,-25.6499 106.869,-33.096 109.868,-26.7707"/>
</g>
<!-- Node16 -->
<g id="node16" class="node"><title>Node16</title>
<polygon fill="none" stroke="#bfbfbf" points="1066,-6.5 1066,-25.5 1128,-25.5 1128,-6.5 1066,-6.5"/>
<text text-anchor="middle" x="1097" y="-13.5" font-family="Helvetica,sans-Serif" font-size="10.00">type_traits</text>
</g>
<!-- Node1&#45;&gt;Node16 -->
<g id="edge31" class="edge"><title>Node1&#45;&gt;Node16</title>
<path fill="none" stroke="midnightblue" d="M866.584,-236.996C843.848,-196.565 808.187,-116.484 849,-68 879.209,-32.1129 1011.73,-44.2894 1057,-32 1060.22,-31.1256 1063.55,-30.0952 1066.84,-28.9905"/>
<polygon fill="midnightblue" stroke="midnightblue" points="1068.25,-32.2034 1076.48,-25.5359 1065.89,-25.6134 1068.25,-32.2034"/>
</g>
<!-- Node17 -->
<g id="node17" class="node"><title>Node17</title>
<polygon fill="none" stroke="#bfbfbf" points="1146,-6.5 1146,-25.5 1186,-25.5 1186,-6.5 1146,-6.5"/>
<text text-anchor="middle" x="1166" y="-13.5" font-family="Helvetica,sans-Serif" font-size="10.00">utility</text>
</g>
<!-- Node1&#45;&gt;Node17 -->
<g id="edge34" class="edge"><title>Node1&#45;&gt;Node17</title>
<path fill="none" stroke="midnightblue" d="M873.58,-236.925C861.596,-196.029 845.374,-114.844 887,-68 924.137,-26.2077 1082.65,-48.7151 1136,-32 1137.92,-31.3994 1139.86,-30.6882 1141.79,-29.9072"/>
<polygon fill="midnightblue" stroke="midnightblue" points="1143.51,-32.9691 1151.13,-25.6087 1140.59,-26.6102 1143.51,-32.9691"/>
</g>
<!-- Node18 -->
<g id="node18" class="node"><title>Node18</title>
<polygon fill="none" stroke="#bfbfbf" points="1204,-6.5 1204,-25.5 1248,-25.5 1248,-6.5 1204,-6.5"/>
<text text-anchor="middle" x="1226" y="-13.5" font-family="Helvetica,sans-Serif" font-size="10.00">vector</text>
</g>
<!-- Node1&#45;&gt;Node18 -->
<g id="edge28" class="edge"><title>Node1&#45;&gt;Node18</title>
<path fill="none" stroke="midnightblue" d="M888.911,-236.954C894.813,-219.315 904.796,-196.072 920,-180 941.432,-157.344 1128.72,-64.5387 1199.27,-30.0159"/>
<polygon fill="midnightblue" stroke="midnightblue" points="1200.97,-33.0796 1208.42,-25.5447 1197.9,-26.7902 1200.97,-33.0796"/>
</g>
<!-- Node23 -->
<g id="node23" class="node"><title>Node23</title>
<polygon fill="none" stroke="#bfbfbf" points="929,-180.5 929,-199.5 985,-199.5 985,-180.5 929,-180.5"/>
<text text-anchor="middle" x="957" y="-187.5" font-family="Helvetica,sans-Serif" font-size="10.00">TChain.h</text>
</g>
<!-- Node1&#45;&gt;Node23 -->
<g id="edge24" class="edge"><title>Node1&#45;&gt;Node23</title>
<path fill="none" stroke="midnightblue" d="M908.653,-236.768C919.204,-226.78 931.009,-215.605 940.312,-206.798"/>
<polygon fill="midnightblue" stroke="midnightblue" points="942.894,-209.174 947.749,-199.757 938.081,-204.09 942.894,-209.174"/>
</g>
<!-- Node24 -->
<g id="node24" class="node"><title>Node24</title>
<polygon fill="none" stroke="#bfbfbf" points="1003,-180.5 1003,-199.5 1053,-199.5 1053,-180.5 1003,-180.5"/>
<text text-anchor="middle" x="1028" y="-187.5" font-family="Helvetica,sans-Serif" font-size="10.00">TTree.h</text>
</g>
<!-- Node1&#45;&gt;Node24 -->
<g id="edge25" class="edge"><title>Node1&#45;&gt;Node24</title>
<path fill="none" stroke="midnightblue" d="M933.474,-236.968C956.265,-225.885 982.131,-213.306 1001.04,-204.112"/>
<polygon fill="midnightblue" stroke="midnightblue" points="1002.77,-207.16 1010.24,-199.639 999.712,-200.865 1002.77,-207.16"/>
</g>
<!-- Node25 -->
<g id="node25" class="node"><title>Node25</title>
<polygon fill="none" stroke="#bfbfbf" points="1071,-180.5 1071,-199.5 1133,-199.5 1133,-180.5 1071,-180.5"/>
<text text-anchor="middle" x="1102" y="-187.5" font-family="Helvetica,sans-Serif" font-size="10.00">TBranch.h</text>
</g>
<!-- Node1&#45;&gt;Node25 -->
<g id="edge26" class="edge"><title>Node1&#45;&gt;Node25</title>
<path fill="none" stroke="midnightblue" d="M944.749,-241.749C983.997,-229.083 1033.15,-213.219 1065.96,-202.631"/>
<polygon fill="midnightblue" stroke="midnightblue" points="1067.15,-205.926 1075.59,-199.524 1065,-199.265 1067.15,-205.926"/>
</g>
<!-- Node26 -->
<g id="node26" class="node"><title>Node26</title>
<polygon fill="none" stroke="#bfbfbf" points="1151,-180.5 1151,-199.5 1207,-199.5 1207,-180.5 1151,-180.5"/>
<text text-anchor="middle" x="1179" y="-187.5" font-family="Helvetica,sans-Serif" font-size="10.00">TClass.h</text>
</g>
<!-- Node1&#45;&gt;Node26 -->
<g id="edge27" class="edge"><title>Node1&#45;&gt;Node26</title>
<path fill="none" stroke="midnightblue" d="M944.623,-247.029C1004.05,-232.824 1091.42,-211.936 1140.99,-200.086"/>
<polygon fill="midnightblue" stroke="midnightblue" points="1142.06,-203.43 1150.97,-197.701 1140.43,-196.622 1142.06,-203.43"/>
</g>
<!-- Node27 -->
<g id="node27" class="node"><title>Node27</title>
<polygon fill="none" stroke="#bfbfbf" points="1225.5,-180.5 1225.5,-199.5 1284.5,-199.5 1284.5,-180.5 1225.5,-180.5"/>
<text text-anchor="middle" x="1255" y="-187.5" font-family="Helvetica,sans-Serif" font-size="10.00">functional</text>
</g>
<!-- Node1&#45;&gt;Node27 -->
<g id="edge33" class="edge"><title>Node1&#45;&gt;Node27</title>
<path fill="none" stroke="midnightblue" d="M944.738,-251.038C1011.78,-239.156 1121.11,-219.296 1215,-200 1215.1,-199.979 1215.21,-199.957 1215.31,-199.935"/>
<polygon fill="midnightblue" stroke="midnightblue" points="1216.27,-203.311 1225.32,-197.807 1214.81,-196.464 1216.27,-203.311"/>
</g>
<!-- Node3 -->
<g id="node3" class="node"><title>Node3</title>
<g id="a_node3"><a xlink:href="../../dc/dcd/DataHeader_8h.html" target="_top" xlink:title="Headers/DataHeader.h">
<polygon fill="none" stroke="black" points="223.5,-124.5 223.5,-143.5 340.5,-143.5 340.5,-124.5 223.5,-124.5"/>
<text text-anchor="middle" x="282" y="-131.5" font-family="Helvetica,sans-Serif" font-size="10.00">Headers/DataHeader.h</text>
</a>
</g>
</g>
<!-- Node2&#45;&gt;Node3 -->
<g id="edge2" class="edge"><title>Node2&#45;&gt;Node3</title>
<path fill="none" stroke="midnightblue" d="M393.084,-180.444C371.264,-171.517 336.85,-157.439 312.108,-147.317"/>
<polygon fill="midnightblue" stroke="midnightblue" points="313.399,-144.063 302.818,-143.516 310.748,-150.542 313.399,-144.063"/>
</g>
<!-- Node22 -->
<g id="node22" class="node"><title>Node22</title>
<g id="a_node22"><a xlink:href="../../dc/dca/Lifetime_8h.html" target="_top" xlink:title="Framework/Lifetime.h">
<polygon fill="none" stroke="black" points="358.5,-124.5 358.5,-143.5 469.5,-143.5 469.5,-124.5 358.5,-124.5"/>
<text text-anchor="middle" x="414" y="-131.5" font-family="Helvetica,sans-Serif" font-size="10.00">Framework/Lifetime.h</text>
</a>
</g>
</g>
<!-- Node2&#45;&gt;Node22 -->
<g id="edge23" class="edge"><title>Node2&#45;&gt;Node22</title>
<path fill="none" stroke="midnightblue" d="M414,-180.083C414,-173.006 414,-162.861 414,-153.986"/>
<polygon fill="midnightblue" stroke="midnightblue" points="417.5,-153.751 414,-143.751 410.5,-153.751 417.5,-153.751"/>
</g>
<!-- Node4 -->
<g id="node4" class="node"><title>Node4</title>
<polygon fill="none" stroke="#bfbfbf" points="310,-68.5 310,-87.5 356,-87.5 356,-68.5 310,-68.5"/>
<text text-anchor="middle" x="333" y="-75.5" font-family="Helvetica,sans-Serif" font-size="10.00">cstdint</text>
</g>
<!-- Node3&#45;&gt;Node4 -->
<g id="edge3" class="edge"><title>Node3&#45;&gt;Node4</title>
<path fill="none" stroke="midnightblue" d="M290.422,-124.083C297.848,-116.22 308.852,-104.569 317.812,-95.0813"/>
<polygon fill="midnightblue" stroke="midnightblue" points="320.413,-97.4244 324.735,-87.7511 315.324,-92.618 320.413,-97.4244"/>
</g>
<!-- Node3&#45;&gt;Node5 -->
<g id="edge4" class="edge"><title>Node3&#45;&gt;Node5</title>
<path fill="none" stroke="midnightblue" d="M250.943,-124.444C215.917,-114.793 159.035,-99.122 122.07,-88.9377"/>
<polygon fill="midnightblue" stroke="midnightblue" points="122.778,-85.5022 112.207,-86.2203 120.918,-92.2508 122.778,-85.5022"/>
</g>
<!-- Node6 -->
<g id="node6" class="node"><title>Node6</title>
<polygon fill="none" stroke="#bfbfbf" points="204.5,-68.5 204.5,-87.5 253.5,-87.5 253.5,-68.5 204.5,-68.5"/>
<text text-anchor="middle" x="229" y="-75.5" font-family="Helvetica,sans-Serif" font-size="10.00">cassert</text>
</g>
<!-- Node3&#45;&gt;Node6 -->
<g id="edge5" class="edge"><title>Node3&#45;&gt;Node6</title>
<path fill="none" stroke="midnightblue" d="M273.248,-124.083C265.53,-116.22 254.095,-104.569 244.783,-95.0813"/>
<polygon fill="midnightblue" stroke="midnightblue" points="247.092,-92.4363 237.589,-87.7511 242.096,-97.3396 247.092,-92.4363"/>
</g>
<!-- Node7 -->
<g id="node7" class="node"><title>Node7</title>
<polygon fill="none" stroke="#bfbfbf" points="0,-6.5 0,-25.5 46,-25.5 46,-6.5 0,-6.5"/>
<text text-anchor="middle" x="23" y="-13.5" font-family="Helvetica,sans-Serif" font-size="10.00">cstring</text>
</g>
<!-- Node3&#45;&gt;Node7 -->
<g id="edge6" class="edge"><title>Node3&#45;&gt;Node7</title>
<path fill="none" stroke="midnightblue" d="M282.028,-124.334C281.569,-110.252 278.478,-82.5176 262,-68 191.934,-6.26865 144.064,-60.0651 55,-32 52.8604,-31.3258 50.6792,-30.5382 48.5119,-29.6833"/>
<polygon fill="midnightblue" stroke="midnightblue" points="49.8371,-26.4429 39.2721,-25.6482 47.0356,-32.8579 49.8371,-26.4429"/>
</g>
<!-- Node8 -->
<g id="node8" class="node"><title>Node8</title>
<polygon fill="none" stroke="#bfbfbf" points="130,-68.5 130,-87.5 186,-87.5 186,-68.5 130,-68.5"/>
<text text-anchor="middle" x="158" y="-75.5" font-family="Helvetica,sans-Serif" font-size="10.00">algorithm</text>
</g>
<!-- Node3&#45;&gt;Node8 -->
<g id="edge7" class="edge"><title>Node3&#45;&gt;Node8</title>
<path fill="none" stroke="midnightblue" d="M262.352,-124.444C242.035,-115.596 210.097,-101.687 186.902,-91.5865"/>
<polygon fill="midnightblue" stroke="midnightblue" points="188.122,-88.3002 177.556,-87.5164 185.327,-94.7181 188.122,-88.3002"/>
</g>
<!-- Node3&#45;&gt;Node9 -->
<g id="edge8" class="edge"><title>Node3&#45;&gt;Node9</title>
<path fill="none" stroke="midnightblue" d="M340.81,-124.969C343.577,-124.632 346.318,-124.307 349,-124 513.901,-105.1 559.263,-114.699 727.34,-87.8899"/>
<polygon fill="midnightblue" stroke="midnightblue" points="727.955,-91.3361 737.27,-86.287 726.839,-84.4255 727.955,-91.3361"/>
</g>
<!-- Node3&#45;&gt;Node10 -->
<g id="edge9" class="edge"><title>Node3&#45;&gt;Node10</title>
<path fill="none" stroke="midnightblue" d="M309.057,-124.478C340.544,-113.199 385.739,-91.9261 365,-68 328.092,-25.421 167.664,-49.1843 114,-32 112.138,-31.4036 110.25,-30.6956 108.379,-29.9167"/>
<polygon fill="midnightblue" stroke="midnightblue" points="109.876,-26.7528 99.3412,-25.6226 106.871,-33.0755 109.876,-26.7528"/>
</g>
<!-- Node11 -->
<g id="node11" class="node"><title>Node11</title>
<g id="a_node11"><a xlink:href="../../dc/d03/MemoryResources_8h.html" target="_top" xlink:title="MemoryResources/MemoryResources.h">
<polygon fill="none" stroke="black" points="526.5,-68.5 526.5,-87.5 719.5,-87.5 719.5,-68.5 526.5,-68.5"/>
<text text-anchor="middle" x="623" y="-75.5" font-family="Helvetica,sans-Serif" font-size="10.00">MemoryResources/MemoryResources.h</text>
</a>
</g>
</g>
<!-- Node3&#45;&gt;Node11 -->
<g id="edge10" class="edge"><title>Node3&#45;&gt;Node11</title>
<path fill="none" stroke="midnightblue" d="M336.032,-124.444C396.641,-114.846 494.862,-99.2916 559.197,-89.1037"/>
<polygon fill="midnightblue" stroke="midnightblue" points="559.891,-92.5375 569.22,-87.5164 558.796,-85.6237 559.891,-92.5375"/>
</g>
<!-- Node11&#45;&gt;Node7 -->
<g id="edge15" class="edge"><title>Node11&#45;&gt;Node7</title>
<path fill="none" stroke="midnightblue" d="M526.449,-73.526C388.279,-67.8423 141.305,-54.8387 55,-32 52.6478,-31.3775 50.2565,-30.588 47.8946,-29.698"/>
<polygon fill="midnightblue" stroke="midnightblue" points="49.0945,-26.4037 38.5268,-25.6455 46.3151,-32.8283 49.0945,-26.4037"/>
</g>
<!-- Node11&#45;&gt;Node10 -->
<g id="edge16" class="edge"><title>Node11&#45;&gt;Node10</title>
<path fill="none" stroke="midnightblue" d="M526.298,-68.9246C381.408,-56.7586 123.777,-34.8406 114,-32 112.081,-31.4425 110.141,-30.7542 108.222,-29.9815"/>
<polygon fill="midnightblue" stroke="midnightblue" points="109.532,-26.73 98.9946,-25.632 106.548,-33.0618 109.532,-26.73"/>
</g>
<!-- Node12 -->
<g id="node12" class="node"><title>Node12</title>
<polygon fill="none" stroke="#bfbfbf" points="640,-1 640,-31 740,-31 740,-1 640,-1"/>
<text text-anchor="start" x="648" y="-19" font-family="Helvetica,sans-Serif" font-size="10.00">boost/container/flat</text>
<text text-anchor="middle" x="690" y="-8" font-family="Helvetica,sans-Serif" font-size="10.00">_map.hpp</text>
</g>
<!-- Node11&#45;&gt;Node12 -->
<g id="edge11" class="edge"><title>Node11&#45;&gt;Node12</title>
<path fill="none" stroke="midnightblue" d="M632.599,-68.4035C641.419,-60.5051 654.851,-48.4768 666.504,-38.0409"/>
<polygon fill="midnightblue" stroke="midnightblue" points="669.095,-40.4194 674.209,-31.1408 664.425,-35.2047 669.095,-40.4194"/>
</g>
<!-- Node13 -->
<g id="node13" class="node"><title>Node13</title>
<polygon fill="none" stroke="#bfbfbf" points="758,-1 758,-31 874,-31 874,-1 758,-1"/>
<text text-anchor="start" x="766" y="-19" font-family="Helvetica,sans-Serif" font-size="10.00">boost/container/pmr</text>
<text text-anchor="middle" x="816" y="-8" font-family="Helvetica,sans-Serif" font-size="10.00">/memory_resource.hpp</text>
</g>
<!-- Node11&#45;&gt;Node13 -->
<g id="edge12" class="edge"><title>Node11&#45;&gt;Node13</title>
<path fill="none" stroke="midnightblue" d="M650.652,-68.4035C679.33,-59.4882 724.933,-45.311 760.99,-34.1014"/>
<polygon fill="midnightblue" stroke="midnightblue" points="762.375,-37.3363 770.885,-31.0253 760.297,-30.6518 762.375,-37.3363"/>
</g>
<!-- Node14 -->
<g id="node14" class="node"><title>Node14</title>
<polygon fill="none" stroke="#bfbfbf" points="892,-1 892,-31 1048,-31 1048,-1 892,-1"/>
<text text-anchor="start" x="900" y="-19" font-family="Helvetica,sans-Serif" font-size="10.00">boost/container/pmr</text>
<text text-anchor="middle" x="970" y="-8" font-family="Helvetica,sans-Serif" font-size="10.00">/monotonic_buffer_resource.hpp</text>
</g>
<!-- Node11&#45;&gt;Node14 -->
<g id="edge13" class="edge"><title>Node11&#45;&gt;Node14</title>
<path fill="none" stroke="midnightblue" d="M672.348,-68.4672C726.719,-59.0658 815.25,-43.7579 881.653,-32.2761"/>
<polygon fill="midnightblue" stroke="midnightblue" points="882.439,-35.6922 891.697,-30.5395 881.247,-28.7946 882.439,-35.6922"/>
</g>
<!-- Node15 -->
<g id="node15" class="node"><title>Node15</title>
<polygon fill="none" stroke="#bfbfbf" points="123.5,-1 123.5,-31 256.5,-31 256.5,-1 123.5,-1"/>
<text text-anchor="start" x="131.5" y="-19" font-family="Helvetica,sans-Serif" font-size="10.00">boost/container/pmr</text>
<text text-anchor="middle" x="190" y="-8" font-family="Helvetica,sans-Serif" font-size="10.00">/polymorphic_allocator.hpp</text>
</g>
<!-- Node11&#45;&gt;Node15 -->
<g id="edge14" class="edge"><title>Node11&#45;&gt;Node15</title>
<path fill="none" stroke="midnightblue" d="M541.716,-68.4794C471.341,-60.7122 366.612,-48.2218 266.586,-32.195"/>
<polygon fill="midnightblue" stroke="midnightblue" points="267.041,-28.7232 256.611,-30.5822 265.924,-35.6334 267.041,-28.7232"/>
</g>
<!-- Node11&#45;&gt;Node16 -->
<g id="edge17" class="edge"><title>Node11&#45;&gt;Node16</title>
<path fill="none" stroke="midnightblue" d="M717.426,-68.4991C835.139,-57.7008 1024.85,-39.562 1057,-32 1060.5,-31.1768 1064.11,-30.1277 1067.66,-28.9676"/>
<polygon fill="midnightblue" stroke="midnightblue" points="1069.13,-32.1583 1077.37,-25.5001 1066.78,-25.5657 1069.13,-32.1583"/>
</g>
<!-- Node11&#45;&gt;Node17 -->
<g id="edge18" class="edge"><title>Node11&#45;&gt;Node17</title>
<path fill="none" stroke="midnightblue" d="M719.517,-68.6461C867.436,-55.8279 1133.52,-32.7022 1136,-32 1137.98,-31.4415 1139.98,-30.7524 1141.96,-29.9792"/>
<polygon fill="midnightblue" stroke="midnightblue" points="1143.85,-32.9637 1151.49,-25.6287 1140.94,-26.5952 1143.85,-32.9637"/>
</g>
<!-- Node11&#45;&gt;Node18 -->
<g id="edge19" class="edge"><title>Node11&#45;&gt;Node18</title>
<path fill="none" stroke="midnightblue" d="M719.688,-68.6811C722.489,-68.4501 725.265,-68.2227 728,-68 935.485,-51.1108 994.03,-86.2806 1195,-32 1197.34,-31.3686 1199.71,-30.5616 1202.05,-29.6503"/>
<polygon fill="midnightblue" stroke="midnightblue" points="1203.61,-32.7869 1211.3,-25.5 1200.75,-26.4002 1203.61,-32.7869"/>
</g>
<!-- Node19 -->
<g id="node19" class="node"><title>Node19</title>
<polygon fill="none" stroke="#bfbfbf" points="274.5,-6.5 274.5,-25.5 357.5,-25.5 357.5,-6.5 274.5,-6.5"/>
<text text-anchor="middle" x="316" y="-13.5" font-family="Helvetica,sans-Serif" font-size="10.00">unordered_map</text>
</g>
<!-- Node11&#45;&gt;Node19 -->
<g id="edge20" class="edge"><title>Node11&#45;&gt;Node19</title>
<path fill="none" stroke="midnightblue" d="M562.613,-68.4885C510.27,-60.621 432.67,-47.779 366,-32 361.513,-30.9381 356.835,-29.7059 352.219,-28.4129"/>
<polygon fill="midnightblue" stroke="midnightblue" points="352.89,-24.9631 342.31,-25.5281 350.933,-31.684 352.89,-24.9631"/>
</g>
<!-- Node20 -->
<g id="node20" class="node"><title>Node20</title>
<polygon fill="none" stroke="#bfbfbf" points="375.5,-6.5 375.5,-25.5 472.5,-25.5 472.5,-6.5 375.5,-6.5"/>
<text text-anchor="middle" x="424" y="-13.5" font-family="Helvetica,sans-Serif" font-size="10.00">FairMQMessage.h</text>
</g>
<!-- Node11&#45;&gt;Node20 -->
<g id="edge21" class="edge"><title>Node11&#45;&gt;Node20</title>
<path fill="none" stroke="midnightblue" d="M594.488,-68.4035C559.762,-57.9331 500.963,-40.2049 462.308,-28.5501"/>
<polygon fill="midnightblue" stroke="midnightblue" points="463.044,-25.1164 452.459,-25.5806 461.023,-31.8184 463.044,-25.1164"/>
</g>
<!-- Node21 -->
<g id="node21" class="node"><title>Node21</title>
<polygon fill="none" stroke="#bfbfbf" points="490.5,-6.5 490.5,-25.5 621.5,-25.5 621.5,-6.5 490.5,-6.5"/>
<text text-anchor="middle" x="556" y="-13.5" font-family="Helvetica,sans-Serif" font-size="10.00">FairMQTransportFactory.h</text>
</g>
<!-- Node11&#45;&gt;Node21 -->
<g id="edge22" class="edge"><title>Node11&#45;&gt;Node21</title>
<path fill="none" stroke="midnightblue" d="M613.401,-68.4035C602.952,-59.047 586.032,-43.8948 573.264,-32.4599"/>
<polygon fill="midnightblue" stroke="midnightblue" points="575.366,-29.6445 565.582,-25.5806 570.696,-34.8592 575.366,-29.6445"/>
</g>
</g>
</svg>
        <g id="navigator" transform="translate(0 0)" fill="#404254">
                <rect fill="#f2f5e9" fill-opacity="0.5" stroke="#606060" stroke-width=".5" x="0" y="0" width="60" height="60"/>
                <use id="zoomplus" xlink:href="#zoomPlus" x="17" y="9" onmousedown="handleZoom(evt,'in')"/>
                <use id="zoomminus" xlink:href="#zoomMin" x="42" y="9" onmousedown="handleZoom(evt,'out')"/>
                <use id="reset" xlink:href="#resetDef" x="30" y="36" onmousedown="handleReset()"/>
                <g id="arrowUp" xlink:href="#dirArrow" transform="translate(30 24)" onmousedown="handlePan(0,-1)">
                  <use xlink:href="#rim" fill="#404040">
                        <set attributeName="fill" to="#808080" begin="arrowUp.mouseover" end="arrowUp.mouseout"/>
                  </use>
                  <path fill="none" stroke="white" stroke-width="1.5" d="M0,-3.0v7 M-2.5,-0.5L0,-3.0L2.5,-0.5"/>
                </g>
                <g id="arrowRight" xlink:href="#dirArrow" transform="rotate(90) translate(36 -43)" onmousedown="handlePan(1,0)">
                  <use xlink:href="#rim" fill="#404040">
                        <set attributeName="fill" to="#808080" begin="arrowRight.mouseover" end="arrowRight.mouseout"/>
                  </use>
                  <path fill="none" stroke="white" stroke-width="1.5" d="M0,-3.0v7 M-2.5,-0.5L0,-3.0L2.5,-0.5"/>
                </g>
                <g id="arrowDown" xlink:href="#dirArrow" transform="rotate(180) translate(-30 -48)" onmousedown="handlePan(0,1)">
                  <use xlink:href="#rim" fill="#404040">
                        <set attributeName="fill" to="#808080" begin="arrowDown.mouseover" end="arrowDown.mouseout"/>
                  </use>
                  <path fill="none" stroke="white" stroke-width="1.5" d="M0,-3.0v7 M-2.5,-0.5L0,-3.0L2.5,-0.5"/>
                </g>
                <g id="arrowLeft" xlink:href="#dirArrow" transform="rotate(270) translate(-36 17)" onmousedown="handlePan(-1,0)">
                  <use xlink:href="#rim" fill="#404040">
                        <set attributeName="fill" to="#808080" begin="arrowLeft.mouseover" end="arrowLeft.mouseout"/>
                  </use>
                  <path fill="none" stroke="white" stroke-width="1.5" d="M0,-3.0v7 M-2.5,-0.5L0,-3.0L2.5,-0.5"/>
                </g>
        </g>
        <svg viewBox="0 0 15 15" width="100%" height="30px" preserveAspectRatio="xMaxYMin meet">
         <g id="arrow_out" transform="scale(0.3 0.3)">
          <a xlink:href="RootTreeReader_8h__incl_org.svg" target="_base">
           <rect id="button" ry="5" rx="5" y="6" x="6" height="38" width="38"
                fill="#f2f5e9" fill-opacity="0.5" stroke="#606060" stroke-width="1.0"/>
           <path id="arrow"
             d="M 11.500037,31.436501 C 11.940474,20.09759 22.043105,11.32322 32.158766,21.979434 L 37.068811,17.246167 C 37.068811,17.246167 37.088388,32 37.088388,32 L 22.160133,31.978069 C 22.160133,31.978069 26.997745,27.140456 26.997745,27.140456 C 18.528582,18.264221 13.291696,25.230495 11.500037,31.436501 z"
             style="fill:#404040;"/>
          </a>
         </g>
        </svg>
</svg>
