<?xml version="1.0" encoding="UTF-8" standalone="no"?>
<!DOCTYPE svg PUBLIC "-//W3C//DTD SVG 1.1//EN"
 "http://www.w3.org/Graphics/SVG/1.1/DTD/svg11.dtd">
<!-- Generated by graphviz version 2.36.0 (20140111.2315)
 -->
<!-- Title: /home/travis/build/AliceO2Group/AliceO2/Framework/Core/src/DataProcessor.cxx Pages: 1 -->
<!--zoomable 230 -->
<svg id="main" version="1.1" xmlns="http://www.w3.org/2000/svg" xmlns:xlink="http://www.w3.org/1999/xlink" xml:space="preserve" onload="init(evt)">
<style type="text/css"><![CDATA[
.edge:hover path { stroke: red; }
.edge:hover polygon { stroke: red; fill: red; }
]]></style>
<script type="text/javascript"><![CDATA[
var edges = document.getElementsByTagName('g');
if (edges && edges.length) {
  for (var i=0;i<edges.length;i++) {
    if (edges[i].id.substr(0,4)=='edge') {
      edges[i].setAttribute('class','edge');
    }
  }
}
]]></script>
        <defs>
                <circle id="rim" cx="0" cy="0" r="7"/>
                <circle id="rim2" cx="0" cy="0" r="3.5"/>
                <g id="zoomPlus">
                        <use xlink:href="#rim" fill="#404040">
                                <set attributeName="fill" to="#808080" begin="zoomplus.mouseover" end="zoomplus.mouseout"/>
                        </use>
                        <path d="M-4,0h8M0,-4v8" fill="none" stroke="white" stroke-width="1.5" pointer-events="none"/>
                </g>
                <g id="zoomMin">
                        <use xlink:href="#rim" fill="#404040">
                                <set attributeName="fill" to="#808080" begin="zoomminus.mouseover" end="zoomminus.mouseout"/>
                        </use>
                        <path d="M-4,0h8" fill="none" stroke="white" stroke-width="1.5" pointer-events="none"/>
                </g>
                <g id="dirArrow">
                        <path fill="none" stroke="white" stroke-width="1.5" d="M0,-3.0v7 M-2.5,-0.5L0,-3.0L2.5,-0.5"/>
                </g>
               <g id="resetDef">
                       <use xlink:href="#rim2" fill="#404040">
                               <set attributeName="fill" to="#808080" begin="reset.mouseover" end="reset.mouseout"/>
                       </use>
               </g>
        </defs>

<script type="text/javascript">
var viewWidth = 1784;
var viewHeight = 230;
var sectionId = 'dynsection-0';
</script>
<script xlink:href="../../svgpan.js"/>
<svg id="graph" class="graph">
<g id="viewport">
<title>/home/travis/build/AliceO2Group/AliceO2/Framework/Core/src/DataProcessor.cxx</title>
<!-- Node1 -->
<g id="node1" class="node"><title>Node1</title>
<polygon fill="#bfbfbf" stroke="black" points="421,-180.5 421,-221.5 617,-221.5 617,-180.5 421,-180.5"/>
<text text-anchor="start" x="429" y="-209.5" font-family="Helvetica,sans-Serif" font-size="10.00">/home/travis/build</text>
<text text-anchor="start" x="429" y="-198.5" font-family="Helvetica,sans-Serif" font-size="10.00">/AliceO2Group/AliceO2</text>
<text text-anchor="middle" x="519" y="-187.5" font-family="Helvetica,sans-Serif" font-size="10.00">/Framework/Core/src/DataProcessor.cxx</text>
</g>
<!-- Node2 -->
<g id="node2" class="node"><title>Node2</title>
<g id="a_node2"><a xlink:href="../../d9/df0/DataProcessor_8h.html" target="_top" xlink:title="Framework/DataProcessor.h">
<polygon fill="none" stroke="black" points="0,-124.5 0,-143.5 142,-143.5 142,-124.5 0,-124.5"/>
<text text-anchor="middle" x="71" y="-131.5" font-family="Helvetica,sans-Serif" font-size="10.00">Framework/DataProcessor.h</text>
</a>
</g>
</g>
<!-- Node1&#45;&gt;Node2 -->
<g id="edge1" class="edge"><title>Node1&#45;&gt;Node2</title>
<path fill="none" stroke="midnightblue" d="M420.961,-185.776C335.987,-173.447 215.18,-155.919 140.024,-145.015"/>
<polygon fill="midnightblue" stroke="midnightblue" points="140.129,-141.493 129.73,-143.521 139.124,-148.421 140.129,-141.493"/>
</g>
<!-- Node3 -->
<g id="node3" class="node"><title>Node3</title>
<g id="a_node3"><a xlink:href="../../d2/d80/RootObjectContext_8h.html" target="_top" xlink:title="Framework/RootObjectContext.h">
<polygon fill="none" stroke="black" points="160.5,-124.5 160.5,-143.5 321.5,-143.5 321.5,-124.5 160.5,-124.5"/>
<text text-anchor="middle" x="241" y="-131.5" font-family="Helvetica,sans-Serif" font-size="10.00">Framework/RootObjectContext.h</text>
</a>
</g>
</g>
<!-- Node1&#45;&gt;Node3 -->
<g id="edge2" class="edge"><title>Node1&#45;&gt;Node3</title>
<path fill="none" stroke="midnightblue" d="M435.591,-180.498C387.083,-169.156 327.761,-155.286 287.459,-145.863"/>
<polygon fill="midnightblue" stroke="midnightblue" points="288.175,-142.436 277.641,-143.567 286.581,-149.252 288.175,-142.436"/>
</g>
<!-- Node8 -->
<g id="node8" class="node"><title>Node8</title>
<g id="a_node8"><a xlink:href="../../dc/dc4/MessageContext_8h.html" target="_top" xlink:title="Framework/MessageContext.h">
<polygon fill="none" stroke="black" points="339.5,-124.5 339.5,-143.5 490.5,-143.5 490.5,-124.5 339.5,-124.5"/>
<text text-anchor="middle" x="415" y="-131.5" font-family="Helvetica,sans-Serif" font-size="10.00">Framework/MessageContext.h</text>
</a>
</g>
</g>
<!-- Node1&#45;&gt;Node8 -->
<g id="edge7" class="edge"><title>Node1&#45;&gt;Node8</title>
<path fill="none" stroke="midnightblue" d="M487.797,-180.498C471.698,-170.436 452.416,-158.385 437.742,-149.214"/>
<polygon fill="midnightblue" stroke="midnightblue" points="439.179,-145.985 428.844,-143.652 435.469,-151.921 439.179,-145.985"/>
</g>
<!-- Node9 -->
<g id="node9" class="node"><title>Node9</title>
<polygon fill="none" stroke="#bfbfbf" points="386,-68.5 386,-87.5 496,-87.5 496,-68.5 386,-68.5"/>
<text text-anchor="middle" x="441" y="-75.5" font-family="Helvetica,sans-Serif" font-size="10.00">fairmq/FairMQParts.h</text>
</g>
<!-- Node1&#45;&gt;Node9 -->
<g id="edge43" class="edge"><title>Node1&#45;&gt;Node9</title>
<path fill="none" stroke="midnightblue" d="M517.358,-180.481C515.213,-164.23 510.286,-141.072 499,-124 490.599,-111.292 477.398,-100.641 465.712,-92.8958"/>
<polygon fill="midnightblue" stroke="midnightblue" points="467.508,-89.8913 457.174,-87.5539 463.795,-95.8254 467.508,-89.8913"/>
</g>
<!-- Node10 -->
<g id="node10" class="node"><title>Node10</title>
<g id="a_node10"><a xlink:href="../../d8/d3c/TMessageSerializer_8h.html" target="_top" xlink:title="Framework/TMessageSerializer.h">
<polygon fill="none" stroke="black" points="1219.5,-124.5 1219.5,-143.5 1382.5,-143.5 1382.5,-124.5 1219.5,-124.5"/>
<text text-anchor="middle" x="1301" y="-131.5" font-family="Helvetica,sans-Serif" font-size="10.00">Framework/TMessageSerializer.h</text>
</a>
</g>
</g>
<!-- Node1&#45;&gt;Node10 -->
<g id="edge12" class="edge"><title>Node1&#45;&gt;Node10</title>
<path fill="none" stroke="midnightblue" d="M617.249,-191.834C769.729,-179.159 1061.19,-154.933 1209.47,-142.608"/>
<polygon fill="midnightblue" stroke="midnightblue" points="1209.79,-146.094 1219.46,-141.778 1209.21,-139.118 1209.79,-146.094"/>
</g>
<!-- Node19 -->
<g id="node19" class="node"><title>Node19</title>
<g id="a_node19"><a xlink:href="../../dc/dcd/DataHeader_8h.html" target="_top" xlink:title="Headers/DataHeader.h">
<polygon fill="none" stroke="black" points="617.5,-124.5 617.5,-143.5 734.5,-143.5 734.5,-124.5 617.5,-124.5"/>
<text text-anchor="middle" x="676" y="-131.5" font-family="Helvetica,sans-Serif" font-size="10.00">Headers/DataHeader.h</text>
</a>
</g>
</g>
<!-- Node1&#45;&gt;Node19 -->
<g id="edge22" class="edge"><title>Node1&#45;&gt;Node19</title>
<path fill="none" stroke="midnightblue" d="M566.105,-180.498C591.912,-169.813 623.139,-156.885 645.7,-147.545"/>
<polygon fill="midnightblue" stroke="midnightblue" points="647.2,-150.712 655.101,-143.652 644.523,-144.244 647.2,-150.712"/>
</g>
<!-- Node34 -->
<g id="node34" class="node"><title>Node34</title>
<polygon fill="none" stroke="#bfbfbf" points="1401,-124.5 1401,-143.5 1519,-143.5 1519,-124.5 1401,-124.5"/>
<text text-anchor="middle" x="1460" y="-131.5" font-family="Helvetica,sans-Serif" font-size="10.00">fairmq/FairMQDevice.h</text>
</g>
<!-- Node1&#45;&gt;Node34 -->
<g id="edge44" class="edge"><title>Node1&#45;&gt;Node34</title>
<path fill="none" stroke="midnightblue" d="M617.248,-195.794C776.989,-188.488 1103.16,-171.631 1390.72,-143.952"/>
<polygon fill="midnightblue" stroke="midnightblue" points="1391.32,-147.411 1400.93,-142.963 1390.64,-140.444 1391.32,-147.411"/>
</g>
<!-- Node4 -->
<g id="node4" class="node"><title>Node4</title>
<polygon fill="none" stroke="#bfbfbf" points="230,-6.5 230,-25.5 274,-25.5 274,-6.5 230,-6.5"/>
<text text-anchor="middle" x="252" y="-13.5" font-family="Helvetica,sans-Serif" font-size="10.00">vector</text>
</g>
<!-- Node3&#45;&gt;Node4 -->
<g id="edge3" class="edge"><title>Node3&#45;&gt;Node4</title>
<path fill="none" stroke="midnightblue" d="M229.084,-124.471C213.957,-112.511 190.857,-89.7738 200,-68 206.164,-53.3208 218.843,-40.7443 230.138,-31.7531"/>
<polygon fill="midnightblue" stroke="midnightblue" points="232.457,-34.3893 238.374,-25.6008 228.268,-28.7812 232.457,-34.3893"/>
</g>
<!-- Node5 -->
<g id="node5" class="node"><title>Node5</title>
<polygon fill="none" stroke="#bfbfbf" points="280.5,-68.5 280.5,-87.5 329.5,-87.5 329.5,-68.5 280.5,-68.5"/>
<text text-anchor="middle" x="305" y="-75.5" font-family="Helvetica,sans-Serif" font-size="10.00">cassert</text>
</g>
<!-- Node3&#45;&gt;Node5 -->
<g id="edge4" class="edge"><title>Node3&#45;&gt;Node5</title>
<path fill="none" stroke="midnightblue" d="M251.283,-124.324C260.836,-116.263 275.28,-104.077 286.784,-94.3695"/>
<polygon fill="midnightblue" stroke="midnightblue" points="289.144,-96.9577 294.53,-87.8339 284.63,-91.6076 289.144,-96.9577"/>
</g>
<!-- Node6 -->
<g id="node6" class="node"><title>Node6</title>
<polygon fill="none" stroke="#bfbfbf" points="360.5,-6.5 360.5,-25.5 401.5,-25.5 401.5,-6.5 360.5,-6.5"/>
<text text-anchor="middle" x="381" y="-13.5" font-family="Helvetica,sans-Serif" font-size="10.00">string</text>
</g>
<!-- Node3&#45;&gt;Node6 -->
<g id="edge5" class="edge"><title>Node3&#45;&gt;Node6</title>
<path fill="none" stroke="midnightblue" d="M242.95,-124.308C246.414,-110.683 254.843,-84.1846 271,-68 292.992,-45.9704 326.28,-32.3742 350.476,-24.8189"/>
<polygon fill="midnightblue" stroke="midnightblue" points="351.628,-28.1285 360.23,-21.9438 349.649,-21.4141 351.628,-28.1285"/>
</g>
<!-- Node7 -->
<g id="node7" class="node"><title>Node7</title>
<polygon fill="none" stroke="#bfbfbf" points="1018,-68.5 1018,-87.5 1070,-87.5 1070,-68.5 1018,-68.5"/>
<text text-anchor="middle" x="1044" y="-75.5" font-family="Helvetica,sans-Serif" font-size="10.00">memory</text>
</g>
<!-- Node3&#45;&gt;Node7 -->
<g id="edge6" class="edge"><title>Node3&#45;&gt;Node7</title>
<path fill="none" stroke="midnightblue" d="M321.515,-124.684C324.378,-124.444 327.213,-124.215 330,-124 627.925,-101.052 708.496,-133.121 1007.47,-87.9189"/>
<polygon fill="midnightblue" stroke="midnightblue" points="1008.39,-91.3196 1017.74,-86.3486 1007.33,-84.4 1008.39,-91.3196"/>
</g>
<!-- Node8&#45;&gt;Node4 -->
<g id="edge9" class="edge"><title>Node8&#45;&gt;Node4</title>
<path fill="none" stroke="midnightblue" d="M340.699,-124.48C315.592,-118.12 289.315,-107.089 271,-88 257.636,-74.0706 253.431,-51.81 252.228,-35.9291"/>
<polygon fill="midnightblue" stroke="midnightblue" points="255.715,-35.5458 251.794,-25.7032 248.721,-35.8426 255.715,-35.5458"/>
</g>
<!-- Node8&#45;&gt;Node5 -->
<g id="edge10" class="edge"><title>Node8&#45;&gt;Node5</title>
<path fill="none" stroke="midnightblue" d="M397.327,-124.324C379.606,-115.625 352.097,-102.12 331.712,-92.113"/>
<polygon fill="midnightblue" stroke="midnightblue" points="333.149,-88.9195 322.63,-87.6545 330.064,-95.2031 333.149,-88.9195"/>
</g>
<!-- Node8&#45;&gt;Node6 -->
<g id="edge11" class="edge"><title>Node8&#45;&gt;Node6</title>
<path fill="none" stroke="midnightblue" d="M404.286,-124.305C395.062,-116.069 382.409,-102.789 377,-88 370.782,-70.9992 372.999,-50.1816 376.028,-35.4964"/>
<polygon fill="midnightblue" stroke="midnightblue" points="379.467,-36.1654 378.377,-25.6268 372.657,-34.5448 379.467,-36.1654"/>
</g>
<!-- Node8&#45;&gt;Node9 -->
<g id="edge8" class="edge"><title>Node8&#45;&gt;Node9</title>
<path fill="none" stroke="midnightblue" d="M419.293,-124.083C422.852,-116.691 428.022,-105.953 432.424,-96.8111"/>
<polygon fill="midnightblue" stroke="midnightblue" points="435.602,-98.2795 436.787,-87.7511 429.295,-95.2427 435.602,-98.2795"/>
</g>
<!-- Node10&#45;&gt;Node7 -->
<g id="edge20" class="edge"><title>Node10&#45;&gt;Node7</title>
<path fill="none" stroke="midnightblue" d="M1256.01,-124.442C1213.36,-116.195 1147.27,-103.067 1080.21,-87.9632"/>
<polygon fill="midnightblue" stroke="midnightblue" points="1080.84,-84.5167 1070.31,-85.7207 1079.29,-91.3437 1080.84,-84.5167"/>
</g>
<!-- Node11 -->
<g id="node11" class="node"><title>Node11</title>
<polygon fill="none" stroke="#bfbfbf" points="1408.5,-68.5 1408.5,-87.5 1535.5,-87.5 1535.5,-68.5 1408.5,-68.5"/>
<text text-anchor="middle" x="1472" y="-75.5" font-family="Helvetica,sans-Serif" font-size="10.00">fairmq/FairMQMessage.h</text>
</g>
<!-- Node10&#45;&gt;Node11 -->
<g id="edge13" class="edge"><title>Node10&#45;&gt;Node11</title>
<path fill="none" stroke="midnightblue" d="M1328.1,-124.444C1356.99,-115.32 1402.92,-100.813 1435.11,-90.6509"/>
<polygon fill="midnightblue" stroke="midnightblue" points="1436.55,-93.8654 1445.03,-87.5164 1434.44,-87.1903 1436.55,-93.8654"/>
</g>
<!-- Node12 -->
<g id="node12" class="node"><title>Node12</title>
<polygon fill="none" stroke="#bfbfbf" points="1553.5,-68.5 1553.5,-87.5 1600.5,-87.5 1600.5,-68.5 1553.5,-68.5"/>
<text text-anchor="middle" x="1577" y="-75.5" font-family="Helvetica,sans-Serif" font-size="10.00">TList.h</text>
</g>
<!-- Node10&#45;&gt;Node12 -->
<g id="edge14" class="edge"><title>Node10&#45;&gt;Node12</title>
<path fill="none" stroke="midnightblue" d="M1354.35,-124.432C1401.54,-116.558 1472.45,-104.007 1543.28,-88.0067"/>
<polygon fill="midnightblue" stroke="midnightblue" points="1544.3,-91.3638 1553.27,-85.7262 1542.74,-84.5393 1544.3,-91.3638"/>
</g>
<!-- Node13 -->
<g id="node13" class="node"><title>Node13</title>
<polygon fill="none" stroke="#bfbfbf" points="1618.5,-68.5 1618.5,-87.5 1689.5,-87.5 1689.5,-68.5 1618.5,-68.5"/>
<text text-anchor="middle" x="1654" y="-75.5" font-family="Helvetica,sans-Serif" font-size="10.00">TMessage.h</text>
</g>
<!-- Node10&#45;&gt;Node13 -->
<g id="edge15" class="edge"><title>Node10&#45;&gt;Node13</title>
<path fill="none" stroke="midnightblue" d="M1366.35,-124.462C1426.55,-116.367 1518.59,-103.412 1608.11,-88.0763"/>
<polygon fill="midnightblue" stroke="midnightblue" points="1608.91,-91.4906 1618.17,-86.3416 1607.72,-84.5925 1608.91,-91.4906"/>
</g>
<!-- Node14 -->
<g id="node14" class="node"><title>Node14</title>
<polygon fill="none" stroke="#bfbfbf" points="1707.5,-68.5 1707.5,-87.5 1776.5,-87.5 1776.5,-68.5 1707.5,-68.5"/>
<text text-anchor="middle" x="1742" y="-75.5" font-family="Helvetica,sans-Serif" font-size="10.00">TObjArray.h</text>
</g>
<!-- Node10&#45;&gt;Node14 -->
<g id="edge16" class="edge"><title>Node10&#45;&gt;Node14</title>
<path fill="none" stroke="midnightblue" d="M1382.58,-124.619C1475.99,-114.876 1624.43,-98.917 1697.28,-87.9469"/>
<polygon fill="midnightblue" stroke="midnightblue" points="1698.12,-91.3587 1707.47,-86.3659 1697.05,-84.4415 1698.12,-91.3587"/>
</g>
<!-- Node15 -->
<g id="node15" class="node"><title>Node15</title>
<polygon fill="none" stroke="#bfbfbf" points="1088.5,-68.5 1088.5,-87.5 1175.5,-87.5 1175.5,-68.5 1088.5,-68.5"/>
<text text-anchor="middle" x="1132" y="-75.5" font-family="Helvetica,sans-Serif" font-size="10.00">TStreamerInfo.h</text>
</g>
<!-- Node10&#45;&gt;Node15 -->
<g id="edge17" class="edge"><title>Node10&#45;&gt;Node15</title>
<path fill="none" stroke="midnightblue" d="M1274.22,-124.444C1245.67,-115.32 1200.27,-100.813 1168.46,-90.6509"/>
<polygon fill="midnightblue" stroke="midnightblue" points="1169.24,-87.2262 1158.65,-87.5164 1167.11,-93.8941 1169.24,-87.2262"/>
</g>
<!-- Node16 -->
<g id="node16" class="node"><title>Node16</title>
<polygon fill="none" stroke="#bfbfbf" points="1193.5,-68.5 1193.5,-87.5 1256.5,-87.5 1256.5,-68.5 1193.5,-68.5"/>
<text text-anchor="middle" x="1225" y="-75.5" font-family="Helvetica,sans-Serif" font-size="10.00">gsl/gsl_util</text>
</g>
<!-- Node10&#45;&gt;Node16 -->
<g id="edge18" class="edge"><title>Node10&#45;&gt;Node16</title>
<path fill="none" stroke="midnightblue" d="M1288.79,-124.324C1277.22,-116.107 1259.62,-103.602 1245.84,-93.8069"/>
<polygon fill="midnightblue" stroke="midnightblue" points="1247.61,-90.7729 1237.43,-87.8339 1243.56,-96.4791 1247.61,-90.7729"/>
</g>
<!-- Node17 -->
<g id="node17" class="node"><title>Node17</title>
<polygon fill="none" stroke="#bfbfbf" points="1274.5,-68.5 1274.5,-87.5 1327.5,-87.5 1327.5,-68.5 1274.5,-68.5"/>
<text text-anchor="middle" x="1301" y="-75.5" font-family="Helvetica,sans-Serif" font-size="10.00">gsl/span</text>
</g>
<!-- Node10&#45;&gt;Node17 -->
<g id="edge19" class="edge"><title>Node10&#45;&gt;Node17</title>
<path fill="none" stroke="midnightblue" d="M1301,-124.083C1301,-117.006 1301,-106.861 1301,-97.9865"/>
<polygon fill="midnightblue" stroke="midnightblue" points="1304.5,-97.751 1301,-87.7511 1297.5,-97.7511 1304.5,-97.751"/>
</g>
<!-- Node18 -->
<g id="node18" class="node"><title>Node18</title>
<polygon fill="none" stroke="#bfbfbf" points="1346,-68.5 1346,-87.5 1390,-87.5 1390,-68.5 1346,-68.5"/>
<text text-anchor="middle" x="1368" y="-75.5" font-family="Helvetica,sans-Serif" font-size="10.00">mutex</text>
</g>
<!-- Node10&#45;&gt;Node18 -->
<g id="edge21" class="edge"><title>Node10&#45;&gt;Node18</title>
<path fill="none" stroke="midnightblue" d="M1311.76,-124.324C1321.77,-116.263 1336.89,-104.077 1348.93,-94.3695"/>
<polygon fill="midnightblue" stroke="midnightblue" points="1351.45,-96.8343 1357.04,-87.8339 1347.06,-91.3841 1351.45,-96.8343"/>
</g>
<!-- Node19&#45;&gt;Node5 -->
<g id="edge25" class="edge"><title>Node19&#45;&gt;Node5</title>
<path fill="none" stroke="midnightblue" d="M617.214,-124.444C539.022,-113.062 403.29,-93.3064 339.72,-84.0536"/>
<polygon fill="midnightblue" stroke="midnightblue" points="340.196,-80.5861 329.796,-82.6092 339.188,-87.5131 340.196,-80.5861"/>
</g>
<!-- Node19&#45;&gt;Node6 -->
<g id="edge29" class="edge"><title>Node19&#45;&gt;Node6</title>
<path fill="none" stroke="midnightblue" d="M676.046,-124.313C675.614,-110.201 672.56,-82.4232 656,-68 580.625,-2.352 531.584,-53.6459 434,-32 426.619,-30.3627 418.742,-28.306 411.379,-26.2452"/>
<polygon fill="midnightblue" stroke="midnightblue" points="412.331,-22.8771 401.752,-23.4713 410.392,-29.6034 412.331,-22.8771"/>
</g>
<!-- Node19&#45;&gt;Node7 -->
<g id="edge24" class="edge"><title>Node19&#45;&gt;Node7</title>
<path fill="none" stroke="midnightblue" d="M734.69,-127.177C799.33,-120.292 906.487,-107.49 1007.62,-88.0766"/>
<polygon fill="midnightblue" stroke="midnightblue" points="1008.55,-91.4606 1017.7,-86.1151 1007.22,-84.5894 1008.55,-91.4606"/>
</g>
<!-- Node20 -->
<g id="node20" class="node"><title>Node20</title>
<polygon fill="none" stroke="#bfbfbf" points="954,-68.5 954,-87.5 1000,-87.5 1000,-68.5 954,-68.5"/>
<text text-anchor="middle" x="977" y="-75.5" font-family="Helvetica,sans-Serif" font-size="10.00">cstdint</text>
</g>
<!-- Node19&#45;&gt;Node20 -->
<g id="edge23" class="edge"><title>Node19&#45;&gt;Node20</title>
<path fill="none" stroke="midnightblue" d="M734.615,-124.881C789.127,-116.923 872.461,-103.72 944,-88 944.102,-87.9777 944.203,-87.9553 944.305,-87.9327"/>
<polygon fill="midnightblue" stroke="midnightblue" points="945.097,-91.3422 953.994,-85.5895 943.451,-84.5384 945.097,-91.3422"/>
</g>
<!-- Node21 -->
<g id="node21" class="node"><title>Node21</title>
<polygon fill="none" stroke="#bfbfbf" points="443,-6.5 443,-25.5 489,-25.5 489,-6.5 443,-6.5"/>
<text text-anchor="middle" x="466" y="-13.5" font-family="Helvetica,sans-Serif" font-size="10.00">cstring</text>
</g>
<!-- Node19&#45;&gt;Node21 -->
<g id="edge26" class="edge"><title>Node19&#45;&gt;Node21</title>
<path fill="none" stroke="midnightblue" d="M681.918,-124.346C690.398,-110.773 703.565,-84.3444 690,-68 634.553,-1.19093 580.633,-58.6376 498,-32 495.865,-31.3117 493.687,-30.5141 491.522,-29.6523"/>
<polygon fill="midnightblue" stroke="midnightblue" points="492.85,-26.4131 482.286,-25.6046 490.04,-32.8244 492.85,-26.4131"/>
</g>
<!-- Node22 -->
<g id="node22" class="node"><title>Node22</title>
<polygon fill="none" stroke="#bfbfbf" points="514,-68.5 514,-87.5 570,-87.5 570,-68.5 514,-68.5"/>
<text text-anchor="middle" x="542" y="-75.5" font-family="Helvetica,sans-Serif" font-size="10.00">algorithm</text>
</g>
<!-- Node19&#45;&gt;Node22 -->
<g id="edge27" class="edge"><title>Node19&#45;&gt;Node22</title>
<path fill="none" stroke="midnightblue" d="M654.767,-124.444C632.616,-115.517 597.681,-101.439 572.564,-91.3168"/>
<polygon fill="midnightblue" stroke="midnightblue" points="573.717,-88.0079 563.133,-87.5164 571.1,-94.5006 573.717,-88.0079"/>
</g>
<!-- Node23 -->
<g id="node23" class="node"><title>Node23</title>
<polygon fill="none" stroke="#bfbfbf" points="588.5,-68.5 588.5,-87.5 647.5,-87.5 647.5,-68.5 588.5,-68.5"/>
<text text-anchor="middle" x="618" y="-75.5" font-family="Helvetica,sans-Serif" font-size="10.00">stdexcept</text>
</g>
<!-- Node19&#45;&gt;Node23 -->
<g id="edge28" class="edge"><title>Node19&#45;&gt;Node23</title>
<path fill="none" stroke="midnightblue" d="M666.681,-124.324C658.107,-116.341 645.188,-104.313 634.812,-94.6529"/>
<polygon fill="midnightblue" stroke="midnightblue" points="637.192,-92.0865 627.488,-87.8339 632.422,-97.2098 637.192,-92.0865"/>
</g>
<!-- Node24 -->
<g id="node24" class="node"><title>Node24</title>
<g id="a_node24"><a xlink:href="../../dc/d03/MemoryResources_8h.html" target="_top" xlink:title="MemoryResources/MemoryResources.h">
<polygon fill="none" stroke="black" points="742.5,-68.5 742.5,-87.5 935.5,-87.5 935.5,-68.5 742.5,-68.5"/>
<text text-anchor="middle" x="839" y="-75.5" font-family="Helvetica,sans-Serif" font-size="10.00">MemoryResources/MemoryResources.h</text>
</a>
</g>
</g>
<!-- Node19&#45;&gt;Node24 -->
<g id="edge30" class="edge"><title>Node19&#45;&gt;Node24</title>
<path fill="none" stroke="midnightblue" d="M701.828,-124.444C729.249,-115.359 772.777,-100.939 803.432,-90.7831"/>
<polygon fill="midnightblue" stroke="midnightblue" points="804.901,-93.9837 813.293,-87.5164 802.7,-87.3389 804.901,-93.9837"/>
</g>
<!-- Node24&#45;&gt;Node4 -->
<g id="edge39" class="edge"><title>Node24&#45;&gt;Node4</title>
<path fill="none" stroke="midnightblue" d="M742.065,-69.7395C643.465,-61.9604 486.344,-48.4793 351,-32 328.723,-29.2876 303.739,-25.4964 284.442,-22.4042"/>
<polygon fill="midnightblue" stroke="midnightblue" points="284.792,-18.9152 274.361,-20.7695 283.671,-25.825 284.792,-18.9152"/>
</g>
<!-- Node24&#45;&gt;Node6 -->
<g id="edge36" class="edge"><title>Node24&#45;&gt;Node6</title>
<path fill="none" stroke="midnightblue" d="M742.17,-70.7569C659.693,-64.3648 538.316,-52.4119 434,-32 426.58,-30.5481 418.688,-28.5623 411.323,-26.5109"/>
<polygon fill="midnightblue" stroke="midnightblue" points="412.281,-23.1443 401.701,-23.7167 410.328,-29.8666 412.281,-23.1443"/>
</g>
<!-- Node24&#45;&gt;Node21 -->
<g id="edge35" class="edge"><title>Node24&#45;&gt;Node21</title>
<path fill="none" stroke="midnightblue" d="M750.845,-68.4648C665.97,-59.6883 543.919,-45.4419 498,-32 495.715,-31.331 493.386,-30.52 491.081,-29.6256"/>
<polygon fill="midnightblue" stroke="midnightblue" points="492.468,-26.4119 481.902,-25.6282 489.673,-32.8298 492.468,-26.4119"/>
</g>
<!-- Node25 -->
<g id="node25" class="node"><title>Node25</title>
<polygon fill="none" stroke="#bfbfbf" points="1163,-1 1163,-31 1263,-31 1263,-1 1163,-1"/>
<text text-anchor="start" x="1171" y="-19" font-family="Helvetica,sans-Serif" font-size="10.00">boost/container/flat</text>
<text text-anchor="middle" x="1213" y="-8" font-family="Helvetica,sans-Serif" font-size="10.00">_map.hpp</text>
</g>
<!-- Node24&#45;&gt;Node25 -->
<g id="edge31" class="edge"><title>Node24&#45;&gt;Node25</title>
<path fill="none" stroke="midnightblue" d="M913.591,-68.4985C977.441,-60.6996 1071.67,-47.9508 1153,-32 1153.1,-31.98 1153.2,-31.9599 1153.31,-31.9398"/>
<polygon fill="midnightblue" stroke="midnightblue" points="1153.93,-35.3859 1163,-29.9089 1152.49,-28.5348 1153.93,-35.3859"/>
</g>
<!-- Node26 -->
<g id="node26" class="node"><title>Node26</title>
<polygon fill="none" stroke="#bfbfbf" points="1281,-1 1281,-31 1397,-31 1397,-1 1281,-1"/>
<text text-anchor="start" x="1289" y="-19" font-family="Helvetica,sans-Serif" font-size="10.00">boost/container/pmr</text>
<text text-anchor="middle" x="1339" y="-8" font-family="Helvetica,sans-Serif" font-size="10.00">/memory_resource.hpp</text>
</g>
<!-- Node24&#45;&gt;Node26 -->
<g id="edge32" class="edge"><title>Node24&#45;&gt;Node26</title>
<path fill="none" stroke="midnightblue" d="M933.674,-68.4637C1036.14,-59.005 1194.08,-43.7292 1270.72,-32.0487"/>
<polygon fill="midnightblue" stroke="midnightblue" points="1271.65,-35.4453 1280.98,-30.4254 1270.55,-28.5314 1271.65,-35.4453"/>
</g>
<!-- Node27 -->
<g id="node27" class="node"><title>Node27</title>
<polygon fill="none" stroke="#bfbfbf" points="1415,-1 1415,-31 1571,-31 1571,-1 1415,-1"/>
<text text-anchor="start" x="1423" y="-19" font-family="Helvetica,sans-Serif" font-size="10.00">boost/container/pmr</text>
<text text-anchor="middle" x="1493" y="-8" font-family="Helvetica,sans-Serif" font-size="10.00">/monotonic_buffer_resource.hpp</text>
</g>
<!-- Node24&#45;&gt;Node27 -->
<g id="edge33" class="edge"><title>Node24&#45;&gt;Node27</title>
<path fill="none" stroke="midnightblue" d="M935.761,-68.758C938.877,-68.501 941.963,-68.2478 945,-68 1146.1,-51.594 1199.77,-57.0698 1404.66,-31.9591"/>
<polygon fill="midnightblue" stroke="midnightblue" points="1405.35,-35.4001 1414.84,-30.7005 1404.49,-28.4529 1405.35,-35.4001"/>
</g>
<!-- Node28 -->
<g id="node28" class="node"><title>Node28</title>
<polygon fill="none" stroke="#bfbfbf" points="507.5,-1 507.5,-31 640.5,-31 640.5,-1 507.5,-1"/>
<text text-anchor="start" x="515.5" y="-19" font-family="Helvetica,sans-Serif" font-size="10.00">boost/container/pmr</text>
<text text-anchor="middle" x="574" y="-8" font-family="Helvetica,sans-Serif" font-size="10.00">/polymorphic_allocator.hpp</text>
</g>
<!-- Node24&#45;&gt;Node28 -->
<g id="edge34" class="edge"><title>Node24&#45;&gt;Node28</title>
<path fill="none" stroke="midnightblue" d="M801.313,-68.4672C760.99,-59.3375 696.066,-44.6375 645.906,-33.2807"/>
<polygon fill="midnightblue" stroke="midnightblue" points="646.609,-29.8513 636.083,-31.0565 645.063,-36.6785 646.609,-29.8513"/>
</g>
<!-- Node29 -->
<g id="node29" class="node"><title>Node29</title>
<polygon fill="none" stroke="#bfbfbf" points="659,-6.5 659,-25.5 721,-25.5 721,-6.5 659,-6.5"/>
<text text-anchor="middle" x="690" y="-13.5" font-family="Helvetica,sans-Serif" font-size="10.00">type_traits</text>
</g>
<!-- Node24&#45;&gt;Node29 -->
<g id="edge37" class="edge"><title>Node24&#45;&gt;Node29</title>
<path fill="none" stroke="midnightblue" d="M817.652,-68.4035C792.314,-58.2004 749.862,-41.1055 720.929,-29.4544"/>
<polygon fill="midnightblue" stroke="midnightblue" points="721.892,-26.0694 711.308,-25.5806 719.277,-32.5627 721.892,-26.0694"/>
</g>
<!-- Node30 -->
<g id="node30" class="node"><title>Node30</title>
<polygon fill="none" stroke="#bfbfbf" points="739,-6.5 739,-25.5 779,-25.5 779,-6.5 739,-6.5"/>
<text text-anchor="middle" x="759" y="-13.5" font-family="Helvetica,sans-Serif" font-size="10.00">utility</text>
</g>
<!-- Node24&#45;&gt;Node30 -->
<g id="edge38" class="edge"><title>Node24&#45;&gt;Node30</title>
<path fill="none" stroke="midnightblue" d="M827.538,-68.4035C814.825,-58.8688 794.087,-43.3154 778.747,-31.8106"/>
<polygon fill="midnightblue" stroke="midnightblue" points="780.541,-28.7806 770.441,-25.5806 776.341,-34.3806 780.541,-28.7806"/>
</g>
<!-- Node31 -->
<g id="node31" class="node"><title>Node31</title>
<polygon fill="none" stroke="#bfbfbf" points="797.5,-6.5 797.5,-25.5 880.5,-25.5 880.5,-6.5 797.5,-6.5"/>
<text text-anchor="middle" x="839" y="-13.5" font-family="Helvetica,sans-Serif" font-size="10.00">unordered_map</text>
</g>
<!-- Node24&#45;&gt;Node31 -->
<g id="edge40" class="edge"><title>Node24&#45;&gt;Node31</title>
<path fill="none" stroke="midnightblue" d="M839,-68.4035C839,-59.9381 839,-46.7283 839,-35.8199"/>
<polygon fill="midnightblue" stroke="midnightblue" points="842.5,-35.5806 839,-25.5806 835.5,-35.5806 842.5,-35.5806"/>
</g>
<!-- Node32 -->
<g id="node32" class="node"><title>Node32</title>
<polygon fill="none" stroke="#bfbfbf" points="898.5,-6.5 898.5,-25.5 995.5,-25.5 995.5,-6.5 898.5,-6.5"/>
<text text-anchor="middle" x="947" y="-13.5" font-family="Helvetica,sans-Serif" font-size="10.00">FairMQMessage.h</text>
</g>
<!-- Node24&#45;&gt;Node32 -->
<g id="edge41" class="edge"><title>Node24&#45;&gt;Node32</title>
<path fill="none" stroke="midnightblue" d="M854.474,-68.4035C872.278,-58.5123 901.741,-42.1442 922.632,-30.5378"/>
<polygon fill="midnightblue" stroke="midnightblue" points="924.513,-33.4966 931.555,-25.5806 921.114,-27.3775 924.513,-33.4966"/>
</g>
<!-- Node33 -->
<g id="node33" class="node"><title>Node33</title>
<polygon fill="none" stroke="#bfbfbf" points="1013.5,-6.5 1013.5,-25.5 1144.5,-25.5 1144.5,-6.5 1013.5,-6.5"/>
<text text-anchor="middle" x="1079" y="-13.5" font-family="Helvetica,sans-Serif" font-size="10.00">FairMQTransportFactory.h</text>
</g>
<!-- Node24&#45;&gt;Node33 -->
<g id="edge42" class="edge"><title>Node24&#45;&gt;Node33</title>
<path fill="none" stroke="midnightblue" d="M873.131,-68.4672C915.691,-57.8272 988.514,-39.6215 1035.16,-27.9593"/>
<polygon fill="midnightblue" stroke="midnightblue" points="1036.13,-31.3243 1044.99,-25.5034 1034.44,-24.5333 1036.13,-31.3243"/>
</g>
</g>
</svg>
        <g id="navigator" transform="translate(0 0)" fill="#404254">
                <rect fill="#f2f5e9" fill-opacity="0.5" stroke="#606060" stroke-width=".5" x="0" y="0" width="60" height="60"/>
                <use id="zoomplus" xlink:href="#zoomPlus" x="17" y="9" onmousedown="handleZoom(evt,'in')"/>
                <use id="zoomminus" xlink:href="#zoomMin" x="42" y="9" onmousedown="handleZoom(evt,'out')"/>
                <use id="reset" xlink:href="#resetDef" x="30" y="36" onmousedown="handleReset()"/>
                <g id="arrowUp" xlink:href="#dirArrow" transform="translate(30 24)" onmousedown="handlePan(0,-1)">
                  <use xlink:href="#rim" fill="#404040">
                        <set attributeName="fill" to="#808080" begin="arrowUp.mouseover" end="arrowUp.mouseout"/>
                  </use>
                  <path fill="none" stroke="white" stroke-width="1.5" d="M0,-3.0v7 M-2.5,-0.5L0,-3.0L2.5,-0.5"/>
                </g>
                <g id="arrowRight" xlink:href="#dirArrow" transform="rotate(90) translate(36 -43)" onmousedown="handlePan(1,0)">
                  <use xlink:href="#rim" fill="#404040">
                        <set attributeName="fill" to="#808080" begin="arrowRight.mouseover" end="arrowRight.mouseout"/>
                  </use>
                  <path fill="none" stroke="white" stroke-width="1.5" d="M0,-3.0v7 M-2.5,-0.5L0,-3.0L2.5,-0.5"/>
                </g>
                <g id="arrowDown" xlink:href="#dirArrow" transform="rotate(180) translate(-30 -48)" onmousedown="handlePan(0,1)">
                  <use xlink:href="#rim" fill="#404040">
                        <set attributeName="fill" to="#808080" begin="arrowDown.mouseover" end="arrowDown.mouseout"/>
                  </use>
                  <path fill="none" stroke="white" stroke-width="1.5" d="M0,-3.0v7 M-2.5,-0.5L0,-3.0L2.5,-0.5"/>
                </g>
                <g id="arrowLeft" xlink:href="#dirArrow" transform="rotate(270) translate(-36 17)" onmousedown="handlePan(-1,0)">
                  <use xlink:href="#rim" fill="#404040">
                        <set attributeName="fill" to="#808080" begin="arrowLeft.mouseover" end="arrowLeft.mouseout"/>
                  </use>
                  <path fill="none" stroke="white" stroke-width="1.5" d="M0,-3.0v7 M-2.5,-0.5L0,-3.0L2.5,-0.5"/>
                </g>
        </g>
        <svg viewBox="0 0 15 15" width="100%" height="30px" preserveAspectRatio="xMaxYMin meet">
         <g id="arrow_out" transform="scale(0.3 0.3)">
          <a xlink:href="DataProcessor_8cxx__incl_org.svg" target="_base">
           <rect id="button" ry="5" rx="5" y="6" x="6" height="38" width="38"
                fill="#f2f5e9" fill-opacity="0.5" stroke="#606060" stroke-width="1.0"/>
           <path id="arrow"
             d="M 11.500037,31.436501 C 11.940474,20.09759 22.043105,11.32322 32.158766,21.979434 L 37.068811,17.246167 C 37.068811,17.246167 37.088388,32 37.088388,32 L 22.160133,31.978069 C 22.160133,31.978069 26.997745,27.140456 26.997745,27.140456 C 18.528582,18.264221 13.291696,25.230495 11.500037,31.436501 z"
             style="fill:#404040;"/>
          </a>
         </g>
        </svg>
</svg>
