<?xml version="1.0" encoding="UTF-8" standalone="no"?>
<!DOCTYPE svg PUBLIC "-//W3C//DTD SVG 1.1//EN"
 "http://www.w3.org/Graphics/SVG/1.1/DTD/svg11.dtd">
<!-- Generated by graphviz version 2.36.0 (20140111.2315)
 -->
<!-- Title: /home/travis/build/AliceO2Group/AliceO2/DataFormats/Headers/include/Headers/NameHeader.h Pages: 1 -->
<svg width="605pt" height="152pt"
 viewBox="0.00 0.00 605.00 152.00" xmlns="http://www.w3.org/2000/svg" xmlns:xlink="http://www.w3.org/1999/xlink">
<g id="graph0" class="graph" transform="scale(1 1) rotate(0) translate(4 148)">
<title>/home/travis/build/AliceO2Group/AliceO2/DataFormats/Headers/include/Headers/NameHeader.h</title>
<!-- Node1 -->
<g id="node1" class="node"><title>Node1</title>
<polygon fill="#bfbfbf" stroke="black" points="240,-91 240,-143 390,-143 390,-91 240,-91"/>
<text text-anchor="start" x="248" y="-131" font-family="Helvetica,sans-Serif" font-size="10.00">/home/travis/build</text>
<text text-anchor="start" x="248" y="-120" font-family="Helvetica,sans-Serif" font-size="10.00">/AliceO2Group/AliceO2</text>
<text text-anchor="start" x="248" y="-109" font-family="Helvetica,sans-Serif" font-size="10.00">/DataFormats/Headers/include</text>
<text text-anchor="middle" x="315" y="-98" font-family="Helvetica,sans-Serif" font-size="10.00">/Headers/NameHeader.h</text>
</g>
<!-- Node2 -->
<g id="node2" class="node"><title>Node2</title>
<g id="a_node2"><a xlink:href="../../d7/d68/headerstack_8cxx.html" target="_top" xlink:title="Unit test for O2 header stack utilities. ">
<polygon fill="none" stroke="black" points="-0.5,-6.5 -0.5,-47.5 154.5,-47.5 154.5,-6.5 -0.5,-6.5"/>
<text text-anchor="start" x="7.5" y="-35.5" font-family="Helvetica,sans-Serif" font-size="10.00">/home/travis/build</text>
<text text-anchor="start" x="7.5" y="-24.5" font-family="Helvetica,sans-Serif" font-size="10.00">/AliceO2Group/AliceO2</text>
<text text-anchor="middle" x="77" y="-13.5" font-family="Helvetica,sans-Serif" font-size="10.00">/Algorithm/test/headerstack.cxx</text>
</a>
</g>
</g>
<!-- Node1&#45;&gt;Node2 -->
<g id="edge1" class="edge"><title>Node1&#45;&gt;Node2</title>
<path fill="none" stroke="midnightblue" d="M237.347,-87.2881C202.147,-74.273 161.435,-59.2198 129.842,-47.5384"/>
<polygon fill="midnightblue" stroke="midnightblue" points="236.524,-90.7152 247.117,-90.9005 238.952,-84.1496 236.524,-90.7152"/>
</g>
<!-- Node3 -->
<g id="node3" class="node"><title>Node3</title>
<g id="a_node3"><a xlink:href="../../d1/da0/NameHeader_8cxx.html" target="_top" xlink:title="/home/travis/build\l/AliceO2Group/AliceO2\l/DataFormats/Headers/src\l/NameHeader.cxx">
<polygon fill="none" stroke="black" points="172.5,-1 172.5,-53 305.5,-53 305.5,-1 172.5,-1"/>
<text text-anchor="start" x="180.5" y="-41" font-family="Helvetica,sans-Serif" font-size="10.00">/home/travis/build</text>
<text text-anchor="start" x="180.5" y="-30" font-family="Helvetica,sans-Serif" font-size="10.00">/AliceO2Group/AliceO2</text>
<text text-anchor="start" x="180.5" y="-19" font-family="Helvetica,sans-Serif" font-size="10.00">/DataFormats/Headers/src</text>
<text text-anchor="middle" x="239" y="-8" font-family="Helvetica,sans-Serif" font-size="10.00">/NameHeader.cxx</text>
</a>
</g>
</g>
<!-- Node1&#45;&gt;Node3 -->
<g id="edge2" class="edge"><title>Node1&#45;&gt;Node3</title>
<path fill="none" stroke="midnightblue" d="M286.367,-82.8459C277.851,-72.9851 268.665,-62.3492 260.67,-53.0921"/>
<polygon fill="midnightblue" stroke="midnightblue" points="283.833,-85.2662 293.018,-90.5468 289.13,-80.6908 283.833,-85.2662"/>
</g>
<!-- Node4 -->
<g id="node4" class="node"><title>Node4</title>
<g id="a_node4"><a xlink:href="../../da/d5c/testDataHeader_8cxx.html" target="_top" xlink:title="/home/travis/build\l/AliceO2Group/AliceO2\l/DataFormats/Headers/test\l/testDataHeader.cxx">
<polygon fill="none" stroke="black" points="324,-1 324,-53 460,-53 460,-1 324,-1"/>
<text text-anchor="start" x="332" y="-41" font-family="Helvetica,sans-Serif" font-size="10.00">/home/travis/build</text>
<text text-anchor="start" x="332" y="-30" font-family="Helvetica,sans-Serif" font-size="10.00">/AliceO2Group/AliceO2</text>
<text text-anchor="start" x="332" y="-19" font-family="Helvetica,sans-Serif" font-size="10.00">/DataFormats/Headers/test</text>
<text text-anchor="middle" x="392" y="-8" font-family="Helvetica,sans-Serif" font-size="10.00">/testDataHeader.cxx</text>
</a>
</g>
</g>
<!-- Node1&#45;&gt;Node4 -->
<g id="edge3" class="edge"><title>Node1&#45;&gt;Node4</title>
<path fill="none" stroke="midnightblue" d="M344.01,-82.8459C352.638,-72.9851 361.944,-62.3492 370.044,-53.0921"/>
<polygon fill="midnightblue" stroke="midnightblue" points="341.223,-80.7162 337.272,-90.5468 346.491,-85.3257 341.223,-80.7162"/>
</g>
<!-- Node5 -->
<g id="node5" class="node"><title>Node5</title>
<g id="a_node5"><a xlink:href="../../d5/d39/test__O2Device_8cxx.html" target="_top" xlink:title="/home/travis/build\l/AliceO2Group/AliceO2\l/Utilities/O2Device/test\l/test_O2Device.cxx">
<polygon fill="none" stroke="black" points="478.5,-1 478.5,-53 597.5,-53 597.5,-1 478.5,-1"/>
<text text-anchor="start" x="486.5" y="-41" font-family="Helvetica,sans-Serif" font-size="10.00">/home/travis/build</text>
<text text-anchor="start" x="486.5" y="-30" font-family="Helvetica,sans-Serif" font-size="10.00">/AliceO2Group/AliceO2</text>
<text text-anchor="start" x="486.5" y="-19" font-family="Helvetica,sans-Serif" font-size="10.00">/Utilities/O2Device/test</text>
<text text-anchor="middle" x="538" y="-8" font-family="Helvetica,sans-Serif" font-size="10.00">/test_O2Device.cxx</text>
</a>
</g>
</g>
<!-- Node1&#45;&gt;Node5 -->
<g id="edge4" class="edge"><title>Node1&#45;&gt;Node5</title>
<path fill="none" stroke="midnightblue" d="M387.935,-87.2185C417.146,-75.6913 450.384,-62.5748 478.142,-51.621"/>
<polygon fill="midnightblue" stroke="midnightblue" points="386.622,-83.974 378.604,-90.9005 389.191,-90.4854 386.622,-83.974"/>
</g>
</g>
</svg>
