<?xml version="1.0" encoding="UTF-8" standalone="no"?>
<!DOCTYPE svg PUBLIC "-//W3C//DTD SVG 1.1//EN"
 "http://www.w3.org/Graphics/SVG/1.1/DTD/svg11.dtd">
<!-- Generated by graphviz version 2.36.0 (20140111.2315)
 -->
<!-- Title: /home/travis/build/AliceO2Group/AliceO2/Detectors/TOF/simulation/include/TOFSimulation/DigitizerTask.h Pages: 1 -->
<!--zoomable 468 -->
<svg id="main" version="1.1" xmlns="http://www.w3.org/2000/svg" xmlns:xlink="http://www.w3.org/1999/xlink" xml:space="preserve" onload="init(evt)">
<style type="text/css"><![CDATA[
.edge:hover path { stroke: red; }
.edge:hover polygon { stroke: red; fill: red; }
]]></style>
<script type="text/javascript"><![CDATA[
var edges = document.getElementsByTagName('g');
if (edges && edges.length) {
  for (var i=0;i<edges.length;i++) {
    if (edges[i].id.substr(0,4)=='edge') {
      edges[i].setAttribute('class','edge');
    }
  }
}
]]></script>
        <defs>
                <circle id="rim" cx="0" cy="0" r="7"/>
                <circle id="rim2" cx="0" cy="0" r="3.5"/>
                <g id="zoomPlus">
                        <use xlink:href="#rim" fill="#404040">
                                <set attributeName="fill" to="#808080" begin="zoomplus.mouseover" end="zoomplus.mouseout"/>
                        </use>
                        <path d="M-4,0h8M0,-4v8" fill="none" stroke="white" stroke-width="1.5" pointer-events="none"/>
                </g>
                <g id="zoomMin">
                        <use xlink:href="#rim" fill="#404040">
                                <set attributeName="fill" to="#808080" begin="zoomminus.mouseover" end="zoomminus.mouseout"/>
                        </use>
                        <path d="M-4,0h8" fill="none" stroke="white" stroke-width="1.5" pointer-events="none"/>
                </g>
                <g id="dirArrow">
                        <path fill="none" stroke="white" stroke-width="1.5" d="M0,-3.0v7 M-2.5,-0.5L0,-3.0L2.5,-0.5"/>
                </g>
               <g id="resetDef">
                       <use xlink:href="#rim2" fill="#404040">
                               <set attributeName="fill" to="#808080" begin="reset.mouseover" end="reset.mouseout"/>
                       </use>
               </g>
        </defs>

<script type="text/javascript">
var viewWidth = 2326;
var viewHeight = 468;
var sectionId = 'dynsection-0';
</script>
<script xlink:href="../../svgpan.js"/>
<svg id="graph" class="graph">
<g id="viewport">
<title>/home/travis/build/AliceO2Group/AliceO2/Detectors/TOF/simulation/include/TOFSimulation/DigitizerTask.h</title>
<!-- Node1 -->
<g id="node1" class="node"><title>Node1</title>
<polygon fill="#bfbfbf" stroke="black" points="312,-396.5 312,-459.5 470,-459.5 470,-396.5 312,-396.5"/>
<text text-anchor="start" x="320" y="-447.5" font-family="Helvetica,sans-Serif" font-size="10.00">/home/travis/build</text>
<text text-anchor="start" x="320" y="-436.5" font-family="Helvetica,sans-Serif" font-size="10.00">/AliceO2Group/AliceO2</text>
<text text-anchor="start" x="320" y="-425.5" font-family="Helvetica,sans-Serif" font-size="10.00">/Detectors/TOF/simulation</text>
<text text-anchor="start" x="320" y="-414.5" font-family="Helvetica,sans-Serif" font-size="10.00">/include/TOFSimulation/Digitizer</text>
<text text-anchor="middle" x="391" y="-403.5" font-family="Helvetica,sans-Serif" font-size="10.00">Task.h</text>
</g>
<!-- Node2 -->
<g id="node2" class="node"><title>Node2</title>
<polygon fill="none" stroke="#bfbfbf" points="74.5,-340.5 74.5,-359.5 137.5,-359.5 137.5,-340.5 74.5,-340.5"/>
<text text-anchor="middle" x="106" y="-347.5" font-family="Helvetica,sans-Serif" font-size="10.00">FairTask.h</text>
</g>
<!-- Node1&#45;&gt;Node2 -->
<g id="edge1" class="edge"><title>Node1&#45;&gt;Node2</title>
<path fill="none" stroke="midnightblue" d="M311.99,-405.931C258.612,-391.697 190.295,-373.479 147.325,-362.02"/>
<polygon fill="midnightblue" stroke="midnightblue" points="148.064,-358.595 137.5,-359.4 146.261,-365.359 148.064,-358.595"/>
</g>
<!-- Node3 -->
<g id="node3" class="node"><title>Node3</title>
<polygon fill="none" stroke="#bfbfbf" points="0,-74.5 0,-93.5 56,-93.5 56,-74.5 0,-74.5"/>
<text text-anchor="middle" x="28" y="-81.5" font-family="Helvetica,sans-Serif" font-size="10.00">Rtypes.h</text>
</g>
<!-- Node1&#45;&gt;Node3 -->
<g id="edge2" class="edge"><title>Node1&#45;&gt;Node3</title>
<path fill="none" stroke="midnightblue" d="M311.99,-412.26C247.158,-395.059 166,-359.455 166,-289 166,-289 166,-289 166,-219 166,-159.177 98.4263,-117.463 57.8497,-97.8065"/>
<polygon fill="midnightblue" stroke="midnightblue" points="59.2009,-94.5745 48.66,-93.5064 56.2341,-100.915 59.2009,-94.5745"/>
</g>
<!-- Node4 -->
<g id="node4" class="node"><title>Node4</title>
<g id="a_node4"><a xlink:href="../../df/d9c/TOF_2base_2include_2TOFBase_2Digit_8h.html" target="_top" xlink:title="TOFBase/Digit.h">
<polygon fill="none" stroke="black" points="302,-210.5 302,-229.5 392,-229.5 392,-210.5 302,-210.5"/>
<text text-anchor="middle" x="347" y="-217.5" font-family="Helvetica,sans-Serif" font-size="10.00">TOFBase/Digit.h</text>
</a>
</g>
</g>
<!-- Node1&#45;&gt;Node4 -->
<g id="edge3" class="edge"><title>Node1&#45;&gt;Node4</title>
<path fill="none" stroke="midnightblue" d="M384.413,-396.16C375.154,-352.812 358.576,-275.198 350.989,-239.675"/>
<polygon fill="midnightblue" stroke="midnightblue" points="354.374,-238.766 348.862,-229.718 347.528,-240.228 354.374,-238.766"/>
</g>
<!-- Node8 -->
<g id="node8" class="node"><title>Node8</title>
<g id="a_node8"><a xlink:href="../../d5/d3c/TOF_2simulation_2include_2TOFSimulation_2Detector_8h.html" target="_top" xlink:title="TOFSimulation/Detector.h">
<polygon fill="none" stroke="black" points="482.5,-278.5 482.5,-297.5 613.5,-297.5 613.5,-278.5 482.5,-278.5"/>
<text text-anchor="middle" x="548" y="-285.5" font-family="Helvetica,sans-Serif" font-size="10.00">TOFSimulation/Detector.h</text>
</a>
</g>
</g>
<!-- Node1&#45;&gt;Node8 -->
<g id="edge9" class="edge"><title>Node1&#45;&gt;Node8</title>
<path fill="none" stroke="midnightblue" d="M409.717,-396.28C421.682,-378.365 438.411,-356.183 457,-340 475.262,-324.102 499.269,-310.899 518.04,-301.913"/>
<polygon fill="midnightblue" stroke="midnightblue" points="519.723,-304.99 527.32,-297.606 516.776,-298.641 519.723,-304.99"/>
</g>
<!-- Node38 -->
<g id="node38" class="node"><title>Node38</title>
<g id="a_node38"><a xlink:href="../../d0/d85/TOF_2simulation_2include_2TOFSimulation_2Digitizer_8h.html" target="_top" xlink:title="TOFSimulation/Digitizer.h">
<polygon fill="none" stroke="black" points="466.5,-340.5 466.5,-359.5 595.5,-359.5 595.5,-340.5 466.5,-340.5"/>
<text text-anchor="middle" x="531" y="-347.5" font-family="Helvetica,sans-Serif" font-size="10.00">TOFSimulation/Digitizer.h</text>
</a>
</g>
</g>
<!-- Node1&#45;&gt;Node38 -->
<g id="edge46" class="edge"><title>Node1&#45;&gt;Node38</title>
<path fill="none" stroke="midnightblue" d="M447.54,-396.307C467.967,-385.218 489.983,-373.266 506.272,-364.424"/>
<polygon fill="midnightblue" stroke="midnightblue" points="508.027,-367.454 515.146,-359.607 504.687,-361.302 508.027,-367.454"/>
</g>
<!-- Node39 -->
<g id="node39" class="node"><title>Node39</title>
<g id="a_node39"><a xlink:href="../../db/d14/MCTruthContainer_8h.html" target="_top" xlink:title="Definition of a container to keep Monte Carlo truth external to simulation objects. ">
<polygon fill="none" stroke="black" points="1616,-273 1616,-303 1730,-303 1730,-273 1616,-273"/>
<text text-anchor="start" x="1624" y="-291" font-family="Helvetica,sans-Serif" font-size="10.00">SimulationDataFormat</text>
<text text-anchor="middle" x="1673" y="-280" font-family="Helvetica,sans-Serif" font-size="10.00">/MCTruthContainer.h</text>
</a>
</g>
</g>
<!-- Node1&#45;&gt;Node39 -->
<g id="edge59" class="edge"><title>Node1&#45;&gt;Node39</title>
<path fill="none" stroke="midnightblue" d="M470.227,-418.472C703.987,-393.309 1388.03,-319.675 1605.68,-296.247"/>
<polygon fill="midnightblue" stroke="midnightblue" points="1606.12,-299.72 1615.68,-295.17 1605.37,-292.76 1606.12,-299.72"/>
</g>
<!-- Node4&#45;&gt;Node3 -->
<g id="edge7" class="edge"><title>Node4&#45;&gt;Node3</title>
<path fill="none" stroke="midnightblue" d="M320.957,-210.434C295.244,-201.488 255.211,-186.229 223,-168 202.267,-156.267 201.222,-146.822 180,-136 132.289,-111.67 115.414,-118.076 65,-100 62.6022,-99.1403 60.1303,-98.2183 57.655,-97.2696"/>
<polygon fill="midnightblue" stroke="midnightblue" points="58.8277,-93.9697 48.2411,-93.5536 56.2576,-100.481 58.8277,-93.9697"/>
</g>
<!-- Node5 -->
<g id="node5" class="node"><title>Node5</title>
<g id="a_node5"><a xlink:href="../../df/d5d/common_2include_2CommonDataFormat_2TimeStamp_8h.html" target="_top" xlink:title="CommonDataFormat/TimeStamp.h">
<polygon fill="none" stroke="black" points="232,-142.5 232,-161.5 402,-161.5 402,-142.5 232,-142.5"/>
<text text-anchor="middle" x="317" y="-149.5" font-family="Helvetica,sans-Serif" font-size="10.00">CommonDataFormat/TimeStamp.h</text>
</a>
</g>
</g>
<!-- Node4&#45;&gt;Node5 -->
<g id="edge4" class="edge"><title>Node4&#45;&gt;Node5</title>
<path fill="none" stroke="midnightblue" d="M343.078,-210.372C338.566,-200.446 331.034,-183.874 325.221,-171.086"/>
<polygon fill="midnightblue" stroke="midnightblue" points="328.343,-169.496 321.019,-161.841 321.97,-172.393 328.343,-169.496"/>
</g>
<!-- Node6 -->
<g id="node6" class="node"><title>Node6</title>
<polygon fill="none" stroke="#bfbfbf" points="1194.5,-74.5 1194.5,-93.5 1239.5,-93.5 1239.5,-74.5 1194.5,-74.5"/>
<text text-anchor="middle" x="1217" y="-81.5" font-family="Helvetica,sans-Serif" font-size="10.00">iosfwd</text>
</g>
<!-- Node4&#45;&gt;Node6 -->
<g id="edge6" class="edge"><title>Node4&#45;&gt;Node6</title>
<path fill="none" stroke="midnightblue" d="M374.85,-210.48C383.201,-208.138 392.422,-205.761 401,-204 518.294,-179.92 557.917,-215.112 668,-168 688.93,-159.042 686.816,-144.34 708,-136 905.826,-58.1225 979.371,-154.005 1185,-100 1187.49,-99.3454 1190.03,-98.5018 1192.53,-97.549"/>
<polygon fill="midnightblue" stroke="midnightblue" points="1194.04,-100.709 1201.8,-93.5005 1191.24,-94.2934 1194.04,-100.709"/>
</g>
<!-- Node7 -->
<g id="node7" class="node"><title>Node7</title>
<polygon fill="none" stroke="#bfbfbf" points="716.5,-137 716.5,-167 811.5,-167 811.5,-137 716.5,-137"/>
<text text-anchor="start" x="724.5" y="-155" font-family="Helvetica,sans-Serif" font-size="10.00">boost/serialization</text>
<text text-anchor="middle" x="764" y="-144" font-family="Helvetica,sans-Serif" font-size="10.00">/base_object.hpp</text>
</g>
<!-- Node4&#45;&gt;Node7 -->
<g id="edge8" class="edge"><title>Node4&#45;&gt;Node7</title>
<path fill="none" stroke="midnightblue" d="M374.555,-210.477C382.979,-208.107 392.314,-205.716 401,-204 533.178,-177.895 569.402,-191.883 702,-168 703.465,-167.736 704.946,-167.459 706.439,-167.17"/>
<polygon fill="midnightblue" stroke="midnightblue" points="707.305,-170.565 716.393,-165.119 705.893,-163.709 707.305,-170.565"/>
</g>
<!-- Node5&#45;&gt;Node3 -->
<g id="edge5" class="edge"><title>Node5&#45;&gt;Node3</title>
<path fill="none" stroke="midnightblue" d="M259.456,-142.478C207.888,-134.106 130.502,-119.72 65,-100 62.3534,-99.2032 59.6336,-98.2908 56.9277,-97.318"/>
<polygon fill="midnightblue" stroke="midnightblue" points="57.9333,-93.9548 47.3434,-93.6294 55.419,-100.488 57.9333,-93.9548"/>
</g>
<!-- Node9 -->
<g id="node9" class="node"><title>Node9</title>
<g id="a_node9"><a xlink:href="../../d1/d3a/Base_2include_2DetectorsBase_2Detector_8h.html" target="_top" xlink:title="DetectorsBase/Detector.h">
<polygon fill="none" stroke="black" points="1454.5,-210.5 1454.5,-229.5 1585.5,-229.5 1585.5,-210.5 1454.5,-210.5"/>
<text text-anchor="middle" x="1520" y="-217.5" font-family="Helvetica,sans-Serif" font-size="10.00">DetectorsBase/Detector.h</text>
</a>
</g>
</g>
<!-- Node8&#45;&gt;Node9 -->
<g id="edge10" class="edge"><title>Node8&#45;&gt;Node9</title>
<path fill="none" stroke="midnightblue" d="M587.625,-278.428C600.165,-275.997 614.114,-273.584 627,-272 928.141,-234.972 1289.79,-224.757 1444.16,-221.996"/>
<polygon fill="midnightblue" stroke="midnightblue" points="1444.54,-225.49 1454.47,-221.817 1444.42,-218.491 1444.54,-225.49"/>
</g>
<!-- Node26 -->
<g id="node26" class="node"><title>Node26</title>
<g id="a_node26"><a xlink:href="../../d4/d54/Geo_8h.html" target="_top" xlink:title="TOFBase/Geo.h">
<polygon fill="none" stroke="black" points="410,-210.5 410,-229.5 498,-229.5 498,-210.5 410,-210.5"/>
<text text-anchor="middle" x="454" y="-217.5" font-family="Helvetica,sans-Serif" font-size="10.00">TOFBase/Geo.h</text>
</a>
</g>
</g>
<!-- Node8&#45;&gt;Node26 -->
<g id="edge31" class="edge"><title>Node8&#45;&gt;Node26</title>
<path fill="none" stroke="midnightblue" d="M535.711,-278.372C520.229,-267.502 493.395,-248.66 474.719,-235.547"/>
<polygon fill="midnightblue" stroke="midnightblue" points="476.487,-232.512 466.292,-229.63 472.465,-238.241 476.487,-232.512"/>
</g>
<!-- Node27 -->
<g id="node27" class="node"><title>Node27</title>
<g id="a_node27"><a xlink:href="../../d4/d25/BaseHits_8h.html" target="_top" xlink:title="SimulationDataFormat\l/BaseHits.h">
<polygon fill="none" stroke="black" points="516,-205 516,-235 630,-235 630,-205 516,-205"/>
<text text-anchor="start" x="524" y="-223" font-family="Helvetica,sans-Serif" font-size="10.00">SimulationDataFormat</text>
<text text-anchor="middle" x="573" y="-212" font-family="Helvetica,sans-Serif" font-size="10.00">/BaseHits.h</text>
</a>
</g>
</g>
<!-- Node8&#45;&gt;Node27 -->
<g id="edge33" class="edge"><title>Node8&#45;&gt;Node27</title>
<path fill="none" stroke="midnightblue" d="M551.268,-278.372C554.483,-269.886 559.537,-256.542 563.963,-244.858"/>
<polygon fill="midnightblue" stroke="midnightblue" points="567.359,-245.773 567.628,-235.181 560.813,-243.293 567.359,-245.773"/>
</g>
<!-- Node9&#45;&gt;Node3 -->
<g id="edge22" class="edge"><title>Node9&#45;&gt;Node3</title>
<path fill="none" stroke="midnightblue" d="M1454.14,-217.681C1246.38,-213.236 613.416,-197.407 526,-168 502.048,-159.943 502.805,-144.481 479,-136 305.017,-74.0155 244.577,-143.175 65,-100 61.9315,-99.2622 58.7841,-98.3124 55.6829,-97.2493"/>
<polygon fill="midnightblue" stroke="midnightblue" points="56.6779,-93.8829 46.0871,-93.5882 54.1825,-100.423 56.6779,-93.8829"/>
</g>
<!-- Node10 -->
<g id="node10" class="node"><title>Node10</title>
<polygon fill="none" stroke="#bfbfbf" points="1257.5,-74.5 1257.5,-93.5 1292.5,-93.5 1292.5,-74.5 1257.5,-74.5"/>
<text text-anchor="middle" x="1275" y="-81.5" font-family="Helvetica,sans-Serif" font-size="10.00">map</text>
</g>
<!-- Node9&#45;&gt;Node10 -->
<g id="edge11" class="edge"><title>Node9&#45;&gt;Node10</title>
<path fill="none" stroke="midnightblue" d="M1454.47,-216.417C1334.52,-211.013 1089.56,-196.575 1064,-168 1054.52,-157.399 1054.96,-146.98 1064,-136 1116.96,-71.6694 1169.73,-128.585 1248,-100 1249.42,-99.4826 1250.85,-98.8979 1252.27,-98.2669"/>
<polygon fill="midnightblue" stroke="midnightblue" points="1254.04,-101.294 1261.38,-93.6534 1250.88,-95.049 1254.04,-101.294"/>
</g>
<!-- Node11 -->
<g id="node11" class="node"><title>Node11</title>
<polygon fill="none" stroke="#bfbfbf" points="1294,-142.5 1294,-161.5 1338,-161.5 1338,-142.5 1294,-142.5"/>
<text text-anchor="middle" x="1316" y="-149.5" font-family="Helvetica,sans-Serif" font-size="10.00">vector</text>
</g>
<!-- Node9&#45;&gt;Node11 -->
<g id="edge12" class="edge"><title>Node9&#45;&gt;Node11</title>
<path fill="none" stroke="midnightblue" d="M1484.98,-210.48C1449.63,-201.463 1393.73,-186.055 1347,-168 1345.35,-167.363 1343.67,-166.673 1341.99,-165.951"/>
<polygon fill="midnightblue" stroke="midnightblue" points="1343.06,-162.593 1332.51,-161.608 1340.14,-168.956 1343.06,-162.593"/>
</g>
<!-- Node12 -->
<g id="node12" class="node"><title>Node12</title>
<polygon fill="none" stroke="#bfbfbf" points="1411.5,-74.5 1411.5,-93.5 1484.5,-93.5 1484.5,-74.5 1411.5,-74.5"/>
<text text-anchor="middle" x="1448" y="-81.5" font-family="Helvetica,sans-Serif" font-size="10.00">initializer_list</text>
</g>
<!-- Node9&#45;&gt;Node12 -->
<g id="edge13" class="edge"><title>Node9&#45;&gt;Node12</title>
<path fill="none" stroke="midnightblue" d="M1454.49,-213.832C1392.52,-207.422 1305.96,-194 1285,-168 1276.07,-156.928 1276.55,-147.44 1285,-136 1317.32,-92.2365 1350.14,-116.434 1402,-100 1405.3,-98.9534 1408.74,-97.8545 1412.17,-96.7476"/>
<polygon fill="midnightblue" stroke="midnightblue" points="1413.32,-100.055 1421.75,-93.6427 1411.16,-93.396 1413.32,-100.055"/>
</g>
<!-- Node13 -->
<g id="node13" class="node"><title>Node13</title>
<polygon fill="none" stroke="#bfbfbf" points="1356,-142.5 1356,-161.5 1408,-161.5 1408,-142.5 1356,-142.5"/>
<text text-anchor="middle" x="1382" y="-149.5" font-family="Helvetica,sans-Serif" font-size="10.00">memory</text>
</g>
<!-- Node9&#45;&gt;Node13 -->
<g id="edge14" class="edge"><title>Node9&#45;&gt;Node13</title>
<path fill="none" stroke="midnightblue" d="M1501.96,-210.372C1478.3,-199.057 1436.58,-179.105 1409.11,-165.968"/>
<polygon fill="midnightblue" stroke="midnightblue" points="1410.58,-162.788 1400.05,-161.63 1407.56,-169.103 1410.58,-162.788"/>
</g>
<!-- Node14 -->
<g id="node14" class="node"><title>Node14</title>
<polygon fill="none" stroke="#bfbfbf" points="1426.5,-142.5 1426.5,-161.5 1505.5,-161.5 1505.5,-142.5 1426.5,-142.5"/>
<text text-anchor="middle" x="1466" y="-149.5" font-family="Helvetica,sans-Serif" font-size="10.00">FairDetector.h</text>
</g>
<!-- Node9&#45;&gt;Node14 -->
<g id="edge15" class="edge"><title>Node9&#45;&gt;Node14</title>
<path fill="none" stroke="midnightblue" d="M1512.94,-210.372C1504.5,-200.053 1490.18,-182.551 1479.57,-169.585"/>
<polygon fill="midnightblue" stroke="midnightblue" points="1482.27,-167.364 1473.23,-161.841 1476.86,-171.797 1482.27,-167.364"/>
</g>
<!-- Node15 -->
<g id="node15" class="node"><title>Node15</title>
<polygon fill="none" stroke="#bfbfbf" points="1524,-142.5 1524,-161.5 1624,-161.5 1624,-142.5 1524,-142.5"/>
<text text-anchor="middle" x="1574" y="-149.5" font-family="Helvetica,sans-Serif" font-size="10.00">FairRootManager.h</text>
</g>
<!-- Node9&#45;&gt;Node15 -->
<g id="edge16" class="edge"><title>Node9&#45;&gt;Node15</title>
<path fill="none" stroke="midnightblue" d="M1527.06,-210.372C1535.5,-200.053 1549.82,-182.551 1560.43,-169.585"/>
<polygon fill="midnightblue" stroke="midnightblue" points="1563.14,-171.797 1566.77,-161.841 1557.73,-167.364 1563.14,-171.797"/>
</g>
<!-- Node16 -->
<g id="node16" class="node"><title>Node16</title>
<g id="a_node16"><a xlink:href="../../d0/d9a/MaterialManager_8h.html" target="_top" xlink:title="DetectorsBase/MaterialManager.h">
<polygon fill="none" stroke="black" points="1072.5,-142.5 1072.5,-161.5 1237.5,-161.5 1237.5,-142.5 1072.5,-142.5"/>
<text text-anchor="middle" x="1155" y="-149.5" font-family="Helvetica,sans-Serif" font-size="10.00">DetectorsBase/MaterialManager.h</text>
</a>
</g>
</g>
<!-- Node9&#45;&gt;Node16 -->
<g id="edge17" class="edge"><title>Node9&#45;&gt;Node16</title>
<path fill="none" stroke="midnightblue" d="M1472.66,-210.439C1405.92,-198.372 1284.32,-176.384 1212.48,-163.395"/>
<polygon fill="midnightblue" stroke="midnightblue" points="1212.72,-159.881 1202.26,-161.546 1211.48,-166.769 1212.72,-159.881"/>
</g>
<!-- Node18 -->
<g id="node18" class="node"><title>Node18</title>
<polygon fill="none" stroke="#bfbfbf" points="1642.5,-142.5 1642.5,-161.5 1695.5,-161.5 1695.5,-142.5 1642.5,-142.5"/>
<text text-anchor="middle" x="1669" y="-149.5" font-family="Helvetica,sans-Serif" font-size="10.00">cxxabi.h</text>
</g>
<!-- Node9&#45;&gt;Node18 -->
<g id="edge23" class="edge"><title>Node9&#45;&gt;Node18</title>
<path fill="none" stroke="midnightblue" d="M1539.48,-210.372C1565.13,-199.007 1610.46,-178.931 1640.11,-165.796"/>
<polygon fill="midnightblue" stroke="midnightblue" points="1641.79,-168.881 1649.52,-161.63 1638.96,-162.48 1641.79,-168.881"/>
</g>
<!-- Node19 -->
<g id="node19" class="node"><title>Node19</title>
<polygon fill="none" stroke="#bfbfbf" points="1713.5,-142.5 1713.5,-161.5 1764.5,-161.5 1764.5,-142.5 1713.5,-142.5"/>
<text text-anchor="middle" x="1739" y="-149.5" font-family="Helvetica,sans-Serif" font-size="10.00">typeinfo</text>
</g>
<!-- Node9&#45;&gt;Node19 -->
<g id="edge24" class="edge"><title>Node9&#45;&gt;Node19</title>
<path fill="none" stroke="midnightblue" d="M1556.41,-210.447C1593.85,-201.293 1653.64,-185.679 1704,-168 1706.26,-167.205 1708.59,-166.335 1710.91,-165.426"/>
<polygon fill="midnightblue" stroke="midnightblue" points="1712.38,-168.608 1720.29,-161.567 1709.71,-162.134 1712.38,-168.608"/>
</g>
<!-- Node20 -->
<g id="node20" class="node"><title>Node20</title>
<polygon fill="none" stroke="#bfbfbf" points="2256,-142.5 2256,-161.5 2318,-161.5 2318,-142.5 2256,-142.5"/>
<text text-anchor="middle" x="2287" y="-149.5" font-family="Helvetica,sans-Serif" font-size="10.00">type_traits</text>
</g>
<!-- Node9&#45;&gt;Node20 -->
<g id="edge25" class="edge"><title>Node9&#45;&gt;Node20</title>
<path fill="none" stroke="midnightblue" d="M1560.13,-210.422C1572.83,-207.991 1586.95,-205.58 1600,-204 1885.47,-169.431 1964.36,-226.03 2246,-168 2249.9,-167.197 2253.92,-166.092 2257.85,-164.844"/>
<polygon fill="midnightblue" stroke="midnightblue" points="2259.04,-168.137 2267.32,-161.533 2256.73,-161.529 2259.04,-168.137"/>
</g>
<!-- Node21 -->
<g id="node21" class="node"><title>Node21</title>
<polygon fill="none" stroke="#bfbfbf" points="1782.5,-142.5 1782.5,-161.5 1823.5,-161.5 1823.5,-142.5 1782.5,-142.5"/>
<text text-anchor="middle" x="1803" y="-149.5" font-family="Helvetica,sans-Serif" font-size="10.00">string</text>
</g>
<!-- Node9&#45;&gt;Node21 -->
<g id="edge26" class="edge"><title>Node9&#45;&gt;Node21</title>
<path fill="none" stroke="midnightblue" d="M1565.53,-210.498C1632.99,-197.8 1753.64,-174.658 1773,-168 1774.86,-167.361 1776.75,-166.629 1778.63,-165.841"/>
<polygon fill="midnightblue" stroke="midnightblue" points="1780.18,-168.982 1787.77,-161.592 1777.22,-162.634 1780.18,-168.982"/>
</g>
<!-- Node22 -->
<g id="node22" class="node"><title>Node22</title>
<polygon fill="none" stroke="#bfbfbf" points="1841.5,-142.5 1841.5,-161.5 1934.5,-161.5 1934.5,-142.5 1841.5,-142.5"/>
<text text-anchor="middle" x="1888" y="-149.5" font-family="Helvetica,sans-Serif" font-size="10.00">FairMQChannel.h</text>
</g>
<!-- Node9&#45;&gt;Node22 -->
<g id="edge27" class="edge"><title>Node9&#45;&gt;Node22</title>
<path fill="none" stroke="midnightblue" d="M1563.97,-210.499C1575.67,-208.308 1588.3,-206.004 1600,-204 1702.85,-186.383 1729.9,-189.53 1832,-168 1837.42,-166.858 1843.09,-165.514 1848.66,-164.108"/>
<polygon fill="midnightblue" stroke="midnightblue" points="1849.71,-167.452 1858.5,-161.54 1847.94,-160.679 1849.71,-167.452"/>
</g>
<!-- Node23 -->
<g id="node23" class="node"><title>Node23</title>
<polygon fill="none" stroke="#bfbfbf" points="1952.5,-142.5 1952.5,-161.5 2049.5,-161.5 2049.5,-142.5 1952.5,-142.5"/>
<text text-anchor="middle" x="2001" y="-149.5" font-family="Helvetica,sans-Serif" font-size="10.00">FairMQMessage.h</text>
</g>
<!-- Node9&#45;&gt;Node23 -->
<g id="edge28" class="edge"><title>Node9&#45;&gt;Node23</title>
<path fill="none" stroke="midnightblue" d="M1561.83,-210.498C1574.09,-208.183 1587.56,-205.817 1600,-204 1751.67,-181.858 1792.16,-195.265 1943,-168 1948.97,-166.922 1955.22,-165.556 1961.33,-164.091"/>
<polygon fill="midnightblue" stroke="midnightblue" points="1962.54,-167.396 1971.38,-161.563 1960.83,-160.607 1962.54,-167.396"/>
</g>
<!-- Node24 -->
<g id="node24" class="node"><title>Node24</title>
<polygon fill="none" stroke="#bfbfbf" points="2068,-142.5 2068,-161.5 2148,-161.5 2148,-142.5 2068,-142.5"/>
<text text-anchor="middle" x="2108" y="-149.5" font-family="Helvetica,sans-Serif" font-size="10.00">FairMQParts.h</text>
</g>
<!-- Node9&#45;&gt;Node24 -->
<g id="edge29" class="edge"><title>Node9&#45;&gt;Node24</title>
<path fill="none" stroke="midnightblue" d="M1560.97,-210.446C1573.46,-208.075 1587.25,-205.691 1600,-204 1802.41,-177.147 1857.3,-205.549 2058,-168 2063.1,-167.045 2068.43,-165.767 2073.61,-164.357"/>
<polygon fill="midnightblue" stroke="midnightblue" points="2074.71,-167.685 2083.33,-161.536 2072.75,-160.963 2074.71,-167.685"/>
</g>
<!-- Node25 -->
<g id="node25" class="node"><title>Node25</title>
<polygon fill="none" stroke="#bfbfbf" points="2166.5,-142.5 2166.5,-161.5 2237.5,-161.5 2237.5,-142.5 2166.5,-142.5"/>
<text text-anchor="middle" x="2202" y="-149.5" font-family="Helvetica,sans-Serif" font-size="10.00">TMessage.h</text>
</g>
<!-- Node9&#45;&gt;Node25 -->
<g id="edge30" class="edge"><title>Node9&#45;&gt;Node25</title>
<path fill="none" stroke="midnightblue" d="M1560.14,-210.492C1572.84,-208.065 1586.96,-205.638 1600,-204 1846.14,-173.085 1913.54,-215.617 2157,-168 2161.27,-167.164 2165.7,-166.034 2170.04,-164.766"/>
<polygon fill="midnightblue" stroke="midnightblue" points="2171.41,-168.003 2179.87,-161.633 2169.28,-161.333 2171.41,-168.003"/>
</g>
<!-- Node16&#45;&gt;Node3 -->
<g id="edge18" class="edge"><title>Node16&#45;&gt;Node3</title>
<path fill="none" stroke="midnightblue" d="M1072.34,-147.316C820.218,-136.057 77.288,-102.696 65,-100 61.7502,-99.2871 58.4183,-98.3141 55.1493,-97.2038"/>
<polygon fill="midnightblue" stroke="midnightblue" points="56.2668,-93.884 45.6763,-93.583 53.7676,-100.423 56.2668,-93.884"/>
</g>
<!-- Node16&#45;&gt;Node10 -->
<g id="edge19" class="edge"><title>Node16&#45;&gt;Node10</title>
<path fill="none" stroke="midnightblue" d="M1170.81,-142.363C1189.33,-132.242 1220.92,-114.949 1248,-100 1248.82,-99.5465 1249.66,-99.085 1250.5,-98.6185"/>
<polygon fill="midnightblue" stroke="midnightblue" points="1252.54,-101.491 1259.59,-93.5815 1249.14,-95.3684 1252.54,-101.491"/>
</g>
<!-- Node16&#45;&gt;Node12 -->
<g id="edge21" class="edge"><title>Node16&#45;&gt;Node12</title>
<path fill="none" stroke="midnightblue" d="M1204.59,-142.445C1254.73,-133.4 1334.29,-117.971 1402,-100 1405.82,-98.9866 1409.79,-97.8393 1413.72,-96.6415"/>
<polygon fill="midnightblue" stroke="midnightblue" points="1414.84,-99.9576 1423.32,-93.6074 1412.73,-93.2828 1414.84,-99.9576"/>
</g>
<!-- Node17 -->
<g id="node17" class="node"><title>Node17</title>
<polygon fill="none" stroke="#bfbfbf" points="1310.5,-74.5 1310.5,-93.5 1393.5,-93.5 1393.5,-74.5 1310.5,-74.5"/>
<text text-anchor="middle" x="1352" y="-81.5" font-family="Helvetica,sans-Serif" font-size="10.00">unordered_map</text>
</g>
<!-- Node16&#45;&gt;Node17 -->
<g id="edge20" class="edge"><title>Node16&#45;&gt;Node17</title>
<path fill="none" stroke="midnightblue" d="M1180.75,-142.372C1215.58,-130.704 1277.82,-109.851 1316.91,-96.7576"/>
<polygon fill="midnightblue" stroke="midnightblue" points="1318.18,-100.021 1326.55,-93.5259 1315.96,-93.384 1318.18,-100.021"/>
</g>
<!-- Node26&#45;&gt;Node3 -->
<g id="edge32" class="edge"><title>Node26&#45;&gt;Node3</title>
<path fill="none" stroke="midnightblue" d="M452.353,-210.411C448.527,-193.05 437.284,-153.914 411,-136 347.121,-92.4636 140.006,-118.707 65,-100 61.9378,-99.2363 58.7945,-98.2698 55.6958,-97.1967"/>
<polygon fill="midnightblue" stroke="midnightblue" points="56.6933,-93.8309 46.1029,-93.5238 54.1903,-100.368 56.6933,-93.8309"/>
</g>
<!-- Node28 -->
<g id="node28" class="node"><title>Node28</title>
<g id="a_node28"><a xlink:href="../../dd/d76/Cartesian3D_8h.html" target="_top" xlink:title="MathUtils/Cartesian3D.h">
<polygon fill="none" stroke="black" points="534.5,-142.5 534.5,-161.5 659.5,-161.5 659.5,-142.5 534.5,-142.5"/>
<text text-anchor="middle" x="597" y="-149.5" font-family="Helvetica,sans-Serif" font-size="10.00">MathUtils/Cartesian3D.h</text>
</a>
</g>
</g>
<!-- Node27&#45;&gt;Node28 -->
<g id="edge34" class="edge"><title>Node27&#45;&gt;Node28</title>
<path fill="none" stroke="midnightblue" d="M578.208,-204.679C581.765,-194.898 586.509,-181.852 590.34,-171.315"/>
<polygon fill="midnightblue" stroke="midnightblue" points="593.661,-172.422 593.79,-161.828 587.083,-170.03 593.661,-172.422"/>
</g>
<!-- Node28&#45;&gt;Node3 -->
<g id="edge40" class="edge"><title>Node28&#45;&gt;Node3</title>
<path fill="none" stroke="midnightblue" d="M557.575,-142.428C545.559,-140.056 532.28,-137.676 520,-136 319.01,-108.562 262.417,-146.652 65,-100 61.9286,-99.2742 58.7794,-98.3321 55.6771,-97.2735"/>
<polygon fill="midnightblue" stroke="midnightblue" points="56.671,-93.9069 46.0801,-93.6178 54.1792,-100.448 56.671,-93.9069"/>
</g>
<!-- Node28&#45;&gt;Node6 -->
<g id="edge42" class="edge"><title>Node28&#45;&gt;Node6</title>
<path fill="none" stroke="midnightblue" d="M636.02,-142.44C648.14,-140.04 661.578,-137.641 674,-136 899.712,-106.178 964.65,-157.283 1185,-100 1187.49,-99.3516 1190.03,-98.5123 1192.53,-97.562"/>
<polygon fill="midnightblue" stroke="midnightblue" points="1194.04,-100.723 1201.81,-93.5172 1191.24,-94.3062 1194.04,-100.723"/>
</g>
<!-- Node29 -->
<g id="node29" class="node"><title>Node29</title>
<polygon fill="none" stroke="#bfbfbf" points="74.5,-69 74.5,-99 225.5,-99 225.5,-69 74.5,-69"/>
<text text-anchor="start" x="82.5" y="-87" font-family="Helvetica,sans-Serif" font-size="10.00">Math/GenVector/Displacement</text>
<text text-anchor="middle" x="150" y="-76" font-family="Helvetica,sans-Serif" font-size="10.00">Vector3D.h</text>
</g>
<!-- Node28&#45;&gt;Node29 -->
<g id="edge35" class="edge"><title>Node28&#45;&gt;Node29</title>
<path fill="none" stroke="midnightblue" d="M555.931,-142.473C544.34,-140.21 531.699,-137.876 520,-136 397.139,-116.296 362.957,-118.946 235.655,-100.046"/>
<polygon fill="midnightblue" stroke="midnightblue" points="235.921,-96.5464 225.512,-98.5237 234.882,-103.469 235.921,-96.5464"/>
</g>
<!-- Node30 -->
<g id="node30" class="node"><title>Node30</title>
<polygon fill="none" stroke="#bfbfbf" points="244,-74.5 244,-93.5 420,-93.5 420,-74.5 244,-74.5"/>
<text text-anchor="middle" x="332" y="-81.5" font-family="Helvetica,sans-Serif" font-size="10.00">Math/GenVector/PositionVector3D.h</text>
</g>
<!-- Node28&#45;&gt;Node30 -->
<g id="edge36" class="edge"><title>Node28&#45;&gt;Node30</title>
<path fill="none" stroke="midnightblue" d="M562.628,-142.439C514.969,-130.57 428.776,-109.103 376.329,-96.0406"/>
<polygon fill="midnightblue" stroke="midnightblue" points="376.861,-92.5661 366.312,-93.5455 375.169,-99.3586 376.861,-92.5661"/>
</g>
<!-- Node31 -->
<g id="node31" class="node"><title>Node31</title>
<polygon fill="none" stroke="#bfbfbf" points="437.5,-74.5 437.5,-93.5 586.5,-93.5 586.5,-74.5 437.5,-74.5"/>
<text text-anchor="middle" x="512" y="-81.5" font-family="Helvetica,sans-Serif" font-size="10.00">Math/GenVector/Rotation3D.h</text>
</g>
<!-- Node28&#45;&gt;Node31 -->
<g id="edge37" class="edge"><title>Node28&#45;&gt;Node31</title>
<path fill="none" stroke="midnightblue" d="M585.888,-142.372C572.016,-131.6 548.063,-113.002 531.198,-99.9065"/>
<polygon fill="midnightblue" stroke="midnightblue" points="533.16,-96.999 523.115,-93.6305 528.867,-102.528 533.16,-96.999"/>
</g>
<!-- Node32 -->
<g id="node32" class="node"><title>Node32</title>
<polygon fill="none" stroke="#bfbfbf" points="605,-74.5 605,-93.5 761,-93.5 761,-74.5 605,-74.5"/>
<text text-anchor="middle" x="683" y="-81.5" font-family="Helvetica,sans-Serif" font-size="10.00">Math/GenVector/Transform3D.h</text>
</g>
<!-- Node28&#45;&gt;Node32 -->
<g id="edge38" class="edge"><title>Node28&#45;&gt;Node32</title>
<path fill="none" stroke="midnightblue" d="M608.243,-142.372C622.278,-131.6 646.512,-113.002 663.576,-99.9065"/>
<polygon fill="midnightblue" stroke="midnightblue" points="665.952,-102.495 671.754,-93.6305 661.69,-96.9421 665.952,-102.495"/>
</g>
<!-- Node33 -->
<g id="node33" class="node"><title>Node33</title>
<polygon fill="none" stroke="#bfbfbf" points="779,-74.5 779,-93.5 939,-93.5 939,-74.5 779,-74.5"/>
<text text-anchor="middle" x="859" y="-81.5" font-family="Helvetica,sans-Serif" font-size="10.00">Math/GenVector/Translation3D.h</text>
</g>
<!-- Node28&#45;&gt;Node33 -->
<g id="edge39" class="edge"><title>Node28&#45;&gt;Node33</title>
<path fill="none" stroke="midnightblue" d="M630.983,-142.439C678.103,-130.57 763.319,-109.103 815.172,-96.0406"/>
<polygon fill="midnightblue" stroke="midnightblue" points="816.235,-99.3823 825.077,-93.5455 814.525,-92.5944 816.235,-99.3823"/>
</g>
<!-- Node34 -->
<g id="node34" class="node"><title>Node34</title>
<polygon fill="none" stroke="#bfbfbf" points="957,-74.5 957,-93.5 1033,-93.5 1033,-74.5 957,-74.5"/>
<text text-anchor="middle" x="995" y="-81.5" font-family="Helvetica,sans-Serif" font-size="10.00">TGeoMatrix.h</text>
</g>
<!-- Node28&#45;&gt;Node34 -->
<g id="edge41" class="edge"><title>Node28&#45;&gt;Node34</title>
<path fill="none" stroke="midnightblue" d="M638.476,-142.433C649.957,-140.194 662.44,-137.884 674,-136 795.226,-116.248 828.13,-126.778 948,-100 952.232,-99.0546 956.628,-97.8966 960.958,-96.6469"/>
<polygon fill="midnightblue" stroke="midnightblue" points="962.296,-99.8975 970.833,-93.6217 960.246,-93.2045 962.296,-99.8975"/>
</g>
<!-- Node35 -->
<g id="node35" class="node"><title>Node35</title>
<g id="a_node35"><a xlink:href="../../d2/dd0/Cartesian2D_8h.html" target="_top" xlink:title="MathUtils/Cartesian2D.h">
<polygon fill="none" stroke="black" points="1051.5,-74.5 1051.5,-93.5 1176.5,-93.5 1176.5,-74.5 1051.5,-74.5"/>
<text text-anchor="middle" x="1114" y="-81.5" font-family="Helvetica,sans-Serif" font-size="10.00">MathUtils/Cartesian2D.h</text>
</a>
</g>
</g>
<!-- Node28&#45;&gt;Node35 -->
<g id="edge43" class="edge"><title>Node28&#45;&gt;Node35</title>
<path fill="none" stroke="midnightblue" d="M636.841,-142.492C648.753,-140.15 661.871,-137.771 674,-136 836.613,-112.262 879.545,-124.795 1042,-100 1050.08,-98.7674 1058.61,-97.2139 1066.88,-95.5769"/>
<polygon fill="midnightblue" stroke="midnightblue" points="1067.67,-98.9864 1076.77,-93.5547 1066.27,-92.1282 1067.67,-98.9864"/>
</g>
<!-- Node36 -->
<g id="node36" class="node"><title>Node36</title>
<polygon fill="none" stroke="#bfbfbf" points="947.5,-1 947.5,-31 1098.5,-31 1098.5,-1 947.5,-1"/>
<text text-anchor="start" x="955.5" y="-19" font-family="Helvetica,sans-Serif" font-size="10.00">Math/GenVector/Displacement</text>
<text text-anchor="middle" x="1023" y="-8" font-family="Helvetica,sans-Serif" font-size="10.00">Vector2D.h</text>
</g>
<!-- Node35&#45;&gt;Node36 -->
<g id="edge44" class="edge"><title>Node35&#45;&gt;Node36</title>
<path fill="none" stroke="midnightblue" d="M1102.1,-74.3717C1089.22,-65.0286 1068.22,-49.7966 1051.09,-37.375"/>
<polygon fill="midnightblue" stroke="midnightblue" points="1052.7,-34.2194 1042.55,-31.1815 1048.59,-39.8859 1052.7,-34.2194"/>
</g>
<!-- Node37 -->
<g id="node37" class="node"><title>Node37</title>
<polygon fill="none" stroke="#bfbfbf" points="1117,-6.5 1117,-25.5 1293,-25.5 1293,-6.5 1117,-6.5"/>
<text text-anchor="middle" x="1205" y="-13.5" font-family="Helvetica,sans-Serif" font-size="10.00">Math/GenVector/PositionVector2D.h</text>
</g>
<!-- Node35&#45;&gt;Node37 -->
<g id="edge45" class="edge"><title>Node35&#45;&gt;Node37</title>
<path fill="none" stroke="midnightblue" d="M1125.9,-74.3717C1140.88,-63.5015 1166.86,-44.6602 1184.94,-31.5474"/>
<polygon fill="midnightblue" stroke="midnightblue" points="1187.06,-34.3349 1193.1,-25.6305 1182.95,-28.6684 1187.06,-34.3349"/>
</g>
<!-- Node38&#45;&gt;Node4 -->
<g id="edge48" class="edge"><title>Node38&#45;&gt;Node4</title>
<path fill="none" stroke="midnightblue" d="M515.465,-340.348C500.078,-331.624 475.986,-317.545 456,-304 423.12,-281.717 386.755,-253.187 365.443,-236.042"/>
<polygon fill="midnightblue" stroke="midnightblue" points="367.516,-233.217 357.539,-229.65 363.114,-238.66 367.516,-233.217"/>
</g>
<!-- Node38&#45;&gt;Node8 -->
<g id="edge49" class="edge"><title>Node38&#45;&gt;Node8</title>
<path fill="none" stroke="midnightblue" d="M533.436,-340.403C535.859,-331.849 539.656,-318.45 542.765,-307.476"/>
<polygon fill="midnightblue" stroke="midnightblue" points="546.21,-308.156 545.569,-297.581 539.475,-306.248 546.21,-308.156"/>
</g>
<!-- Node38&#45;&gt;Node26 -->
<g id="edge47" class="edge"><title>Node38&#45;&gt;Node26</title>
<path fill="none" stroke="midnightblue" d="M514.426,-340.377C501.187,-332.626 483.215,-320.008 473,-304 460.481,-284.383 456.174,-257.505 454.713,-239.716"/>
<polygon fill="midnightblue" stroke="midnightblue" points="458.207,-239.505 454.115,-229.732 451.22,-239.924 458.207,-239.505"/>
</g>
<!-- Node38&#45;&gt;Node39 -->
<g id="edge50" class="edge"><title>Node38&#45;&gt;Node39</title>
<path fill="none" stroke="midnightblue" d="M595.671,-345.602C795.559,-335.1 1402.22,-303.227 1605.67,-292.538"/>
<polygon fill="midnightblue" stroke="midnightblue" points="1606.11,-296.019 1615.91,-291.999 1605.74,-289.029 1606.11,-296.019"/>
</g>
<!-- Node44 -->
<g id="node44" class="node"><title>Node44</title>
<g id="a_node44"><a xlink:href="../../df/d71/MCLabel_8h.html" target="_top" xlink:title="TOFSimulation/MCLabel.h">
<polygon fill="none" stroke="black" points="636,-278.5 636,-297.5 768,-297.5 768,-278.5 636,-278.5"/>
<text text-anchor="middle" x="702" y="-285.5" font-family="Helvetica,sans-Serif" font-size="10.00">TOFSimulation/MCLabel.h</text>
</a>
</g>
</g>
<!-- Node38&#45;&gt;Node44 -->
<g id="edge56" class="edge"><title>Node38&#45;&gt;Node44</title>
<path fill="none" stroke="midnightblue" d="M555.5,-340.403C584.96,-330.067 634.579,-312.656 667.802,-300.999"/>
<polygon fill="midnightblue" stroke="midnightblue" points="669.268,-304.194 677.545,-297.581 666.95,-297.589 669.268,-304.194"/>
</g>
<!-- Node39&#45;&gt;Node20 -->
<g id="edge55" class="edge"><title>Node39&#45;&gt;Node20</title>
<path fill="none" stroke="midnightblue" d="M1657.13,-272.832C1638.96,-254.959 1614.01,-224.133 1633,-204 1679.81,-154.361 2179.2,-181.869 2246,-168 2249.9,-167.191 2253.92,-166.083 2257.85,-164.833"/>
<polygon fill="midnightblue" stroke="midnightblue" points="2259.04,-168.126 2267.32,-161.521 2256.73,-161.518 2259.04,-168.126"/>
</g>
<!-- Node40 -->
<g id="node40" class="node"><title>Node40</title>
<polygon fill="none" stroke="#bfbfbf" points="1642,-210.5 1642,-229.5 1704,-229.5 1704,-210.5 1642,-210.5"/>
<text text-anchor="middle" x="1673" y="-217.5" font-family="Helvetica,sans-Serif" font-size="10.00">TNamed.h</text>
</g>
<!-- Node39&#45;&gt;Node40 -->
<g id="edge51" class="edge"><title>Node39&#45;&gt;Node40</title>
<path fill="none" stroke="midnightblue" d="M1673,-272.679C1673,-263.101 1673,-250.394 1673,-239.977"/>
<polygon fill="midnightblue" stroke="midnightblue" points="1676.5,-239.828 1673,-229.828 1669.5,-239.828 1676.5,-239.828"/>
</g>
<!-- Node41 -->
<g id="node41" class="node"><title>Node41</title>
<polygon fill="none" stroke="#bfbfbf" points="1722.5,-210.5 1722.5,-229.5 1771.5,-229.5 1771.5,-210.5 1722.5,-210.5"/>
<text text-anchor="middle" x="1747" y="-217.5" font-family="Helvetica,sans-Serif" font-size="10.00">cassert</text>
</g>
<!-- Node39&#45;&gt;Node41 -->
<g id="edge52" class="edge"><title>Node39&#45;&gt;Node41</title>
<path fill="none" stroke="midnightblue" d="M1689.06,-272.679C1700.94,-262.082 1717.11,-247.655 1729.36,-236.736"/>
<polygon fill="midnightblue" stroke="midnightblue" points="1731.97,-239.097 1737.1,-229.828 1727.31,-233.872 1731.97,-239.097"/>
</g>
<!-- Node42 -->
<g id="node42" class="node"><title>Node42</title>
<polygon fill="none" stroke="#bfbfbf" points="1789.5,-210.5 1789.5,-229.5 1848.5,-229.5 1848.5,-210.5 1789.5,-210.5"/>
<text text-anchor="middle" x="1819" y="-217.5" font-family="Helvetica,sans-Serif" font-size="10.00">stdexcept</text>
</g>
<!-- Node39&#45;&gt;Node42 -->
<g id="edge53" class="edge"><title>Node39&#45;&gt;Node42</title>
<path fill="none" stroke="midnightblue" d="M1704.32,-272.841C1729.91,-261.272 1765.79,-245.055 1790.56,-233.855"/>
<polygon fill="midnightblue" stroke="midnightblue" points="1792.12,-236.99 1799.79,-229.682 1789.24,-230.612 1792.12,-236.99"/>
</g>
<!-- Node43 -->
<g id="node43" class="node"><title>Node43</title>
<polygon fill="none" stroke="#bfbfbf" points="1866.5,-210.5 1866.5,-229.5 1911.5,-229.5 1911.5,-210.5 1866.5,-210.5"/>
<text text-anchor="middle" x="1889" y="-217.5" font-family="Helvetica,sans-Serif" font-size="10.00">gsl/gsl</text>
</g>
<!-- Node39&#45;&gt;Node43 -->
<g id="edge54" class="edge"><title>Node39&#45;&gt;Node43</title>
<path fill="none" stroke="midnightblue" d="M1730.15,-273.793C1766.88,-264.664 1815.34,-251.413 1857,-236 1858.86,-235.313 1860.75,-234.562 1862.65,-233.772"/>
<polygon fill="midnightblue" stroke="midnightblue" points="1864.24,-236.896 1871.95,-229.637 1861.39,-230.499 1864.24,-236.896"/>
</g>
<!-- Node45 -->
<g id="node45" class="node"><title>Node45</title>
<g id="a_node45"><a xlink:href="../../d7/dcd/MCCompLabel_8h.html" target="_top" xlink:title="SimulationDataFormat\l/MCCompLabel.h">
<polygon fill="none" stroke="black" points="648,-205 648,-235 762,-235 762,-205 648,-205"/>
<text text-anchor="start" x="656" y="-223" font-family="Helvetica,sans-Serif" font-size="10.00">SimulationDataFormat</text>
<text text-anchor="middle" x="705" y="-212" font-family="Helvetica,sans-Serif" font-size="10.00">/MCCompLabel.h</text>
</a>
</g>
</g>
<!-- Node44&#45;&gt;Node45 -->
<g id="edge57" class="edge"><title>Node44&#45;&gt;Node45</title>
<path fill="none" stroke="midnightblue" d="M702.392,-278.372C702.774,-269.971 703.372,-256.811 703.899,-245.213"/>
<polygon fill="midnightblue" stroke="midnightblue" points="707.398,-245.33 704.355,-235.181 700.405,-245.012 707.398,-245.33"/>
</g>
<!-- Node45&#45;&gt;Node3 -->
<g id="edge58" class="edge"><title>Node45&#45;&gt;Node3</title>
<path fill="none" stroke="midnightblue" d="M647.79,-205.748C587.229,-191.651 499.335,-170.972 492,-168 466.144,-157.523 464.52,-144.659 438,-136 279.677,-84.3079 226.747,-139.7 65,-100 61.935,-99.2477 58.7899,-98.2885 55.69,-97.2198"/>
<polygon fill="midnightblue" stroke="midnightblue" points="56.6865,-93.8538 46.0959,-93.5522 54.1868,-100.392 56.6865,-93.8538"/>
</g>
</g>
</svg>
        <g id="navigator" transform="translate(0 0)" fill="#404254">
                <rect fill="#f2f5e9" fill-opacity="0.5" stroke="#606060" stroke-width=".5" x="0" y="0" width="60" height="60"/>
                <use id="zoomplus" xlink:href="#zoomPlus" x="17" y="9" onmousedown="handleZoom(evt,'in')"/>
                <use id="zoomminus" xlink:href="#zoomMin" x="42" y="9" onmousedown="handleZoom(evt,'out')"/>
                <use id="reset" xlink:href="#resetDef" x="30" y="36" onmousedown="handleReset()"/>
                <g id="arrowUp" xlink:href="#dirArrow" transform="translate(30 24)" onmousedown="handlePan(0,-1)">
                  <use xlink:href="#rim" fill="#404040">
                        <set attributeName="fill" to="#808080" begin="arrowUp.mouseover" end="arrowUp.mouseout"/>
                  </use>
                  <path fill="none" stroke="white" stroke-width="1.5" d="M0,-3.0v7 M-2.5,-0.5L0,-3.0L2.5,-0.5"/>
                </g>
                <g id="arrowRight" xlink:href="#dirArrow" transform="rotate(90) translate(36 -43)" onmousedown="handlePan(1,0)">
                  <use xlink:href="#rim" fill="#404040">
                        <set attributeName="fill" to="#808080" begin="arrowRight.mouseover" end="arrowRight.mouseout"/>
                  </use>
                  <path fill="none" stroke="white" stroke-width="1.5" d="M0,-3.0v7 M-2.5,-0.5L0,-3.0L2.5,-0.5"/>
                </g>
                <g id="arrowDown" xlink:href="#dirArrow" transform="rotate(180) translate(-30 -48)" onmousedown="handlePan(0,1)">
                  <use xlink:href="#rim" fill="#404040">
                        <set attributeName="fill" to="#808080" begin="arrowDown.mouseover" end="arrowDown.mouseout"/>
                  </use>
                  <path fill="none" stroke="white" stroke-width="1.5" d="M0,-3.0v7 M-2.5,-0.5L0,-3.0L2.5,-0.5"/>
                </g>
                <g id="arrowLeft" xlink:href="#dirArrow" transform="rotate(270) translate(-36 17)" onmousedown="handlePan(-1,0)">
                  <use xlink:href="#rim" fill="#404040">
                        <set attributeName="fill" to="#808080" begin="arrowLeft.mouseover" end="arrowLeft.mouseout"/>
                  </use>
                  <path fill="none" stroke="white" stroke-width="1.5" d="M0,-3.0v7 M-2.5,-0.5L0,-3.0L2.5,-0.5"/>
                </g>
        </g>
        <svg viewBox="0 0 15 15" width="100%" height="30px" preserveAspectRatio="xMaxYMin meet">
         <g id="arrow_out" transform="scale(0.3 0.3)">
          <a xlink:href="TOF_2simulation_2include_2TOFSimulation_2DigitizerTask_8h__incl_org.svg" target="_base">
           <rect id="button" ry="5" rx="5" y="6" x="6" height="38" width="38"
                fill="#f2f5e9" fill-opacity="0.5" stroke="#606060" stroke-width="1.0"/>
           <path id="arrow"
             d="M 11.500037,31.436501 C 11.940474,20.09759 22.043105,11.32322 32.158766,21.979434 L 37.068811,17.246167 C 37.068811,17.246167 37.088388,32 37.088388,32 L 22.160133,31.978069 C 22.160133,31.978069 26.997745,27.140456 26.997745,27.140456 C 18.528582,18.264221 13.291696,25.230495 11.500037,31.436501 z"
             style="fill:#404040;"/>
          </a>
         </g>
        </svg>
</svg>
