<?xml version="1.0" encoding="UTF-8" standalone="no"?>
<!DOCTYPE svg PUBLIC "-//W3C//DTD SVG 1.1//EN"
 "http://www.w3.org/Graphics/SVG/1.1/DTD/svg11.dtd">
<!-- Generated by graphviz version 2.36.0 (20140111.2315)
 -->
<!-- Title: /home/travis/build/AliceO2Group/AliceO2/Detectors/MUON/MCH/Simulation/src/GeometryTest.cxx Pages: 1 -->
<!--zoomable 322 -->
<svg id="main" version="1.1" xmlns="http://www.w3.org/2000/svg" xmlns:xlink="http://www.w3.org/1999/xlink" xml:space="preserve" onload="init(evt)">
<style type="text/css"><![CDATA[
.edge:hover path { stroke: red; }
.edge:hover polygon { stroke: red; fill: red; }
]]></style>
<script type="text/javascript"><![CDATA[
var edges = document.getElementsByTagName('g');
if (edges && edges.length) {
  for (var i=0;i<edges.length;i++) {
    if (edges[i].id.substr(0,4)=='edge') {
      edges[i].setAttribute('class','edge');
    }
  }
}
]]></script>
        <defs>
                <circle id="rim" cx="0" cy="0" r="7"/>
                <circle id="rim2" cx="0" cy="0" r="3.5"/>
                <g id="zoomPlus">
                        <use xlink:href="#rim" fill="#404040">
                                <set attributeName="fill" to="#808080" begin="zoomplus.mouseover" end="zoomplus.mouseout"/>
                        </use>
                        <path d="M-4,0h8M0,-4v8" fill="none" stroke="white" stroke-width="1.5" pointer-events="none"/>
                </g>
                <g id="zoomMin">
                        <use xlink:href="#rim" fill="#404040">
                                <set attributeName="fill" to="#808080" begin="zoomminus.mouseover" end="zoomminus.mouseout"/>
                        </use>
                        <path d="M-4,0h8" fill="none" stroke="white" stroke-width="1.5" pointer-events="none"/>
                </g>
                <g id="dirArrow">
                        <path fill="none" stroke="white" stroke-width="1.5" d="M0,-3.0v7 M-2.5,-0.5L0,-3.0L2.5,-0.5"/>
                </g>
               <g id="resetDef">
                       <use xlink:href="#rim2" fill="#404040">
                               <set attributeName="fill" to="#808080" begin="reset.mouseover" end="reset.mouseout"/>
                       </use>
               </g>
        </defs>

<script type="text/javascript">
var viewWidth = 2024;
var viewHeight = 322;
var sectionId = 'dynsection-0';
</script>
<script xlink:href="../../svgpan.js"/>
<svg id="graph" class="graph">
<g id="viewport">
<title>/home/travis/build/AliceO2Group/AliceO2/Detectors/MUON/MCH/Simulation/src/GeometryTest.cxx</title>
<!-- Node1 -->
<g id="node1" class="node"><title>Node1</title>
<polygon fill="#bfbfbf" stroke="black" points="1350.5,-261 1350.5,-313 1521.5,-313 1521.5,-261 1350.5,-261"/>
<text text-anchor="start" x="1358.5" y="-301" font-family="Helvetica,sans-Serif" font-size="10.00">/home/travis/build</text>
<text text-anchor="start" x="1358.5" y="-290" font-family="Helvetica,sans-Serif" font-size="10.00">/AliceO2Group/AliceO2</text>
<text text-anchor="start" x="1358.5" y="-279" font-family="Helvetica,sans-Serif" font-size="10.00">/Detectors/MUON/MCH/Simulation</text>
<text text-anchor="middle" x="1436" y="-268" font-family="Helvetica,sans-Serif" font-size="10.00">/src/GeometryTest.cxx</text>
</g>
<!-- Node2 -->
<g id="node2" class="node"><title>Node2</title>
<g id="a_node2"><a xlink:href="../../de/d04/GeometryTest_8h.html" target="_top" xlink:title="MCHSimulation/GeometryTest.h">
<polygon fill="none" stroke="black" points="588.5,-204.5 588.5,-223.5 747.5,-223.5 747.5,-204.5 588.5,-204.5"/>
<text text-anchor="middle" x="668" y="-211.5" font-family="Helvetica,sans-Serif" font-size="10.00">MCHSimulation/GeometryTest.h</text>
</a>
</g>
</g>
<!-- Node1&#45;&gt;Node2 -->
<g id="edge1" class="edge"><title>Node1&#45;&gt;Node2</title>
<path fill="none" stroke="midnightblue" d="M1350.48,-278.279C1222.34,-266.681 972.915,-243.986 761,-224 759.91,-223.897 758.813,-223.794 757.709,-223.689"/>
<polygon fill="midnightblue" stroke="midnightblue" points="757.933,-220.195 747.647,-222.734 757.272,-227.163 757.933,-220.195"/>
</g>
<!-- Node3 -->
<g id="node3" class="node"><title>Node3</title>
<polygon fill="none" stroke="#bfbfbf" points="646,-142.5 646,-161.5 700,-161.5 700,-142.5 646,-142.5"/>
<text text-anchor="middle" x="673" y="-149.5" font-family="Helvetica,sans-Serif" font-size="10.00">iostream</text>
</g>
<!-- Node1&#45;&gt;Node3 -->
<g id="edge44" class="edge"><title>Node1&#45;&gt;Node3</title>
<path fill="none" stroke="midnightblue" d="M1350.46,-282.317C1200.22,-275.09 895.261,-256.823 794,-224 783.561,-220.616 727.858,-186.813 695.792,-167.094"/>
<polygon fill="midnightblue" stroke="midnightblue" points="697.402,-163.976 687.053,-161.71 693.73,-169.935 697.402,-163.976"/>
</g>
<!-- Node4 -->
<g id="node4" class="node"><title>Node4</title>
<g id="a_node4"><a xlink:href="../../db/dcc/Detectors_2Base_2include_2DetectorsBase_2GeometryManager_8h.html" target="_top" xlink:title="DetectorsBase/GeometryManager.h">
<polygon fill="none" stroke="black" points="1030.5,-204.5 1030.5,-223.5 1203.5,-223.5 1203.5,-204.5 1030.5,-204.5"/>
<text text-anchor="middle" x="1117" y="-211.5" font-family="Helvetica,sans-Serif" font-size="10.00">DetectorsBase/GeometryManager.h</text>
</a>
</g>
</g>
<!-- Node1&#45;&gt;Node4 -->
<g id="edge3" class="edge"><title>Node1&#45;&gt;Node4</title>
<path fill="none" stroke="midnightblue" d="M1350.09,-266.88C1290.83,-253.689 1214.2,-236.634 1165.31,-225.753"/>
<polygon fill="midnightblue" stroke="midnightblue" points="1165.84,-222.284 1155.32,-223.528 1164.32,-229.117 1165.84,-222.284"/>
</g>
<!-- Node5 -->
<g id="node5" class="node"><title>Node5</title>
<polygon fill="none" stroke="#bfbfbf" points="923,-142.5 923,-161.5 1009,-161.5 1009,-142.5 923,-142.5"/>
<text text-anchor="middle" x="966" y="-149.5" font-family="Helvetica,sans-Serif" font-size="10.00">TGeoManager.h</text>
</g>
<!-- Node1&#45;&gt;Node5 -->
<g id="edge40" class="edge"><title>Node1&#45;&gt;Node5</title>
<path fill="none" stroke="midnightblue" d="M1350.11,-280.686C1245.28,-272.921 1075.29,-255.81 1021,-224 999.833,-211.598 983.908,-187.62 974.778,-170.981"/>
<polygon fill="midnightblue" stroke="midnightblue" points="977.696,-169.004 969.985,-161.738 971.482,-172.226 977.696,-169.004"/>
</g>
<!-- Node34 -->
<g id="node34" class="node"><title>Node34</title>
<g id="a_node34"><a xlink:href="../../d5/dc1/MUON_2MCH_2Simulation_2include_2MCHSimulation_2Geometry_8h.html" target="_top" xlink:title="MCHSimulation/Geometry.h">
<polygon fill="none" stroke="black" points="803,-204.5 803,-223.5 943,-223.5 943,-204.5 803,-204.5"/>
<text text-anchor="middle" x="873" y="-211.5" font-family="Helvetica,sans-Serif" font-size="10.00">MCHSimulation/Geometry.h</text>
</a>
</g>
</g>
<!-- Node1&#45;&gt;Node34 -->
<g id="edge35" class="edge"><title>Node1&#45;&gt;Node34</title>
<path fill="none" stroke="midnightblue" d="M1350.49,-275.217C1241.83,-261.513 1055.83,-238.056 950.919,-224.826"/>
<polygon fill="midnightblue" stroke="midnightblue" points="951.074,-221.318 940.714,-223.539 950.198,-228.263 951.074,-221.318"/>
</g>
<!-- Node36 -->
<g id="node36" class="node"><title>Node36</title>
<polygon fill="none" stroke="#bfbfbf" points="1222,-204.5 1222,-223.5 1376,-223.5 1376,-204.5 1222,-204.5"/>
<text text-anchor="middle" x="1299" y="-211.5" font-family="Helvetica,sans-Serif" font-size="10.00">Math/GenVector/Cartesian3D.h</text>
</g>
<!-- Node1&#45;&gt;Node36 -->
<g id="edge39" class="edge"><title>Node1&#45;&gt;Node36</title>
<path fill="none" stroke="midnightblue" d="M1387.7,-260.968C1366.51,-249.986 1342.49,-237.537 1324.79,-228.366"/>
<polygon fill="midnightblue" stroke="midnightblue" points="1326.16,-225.133 1315.67,-223.639 1322.94,-231.348 1326.16,-225.133"/>
</g>
<!-- Node37 -->
<g id="node37" class="node"><title>Node37</title>
<polygon fill="none" stroke="#bfbfbf" points="1394.5,-204.5 1394.5,-223.5 1477.5,-223.5 1477.5,-204.5 1394.5,-204.5"/>
<text text-anchor="middle" x="1436" y="-211.5" font-family="Helvetica,sans-Serif" font-size="10.00">TGeoMedium.h</text>
</g>
<!-- Node1&#45;&gt;Node37 -->
<g id="edge41" class="edge"><title>Node1&#45;&gt;Node37</title>
<path fill="none" stroke="midnightblue" d="M1436,-260.768C1436,-251.89 1436,-242.074 1436,-233.816"/>
<polygon fill="midnightblue" stroke="midnightblue" points="1439.5,-233.757 1436,-223.757 1432.5,-233.757 1439.5,-233.757"/>
</g>
<!-- Node38 -->
<g id="node38" class="node"><title>Node38</title>
<polygon fill="none" stroke="#bfbfbf" points="1496,-204.5 1496,-223.5 1578,-223.5 1578,-204.5 1496,-204.5"/>
<text text-anchor="middle" x="1537" y="-211.5" font-family="Helvetica,sans-Serif" font-size="10.00">TGeoVolume.h</text>
</g>
<!-- Node1&#45;&gt;Node38 -->
<g id="edge42" class="edge"><title>Node1&#45;&gt;Node38</title>
<path fill="none" stroke="midnightblue" d="M1471.61,-260.968C1486.56,-250.458 1503.42,-238.603 1516.28,-229.565"/>
<polygon fill="midnightblue" stroke="midnightblue" points="1518.3,-232.424 1524.47,-223.81 1514.27,-226.697 1518.3,-232.424"/>
</g>
<!-- Node39 -->
<g id="node39" class="node"><title>Node39</title>
<polygon fill="none" stroke="#bfbfbf" points="1596,-204.5 1596,-223.5 1646,-223.5 1646,-204.5 1596,-204.5"/>
<text text-anchor="middle" x="1621" y="-211.5" font-family="Helvetica,sans-Serif" font-size="10.00">TH2F.h</text>
</g>
<!-- Node1&#45;&gt;Node39 -->
<g id="edge43" class="edge"><title>Node1&#45;&gt;Node39</title>
<path fill="none" stroke="midnightblue" d="M1501.22,-260.968C1531.03,-249.529 1564.99,-236.497 1589.11,-227.237"/>
<polygon fill="midnightblue" stroke="midnightblue" points="1590.41,-230.49 1598.49,-223.639 1587.9,-223.954 1590.41,-230.49"/>
</g>
<!-- Node40 -->
<g id="node40" class="node"><title>Node40</title>
<polygon fill="none" stroke="#bfbfbf" points="1664.5,-204.5 1664.5,-223.5 1735.5,-223.5 1735.5,-204.5 1664.5,-204.5"/>
<text text-anchor="middle" x="1700" y="-211.5" font-family="Helvetica,sans-Serif" font-size="10.00">TPRegexp.h</text>
</g>
<!-- Node1&#45;&gt;Node40 -->
<g id="edge45" class="edge"><title>Node1&#45;&gt;Node40</title>
<path fill="none" stroke="midnightblue" d="M1521.71,-262.948C1567.54,-250.623 1621.89,-236.007 1658.43,-226.179"/>
<polygon fill="midnightblue" stroke="midnightblue" points="1659.5,-229.517 1668.25,-223.54 1657.68,-222.757 1659.5,-229.517"/>
</g>
<!-- Node41 -->
<g id="node41" class="node"><title>Node41</title>
<polygon fill="none" stroke="#bfbfbf" points="1754,-204.5 1754,-223.5 1828,-223.5 1828,-204.5 1754,-204.5"/>
<text text-anchor="middle" x="1791" y="-211.5" font-family="Helvetica,sans-Serif" font-size="10.00">TGLViewer.h</text>
</g>
<!-- Node1&#45;&gt;Node41 -->
<g id="edge46" class="edge"><title>Node1&#45;&gt;Node41</title>
<path fill="none" stroke="midnightblue" d="M1521.94,-268.813C1591.67,-254.865 1687.38,-235.725 1743.85,-224.43"/>
<polygon fill="midnightblue" stroke="midnightblue" points="1744.81,-227.808 1753.92,-222.415 1743.43,-220.944 1744.81,-227.808"/>
</g>
<!-- Node42 -->
<g id="node42" class="node"><title>Node42</title>
<polygon fill="none" stroke="#bfbfbf" points="1846.5,-204.5 1846.5,-223.5 1921.5,-223.5 1921.5,-204.5 1846.5,-204.5"/>
<text text-anchor="middle" x="1884" y="-211.5" font-family="Helvetica,sans-Serif" font-size="10.00">TGLRnrCtx.h</text>
</g>
<!-- Node1&#45;&gt;Node42 -->
<g id="edge47" class="edge"><title>Node1&#45;&gt;Node42</title>
<path fill="none" stroke="midnightblue" d="M1521.8,-273.642C1600.79,-262.056 1721.47,-243.831 1836.29,-224.071"/>
<polygon fill="midnightblue" stroke="midnightblue" points="1837.05,-227.491 1846.31,-222.34 1835.86,-220.593 1837.05,-227.491"/>
</g>
<!-- Node43 -->
<g id="node43" class="node"><title>Node43</title>
<polygon fill="none" stroke="#bfbfbf" points="1940,-204.5 1940,-223.5 2016,-223.5 2016,-204.5 1940,-204.5"/>
<text text-anchor="middle" x="1978" y="-211.5" font-family="Helvetica,sans-Serif" font-size="10.00">TVirtualPad.h</text>
</g>
<!-- Node1&#45;&gt;Node43 -->
<g id="edge48" class="edge"><title>Node1&#45;&gt;Node43</title>
<path fill="none" stroke="midnightblue" d="M1521.89,-276.815C1618.4,-266.134 1779.93,-247.175 1929.49,-223.986"/>
<polygon fill="midnightblue" stroke="midnightblue" points="1930.44,-227.381 1939.78,-222.381 1929.36,-220.464 1930.44,-227.381"/>
</g>
<!-- Node2&#45;&gt;Node3 -->
<g id="edge2" class="edge"><title>Node2&#45;&gt;Node3</title>
<path fill="none" stroke="midnightblue" d="M668.716,-204.403C669.422,-195.938 670.523,-182.728 671.432,-171.82"/>
<polygon fill="midnightblue" stroke="midnightblue" points="674.942,-171.837 672.285,-161.581 667.966,-171.255 674.942,-171.837"/>
</g>
<!-- Node4&#45;&gt;Node5 -->
<g id="edge4" class="edge"><title>Node4&#45;&gt;Node5</title>
<path fill="none" stroke="midnightblue" d="M1095.37,-204.403C1069.58,-194.156 1026.29,-176.956 996.96,-165.302"/>
<polygon fill="midnightblue" stroke="midnightblue" points="998.18,-162.021 987.594,-161.581 995.595,-168.526 998.18,-162.021"/>
</g>
<!-- Node6 -->
<g id="node6" class="node"><title>Node6</title>
<polygon fill="none" stroke="#bfbfbf" points="1498.5,-142.5 1498.5,-161.5 1581.5,-161.5 1581.5,-142.5 1498.5,-142.5"/>
<text text-anchor="middle" x="1540" y="-149.5" font-family="Helvetica,sans-Serif" font-size="10.00">TGeoMaterial.h</text>
</g>
<!-- Node4&#45;&gt;Node6 -->
<g id="edge5" class="edge"><title>Node4&#45;&gt;Node6</title>
<path fill="none" stroke="midnightblue" d="M1200.92,-204.483C1293.28,-194.82 1435.72,-178.979 1489,-168 1494.01,-166.967 1499.25,-165.678 1504.37,-164.292"/>
<polygon fill="midnightblue" stroke="midnightblue" points="1505.34,-167.654 1514,-161.549 1503.43,-160.922 1505.34,-167.654"/>
</g>
<!-- Node7 -->
<g id="node7" class="node"><title>Node7</title>
<polygon fill="none" stroke="#bfbfbf" points="1600,-142.5 1600,-161.5 1710,-161.5 1710,-142.5 1600,-142.5"/>
<text text-anchor="middle" x="1655" y="-149.5" font-family="Helvetica,sans-Serif" font-size="10.00">TGeoPhysicalNode.h</text>
</g>
<!-- Node4&#45;&gt;Node7 -->
<g id="edge6" class="edge"><title>Node4&#45;&gt;Node7</title>
<path fill="none" stroke="midnightblue" d="M1203.51,-204.841C1338.72,-192.081 1585.28,-168.766 1590,-168 1597.15,-166.84 1604.69,-165.351 1612,-163.763"/>
<polygon fill="midnightblue" stroke="midnightblue" points="1612.78,-167.174 1621.77,-161.558 1611.24,-160.346 1612.78,-167.174"/>
</g>
<!-- Node8 -->
<g id="node8" class="node"><title>Node8</title>
<polygon fill="none" stroke="#bfbfbf" points="1728.5,-142.5 1728.5,-161.5 1805.5,-161.5 1805.5,-142.5 1728.5,-142.5"/>
<text text-anchor="middle" x="1767" y="-149.5" font-family="Helvetica,sans-Serif" font-size="10.00">TGeoShape.h</text>
</g>
<!-- Node4&#45;&gt;Node8 -->
<g id="edge7" class="edge"><title>Node4&#45;&gt;Node8</title>
<path fill="none" stroke="midnightblue" d="M1203.6,-204.791C1206.77,-204.519 1209.91,-204.254 1213,-204 1437.7,-185.477 1497.47,-209.905 1719,-168 1723.79,-167.094 1728.77,-165.871 1733.63,-164.51"/>
<polygon fill="midnightblue" stroke="midnightblue" points="1734.78,-167.819 1743.35,-161.585 1732.77,-161.117 1734.78,-167.819"/>
</g>
<!-- Node9 -->
<g id="node9" class="node"><title>Node9</title>
<polygon fill="none" stroke="#bfbfbf" points="1027.5,-142.5 1027.5,-161.5 1080.5,-161.5 1080.5,-142.5 1027.5,-142.5"/>
<text text-anchor="middle" x="1054" y="-149.5" font-family="Helvetica,sans-Serif" font-size="10.00">TMath.h</text>
</g>
<!-- Node4&#45;&gt;Node9 -->
<g id="edge8" class="edge"><title>Node4&#45;&gt;Node9</title>
<path fill="none" stroke="midnightblue" d="M1107.97,-204.403C1098.24,-195.136 1082.54,-180.183 1070.58,-168.788"/>
<polygon fill="midnightblue" stroke="midnightblue" points="1072.66,-165.943 1063.01,-161.581 1067.84,-171.012 1072.66,-165.943"/>
</g>
<!-- Node10 -->
<g id="node10" class="node"><title>Node10</title>
<polygon fill="none" stroke="#bfbfbf" points="1098.5,-142.5 1098.5,-161.5 1157.5,-161.5 1157.5,-142.5 1098.5,-142.5"/>
<text text-anchor="middle" x="1128" y="-149.5" font-family="Helvetica,sans-Serif" font-size="10.00">TObject.h</text>
</g>
<!-- Node4&#45;&gt;Node10 -->
<g id="edge9" class="edge"><title>Node4&#45;&gt;Node10</title>
<path fill="none" stroke="midnightblue" d="M1118.58,-204.403C1120.14,-195.849 1122.6,-182.45 1124.61,-171.476"/>
<polygon fill="midnightblue" stroke="midnightblue" points="1128.07,-172.048 1126.43,-161.581 1121.18,-170.785 1128.07,-172.048"/>
</g>
<!-- Node11 -->
<g id="node11" class="node"><title>Node11</title>
<polygon fill="none" stroke="#bfbfbf" points="1175.5,-142.5 1175.5,-161.5 1216.5,-161.5 1216.5,-142.5 1175.5,-142.5"/>
<text text-anchor="middle" x="1196" y="-149.5" font-family="Helvetica,sans-Serif" font-size="10.00">string</text>
</g>
<!-- Node4&#45;&gt;Node11 -->
<g id="edge10" class="edge"><title>Node4&#45;&gt;Node11</title>
<path fill="none" stroke="midnightblue" d="M1128.32,-204.403C1140.87,-194.869 1161.35,-179.315 1176.5,-167.811"/>
<polygon fill="midnightblue" stroke="midnightblue" points="1178.86,-170.416 1184.7,-161.581 1174.62,-164.842 1178.86,-170.416"/>
</g>
<!-- Node12 -->
<g id="node12" class="node"><title>Node12</title>
<g id="a_node12"><a xlink:href="../../d6/d31/DetID_8h.html" target="_top" xlink:title="DetectorsCommonDataFormats\l/DetID.h">
<polygon fill="none" stroke="black" points="1324,-137 1324,-167 1480,-167 1480,-137 1324,-137"/>
<text text-anchor="start" x="1332" y="-155" font-family="Helvetica,sans-Serif" font-size="10.00">DetectorsCommonDataFormats</text>
<text text-anchor="middle" x="1402" y="-144" font-family="Helvetica,sans-Serif" font-size="10.00">/DetID.h</text>
</a>
</g>
</g>
<!-- Node4&#45;&gt;Node12 -->
<g id="edge11" class="edge"><title>Node4&#45;&gt;Node12</title>
<path fill="none" stroke="midnightblue" d="M1157.53,-204.467C1201.08,-195.299 1271.3,-180.515 1325.34,-169.139"/>
<polygon fill="midnightblue" stroke="midnightblue" points="1326.17,-172.542 1335.23,-167.057 1324.72,-165.692 1326.17,-172.542"/>
</g>
<!-- Node22 -->
<g id="node22" class="node"><title>Node22</title>
<polygon fill="none" stroke="#bfbfbf" points="1234.5,-142.5 1234.5,-161.5 1305.5,-161.5 1305.5,-142.5 1234.5,-142.5"/>
<text text-anchor="middle" x="1270" y="-149.5" font-family="Helvetica,sans-Serif" font-size="10.00">FairLogger.h</text>
</g>
<!-- Node4&#45;&gt;Node22 -->
<g id="edge22" class="edge"><title>Node4&#45;&gt;Node22</title>
<path fill="none" stroke="midnightblue" d="M1138.92,-204.403C1165.05,-194.156 1208.91,-176.956 1238.63,-165.302"/>
<polygon fill="midnightblue" stroke="midnightblue" points="1240.09,-168.49 1248.12,-161.581 1237.53,-161.973 1240.09,-168.49"/>
</g>
<!-- Node23 -->
<g id="node23" class="node"><title>Node23</title>
<g id="a_node23"><a xlink:href="../../dd/d76/Cartesian3D_8h.html" target="_top" xlink:title="MathUtils/Cartesian3D.h">
<polygon fill="none" stroke="black" points="779.5,-142.5 779.5,-161.5 904.5,-161.5 904.5,-142.5 779.5,-142.5"/>
<text text-anchor="middle" x="842" y="-149.5" font-family="Helvetica,sans-Serif" font-size="10.00">MathUtils/Cartesian3D.h</text>
</a>
</g>
</g>
<!-- Node4&#45;&gt;Node23 -->
<g id="edge23" class="edge"><title>Node4&#45;&gt;Node23</title>
<path fill="none" stroke="midnightblue" d="M1077.89,-204.467C1028.72,-193.738 944.28,-175.316 890.892,-163.667"/>
<polygon fill="midnightblue" stroke="midnightblue" points="891.49,-160.216 880.974,-161.503 889.998,-167.055 891.49,-160.216"/>
</g>
<!-- Node13 -->
<g id="node13" class="node"><title>Node13</title>
<polygon fill="none" stroke="#bfbfbf" points="1223,-74.5 1223,-93.5 1279,-93.5 1279,-74.5 1223,-74.5"/>
<text text-anchor="middle" x="1251" y="-81.5" font-family="Helvetica,sans-Serif" font-size="10.00">Rtypes.h</text>
</g>
<!-- Node12&#45;&gt;Node13 -->
<g id="edge12" class="edge"><title>Node12&#45;&gt;Node13</title>
<path fill="none" stroke="midnightblue" d="M1369.61,-136.841C1343.02,-125.221 1305.71,-108.912 1280.07,-97.7063"/>
<polygon fill="midnightblue" stroke="midnightblue" points="1281.43,-94.4799 1270.86,-93.6819 1278.62,-100.894 1281.43,-94.4799"/>
</g>
<!-- Node14 -->
<g id="node14" class="node"><title>Node14</title>
<polygon fill="none" stroke="#bfbfbf" points="1473,-6.5 1473,-25.5 1511,-25.5 1511,-6.5 1473,-6.5"/>
<text text-anchor="middle" x="1492" y="-13.5" font-family="Helvetica,sans-Serif" font-size="10.00">array</text>
</g>
<!-- Node12&#45;&gt;Node14 -->
<g id="edge13" class="edge"><title>Node12&#45;&gt;Node14</title>
<path fill="none" stroke="midnightblue" d="M1451.63,-136.99C1469.8,-129.194 1488.47,-117.426 1499,-100 1510.94,-80.226 1505.26,-52.8103 1499.29,-34.9901"/>
<polygon fill="midnightblue" stroke="midnightblue" points="1502.54,-33.6782 1495.79,-25.5126 1495.97,-36.1059 1502.54,-33.6782"/>
</g>
<!-- Node15 -->
<g id="node15" class="node"><title>Node15</title>
<polygon fill="none" stroke="#bfbfbf" points="1655.5,-74.5 1655.5,-93.5 1696.5,-93.5 1696.5,-74.5 1655.5,-74.5"/>
<text text-anchor="middle" x="1676" y="-81.5" font-family="Helvetica,sans-Serif" font-size="10.00">bitset</text>
</g>
<!-- Node12&#45;&gt;Node15 -->
<g id="edge14" class="edge"><title>Node12&#45;&gt;Node15</title>
<path fill="none" stroke="midnightblue" d="M1479.79,-136.991C1539.19,-125.873 1615.81,-110.506 1646,-100 1647.86,-99.3542 1649.74,-98.6179 1651.62,-97.8263"/>
<polygon fill="midnightblue" stroke="midnightblue" points="1653.17,-100.965 1660.76,-93.5692 1650.22,-94.6202 1653.17,-100.965"/>
</g>
<!-- Node16 -->
<g id="node16" class="node"><title>Node16</title>
<polygon fill="none" stroke="#bfbfbf" points="1297.5,-74.5 1297.5,-93.5 1346.5,-93.5 1346.5,-74.5 1297.5,-74.5"/>
<text text-anchor="middle" x="1322" y="-81.5" font-family="Helvetica,sans-Serif" font-size="10.00">cassert</text>
</g>
<!-- Node12&#45;&gt;Node16 -->
<g id="edge15" class="edge"><title>Node12&#45;&gt;Node16</title>
<path fill="none" stroke="midnightblue" d="M1384.64,-136.679C1371.67,-125.981 1353.97,-111.377 1340.69,-100.422"/>
<polygon fill="midnightblue" stroke="midnightblue" points="1342.64,-97.4923 1332.7,-93.8283 1338.19,-102.892 1342.64,-97.4923"/>
</g>
<!-- Node17 -->
<g id="node17" class="node"><title>Node17</title>
<polygon fill="none" stroke="#bfbfbf" points="1365,-74.5 1365,-93.5 1411,-93.5 1411,-74.5 1365,-74.5"/>
<text text-anchor="middle" x="1388" y="-81.5" font-family="Helvetica,sans-Serif" font-size="10.00">cstdint</text>
</g>
<!-- Node12&#45;&gt;Node17 -->
<g id="edge16" class="edge"><title>Node12&#45;&gt;Node17</title>
<path fill="none" stroke="midnightblue" d="M1398.96,-136.679C1396.91,-126.999 1394.18,-114.123 1391.95,-103.645"/>
<polygon fill="midnightblue" stroke="midnightblue" points="1395.37,-102.884 1389.87,-93.8283 1388.52,-104.337 1395.37,-102.884"/>
</g>
<!-- Node18 -->
<g id="node18" class="node"><title>Node18</title>
<polygon fill="none" stroke="#bfbfbf" points="1429,-74.5 1429,-93.5 1491,-93.5 1491,-74.5 1429,-74.5"/>
<text text-anchor="middle" x="1460" y="-81.5" font-family="Helvetica,sans-Serif" font-size="10.00">type_traits</text>
</g>
<!-- Node12&#45;&gt;Node18 -->
<g id="edge17" class="edge"><title>Node12&#45;&gt;Node18</title>
<path fill="none" stroke="midnightblue" d="M1414.59,-136.679C1423.72,-126.286 1436.09,-112.208 1445.61,-101.37"/>
<polygon fill="midnightblue" stroke="midnightblue" points="1448.27,-103.65 1452.24,-93.8283 1443.01,-99.0296 1448.27,-103.65"/>
</g>
<!-- Node19 -->
<g id="node19" class="node"><title>Node19</title>
<g id="a_node19"><a xlink:href="../../d9/d52/Common_2MathUtils_2include_2MathUtils_2Utils_8h.html" target="_top" xlink:title="MathUtils/Utils.h">
<polygon fill="none" stroke="black" points="1547,-74.5 1547,-93.5 1637,-93.5 1637,-74.5 1547,-74.5"/>
<text text-anchor="middle" x="1592" y="-81.5" font-family="Helvetica,sans-Serif" font-size="10.00">MathUtils/Utils.h</text>
</a>
</g>
</g>
<!-- Node12&#45;&gt;Node19 -->
<g id="edge18" class="edge"><title>Node12&#45;&gt;Node19</title>
<path fill="none" stroke="midnightblue" d="M1442.76,-136.841C1477.05,-124.93 1525.52,-108.094 1557.81,-96.8762"/>
<polygon fill="midnightblue" stroke="midnightblue" points="1558.98,-100.174 1567.28,-93.5868 1556.69,-93.562 1558.98,-100.174"/>
</g>
<!-- Node19&#45;&gt;Node14 -->
<g id="edge19" class="edge"><title>Node19&#45;&gt;Node14</title>
<path fill="none" stroke="midnightblue" d="M1578.93,-74.3717C1562.31,-63.4027 1533.39,-44.317 1513.5,-31.1912"/>
<polygon fill="midnightblue" stroke="midnightblue" points="1515.35,-28.2178 1505.08,-25.6305 1511.49,-34.0601 1515.35,-28.2178"/>
</g>
<!-- Node20 -->
<g id="node20" class="node"><title>Node20</title>
<polygon fill="none" stroke="#bfbfbf" points="1727,-6.5 1727,-25.5 1771,-25.5 1771,-6.5 1727,-6.5"/>
<text text-anchor="middle" x="1749" y="-13.5" font-family="Helvetica,sans-Serif" font-size="10.00">cmath</text>
</g>
<!-- Node19&#45;&gt;Node20 -->
<g id="edge20" class="edge"><title>Node19&#45;&gt;Node20</title>
<path fill="none" stroke="midnightblue" d="M1613.82,-74.4882C1638.88,-64.623 1681.15,-47.7049 1717,-32 1718.58,-31.3061 1720.21,-30.5831 1721.84,-29.8459"/>
<polygon fill="midnightblue" stroke="midnightblue" points="1723.51,-32.9305 1731.13,-25.5712 1720.59,-26.5713 1723.51,-32.9305"/>
</g>
<!-- Node21 -->
<g id="node21" class="node"><title>Node21</title>
<g id="a_node21"><a xlink:href="../../d6/d84/MathConstants_8h.html" target="_top" xlink:title="useful math constants ">
<polygon fill="none" stroke="black" points="1529.5,-6.5 1529.5,-25.5 1708.5,-25.5 1708.5,-6.5 1529.5,-6.5"/>
<text text-anchor="middle" x="1619" y="-13.5" font-family="Helvetica,sans-Serif" font-size="10.00">CommonConstants/MathConstants.h</text>
</a>
</g>
</g>
<!-- Node19&#45;&gt;Node21 -->
<g id="edge21" class="edge"><title>Node19&#45;&gt;Node21</title>
<path fill="none" stroke="midnightblue" d="M1595.53,-74.3717C1599.55,-64.5443 1606.24,-48.2018 1611.45,-35.4673"/>
<polygon fill="midnightblue" stroke="midnightblue" points="1614.84,-36.4218 1615.38,-25.8411 1608.36,-33.7714 1614.84,-36.4218"/>
</g>
<!-- Node23&#45;&gt;Node13 -->
<g id="edge29" class="edge"><title>Node23&#45;&gt;Node13</title>
<path fill="none" stroke="midnightblue" d="M880,-142.446C890.939,-140.157 902.912,-137.817 914,-136 1046.52,-114.285 1083.96,-133.522 1214,-100 1216.99,-99.229 1220.06,-98.2718 1223.09,-97.2168"/>
<polygon fill="midnightblue" stroke="midnightblue" points="1224.41,-100.46 1232.5,-93.6208 1221.91,-93.9212 1224.41,-100.46"/>
</g>
<!-- Node24 -->
<g id="node24" class="node"><title>Node24</title>
<polygon fill="none" stroke="#bfbfbf" points="246.5,-69 246.5,-99 397.5,-99 397.5,-69 246.5,-69"/>
<text text-anchor="start" x="254.5" y="-87" font-family="Helvetica,sans-Serif" font-size="10.00">Math/GenVector/Displacement</text>
<text text-anchor="middle" x="322" y="-76" font-family="Helvetica,sans-Serif" font-size="10.00">Vector3D.h</text>
</g>
<!-- Node23&#45;&gt;Node24 -->
<g id="edge24" class="edge"><title>Node23&#45;&gt;Node24</title>
<path fill="none" stroke="midnightblue" d="M804.768,-142.455C793.63,-140.112 781.359,-137.741 770,-136 613.034,-111.936 569.389,-121.68 408.234,-100.095"/>
<polygon fill="midnightblue" stroke="midnightblue" points="408.335,-96.5771 397.955,-98.6979 407.392,-103.513 408.335,-96.5771"/>
</g>
<!-- Node25 -->
<g id="node25" class="node"><title>Node25</title>
<polygon fill="none" stroke="#bfbfbf" points="416,-74.5 416,-93.5 592,-93.5 592,-74.5 416,-74.5"/>
<text text-anchor="middle" x="504" y="-81.5" font-family="Helvetica,sans-Serif" font-size="10.00">Math/GenVector/PositionVector3D.h</text>
</g>
<!-- Node23&#45;&gt;Node25 -->
<g id="edge25" class="edge"><title>Node23&#45;&gt;Node25</title>
<path fill="none" stroke="midnightblue" d="M801.658,-142.477C791.344,-140.331 780.267,-138.054 770,-136 697.445,-121.488 613.582,-105.547 559.728,-95.4167"/>
<polygon fill="midnightblue" stroke="midnightblue" points="560.174,-91.9395 549.7,-93.5325 558.881,-98.8191 560.174,-91.9395"/>
</g>
<!-- Node26 -->
<g id="node26" class="node"><title>Node26</title>
<polygon fill="none" stroke="#bfbfbf" points="609.5,-74.5 609.5,-93.5 758.5,-93.5 758.5,-74.5 609.5,-74.5"/>
<text text-anchor="middle" x="684" y="-81.5" font-family="Helvetica,sans-Serif" font-size="10.00">Math/GenVector/Rotation3D.h</text>
</g>
<!-- Node23&#45;&gt;Node26 -->
<g id="edge26" class="edge"><title>Node23&#45;&gt;Node26</title>
<path fill="none" stroke="midnightblue" d="M821.344,-142.372C794.021,-130.958 745.659,-110.756 714.224,-97.6252"/>
<polygon fill="midnightblue" stroke="midnightblue" points="715.237,-94.2554 704.661,-93.6305 712.539,-100.715 715.237,-94.2554"/>
</g>
<!-- Node27 -->
<g id="node27" class="node"><title>Node27</title>
<polygon fill="none" stroke="#bfbfbf" points="777,-74.5 777,-93.5 933,-93.5 933,-74.5 777,-74.5"/>
<text text-anchor="middle" x="855" y="-81.5" font-family="Helvetica,sans-Serif" font-size="10.00">Math/GenVector/Transform3D.h</text>
</g>
<!-- Node23&#45;&gt;Node27 -->
<g id="edge27" class="edge"><title>Node23&#45;&gt;Node27</title>
<path fill="none" stroke="midnightblue" d="M843.7,-142.372C845.616,-132.643 848.79,-116.528 851.287,-103.85"/>
<polygon fill="midnightblue" stroke="midnightblue" points="854.76,-104.329 853.259,-93.8411 847.892,-102.976 854.76,-104.329"/>
</g>
<!-- Node28 -->
<g id="node28" class="node"><title>Node28</title>
<polygon fill="none" stroke="#bfbfbf" points="951,-74.5 951,-93.5 1111,-93.5 1111,-74.5 951,-74.5"/>
<text text-anchor="middle" x="1031" y="-81.5" font-family="Helvetica,sans-Serif" font-size="10.00">Math/GenVector/Translation3D.h</text>
</g>
<!-- Node23&#45;&gt;Node28 -->
<g id="edge28" class="edge"><title>Node23&#45;&gt;Node28</title>
<path fill="none" stroke="midnightblue" d="M866.708,-142.372C900.051,-130.728 959.583,-109.939 997.091,-96.8411"/>
<polygon fill="midnightblue" stroke="midnightblue" points="998.298,-100.127 1006.58,-93.5259 995.99,-93.5184 998.298,-100.127"/>
</g>
<!-- Node29 -->
<g id="node29" class="node"><title>Node29</title>
<polygon fill="none" stroke="#bfbfbf" points="1129,-74.5 1129,-93.5 1205,-93.5 1205,-74.5 1129,-74.5"/>
<text text-anchor="middle" x="1167" y="-81.5" font-family="Helvetica,sans-Serif" font-size="10.00">TGeoMatrix.h</text>
</g>
<!-- Node23&#45;&gt;Node29 -->
<g id="edge30" class="edge"><title>Node23&#45;&gt;Node29</title>
<path fill="none" stroke="midnightblue" d="M881.942,-142.439C892.364,-140.271 903.591,-137.993 914,-136 1005.28,-118.52 1029.74,-122.18 1120,-100 1124.12,-98.9882 1128.4,-97.8069 1132.63,-96.5594"/>
<polygon fill="midnightblue" stroke="midnightblue" points="1133.78,-99.8686 1142.3,-93.5772 1131.71,-93.1795 1133.78,-99.8686"/>
</g>
<!-- Node30 -->
<g id="node30" class="node"><title>Node30</title>
<polygon fill="none" stroke="#bfbfbf" points="40.5,-74.5 40.5,-93.5 85.5,-93.5 85.5,-74.5 40.5,-74.5"/>
<text text-anchor="middle" x="63" y="-81.5" font-family="Helvetica,sans-Serif" font-size="10.00">iosfwd</text>
</g>
<!-- Node23&#45;&gt;Node30 -->
<g id="edge31" class="edge"><title>Node23&#45;&gt;Node30</title>
<path fill="none" stroke="midnightblue" d="M806.292,-142.441C794.771,-139.981 781.902,-137.548 770,-136 471.641,-97.2059 385.372,-175 94,-100 91.655,-99.3964 89.2761,-98.6083 86.9327,-97.7093"/>
<polygon fill="midnightblue" stroke="midnightblue" points="88.2357,-94.4581 77.6775,-93.5772 85.3819,-100.85 88.2357,-94.4581"/>
</g>
<!-- Node31 -->
<g id="node31" class="node"><title>Node31</title>
<g id="a_node31"><a xlink:href="../../d2/dd0/Cartesian2D_8h.html" target="_top" xlink:title="MathUtils/Cartesian2D.h">
<polygon fill="none" stroke="black" points="103.5,-74.5 103.5,-93.5 228.5,-93.5 228.5,-74.5 103.5,-74.5"/>
<text text-anchor="middle" x="166" y="-81.5" font-family="Helvetica,sans-Serif" font-size="10.00">MathUtils/Cartesian2D.h</text>
</a>
</g>
</g>
<!-- Node23&#45;&gt;Node31 -->
<g id="edge32" class="edge"><title>Node23&#45;&gt;Node31</title>
<path fill="none" stroke="midnightblue" d="M805.91,-142.465C794.483,-140.036 781.764,-137.615 770,-136 534.777,-103.711 472.177,-132.62 237,-100 228.749,-98.8556 220.024,-97.3018 211.621,-95.6263"/>
<polygon fill="midnightblue" stroke="midnightblue" points="212.085,-92.1483 201.583,-93.5417 210.662,-99.002 212.085,-92.1483"/>
</g>
<!-- Node32 -->
<g id="node32" class="node"><title>Node32</title>
<polygon fill="none" stroke="#bfbfbf" points="-0.5,-1 -0.5,-31 150.5,-31 150.5,-1 -0.5,-1"/>
<text text-anchor="start" x="7.5" y="-19" font-family="Helvetica,sans-Serif" font-size="10.00">Math/GenVector/Displacement</text>
<text text-anchor="middle" x="75" y="-8" font-family="Helvetica,sans-Serif" font-size="10.00">Vector2D.h</text>
</g>
<!-- Node31&#45;&gt;Node32 -->
<g id="edge33" class="edge"><title>Node31&#45;&gt;Node32</title>
<path fill="none" stroke="midnightblue" d="M154.103,-74.3717C141.221,-65.0286 120.22,-49.7966 103.093,-37.375"/>
<polygon fill="midnightblue" stroke="midnightblue" points="104.703,-34.2194 94.5532,-31.1815 100.593,-39.8859 104.703,-34.2194"/>
</g>
<!-- Node33 -->
<g id="node33" class="node"><title>Node33</title>
<polygon fill="none" stroke="#bfbfbf" points="169,-6.5 169,-25.5 345,-25.5 345,-6.5 169,-6.5"/>
<text text-anchor="middle" x="257" y="-13.5" font-family="Helvetica,sans-Serif" font-size="10.00">Math/GenVector/PositionVector2D.h</text>
</g>
<!-- Node31&#45;&gt;Node33 -->
<g id="edge34" class="edge"><title>Node31&#45;&gt;Node33</title>
<path fill="none" stroke="midnightblue" d="M177.897,-74.3717C192.884,-63.5015 218.862,-44.6602 236.942,-31.5474"/>
<polygon fill="midnightblue" stroke="midnightblue" points="239.06,-34.3349 245.1,-25.6305 234.95,-28.6684 239.06,-34.3349"/>
</g>
<!-- Node34&#45;&gt;Node3 -->
<g id="edge37" class="edge"><title>Node34&#45;&gt;Node3</title>
<path fill="none" stroke="midnightblue" d="M836.768,-204.464C803.268,-196.242 752.275,-182.885 709,-168 706.591,-167.171 704.112,-166.262 701.637,-165.314"/>
<polygon fill="midnightblue" stroke="midnightblue" points="702.841,-162.026 692.257,-161.553 700.236,-168.524 702.841,-162.026"/>
</g>
<!-- Node34&#45;&gt;Node23 -->
<g id="edge38" class="edge"><title>Node34&#45;&gt;Node23</title>
<path fill="none" stroke="midnightblue" d="M868.558,-204.403C864.047,-195.671 856.926,-181.889 851.193,-170.794"/>
<polygon fill="midnightblue" stroke="midnightblue" points="854.133,-168.858 846.433,-161.581 847.914,-172.071 854.133,-168.858"/>
</g>
<!-- Node35 -->
<g id="node35" class="node"><title>Node35</title>
<polygon fill="none" stroke="#bfbfbf" points="718,-142.5 718,-161.5 762,-161.5 762,-142.5 718,-142.5"/>
<text text-anchor="middle" x="740" y="-149.5" font-family="Helvetica,sans-Serif" font-size="10.00">vector</text>
</g>
<!-- Node34&#45;&gt;Node35 -->
<g id="edge36" class="edge"><title>Node34&#45;&gt;Node35</title>
<path fill="none" stroke="midnightblue" d="M852.34,-204.346C831.443,-195.505 798.278,-181.236 770,-168 768.649,-167.367 767.267,-166.711 765.875,-166.042"/>
<polygon fill="midnightblue" stroke="midnightblue" points="767.264,-162.825 756.744,-161.564 764.181,-169.11 767.264,-162.825"/>
</g>
</g>
</svg>
        <g id="navigator" transform="translate(0 0)" fill="#404254">
                <rect fill="#f2f5e9" fill-opacity="0.5" stroke="#606060" stroke-width=".5" x="0" y="0" width="60" height="60"/>
                <use id="zoomplus" xlink:href="#zoomPlus" x="17" y="9" onmousedown="handleZoom(evt,'in')"/>
                <use id="zoomminus" xlink:href="#zoomMin" x="42" y="9" onmousedown="handleZoom(evt,'out')"/>
                <use id="reset" xlink:href="#resetDef" x="30" y="36" onmousedown="handleReset()"/>
                <g id="arrowUp" xlink:href="#dirArrow" transform="translate(30 24)" onmousedown="handlePan(0,-1)">
                  <use xlink:href="#rim" fill="#404040">
                        <set attributeName="fill" to="#808080" begin="arrowUp.mouseover" end="arrowUp.mouseout"/>
                  </use>
                  <path fill="none" stroke="white" stroke-width="1.5" d="M0,-3.0v7 M-2.5,-0.5L0,-3.0L2.5,-0.5"/>
                </g>
                <g id="arrowRight" xlink:href="#dirArrow" transform="rotate(90) translate(36 -43)" onmousedown="handlePan(1,0)">
                  <use xlink:href="#rim" fill="#404040">
                        <set attributeName="fill" to="#808080" begin="arrowRight.mouseover" end="arrowRight.mouseout"/>
                  </use>
                  <path fill="none" stroke="white" stroke-width="1.5" d="M0,-3.0v7 M-2.5,-0.5L0,-3.0L2.5,-0.5"/>
                </g>
                <g id="arrowDown" xlink:href="#dirArrow" transform="rotate(180) translate(-30 -48)" onmousedown="handlePan(0,1)">
                  <use xlink:href="#rim" fill="#404040">
                        <set attributeName="fill" to="#808080" begin="arrowDown.mouseover" end="arrowDown.mouseout"/>
                  </use>
                  <path fill="none" stroke="white" stroke-width="1.5" d="M0,-3.0v7 M-2.5,-0.5L0,-3.0L2.5,-0.5"/>
                </g>
                <g id="arrowLeft" xlink:href="#dirArrow" transform="rotate(270) translate(-36 17)" onmousedown="handlePan(-1,0)">
                  <use xlink:href="#rim" fill="#404040">
                        <set attributeName="fill" to="#808080" begin="arrowLeft.mouseover" end="arrowLeft.mouseout"/>
                  </use>
                  <path fill="none" stroke="white" stroke-width="1.5" d="M0,-3.0v7 M-2.5,-0.5L0,-3.0L2.5,-0.5"/>
                </g>
        </g>
        <svg viewBox="0 0 15 15" width="100%" height="30px" preserveAspectRatio="xMaxYMin meet">
         <g id="arrow_out" transform="scale(0.3 0.3)">
          <a xlink:href="GeometryTest_8cxx__incl_org.svg" target="_base">
           <rect id="button" ry="5" rx="5" y="6" x="6" height="38" width="38"
                fill="#f2f5e9" fill-opacity="0.5" stroke="#606060" stroke-width="1.0"/>
           <path id="arrow"
             d="M 11.500037,31.436501 C 11.940474,20.09759 22.043105,11.32322 32.158766,21.979434 L 37.068811,17.246167 C 37.068811,17.246167 37.088388,32 37.088388,32 L 22.160133,31.978069 C 22.160133,31.978069 26.997745,27.140456 26.997745,27.140456 C 18.528582,18.264221 13.291696,25.230495 11.500037,31.436501 z"
             style="fill:#404040;"/>
          </a>
         </g>
        </svg>
</svg>
