<?xml version="1.0" encoding="UTF-8" standalone="no"?>
<!DOCTYPE svg PUBLIC "-//W3C//DTD SVG 1.1//EN"
 "http://www.w3.org/Graphics/SVG/1.1/DTD/svg11.dtd">
<!-- Generated by graphviz version 2.36.0 (20140111.2315)
 -->
<!-- Title: /home/travis/build/AliceO2Group/AliceO2/Framework/Core/include/Framework/ConfigParamsHelper.h Pages: 1 -->
<svg width="5060pt" height="242pt"
 viewBox="0.00 0.00 5060.00 242.00" xmlns="http://www.w3.org/2000/svg" xmlns:xlink="http://www.w3.org/1999/xlink">
<g id="graph0" class="graph" transform="scale(1 1) rotate(0) translate(4 238)">
<title>/home/travis/build/AliceO2Group/AliceO2/Framework/Core/include/Framework/ConfigParamsHelper.h</title>
<!-- Node1 -->
<g id="node1" class="node"><title>Node1</title>
<polygon fill="#bfbfbf" stroke="black" points="2734,-181 2734,-233 2904,-233 2904,-181 2734,-181"/>
<text text-anchor="start" x="2742" y="-221" font-family="Helvetica,sans-Serif" font-size="10.00">/home/travis/build</text>
<text text-anchor="start" x="2742" y="-210" font-family="Helvetica,sans-Serif" font-size="10.00">/AliceO2Group/AliceO2</text>
<text text-anchor="start" x="2742" y="-199" font-family="Helvetica,sans-Serif" font-size="10.00">/Framework/Core/include</text>
<text text-anchor="middle" x="2819" y="-188" font-family="Helvetica,sans-Serif" font-size="10.00">/Framework/ConfigParamsHelper.h</text>
</g>
<!-- Node2 -->
<g id="node2" class="node"><title>Node2</title>
<g id="a_node2"><a xlink:href="../../db/dd0/runDataProcessing_8h.html" target="_top" xlink:title="/home/travis/build\l/AliceO2Group/AliceO2\l/Framework/Core/include\l/Framework/runDataProcessing.h">
<polygon fill="none" stroke="black" points="2362.5,-91 2362.5,-143 2525.5,-143 2525.5,-91 2362.5,-91"/>
<text text-anchor="start" x="2370.5" y="-131" font-family="Helvetica,sans-Serif" font-size="10.00">/home/travis/build</text>
<text text-anchor="start" x="2370.5" y="-120" font-family="Helvetica,sans-Serif" font-size="10.00">/AliceO2Group/AliceO2</text>
<text text-anchor="start" x="2370.5" y="-109" font-family="Helvetica,sans-Serif" font-size="10.00">/Framework/Core/include</text>
<text text-anchor="middle" x="2444" y="-98" font-family="Helvetica,sans-Serif" font-size="10.00">/Framework/runDataProcessing.h</text>
</a>
</g>
</g>
<!-- Node1&#45;&gt;Node2 -->
<g id="edge1" class="edge"><title>Node1&#45;&gt;Node2</title>
<path fill="none" stroke="midnightblue" d="M2724.06,-186.844C2668.71,-175.285 2597.67,-159.777 2535,-144 2531.97,-143.238 2528.89,-142.446 2525.79,-141.632"/>
<polygon fill="midnightblue" stroke="midnightblue" points="2723.35,-190.272 2733.86,-188.883 2724.78,-183.418 2723.35,-190.272"/>
</g>
<!-- Node33 -->
<g id="node33" class="node"><title>Node33</title>
<g id="a_node33"><a xlink:href="../../d8/d9d/ConfigParamsHelper_8cxx.html" target="_top" xlink:title="/home/travis/build\l/AliceO2Group/AliceO2\l/Framework/Core/src/ConfigParams\lHelper.cxx">
<polygon fill="none" stroke="black" points="2544,-91 2544,-143 2718,-143 2718,-91 2544,-91"/>
<text text-anchor="start" x="2552" y="-131" font-family="Helvetica,sans-Serif" font-size="10.00">/home/travis/build</text>
<text text-anchor="start" x="2552" y="-120" font-family="Helvetica,sans-Serif" font-size="10.00">/AliceO2Group/AliceO2</text>
<text text-anchor="start" x="2552" y="-109" font-family="Helvetica,sans-Serif" font-size="10.00">/Framework/Core/src/ConfigParams</text>
<text text-anchor="middle" x="2631" y="-98" font-family="Helvetica,sans-Serif" font-size="10.00">Helper.cxx</text>
</a>
</g>
</g>
<!-- Node1&#45;&gt;Node33 -->
<g id="edge32" class="edge"><title>Node1&#45;&gt;Node33</title>
<path fill="none" stroke="midnightblue" d="M2756.31,-176.654C2733.1,-165.792 2707.03,-153.586 2684.69,-143.133"/>
<polygon fill="midnightblue" stroke="midnightblue" points="2754.84,-179.831 2765.38,-180.901 2757.81,-173.491 2754.84,-179.831"/>
</g>
<!-- Node34 -->
<g id="node34" class="node"><title>Node34</title>
<g id="a_node34"><a xlink:href="../../d1/dd9/DeviceSpecHelpers_8cxx.html" target="_top" xlink:title="/home/travis/build\l/AliceO2Group/AliceO2\l/Framework/Core/src/DeviceSpec\lHelpers.cxx">
<polygon fill="none" stroke="black" points="2736.5,-91 2736.5,-143 2901.5,-143 2901.5,-91 2736.5,-91"/>
<text text-anchor="start" x="2744.5" y="-131" font-family="Helvetica,sans-Serif" font-size="10.00">/home/travis/build</text>
<text text-anchor="start" x="2744.5" y="-120" font-family="Helvetica,sans-Serif" font-size="10.00">/AliceO2Group/AliceO2</text>
<text text-anchor="start" x="2744.5" y="-109" font-family="Helvetica,sans-Serif" font-size="10.00">/Framework/Core/src/DeviceSpec</text>
<text text-anchor="middle" x="2819" y="-98" font-family="Helvetica,sans-Serif" font-size="10.00">Helpers.cxx</text>
</a>
</g>
</g>
<!-- Node1&#45;&gt;Node34 -->
<g id="edge33" class="edge"><title>Node1&#45;&gt;Node34</title>
<path fill="none" stroke="midnightblue" d="M2819,-170.489C2819,-161.309 2819,-151.616 2819,-143.092"/>
<polygon fill="midnightblue" stroke="midnightblue" points="2815.5,-170.547 2819,-180.547 2822.5,-170.547 2815.5,-170.547"/>
</g>
<!-- Node35 -->
<g id="node35" class="node"><title>Node35</title>
<g id="a_node35"><a xlink:href="../../d7/d54/runDataProcessing_8cxx.html" target="_top" xlink:title="/home/travis/build\l/AliceO2Group/AliceO2\l/Framework/Core/src/runDataProcessing.cxx">
<polygon fill="none" stroke="black" points="2920,-96.5 2920,-137.5 3134,-137.5 3134,-96.5 2920,-96.5"/>
<text text-anchor="start" x="2928" y="-125.5" font-family="Helvetica,sans-Serif" font-size="10.00">/home/travis/build</text>
<text text-anchor="start" x="2928" y="-114.5" font-family="Helvetica,sans-Serif" font-size="10.00">/AliceO2Group/AliceO2</text>
<text text-anchor="middle" x="3027" y="-103.5" font-family="Helvetica,sans-Serif" font-size="10.00">/Framework/Core/src/runDataProcessing.cxx</text>
</a>
</g>
</g>
<!-- Node1&#45;&gt;Node35 -->
<g id="edge34" class="edge"><title>Node1&#45;&gt;Node35</title>
<path fill="none" stroke="midnightblue" d="M2887.65,-176.954C2918.24,-164.016 2953.44,-149.12 2980.82,-137.538"/>
<polygon fill="midnightblue" stroke="midnightblue" points="2886.17,-173.781 2878.33,-180.901 2888.9,-180.227 2886.17,-173.781"/>
</g>
<!-- Node36 -->
<g id="node36" class="node"><title>Node36</title>
<g id="a_node36"><a xlink:href="../../dc/dbc/test__BoostOptionsRetriever_8cxx.html" target="_top" xlink:title="/home/travis/build\l/AliceO2Group/AliceO2\l/Framework/Core/test/test\l_BoostOptionsRetriever.cxx">
<polygon fill="none" stroke="black" points="3152,-91 3152,-143 3292,-143 3292,-91 3152,-91"/>
<text text-anchor="start" x="3160" y="-131" font-family="Helvetica,sans-Serif" font-size="10.00">/home/travis/build</text>
<text text-anchor="start" x="3160" y="-120" font-family="Helvetica,sans-Serif" font-size="10.00">/AliceO2Group/AliceO2</text>
<text text-anchor="start" x="3160" y="-109" font-family="Helvetica,sans-Serif" font-size="10.00">/Framework/Core/test/test</text>
<text text-anchor="middle" x="3222" y="-98" font-family="Helvetica,sans-Serif" font-size="10.00">_BoostOptionsRetriever.cxx</text>
</a>
</g>
</g>
<!-- Node1&#45;&gt;Node36 -->
<g id="edge35" class="edge"><title>Node1&#45;&gt;Node36</title>
<path fill="none" stroke="midnightblue" d="M2914.49,-190.887C2979.16,-179.868 3066.28,-163.49 3142,-144 3145.25,-143.163 3148.57,-142.266 3151.91,-141.327"/>
<polygon fill="midnightblue" stroke="midnightblue" points="2913.59,-187.49 2904.31,-192.609 2914.76,-194.392 2913.59,-187.49"/>
</g>
<!-- Node3 -->
<g id="node3" class="node"><title>Node3</title>
<g id="a_node3"><a xlink:href="../../d3/dbf/tpc-reco-workflow_8cxx.html" target="_top" xlink:title="Basic DPL workflow for TPC reconstruction starting from digits. ">
<polygon fill="none" stroke="black" points="0,-1 0,-53 132,-53 132,-1 0,-1"/>
<text text-anchor="start" x="8" y="-41" font-family="Helvetica,sans-Serif" font-size="10.00">/home/travis/build</text>
<text text-anchor="start" x="8" y="-30" font-family="Helvetica,sans-Serif" font-size="10.00">/AliceO2Group/AliceO2</text>
<text text-anchor="start" x="8" y="-19" font-family="Helvetica,sans-Serif" font-size="10.00">/Detectors/TPC/workflow</text>
<text text-anchor="middle" x="66" y="-8" font-family="Helvetica,sans-Serif" font-size="10.00">/src/tpc&#45;reco&#45;workflow.cxx</text>
</a>
</g>
</g>
<!-- Node2&#45;&gt;Node3 -->
<g id="edge2" class="edge"><title>Node2&#45;&gt;Node3</title>
<path fill="none" stroke="midnightblue" d="M2352.09,-115.188C1950.59,-111.416 360.75,-94.0578 141,-54 138.153,-53.481 135.268,-52.8722 132.371,-52.1918"/>
<polygon fill="midnightblue" stroke="midnightblue" points="2352.18,-118.689 2362.21,-115.283 2352.24,-111.689 2352.18,-118.689"/>
</g>
<!-- Node4 -->
<g id="node4" class="node"><title>Node4</title>
<g id="a_node4"><a xlink:href="../../d2/da2/test__DataAllocator_8cxx.html" target="_top" xlink:title="/home/travis/build\l/AliceO2Group/AliceO2\l/Framework/Core/test/test\l_DataAllocator.cxx">
<polygon fill="none" stroke="black" points="150.5,-1 150.5,-53 281.5,-53 281.5,-1 150.5,-1"/>
<text text-anchor="start" x="158.5" y="-41" font-family="Helvetica,sans-Serif" font-size="10.00">/home/travis/build</text>
<text text-anchor="start" x="158.5" y="-30" font-family="Helvetica,sans-Serif" font-size="10.00">/AliceO2Group/AliceO2</text>
<text text-anchor="start" x="158.5" y="-19" font-family="Helvetica,sans-Serif" font-size="10.00">/Framework/Core/test/test</text>
<text text-anchor="middle" x="216" y="-8" font-family="Helvetica,sans-Serif" font-size="10.00">_DataAllocator.cxx</text>
</a>
</g>
</g>
<!-- Node2&#45;&gt;Node4 -->
<g id="edge3" class="edge"><title>Node2&#45;&gt;Node4</title>
<path fill="none" stroke="midnightblue" d="M2352.08,-115.026C1967.04,-110.717 494.36,-91.8901 290,-54 287.322,-53.5035 284.611,-52.9259 281.888,-52.2829"/>
<polygon fill="midnightblue" stroke="midnightblue" points="2352.3,-118.528 2362.34,-115.14 2352.38,-111.529 2352.3,-118.528"/>
</g>
<!-- Node5 -->
<g id="node5" class="node"><title>Node5</title>
<g id="a_node5"><a xlink:href="../../d3/d4b/test__GenericSource_8cxx.html" target="_top" xlink:title="/home/travis/build\l/AliceO2Group/AliceO2\l/Framework/Core/test/test\l_GenericSource.cxx">
<polygon fill="none" stroke="black" points="299.5,-1 299.5,-53 430.5,-53 430.5,-1 299.5,-1"/>
<text text-anchor="start" x="307.5" y="-41" font-family="Helvetica,sans-Serif" font-size="10.00">/home/travis/build</text>
<text text-anchor="start" x="307.5" y="-30" font-family="Helvetica,sans-Serif" font-size="10.00">/AliceO2Group/AliceO2</text>
<text text-anchor="start" x="307.5" y="-19" font-family="Helvetica,sans-Serif" font-size="10.00">/Framework/Core/test/test</text>
<text text-anchor="middle" x="365" y="-8" font-family="Helvetica,sans-Serif" font-size="10.00">_GenericSource.cxx</text>
</a>
</g>
</g>
<!-- Node2&#45;&gt;Node5 -->
<g id="edge4" class="edge"><title>Node2&#45;&gt;Node5</title>
<path fill="none" stroke="midnightblue" d="M2352.39,-114.818C1984.87,-109.851 628.144,-89.278 439,-54 436.323,-53.5007 433.612,-52.9206 430.89,-52.2756"/>
<polygon fill="midnightblue" stroke="midnightblue" points="2352.4,-118.318 2362.45,-114.953 2352.5,-111.319 2352.4,-118.318"/>
</g>
<!-- Node6 -->
<g id="node6" class="node"><title>Node6</title>
<g id="a_node6"><a xlink:href="../../d3/d66/test__Parallel_8cxx.html" target="_top" xlink:title="/home/travis/build\l/AliceO2Group/AliceO2\l/Framework/Core/test/test\l_Parallel.cxx">
<polygon fill="none" stroke="black" points="448.5,-1 448.5,-53 579.5,-53 579.5,-1 448.5,-1"/>
<text text-anchor="start" x="456.5" y="-41" font-family="Helvetica,sans-Serif" font-size="10.00">/home/travis/build</text>
<text text-anchor="start" x="456.5" y="-30" font-family="Helvetica,sans-Serif" font-size="10.00">/AliceO2Group/AliceO2</text>
<text text-anchor="start" x="456.5" y="-19" font-family="Helvetica,sans-Serif" font-size="10.00">/Framework/Core/test/test</text>
<text text-anchor="middle" x="514" y="-8" font-family="Helvetica,sans-Serif" font-size="10.00">_Parallel.cxx</text>
</a>
</g>
</g>
<!-- Node2&#45;&gt;Node6 -->
<g id="edge5" class="edge"><title>Node2&#45;&gt;Node6</title>
<path fill="none" stroke="midnightblue" d="M2352.28,-114.571C2002.32,-108.897 761.896,-86.6573 588,-54 585.323,-53.4973 582.613,-52.9145 579.891,-52.2671"/>
<polygon fill="midnightblue" stroke="midnightblue" points="2352.32,-118.072 2362.37,-114.735 2352.43,-111.073 2352.32,-118.072"/>
</g>
<!-- Node7 -->
<g id="node7" class="node"><title>Node7</title>
<g id="a_node7"><a xlink:href="../../d0/d0b/test__ParallelProducer_8cxx.html" target="_top" xlink:title="/home/travis/build\l/AliceO2Group/AliceO2\l/Framework/Core/test/test\l_ParallelProducer.cxx">
<polygon fill="none" stroke="black" points="597.5,-1 597.5,-53 728.5,-53 728.5,-1 597.5,-1"/>
<text text-anchor="start" x="605.5" y="-41" font-family="Helvetica,sans-Serif" font-size="10.00">/home/travis/build</text>
<text text-anchor="start" x="605.5" y="-30" font-family="Helvetica,sans-Serif" font-size="10.00">/AliceO2Group/AliceO2</text>
<text text-anchor="start" x="605.5" y="-19" font-family="Helvetica,sans-Serif" font-size="10.00">/Framework/Core/test/test</text>
<text text-anchor="middle" x="663" y="-8" font-family="Helvetica,sans-Serif" font-size="10.00">_ParallelProducer.cxx</text>
</a>
</g>
</g>
<!-- Node2&#45;&gt;Node7 -->
<g id="edge6" class="edge"><title>Node2&#45;&gt;Node7</title>
<path fill="none" stroke="midnightblue" d="M2352.15,-116.247C2044.42,-116.516 1051.61,-112.694 738,-54 734.884,-53.4169 731.723,-52.7287 728.55,-51.959"/>
<polygon fill="midnightblue" stroke="midnightblue" points="2352.37,-119.747 2362.37,-116.237 2352.36,-112.747 2352.37,-119.747"/>
</g>
<!-- Node8 -->
<g id="node8" class="node"><title>Node8</title>
<g id="a_node8"><a xlink:href="../../d5/d24/test__SimpleDataProcessingDevice01_8cxx.html" target="_top" xlink:title="/home/travis/build\l/AliceO2Group/AliceO2\l/Framework/Core/test/test\l_SimpleDataProcessingDevice01.cxx">
<polygon fill="none" stroke="black" points="747,-1 747,-53 929,-53 929,-1 747,-1"/>
<text text-anchor="start" x="755" y="-41" font-family="Helvetica,sans-Serif" font-size="10.00">/home/travis/build</text>
<text text-anchor="start" x="755" y="-30" font-family="Helvetica,sans-Serif" font-size="10.00">/AliceO2Group/AliceO2</text>
<text text-anchor="start" x="755" y="-19" font-family="Helvetica,sans-Serif" font-size="10.00">/Framework/Core/test/test</text>
<text text-anchor="middle" x="838" y="-8" font-family="Helvetica,sans-Serif" font-size="10.00">_SimpleDataProcessingDevice01.cxx</text>
</a>
</g>
</g>
<!-- Node2&#45;&gt;Node8 -->
<g id="edge7" class="edge"><title>Node2&#45;&gt;Node8</title>
<path fill="none" stroke="midnightblue" d="M2352.14,-114.783C2069.13,-110.63 1213,-94.932 938,-54 935.072,-53.5643 932.107,-53.0767 929.12,-52.5457"/>
<polygon fill="midnightblue" stroke="midnightblue" points="2352.32,-118.286 2362.37,-114.932 2352.42,-111.287 2352.32,-118.286"/>
</g>
<!-- Node9 -->
<g id="node9" class="node"><title>Node9</title>
<g id="a_node9"><a xlink:href="../../da/d12/test__SimpleStatefulProcessing01_8cxx.html" target="_top" xlink:title="/home/travis/build\l/AliceO2Group/AliceO2\l/Framework/Core/test/test\l_SimpleStatefulProcessing01.cxx">
<polygon fill="none" stroke="black" points="947,-1 947,-53 1111,-53 1111,-1 947,-1"/>
<text text-anchor="start" x="955" y="-41" font-family="Helvetica,sans-Serif" font-size="10.00">/home/travis/build</text>
<text text-anchor="start" x="955" y="-30" font-family="Helvetica,sans-Serif" font-size="10.00">/AliceO2Group/AliceO2</text>
<text text-anchor="start" x="955" y="-19" font-family="Helvetica,sans-Serif" font-size="10.00">/Framework/Core/test/test</text>
<text text-anchor="middle" x="1029" y="-8" font-family="Helvetica,sans-Serif" font-size="10.00">_SimpleStatefulProcessing01.cxx</text>
</a>
</g>
</g>
<!-- Node2&#45;&gt;Node9 -->
<g id="edge8" class="edge"><title>Node2&#45;&gt;Node9</title>
<path fill="none" stroke="midnightblue" d="M2352.18,-114.464C2092.77,-109.686 1357.81,-92.9995 1120,-54 1117.08,-53.5214 1114.12,-52.9815 1111.15,-52.3914"/>
<polygon fill="midnightblue" stroke="midnightblue" points="2352.26,-117.966 2362.32,-114.649 2352.39,-110.967 2352.26,-117.966"/>
</g>
<!-- Node10 -->
<g id="node10" class="node"><title>Node10</title>
<g id="a_node10"><a xlink:href="../../d3/d4e/test__SingleDataSource_8cxx.html" target="_top" xlink:title="/home/travis/build\l/AliceO2Group/AliceO2\l/Framework/Core/test/test\l_SingleDataSource.cxx">
<polygon fill="none" stroke="black" points="1129.5,-1 1129.5,-53 1260.5,-53 1260.5,-1 1129.5,-1"/>
<text text-anchor="start" x="1137.5" y="-41" font-family="Helvetica,sans-Serif" font-size="10.00">/home/travis/build</text>
<text text-anchor="start" x="1137.5" y="-30" font-family="Helvetica,sans-Serif" font-size="10.00">/AliceO2Group/AliceO2</text>
<text text-anchor="start" x="1137.5" y="-19" font-family="Helvetica,sans-Serif" font-size="10.00">/Framework/Core/test/test</text>
<text text-anchor="middle" x="1195" y="-8" font-family="Helvetica,sans-Serif" font-size="10.00">_SingleDataSource.cxx</text>
</a>
</g>
</g>
<!-- Node2&#45;&gt;Node10 -->
<g id="edge9" class="edge"><title>Node2&#45;&gt;Node10</title>
<path fill="none" stroke="midnightblue" d="M2352.09,-114.527C2113,-110.157 1475.82,-94.9122 1269,-54 1266.33,-53.4715 1263.62,-52.8669 1260.9,-52.2013"/>
<polygon fill="midnightblue" stroke="midnightblue" points="2352.08,-118.028 2362.15,-114.709 2352.21,-111.029 2352.08,-118.028"/>
</g>
<!-- Node11 -->
<g id="node11" class="node"><title>Node11</title>
<g id="a_node11"><a xlink:href="../../d1/d4f/test__TimePipeline_8cxx.html" target="_top" xlink:title="/home/travis/build\l/AliceO2Group/AliceO2\l/Framework/Core/test/test\l_TimePipeline.cxx">
<polygon fill="none" stroke="black" points="1278.5,-1 1278.5,-53 1409.5,-53 1409.5,-1 1278.5,-1"/>
<text text-anchor="start" x="1286.5" y="-41" font-family="Helvetica,sans-Serif" font-size="10.00">/home/travis/build</text>
<text text-anchor="start" x="1286.5" y="-30" font-family="Helvetica,sans-Serif" font-size="10.00">/AliceO2Group/AliceO2</text>
<text text-anchor="start" x="1286.5" y="-19" font-family="Helvetica,sans-Serif" font-size="10.00">/Framework/Core/test/test</text>
<text text-anchor="middle" x="1344" y="-8" font-family="Helvetica,sans-Serif" font-size="10.00">_TimePipeline.cxx</text>
</a>
</g>
</g>
<!-- Node2&#45;&gt;Node11 -->
<g id="edge10" class="edge"><title>Node2&#45;&gt;Node11</title>
<path fill="none" stroke="midnightblue" d="M2352.41,-113.716C2135.5,-107.782 1595.36,-89.7889 1418,-54 1415.2,-53.4344 1412.36,-52.7866 1409.5,-52.0739"/>
<polygon fill="midnightblue" stroke="midnightblue" points="2352.4,-117.217 2362.49,-113.989 2352.59,-110.219 2352.4,-117.217"/>
</g>
<!-- Node12 -->
<g id="node12" class="node"><title>Node12</title>
<g id="a_node12"><a xlink:href="../../d2/d5d/test__WorkflowOptions_8cxx.html" target="_top" xlink:title="/home/travis/build\l/AliceO2Group/AliceO2\l/Framework/Core/test/test\l_WorkflowOptions.cxx">
<polygon fill="none" stroke="black" points="1427.5,-1 1427.5,-53 1558.5,-53 1558.5,-1 1427.5,-1"/>
<text text-anchor="start" x="1435.5" y="-41" font-family="Helvetica,sans-Serif" font-size="10.00">/home/travis/build</text>
<text text-anchor="start" x="1435.5" y="-30" font-family="Helvetica,sans-Serif" font-size="10.00">/AliceO2Group/AliceO2</text>
<text text-anchor="start" x="1435.5" y="-19" font-family="Helvetica,sans-Serif" font-size="10.00">/Framework/Core/test/test</text>
<text text-anchor="middle" x="1493" y="-8" font-family="Helvetica,sans-Serif" font-size="10.00">_WorkflowOptions.cxx</text>
</a>
</g>
</g>
<!-- Node2&#45;&gt;Node12 -->
<g id="edge11" class="edge"><title>Node2&#45;&gt;Node12</title>
<path fill="none" stroke="midnightblue" d="M2352.01,-112.609C2158.49,-104.967 1714.94,-84.6405 1567,-54 1564.2,-53.42 1561.36,-52.7603 1558.51,-52.0377"/>
<polygon fill="midnightblue" stroke="midnightblue" points="2352.03,-116.112 2362.16,-113.007 2352.3,-109.118 2352.03,-116.112"/>
</g>
<!-- Node13 -->
<g id="node13" class="node"><title>Node13</title>
<g id="a_node13"><a xlink:href="../../d2/dad/dataSamplingFullChain_8cxx.html" target="_top" xlink:title="/home/travis/build\l/AliceO2Group/AliceO2\l/Framework/TestWorkflows\l/src/dataSamplingFullChain.cxx">
<polygon fill="none" stroke="black" points="1576.5,-1 1576.5,-53 1731.5,-53 1731.5,-1 1576.5,-1"/>
<text text-anchor="start" x="1584.5" y="-41" font-family="Helvetica,sans-Serif" font-size="10.00">/home/travis/build</text>
<text text-anchor="start" x="1584.5" y="-30" font-family="Helvetica,sans-Serif" font-size="10.00">/AliceO2Group/AliceO2</text>
<text text-anchor="start" x="1584.5" y="-19" font-family="Helvetica,sans-Serif" font-size="10.00">/Framework/TestWorkflows</text>
<text text-anchor="middle" x="1654" y="-8" font-family="Helvetica,sans-Serif" font-size="10.00">/src/dataSamplingFullChain.cxx</text>
</a>
</g>
</g>
<!-- Node2&#45;&gt;Node13 -->
<g id="edge12" class="edge"><title>Node2&#45;&gt;Node13</title>
<path fill="none" stroke="midnightblue" d="M2352.04,-113.813C2216.98,-109.268 1957.53,-95.4598 1741,-54 1737.9,-53.4071 1734.76,-52.7481 1731.59,-52.037"/>
<polygon fill="midnightblue" stroke="midnightblue" points="2352.23,-117.321 2362.34,-114.149 2352.46,-110.324 2352.23,-117.321"/>
</g>
<!-- Node14 -->
<g id="node14" class="node"><title>Node14</title>
<g id="a_node14"><a xlink:href="../../d3/dbe/dataSamplingParallel_8cxx.html" target="_top" xlink:title="/home/travis/build\l/AliceO2Group/AliceO2\l/Framework/TestWorkflows\l/src/dataSamplingParallel.cxx">
<polygon fill="none" stroke="black" points="1750,-1 1750,-53 1896,-53 1896,-1 1750,-1"/>
<text text-anchor="start" x="1758" y="-41" font-family="Helvetica,sans-Serif" font-size="10.00">/home/travis/build</text>
<text text-anchor="start" x="1758" y="-30" font-family="Helvetica,sans-Serif" font-size="10.00">/AliceO2Group/AliceO2</text>
<text text-anchor="start" x="1758" y="-19" font-family="Helvetica,sans-Serif" font-size="10.00">/Framework/TestWorkflows</text>
<text text-anchor="middle" x="1823" y="-8" font-family="Helvetica,sans-Serif" font-size="10.00">/src/dataSamplingParallel.cxx</text>
</a>
</g>
</g>
<!-- Node2&#45;&gt;Node14 -->
<g id="edge13" class="edge"><title>Node2&#45;&gt;Node14</title>
<path fill="none" stroke="midnightblue" d="M2352.19,-110.837C2244.21,-103.526 2060.04,-87.1724 1905,-54 1902.08,-53.3751 1899.11,-52.6891 1896.13,-51.9554"/>
<polygon fill="midnightblue" stroke="midnightblue" points="2352.19,-114.345 2362.4,-111.517 2352.65,-107.36 2352.19,-114.345"/>
</g>
<!-- Node15 -->
<g id="node15" class="node"><title>Node15</title>
<g id="a_node15"><a xlink:href="../../de/da3/dataSamplingPodAndRoot_8cxx.html" target="_top" xlink:title="/home/travis/build\l/AliceO2Group/AliceO2\l/Framework/TestWorkflows\l/src/dataSamplingPodAndRoot.cxx">
<polygon fill="none" stroke="black" points="1914,-1 1914,-53 2084,-53 2084,-1 1914,-1"/>
<text text-anchor="start" x="1922" y="-41" font-family="Helvetica,sans-Serif" font-size="10.00">/home/travis/build</text>
<text text-anchor="start" x="1922" y="-30" font-family="Helvetica,sans-Serif" font-size="10.00">/AliceO2Group/AliceO2</text>
<text text-anchor="start" x="1922" y="-19" font-family="Helvetica,sans-Serif" font-size="10.00">/Framework/TestWorkflows</text>
<text text-anchor="middle" x="1999" y="-8" font-family="Helvetica,sans-Serif" font-size="10.00">/src/dataSamplingPodAndRoot.cxx</text>
</a>
</g>
</g>
<!-- Node2&#45;&gt;Node15 -->
<g id="edge14" class="edge"><title>Node2&#45;&gt;Node15</title>
<path fill="none" stroke="midnightblue" d="M2352.08,-102.214C2281,-90.9624 2180.3,-73.7366 2093,-54 2090.11,-53.3466 2087.18,-52.661 2084.22,-51.9507"/>
<polygon fill="midnightblue" stroke="midnightblue" points="2351.93,-105.733 2362.35,-103.831 2353.02,-98.8183 2351.93,-105.733"/>
</g>
<!-- Node16 -->
<g id="node16" class="node"><title>Node16</title>
<g id="a_node16"><a xlink:href="../../db/d9e/dataSamplingTimePipeline_8cxx.html" target="_top" xlink:title="/home/travis/build\l/AliceO2Group/AliceO2\l/Framework/TestWorkflows\l/src/dataSamplingTimePipeline.cxx">
<polygon fill="none" stroke="black" points="2102,-1 2102,-53 2272,-53 2272,-1 2102,-1"/>
<text text-anchor="start" x="2110" y="-41" font-family="Helvetica,sans-Serif" font-size="10.00">/home/travis/build</text>
<text text-anchor="start" x="2110" y="-30" font-family="Helvetica,sans-Serif" font-size="10.00">/AliceO2Group/AliceO2</text>
<text text-anchor="start" x="2110" y="-19" font-family="Helvetica,sans-Serif" font-size="10.00">/Framework/TestWorkflows</text>
<text text-anchor="middle" x="2187" y="-8" font-family="Helvetica,sans-Serif" font-size="10.00">/src/dataSamplingTimePipeline.cxx</text>
</a>
</g>
</g>
<!-- Node2&#45;&gt;Node16 -->
<g id="edge15" class="edge"><title>Node2&#45;&gt;Node16</title>
<path fill="none" stroke="midnightblue" d="M2361.23,-87.6588C2328.79,-76.5501 2291.87,-63.91 2260.4,-53.1328"/>
<polygon fill="midnightblue" stroke="midnightblue" points="2360.1,-90.9722 2370.7,-90.9005 2362.37,-84.3497 2360.1,-90.9722"/>
</g>
<!-- Node17 -->
<g id="node17" class="node"><title>Node17</title>
<g id="a_node17"><a xlink:href="../../d4/dbb/o2DiamondWorkflow_8cxx.html" target="_top" xlink:title="/home/travis/build\l/AliceO2Group/AliceO2\l/Framework/TestWorkflows\l/src/o2DiamondWorkflow.cxx">
<polygon fill="none" stroke="black" points="2290,-1 2290,-53 2436,-53 2436,-1 2290,-1"/>
<text text-anchor="start" x="2298" y="-41" font-family="Helvetica,sans-Serif" font-size="10.00">/home/travis/build</text>
<text text-anchor="start" x="2298" y="-30" font-family="Helvetica,sans-Serif" font-size="10.00">/AliceO2Group/AliceO2</text>
<text text-anchor="start" x="2298" y="-19" font-family="Helvetica,sans-Serif" font-size="10.00">/Framework/TestWorkflows</text>
<text text-anchor="middle" x="2363" y="-8" font-family="Helvetica,sans-Serif" font-size="10.00">/src/o2DiamondWorkflow.cxx</text>
</a>
</g>
</g>
<!-- Node2&#45;&gt;Node17 -->
<g id="edge16" class="edge"><title>Node2&#45;&gt;Node17</title>
<path fill="none" stroke="midnightblue" d="M2413.75,-83.1386C2404.6,-73.1958 2394.7,-62.4408 2386.1,-53.0921"/>
<polygon fill="midnightblue" stroke="midnightblue" points="2411.22,-85.5594 2420.57,-90.5468 2416.37,-80.8187 2411.22,-85.5594"/>
</g>
<!-- Node18 -->
<g id="node18" class="node"><title>Node18</title>
<g id="a_node18"><a xlink:href="../../da/dfd/o2DummyWorkflow_8cxx.html" target="_top" xlink:title="/home/travis/build\l/AliceO2Group/AliceO2\l/Framework/TestWorkflows\l/src/o2DummyWorkflow.cxx">
<polygon fill="none" stroke="black" points="2454.5,-1 2454.5,-53 2595.5,-53 2595.5,-1 2454.5,-1"/>
<text text-anchor="start" x="2462.5" y="-41" font-family="Helvetica,sans-Serif" font-size="10.00">/home/travis/build</text>
<text text-anchor="start" x="2462.5" y="-30" font-family="Helvetica,sans-Serif" font-size="10.00">/AliceO2Group/AliceO2</text>
<text text-anchor="start" x="2462.5" y="-19" font-family="Helvetica,sans-Serif" font-size="10.00">/Framework/TestWorkflows</text>
<text text-anchor="middle" x="2525" y="-8" font-family="Helvetica,sans-Serif" font-size="10.00">/src/o2DummyWorkflow.cxx</text>
</a>
</g>
</g>
<!-- Node2&#45;&gt;Node18 -->
<g id="edge17" class="edge"><title>Node2&#45;&gt;Node18</title>
<path fill="none" stroke="midnightblue" d="M2474.25,-83.1386C2483.4,-73.1958 2493.3,-62.4408 2501.9,-53.0921"/>
<polygon fill="midnightblue" stroke="midnightblue" points="2471.63,-80.8187 2467.43,-90.5468 2476.78,-85.5594 2471.63,-80.8187"/>
</g>
<!-- Node19 -->
<g id="node19" class="node"><title>Node19</title>
<g id="a_node19"><a xlink:href="../../d3/d09/o2ParallelWorkflow_8cxx.html" target="_top" xlink:title="/home/travis/build\l/AliceO2Group/AliceO2\l/Framework/TestWorkflows\l/src/o2ParallelWorkflow.cxx">
<polygon fill="none" stroke="black" points="2613.5,-1 2613.5,-53 2752.5,-53 2752.5,-1 2613.5,-1"/>
<text text-anchor="start" x="2621.5" y="-41" font-family="Helvetica,sans-Serif" font-size="10.00">/home/travis/build</text>
<text text-anchor="start" x="2621.5" y="-30" font-family="Helvetica,sans-Serif" font-size="10.00">/AliceO2Group/AliceO2</text>
<text text-anchor="start" x="2621.5" y="-19" font-family="Helvetica,sans-Serif" font-size="10.00">/Framework/TestWorkflows</text>
<text text-anchor="middle" x="2683" y="-8" font-family="Helvetica,sans-Serif" font-size="10.00">/src/o2ParallelWorkflow.cxx</text>
</a>
</g>
</g>
<!-- Node2&#45;&gt;Node19 -->
<g id="edge18" class="edge"><title>Node2&#45;&gt;Node19</title>
<path fill="none" stroke="midnightblue" d="M2521.75,-87.3724C2551.73,-76.3332 2585.72,-63.8175 2614.74,-53.1328"/>
<polygon fill="midnightblue" stroke="midnightblue" points="2520.34,-84.1608 2512.17,-90.9005 2522.76,-90.7296 2520.34,-84.1608"/>
</g>
<!-- Node20 -->
<g id="node20" class="node"><title>Node20</title>
<g id="a_node20"><a xlink:href="../../d5/d8c/o2SyncReconstructionDummy_8cxx.html" target="_top" xlink:title="/home/travis/build\l/AliceO2Group/AliceO2\l/Framework/TestWorkflows\l/src/o2SyncReconstructionDummy.cxx">
<polygon fill="none" stroke="black" points="2771,-1 2771,-53 2959,-53 2959,-1 2771,-1"/>
<text text-anchor="start" x="2779" y="-41" font-family="Helvetica,sans-Serif" font-size="10.00">/home/travis/build</text>
<text text-anchor="start" x="2779" y="-30" font-family="Helvetica,sans-Serif" font-size="10.00">/AliceO2Group/AliceO2</text>
<text text-anchor="start" x="2779" y="-19" font-family="Helvetica,sans-Serif" font-size="10.00">/Framework/TestWorkflows</text>
<text text-anchor="middle" x="2865" y="-8" font-family="Helvetica,sans-Serif" font-size="10.00">/src/o2SyncReconstructionDummy.cxx</text>
</a>
</g>
</g>
<!-- Node2&#45;&gt;Node20 -->
<g id="edge19" class="edge"><title>Node2&#45;&gt;Node20</title>
<path fill="none" stroke="midnightblue" d="M2535.68,-89.9685C2636.06,-68.3608 2664.46,-73.7175 2761,-54 2764.28,-53.3296 2767.62,-52.625 2770.98,-51.8942"/>
<polygon fill="midnightblue" stroke="midnightblue" points="2534.75,-86.5878 2525.73,-92.1455 2536.25,-93.4258 2534.75,-86.5878"/>
</g>
<!-- Node21 -->
<g id="node21" class="node"><title>Node21</title>
<g id="a_node21"><a xlink:href="../../d8/d33/test__CompletionPolicies_8cxx.html" target="_top" xlink:title="/home/travis/build\l/AliceO2Group/AliceO2\l/Framework/TestWorkflows\l/src/test_CompletionPolicies.cxx">
<polygon fill="none" stroke="black" points="2977.5,-1 2977.5,-53 3138.5,-53 3138.5,-1 2977.5,-1"/>
<text text-anchor="start" x="2985.5" y="-41" font-family="Helvetica,sans-Serif" font-size="10.00">/home/travis/build</text>
<text text-anchor="start" x="2985.5" y="-30" font-family="Helvetica,sans-Serif" font-size="10.00">/AliceO2Group/AliceO2</text>
<text text-anchor="start" x="2985.5" y="-19" font-family="Helvetica,sans-Serif" font-size="10.00">/Framework/TestWorkflows</text>
<text text-anchor="middle" x="3058" y="-8" font-family="Helvetica,sans-Serif" font-size="10.00">/src/test_CompletionPolicies.cxx</text>
</a>
</g>
</g>
<!-- Node2&#45;&gt;Node21 -->
<g id="edge20" class="edge"><title>Node2&#45;&gt;Node21</title>
<path fill="none" stroke="midnightblue" d="M2535.77,-90.0378C2726.82,-56.4396 2781.33,-88.3717 2968,-54 2971.04,-53.4404 2974.12,-52.8207 2977.23,-52.1528"/>
<polygon fill="midnightblue" stroke="midnightblue" points="2534.9,-86.6375 2525.67,-91.8504 2536.14,-93.5272 2534.9,-86.6375"/>
</g>
<!-- Node22 -->
<g id="node22" class="node"><title>Node22</title>
<g id="a_node22"><a xlink:href="../../db/dbe/test__o2ITSCluserizer_8cxx.html" target="_top" xlink:title="/home/travis/build\l/AliceO2Group/AliceO2\l/Framework/TestWorkflows\l/src/test_o2ITSCluserizer.cxx">
<polygon fill="none" stroke="black" points="3156.5,-1 3156.5,-53 3303.5,-53 3303.5,-1 3156.5,-1"/>
<text text-anchor="start" x="3164.5" y="-41" font-family="Helvetica,sans-Serif" font-size="10.00">/home/travis/build</text>
<text text-anchor="start" x="3164.5" y="-30" font-family="Helvetica,sans-Serif" font-size="10.00">/AliceO2Group/AliceO2</text>
<text text-anchor="start" x="3164.5" y="-19" font-family="Helvetica,sans-Serif" font-size="10.00">/Framework/TestWorkflows</text>
<text text-anchor="middle" x="3230" y="-8" font-family="Helvetica,sans-Serif" font-size="10.00">/src/test_o2ITSCluserizer.cxx</text>
</a>
</g>
</g>
<!-- Node2&#45;&gt;Node22 -->
<g id="edge21" class="edge"><title>Node2&#45;&gt;Node22</title>
<path fill="none" stroke="midnightblue" d="M2535.75,-90.064C2805.48,-45.7176 2882.26,-102.493 3147,-54 3150.12,-53.4287 3153.29,-52.7761 3156.47,-52.0595"/>
<polygon fill="midnightblue" stroke="midnightblue" points="2534.94,-86.65 2525.66,-91.7548 2536.1,-93.5537 2534.94,-86.65"/>
</g>
<!-- Node23 -->
<g id="node23" class="node"><title>Node23</title>
<g id="a_node23"><a xlink:href="../../d6/d4c/test__o2RootMessageWorkflow_8cxx.html" target="_top" xlink:title="/home/travis/build\l/AliceO2Group/AliceO2\l/Framework/TestWorkflows\l/src/test_o2RootMessageWorkflow.cxx">
<polygon fill="none" stroke="black" points="3321.5,-1 3321.5,-53 3510.5,-53 3510.5,-1 3321.5,-1"/>
<text text-anchor="start" x="3329.5" y="-41" font-family="Helvetica,sans-Serif" font-size="10.00">/home/travis/build</text>
<text text-anchor="start" x="3329.5" y="-30" font-family="Helvetica,sans-Serif" font-size="10.00">/AliceO2Group/AliceO2</text>
<text text-anchor="start" x="3329.5" y="-19" font-family="Helvetica,sans-Serif" font-size="10.00">/Framework/TestWorkflows</text>
<text text-anchor="middle" x="3416" y="-8" font-family="Helvetica,sans-Serif" font-size="10.00">/src/test_o2RootMessageWorkflow.cxx</text>
</a>
</g>
</g>
<!-- Node2&#45;&gt;Node23 -->
<g id="edge22" class="edge"><title>Node2&#45;&gt;Node23</title>
<path fill="none" stroke="midnightblue" d="M2535.59,-90.0956C2877.97,-35.4612 2973.21,-103.692 3312,-54 3315.04,-53.5543 3318.12,-53.0581 3321.22,-52.5197"/>
<polygon fill="midnightblue" stroke="midnightblue" points="2534.96,-86.652 2525.65,-91.7055 2536.08,-93.562 2534.96,-86.652"/>
</g>
<!-- Node24 -->
<g id="node24" class="node"><title>Node24</title>
<g id="a_node24"><a xlink:href="../../d1/d09/test__o2TPCSimulation_8cxx.html" target="_top" xlink:title="/home/travis/build\l/AliceO2Group/AliceO2\l/Framework/TestWorkflows\l/src/test_o2TPCSimulation.cxx">
<polygon fill="none" stroke="black" points="3528.5,-1 3528.5,-53 3681.5,-53 3681.5,-1 3528.5,-1"/>
<text text-anchor="start" x="3536.5" y="-41" font-family="Helvetica,sans-Serif" font-size="10.00">/home/travis/build</text>
<text text-anchor="start" x="3536.5" y="-30" font-family="Helvetica,sans-Serif" font-size="10.00">/AliceO2Group/AliceO2</text>
<text text-anchor="start" x="3536.5" y="-19" font-family="Helvetica,sans-Serif" font-size="10.00">/Framework/TestWorkflows</text>
<text text-anchor="middle" x="3605" y="-8" font-family="Helvetica,sans-Serif" font-size="10.00">/src/test_o2TPCSimulation.cxx</text>
</a>
</g>
</g>
<!-- Node2&#45;&gt;Node24 -->
<g id="edge23" class="edge"><title>Node2&#45;&gt;Node24</title>
<path fill="none" stroke="midnightblue" d="M2535.61,-90.1011C2969.05,-22.959 3090.59,-125.371 3519,-54 3522.08,-53.4874 3525.2,-52.8961 3528.34,-52.2417"/>
<polygon fill="midnightblue" stroke="midnightblue" points="2534.98,-86.6578 2525.64,-91.6669 2536.06,-93.5731 2534.98,-86.6578"/>
</g>
<!-- Node25 -->
<g id="node25" class="node"><title>Node25</title>
<g id="a_node25"><a xlink:href="../../da/d19/test__RawDeviceInjector_8cxx.html" target="_top" xlink:title="/home/travis/build\l/AliceO2Group/AliceO2\l/Framework/TestWorkflows\l/src/test_RawDeviceInjector.cxx">
<polygon fill="none" stroke="black" points="3700,-1 3700,-53 3860,-53 3860,-1 3700,-1"/>
<text text-anchor="start" x="3708" y="-41" font-family="Helvetica,sans-Serif" font-size="10.00">/home/travis/build</text>
<text text-anchor="start" x="3708" y="-30" font-family="Helvetica,sans-Serif" font-size="10.00">/AliceO2Group/AliceO2</text>
<text text-anchor="start" x="3708" y="-19" font-family="Helvetica,sans-Serif" font-size="10.00">/Framework/TestWorkflows</text>
<text text-anchor="middle" x="3780" y="-8" font-family="Helvetica,sans-Serif" font-size="10.00">/src/test_RawDeviceInjector.cxx</text>
</a>
</g>
</g>
<!-- Node2&#45;&gt;Node25 -->
<g id="edge24" class="edge"><title>Node2&#45;&gt;Node25</title>
<path fill="none" stroke="midnightblue" d="M2535.81,-90.0742C3044.31,-12.4638 3186.01,-133.367 3690,-54 3693.21,-53.494 3696.47,-52.9084 3699.75,-52.2586"/>
<polygon fill="midnightblue" stroke="midnightblue" points="2534.99,-86.6597 2525.64,-91.6455 2536.06,-93.5776 2534.99,-86.6597"/>
</g>
<!-- Node26 -->
<g id="node26" class="node"><title>Node26</title>
<g id="a_node26"><a xlink:href="../../db/d78/test__MakeDPLObjects_8cxx.html" target="_top" xlink:title="/home/travis/build\l/AliceO2Group/AliceO2\l/Framework/TestWorkflows\l/test/test_MakeDPLObjects.cxx">
<polygon fill="none" stroke="black" points="3878.5,-1 3878.5,-53 4035.5,-53 4035.5,-1 3878.5,-1"/>
<text text-anchor="start" x="3886.5" y="-41" font-family="Helvetica,sans-Serif" font-size="10.00">/home/travis/build</text>
<text text-anchor="start" x="3886.5" y="-30" font-family="Helvetica,sans-Serif" font-size="10.00">/AliceO2Group/AliceO2</text>
<text text-anchor="start" x="3886.5" y="-19" font-family="Helvetica,sans-Serif" font-size="10.00">/Framework/TestWorkflows</text>
<text text-anchor="middle" x="3957" y="-8" font-family="Helvetica,sans-Serif" font-size="10.00">/test/test_MakeDPLObjects.cxx</text>
</a>
</g>
</g>
<!-- Node2&#45;&gt;Node26 -->
<g id="edge25" class="edge"><title>Node2&#45;&gt;Node26</title>
<path fill="none" stroke="midnightblue" d="M2535.63,-90.1048C3123.04,-1.46297 3286.49,-146.291 3869,-54 3871.99,-53.5263 3875.02,-52.9798 3878.07,-52.3737"/>
<polygon fill="midnightblue" stroke="midnightblue" points="2534.99,-86.6609 2525.64,-91.6289 2536.05,-93.5809 2534.99,-86.6609"/>
</g>
<!-- Node27 -->
<g id="node27" class="node"><title>Node27</title>
<g id="a_node27"><a xlink:href="../../df/d67/test__DPLBroadcasterMerger_8cxx.html" target="_top" xlink:title="/home/travis/build\l/AliceO2Group/AliceO2\l/Framework/Utils/test\l/test_DPLBroadcasterMerger.cxx">
<polygon fill="none" stroke="black" points="4054,-1 4054,-53 4216,-53 4216,-1 4054,-1"/>
<text text-anchor="start" x="4062" y="-41" font-family="Helvetica,sans-Serif" font-size="10.00">/home/travis/build</text>
<text text-anchor="start" x="4062" y="-30" font-family="Helvetica,sans-Serif" font-size="10.00">/AliceO2Group/AliceO2</text>
<text text-anchor="start" x="4062" y="-19" font-family="Helvetica,sans-Serif" font-size="10.00">/Framework/Utils/test</text>
<text text-anchor="middle" x="4135" y="-8" font-family="Helvetica,sans-Serif" font-size="10.00">/test_DPLBroadcasterMerger.cxx</text>
</a>
</g>
</g>
<!-- Node2&#45;&gt;Node27 -->
<g id="edge26" class="edge"><title>Node2&#45;&gt;Node27</title>
<path fill="none" stroke="midnightblue" d="M2535.94,-90.0598C3200.1,9.27095 3384.18,-154.448 4044,-54 4047.25,-53.5054 4050.55,-52.9294 4053.86,-52.2878"/>
<polygon fill="midnightblue" stroke="midnightblue" points="2535,-86.6622 2525.64,-91.6165 2536.05,-93.5837 2535,-86.6622"/>
</g>
<!-- Node28 -->
<g id="node28" class="node"><title>Node28</title>
<g id="a_node28"><a xlink:href="../../dd/d24/test__DPLOutputTest_8cxx.html" target="_top" xlink:title="/home/travis/build\l/AliceO2Group/AliceO2\l/Framework/Utils/test\l/test_DPLOutputTest.cxx">
<polygon fill="none" stroke="black" points="4234,-1 4234,-53 4362,-53 4362,-1 4234,-1"/>
<text text-anchor="start" x="4242" y="-41" font-family="Helvetica,sans-Serif" font-size="10.00">/home/travis/build</text>
<text text-anchor="start" x="4242" y="-30" font-family="Helvetica,sans-Serif" font-size="10.00">/AliceO2Group/AliceO2</text>
<text text-anchor="start" x="4242" y="-19" font-family="Helvetica,sans-Serif" font-size="10.00">/Framework/Utils/test</text>
<text text-anchor="middle" x="4298" y="-8" font-family="Helvetica,sans-Serif" font-size="10.00">/test_DPLOutputTest.cxx</text>
</a>
</g>
</g>
<!-- Node2&#45;&gt;Node28 -->
<g id="edge27" class="edge"><title>Node2&#45;&gt;Node28</title>
<path fill="none" stroke="midnightblue" d="M2535.81,-90.1194C2923.07,-35.4735 3858.79,-121.292 4225,-54 4227.91,-53.4651 4230.86,-52.8301 4233.82,-52.1162"/>
<polygon fill="midnightblue" stroke="midnightblue" points="2535.02,-86.6965 2525.63,-91.6063 2536.03,-93.6229 2535.02,-86.6965"/>
</g>
<!-- Node29 -->
<g id="node29" class="node"><title>Node29</title>
<g id="a_node29"><a xlink:href="../../d6/d0d/test__RootTreeReader_8cxx.html" target="_top" xlink:title="/home/travis/build\l/AliceO2Group/AliceO2\l/Framework/Utils/test\l/test_RootTreeReader.cxx">
<polygon fill="none" stroke="black" points="4380,-1 4380,-53 4512,-53 4512,-1 4380,-1"/>
<text text-anchor="start" x="4388" y="-41" font-family="Helvetica,sans-Serif" font-size="10.00">/home/travis/build</text>
<text text-anchor="start" x="4388" y="-30" font-family="Helvetica,sans-Serif" font-size="10.00">/AliceO2Group/AliceO2</text>
<text text-anchor="start" x="4388" y="-19" font-family="Helvetica,sans-Serif" font-size="10.00">/Framework/Utils/test</text>
<text text-anchor="middle" x="4446" y="-8" font-family="Helvetica,sans-Serif" font-size="10.00">/test_RootTreeReader.cxx</text>
</a>
</g>
</g>
<!-- Node2&#45;&gt;Node29 -->
<g id="edge28" class="edge"><title>Node2&#45;&gt;Node29</title>
<path fill="none" stroke="midnightblue" d="M2535.73,-90.1279C2955.13,-30.9806 3972.51,-125.136 4371,-54 4373.85,-53.4914 4376.74,-52.8913 4379.63,-52.2181"/>
<polygon fill="midnightblue" stroke="midnightblue" points="2535.02,-86.6942 2525.63,-91.5996 2536.03,-93.6211 2535.02,-86.6942"/>
</g>
<!-- Node30 -->
<g id="node30" class="node"><title>Node30</title>
<g id="a_node30"><a xlink:href="../../d1/d02/test__RootTreeWriterWorkflow_8cxx.html" target="_top" xlink:title="/home/travis/build\l/AliceO2Group/AliceO2\l/Framework/Utils/test\l/test_RootTreeWriterWorkflow.cxx">
<polygon fill="none" stroke="black" points="4530,-1 4530,-53 4698,-53 4698,-1 4530,-1"/>
<text text-anchor="start" x="4538" y="-41" font-family="Helvetica,sans-Serif" font-size="10.00">/home/travis/build</text>
<text text-anchor="start" x="4538" y="-30" font-family="Helvetica,sans-Serif" font-size="10.00">/AliceO2Group/AliceO2</text>
<text text-anchor="start" x="4538" y="-19" font-family="Helvetica,sans-Serif" font-size="10.00">/Framework/Utils/test</text>
<text text-anchor="middle" x="4614" y="-8" font-family="Helvetica,sans-Serif" font-size="10.00">/test_RootTreeWriterWorkflow.cxx</text>
</a>
</g>
</g>
<!-- Node2&#45;&gt;Node30 -->
<g id="edge29" class="edge"><title>Node2&#45;&gt;Node30</title>
<path fill="none" stroke="midnightblue" d="M2535.54,-90.1521C2987.83,-26.1732 4087.45,-117.472 4521,-54 4523.9,-53.575 4526.84,-53.0866 4529.8,-52.5455"/>
<polygon fill="midnightblue" stroke="midnightblue" points="2535.02,-86.6899 2525.63,-91.5937 2536.03,-93.6169 2535.02,-86.6899"/>
</g>
<!-- Node31 -->
<g id="node31" class="node"><title>Node31</title>
<g id="a_node31"><a xlink:href="../../d2/dd7/SimpleDigitizerWorkflow_8cxx.html" target="_top" xlink:title="/home/travis/build\l/AliceO2Group/AliceO2\l/Steer/DigitizerWorkflow\l/src/SimpleDigitizerWorkflow.cxx">
<polygon fill="none" stroke="black" points="4716,-1 4716,-53 4878,-53 4878,-1 4716,-1"/>
<text text-anchor="start" x="4724" y="-41" font-family="Helvetica,sans-Serif" font-size="10.00">/home/travis/build</text>
<text text-anchor="start" x="4724" y="-30" font-family="Helvetica,sans-Serif" font-size="10.00">/AliceO2Group/AliceO2</text>
<text text-anchor="start" x="4724" y="-19" font-family="Helvetica,sans-Serif" font-size="10.00">/Steer/DigitizerWorkflow</text>
<text text-anchor="middle" x="4797" y="-8" font-family="Helvetica,sans-Serif" font-size="10.00">/src/SimpleDigitizerWorkflow.cxx</text>
</a>
</g>
</g>
<!-- Node2&#45;&gt;Node31 -->
<g id="edge30" class="edge"><title>Node2&#45;&gt;Node31</title>
<path fill="none" stroke="midnightblue" d="M2535.71,-90.1262C3028.87,-20.5538 4231.99,-124.399 4706,-54 4709.25,-53.5172 4712.55,-52.9512 4715.87,-52.3179"/>
<polygon fill="midnightblue" stroke="midnightblue" points="2535.03,-86.6892 2525.63,-91.5876 2536.03,-93.6168 2535.03,-86.6892"/>
</g>
<!-- Node32 -->
<g id="node32" class="node"><title>Node32</title>
<g id="a_node32"><a xlink:href="../../dc/df2/SimpleMergerWorkflow_8cxx.html" target="_top" xlink:title="/home/travis/build\l/AliceO2Group/AliceO2\l/Utilities/QC/Workflow\l/src/SimpleMergerWorkflow.cxx">
<polygon fill="none" stroke="black" points="4896,-1 4896,-53 5052,-53 5052,-1 4896,-1"/>
<text text-anchor="start" x="4904" y="-41" font-family="Helvetica,sans-Serif" font-size="10.00">/home/travis/build</text>
<text text-anchor="start" x="4904" y="-30" font-family="Helvetica,sans-Serif" font-size="10.00">/AliceO2Group/AliceO2</text>
<text text-anchor="start" x="4904" y="-19" font-family="Helvetica,sans-Serif" font-size="10.00">/Utilities/QC/Workflow</text>
<text text-anchor="middle" x="4974" y="-8" font-family="Helvetica,sans-Serif" font-size="10.00">/src/SimpleMergerWorkflow.cxx</text>
</a>
</g>
</g>
<!-- Node2&#45;&gt;Node32 -->
<g id="edge31" class="edge"><title>Node2&#45;&gt;Node32</title>
<path fill="none" stroke="midnightblue" d="M2535.75,-90.1202C3068.81,-15.0537 4373.65,-133.085 4887,-54 4889.96,-53.544 4892.96,-53.0124 4895.98,-52.419"/>
<polygon fill="midnightblue" stroke="midnightblue" points="2535.03,-86.6884 2525.63,-91.5825 2536.03,-93.6165 2535.03,-86.6884"/>
</g>
</g>
</svg>
