<?xml version="1.0" encoding="UTF-8" standalone="no"?>
<!DOCTYPE svg PUBLIC "-//W3C//DTD SVG 1.1//EN"
 "http://www.w3.org/Graphics/SVG/1.1/DTD/svg11.dtd">
<!-- Generated by graphviz version 2.36.0 (20140111.2315)
 -->
<!-- Title: /home/travis/build/AliceO2Group/AliceO2/Framework/Core/include/Framework/ConfigContext.h Pages: 1 -->
<svg width="5060pt" height="242pt"
 viewBox="0.00 0.00 5060.00 242.00" xmlns="http://www.w3.org/2000/svg" xmlns:xlink="http://www.w3.org/1999/xlink">
<g id="graph0" class="graph" transform="scale(1 1) rotate(0) translate(4 238)">
<title>/home/travis/build/AliceO2Group/AliceO2/Framework/Core/include/Framework/ConfigContext.h</title>
<!-- Node1 -->
<g id="node1" class="node"><title>Node1</title>
<polygon fill="#bfbfbf" stroke="black" points="2381.5,-181 2381.5,-233 2524.5,-233 2524.5,-181 2381.5,-181"/>
<text text-anchor="start" x="2389.5" y="-221" font-family="Helvetica,sans-Serif" font-size="10.00">/home/travis/build</text>
<text text-anchor="start" x="2389.5" y="-210" font-family="Helvetica,sans-Serif" font-size="10.00">/AliceO2Group/AliceO2</text>
<text text-anchor="start" x="2389.5" y="-199" font-family="Helvetica,sans-Serif" font-size="10.00">/Framework/Core/include</text>
<text text-anchor="middle" x="2453" y="-188" font-family="Helvetica,sans-Serif" font-size="10.00">/Framework/ConfigContext.h</text>
</g>
<!-- Node2 -->
<g id="node2" class="node"><title>Node2</title>
<g id="a_node2"><a xlink:href="../../db/dd0/runDataProcessing_8h.html" target="_top" xlink:title="/home/travis/build\l/AliceO2Group/AliceO2\l/Framework/Core/include\l/Framework/runDataProcessing.h">
<polygon fill="none" stroke="black" points="2281.5,-91 2281.5,-143 2444.5,-143 2444.5,-91 2281.5,-91"/>
<text text-anchor="start" x="2289.5" y="-131" font-family="Helvetica,sans-Serif" font-size="10.00">/home/travis/build</text>
<text text-anchor="start" x="2289.5" y="-120" font-family="Helvetica,sans-Serif" font-size="10.00">/AliceO2Group/AliceO2</text>
<text text-anchor="start" x="2289.5" y="-109" font-family="Helvetica,sans-Serif" font-size="10.00">/Framework/Core/include</text>
<text text-anchor="middle" x="2363" y="-98" font-family="Helvetica,sans-Serif" font-size="10.00">/Framework/runDataProcessing.h</text>
</a>
</g>
</g>
<!-- Node1&#45;&gt;Node2 -->
<g id="edge1" class="edge"><title>Node1&#45;&gt;Node2</title>
<path fill="none" stroke="midnightblue" d="M2419.69,-173.431C2409.44,-163.407 2398.32,-152.533 2388.66,-143.092"/>
<polygon fill="midnightblue" stroke="midnightblue" points="2417.37,-176.058 2426.97,-180.547 2422.27,-171.053 2417.37,-176.058"/>
</g>
<!-- Node7 -->
<g id="node7" class="node"><title>Node7</title>
<g id="a_node7"><a xlink:href="../../d0/d0b/test__ParallelProducer_8cxx.html" target="_top" xlink:title="/home/travis/build\l/AliceO2Group/AliceO2\l/Framework/Core/test/test\l_ParallelProducer.cxx">
<polygon fill="none" stroke="black" points="-0.5,-1 -0.5,-53 130.5,-53 130.5,-1 -0.5,-1"/>
<text text-anchor="start" x="7.5" y="-41" font-family="Helvetica,sans-Serif" font-size="10.00">/home/travis/build</text>
<text text-anchor="start" x="7.5" y="-30" font-family="Helvetica,sans-Serif" font-size="10.00">/AliceO2Group/AliceO2</text>
<text text-anchor="start" x="7.5" y="-19" font-family="Helvetica,sans-Serif" font-size="10.00">/Framework/Core/test/test</text>
<text text-anchor="middle" x="65" y="-8" font-family="Helvetica,sans-Serif" font-size="10.00">_ParallelProducer.cxx</text>
</a>
</g>
</g>
<!-- Node1&#45;&gt;Node7 -->
<g id="edge34" class="edge"><title>Node1&#45;&gt;Node7</title>
<path fill="none" stroke="midnightblue" d="M2371.23,-203.563C2013.02,-192.438 580.49,-143.137 140,-54 136.893,-53.3713 133.739,-52.6458 130.572,-51.8458"/>
<polygon fill="midnightblue" stroke="midnightblue" points="2371.16,-207.063 2381.27,-203.874 2371.38,-200.066 2371.16,-207.063"/>
</g>
<!-- Node33 -->
<g id="node33" class="node"><title>Node33</title>
<g id="a_node33"><a xlink:href="../../d3/d29/FrameworkGUIDebugger_8cxx.html" target="_top" xlink:title="/home/travis/build\l/AliceO2Group/AliceO2\l/Framework/Core/src/Framework\lGUIDebugger.cxx">
<polygon fill="none" stroke="black" points="2462.5,-91 2462.5,-143 2623.5,-143 2623.5,-91 2462.5,-91"/>
<text text-anchor="start" x="2470.5" y="-131" font-family="Helvetica,sans-Serif" font-size="10.00">/home/travis/build</text>
<text text-anchor="start" x="2470.5" y="-120" font-family="Helvetica,sans-Serif" font-size="10.00">/AliceO2Group/AliceO2</text>
<text text-anchor="start" x="2470.5" y="-109" font-family="Helvetica,sans-Serif" font-size="10.00">/Framework/Core/src/Framework</text>
<text text-anchor="middle" x="2543" y="-98" font-family="Helvetica,sans-Serif" font-size="10.00">GUIDebugger.cxx</text>
</a>
</g>
</g>
<!-- Node1&#45;&gt;Node33 -->
<g id="edge32" class="edge"><title>Node1&#45;&gt;Node33</title>
<path fill="none" stroke="midnightblue" d="M2486.31,-173.431C2496.56,-163.407 2507.68,-152.533 2517.34,-143.092"/>
<polygon fill="midnightblue" stroke="midnightblue" points="2483.73,-171.053 2479.03,-180.547 2488.63,-176.058 2483.73,-171.053"/>
</g>
<!-- Node34 -->
<g id="node34" class="node"><title>Node34</title>
<g id="a_node34"><a xlink:href="../../d7/d54/runDataProcessing_8cxx.html" target="_top" xlink:title="/home/travis/build\l/AliceO2Group/AliceO2\l/Framework/Core/src/runDataProcessing.cxx">
<polygon fill="none" stroke="black" points="2642,-96.5 2642,-137.5 2856,-137.5 2856,-96.5 2642,-96.5"/>
<text text-anchor="start" x="2650" y="-125.5" font-family="Helvetica,sans-Serif" font-size="10.00">/home/travis/build</text>
<text text-anchor="start" x="2650" y="-114.5" font-family="Helvetica,sans-Serif" font-size="10.00">/AliceO2Group/AliceO2</text>
<text text-anchor="middle" x="2749" y="-103.5" font-family="Helvetica,sans-Serif" font-size="10.00">/Framework/Core/src/runDataProcessing.cxx</text>
</a>
</g>
</g>
<!-- Node1&#45;&gt;Node34 -->
<g id="edge33" class="edge"><title>Node1&#45;&gt;Node34</title>
<path fill="none" stroke="midnightblue" d="M2534.45,-181.784C2581.22,-167.881 2639.18,-150.649 2683.07,-137.602"/>
<polygon fill="midnightblue" stroke="midnightblue" points="2533.24,-178.493 2524.65,-184.698 2535.24,-185.203 2533.24,-178.493"/>
</g>
<!-- Node3 -->
<g id="node3" class="node"><title>Node3</title>
<g id="a_node3"><a xlink:href="../../d3/dbf/tpc-reco-workflow_8cxx.html" target="_top" xlink:title="Basic DPL workflow for TPC reconstruction starting from digits. ">
<polygon fill="none" stroke="black" points="149,-1 149,-53 281,-53 281,-1 149,-1"/>
<text text-anchor="start" x="157" y="-41" font-family="Helvetica,sans-Serif" font-size="10.00">/home/travis/build</text>
<text text-anchor="start" x="157" y="-30" font-family="Helvetica,sans-Serif" font-size="10.00">/AliceO2Group/AliceO2</text>
<text text-anchor="start" x="157" y="-19" font-family="Helvetica,sans-Serif" font-size="10.00">/Detectors/TPC/workflow</text>
<text text-anchor="middle" x="215" y="-8" font-family="Helvetica,sans-Serif" font-size="10.00">/src/tpc&#45;reco&#45;workflow.cxx</text>
</a>
</g>
</g>
<!-- Node2&#45;&gt;Node3 -->
<g id="edge2" class="edge"><title>Node2&#45;&gt;Node3</title>
<path fill="none" stroke="midnightblue" d="M2271.37,-114.022C1883.17,-105.546 389.519,-71.9039 291,-54 287.707,-53.4016 284.364,-52.6868 281.008,-51.8829"/>
<polygon fill="midnightblue" stroke="midnightblue" points="2271.36,-117.523 2281.43,-114.242 2271.51,-110.525 2271.36,-117.523"/>
</g>
<!-- Node4 -->
<g id="node4" class="node"><title>Node4</title>
<g id="a_node4"><a xlink:href="../../d2/da2/test__DataAllocator_8cxx.html" target="_top" xlink:title="/home/travis/build\l/AliceO2Group/AliceO2\l/Framework/Core/test/test\l_DataAllocator.cxx">
<polygon fill="none" stroke="black" points="299.5,-1 299.5,-53 430.5,-53 430.5,-1 299.5,-1"/>
<text text-anchor="start" x="307.5" y="-41" font-family="Helvetica,sans-Serif" font-size="10.00">/home/travis/build</text>
<text text-anchor="start" x="307.5" y="-30" font-family="Helvetica,sans-Serif" font-size="10.00">/AliceO2Group/AliceO2</text>
<text text-anchor="start" x="307.5" y="-19" font-family="Helvetica,sans-Serif" font-size="10.00">/Framework/Core/test/test</text>
<text text-anchor="middle" x="365" y="-8" font-family="Helvetica,sans-Serif" font-size="10.00">_DataAllocator.cxx</text>
</a>
</g>
</g>
<!-- Node2&#45;&gt;Node4 -->
<g id="edge3" class="edge"><title>Node2&#45;&gt;Node4</title>
<path fill="none" stroke="midnightblue" d="M2271.3,-113.811C1900.92,-104.871 530.834,-70.8075 440,-54 436.883,-53.4233 433.721,-52.7403 430.547,-51.9749"/>
<polygon fill="midnightblue" stroke="midnightblue" points="2271.35,-117.313 2281.44,-114.055 2271.52,-110.315 2271.35,-117.313"/>
</g>
<!-- Node5 -->
<g id="node5" class="node"><title>Node5</title>
<g id="a_node5"><a xlink:href="../../d3/d4b/test__GenericSource_8cxx.html" target="_top" xlink:title="/home/travis/build\l/AliceO2Group/AliceO2\l/Framework/Core/test/test\l_GenericSource.cxx">
<polygon fill="none" stroke="black" points="448.5,-1 448.5,-53 579.5,-53 579.5,-1 448.5,-1"/>
<text text-anchor="start" x="456.5" y="-41" font-family="Helvetica,sans-Serif" font-size="10.00">/home/travis/build</text>
<text text-anchor="start" x="456.5" y="-30" font-family="Helvetica,sans-Serif" font-size="10.00">/AliceO2Group/AliceO2</text>
<text text-anchor="start" x="456.5" y="-19" font-family="Helvetica,sans-Serif" font-size="10.00">/Framework/Core/test/test</text>
<text text-anchor="middle" x="514" y="-8" font-family="Helvetica,sans-Serif" font-size="10.00">_GenericSource.cxx</text>
</a>
</g>
</g>
<!-- Node2&#45;&gt;Node5 -->
<g id="edge4" class="edge"><title>Node2&#45;&gt;Node5</title>
<path fill="none" stroke="midnightblue" d="M2271.37,-114.399C1931.59,-108.24 754.613,-84.876 589,-54 585.884,-53.4191 582.723,-52.7327 579.549,-51.9644"/>
<polygon fill="midnightblue" stroke="midnightblue" points="2271.36,-117.899 2281.42,-114.58 2271.49,-110.9 2271.36,-117.899"/>
</g>
<!-- Node6 -->
<g id="node6" class="node"><title>Node6</title>
<g id="a_node6"><a xlink:href="../../d3/d66/test__Parallel_8cxx.html" target="_top" xlink:title="/home/travis/build\l/AliceO2Group/AliceO2\l/Framework/Core/test/test\l_Parallel.cxx">
<polygon fill="none" stroke="black" points="597.5,-1 597.5,-53 728.5,-53 728.5,-1 597.5,-1"/>
<text text-anchor="start" x="605.5" y="-41" font-family="Helvetica,sans-Serif" font-size="10.00">/home/travis/build</text>
<text text-anchor="start" x="605.5" y="-30" font-family="Helvetica,sans-Serif" font-size="10.00">/AliceO2Group/AliceO2</text>
<text text-anchor="start" x="605.5" y="-19" font-family="Helvetica,sans-Serif" font-size="10.00">/Framework/Core/test/test</text>
<text text-anchor="middle" x="663" y="-8" font-family="Helvetica,sans-Serif" font-size="10.00">_Parallel.cxx</text>
</a>
</g>
</g>
<!-- Node2&#45;&gt;Node6 -->
<g id="edge5" class="edge"><title>Node2&#45;&gt;Node6</title>
<path fill="none" stroke="midnightblue" d="M2271.09,-114.077C1949.82,-107.136 888.405,-82.2898 738,-54 734.885,-53.4141 731.724,-52.7236 728.551,-51.952"/>
<polygon fill="midnightblue" stroke="midnightblue" points="2271.22,-117.58 2281.29,-114.297 2271.37,-110.582 2271.22,-117.58"/>
</g>
<!-- Node2&#45;&gt;Node7 -->
<g id="edge6" class="edge"><title>Node2&#45;&gt;Node7</title>
<path fill="none" stroke="midnightblue" d="M2271.35,-113.824C1858.96,-103.988 193.23,-63.7299 140,-54 136.882,-53.4301 133.719,-52.7527 130.544,-51.9917"/>
<polygon fill="midnightblue" stroke="midnightblue" points="2271.36,-117.325 2281.44,-114.065 2271.52,-110.327 2271.36,-117.325"/>
</g>
<!-- Node8 -->
<g id="node8" class="node"><title>Node8</title>
<g id="a_node8"><a xlink:href="../../d5/d24/test__SimpleDataProcessingDevice01_8cxx.html" target="_top" xlink:title="/home/travis/build\l/AliceO2Group/AliceO2\l/Framework/Core/test/test\l_SimpleDataProcessingDevice01.cxx">
<polygon fill="none" stroke="black" points="747,-1 747,-53 929,-53 929,-1 747,-1"/>
<text text-anchor="start" x="755" y="-41" font-family="Helvetica,sans-Serif" font-size="10.00">/home/travis/build</text>
<text text-anchor="start" x="755" y="-30" font-family="Helvetica,sans-Serif" font-size="10.00">/AliceO2Group/AliceO2</text>
<text text-anchor="start" x="755" y="-19" font-family="Helvetica,sans-Serif" font-size="10.00">/Framework/Core/test/test</text>
<text text-anchor="middle" x="838" y="-8" font-family="Helvetica,sans-Serif" font-size="10.00">_SimpleDataProcessingDevice01.cxx</text>
</a>
</g>
</g>
<!-- Node2&#45;&gt;Node8 -->
<g id="edge7" class="edge"><title>Node2&#45;&gt;Node8</title>
<path fill="none" stroke="midnightblue" d="M2270.96,-114.53C1998.1,-109.772 1196.55,-92.7922 938,-54 935.073,-53.5608 932.108,-53.0703 929.122,-52.5368"/>
<polygon fill="midnightblue" stroke="midnightblue" points="2271.16,-118.034 2281.22,-114.708 2271.28,-111.035 2271.16,-118.034"/>
</g>
<!-- Node9 -->
<g id="node9" class="node"><title>Node9</title>
<g id="a_node9"><a xlink:href="../../da/d12/test__SimpleStatefulProcessing01_8cxx.html" target="_top" xlink:title="/home/travis/build\l/AliceO2Group/AliceO2\l/Framework/Core/test/test\l_SimpleStatefulProcessing01.cxx">
<polygon fill="none" stroke="black" points="947,-1 947,-53 1111,-53 1111,-1 947,-1"/>
<text text-anchor="start" x="955" y="-41" font-family="Helvetica,sans-Serif" font-size="10.00">/home/travis/build</text>
<text text-anchor="start" x="955" y="-30" font-family="Helvetica,sans-Serif" font-size="10.00">/AliceO2Group/AliceO2</text>
<text text-anchor="start" x="955" y="-19" font-family="Helvetica,sans-Serif" font-size="10.00">/Framework/Core/test/test</text>
<text text-anchor="middle" x="1029" y="-8" font-family="Helvetica,sans-Serif" font-size="10.00">_SimpleStatefulProcessing01.cxx</text>
</a>
</g>
</g>
<!-- Node2&#45;&gt;Node9 -->
<g id="edge8" class="edge"><title>Node2&#45;&gt;Node9</title>
<path fill="none" stroke="midnightblue" d="M2271.28,-114.103C2023.14,-108.541 1342.43,-90.3364 1121,-54 1117.72,-53.4624 1114.4,-52.8502 1111.05,-52.1782"/>
<polygon fill="midnightblue" stroke="midnightblue" points="2271.27,-117.603 2281.35,-114.327 2271.43,-110.605 2271.27,-117.603"/>
</g>
<!-- Node10 -->
<g id="node10" class="node"><title>Node10</title>
<g id="a_node10"><a xlink:href="../../d3/d4e/test__SingleDataSource_8cxx.html" target="_top" xlink:title="/home/travis/build\l/AliceO2Group/AliceO2\l/Framework/Core/test/test\l_SingleDataSource.cxx">
<polygon fill="none" stroke="black" points="1129.5,-1 1129.5,-53 1260.5,-53 1260.5,-1 1129.5,-1"/>
<text text-anchor="start" x="1137.5" y="-41" font-family="Helvetica,sans-Serif" font-size="10.00">/home/travis/build</text>
<text text-anchor="start" x="1137.5" y="-30" font-family="Helvetica,sans-Serif" font-size="10.00">/AliceO2Group/AliceO2</text>
<text text-anchor="start" x="1137.5" y="-19" font-family="Helvetica,sans-Serif" font-size="10.00">/Framework/Core/test/test</text>
<text text-anchor="middle" x="1195" y="-8" font-family="Helvetica,sans-Serif" font-size="10.00">_SingleDataSource.cxx</text>
</a>
</g>
</g>
<!-- Node2&#45;&gt;Node10 -->
<g id="edge9" class="edge"><title>Node2&#45;&gt;Node10</title>
<path fill="none" stroke="midnightblue" d="M2271.18,-114.057C2044.08,-108.726 1460.63,-91.6879 1270,-54 1266.89,-53.3853 1263.73,-52.6711 1260.57,-51.8804"/>
<polygon fill="midnightblue" stroke="midnightblue" points="2271.32,-117.561 2281.4,-114.294 2271.48,-110.563 2271.32,-117.561"/>
</g>
<!-- Node11 -->
<g id="node11" class="node"><title>Node11</title>
<g id="a_node11"><a xlink:href="../../d1/d4f/test__TimePipeline_8cxx.html" target="_top" xlink:title="/home/travis/build\l/AliceO2Group/AliceO2\l/Framework/Core/test/test\l_TimePipeline.cxx">
<polygon fill="none" stroke="black" points="1278.5,-1 1278.5,-53 1409.5,-53 1409.5,-1 1278.5,-1"/>
<text text-anchor="start" x="1286.5" y="-41" font-family="Helvetica,sans-Serif" font-size="10.00">/home/travis/build</text>
<text text-anchor="start" x="1286.5" y="-30" font-family="Helvetica,sans-Serif" font-size="10.00">/AliceO2Group/AliceO2</text>
<text text-anchor="start" x="1286.5" y="-19" font-family="Helvetica,sans-Serif" font-size="10.00">/Framework/Core/test/test</text>
<text text-anchor="middle" x="1344" y="-8" font-family="Helvetica,sans-Serif" font-size="10.00">_TimePipeline.cxx</text>
</a>
</g>
</g>
<!-- Node2&#45;&gt;Node11 -->
<g id="edge10" class="edge"><title>Node2&#45;&gt;Node11</title>
<path fill="none" stroke="midnightblue" d="M2271.11,-113.099C2066.79,-106.14 1580.18,-86.6122 1419,-54 1415.89,-53.3714 1412.74,-52.6459 1409.57,-51.8459"/>
<polygon fill="midnightblue" stroke="midnightblue" points="2271.1,-116.601 2281.21,-113.441 2271.33,-109.605 2271.1,-116.601"/>
</g>
<!-- Node12 -->
<g id="node12" class="node"><title>Node12</title>
<g id="a_node12"><a xlink:href="../../d2/d5d/test__WorkflowOptions_8cxx.html" target="_top" xlink:title="/home/travis/build\l/AliceO2Group/AliceO2\l/Framework/Core/test/test\l_WorkflowOptions.cxx">
<polygon fill="none" stroke="black" points="1427.5,-1 1427.5,-53 1558.5,-53 1558.5,-1 1427.5,-1"/>
<text text-anchor="start" x="1435.5" y="-41" font-family="Helvetica,sans-Serif" font-size="10.00">/home/travis/build</text>
<text text-anchor="start" x="1435.5" y="-30" font-family="Helvetica,sans-Serif" font-size="10.00">/AliceO2Group/AliceO2</text>
<text text-anchor="start" x="1435.5" y="-19" font-family="Helvetica,sans-Serif" font-size="10.00">/Framework/Core/test/test</text>
<text text-anchor="middle" x="1493" y="-8" font-family="Helvetica,sans-Serif" font-size="10.00">_WorkflowOptions.cxx</text>
</a>
</g>
</g>
<!-- Node2&#45;&gt;Node12 -->
<g id="edge11" class="edge"><title>Node2&#45;&gt;Node12</title>
<path fill="none" stroke="midnightblue" d="M2271.32,-116.414C2122.24,-115.404 1818.71,-106.328 1568,-54 1564.9,-53.3524 1561.75,-52.6113 1558.58,-51.7987"/>
<polygon fill="midnightblue" stroke="midnightblue" points="2271.33,-119.914 2281.35,-116.471 2271.37,-112.914 2271.33,-119.914"/>
</g>
<!-- Node13 -->
<g id="node13" class="node"><title>Node13</title>
<g id="a_node13"><a xlink:href="../../d2/dad/dataSamplingFullChain_8cxx.html" target="_top" xlink:title="/home/travis/build\l/AliceO2Group/AliceO2\l/Framework/TestWorkflows\l/src/dataSamplingFullChain.cxx">
<polygon fill="none" stroke="black" points="1576.5,-1 1576.5,-53 1731.5,-53 1731.5,-1 1576.5,-1"/>
<text text-anchor="start" x="1584.5" y="-41" font-family="Helvetica,sans-Serif" font-size="10.00">/home/travis/build</text>
<text text-anchor="start" x="1584.5" y="-30" font-family="Helvetica,sans-Serif" font-size="10.00">/AliceO2Group/AliceO2</text>
<text text-anchor="start" x="1584.5" y="-19" font-family="Helvetica,sans-Serif" font-size="10.00">/Framework/TestWorkflows</text>
<text text-anchor="middle" x="1654" y="-8" font-family="Helvetica,sans-Serif" font-size="10.00">/src/dataSamplingFullChain.cxx</text>
</a>
</g>
</g>
<!-- Node2&#45;&gt;Node13 -->
<g id="edge12" class="edge"><title>Node2&#45;&gt;Node13</title>
<path fill="none" stroke="midnightblue" d="M2271.21,-112.335C2149.15,-106.215 1927.14,-90.7409 1741,-54 1737.91,-53.3895 1734.77,-52.7156 1731.6,-51.9921"/>
<polygon fill="midnightblue" stroke="midnightblue" points="2271.1,-115.834 2281.26,-112.829 2271.45,-108.842 2271.1,-115.834"/>
</g>
<!-- Node14 -->
<g id="node14" class="node"><title>Node14</title>
<g id="a_node14"><a xlink:href="../../d3/dbe/dataSamplingParallel_8cxx.html" target="_top" xlink:title="/home/travis/build\l/AliceO2Group/AliceO2\l/Framework/TestWorkflows\l/src/dataSamplingParallel.cxx">
<polygon fill="none" stroke="black" points="1750,-1 1750,-53 1896,-53 1896,-1 1750,-1"/>
<text text-anchor="start" x="1758" y="-41" font-family="Helvetica,sans-Serif" font-size="10.00">/home/travis/build</text>
<text text-anchor="start" x="1758" y="-30" font-family="Helvetica,sans-Serif" font-size="10.00">/AliceO2Group/AliceO2</text>
<text text-anchor="start" x="1758" y="-19" font-family="Helvetica,sans-Serif" font-size="10.00">/Framework/TestWorkflows</text>
<text text-anchor="middle" x="1823" y="-8" font-family="Helvetica,sans-Serif" font-size="10.00">/src/dataSamplingParallel.cxx</text>
</a>
</g>
</g>
<!-- Node2&#45;&gt;Node14 -->
<g id="edge13" class="edge"><title>Node2&#45;&gt;Node14</title>
<path fill="none" stroke="midnightblue" d="M2270.94,-108.245C2177.86,-99.307 2030.27,-82.1174 1905,-54 1902.09,-53.3458 1899.13,-52.6352 1896.15,-51.8809"/>
<polygon fill="midnightblue" stroke="midnightblue" points="2270.88,-111.756 2281.17,-109.216 2271.54,-104.787 2270.88,-111.756"/>
</g>
<!-- Node15 -->
<g id="node15" class="node"><title>Node15</title>
<g id="a_node15"><a xlink:href="../../de/da3/dataSamplingPodAndRoot_8cxx.html" target="_top" xlink:title="/home/travis/build\l/AliceO2Group/AliceO2\l/Framework/TestWorkflows\l/src/dataSamplingPodAndRoot.cxx">
<polygon fill="none" stroke="black" points="1914,-1 1914,-53 2084,-53 2084,-1 1914,-1"/>
<text text-anchor="start" x="1922" y="-41" font-family="Helvetica,sans-Serif" font-size="10.00">/home/travis/build</text>
<text text-anchor="start" x="1922" y="-30" font-family="Helvetica,sans-Serif" font-size="10.00">/AliceO2Group/AliceO2</text>
<text text-anchor="start" x="1922" y="-19" font-family="Helvetica,sans-Serif" font-size="10.00">/Framework/TestWorkflows</text>
<text text-anchor="middle" x="1999" y="-8" font-family="Helvetica,sans-Serif" font-size="10.00">/src/dataSamplingPodAndRoot.cxx</text>
</a>
</g>
</g>
<!-- Node2&#45;&gt;Node15 -->
<g id="edge14" class="edge"><title>Node2&#45;&gt;Node15</title>
<path fill="none" stroke="midnightblue" d="M2271.31,-96.0002C2218.94,-84.314 2152.13,-68.9598 2093,-54 2090.05,-53.2525 2087.04,-52.4816 2084.01,-51.6943"/>
<polygon fill="midnightblue" stroke="midnightblue" points="2270.73,-99.4561 2281.25,-98.2129 2272.25,-92.6234 2270.73,-99.4561"/>
</g>
<!-- Node16 -->
<g id="node16" class="node"><title>Node16</title>
<g id="a_node16"><a xlink:href="../../db/d9e/dataSamplingTimePipeline_8cxx.html" target="_top" xlink:title="/home/travis/build\l/AliceO2Group/AliceO2\l/Framework/TestWorkflows\l/src/dataSamplingTimePipeline.cxx">
<polygon fill="none" stroke="black" points="2102,-1 2102,-53 2272,-53 2272,-1 2102,-1"/>
<text text-anchor="start" x="2110" y="-41" font-family="Helvetica,sans-Serif" font-size="10.00">/home/travis/build</text>
<text text-anchor="start" x="2110" y="-30" font-family="Helvetica,sans-Serif" font-size="10.00">/AliceO2Group/AliceO2</text>
<text text-anchor="start" x="2110" y="-19" font-family="Helvetica,sans-Serif" font-size="10.00">/Framework/TestWorkflows</text>
<text text-anchor="middle" x="2187" y="-8" font-family="Helvetica,sans-Serif" font-size="10.00">/src/dataSamplingTimePipeline.cxx</text>
</a>
</g>
</g>
<!-- Node2&#45;&gt;Node16 -->
<g id="edge15" class="edge"><title>Node2&#45;&gt;Node16</title>
<path fill="none" stroke="midnightblue" d="M2303.5,-86.2492C2281.94,-75.4678 2257.81,-63.4068 2237.14,-53.0687"/>
<polygon fill="midnightblue" stroke="midnightblue" points="2302.06,-89.441 2312.57,-90.7827 2305.19,-83.18 2302.06,-89.441"/>
</g>
<!-- Node17 -->
<g id="node17" class="node"><title>Node17</title>
<g id="a_node17"><a xlink:href="../../d4/dbb/o2DiamondWorkflow_8cxx.html" target="_top" xlink:title="/home/travis/build\l/AliceO2Group/AliceO2\l/Framework/TestWorkflows\l/src/o2DiamondWorkflow.cxx">
<polygon fill="none" stroke="black" points="2290,-1 2290,-53 2436,-53 2436,-1 2290,-1"/>
<text text-anchor="start" x="2298" y="-41" font-family="Helvetica,sans-Serif" font-size="10.00">/home/travis/build</text>
<text text-anchor="start" x="2298" y="-30" font-family="Helvetica,sans-Serif" font-size="10.00">/AliceO2Group/AliceO2</text>
<text text-anchor="start" x="2298" y="-19" font-family="Helvetica,sans-Serif" font-size="10.00">/Framework/TestWorkflows</text>
<text text-anchor="middle" x="2363" y="-8" font-family="Helvetica,sans-Serif" font-size="10.00">/src/o2DiamondWorkflow.cxx</text>
</a>
</g>
</g>
<!-- Node2&#45;&gt;Node17 -->
<g id="edge16" class="edge"><title>Node2&#45;&gt;Node17</title>
<path fill="none" stroke="midnightblue" d="M2363,-80.4892C2363,-71.3088 2363,-61.616 2363,-53.0921"/>
<polygon fill="midnightblue" stroke="midnightblue" points="2359.5,-80.5467 2363,-90.5468 2366.5,-80.5468 2359.5,-80.5467"/>
</g>
<!-- Node18 -->
<g id="node18" class="node"><title>Node18</title>
<g id="a_node18"><a xlink:href="../../da/dfd/o2DummyWorkflow_8cxx.html" target="_top" xlink:title="/home/travis/build\l/AliceO2Group/AliceO2\l/Framework/TestWorkflows\l/src/o2DummyWorkflow.cxx">
<polygon fill="none" stroke="black" points="2454.5,-1 2454.5,-53 2595.5,-53 2595.5,-1 2454.5,-1"/>
<text text-anchor="start" x="2462.5" y="-41" font-family="Helvetica,sans-Serif" font-size="10.00">/home/travis/build</text>
<text text-anchor="start" x="2462.5" y="-30" font-family="Helvetica,sans-Serif" font-size="10.00">/AliceO2Group/AliceO2</text>
<text text-anchor="start" x="2462.5" y="-19" font-family="Helvetica,sans-Serif" font-size="10.00">/Framework/TestWorkflows</text>
<text text-anchor="middle" x="2525" y="-8" font-family="Helvetica,sans-Serif" font-size="10.00">/src/o2DummyWorkflow.cxx</text>
</a>
</g>
</g>
<!-- Node2&#45;&gt;Node18 -->
<g id="edge17" class="edge"><title>Node2&#45;&gt;Node18</title>
<path fill="none" stroke="midnightblue" d="M2418.3,-85.9601C2438.01,-75.2526 2459.99,-63.3145 2478.85,-53.0687"/>
<polygon fill="midnightblue" stroke="midnightblue" points="2416.54,-82.9338 2409.42,-90.7827 2419.88,-89.0849 2416.54,-82.9338"/>
</g>
<!-- Node19 -->
<g id="node19" class="node"><title>Node19</title>
<g id="a_node19"><a xlink:href="../../d3/d09/o2ParallelWorkflow_8cxx.html" target="_top" xlink:title="/home/travis/build\l/AliceO2Group/AliceO2\l/Framework/TestWorkflows\l/src/o2ParallelWorkflow.cxx">
<polygon fill="none" stroke="black" points="2613.5,-1 2613.5,-53 2752.5,-53 2752.5,-1 2613.5,-1"/>
<text text-anchor="start" x="2621.5" y="-41" font-family="Helvetica,sans-Serif" font-size="10.00">/home/travis/build</text>
<text text-anchor="start" x="2621.5" y="-30" font-family="Helvetica,sans-Serif" font-size="10.00">/AliceO2Group/AliceO2</text>
<text text-anchor="start" x="2621.5" y="-19" font-family="Helvetica,sans-Serif" font-size="10.00">/Framework/TestWorkflows</text>
<text text-anchor="middle" x="2683" y="-8" font-family="Helvetica,sans-Serif" font-size="10.00">/src/o2ParallelWorkflow.cxx</text>
</a>
</g>
</g>
<!-- Node2&#45;&gt;Node19 -->
<g id="edge18" class="edge"><title>Node2&#45;&gt;Node19</title>
<path fill="none" stroke="midnightblue" d="M2454.64,-89.8881C2522,-72.5543 2541.01,-71.8909 2604,-54 2607.06,-53.1321 2610.17,-52.2213 2613.31,-51.2815"/>
<polygon fill="midnightblue" stroke="midnightblue" points="2453.6,-86.5418 2444.81,-92.4481 2455.37,-93.3161 2453.6,-86.5418"/>
</g>
<!-- Node20 -->
<g id="node20" class="node"><title>Node20</title>
<g id="a_node20"><a xlink:href="../../d5/d8c/o2SyncReconstructionDummy_8cxx.html" target="_top" xlink:title="/home/travis/build\l/AliceO2Group/AliceO2\l/Framework/TestWorkflows\l/src/o2SyncReconstructionDummy.cxx">
<polygon fill="none" stroke="black" points="2771,-1 2771,-53 2959,-53 2959,-1 2771,-1"/>
<text text-anchor="start" x="2779" y="-41" font-family="Helvetica,sans-Serif" font-size="10.00">/home/travis/build</text>
<text text-anchor="start" x="2779" y="-30" font-family="Helvetica,sans-Serif" font-size="10.00">/AliceO2Group/AliceO2</text>
<text text-anchor="start" x="2779" y="-19" font-family="Helvetica,sans-Serif" font-size="10.00">/Framework/TestWorkflows</text>
<text text-anchor="middle" x="2865" y="-8" font-family="Helvetica,sans-Serif" font-size="10.00">/src/o2SyncReconstructionDummy.cxx</text>
</a>
</g>
</g>
<!-- Node2&#45;&gt;Node20 -->
<g id="edge19" class="edge"><title>Node2&#45;&gt;Node20</title>
<path fill="none" stroke="midnightblue" d="M2454.65,-90.021C2590.5,-63.7539 2629.03,-78.1313 2761,-54 2764.2,-53.4142 2767.46,-52.7869 2770.73,-52.1267"/>
<polygon fill="midnightblue" stroke="midnightblue" points="2453.83,-86.6149 2444.7,-91.9836 2455.19,-93.4826 2453.83,-86.6149"/>
</g>
<!-- Node21 -->
<g id="node21" class="node"><title>Node21</title>
<g id="a_node21"><a xlink:href="../../d8/d33/test__CompletionPolicies_8cxx.html" target="_top" xlink:title="/home/travis/build\l/AliceO2Group/AliceO2\l/Framework/TestWorkflows\l/src/test_CompletionPolicies.cxx">
<polygon fill="none" stroke="black" points="2977.5,-1 2977.5,-53 3138.5,-53 3138.5,-1 2977.5,-1"/>
<text text-anchor="start" x="2985.5" y="-41" font-family="Helvetica,sans-Serif" font-size="10.00">/home/travis/build</text>
<text text-anchor="start" x="2985.5" y="-30" font-family="Helvetica,sans-Serif" font-size="10.00">/AliceO2Group/AliceO2</text>
<text text-anchor="start" x="2985.5" y="-19" font-family="Helvetica,sans-Serif" font-size="10.00">/Framework/TestWorkflows</text>
<text text-anchor="middle" x="3058" y="-8" font-family="Helvetica,sans-Serif" font-size="10.00">/src/test_CompletionPolicies.cxx</text>
</a>
</g>
</g>
<!-- Node2&#45;&gt;Node21 -->
<g id="edge20" class="edge"><title>Node2&#45;&gt;Node21</title>
<path fill="none" stroke="midnightblue" d="M2454.54,-90.088C2681.36,-51.5488 2745.71,-93.4355 2968,-54 2971.04,-53.4602 2974.13,-52.8573 2977.24,-52.2037"/>
<polygon fill="midnightblue" stroke="midnightblue" points="2453.92,-86.6431 2444.67,-91.7989 2455.12,-93.5404 2453.92,-86.6431"/>
</g>
<!-- Node22 -->
<g id="node22" class="node"><title>Node22</title>
<g id="a_node22"><a xlink:href="../../db/dbe/test__o2ITSCluserizer_8cxx.html" target="_top" xlink:title="/home/travis/build\l/AliceO2Group/AliceO2\l/Framework/TestWorkflows\l/src/test_o2ITSCluserizer.cxx">
<polygon fill="none" stroke="black" points="3156.5,-1 3156.5,-53 3303.5,-53 3303.5,-1 3156.5,-1"/>
<text text-anchor="start" x="3164.5" y="-41" font-family="Helvetica,sans-Serif" font-size="10.00">/home/travis/build</text>
<text text-anchor="start" x="3164.5" y="-30" font-family="Helvetica,sans-Serif" font-size="10.00">/AliceO2Group/AliceO2</text>
<text text-anchor="start" x="3164.5" y="-19" font-family="Helvetica,sans-Serif" font-size="10.00">/Framework/TestWorkflows</text>
<text text-anchor="middle" x="3230" y="-8" font-family="Helvetica,sans-Serif" font-size="10.00">/src/test_o2ITSCluserizer.cxx</text>
</a>
</g>
</g>
<!-- Node2&#45;&gt;Node22 -->
<g id="edge21" class="edge"><title>Node2&#45;&gt;Node22</title>
<path fill="none" stroke="midnightblue" d="M2454.68,-90.0802C2760.08,-40.7843 2846.7,-107.943 3147,-54 3150.12,-53.4394 3153.29,-52.7957 3156.47,-52.0865"/>
<polygon fill="midnightblue" stroke="midnightblue" points="2453.95,-86.6526 2444.65,-91.7276 2455.09,-93.56 2453.95,-86.6526"/>
</g>
<!-- Node23 -->
<g id="node23" class="node"><title>Node23</title>
<g id="a_node23"><a xlink:href="../../d6/d4c/test__o2RootMessageWorkflow_8cxx.html" target="_top" xlink:title="/home/travis/build\l/AliceO2Group/AliceO2\l/Framework/TestWorkflows\l/src/test_o2RootMessageWorkflow.cxx">
<polygon fill="none" stroke="black" points="3321.5,-1 3321.5,-53 3510.5,-53 3510.5,-1 3321.5,-1"/>
<text text-anchor="start" x="3329.5" y="-41" font-family="Helvetica,sans-Serif" font-size="10.00">/home/travis/build</text>
<text text-anchor="start" x="3329.5" y="-30" font-family="Helvetica,sans-Serif" font-size="10.00">/AliceO2Group/AliceO2</text>
<text text-anchor="start" x="3329.5" y="-19" font-family="Helvetica,sans-Serif" font-size="10.00">/Framework/TestWorkflows</text>
<text text-anchor="middle" x="3416" y="-8" font-family="Helvetica,sans-Serif" font-size="10.00">/src/test_o2RootMessageWorkflow.cxx</text>
</a>
</g>
</g>
<!-- Node2&#45;&gt;Node23 -->
<g id="edge22" class="edge"><title>Node2&#45;&gt;Node23</title>
<path fill="none" stroke="midnightblue" d="M2454.76,-90.0719C2832.63,-30.5349 2937.57,-108.086 3312,-54 3315.04,-53.561 3318.12,-53.0705 3321.22,-52.5371"/>
<polygon fill="midnightblue" stroke="midnightblue" points="2453.97,-86.6542 2444.65,-91.6882 2455.07,-93.5666 2453.97,-86.6542"/>
</g>
<!-- Node24 -->
<g id="node24" class="node"><title>Node24</title>
<g id="a_node24"><a xlink:href="../../d1/d09/test__o2TPCSimulation_8cxx.html" target="_top" xlink:title="/home/travis/build\l/AliceO2Group/AliceO2\l/Framework/TestWorkflows\l/src/test_o2TPCSimulation.cxx">
<polygon fill="none" stroke="black" points="3528.5,-1 3528.5,-53 3681.5,-53 3681.5,-1 3528.5,-1"/>
<text text-anchor="start" x="3536.5" y="-41" font-family="Helvetica,sans-Serif" font-size="10.00">/home/travis/build</text>
<text text-anchor="start" x="3536.5" y="-30" font-family="Helvetica,sans-Serif" font-size="10.00">/AliceO2Group/AliceO2</text>
<text text-anchor="start" x="3536.5" y="-19" font-family="Helvetica,sans-Serif" font-size="10.00">/Framework/TestWorkflows</text>
<text text-anchor="middle" x="3605" y="-8" font-family="Helvetica,sans-Serif" font-size="10.00">/src/test_o2TPCSimulation.cxx</text>
</a>
</g>
</g>
<!-- Node2&#45;&gt;Node24 -->
<g id="edge23" class="edge"><title>Node2&#45;&gt;Node24</title>
<path fill="none" stroke="midnightblue" d="M2454.73,-90.0858C2923.71,-18.0119 3055.04,-130.632 3519,-54 3522.08,-53.4916 3525.2,-52.904 3528.34,-52.2526"/>
<polygon fill="midnightblue" stroke="midnightblue" points="2453.98,-86.659 2444.64,-91.6559 2455.06,-93.5757 2453.98,-86.659"/>
</g>
<!-- Node25 -->
<g id="node25" class="node"><title>Node25</title>
<g id="a_node25"><a xlink:href="../../da/d19/test__RawDeviceInjector_8cxx.html" target="_top" xlink:title="/home/travis/build\l/AliceO2Group/AliceO2\l/Framework/TestWorkflows\l/src/test_RawDeviceInjector.cxx">
<polygon fill="none" stroke="black" points="3700,-1 3700,-53 3860,-53 3860,-1 3700,-1"/>
<text text-anchor="start" x="3708" y="-41" font-family="Helvetica,sans-Serif" font-size="10.00">/home/travis/build</text>
<text text-anchor="start" x="3708" y="-30" font-family="Helvetica,sans-Serif" font-size="10.00">/AliceO2Group/AliceO2</text>
<text text-anchor="start" x="3708" y="-19" font-family="Helvetica,sans-Serif" font-size="10.00">/Framework/TestWorkflows</text>
<text text-anchor="middle" x="3780" y="-8" font-family="Helvetica,sans-Serif" font-size="10.00">/src/test_RawDeviceInjector.cxx</text>
</a>
</g>
</g>
<!-- Node2&#45;&gt;Node25 -->
<g id="edge24" class="edge"><title>Node2&#45;&gt;Node25</title>
<path fill="none" stroke="midnightblue" d="M2454.71,-90.0911C2998.93,-7.47542 3150.35,-138.419 3690,-54 3693.21,-53.4973 3696.47,-52.9144 3699.76,-52.267"/>
<polygon fill="midnightblue" stroke="midnightblue" points="2453.99,-86.6602 2444.64,-91.6374 2455.05,-93.5791 2453.99,-86.6602"/>
</g>
<!-- Node26 -->
<g id="node26" class="node"><title>Node26</title>
<g id="a_node26"><a xlink:href="../../db/d78/test__MakeDPLObjects_8cxx.html" target="_top" xlink:title="/home/travis/build\l/AliceO2Group/AliceO2\l/Framework/TestWorkflows\l/test/test_MakeDPLObjects.cxx">
<polygon fill="none" stroke="black" points="3878.5,-1 3878.5,-53 4035.5,-53 4035.5,-1 3878.5,-1"/>
<text text-anchor="start" x="3886.5" y="-41" font-family="Helvetica,sans-Serif" font-size="10.00">/home/travis/build</text>
<text text-anchor="start" x="3886.5" y="-30" font-family="Helvetica,sans-Serif" font-size="10.00">/AliceO2Group/AliceO2</text>
<text text-anchor="start" x="3886.5" y="-19" font-family="Helvetica,sans-Serif" font-size="10.00">/Framework/TestWorkflows</text>
<text text-anchor="middle" x="3957" y="-8" font-family="Helvetica,sans-Serif" font-size="10.00">/test/test_MakeDPLObjects.cxx</text>
</a>
</g>
</g>
<!-- Node2&#45;&gt;Node26 -->
<g id="edge25" class="edge"><title>Node2&#45;&gt;Node26</title>
<path fill="none" stroke="midnightblue" d="M2454.77,-90.085C3077.71,3.49151 3250.92,-151.438 3869,-54 3871.99,-53.5287 3875.02,-52.9841 3878.07,-52.3797"/>
<polygon fill="midnightblue" stroke="midnightblue" points="2454,-86.6616 2444.64,-91.6228 2455.05,-93.5824 2454,-86.6616"/>
</g>
<!-- Node27 -->
<g id="node27" class="node"><title>Node27</title>
<g id="a_node27"><a xlink:href="../../df/d67/test__DPLBroadcasterMerger_8cxx.html" target="_top" xlink:title="/home/travis/build\l/AliceO2Group/AliceO2\l/Framework/Utils/test\l/test_DPLBroadcasterMerger.cxx">
<polygon fill="none" stroke="black" points="4054,-1 4054,-53 4216,-53 4216,-1 4054,-1"/>
<text text-anchor="start" x="4062" y="-41" font-family="Helvetica,sans-Serif" font-size="10.00">/home/travis/build</text>
<text text-anchor="start" x="4062" y="-30" font-family="Helvetica,sans-Serif" font-size="10.00">/AliceO2Group/AliceO2</text>
<text text-anchor="start" x="4062" y="-19" font-family="Helvetica,sans-Serif" font-size="10.00">/Framework/Utils/test</text>
<text text-anchor="middle" x="4135" y="-8" font-family="Helvetica,sans-Serif" font-size="10.00">/test_DPLBroadcasterMerger.cxx</text>
</a>
</g>
</g>
<!-- Node2&#45;&gt;Node27 -->
<g id="edge26" class="edge"><title>Node2&#45;&gt;Node27</title>
<path fill="none" stroke="midnightblue" d="M2454.71,-90.0945C3154.7,14.289 3348.47,-159.453 4044,-54 4047.25,-53.5074 4050.55,-52.9331 4053.86,-52.2928"/>
<polygon fill="midnightblue" stroke="midnightblue" points="2454,-86.6622 2444.63,-91.6116 2455.04,-93.5843 2454,-86.6622"/>
</g>
<!-- Node28 -->
<g id="node28" class="node"><title>Node28</title>
<g id="a_node28"><a xlink:href="../../dd/d24/test__DPLOutputTest_8cxx.html" target="_top" xlink:title="/home/travis/build\l/AliceO2Group/AliceO2\l/Framework/Utils/test\l/test_DPLOutputTest.cxx">
<polygon fill="none" stroke="black" points="4234,-1 4234,-53 4362,-53 4362,-1 4234,-1"/>
<text text-anchor="start" x="4242" y="-41" font-family="Helvetica,sans-Serif" font-size="10.00">/home/travis/build</text>
<text text-anchor="start" x="4242" y="-30" font-family="Helvetica,sans-Serif" font-size="10.00">/AliceO2Group/AliceO2</text>
<text text-anchor="start" x="4242" y="-19" font-family="Helvetica,sans-Serif" font-size="10.00">/Framework/Utils/test</text>
<text text-anchor="middle" x="4298" y="-8" font-family="Helvetica,sans-Serif" font-size="10.00">/test_DPLOutputTest.cxx</text>
</a>
</g>
</g>
<!-- Node2&#45;&gt;Node28 -->
<g id="edge27" class="edge"><title>Node2&#45;&gt;Node28</title>
<path fill="none" stroke="midnightblue" d="M2454.68,-90.136C2859.73,-32.9844 3841.02,-124.364 4225,-54 4227.91,-53.4665 4230.86,-52.8327 4233.82,-52.1197"/>
<polygon fill="midnightblue" stroke="midnightblue" points="2454.02,-86.695 2444.63,-91.6025 2455.03,-93.6217 2454.02,-86.695"/>
</g>
<!-- Node29 -->
<g id="node29" class="node"><title>Node29</title>
<g id="a_node29"><a xlink:href="../../d6/d0d/test__RootTreeReader_8cxx.html" target="_top" xlink:title="/home/travis/build\l/AliceO2Group/AliceO2\l/Framework/Utils/test\l/test_RootTreeReader.cxx">
<polygon fill="none" stroke="black" points="4380,-1 4380,-53 4512,-53 4512,-1 4380,-1"/>
<text text-anchor="start" x="4388" y="-41" font-family="Helvetica,sans-Serif" font-size="10.00">/home/travis/build</text>
<text text-anchor="start" x="4388" y="-30" font-family="Helvetica,sans-Serif" font-size="10.00">/AliceO2Group/AliceO2</text>
<text text-anchor="start" x="4388" y="-19" font-family="Helvetica,sans-Serif" font-size="10.00">/Framework/Utils/test</text>
<text text-anchor="middle" x="4446" y="-8" font-family="Helvetica,sans-Serif" font-size="10.00">/test_RootTreeReader.cxx</text>
</a>
</g>
</g>
<!-- Node2&#45;&gt;Node29 -->
<g id="edge28" class="edge"><title>Node2&#45;&gt;Node29</title>
<path fill="none" stroke="midnightblue" d="M2454.85,-90.1113C2892.16,-28.5232 3954.8,-128.12 4371,-54 4373.85,-53.4926 4376.74,-52.8935 4379.63,-52.2211"/>
<polygon fill="midnightblue" stroke="midnightblue" points="2454.02,-86.6938 2444.63,-91.5963 2455.03,-93.621 2454.02,-86.6938"/>
</g>
<!-- Node30 -->
<g id="node30" class="node"><title>Node30</title>
<g id="a_node30"><a xlink:href="../../d1/d02/test__RootTreeWriterWorkflow_8cxx.html" target="_top" xlink:title="/home/travis/build\l/AliceO2Group/AliceO2\l/Framework/Utils/test\l/test_RootTreeWriterWorkflow.cxx">
<polygon fill="none" stroke="black" points="4530,-1 4530,-53 4698,-53 4698,-1 4530,-1"/>
<text text-anchor="start" x="4538" y="-41" font-family="Helvetica,sans-Serif" font-size="10.00">/home/travis/build</text>
<text text-anchor="start" x="4538" y="-30" font-family="Helvetica,sans-Serif" font-size="10.00">/AliceO2Group/AliceO2</text>
<text text-anchor="start" x="4538" y="-19" font-family="Helvetica,sans-Serif" font-size="10.00">/Framework/Utils/test</text>
<text text-anchor="middle" x="4614" y="-8" font-family="Helvetica,sans-Serif" font-size="10.00">/test_RootTreeWriterWorkflow.cxx</text>
</a>
</g>
</g>
<!-- Node2&#45;&gt;Node30 -->
<g id="edge29" class="edge"><title>Node2&#45;&gt;Node30</title>
<path fill="none" stroke="midnightblue" d="M2454.59,-90.1447C2924.75,-23.7015 4069.64,-119.916 4521,-54 4523.9,-53.576 4526.84,-53.0886 4529.8,-52.5482"/>
<polygon fill="midnightblue" stroke="midnightblue" points="2454.02,-86.6894 2444.63,-91.5909 2455.03,-93.6167 2454.02,-86.6894"/>
</g>
<!-- Node31 -->
<g id="node31" class="node"><title>Node31</title>
<g id="a_node31"><a xlink:href="../../d2/dd7/SimpleDigitizerWorkflow_8cxx.html" target="_top" xlink:title="/home/travis/build\l/AliceO2Group/AliceO2\l/Steer/DigitizerWorkflow\l/src/SimpleDigitizerWorkflow.cxx">
<polygon fill="none" stroke="black" points="4716,-1 4716,-53 4878,-53 4878,-1 4716,-1"/>
<text text-anchor="start" x="4724" y="-41" font-family="Helvetica,sans-Serif" font-size="10.00">/home/travis/build</text>
<text text-anchor="start" x="4724" y="-30" font-family="Helvetica,sans-Serif" font-size="10.00">/AliceO2Group/AliceO2</text>
<text text-anchor="start" x="4724" y="-19" font-family="Helvetica,sans-Serif" font-size="10.00">/Steer/DigitizerWorkflow</text>
<text text-anchor="middle" x="4797" y="-8" font-family="Helvetica,sans-Serif" font-size="10.00">/src/SimpleDigitizerWorkflow.cxx</text>
</a>
</g>
</g>
<!-- Node2&#45;&gt;Node31 -->
<g id="edge30" class="edge"><title>Node2&#45;&gt;Node31</title>
<path fill="none" stroke="midnightblue" d="M2454.7,-90.1269C2965.7,-18.0719 4214.16,-126.897 4706,-54 4709.25,-53.5182 4712.55,-52.953 4715.87,-52.3204"/>
<polygon fill="midnightblue" stroke="midnightblue" points="2454.03,-86.6886 2444.63,-91.5852 2455.03,-93.6164 2454.03,-86.6886"/>
</g>
<!-- Node32 -->
<g id="node32" class="node"><title>Node32</title>
<g id="a_node32"><a xlink:href="../../dc/df2/SimpleMergerWorkflow_8cxx.html" target="_top" xlink:title="/home/travis/build\l/AliceO2Group/AliceO2\l/Utilities/QC/Workflow\l/src/SimpleMergerWorkflow.cxx">
<polygon fill="none" stroke="black" points="4896,-1 4896,-53 5052,-53 5052,-1 4896,-1"/>
<text text-anchor="start" x="4904" y="-41" font-family="Helvetica,sans-Serif" font-size="10.00">/home/travis/build</text>
<text text-anchor="start" x="4904" y="-30" font-family="Helvetica,sans-Serif" font-size="10.00">/AliceO2Group/AliceO2</text>
<text text-anchor="start" x="4904" y="-19" font-family="Helvetica,sans-Serif" font-size="10.00">/Utilities/QC/Workflow</text>
<text text-anchor="middle" x="4974" y="-8" font-family="Helvetica,sans-Serif" font-size="10.00">/src/SimpleMergerWorkflow.cxx</text>
</a>
</g>
</g>
<!-- Node2&#45;&gt;Node32 -->
<g id="edge31" class="edge"><title>Node2&#45;&gt;Node32</title>
<path fill="none" stroke="midnightblue" d="M2454.69,-90.1287C3005.54,-12.5613 4355.82,-135.693 4887,-54 4889.96,-53.5447 4892.96,-53.0138 4895.98,-52.4209"/>
<polygon fill="midnightblue" stroke="midnightblue" points="2454.03,-86.6876 2444.63,-91.5805 2455.03,-93.6158 2454.03,-86.6876"/>
</g>
</g>
</svg>
