<?xml version="1.0" encoding="UTF-8" standalone="no"?>
<!DOCTYPE svg PUBLIC "-//W3C//DTD SVG 1.1//EN"
 "http://www.w3.org/Graphics/SVG/1.1/DTD/svg11.dtd">
<!-- Generated by graphviz version 2.36.0 (20140111.2315)
 -->
<!-- Title: o2::framework::rtr::DefaultKey Pages: 1 -->
<svg width="499pt" height="206pt"
 viewBox="0.00 0.00 499.00 206.00" xmlns="http://www.w3.org/2000/svg" xmlns:xlink="http://www.w3.org/1999/xlink">
<g id="graph0" class="graph" transform="scale(1 1) rotate(0) translate(4 202)">
<title>o2::framework::rtr::DefaultKey</title>
<!-- Node1 -->
<g id="node1" class="node"><title>Node1</title>
<polygon fill="#bfbfbf" stroke="black" points="154.5,-0.5 154.5,-79.5 253.5,-79.5 253.5,-0.5 154.5,-0.5"/>
<text text-anchor="start" x="162.5" y="-67.5" font-family="Helvetica,sans-Serif" font-size="10.00">o2::framework::rtr</text>
<text text-anchor="middle" x="204" y="-56.5" font-family="Helvetica,sans-Serif" font-size="10.00">::DefaultKey</text>
<polyline fill="none" stroke="black" points="154.5,-49.5 253.5,-49.5 "/>
<text text-anchor="middle" x="204" y="-37.5" font-family="Helvetica,sans-Serif" font-size="10.00"> </text>
<polyline fill="none" stroke="black" points="154.5,-30.5 253.5,-30.5 "/>
<text text-anchor="start" x="162.5" y="-18.5" font-family="Helvetica,sans-Serif" font-size="10.00">+ DefaultKey()</text>
<text text-anchor="start" x="162.5" y="-7.5" font-family="Helvetica,sans-Serif" font-size="10.00">+ operator Output()</text>
</g>
<!-- Node2 -->
<g id="node2" class="node"><title>Node2</title>
<polygon fill="none" stroke="#bfbfbf" points="-0.5,-134.5 -0.5,-191.5 50.5,-191.5 50.5,-134.5 -0.5,-134.5"/>
<text text-anchor="middle" x="25" y="-179.5" font-family="Helvetica,sans-Serif" font-size="10.00">uint64_t</text>
<polyline fill="none" stroke="#bfbfbf" points="-0.5,-172.5 50.5,-172.5 "/>
<text text-anchor="middle" x="25" y="-160.5" font-family="Helvetica,sans-Serif" font-size="10.00"> </text>
<polyline fill="none" stroke="#bfbfbf" points="-0.5,-153.5 50.5,-153.5 "/>
<text text-anchor="middle" x="25" y="-141.5" font-family="Helvetica,sans-Serif" font-size="10.00"> </text>
</g>
<!-- Node2&#45;&gt;Node1 -->
<g id="edge1" class="edge"><title>Node2&#45;&gt;Node1</title>
<path fill="none" stroke="#404040" d="M50.7877,-135.705C53.8083,-133.003 56.9148,-130.381 60,-128 86.0153,-107.926 116.975,-88.6941 143.509,-73.4404"/>
<polygon fill="none" stroke="#404040" points="143.764,-73.2954 147.007,-66.8544 154.2,-67.3704 150.957,-73.8113 143.764,-73.2954"/>
<text text-anchor="middle" x="126" y="-101.5" font-family="Helvetica,sans-Serif" font-size="10.00"> +subSpec</text>
</g>
<!-- Node3 -->
<g id="node3" class="node"><title>Node3</title>
<polygon fill="none" stroke="#bfbfbf" points="69,-129 69,-197 211,-197 211,-129 69,-129"/>
<text text-anchor="start" x="77" y="-185" font-family="Helvetica,sans-Serif" font-size="10.00">Descriptor&lt; gSizeDataOrigin</text>
<text text-anchor="middle" x="140" y="-174" font-family="Helvetica,sans-Serif" font-size="10.00">String, printDataOrigin &gt;</text>
<polyline fill="none" stroke="#bfbfbf" points="69,-167 211,-167 "/>
<text text-anchor="middle" x="140" y="-155" font-family="Helvetica,sans-Serif" font-size="10.00"> </text>
<polyline fill="none" stroke="#bfbfbf" points="69,-148 211,-148 "/>
<text text-anchor="middle" x="140" y="-136" font-family="Helvetica,sans-Serif" font-size="10.00"> </text>
</g>
<!-- Node3&#45;&gt;Node1 -->
<g id="edge2" class="edge"><title>Node3&#45;&gt;Node1</title>
<path fill="none" stroke="#404040" d="M157.488,-128.936C163.792,-117.019 171.048,-103.3 177.926,-90.2964"/>
<polygon fill="none" stroke="#404040" points="177.974,-90.2046 177.244,-83.0306 183.585,-79.597 184.316,-86.771 177.974,-90.2046"/>
<text text-anchor="middle" x="188.5" y="-101.5" font-family="Helvetica,sans-Serif" font-size="10.00"> +origin</text>
</g>
<!-- Node4 -->
<g id="node4" class="node"><title>Node4</title>
<polygon fill="none" stroke="#bfbfbf" points="229,-134.5 229,-191.5 307,-191.5 307,-134.5 229,-134.5"/>
<text text-anchor="middle" x="268" y="-179.5" font-family="Helvetica,sans-Serif" font-size="10.00">enum Lifetime</text>
<polyline fill="none" stroke="#bfbfbf" points="229,-172.5 307,-172.5 "/>
<text text-anchor="middle" x="268" y="-160.5" font-family="Helvetica,sans-Serif" font-size="10.00"> </text>
<polyline fill="none" stroke="#bfbfbf" points="229,-153.5 307,-153.5 "/>
<text text-anchor="middle" x="268" y="-141.5" font-family="Helvetica,sans-Serif" font-size="10.00"> </text>
</g>
<!-- Node4&#45;&gt;Node1 -->
<g id="edge3" class="edge"><title>Node4&#45;&gt;Node1</title>
<path fill="none" stroke="#404040" d="M253.317,-134.24C246.428,-121.215 238.005,-105.292 230.084,-90.3157"/>
<polygon fill="none" stroke="#404040" points="230.045,-90.241 223.704,-86.8075 224.434,-79.6334 230.775,-83.067 230.045,-90.241"/>
<text text-anchor="middle" x="260.5" y="-101.5" font-family="Helvetica,sans-Serif" font-size="10.00"> +lifetime</text>
</g>
<!-- Node5 -->
<g id="node5" class="node"><title>Node5</title>
<polygon fill="none" stroke="#bfbfbf" points="325,-129 325,-197 491,-197 491,-129 325,-129"/>
<text text-anchor="start" x="333" y="-185" font-family="Helvetica,sans-Serif" font-size="10.00">Descriptor&lt; gSizeDataDescription</text>
<text text-anchor="middle" x="408" y="-174" font-family="Helvetica,sans-Serif" font-size="10.00">String, printDataDescription &gt;</text>
<polyline fill="none" stroke="#bfbfbf" points="325,-167 491,-167 "/>
<text text-anchor="middle" x="408" y="-155" font-family="Helvetica,sans-Serif" font-size="10.00"> </text>
<polyline fill="none" stroke="#bfbfbf" points="325,-148 491,-148 "/>
<text text-anchor="middle" x="408" y="-136" font-family="Helvetica,sans-Serif" font-size="10.00"> </text>
</g>
<!-- Node5&#45;&gt;Node1 -->
<g id="edge4" class="edge"><title>Node5&#45;&gt;Node1</title>
<path fill="none" stroke="#404040" d="M352.256,-128.936C324.954,-112.742 292.042,-93.221 264.17,-76.6893"/>
<polygon fill="none" stroke="#404040" points="264.078,-76.6347 256.877,-77.0141 253.757,-70.5129 260.958,-70.1334 264.078,-76.6347"/>
<text text-anchor="middle" x="347.5" y="-101.5" font-family="Helvetica,sans-Serif" font-size="10.00"> +description</text>
</g>
</g>
</svg>
