<?xml version="1.0" encoding="UTF-8" standalone="no"?>
<!DOCTYPE svg PUBLIC "-//W3C//DTD SVG 1.1//EN"
 "http://www.w3.org/Graphics/SVG/1.1/DTD/svg11.dtd">
<!-- Generated by graphviz version 2.36.0 (20140111.2315)
 -->
<!-- Title: o2::dataformats::TimeStamp&lt; T &gt; Pages: 1 -->
<!--zoomable 676 -->
<svg id="main" version="1.1" xmlns="http://www.w3.org/2000/svg" xmlns:xlink="http://www.w3.org/1999/xlink" xml:space="preserve" onload="init(evt)">
<style type="text/css"><![CDATA[
.edge:hover path { stroke: red; }
.edge:hover polygon { stroke: red; fill: red; }
]]></style>
<script type="text/javascript"><![CDATA[
var edges = document.getElementsByTagName('g');
if (edges && edges.length) {
  for (var i=0;i<edges.length;i++) {
    if (edges[i].id.substr(0,4)=='edge') {
      edges[i].setAttribute('class','edge');
    }
  }
}
]]></script>
        <defs>
                <circle id="rim" cx="0" cy="0" r="7"/>
                <circle id="rim2" cx="0" cy="0" r="3.5"/>
                <g id="zoomPlus">
                        <use xlink:href="#rim" fill="#404040">
                                <set attributeName="fill" to="#808080" begin="zoomplus.mouseover" end="zoomplus.mouseout"/>
                        </use>
                        <path d="M-4,0h8M0,-4v8" fill="none" stroke="white" stroke-width="1.5" pointer-events="none"/>
                </g>
                <g id="zoomMin">
                        <use xlink:href="#rim" fill="#404040">
                                <set attributeName="fill" to="#808080" begin="zoomminus.mouseover" end="zoomminus.mouseout"/>
                        </use>
                        <path d="M-4,0h8" fill="none" stroke="white" stroke-width="1.5" pointer-events="none"/>
                </g>
                <g id="dirArrow">
                        <path fill="none" stroke="white" stroke-width="1.5" d="M0,-3.0v7 M-2.5,-0.5L0,-3.0L2.5,-0.5"/>
                </g>
               <g id="resetDef">
                       <use xlink:href="#rim2" fill="#404040">
                               <set attributeName="fill" to="#808080" begin="reset.mouseover" end="reset.mouseout"/>
                       </use>
               </g>
        </defs>

<script type="text/javascript">
var viewWidth = 768;
var viewHeight = 676;
var sectionId = 'dynsection-0';
</script>
<script xlink:href="../../svgpan.js"/>
<svg id="graph" class="graph">
<g id="viewport">
<title>o2::dataformats::TimeStamp&lt; T &gt;</title>
<!-- Node1 -->
<g id="node1" class="node"><title>Node1</title>
<polygon fill="#bfbfbf" stroke="black" points="174.5,-566.5 174.5,-667.5 339.5,-667.5 339.5,-566.5 174.5,-566.5"/>
<text text-anchor="middle" x="257" y="-655.5" font-family="Helvetica,sans-Serif" font-size="10.00">o2::dataformats::TimeStamp&lt; T &gt;</text>
<polyline fill="none" stroke="black" points="174.5,-648.5 339.5,-648.5 "/>
<text text-anchor="middle" x="257" y="-636.5" font-family="Helvetica,sans-Serif" font-size="10.00"> </text>
<polyline fill="none" stroke="black" points="174.5,-629.5 339.5,-629.5 "/>
<text text-anchor="start" x="182.5" y="-617.5" font-family="Helvetica,sans-Serif" font-size="10.00">+ TimeStamp()</text>
<text text-anchor="start" x="182.5" y="-606.5" font-family="Helvetica,sans-Serif" font-size="10.00">+ TimeStamp()</text>
<text text-anchor="start" x="182.5" y="-595.5" font-family="Helvetica,sans-Serif" font-size="10.00">+ getTimeStamp()</text>
<text text-anchor="start" x="182.5" y="-584.5" font-family="Helvetica,sans-Serif" font-size="10.00">+ setTimeStamp()</text>
<text text-anchor="start" x="182.5" y="-573.5" font-family="Helvetica,sans-Serif" font-size="10.00">+ operator==()</text>
</g>
<!-- Node2 -->
<g id="node2" class="node"><title>Node2</title>
<g id="a_node2"><a xlink:href="../../d3/dbf/classo2_1_1dataformats_1_1TimeStampWithError.html" target="_top" xlink:title="{o2::dataformats::TimeStamp\lWithError\&lt; T \&gt;\n||+ TimeStampWithError()\l+ TimeStampWithError()\l+ getTimeStampError()\l+ setTimeStampError()\l}">
<polygon fill="none" stroke="black" points="-0.5,-377.5 -0.5,-478.5 140.5,-478.5 140.5,-377.5 -0.5,-377.5"/>
<text text-anchor="start" x="7.5" y="-466.5" font-family="Helvetica,sans-Serif" font-size="10.00">o2::dataformats::TimeStamp</text>
<text text-anchor="middle" x="70" y="-455.5" font-family="Helvetica,sans-Serif" font-size="10.00">WithError&lt; T &gt;</text>
<polyline fill="none" stroke="black" points="-0.5,-448.5 140.5,-448.5 "/>
<text text-anchor="middle" x="70" y="-436.5" font-family="Helvetica,sans-Serif" font-size="10.00"> </text>
<polyline fill="none" stroke="black" points="-0.5,-429.5 140.5,-429.5 "/>
<text text-anchor="start" x="7.5" y="-417.5" font-family="Helvetica,sans-Serif" font-size="10.00">+ TimeStampWithError()</text>
<text text-anchor="start" x="7.5" y="-406.5" font-family="Helvetica,sans-Serif" font-size="10.00">+ TimeStampWithError()</text>
<text text-anchor="start" x="7.5" y="-395.5" font-family="Helvetica,sans-Serif" font-size="10.00">+ getTimeStampError()</text>
<text text-anchor="start" x="7.5" y="-384.5" font-family="Helvetica,sans-Serif" font-size="10.00">+ setTimeStampError()</text>
</a>
</g>
</g>
<!-- Node1&#45;&gt;Node2 -->
<g id="edge1" class="edge"><title>Node1&#45;&gt;Node2</title>
<path fill="none" stroke="midnightblue" d="M193.278,-559.509C178.797,-546.16 163.663,-531.791 150,-518 137.717,-505.602 124.882,-491.758 113.179,-478.752"/>
<polygon fill="none" stroke="midnightblue" points="191.043,-562.21 200.779,-566.389 195.775,-557.05 191.043,-562.21"/>
</g>
<!-- Node5 -->
<g id="node5" class="node"><title>Node5</title>
<g id="a_node5"><a xlink:href="../../dd/def/classo2_1_1TPC_1_1Digit.html" target="_top" xlink:title="{o2::TPC::Digit\&lt; int \&gt;\n|# mCharge\l# mCRU\l# mRow\l# mPad\l|+ Digit()\l+ Digit()\l+ ~Digit()\l+ getCharge()\l+ getChargeFloat()\l+ getCRU()\l+ getRow()\l+ getPad()\l# ClassDefNV()\l}">
<polygon fill="none" stroke="black" points="159,-339 159,-517 267,-517 267,-339 159,-339"/>
<text text-anchor="middle" x="213" y="-505" font-family="Helvetica,sans-Serif" font-size="10.00">o2::TPC::Digit&lt; int &gt;</text>
<polyline fill="none" stroke="black" points="159,-498 267,-498 "/>
<text text-anchor="start" x="167" y="-486" font-family="Helvetica,sans-Serif" font-size="10.00"># mCharge</text>
<text text-anchor="start" x="167" y="-475" font-family="Helvetica,sans-Serif" font-size="10.00"># mCRU</text>
<text text-anchor="start" x="167" y="-464" font-family="Helvetica,sans-Serif" font-size="10.00"># mRow</text>
<text text-anchor="start" x="167" y="-453" font-family="Helvetica,sans-Serif" font-size="10.00"># mPad</text>
<polyline fill="none" stroke="black" points="159,-446 267,-446 "/>
<text text-anchor="start" x="167" y="-434" font-family="Helvetica,sans-Serif" font-size="10.00">+ Digit()</text>
<text text-anchor="start" x="167" y="-423" font-family="Helvetica,sans-Serif" font-size="10.00">+ Digit()</text>
<text text-anchor="start" x="167" y="-412" font-family="Helvetica,sans-Serif" font-size="10.00">+ ~Digit()</text>
<text text-anchor="start" x="167" y="-401" font-family="Helvetica,sans-Serif" font-size="10.00">+ getCharge()</text>
<text text-anchor="start" x="167" y="-390" font-family="Helvetica,sans-Serif" font-size="10.00">+ getChargeFloat()</text>
<text text-anchor="start" x="167" y="-379" font-family="Helvetica,sans-Serif" font-size="10.00">+ getCRU()</text>
<text text-anchor="start" x="167" y="-368" font-family="Helvetica,sans-Serif" font-size="10.00">+ getRow()</text>
<text text-anchor="start" x="167" y="-357" font-family="Helvetica,sans-Serif" font-size="10.00">+ getPad()</text>
<text text-anchor="start" x="167" y="-346" font-family="Helvetica,sans-Serif" font-size="10.00"># ClassDefNV()</text>
</a>
</g>
</g>
<!-- Node1&#45;&gt;Node5 -->
<g id="edge4" class="edge"><title>Node1&#45;&gt;Node5</title>
<path fill="none" stroke="midnightblue" d="M243.011,-556.548C240.061,-544.011 236.889,-530.529 233.751,-517.191"/>
<polygon fill="none" stroke="midnightblue" points="239.627,-557.446 245.324,-566.378 246.441,-555.843 239.627,-557.446"/>
</g>
<!-- Node6 -->
<g id="node6" class="node"><title>Node6</title>
<g id="a_node6"><a xlink:href="../../d0/d94/classo2_1_1dataformats_1_1TimeStamp.html" target="_top" xlink:title="{o2::dataformats::TimeStamp\l\&lt; double \&gt;\n||+ TimeStamp()\l+ TimeStamp()\l+ getTimeStamp()\l+ setTimeStamp()\l+ operator==()\l}">
<polygon fill="none" stroke="black" points="444.5,-372 444.5,-484 585.5,-484 585.5,-372 444.5,-372"/>
<text text-anchor="start" x="452.5" y="-472" font-family="Helvetica,sans-Serif" font-size="10.00">o2::dataformats::TimeStamp</text>
<text text-anchor="middle" x="515" y="-461" font-family="Helvetica,sans-Serif" font-size="10.00">&lt; double &gt;</text>
<polyline fill="none" stroke="black" points="444.5,-454 585.5,-454 "/>
<text text-anchor="middle" x="515" y="-442" font-family="Helvetica,sans-Serif" font-size="10.00"> </text>
<polyline fill="none" stroke="black" points="444.5,-435 585.5,-435 "/>
<text text-anchor="start" x="452.5" y="-423" font-family="Helvetica,sans-Serif" font-size="10.00">+ TimeStamp()</text>
<text text-anchor="start" x="452.5" y="-412" font-family="Helvetica,sans-Serif" font-size="10.00">+ TimeStamp()</text>
<text text-anchor="start" x="452.5" y="-401" font-family="Helvetica,sans-Serif" font-size="10.00">+ getTimeStamp()</text>
<text text-anchor="start" x="452.5" y="-390" font-family="Helvetica,sans-Serif" font-size="10.00">+ setTimeStamp()</text>
<text text-anchor="start" x="452.5" y="-379" font-family="Helvetica,sans-Serif" font-size="10.00">+ operator==()</text>
</a>
</g>
</g>
<!-- Node1&#45;&gt;Node6 -->
<g id="edge5" class="edge"><title>Node1&#45;&gt;Node6</title>
<path fill="none" stroke="orange" d="M348.781,-573.048C377.667,-557.585 408.833,-538.771 435,-518 447.53,-508.054 459.76,-496.039 470.737,-484.1"/>
<polygon fill="orange" stroke="orange" points="347.107,-569.974 339.898,-577.738 350.375,-576.165 347.107,-569.974"/>
<text text-anchor="middle" x="434" y="-539.5" font-family="Helvetica,sans-Serif" font-size="10.00"> &lt; double &gt;</text>
</g>
<!-- Node11 -->
<g id="node11" class="node"><title>Node11</title>
<g id="a_node11"><a xlink:href="../../d0/d94/classo2_1_1dataformats_1_1TimeStamp.html" target="_top" xlink:title="{o2::dataformats::TimeStamp\l\&lt; float \&gt;\n||+ TimeStamp()\l+ TimeStamp()\l+ getTimeStamp()\l+ setTimeStamp()\l+ operator==()\l}">
<polygon fill="none" stroke="black" points="285.5,-372 285.5,-484 426.5,-484 426.5,-372 285.5,-372"/>
<text text-anchor="start" x="293.5" y="-472" font-family="Helvetica,sans-Serif" font-size="10.00">o2::dataformats::TimeStamp</text>
<text text-anchor="middle" x="356" y="-461" font-family="Helvetica,sans-Serif" font-size="10.00">&lt; float &gt;</text>
<polyline fill="none" stroke="black" points="285.5,-454 426.5,-454 "/>
<text text-anchor="middle" x="356" y="-442" font-family="Helvetica,sans-Serif" font-size="10.00"> </text>
<polyline fill="none" stroke="black" points="285.5,-435 426.5,-435 "/>
<text text-anchor="start" x="293.5" y="-423" font-family="Helvetica,sans-Serif" font-size="10.00">+ TimeStamp()</text>
<text text-anchor="start" x="293.5" y="-412" font-family="Helvetica,sans-Serif" font-size="10.00">+ TimeStamp()</text>
<text text-anchor="start" x="293.5" y="-401" font-family="Helvetica,sans-Serif" font-size="10.00">+ getTimeStamp()</text>
<text text-anchor="start" x="293.5" y="-390" font-family="Helvetica,sans-Serif" font-size="10.00">+ setTimeStamp()</text>
<text text-anchor="start" x="293.5" y="-379" font-family="Helvetica,sans-Serif" font-size="10.00">+ operator==()</text>
</a>
</g>
</g>
<!-- Node1&#45;&gt;Node11 -->
<g id="edge10" class="edge"><title>Node1&#45;&gt;Node11</title>
<path fill="none" stroke="orange" d="M288.095,-557.265C300.47,-533.89 314.635,-507.134 326.814,-484.128"/>
<polygon fill="orange" stroke="orange" points="284.856,-555.903 283.27,-566.378 291.042,-559.178 284.856,-555.903"/>
<text text-anchor="middle" x="318" y="-539.5" font-family="Helvetica,sans-Serif" font-size="10.00"> &lt; float &gt;</text>
</g>
<!-- Node3 -->
<g id="node3" class="node"><title>Node3</title>
<g id="a_node3"><a xlink:href="../../de/dd5/classo2_1_1TPC_1_1Cluster.html" target="_top" xlink:title="Cluster class for the TPC. ">
<polygon fill="none" stroke="black" points="9,-39.5 9,-250.5 131,-250.5 131,-39.5 9,-39.5"/>
<text text-anchor="start" x="17" y="-238.5" font-family="Helvetica,sans-Serif" font-size="10.00">o2::TPC::Cluster&lt; float,</text>
<text text-anchor="middle" x="70" y="-227.5" font-family="Helvetica,sans-Serif" font-size="10.00"> float &gt;</text>
<polyline fill="none" stroke="black" points="9,-220.5 131,-220.5 "/>
<text text-anchor="middle" x="70" y="-208.5" font-family="Helvetica,sans-Serif" font-size="10.00"> </text>
<polyline fill="none" stroke="black" points="9,-201.5 131,-201.5 "/>
<text text-anchor="start" x="17" y="-189.5" font-family="Helvetica,sans-Serif" font-size="10.00">+ Cluster()</text>
<text text-anchor="start" x="17" y="-178.5" font-family="Helvetica,sans-Serif" font-size="10.00">+ Cluster()</text>
<text text-anchor="start" x="17" y="-167.5" font-family="Helvetica,sans-Serif" font-size="10.00">+ ~Cluster()</text>
<text text-anchor="start" x="17" y="-156.5" font-family="Helvetica,sans-Serif" font-size="10.00">+ Cluster()</text>
<text text-anchor="start" x="17" y="-145.5" font-family="Helvetica,sans-Serif" font-size="10.00">+ setParameters()</text>
<text text-anchor="start" x="17" y="-134.5" font-family="Helvetica,sans-Serif" font-size="10.00">+ getCRU()</text>
<text text-anchor="start" x="17" y="-123.5" font-family="Helvetica,sans-Serif" font-size="10.00">+ getRow()</text>
<text text-anchor="start" x="17" y="-112.5" font-family="Helvetica,sans-Serif" font-size="10.00">+ getQ()</text>
<text text-anchor="start" x="17" y="-101.5" font-family="Helvetica,sans-Serif" font-size="10.00">+ getQmax()</text>
<text text-anchor="start" x="17" y="-90.5" font-family="Helvetica,sans-Serif" font-size="10.00">+ getPadMean()</text>
<text text-anchor="start" x="17" y="-79.5" font-family="Helvetica,sans-Serif" font-size="10.00">+ getTimeMean()</text>
<text text-anchor="start" x="17" y="-68.5" font-family="Helvetica,sans-Serif" font-size="10.00">+ getPadSigma()</text>
<text text-anchor="start" x="17" y="-57.5" font-family="Helvetica,sans-Serif" font-size="10.00">+ getTimeSigma()</text>
<text text-anchor="start" x="17" y="-46.5" font-family="Helvetica,sans-Serif" font-size="10.00"># print()</text>
</a>
</g>
</g>
<!-- Node2&#45;&gt;Node3 -->
<g id="edge2" class="edge"><title>Node2&#45;&gt;Node3</title>
<path fill="none" stroke="midnightblue" d="M70,-367.216C70,-333.342 70,-289.995 70,-250.663"/>
<polygon fill="none" stroke="midnightblue" points="66.5001,-367.41 70,-377.41 73.5001,-367.41 66.5001,-367.41"/>
</g>
<!-- Node4 -->
<g id="node4" class="node"><title>Node4</title>
<g id="a_node4"><a xlink:href="../../d3/dbf/classo2_1_1dataformats_1_1TimeStampWithError.html" target="_top" xlink:title="{o2::dataformats::TimeStamp\lWithError\&lt; float, float \&gt;\n||+ TimeStampWithError()\l+ TimeStampWithError()\l+ getTimeStampError()\l+ setTimeStampError()\l}">
<polygon fill="none" stroke="black" points="178.5,-94.5 178.5,-195.5 319.5,-195.5 319.5,-94.5 178.5,-94.5"/>
<text text-anchor="start" x="186.5" y="-183.5" font-family="Helvetica,sans-Serif" font-size="10.00">o2::dataformats::TimeStamp</text>
<text text-anchor="middle" x="249" y="-172.5" font-family="Helvetica,sans-Serif" font-size="10.00">WithError&lt; float, float &gt;</text>
<polyline fill="none" stroke="black" points="178.5,-165.5 319.5,-165.5 "/>
<text text-anchor="middle" x="249" y="-153.5" font-family="Helvetica,sans-Serif" font-size="10.00"> </text>
<polyline fill="none" stroke="black" points="178.5,-146.5 319.5,-146.5 "/>
<text text-anchor="start" x="186.5" y="-134.5" font-family="Helvetica,sans-Serif" font-size="10.00">+ TimeStampWithError()</text>
<text text-anchor="start" x="186.5" y="-123.5" font-family="Helvetica,sans-Serif" font-size="10.00">+ TimeStampWithError()</text>
<text text-anchor="start" x="186.5" y="-112.5" font-family="Helvetica,sans-Serif" font-size="10.00">+ getTimeStampError()</text>
<text text-anchor="start" x="186.5" y="-101.5" font-family="Helvetica,sans-Serif" font-size="10.00">+ setTimeStampError()</text>
</a>
</g>
</g>
<!-- Node2&#45;&gt;Node4 -->
<g id="edge3" class="edge"><title>Node2&#45;&gt;Node4</title>
<path fill="none" stroke="orange" d="M107.097,-368.765C139.689,-317.599 186.596,-243.964 217.426,-195.566"/>
<polygon fill="orange" stroke="orange" points="104.01,-367.095 101.59,-377.41 109.914,-370.856 104.01,-367.095"/>
<text text-anchor="middle" x="176.5" y="-311.5" font-family="Helvetica,sans-Serif" font-size="10.00"> &lt; float, float &gt;</text>
</g>
<!-- Node7 -->
<g id="node7" class="node"><title>Node7</title>
<g id="a_node7"><a xlink:href="../../d5/d5a/classo2_1_1EMCAL_1_1Digit.html" target="_top" xlink:title="EMCAL digit implementation. ">
<polygon fill="none" stroke="black" points="453,-56 453,-234 547,-234 547,-56 453,-56"/>
<text text-anchor="middle" x="500" y="-222" font-family="Helvetica,sans-Serif" font-size="10.00">o2::EMCAL::Digit</text>
<polyline fill="none" stroke="black" points="453,-215 547,-215 "/>
<text text-anchor="middle" x="500" y="-203" font-family="Helvetica,sans-Serif" font-size="10.00"> </text>
<polyline fill="none" stroke="black" points="453,-196 547,-196 "/>
<text text-anchor="start" x="461" y="-184" font-family="Helvetica,sans-Serif" font-size="10.00">+ Digit()</text>
<text text-anchor="start" x="461" y="-173" font-family="Helvetica,sans-Serif" font-size="10.00">+ Digit()</text>
<text text-anchor="start" x="461" y="-162" font-family="Helvetica,sans-Serif" font-size="10.00">+ ~Digit()</text>
<text text-anchor="start" x="461" y="-151" font-family="Helvetica,sans-Serif" font-size="10.00">+ operator&lt;()</text>
<text text-anchor="start" x="461" y="-140" font-family="Helvetica,sans-Serif" font-size="10.00">+ operator&gt;()</text>
<text text-anchor="start" x="461" y="-129" font-family="Helvetica,sans-Serif" font-size="10.00">+ canAdd()</text>
<text text-anchor="start" x="461" y="-118" font-family="Helvetica,sans-Serif" font-size="10.00">+ operator+=()</text>
<text text-anchor="start" x="461" y="-107" font-family="Helvetica,sans-Serif" font-size="10.00">+ GetTower()</text>
<text text-anchor="start" x="461" y="-96" font-family="Helvetica,sans-Serif" font-size="10.00">+ SetTower()</text>
<text text-anchor="start" x="461" y="-85" font-family="Helvetica,sans-Serif" font-size="10.00">+ GetAmplitude()</text>
<text text-anchor="start" x="461" y="-74" font-family="Helvetica,sans-Serif" font-size="10.00">+ SetAmplitude()</text>
<text text-anchor="start" x="461" y="-63" font-family="Helvetica,sans-Serif" font-size="10.00">+ PrintStream()</text>
</a>
</g>
</g>
<!-- Node6&#45;&gt;Node7 -->
<g id="edge6" class="edge"><title>Node6&#45;&gt;Node7</title>
<path fill="none" stroke="midnightblue" d="M511.499,-361.422C509.477,-323.545 506.907,-275.399 504.71,-234.235"/>
<polygon fill="none" stroke="midnightblue" points="508.026,-362.02 512.054,-371.819 515.016,-361.646 508.026,-362.02"/>
</g>
<!-- Node8 -->
<g id="node8" class="node"><title>Node8</title>
<g id="a_node8"><a xlink:href="../../db/df9/classo2_1_1fit_1_1Digit.html" target="_top" xlink:title="FIT digit implementation. ">
<polygon fill="none" stroke="black" points="565,-45 565,-245 647,-245 647,-45 565,-45"/>
<text text-anchor="middle" x="606" y="-233" font-family="Helvetica,sans-Serif" font-size="10.00">o2::fit::Digit</text>
<polyline fill="none" stroke="black" points="565,-226 647,-226 "/>
<text text-anchor="middle" x="606" y="-214" font-family="Helvetica,sans-Serif" font-size="10.00"> </text>
<polyline fill="none" stroke="black" points="565,-207 647,-207 "/>
<text text-anchor="start" x="573" y="-195" font-family="Helvetica,sans-Serif" font-size="10.00">+ Digit()</text>
<text text-anchor="start" x="573" y="-184" font-family="Helvetica,sans-Serif" font-size="10.00">+ Digit()</text>
<text text-anchor="start" x="573" y="-173" font-family="Helvetica,sans-Serif" font-size="10.00">+ ~Digit()</text>
<text text-anchor="start" x="573" y="-162" font-family="Helvetica,sans-Serif" font-size="10.00">+ getChannel()</text>
<text text-anchor="start" x="573" y="-151" font-family="Helvetica,sans-Serif" font-size="10.00">+ setChannel()</text>
<text text-anchor="start" x="573" y="-140" font-family="Helvetica,sans-Serif" font-size="10.00">+ getTime()</text>
<text text-anchor="start" x="573" y="-129" font-family="Helvetica,sans-Serif" font-size="10.00">+ setTime()</text>
<text text-anchor="start" x="573" y="-118" font-family="Helvetica,sans-Serif" font-size="10.00">+ getCFD()</text>
<text text-anchor="start" x="573" y="-107" font-family="Helvetica,sans-Serif" font-size="10.00">+ setCFD()</text>
<text text-anchor="start" x="573" y="-96" font-family="Helvetica,sans-Serif" font-size="10.00">+ getQTC()</text>
<text text-anchor="start" x="573" y="-85" font-family="Helvetica,sans-Serif" font-size="10.00">+ setQTC()</text>
<text text-anchor="start" x="573" y="-74" font-family="Helvetica,sans-Serif" font-size="10.00">+ getBC()</text>
<text text-anchor="start" x="573" y="-63" font-family="Helvetica,sans-Serif" font-size="10.00">+ setBC()</text>
<text text-anchor="start" x="573" y="-52" font-family="Helvetica,sans-Serif" font-size="10.00">+ printStream()</text>
</a>
</g>
</g>
<!-- Node6&#45;&gt;Node8 -->
<g id="edge7" class="edge"><title>Node6&#45;&gt;Node8</title>
<path fill="none" stroke="midnightblue" d="M535.962,-362.271C547.206,-327.55 561.302,-284.022 573.896,-245.135"/>
<polygon fill="none" stroke="midnightblue" points="532.621,-361.227 532.87,-371.819 539.281,-363.383 532.621,-361.227"/>
</g>
<!-- Node9 -->
<g id="node9" class="node"><title>Node9</title>
<g id="a_node9"><a xlink:href="../../df/dbc/classo2_1_1phos_1_1Digit.html" target="_top" xlink:title="{o2::phos::Digit\n|+ kMaxLabels\l+ kTimeGate\l|+ Digit()\l+ Digit()\l+ Digit()\l+ ~Digit()\l+ FillFromHit()\l+ operator\&lt;()\l+ operator\&gt;()\l+ canAdd()\l+ operator+=()\l+ getAbsId()\l+ setAbsId()\l+ getAmplitude()\l+ setAmplitude()\l+ getTime()\l+ setTime()\l+ isHighGain()\l+ setHighGain()\l+ getLabel()\l+ getLabelEProp()\l+ getNLabels()\l+ PrintStream()\l}">
<polygon fill="none" stroke="black" points="665.5,-1 665.5,-289 760.5,-289 760.5,-1 665.5,-1"/>
<text text-anchor="middle" x="713" y="-277" font-family="Helvetica,sans-Serif" font-size="10.00">o2::phos::Digit</text>
<polyline fill="none" stroke="black" points="665.5,-270 760.5,-270 "/>
<text text-anchor="start" x="673.5" y="-258" font-family="Helvetica,sans-Serif" font-size="10.00">+ kMaxLabels</text>
<text text-anchor="start" x="673.5" y="-247" font-family="Helvetica,sans-Serif" font-size="10.00">+ kTimeGate</text>
<polyline fill="none" stroke="black" points="665.5,-240 760.5,-240 "/>
<text text-anchor="start" x="673.5" y="-228" font-family="Helvetica,sans-Serif" font-size="10.00">+ Digit()</text>
<text text-anchor="start" x="673.5" y="-217" font-family="Helvetica,sans-Serif" font-size="10.00">+ Digit()</text>
<text text-anchor="start" x="673.5" y="-206" font-family="Helvetica,sans-Serif" font-size="10.00">+ Digit()</text>
<text text-anchor="start" x="673.5" y="-195" font-family="Helvetica,sans-Serif" font-size="10.00">+ ~Digit()</text>
<text text-anchor="start" x="673.5" y="-184" font-family="Helvetica,sans-Serif" font-size="10.00">+ FillFromHit()</text>
<text text-anchor="start" x="673.5" y="-173" font-family="Helvetica,sans-Serif" font-size="10.00">+ operator&lt;()</text>
<text text-anchor="start" x="673.5" y="-162" font-family="Helvetica,sans-Serif" font-size="10.00">+ operator&gt;()</text>
<text text-anchor="start" x="673.5" y="-151" font-family="Helvetica,sans-Serif" font-size="10.00">+ canAdd()</text>
<text text-anchor="start" x="673.5" y="-140" font-family="Helvetica,sans-Serif" font-size="10.00">+ operator+=()</text>
<text text-anchor="start" x="673.5" y="-129" font-family="Helvetica,sans-Serif" font-size="10.00">+ getAbsId()</text>
<text text-anchor="start" x="673.5" y="-118" font-family="Helvetica,sans-Serif" font-size="10.00">+ setAbsId()</text>
<text text-anchor="start" x="673.5" y="-107" font-family="Helvetica,sans-Serif" font-size="10.00">+ getAmplitude()</text>
<text text-anchor="start" x="673.5" y="-96" font-family="Helvetica,sans-Serif" font-size="10.00">+ setAmplitude()</text>
<text text-anchor="start" x="673.5" y="-85" font-family="Helvetica,sans-Serif" font-size="10.00">+ getTime()</text>
<text text-anchor="start" x="673.5" y="-74" font-family="Helvetica,sans-Serif" font-size="10.00">+ setTime()</text>
<text text-anchor="start" x="673.5" y="-63" font-family="Helvetica,sans-Serif" font-size="10.00">+ isHighGain()</text>
<text text-anchor="start" x="673.5" y="-52" font-family="Helvetica,sans-Serif" font-size="10.00">+ setHighGain()</text>
<text text-anchor="start" x="673.5" y="-41" font-family="Helvetica,sans-Serif" font-size="10.00">+ getLabel()</text>
<text text-anchor="start" x="673.5" y="-30" font-family="Helvetica,sans-Serif" font-size="10.00">+ getLabelEProp()</text>
<text text-anchor="start" x="673.5" y="-19" font-family="Helvetica,sans-Serif" font-size="10.00">+ getNLabels()</text>
<text text-anchor="start" x="673.5" y="-8" font-family="Helvetica,sans-Serif" font-size="10.00">+ PrintStream()</text>
</a>
</g>
</g>
<!-- Node6&#45;&gt;Node9 -->
<g id="edge8" class="edge"><title>Node6&#45;&gt;Node9</title>
<path fill="none" stroke="midnightblue" d="M590.663,-364.738C613.848,-342.9 637.967,-317.029 656,-290 659.283,-285.079 662.422,-279.941 665.419,-274.659"/>
<polygon fill="none" stroke="midnightblue" points="588.128,-362.315 583.177,-371.682 592.888,-367.447 588.128,-362.315"/>
</g>
<!-- Node10 -->
<g id="node10" class="node"><title>Node10</title>
<g id="a_node10"><a xlink:href="../../d8/db4/classo2_1_1tof_1_1Digit.html" target="_top" xlink:title="TOF digit implementation. ">
<polygon fill="none" stroke="black" points="353,-56 353,-234 435,-234 435,-56 353,-56"/>
<text text-anchor="middle" x="394" y="-222" font-family="Helvetica,sans-Serif" font-size="10.00">o2::tof::Digit</text>
<polyline fill="none" stroke="black" points="353,-215 435,-215 "/>
<text text-anchor="middle" x="394" y="-203" font-family="Helvetica,sans-Serif" font-size="10.00"> </text>
<polyline fill="none" stroke="black" points="353,-196 435,-196 "/>
<text text-anchor="start" x="361" y="-184" font-family="Helvetica,sans-Serif" font-size="10.00">+ Digit()</text>
<text text-anchor="start" x="361" y="-173" font-family="Helvetica,sans-Serif" font-size="10.00">+ Digit()</text>
<text text-anchor="start" x="361" y="-162" font-family="Helvetica,sans-Serif" font-size="10.00">+ ~Digit()</text>
<text text-anchor="start" x="361" y="-151" font-family="Helvetica,sans-Serif" font-size="10.00">+ getChannel()</text>
<text text-anchor="start" x="361" y="-140" font-family="Helvetica,sans-Serif" font-size="10.00">+ setChannel()</text>
<text text-anchor="start" x="361" y="-129" font-family="Helvetica,sans-Serif" font-size="10.00">+ getTDC()</text>
<text text-anchor="start" x="361" y="-118" font-family="Helvetica,sans-Serif" font-size="10.00">+ setTDC()</text>
<text text-anchor="start" x="361" y="-107" font-family="Helvetica,sans-Serif" font-size="10.00">+ getTOT()</text>
<text text-anchor="start" x="361" y="-96" font-family="Helvetica,sans-Serif" font-size="10.00">+ setTOT()</text>
<text text-anchor="start" x="361" y="-85" font-family="Helvetica,sans-Serif" font-size="10.00">+ getBC()</text>
<text text-anchor="start" x="361" y="-74" font-family="Helvetica,sans-Serif" font-size="10.00">+ setBC()</text>
<text text-anchor="start" x="361" y="-63" font-family="Helvetica,sans-Serif" font-size="10.00">+ printStream()</text>
</a>
</g>
</g>
<!-- Node6&#45;&gt;Node10 -->
<g id="edge9" class="edge"><title>Node6&#45;&gt;Node10</title>
<path fill="none" stroke="midnightblue" d="M479.42,-363.023C467.438,-340.306 454.465,-314.333 444,-290 436.367,-272.253 429.022,-252.918 422.421,-234.344"/>
<polygon fill="none" stroke="midnightblue" points="476.347,-364.699 484.131,-371.886 482.528,-361.413 476.347,-364.699"/>
</g>
<!-- Node11&#45;&gt;Node4 -->
<g id="edge11" class="edge"><title>Node11&#45;&gt;Node4</title>
<path fill="none" stroke="midnightblue" d="M331.353,-362.273C312.071,-311.634 285.654,-242.259 267.991,-195.873"/>
<polygon fill="none" stroke="midnightblue" points="328.158,-363.719 334.988,-371.819 334.7,-361.228 328.158,-363.719"/>
</g>
</g>
</svg>
        <g id="navigator" transform="translate(0 0)" fill="#404254">
                <rect fill="#f2f5e9" fill-opacity="0.5" stroke="#606060" stroke-width=".5" x="0" y="0" width="60" height="60"/>
                <use id="zoomplus" xlink:href="#zoomPlus" x="17" y="9" onmousedown="handleZoom(evt,'in')"/>
                <use id="zoomminus" xlink:href="#zoomMin" x="42" y="9" onmousedown="handleZoom(evt,'out')"/>
                <use id="reset" xlink:href="#resetDef" x="30" y="36" onmousedown="handleReset()"/>
                <g id="arrowUp" xlink:href="#dirArrow" transform="translate(30 24)" onmousedown="handlePan(0,-1)">
                  <use xlink:href="#rim" fill="#404040">
                        <set attributeName="fill" to="#808080" begin="arrowUp.mouseover" end="arrowUp.mouseout"/>
                  </use>
                  <path fill="none" stroke="white" stroke-width="1.5" d="M0,-3.0v7 M-2.5,-0.5L0,-3.0L2.5,-0.5"/>
                </g>
                <g id="arrowRight" xlink:href="#dirArrow" transform="rotate(90) translate(36 -43)" onmousedown="handlePan(1,0)">
                  <use xlink:href="#rim" fill="#404040">
                        <set attributeName="fill" to="#808080" begin="arrowRight.mouseover" end="arrowRight.mouseout"/>
                  </use>
                  <path fill="none" stroke="white" stroke-width="1.5" d="M0,-3.0v7 M-2.5,-0.5L0,-3.0L2.5,-0.5"/>
                </g>
                <g id="arrowDown" xlink:href="#dirArrow" transform="rotate(180) translate(-30 -48)" onmousedown="handlePan(0,1)">
                  <use xlink:href="#rim" fill="#404040">
                        <set attributeName="fill" to="#808080" begin="arrowDown.mouseover" end="arrowDown.mouseout"/>
                  </use>
                  <path fill="none" stroke="white" stroke-width="1.5" d="M0,-3.0v7 M-2.5,-0.5L0,-3.0L2.5,-0.5"/>
                </g>
                <g id="arrowLeft" xlink:href="#dirArrow" transform="rotate(270) translate(-36 17)" onmousedown="handlePan(-1,0)">
                  <use xlink:href="#rim" fill="#404040">
                        <set attributeName="fill" to="#808080" begin="arrowLeft.mouseover" end="arrowLeft.mouseout"/>
                  </use>
                  <path fill="none" stroke="white" stroke-width="1.5" d="M0,-3.0v7 M-2.5,-0.5L0,-3.0L2.5,-0.5"/>
                </g>
        </g>
        <svg viewBox="0 0 15 15" width="100%" height="30px" preserveAspectRatio="xMaxYMin meet">
         <g id="arrow_out" transform="scale(0.3 0.3)">
          <a xlink:href="classo2_1_1dataformats_1_1TimeStamp__inherit__graph_org.svg" target="_base">
           <rect id="button" ry="5" rx="5" y="6" x="6" height="38" width="38"
                fill="#f2f5e9" fill-opacity="0.5" stroke="#606060" stroke-width="1.0"/>
           <path id="arrow"
             d="M 11.500037,31.436501 C 11.940474,20.09759 22.043105,11.32322 32.158766,21.979434 L 37.068811,17.246167 C 37.068811,17.246167 37.088388,32 37.088388,32 L 22.160133,31.978069 C 22.160133,31.978069 26.997745,27.140456 26.997745,27.140456 C 18.528582,18.264221 13.291696,25.230495 11.500037,31.436501 z"
             style="fill:#404040;"/>
          </a>
         </g>
        </svg>
</svg>
