<?xml version="1.0" encoding="UTF-8" standalone="no"?>
<!DOCTYPE svg PUBLIC "-//W3C//DTD SVG 1.1//EN"
 "http://www.w3.org/Graphics/SVG/1.1/DTD/svg11.dtd">
<!-- Generated by graphviz version 2.36.0 (20140111.2315)
 -->
<!-- Title: /home/travis/build/AliceO2Group/AliceO2/Steer/include/Steer/InteractionSampler.h Pages: 1 -->
<svg width="1165pt" height="510pt"
 viewBox="0.00 0.00 1165.00 510.00" xmlns="http://www.w3.org/2000/svg" xmlns:xlink="http://www.w3.org/1999/xlink">
<g id="graph0" class="graph" transform="scale(1 1) rotate(0) translate(4 506)">
<title>/home/travis/build/AliceO2Group/AliceO2/Steer/include/Steer/InteractionSampler.h</title>
<!-- Node1 -->
<g id="node1" class="node"><title>Node1</title>
<polygon fill="#bfbfbf" stroke="black" points="457,-449 457,-501 609,-501 609,-449 457,-449"/>
<text text-anchor="start" x="465" y="-489" font-family="Helvetica,sans-Serif" font-size="10.00">/home/travis/build</text>
<text text-anchor="start" x="465" y="-478" font-family="Helvetica,sans-Serif" font-size="10.00">/AliceO2Group/AliceO2</text>
<text text-anchor="start" x="465" y="-467" font-family="Helvetica,sans-Serif" font-size="10.00">/Steer/include/Steer/Interaction</text>
<text text-anchor="middle" x="533" y="-456" font-family="Helvetica,sans-Serif" font-size="10.00">Sampler.h</text>
</g>
<!-- Node2 -->
<g id="node2" class="node"><title>Node2</title>
<g id="a_node2"><a xlink:href="../../db/d50/O2HitMerger_8h.html" target="_top" xlink:title="/home/travis/build\l/AliceO2Group/AliceO2\l/run/O2HitMerger.h">
<polygon fill="none" stroke="black" points="141,-364.5 141,-405.5 259,-405.5 259,-364.5 141,-364.5"/>
<text text-anchor="start" x="149" y="-393.5" font-family="Helvetica,sans-Serif" font-size="10.00">/home/travis/build</text>
<text text-anchor="start" x="149" y="-382.5" font-family="Helvetica,sans-Serif" font-size="10.00">/AliceO2Group/AliceO2</text>
<text text-anchor="middle" x="200" y="-371.5" font-family="Helvetica,sans-Serif" font-size="10.00">/run/O2HitMerger.h</text>
</a>
</g>
</g>
<!-- Node1&#45;&gt;Node2 -->
<g id="edge1" class="edge"><title>Node1&#45;&gt;Node2</title>
<path fill="none" stroke="midnightblue" d="M446.931,-451.255C387.988,-435.679 311.345,-415.425 259.185,-401.641"/>
<polygon fill="midnightblue" stroke="midnightblue" points="446.041,-454.64 456.603,-453.811 447.829,-447.872 446.041,-454.64"/>
</g>
<!-- Node4 -->
<g id="node4" class="node"><title>Node4</title>
<g id="a_node4"><a xlink:href="../../d3/d87/CollisionTimePrinter_8cxx.html" target="_top" xlink:title="/home/travis/build\l/AliceO2Group/AliceO2\l/Steer/DigitizerWorkflow\l/src/CollisionTimePrinter.cxx">
<polygon fill="none" stroke="black" points="250.5,-269 250.5,-321 393.5,-321 393.5,-269 250.5,-269"/>
<text text-anchor="start" x="258.5" y="-309" font-family="Helvetica,sans-Serif" font-size="10.00">/home/travis/build</text>
<text text-anchor="start" x="258.5" y="-298" font-family="Helvetica,sans-Serif" font-size="10.00">/AliceO2Group/AliceO2</text>
<text text-anchor="start" x="258.5" y="-287" font-family="Helvetica,sans-Serif" font-size="10.00">/Steer/DigitizerWorkflow</text>
<text text-anchor="middle" x="322" y="-276" font-family="Helvetica,sans-Serif" font-size="10.00">/src/CollisionTimePrinter.cxx</text>
</a>
</g>
</g>
<!-- Node1&#45;&gt;Node4 -->
<g id="edge4" class="edge"><title>Node1&#45;&gt;Node4</title>
<path fill="none" stroke="midnightblue" d="M483.813,-443.219C469.619,-433.712 454.364,-422.869 441,-412 405.635,-383.237 368.594,-345.791 345.417,-321.337"/>
<polygon fill="midnightblue" stroke="midnightblue" points="482.216,-446.358 492.488,-448.954 486.076,-440.519 482.216,-446.358"/>
</g>
<!-- Node5 -->
<g id="node5" class="node"><title>Node5</title>
<g id="a_node5"><a xlink:href="../../dd/d40/HitProcessingManager_8h.html" target="_top" xlink:title="/home/travis/build\l/AliceO2Group/AliceO2\l/Steer/include/Steer/HitProcessing\lManager.h">
<polygon fill="none" stroke="black" points="449.5,-359 449.5,-411 616.5,-411 616.5,-359 449.5,-359"/>
<text text-anchor="start" x="457.5" y="-399" font-family="Helvetica,sans-Serif" font-size="10.00">/home/travis/build</text>
<text text-anchor="start" x="457.5" y="-388" font-family="Helvetica,sans-Serif" font-size="10.00">/AliceO2Group/AliceO2</text>
<text text-anchor="start" x="457.5" y="-377" font-family="Helvetica,sans-Serif" font-size="10.00">/Steer/include/Steer/HitProcessing</text>
<text text-anchor="middle" x="533" y="-366" font-family="Helvetica,sans-Serif" font-size="10.00">Manager.h</text>
</a>
</g>
</g>
<!-- Node1&#45;&gt;Node5 -->
<g id="edge5" class="edge"><title>Node1&#45;&gt;Node5</title>
<path fill="none" stroke="midnightblue" d="M533,-438.489C533,-429.309 533,-419.616 533,-411.092"/>
<polygon fill="midnightblue" stroke="midnightblue" points="529.5,-438.547 533,-448.547 536.5,-438.547 529.5,-438.547"/>
</g>
<!-- Node18 -->
<g id="node18" class="node"><title>Node18</title>
<g id="a_node18"><a xlink:href="../../de/d50/InteractionSampler_8cxx.html" target="_top" xlink:title="/home/travis/build\l/AliceO2Group/AliceO2\l/Steer/src/InteractionSampler.cxx">
<polygon fill="none" stroke="black" points="634.5,-364.5 634.5,-405.5 797.5,-405.5 797.5,-364.5 634.5,-364.5"/>
<text text-anchor="start" x="642.5" y="-393.5" font-family="Helvetica,sans-Serif" font-size="10.00">/home/travis/build</text>
<text text-anchor="start" x="642.5" y="-382.5" font-family="Helvetica,sans-Serif" font-size="10.00">/AliceO2Group/AliceO2</text>
<text text-anchor="middle" x="716" y="-371.5" font-family="Helvetica,sans-Serif" font-size="10.00">/Steer/src/InteractionSampler.cxx</text>
</a>
</g>
</g>
<!-- Node1&#45;&gt;Node18 -->
<g id="edge23" class="edge"><title>Node1&#45;&gt;Node18</title>
<path fill="none" stroke="midnightblue" d="M594.654,-444.352C621.195,-431.589 651.498,-417.018 675.182,-405.628"/>
<polygon fill="midnightblue" stroke="midnightblue" points="592.936,-441.295 585.44,-448.783 595.969,-447.603 592.936,-441.295"/>
</g>
<!-- Node19 -->
<g id="node19" class="node"><title>Node19</title>
<g id="a_node19"><a xlink:href="../../d6/d9e/testInteractionSampler_8cxx.html" target="_top" xlink:title="/home/travis/build\l/AliceO2Group/AliceO2\l/Steer/test/testInteractionSampler.cxx">
<polygon fill="none" stroke="black" points="816,-364.5 816,-405.5 998,-405.5 998,-364.5 816,-364.5"/>
<text text-anchor="start" x="824" y="-393.5" font-family="Helvetica,sans-Serif" font-size="10.00">/home/travis/build</text>
<text text-anchor="start" x="824" y="-382.5" font-family="Helvetica,sans-Serif" font-size="10.00">/AliceO2Group/AliceO2</text>
<text text-anchor="middle" x="907" y="-371.5" font-family="Helvetica,sans-Serif" font-size="10.00">/Steer/test/testInteractionSampler.cxx</text>
</a>
</g>
</g>
<!-- Node1&#45;&gt;Node19 -->
<g id="edge24" class="edge"><title>Node1&#45;&gt;Node19</title>
<path fill="none" stroke="midnightblue" d="M618.889,-455.155C672.727,-443.179 743.521,-427.133 806,-412 814.447,-409.954 823.277,-407.761 832.049,-405.549"/>
<polygon fill="midnightblue" stroke="midnightblue" points="618.043,-451.758 609.04,-457.343 619.561,-458.592 618.043,-451.758"/>
</g>
<!-- Node2&#45;&gt;Node2 -->
<g id="edge2" class="edge"><title>Node2&#45;&gt;Node2</title>
<path fill="none" stroke="midnightblue" d="M268.662,-397.611C273.826,-394.798 277,-390.595 277,-385 277,-376.475 269.63,-371.18 259.079,-369.115"/>
<polygon fill="midnightblue" stroke="midnightblue" points="267.41,-394.34 259.079,-400.885 269.674,-400.964 267.41,-394.34"/>
</g>
<!-- Node3 -->
<g id="node3" class="node"><title>Node3</title>
<g id="a_node3"><a xlink:href="../../d9/d16/O2HitMergerRunner_8cxx.html" target="_top" xlink:title="/home/travis/build\l/AliceO2Group/AliceO2\l/run/O2HitMergerRunner.cxx">
<polygon fill="none" stroke="black" points="90,-274.5 90,-315.5 232,-315.5 232,-274.5 90,-274.5"/>
<text text-anchor="start" x="98" y="-303.5" font-family="Helvetica,sans-Serif" font-size="10.00">/home/travis/build</text>
<text text-anchor="start" x="98" y="-292.5" font-family="Helvetica,sans-Serif" font-size="10.00">/AliceO2Group/AliceO2</text>
<text text-anchor="middle" x="161" y="-281.5" font-family="Helvetica,sans-Serif" font-size="10.00">/run/O2HitMergerRunner.cxx</text>
</a>
</g>
</g>
<!-- Node2&#45;&gt;Node3 -->
<g id="edge3" class="edge"><title>Node2&#45;&gt;Node3</title>
<path fill="none" stroke="midnightblue" d="M187.187,-355.09C181.479,-342.21 174.901,-327.367 169.766,-315.78"/>
<polygon fill="midnightblue" stroke="midnightblue" points="184.093,-356.746 191.345,-364.47 190.493,-353.909 184.093,-356.746"/>
</g>
<!-- Node5&#45;&gt;Node4 -->
<g id="edge18" class="edge"><title>Node5&#45;&gt;Node4</title>
<path fill="none" stroke="midnightblue" d="M463.326,-354.942C437.111,-344.008 407.548,-331.679 382.262,-321.133"/>
<polygon fill="midnightblue" stroke="midnightblue" points="462.242,-358.281 472.818,-358.901 464.936,-351.821 462.242,-358.281"/>
</g>
<!-- Node6 -->
<g id="node6" class="node"><title>Node6</title>
<g id="a_node6"><a xlink:href="../../de/d92/TPC_2simulation_2include_2TPCSimulation_2Digitizer_8h.html" target="_top" xlink:title="/home/travis/build\l/AliceO2Group/AliceO2\l/Detectors/TPC/simulation\l/include/TPCSimulation/Digitizer.h">
<polygon fill="none" stroke="black" points="449.5,-269 449.5,-321 616.5,-321 616.5,-269 449.5,-269"/>
<text text-anchor="start" x="457.5" y="-309" font-family="Helvetica,sans-Serif" font-size="10.00">/home/travis/build</text>
<text text-anchor="start" x="457.5" y="-298" font-family="Helvetica,sans-Serif" font-size="10.00">/AliceO2Group/AliceO2</text>
<text text-anchor="start" x="457.5" y="-287" font-family="Helvetica,sans-Serif" font-size="10.00">/Detectors/TPC/simulation</text>
<text text-anchor="middle" x="533" y="-276" font-family="Helvetica,sans-Serif" font-size="10.00">/include/TPCSimulation/Digitizer.h</text>
</a>
</g>
</g>
<!-- Node5&#45;&gt;Node6 -->
<g id="edge6" class="edge"><title>Node5&#45;&gt;Node6</title>
<path fill="none" stroke="midnightblue" d="M533,-348.489C533,-339.309 533,-329.616 533,-321.092"/>
<polygon fill="midnightblue" stroke="midnightblue" points="529.5,-348.547 533,-358.547 536.5,-348.547 529.5,-348.547"/>
</g>
<!-- Node7 -->
<g id="node7" class="node"><title>Node7</title>
<g id="a_node7"><a xlink:href="../../dd/d4b/TPC_2simulation_2include_2TPCSimulation_2DigitizerTask_8h.html" target="_top" xlink:title="/home/travis/build\l/AliceO2Group/AliceO2\l/Detectors/TPC/simulation\l/include/TPCSimulation/Digitizer\lTask.h">
<polygon fill="none" stroke="black" points="268,-168.5 268,-231.5 426,-231.5 426,-168.5 268,-168.5"/>
<text text-anchor="start" x="276" y="-219.5" font-family="Helvetica,sans-Serif" font-size="10.00">/home/travis/build</text>
<text text-anchor="start" x="276" y="-208.5" font-family="Helvetica,sans-Serif" font-size="10.00">/AliceO2Group/AliceO2</text>
<text text-anchor="start" x="276" y="-197.5" font-family="Helvetica,sans-Serif" font-size="10.00">/Detectors/TPC/simulation</text>
<text text-anchor="start" x="276" y="-186.5" font-family="Helvetica,sans-Serif" font-size="10.00">/include/TPCSimulation/Digitizer</text>
<text text-anchor="middle" x="347" y="-175.5" font-family="Helvetica,sans-Serif" font-size="10.00">Task.h</text>
</a>
</g>
</g>
<!-- Node5&#45;&gt;Node7 -->
<g id="edge17" class="edge"><title>Node5&#45;&gt;Node7</title>
<path fill="none" stroke="midnightblue" d="M480.58,-353.304C466.956,-344.122 452.804,-333.427 441,-322 419.729,-301.409 420.067,-291.452 402,-268 392.724,-255.959 382.206,-242.99 372.87,-231.7"/>
<polygon fill="midnightblue" stroke="midnightblue" points="478.69,-356.251 488.969,-358.819 482.536,-350.401 478.69,-356.251"/>
</g>
<!-- Node13 -->
<g id="node13" class="node"><title>Node13</title>
<g id="a_node13"><a xlink:href="../../db/df6/TPCDriftTimeDigitizerSpec_8cxx.html" target="_top" xlink:title="/home/travis/build\l/AliceO2Group/AliceO2\l/Steer/DigitizerWorkflow\l/src/TPCDriftTimeDigitizerSpec.cxx">
<polygon fill="none" stroke="black" points="559,-79 559,-131 733,-131 733,-79 559,-79"/>
<text text-anchor="start" x="567" y="-119" font-family="Helvetica,sans-Serif" font-size="10.00">/home/travis/build</text>
<text text-anchor="start" x="567" y="-108" font-family="Helvetica,sans-Serif" font-size="10.00">/AliceO2Group/AliceO2</text>
<text text-anchor="start" x="567" y="-97" font-family="Helvetica,sans-Serif" font-size="10.00">/Steer/DigitizerWorkflow</text>
<text text-anchor="middle" x="646" y="-86" font-family="Helvetica,sans-Serif" font-size="10.00">/src/TPCDriftTimeDigitizerSpec.cxx</text>
</a>
</g>
</g>
<!-- Node5&#45;&gt;Node13 -->
<g id="edge20" class="edge"><title>Node5&#45;&gt;Node13</title>
<path fill="none" stroke="midnightblue" d="M595.684,-352.845C607.164,-344.374 617.781,-334.116 625,-322 661.16,-261.312 655.617,-173.651 650.061,-131.084"/>
<polygon fill="midnightblue" stroke="midnightblue" points="593.448,-350.135 587.209,-358.698 597.426,-355.895 593.448,-350.135"/>
</g>
<!-- Node15 -->
<g id="node15" class="node"><title>Node15</title>
<g id="a_node15"><a xlink:href="../../d3/d13/SimReaderSpec_8cxx.html" target="_top" xlink:title="/home/travis/build\l/AliceO2Group/AliceO2\l/Steer/DigitizerWorkflow\l/src/SimReaderSpec.cxx">
<polygon fill="none" stroke="black" points="672,-269 672,-321 798,-321 798,-269 672,-269"/>
<text text-anchor="start" x="680" y="-309" font-family="Helvetica,sans-Serif" font-size="10.00">/home/travis/build</text>
<text text-anchor="start" x="680" y="-298" font-family="Helvetica,sans-Serif" font-size="10.00">/AliceO2Group/AliceO2</text>
<text text-anchor="start" x="680" y="-287" font-family="Helvetica,sans-Serif" font-size="10.00">/Steer/DigitizerWorkflow</text>
<text text-anchor="middle" x="735" y="-276" font-family="Helvetica,sans-Serif" font-size="10.00">/src/SimReaderSpec.cxx</text>
</a>
</g>
</g>
<!-- Node5&#45;&gt;Node15 -->
<g id="edge19" class="edge"><title>Node5&#45;&gt;Node15</title>
<path fill="none" stroke="midnightblue" d="M600.033,-354.798C625.047,-343.9 653.207,-331.632 677.309,-321.133"/>
<polygon fill="midnightblue" stroke="midnightblue" points="598.385,-351.698 590.615,-358.901 601.18,-358.115 598.385,-351.698"/>
</g>
<!-- Node16 -->
<g id="node16" class="node"><title>Node16</title>
<g id="a_node16"><a xlink:href="../../d6/d0b/HitProcessingManager_8cxx.html" target="_top" xlink:title="/home/travis/build\l/AliceO2Group/AliceO2\l/Steer/src/HitProcessingManager.cxx">
<polygon fill="none" stroke="black" points="816,-274.5 816,-315.5 996,-315.5 996,-274.5 816,-274.5"/>
<text text-anchor="start" x="824" y="-303.5" font-family="Helvetica,sans-Serif" font-size="10.00">/home/travis/build</text>
<text text-anchor="start" x="824" y="-292.5" font-family="Helvetica,sans-Serif" font-size="10.00">/AliceO2Group/AliceO2</text>
<text text-anchor="middle" x="906" y="-281.5" font-family="Helvetica,sans-Serif" font-size="10.00">/Steer/src/HitProcessingManager.cxx</text>
</a>
</g>
</g>
<!-- Node5&#45;&gt;Node16 -->
<g id="edge21" class="edge"><title>Node5&#45;&gt;Node16</title>
<path fill="none" stroke="midnightblue" d="M626.723,-357.909C707.529,-339.03 730.198,-339.706 807,-322 815.658,-320.004 824.711,-317.796 833.673,-315.535"/>
<polygon fill="midnightblue" stroke="midnightblue" points="625.498,-354.602 616.573,-360.311 627.11,-361.414 625.498,-354.602"/>
</g>
<!-- Node17 -->
<g id="node17" class="node"><title>Node17</title>
<g id="a_node17"><a xlink:href="../../d7/d6d/testHitProcessingManager_8cxx.html" target="_top" xlink:title="/home/travis/build\l/AliceO2Group/AliceO2\l/Steer/test/testHitProcessing\lManager.cxx">
<polygon fill="none" stroke="black" points="1014.5,-269 1014.5,-321 1157.5,-321 1157.5,-269 1014.5,-269"/>
<text text-anchor="start" x="1022.5" y="-309" font-family="Helvetica,sans-Serif" font-size="10.00">/home/travis/build</text>
<text text-anchor="start" x="1022.5" y="-298" font-family="Helvetica,sans-Serif" font-size="10.00">/AliceO2Group/AliceO2</text>
<text text-anchor="start" x="1022.5" y="-287" font-family="Helvetica,sans-Serif" font-size="10.00">/Steer/test/testHitProcessing</text>
<text text-anchor="middle" x="1086" y="-276" font-family="Helvetica,sans-Serif" font-size="10.00">Manager.cxx</text>
</a>
</g>
</g>
<!-- Node5&#45;&gt;Node17 -->
<g id="edge22" class="edge"><title>Node5&#45;&gt;Node17</title>
<path fill="none" stroke="midnightblue" d="M626.634,-358.045C794.187,-328.179 842.416,-355.406 1005,-322 1008.04,-321.376 1011.12,-320.679 1014.23,-319.926"/>
<polygon fill="midnightblue" stroke="midnightblue" points="625.949,-354.613 616.74,-359.85 627.205,-361.499 625.949,-354.613"/>
</g>
<!-- Node6&#45;&gt;Node7 -->
<g id="edge7" class="edge"><title>Node6&#45;&gt;Node7</title>
<path fill="none" stroke="midnightblue" d="M473.6,-264.3C452.758,-253.879 429.314,-242.157 408.317,-231.659"/>
<polygon fill="midnightblue" stroke="midnightblue" points="472.156,-267.491 482.666,-268.833 475.287,-261.23 472.156,-267.491"/>
</g>
<!-- Node8 -->
<g id="node8" class="node"><title>Node8</title>
<g id="a_node8"><a xlink:href="../../df/d46/TPC_2simulation_2src_2DigitizerTask_8cxx.html" target="_top" xlink:title="/home/travis/build\l/AliceO2Group/AliceO2\l/Detectors/TPC/simulation\l/src/DigitizerTask.cxx">
<polygon fill="none" stroke="black" points="-0.5,-79 -0.5,-131 132.5,-131 132.5,-79 -0.5,-79"/>
<text text-anchor="start" x="7.5" y="-119" font-family="Helvetica,sans-Serif" font-size="10.00">/home/travis/build</text>
<text text-anchor="start" x="7.5" y="-108" font-family="Helvetica,sans-Serif" font-size="10.00">/AliceO2Group/AliceO2</text>
<text text-anchor="start" x="7.5" y="-97" font-family="Helvetica,sans-Serif" font-size="10.00">/Detectors/TPC/simulation</text>
<text text-anchor="middle" x="66" y="-86" font-family="Helvetica,sans-Serif" font-size="10.00">/src/DigitizerTask.cxx</text>
</a>
</g>
</g>
<!-- Node6&#45;&gt;Node8 -->
<g id="edge15" class="edge"><title>Node6&#45;&gt;Node8</title>
<path fill="none" stroke="midnightblue" d="M439.212,-274.491C366.664,-259.113 275.81,-239.116 259,-232 197.093,-205.793 133.321,-159.719 96.7925,-131.14"/>
<polygon fill="midnightblue" stroke="midnightblue" points="438.81,-277.983 449.317,-276.628 440.258,-271.135 438.81,-277.983"/>
</g>
<!-- Node6&#45;&gt;Node13 -->
<g id="edge16" class="edge"><title>Node6&#45;&gt;Node13</title>
<path fill="none" stroke="midnightblue" d="M493.604,-261.664C485.624,-252.949 478.351,-242.885 474,-232 463.441,-205.588 457.649,-191.275 474,-168 479.793,-159.754 522.169,-144.43 563.405,-131.081"/>
<polygon fill="midnightblue" stroke="midnightblue" points="491.248,-264.261 500.743,-268.963 496.252,-259.367 491.248,-264.261"/>
</g>
<!-- Node14 -->
<g id="node14" class="node"><title>Node14</title>
<g id="a_node14"><a xlink:href="../../d7/d0a/TPC_2simulation_2src_2Digitizer_8cxx.html" target="_top" xlink:title="/home/travis/build\l/AliceO2Group/AliceO2\l/Detectors/TPC/simulation\l/src/Digitizer.cxx">
<polygon fill="none" stroke="black" points="482.5,-174 482.5,-226 615.5,-226 615.5,-174 482.5,-174"/>
<text text-anchor="start" x="490.5" y="-214" font-family="Helvetica,sans-Serif" font-size="10.00">/home/travis/build</text>
<text text-anchor="start" x="490.5" y="-203" font-family="Helvetica,sans-Serif" font-size="10.00">/AliceO2Group/AliceO2</text>
<text text-anchor="start" x="490.5" y="-192" font-family="Helvetica,sans-Serif" font-size="10.00">/Detectors/TPC/simulation</text>
<text text-anchor="middle" x="549" y="-181" font-family="Helvetica,sans-Serif" font-size="10.00">/src/Digitizer.cxx</text>
</a>
</g>
</g>
<!-- Node6&#45;&gt;Node14 -->
<g id="edge14" class="edge"><title>Node6&#45;&gt;Node14</title>
<path fill="none" stroke="midnightblue" d="M539.099,-258.549C540.962,-247.722 542.971,-236.046 544.689,-226.06"/>
<polygon fill="midnightblue" stroke="midnightblue" points="535.618,-258.139 537.372,-268.587 542.517,-259.326 535.618,-258.139"/>
</g>
<!-- Node7&#45;&gt;Node8 -->
<g id="edge8" class="edge"><title>Node7&#45;&gt;Node8</title>
<path fill="none" stroke="midnightblue" d="M258.058,-170.226C221.997,-158.482 179.975,-144.701 142,-132 138.958,-130.983 135.85,-129.938 132.711,-128.88"/>
<polygon fill="midnightblue" stroke="midnightblue" points="256.983,-173.556 267.576,-173.323 259.15,-166.9 256.983,-173.556"/>
</g>
<!-- Node9 -->
<g id="node9" class="node"><title>Node9</title>
<g id="a_node9"><a xlink:href="../../d1/d7a/run__digi_8C.html" target="_top" xlink:title="/home/travis/build\l/AliceO2Group/AliceO2\l/macro/run_digi.C">
<polygon fill="none" stroke="black" points="151,-84.5 151,-125.5 269,-125.5 269,-84.5 151,-84.5"/>
<text text-anchor="start" x="159" y="-113.5" font-family="Helvetica,sans-Serif" font-size="10.00">/home/travis/build</text>
<text text-anchor="start" x="159" y="-102.5" font-family="Helvetica,sans-Serif" font-size="10.00">/AliceO2Group/AliceO2</text>
<text text-anchor="middle" x="210" y="-91.5" font-family="Helvetica,sans-Serif" font-size="10.00">/macro/run_digi.C</text>
</a>
</g>
</g>
<!-- Node7&#45;&gt;Node9 -->
<g id="edge9" class="edge"><title>Node7&#45;&gt;Node9</title>
<path fill="none" stroke="midnightblue" d="M293.351,-162.582C274.767,-149.966 254.65,-136.31 238.836,-125.575"/>
<polygon fill="midnightblue" stroke="midnightblue" points="291.522,-165.57 301.761,-168.291 295.453,-159.778 291.522,-165.57"/>
</g>
<!-- Node10 -->
<g id="node10" class="node"><title>Node10</title>
<g id="a_node10"><a xlink:href="../../d9/de3/run__digi__all_8C.html" target="_top" xlink:title="/home/travis/build\l/AliceO2Group/AliceO2\l/macro/run_digi_all.C">
<polygon fill="none" stroke="black" points="287,-84.5 287,-125.5 405,-125.5 405,-84.5 287,-84.5"/>
<text text-anchor="start" x="295" y="-113.5" font-family="Helvetica,sans-Serif" font-size="10.00">/home/travis/build</text>
<text text-anchor="start" x="295" y="-102.5" font-family="Helvetica,sans-Serif" font-size="10.00">/AliceO2Group/AliceO2</text>
<text text-anchor="middle" x="346" y="-91.5" font-family="Helvetica,sans-Serif" font-size="10.00">/macro/run_digi_all.C</text>
</a>
</g>
</g>
<!-- Node7&#45;&gt;Node10 -->
<g id="edge10" class="edge"><title>Node7&#45;&gt;Node10</title>
<path fill="none" stroke="midnightblue" d="M346.56,-158.112C346.439,-146.807 346.312,-135.052 346.21,-125.575"/>
<polygon fill="midnightblue" stroke="midnightblue" points="343.062,-158.329 346.67,-168.291 350.062,-158.253 343.062,-158.329"/>
</g>
<!-- Node11 -->
<g id="node11" class="node"><title>Node11</title>
<g id="a_node11"><a xlink:href="../../d3/db7/run__digi__tpc_8C.html" target="_top" xlink:title="/home/travis/build\l/AliceO2Group/AliceO2\l/macro/run_digi_tpc.C">
<polygon fill="none" stroke="black" points="423,-84.5 423,-125.5 541,-125.5 541,-84.5 423,-84.5"/>
<text text-anchor="start" x="431" y="-113.5" font-family="Helvetica,sans-Serif" font-size="10.00">/home/travis/build</text>
<text text-anchor="start" x="431" y="-102.5" font-family="Helvetica,sans-Serif" font-size="10.00">/AliceO2Group/AliceO2</text>
<text text-anchor="middle" x="482" y="-91.5" font-family="Helvetica,sans-Serif" font-size="10.00">/macro/run_digi_tpc.C</text>
</a>
</g>
</g>
<!-- Node7&#45;&gt;Node11 -->
<g id="edge11" class="edge"><title>Node7&#45;&gt;Node11</title>
<path fill="none" stroke="midnightblue" d="M399.866,-162.582C418.179,-149.966 438.002,-136.31 453.585,-125.575"/>
<polygon fill="midnightblue" stroke="midnightblue" points="397.828,-159.735 391.578,-168.291 401.799,-165.5 397.828,-159.735"/>
</g>
<!-- Node7&#45;&gt;Node13 -->
<g id="edge13" class="edge"><title>Node7&#45;&gt;Node13</title>
<path fill="none" stroke="midnightblue" d="M435.709,-169.366C437.149,-168.906 438.58,-168.45 440,-168 479.607,-155.442 523.693,-142.089 560.886,-131.005"/>
<polygon fill="midnightblue" stroke="midnightblue" points="434.543,-166.064 426.096,-172.459 436.688,-172.728 434.543,-166.064"/>
</g>
<!-- Node12 -->
<g id="node12" class="node"><title>Node12</title>
<g id="a_node12"><a xlink:href="../../d3/d56/runTPC_8cxx.html" target="_top" xlink:title="/home/travis/build\l/AliceO2Group/AliceO2\l/run/runTPC.cxx">
<polygon fill="none" stroke="black" points="423,-0.5 423,-41.5 541,-41.5 541,-0.5 423,-0.5"/>
<text text-anchor="start" x="431" y="-29.5" font-family="Helvetica,sans-Serif" font-size="10.00">/home/travis/build</text>
<text text-anchor="start" x="431" y="-18.5" font-family="Helvetica,sans-Serif" font-size="10.00">/AliceO2Group/AliceO2</text>
<text text-anchor="middle" x="482" y="-7.5" font-family="Helvetica,sans-Serif" font-size="10.00">/run/runTPC.cxx</text>
</a>
</g>
</g>
<!-- Node11&#45;&gt;Node12 -->
<g id="edge12" class="edge"><title>Node11&#45;&gt;Node12</title>
<path fill="none" stroke="midnightblue" d="M482,-73.881C482,-63.1328 482,-51.309 482,-41.6671"/>
<polygon fill="midnightblue" stroke="midnightblue" points="478.5,-74.1501 482,-84.1501 485.5,-74.1501 478.5,-74.1501"/>
</g>
</g>
</svg>
