<?xml version="1.0" encoding="UTF-8" standalone="no"?>
<!DOCTYPE svg PUBLIC "-//W3C//DTD SVG 1.1//EN"
 "http://www.w3.org/Graphics/SVG/1.1/DTD/svg11.dtd">
<!-- Generated by graphviz version 2.36.0 (20140111.2315)
 -->
<!-- Title: /home/travis/build/AliceO2Group/AliceO2/Detectors/ITSMFT/common/reconstruction/src/Clusterer.cxx Pages: 1 -->
<svg width="2082pt" height="526pt"
 viewBox="0.00 0.00 2082.00 526.00" xmlns="http://www.w3.org/2000/svg" xmlns:xlink="http://www.w3.org/1999/xlink">
<g id="graph0" class="graph" transform="scale(1 1) rotate(0) translate(4 522)">
<title>/home/travis/build/AliceO2Group/AliceO2/Detectors/ITSMFT/common/reconstruction/src/Clusterer.cxx</title>
<!-- Node1 -->
<g id="node1" class="node"><title>Node1</title>
<polygon fill="#bfbfbf" stroke="black" points="1330.5,-465 1330.5,-517 1489.5,-517 1489.5,-465 1330.5,-465"/>
<text text-anchor="start" x="1338.5" y="-505" font-family="Helvetica,sans-Serif" font-size="10.00">/home/travis/build</text>
<text text-anchor="start" x="1338.5" y="-494" font-family="Helvetica,sans-Serif" font-size="10.00">/AliceO2Group/AliceO2</text>
<text text-anchor="start" x="1338.5" y="-483" font-family="Helvetica,sans-Serif" font-size="10.00">/Detectors/ITSMFT/common</text>
<text text-anchor="middle" x="1410" y="-472" font-family="Helvetica,sans-Serif" font-size="10.00">/reconstruction/src/Clusterer.cxx</text>
</g>
<!-- Node2 -->
<g id="node2" class="node"><title>Node2</title>
<polygon fill="none" stroke="#bfbfbf" points="699,-402.5 699,-421.5 755,-421.5 755,-402.5 699,-402.5"/>
<text text-anchor="middle" x="727" y="-409.5" font-family="Helvetica,sans-Serif" font-size="10.00">algorithm</text>
</g>
<!-- Node1&#45;&gt;Node2 -->
<g id="edge1" class="edge"><title>Node1&#45;&gt;Node2</title>
<path fill="none" stroke="midnightblue" d="M1330.32,-488.578C1208.12,-484.995 967.728,-472.382 769,-428 765.115,-427.132 761.097,-426.008 757.156,-424.766"/>
<polygon fill="midnightblue" stroke="midnightblue" points="758.231,-421.435 747.637,-421.512 755.967,-428.059 758.231,-421.435"/>
</g>
<!-- Node3 -->
<g id="node3" class="node"><title>Node3</title>
<polygon fill="none" stroke="#bfbfbf" points="721.5,-142.5 721.5,-161.5 792.5,-161.5 792.5,-142.5 721.5,-142.5"/>
<text text-anchor="middle" x="757" y="-149.5" font-family="Helvetica,sans-Serif" font-size="10.00">FairLogger.h</text>
</g>
<!-- Node1&#45;&gt;Node3 -->
<g id="edge2" class="edge"><title>Node1&#45;&gt;Node3</title>
<path fill="none" stroke="midnightblue" d="M1330.27,-488.887C1161.4,-484.367 783,-461.87 783,-351 783,-351 783,-351 783,-287 783,-245.095 770.594,-197.145 762.922,-171.496"/>
<polygon fill="midnightblue" stroke="midnightblue" points="766.18,-170.186 759.882,-161.667 759.493,-172.254 766.18,-170.186"/>
</g>
<!-- Node4 -->
<g id="node4" class="node"><title>Node4</title>
<g id="a_node4"><a xlink:href="../../d3/dba/SegmentationAlpide_8h.html" target="_top" xlink:title="Definition of the SegmentationAlpide class. ">
<polygon fill="none" stroke="black" points="1648.5,-402.5 1648.5,-421.5 1821.5,-421.5 1821.5,-402.5 1648.5,-402.5"/>
<text text-anchor="middle" x="1735" y="-409.5" font-family="Helvetica,sans-Serif" font-size="10.00">ITSMFTBase/SegmentationAlpide.h</text>
</a>
</g>
</g>
<!-- Node1&#45;&gt;Node4 -->
<g id="edge3" class="edge"><title>Node1&#45;&gt;Node4</title>
<path fill="none" stroke="midnightblue" d="M1489.5,-471.164C1552.05,-456.346 1637.01,-436.216 1688.82,-423.941"/>
<polygon fill="midnightblue" stroke="midnightblue" points="1689.8,-427.306 1698.72,-421.595 1688.19,-420.494 1689.8,-427.306"/>
</g>
<!-- Node6 -->
<g id="node6" class="node"><title>Node6</title>
<g id="a_node6"><a xlink:href="../../d1/d62/DataFormats_2Detectors_2ITSMFT_2common_2include_2DataFormatsITSMFT_2Cluster_8h.html" target="_top" xlink:title="DataFormatsITSMFT/Cluster.h">
<polygon fill="none" stroke="black" points="1175,-340.5 1175,-359.5 1327,-359.5 1327,-340.5 1175,-340.5"/>
<text text-anchor="middle" x="1251" y="-347.5" font-family="Helvetica,sans-Serif" font-size="10.00">DataFormatsITSMFT/Cluster.h</text>
</a>
</g>
</g>
<!-- Node1&#45;&gt;Node6 -->
<g id="edge5" class="edge"><title>Node1&#45;&gt;Node6</title>
<path fill="none" stroke="midnightblue" d="M1381.21,-464.828C1348.28,-436.043 1295.43,-389.846 1268.3,-366.127"/>
<polygon fill="midnightblue" stroke="midnightblue" points="1270.59,-363.479 1260.76,-359.532 1265.99,-368.749 1270.59,-363.479"/>
</g>
<!-- Node33 -->
<g id="node33" class="node"><title>Node33</title>
<g id="a_node33"><a xlink:href="../../d6/d04/ITSMFT_2common_2reconstruction_2include_2ITSMFTReconstruction_2Clusterer_8h.html" target="_top" xlink:title="ITSMFTReconstruction\l/Clusterer.h">
<polygon fill="none" stroke="black" points="1433.5,-397 1433.5,-427 1552.5,-427 1552.5,-397 1433.5,-397"/>
<text text-anchor="start" x="1441.5" y="-415" font-family="Helvetica,sans-Serif" font-size="10.00">ITSMFTReconstruction</text>
<text text-anchor="middle" x="1493" y="-404" font-family="Helvetica,sans-Serif" font-size="10.00">/Clusterer.h</text>
</a>
</g>
</g>
<!-- Node1&#45;&gt;Node33 -->
<g id="edge41" class="edge"><title>Node1&#45;&gt;Node33</title>
<path fill="none" stroke="midnightblue" d="M1437.18,-464.787C1447.88,-454.861 1460.02,-443.592 1470.25,-434.106"/>
<polygon fill="midnightblue" stroke="midnightblue" points="1472.69,-436.619 1477.64,-427.252 1467.93,-431.487 1472.69,-436.619"/>
</g>
<!-- Node44 -->
<g id="node44" class="node"><title>Node44</title>
<g id="a_node44"><a xlink:href="../../db/d14/MCTruthContainer_8h.html" target="_top" xlink:title="Definition of a container to keep Monte Carlo truth external to simulation objects. ">
<polygon fill="none" stroke="black" points="1895,-137 1895,-167 2009,-167 2009,-137 1895,-137"/>
<text text-anchor="start" x="1903" y="-155" font-family="Helvetica,sans-Serif" font-size="10.00">SimulationDataFormat</text>
<text text-anchor="middle" x="1952" y="-144" font-family="Helvetica,sans-Serif" font-size="10.00">/MCTruthContainer.h</text>
</a>
</g>
</g>
<!-- Node1&#45;&gt;Node44 -->
<g id="edge65" class="edge"><title>Node1&#45;&gt;Node44</title>
<path fill="none" stroke="midnightblue" d="M1489.52,-485.15C1634.72,-474.099 1928,-440.679 1928,-351 1928,-351 1928,-351 1928,-287 1928,-248.156 1937.89,-203.957 1944.98,-177.289"/>
<polygon fill="midnightblue" stroke="midnightblue" points="1948.44,-177.894 1947.71,-167.324 1941.69,-176.042 1948.44,-177.894"/>
</g>
<!-- Node5 -->
<g id="node5" class="node"><title>Node5</title>
<polygon fill="none" stroke="#bfbfbf" points="1490,-74.5 1490,-93.5 1546,-93.5 1546,-74.5 1490,-74.5"/>
<text text-anchor="middle" x="1518" y="-81.5" font-family="Helvetica,sans-Serif" font-size="10.00">Rtypes.h</text>
</g>
<!-- Node4&#45;&gt;Node5 -->
<g id="edge4" class="edge"><title>Node4&#45;&gt;Node5</title>
<path fill="none" stroke="midnightblue" d="M1757.39,-402.424C1795.05,-386.369 1867,-347.979 1867,-289 1867,-289 1867,-289 1867,-219 1867,-179.136 1864.22,-160.794 1833,-136 1811.54,-118.955 1635.07,-97.7915 1556.03,-89.0585"/>
<polygon fill="midnightblue" stroke="midnightblue" points="1556.32,-85.5692 1546,-87.9589 1555.56,-92.5275 1556.32,-85.5692"/>
</g>
<!-- Node7 -->
<g id="node7" class="node"><title>Node7</title>
<g id="a_node7"><a xlink:href="../../d4/de2/BaseCluster_8h.html" target="_top" xlink:title="ReconstructionDataFormats\l/BaseCluster.h">
<polygon fill="none" stroke="black" points="988,-273 988,-303 1128,-303 1128,-273 988,-273"/>
<text text-anchor="start" x="996" y="-291" font-family="Helvetica,sans-Serif" font-size="10.00">ReconstructionDataFormats</text>
<text text-anchor="middle" x="1058" y="-280" font-family="Helvetica,sans-Serif" font-size="10.00">/BaseCluster.h</text>
</a>
</g>
</g>
<!-- Node6&#45;&gt;Node7 -->
<g id="edge6" class="edge"><title>Node6&#45;&gt;Node7</title>
<path fill="none" stroke="midnightblue" d="M1223.35,-340.403C1194.67,-331.488 1149.07,-317.311 1113.01,-306.101"/>
<polygon fill="midnightblue" stroke="midnightblue" points="1113.7,-302.652 1103.11,-303.025 1111.62,-309.336 1113.7,-302.652"/>
</g>
<!-- Node8 -->
<g id="node8" class="node"><title>Node8</title>
<polygon fill="none" stroke="#bfbfbf" points="991.5,-210.5 991.5,-229.5 1050.5,-229.5 1050.5,-210.5 991.5,-210.5"/>
<text text-anchor="middle" x="1021" y="-217.5" font-family="Helvetica,sans-Serif" font-size="10.00">TObject.h</text>
</g>
<!-- Node7&#45;&gt;Node8 -->
<g id="edge7" class="edge"><title>Node7&#45;&gt;Node8</title>
<path fill="none" stroke="midnightblue" d="M1049.97,-272.679C1044.37,-262.694 1036.87,-249.307 1030.9,-238.66"/>
<polygon fill="midnightblue" stroke="midnightblue" points="1033.89,-236.84 1025.95,-229.828 1027.79,-240.263 1033.89,-236.84"/>
</g>
<!-- Node9 -->
<g id="node9" class="node"><title>Node9</title>
<polygon fill="none" stroke="#bfbfbf" points="1220.5,-74.5 1220.5,-93.5 1261.5,-93.5 1261.5,-74.5 1220.5,-74.5"/>
<text text-anchor="middle" x="1241" y="-81.5" font-family="Helvetica,sans-Serif" font-size="10.00">bitset</text>
</g>
<!-- Node7&#45;&gt;Node9 -->
<g id="edge8" class="edge"><title>Node7&#45;&gt;Node9</title>
<path fill="none" stroke="midnightblue" d="M1023.25,-272.941C1007.66,-264.673 990.822,-252.545 982,-236 975.308,-223.45 974.325,-215.973 982,-204 1008.37,-162.86 1148.21,-114.369 1210.74,-94.3561"/>
<polygon fill="midnightblue" stroke="midnightblue" points="1211.96,-97.6423 1220.43,-91.2848 1209.84,-90.9694 1211.96,-97.6423"/>
</g>
<!-- Node10 -->
<g id="node10" class="node"><title>Node10</title>
<polygon fill="none" stroke="#bfbfbf" points="1069,-210.5 1069,-229.5 1119,-229.5 1119,-210.5 1069,-210.5"/>
<text text-anchor="middle" x="1094" y="-217.5" font-family="Helvetica,sans-Serif" font-size="10.00">iomanip</text>
</g>
<!-- Node7&#45;&gt;Node10 -->
<g id="edge9" class="edge"><title>Node7&#45;&gt;Node10</title>
<path fill="none" stroke="midnightblue" d="M1065.81,-272.679C1071.26,-262.694 1078.56,-249.307 1084.37,-238.66"/>
<polygon fill="midnightblue" stroke="midnightblue" points="1087.47,-240.283 1089.18,-229.828 1081.32,-236.931 1087.47,-240.283"/>
</g>
<!-- Node11 -->
<g id="node11" class="node"><title>Node11</title>
<polygon fill="none" stroke="#bfbfbf" points="1137.5,-210.5 1137.5,-229.5 1166.5,-229.5 1166.5,-210.5 1137.5,-210.5"/>
<text text-anchor="middle" x="1152" y="-217.5" font-family="Helvetica,sans-Serif" font-size="10.00">ios</text>
</g>
<!-- Node7&#45;&gt;Node11 -->
<g id="edge10" class="edge"><title>Node7&#45;&gt;Node11</title>
<path fill="none" stroke="midnightblue" d="M1078.4,-272.679C1094.01,-261.713 1115.48,-246.645 1131.19,-235.609"/>
<polygon fill="midnightblue" stroke="midnightblue" points="1133.52,-238.249 1139.7,-229.638 1129.5,-232.52 1133.52,-238.249"/>
</g>
<!-- Node12 -->
<g id="node12" class="node"><title>Node12</title>
<polygon fill="none" stroke="#bfbfbf" points="-0.5,-74.5 -0.5,-93.5 44.5,-93.5 44.5,-74.5 -0.5,-74.5"/>
<text text-anchor="middle" x="22" y="-81.5" font-family="Helvetica,sans-Serif" font-size="10.00">iosfwd</text>
</g>
<!-- Node7&#45;&gt;Node12 -->
<g id="edge11" class="edge"><title>Node7&#45;&gt;Node12</title>
<path fill="none" stroke="midnightblue" d="M1011.17,-272.994C984.934,-264.191 952.141,-251.556 925,-236 883.027,-211.942 877.59,-198.456 840,-168 822.579,-153.885 821.923,-144.059 801,-136 645.913,-76.268 215.3,-140.028 54,-100 51.4989,-99.3793 48.9571,-98.5586 46.4554,-97.6201"/>
<polygon fill="midnightblue" stroke="midnightblue" points="47.7423,-94.3632 37.1756,-93.5914 44.9547,-100.784 47.7423,-94.3632"/>
</g>
<!-- Node13 -->
<g id="node13" class="node"><title>Node13</title>
<g id="a_node13"><a xlink:href="../../d4/d20/DetMatrixCache_8h.html" target="_top" xlink:title="DetectorsCommonDataFormats\l/DetMatrixCache.h">
<polygon fill="none" stroke="black" points="1185,-205 1185,-235 1341,-235 1341,-205 1185,-205"/>
<text text-anchor="start" x="1193" y="-223" font-family="Helvetica,sans-Serif" font-size="10.00">DetectorsCommonDataFormats</text>
<text text-anchor="middle" x="1263" y="-212" font-family="Helvetica,sans-Serif" font-size="10.00">/DetMatrixCache.h</text>
</a>
</g>
</g>
<!-- Node7&#45;&gt;Node13 -->
<g id="edge12" class="edge"><title>Node7&#45;&gt;Node13</title>
<path fill="none" stroke="midnightblue" d="M1101.73,-272.922C1133.3,-262.757 1176.11,-248.975 1209.69,-238.164"/>
<polygon fill="midnightblue" stroke="midnightblue" points="1210.89,-241.452 1219.34,-235.056 1208.75,-234.789 1210.89,-241.452"/>
</g>
<!-- Node23 -->
<g id="node23" class="node"><title>Node23</title>
<g id="a_node23"><a xlink:href="../../dd/d76/Cartesian3D_8h.html" target="_top" xlink:title="MathUtils/Cartesian3D.h">
<polygon fill="none" stroke="black" points="849.5,-142.5 849.5,-161.5 974.5,-161.5 974.5,-142.5 849.5,-142.5"/>
<text text-anchor="middle" x="912" y="-149.5" font-family="Helvetica,sans-Serif" font-size="10.00">MathUtils/Cartesian3D.h</text>
</a>
</g>
</g>
<!-- Node7&#45;&gt;Node23 -->
<g id="edge40" class="edge"><title>Node7&#45;&gt;Node23</title>
<path fill="none" stroke="midnightblue" d="M1009.72,-272.914C988.922,-264.862 965.614,-252.92 949,-236 931.342,-218.016 921.314,-190.157 916.27,-171.749"/>
<polygon fill="midnightblue" stroke="midnightblue" points="919.631,-170.763 913.802,-161.916 912.841,-172.467 919.631,-170.763"/>
</g>
<!-- Node13&#45;&gt;Node3 -->
<g id="edge13" class="edge"><title>Node13&#45;&gt;Node3</title>
<path fill="none" stroke="midnightblue" d="M1184.83,-205.418C1181.51,-204.923 1178.22,-204.448 1175,-204 1026.68,-183.409 988.219,-189.329 840,-168 827.884,-166.256 814.831,-164.052 802.744,-161.874"/>
<polygon fill="midnightblue" stroke="midnightblue" points="803.328,-158.423 792.86,-160.061 802.065,-165.308 803.328,-158.423"/>
</g>
<!-- Node13&#45;&gt;Node5 -->
<g id="edge39" class="edge"><title>Node13&#45;&gt;Node5</title>
<path fill="none" stroke="midnightblue" d="M1324.55,-204.974C1354.49,-196.686 1390.33,-184.532 1420,-168 1437.42,-158.291 1478.36,-121.616 1501.43,-100.407"/>
<polygon fill="midnightblue" stroke="midnightblue" points="1503.81,-102.975 1508.78,-93.6194 1499.06,-97.833 1503.81,-102.975"/>
</g>
<!-- Node14 -->
<g id="node14" class="node"><title>Node14</title>
<polygon fill="none" stroke="#bfbfbf" points="1281,-6.5 1281,-25.5 1319,-25.5 1319,-6.5 1281,-6.5"/>
<text text-anchor="middle" x="1300" y="-13.5" font-family="Helvetica,sans-Serif" font-size="10.00">array</text>
</g>
<!-- Node13&#45;&gt;Node14 -->
<g id="edge14" class="edge"><title>Node13&#45;&gt;Node14</title>
<path fill="none" stroke="midnightblue" d="M1250.58,-204.909C1227.8,-177.258 1184.03,-114.539 1211,-68 1223.89,-45.7545 1250.55,-32.3795 1271.35,-24.945"/>
<polygon fill="midnightblue" stroke="midnightblue" points="1272.6,-28.2173 1281,-21.7597 1270.41,-21.5699 1272.6,-28.2173"/>
</g>
<!-- Node15 -->
<g id="node15" class="node"><title>Node15</title>
<polygon fill="none" stroke="#bfbfbf" points="1543,-142.5 1543,-161.5 1587,-161.5 1587,-142.5 1543,-142.5"/>
<text text-anchor="middle" x="1565" y="-149.5" font-family="Helvetica,sans-Serif" font-size="10.00">vector</text>
</g>
<!-- Node13&#45;&gt;Node15 -->
<g id="edge15" class="edge"><title>Node13&#45;&gt;Node15</title>
<path fill="none" stroke="midnightblue" d="M1327.42,-204.922C1390.52,-191.132 1484.09,-170.682 1532.84,-160.029"/>
<polygon fill="midnightblue" stroke="midnightblue" points="1533.79,-163.403 1542.81,-157.849 1532.3,-156.565 1533.79,-163.403"/>
</g>
<!-- Node16 -->
<g id="node16" class="node"><title>Node16</title>
<g id="a_node16"><a xlink:href="../../d6/d31/DetID_8h.html" target="_top" xlink:title="DetectorsCommonDataFormats\l/DetID.h">
<polygon fill="none" stroke="black" points="1255,-137 1255,-167 1411,-167 1411,-137 1255,-137"/>
<text text-anchor="start" x="1263" y="-155" font-family="Helvetica,sans-Serif" font-size="10.00">DetectorsCommonDataFormats</text>
<text text-anchor="middle" x="1333" y="-144" font-family="Helvetica,sans-Serif" font-size="10.00">/DetID.h</text>
</a>
</g>
</g>
<!-- Node13&#45;&gt;Node16 -->
<g id="edge16" class="edge"><title>Node13&#45;&gt;Node16</title>
<path fill="none" stroke="midnightblue" d="M1278.19,-204.679C1287.64,-195.771 1299.96,-184.155 1310.52,-174.193"/>
<polygon fill="midnightblue" stroke="midnightblue" points="1312.97,-176.7 1317.84,-167.293 1308.16,-171.607 1312.97,-176.7"/>
</g>
<!-- Node13&#45;&gt;Node23 -->
<g id="edge27" class="edge"><title>Node13&#45;&gt;Node23</title>
<path fill="none" stroke="midnightblue" d="M1188.13,-204.922C1121.9,-192.468 1026.78,-174.583 967.242,-163.387"/>
<polygon fill="midnightblue" stroke="midnightblue" points="967.752,-159.922 957.278,-161.514 966.459,-166.802 967.752,-159.922"/>
</g>
<!-- Node16&#45;&gt;Node5 -->
<g id="edge17" class="edge"><title>Node16&#45;&gt;Node5</title>
<path fill="none" stroke="midnightblue" d="M1375.64,-136.978C1405.32,-127.051 1445.75,-113.207 1481,-100 1483.25,-99.1587 1485.56,-98.2708 1487.88,-97.3643"/>
<polygon fill="midnightblue" stroke="midnightblue" points="1489.34,-100.554 1497.33,-93.605 1486.75,-94.0493 1489.34,-100.554"/>
</g>
<!-- Node16&#45;&gt;Node9 -->
<g id="edge19" class="edge"><title>Node16&#45;&gt;Node9</title>
<path fill="none" stroke="midnightblue" d="M1313.04,-136.679C1297.75,-125.713 1276.75,-110.645 1261.36,-99.6085"/>
<polygon fill="midnightblue" stroke="midnightblue" points="1263.21,-96.6231 1253.04,-93.6379 1259.13,-102.311 1263.21,-96.6231"/>
</g>
<!-- Node16&#45;&gt;Node14 -->
<g id="edge18" class="edge"><title>Node16&#45;&gt;Node14</title>
<path fill="none" stroke="midnightblue" d="M1336.04,-136.819C1339.03,-119.986 1342.22,-91.2663 1335,-68 1331.01,-55.1214 1322.51,-42.6071 1314.89,-33.198"/>
<polygon fill="midnightblue" stroke="midnightblue" points="1317.46,-30.8182 1308.29,-25.5085 1312.15,-35.3767 1317.46,-30.8182"/>
</g>
<!-- Node17 -->
<g id="node17" class="node"><title>Node17</title>
<polygon fill="none" stroke="#bfbfbf" points="1804.5,-74.5 1804.5,-93.5 1853.5,-93.5 1853.5,-74.5 1804.5,-74.5"/>
<text text-anchor="middle" x="1829" y="-81.5" font-family="Helvetica,sans-Serif" font-size="10.00">cassert</text>
</g>
<!-- Node16&#45;&gt;Node17 -->
<g id="edge20" class="edge"><title>Node16&#45;&gt;Node17</title>
<path fill="none" stroke="midnightblue" d="M1411.3,-145.139C1523.37,-136.272 1723.72,-118.509 1794,-100 1796.82,-99.2581 1799.7,-98.3272 1802.55,-97.2943"/>
<polygon fill="midnightblue" stroke="midnightblue" points="1803.95,-100.503 1811.91,-93.5165 1801.33,-94.0118 1803.95,-100.503"/>
</g>
<!-- Node18 -->
<g id="node18" class="node"><title>Node18</title>
<polygon fill="none" stroke="#bfbfbf" points="1280,-74.5 1280,-93.5 1326,-93.5 1326,-74.5 1280,-74.5"/>
<text text-anchor="middle" x="1303" y="-81.5" font-family="Helvetica,sans-Serif" font-size="10.00">cstdint</text>
</g>
<!-- Node16&#45;&gt;Node18 -->
<g id="edge21" class="edge"><title>Node16&#45;&gt;Node18</title>
<path fill="none" stroke="midnightblue" d="M1326.49,-136.679C1322,-126.796 1315.99,-113.579 1311.18,-102.986"/>
<polygon fill="midnightblue" stroke="midnightblue" points="1314.34,-101.484 1307.01,-93.8283 1307.96,-104.38 1314.34,-101.484"/>
</g>
<!-- Node19 -->
<g id="node19" class="node"><title>Node19</title>
<polygon fill="none" stroke="#bfbfbf" points="1724,-74.5 1724,-93.5 1786,-93.5 1786,-74.5 1724,-74.5"/>
<text text-anchor="middle" x="1755" y="-81.5" font-family="Helvetica,sans-Serif" font-size="10.00">type_traits</text>
</g>
<!-- Node16&#45;&gt;Node19 -->
<g id="edge22" class="edge"><title>Node16&#45;&gt;Node19</title>
<path fill="none" stroke="midnightblue" d="M1411.28,-145.53C1488.96,-138.936 1610.98,-125.418 1714,-100 1717.49,-99.1387 1721.1,-98.0816 1724.65,-96.9307"/>
<polygon fill="midnightblue" stroke="midnightblue" points="1726.13,-100.123 1734.41,-93.5241 1723.82,-93.5143 1726.13,-100.123"/>
</g>
<!-- Node20 -->
<g id="node20" class="node"><title>Node20</title>
<g id="a_node20"><a xlink:href="../../d9/d52/Common_2MathUtils_2include_2MathUtils_2Utils_8h.html" target="_top" xlink:title="MathUtils/Utils.h">
<polygon fill="none" stroke="black" points="1382,-74.5 1382,-93.5 1472,-93.5 1472,-74.5 1382,-74.5"/>
<text text-anchor="middle" x="1427" y="-81.5" font-family="Helvetica,sans-Serif" font-size="10.00">MathUtils/Utils.h</text>
</a>
</g>
</g>
<!-- Node16&#45;&gt;Node20 -->
<g id="edge23" class="edge"><title>Node16&#45;&gt;Node20</title>
<path fill="none" stroke="midnightblue" d="M1353.4,-136.679C1369.01,-125.713 1390.48,-110.645 1406.19,-99.6085"/>
<polygon fill="midnightblue" stroke="midnightblue" points="1408.52,-102.249 1414.7,-93.6379 1404.5,-96.5198 1408.52,-102.249"/>
</g>
<!-- Node20&#45;&gt;Node14 -->
<g id="edge24" class="edge"><title>Node20&#45;&gt;Node14</title>
<path fill="none" stroke="midnightblue" d="M1410.14,-74.4194C1390.4,-64.35 1356.75,-47.1072 1328,-32 1327.02,-31.487 1326.03,-30.9626 1325.02,-30.4318"/>
<polygon fill="midnightblue" stroke="midnightblue" points="1326.44,-27.2202 1315.97,-25.6114 1323.15,-33.3995 1326.44,-27.2202"/>
</g>
<!-- Node21 -->
<g id="node21" class="node"><title>Node21</title>
<polygon fill="none" stroke="#bfbfbf" points="1535,-6.5 1535,-25.5 1579,-25.5 1579,-6.5 1535,-6.5"/>
<text text-anchor="middle" x="1557" y="-13.5" font-family="Helvetica,sans-Serif" font-size="10.00">cmath</text>
</g>
<!-- Node20&#45;&gt;Node21 -->
<g id="edge25" class="edge"><title>Node20&#45;&gt;Node21</title>
<path fill="none" stroke="midnightblue" d="M1444,-74.3717C1466.09,-63.1557 1504.9,-43.4532 1530.78,-30.3136"/>
<polygon fill="midnightblue" stroke="midnightblue" points="1532.67,-33.2783 1540,-25.6305 1529.5,-27.0366 1532.67,-33.2783"/>
</g>
<!-- Node22 -->
<g id="node22" class="node"><title>Node22</title>
<g id="a_node22"><a xlink:href="../../d6/d84/MathConstants_8h.html" target="_top" xlink:title="useful math constants ">
<polygon fill="none" stroke="black" points="1337.5,-6.5 1337.5,-25.5 1516.5,-25.5 1516.5,-6.5 1337.5,-6.5"/>
<text text-anchor="middle" x="1427" y="-13.5" font-family="Helvetica,sans-Serif" font-size="10.00">CommonConstants/MathConstants.h</text>
</a>
</g>
</g>
<!-- Node20&#45;&gt;Node22 -->
<g id="edge26" class="edge"><title>Node20&#45;&gt;Node22</title>
<path fill="none" stroke="midnightblue" d="M1427,-74.3717C1427,-64.6426 1427,-48.528 1427,-35.8504"/>
<polygon fill="midnightblue" stroke="midnightblue" points="1430.5,-35.8411 1427,-25.8411 1423.5,-35.8412 1430.5,-35.8411"/>
</g>
<!-- Node23&#45;&gt;Node5 -->
<g id="edge33" class="edge"><title>Node23&#45;&gt;Node5</title>
<path fill="none" stroke="midnightblue" d="M974.574,-147.728C1101.73,-140.695 1386.29,-122.905 1481,-100 1484.07,-99.2582 1487.21,-98.3057 1490.32,-97.2411"/>
<polygon fill="midnightblue" stroke="midnightblue" points="1491.82,-100.414 1499.91,-93.5781 1489.32,-93.8748 1491.82,-100.414"/>
</g>
<!-- Node23&#45;&gt;Node12 -->
<g id="edge35" class="edge"><title>Node23&#45;&gt;Node12</title>
<path fill="none" stroke="midnightblue" d="M874.184,-142.49C861.762,-140.001 847.847,-137.539 835,-136 662.494,-115.334 222.669,-141.669 54,-100 51.4983,-99.3819 48.9561,-98.5629 46.454,-97.6256"/>
<polygon fill="midnightblue" stroke="midnightblue" points="47.7407,-94.3686 37.1739,-93.5984 44.954,-100.79 47.7407,-94.3686"/>
</g>
<!-- Node24 -->
<g id="node24" class="node"><title>Node24</title>
<polygon fill="none" stroke="#bfbfbf" points="652.5,-69 652.5,-99 803.5,-99 803.5,-69 652.5,-69"/>
<text text-anchor="start" x="660.5" y="-87" font-family="Helvetica,sans-Serif" font-size="10.00">Math/GenVector/Displacement</text>
<text text-anchor="middle" x="728" y="-76" font-family="Helvetica,sans-Serif" font-size="10.00">Vector3D.h</text>
</g>
<!-- Node23&#45;&gt;Node24 -->
<g id="edge28" class="edge"><title>Node23&#45;&gt;Node24</title>
<path fill="none" stroke="midnightblue" d="M887.945,-142.372C859.897,-132.311 812.813,-115.422 776.972,-102.566"/>
<polygon fill="midnightblue" stroke="midnightblue" points="777.782,-99.1381 767.187,-99.0562 775.418,-105.727 777.782,-99.1381"/>
</g>
<!-- Node25 -->
<g id="node25" class="node"><title>Node25</title>
<polygon fill="none" stroke="#bfbfbf" points="822,-74.5 822,-93.5 998,-93.5 998,-74.5 822,-74.5"/>
<text text-anchor="middle" x="910" y="-81.5" font-family="Helvetica,sans-Serif" font-size="10.00">Math/GenVector/PositionVector3D.h</text>
</g>
<!-- Node23&#45;&gt;Node25 -->
<g id="edge29" class="edge"><title>Node23&#45;&gt;Node25</title>
<path fill="none" stroke="midnightblue" d="M911.739,-142.372C911.444,-132.643 910.955,-116.528 910.571,-103.85"/>
<polygon fill="midnightblue" stroke="midnightblue" points="914.069,-103.73 910.268,-93.8411 907.073,-103.943 914.069,-103.73"/>
</g>
<!-- Node26 -->
<g id="node26" class="node"><title>Node26</title>
<polygon fill="none" stroke="#bfbfbf" points="1015.5,-74.5 1015.5,-93.5 1164.5,-93.5 1164.5,-74.5 1015.5,-74.5"/>
<text text-anchor="middle" x="1090" y="-81.5" font-family="Helvetica,sans-Serif" font-size="10.00">Math/GenVector/Rotation3D.h</text>
</g>
<!-- Node23&#45;&gt;Node26 -->
<g id="edge30" class="edge"><title>Node23&#45;&gt;Node26</title>
<path fill="none" stroke="midnightblue" d="M935.27,-142.372C966.538,-130.778 1022.26,-110.116 1057.61,-97.0087"/>
<polygon fill="midnightblue" stroke="midnightblue" points="1058.85,-100.284 1067.01,-93.5259 1056.41,-93.7208 1058.85,-100.284"/>
</g>
<!-- Node27 -->
<g id="node27" class="node"><title>Node27</title>
<polygon fill="none" stroke="#bfbfbf" points="63,-74.5 63,-93.5 219,-93.5 219,-74.5 63,-74.5"/>
<text text-anchor="middle" x="141" y="-81.5" font-family="Helvetica,sans-Serif" font-size="10.00">Math/GenVector/Transform3D.h</text>
</g>
<!-- Node23&#45;&gt;Node27 -->
<g id="edge31" class="edge"><title>Node23&#45;&gt;Node27</title>
<path fill="none" stroke="midnightblue" d="M873.386,-142.434C861.164,-140.004 847.566,-137.589 835,-136 566.884,-102.087 496.467,-131.007 228,-100 217.159,-98.7479 205.618,-97.0319 194.605,-95.2069"/>
<polygon fill="midnightblue" stroke="midnightblue" points="195.122,-91.7445 184.675,-93.5104 193.943,-98.6446 195.122,-91.7445"/>
</g>
<!-- Node28 -->
<g id="node28" class="node"><title>Node28</title>
<polygon fill="none" stroke="#bfbfbf" points="237,-74.5 237,-93.5 397,-93.5 397,-74.5 237,-74.5"/>
<text text-anchor="middle" x="317" y="-81.5" font-family="Helvetica,sans-Serif" font-size="10.00">Math/GenVector/Translation3D.h</text>
</g>
<!-- Node23&#45;&gt;Node28 -->
<g id="edge32" class="edge"><title>Node23&#45;&gt;Node28</title>
<path fill="none" stroke="midnightblue" d="M872.57,-142.464C860.554,-140.094 847.276,-137.706 835,-136 645.484,-109.668 595.836,-123.92 406,-100 395.288,-98.6502 383.894,-96.9403 372.962,-95.1619"/>
<polygon fill="midnightblue" stroke="midnightblue" points="373.524,-91.7073 363.085,-93.5178 372.374,-98.6123 373.524,-91.7073"/>
</g>
<!-- Node29 -->
<g id="node29" class="node"><title>Node29</title>
<polygon fill="none" stroke="#bfbfbf" points="415,-74.5 415,-93.5 491,-93.5 491,-74.5 415,-74.5"/>
<text text-anchor="middle" x="453" y="-81.5" font-family="Helvetica,sans-Serif" font-size="10.00">TGeoMatrix.h</text>
</g>
<!-- Node23&#45;&gt;Node29 -->
<g id="edge34" class="edge"><title>Node23&#45;&gt;Node29</title>
<path fill="none" stroke="midnightblue" d="M871.75,-142.487C859.944,-140.172 846.986,-137.808 835,-136 686.929,-113.663 646.519,-130.922 500,-100 495.543,-99.0593 490.909,-97.862 486.364,-96.5553"/>
<polygon fill="midnightblue" stroke="midnightblue" points="487.247,-93.1653 476.66,-93.5773 485.193,-99.8572 487.247,-93.1653"/>
</g>
<!-- Node30 -->
<g id="node30" class="node"><title>Node30</title>
<g id="a_node30"><a xlink:href="../../d2/dd0/Cartesian2D_8h.html" target="_top" xlink:title="MathUtils/Cartesian2D.h">
<polygon fill="none" stroke="black" points="509.5,-74.5 509.5,-93.5 634.5,-93.5 634.5,-74.5 509.5,-74.5"/>
<text text-anchor="middle" x="572" y="-81.5" font-family="Helvetica,sans-Serif" font-size="10.00">MathUtils/Cartesian2D.h</text>
</a>
</g>
</g>
<!-- Node23&#45;&gt;Node30 -->
<g id="edge36" class="edge"><title>Node23&#45;&gt;Node30</title>
<path fill="none" stroke="midnightblue" d="M868.438,-142.458C857.523,-140.333 845.835,-138.071 835,-136 749.724,-119.699 728.145,-116.974 643,-100 636.193,-98.643 629.027,-97.1753 621.973,-95.7075"/>
<polygon fill="midnightblue" stroke="midnightblue" points="622.277,-92.1952 611.772,-93.5697 620.841,-99.0464 622.277,-92.1952"/>
</g>
<!-- Node31 -->
<g id="node31" class="node"><title>Node31</title>
<polygon fill="none" stroke="#bfbfbf" points="587.5,-1 587.5,-31 738.5,-31 738.5,-1 587.5,-1"/>
<text text-anchor="start" x="595.5" y="-19" font-family="Helvetica,sans-Serif" font-size="10.00">Math/GenVector/Displacement</text>
<text text-anchor="middle" x="663" y="-8" font-family="Helvetica,sans-Serif" font-size="10.00">Vector2D.h</text>
</g>
<!-- Node30&#45;&gt;Node31 -->
<g id="edge37" class="edge"><title>Node30&#45;&gt;Node31</title>
<path fill="none" stroke="midnightblue" d="M583.897,-74.3717C596.779,-65.0286 617.78,-49.7966 634.907,-37.375"/>
<polygon fill="midnightblue" stroke="midnightblue" points="637.407,-39.8859 643.447,-31.1815 633.297,-34.2194 637.407,-39.8859"/>
</g>
<!-- Node32 -->
<g id="node32" class="node"><title>Node32</title>
<polygon fill="none" stroke="#bfbfbf" points="393,-6.5 393,-25.5 569,-25.5 569,-6.5 393,-6.5"/>
<text text-anchor="middle" x="481" y="-13.5" font-family="Helvetica,sans-Serif" font-size="10.00">Math/GenVector/PositionVector2D.h</text>
</g>
<!-- Node30&#45;&gt;Node32 -->
<g id="edge38" class="edge"><title>Node30&#45;&gt;Node32</title>
<path fill="none" stroke="midnightblue" d="M560.103,-74.3717C545.116,-63.5015 519.138,-44.6602 501.058,-31.5474"/>
<polygon fill="midnightblue" stroke="midnightblue" points="503.05,-28.6684 492.9,-25.6305 498.94,-34.3349 503.05,-28.6684"/>
</g>
<!-- Node33&#45;&gt;Node5 -->
<g id="edge63" class="edge"><title>Node33&#45;&gt;Node5</title>
<path fill="none" stroke="midnightblue" d="M1475.68,-396.973C1464.41,-387.316 1449.84,-373.784 1439,-360 1395.24,-304.372 1375.67,-267.464 1407,-204 1418.65,-180.406 1435.36,-186.576 1454,-168 1474.77,-147.298 1494.75,-119.768 1506.71,-102.211"/>
<polygon fill="midnightblue" stroke="midnightblue" points="1509.82,-103.847 1512.48,-93.5901 1504.01,-99.9536 1509.82,-103.847"/>
</g>
<!-- Node33&#45;&gt;Node6 -->
<g id="edge48" class="edge"><title>Node33&#45;&gt;Node6</title>
<path fill="none" stroke="midnightblue" d="M1436.26,-396.933C1393.21,-386.258 1334.87,-371.793 1295.24,-361.968"/>
<polygon fill="midnightblue" stroke="midnightblue" points="1295.88,-358.522 1285.33,-359.513 1294.2,-365.316 1295.88,-358.522"/>
</g>
<!-- Node33&#45;&gt;Node15 -->
<g id="edge43" class="edge"><title>Node33&#45;&gt;Node15</title>
<path fill="none" stroke="midnightblue" d="M1478.38,-396.667C1469.44,-387.089 1458.51,-373.761 1452,-360 1421.94,-296.462 1385.76,-261.63 1426,-204 1438.54,-186.036 1496.02,-169.382 1533.02,-160.259"/>
<polygon fill="midnightblue" stroke="midnightblue" points="1533.96,-163.633 1542.86,-157.89 1532.32,-156.828 1533.96,-163.633"/>
</g>
<!-- Node34 -->
<g id="node34" class="node"><title>Node34</title>
<polygon fill="none" stroke="#bfbfbf" points="1784,-142.5 1784,-161.5 1824,-161.5 1824,-142.5 1784,-142.5"/>
<text text-anchor="middle" x="1804" y="-149.5" font-family="Helvetica,sans-Serif" font-size="10.00">utility</text>
</g>
<!-- Node33&#45;&gt;Node34 -->
<g id="edge42" class="edge"><title>Node33&#45;&gt;Node34</title>
<path fill="none" stroke="midnightblue" d="M1552.59,-402.937C1627.64,-392.309 1748.8,-373.395 1765,-360 1821.42,-313.351 1813.45,-213.087 1807.29,-171.58"/>
<polygon fill="midnightblue" stroke="midnightblue" points="1810.72,-170.833 1805.66,-161.524 1803.81,-171.956 1810.72,-170.833"/>
</g>
<!-- Node35 -->
<g id="node35" class="node"><title>Node35</title>
<g id="a_node35"><a xlink:href="../../d0/d2d/common_2base_2include_2ITSMFTBase_2GeometryTGeo_8h.html" target="_top" xlink:title="ITSMFTBase/GeometryTGeo.h">
<polygon fill="none" stroke="black" points="1468.5,-340.5 1468.5,-359.5 1621.5,-359.5 1621.5,-340.5 1468.5,-340.5"/>
<text text-anchor="middle" x="1545" y="-347.5" font-family="Helvetica,sans-Serif" font-size="10.00">ITSMFTBase/GeometryTGeo.h</text>
</a>
</g>
</g>
<!-- Node33&#45;&gt;Node35 -->
<g id="edge44" class="edge"><title>Node33&#45;&gt;Node35</title>
<path fill="none" stroke="midnightblue" d="M1505.32,-396.781C1512.96,-387.972 1522.79,-376.626 1530.76,-367.433"/>
<polygon fill="midnightblue" stroke="midnightblue" points="1533.53,-369.58 1537.43,-359.731 1528.24,-364.995 1533.53,-369.58"/>
</g>
<!-- Node38 -->
<g id="node38" class="node"><title>Node38</title>
<g id="a_node38"><a xlink:href="../../df/d2e/PixelReader_8h.html" target="_top" xlink:title="Definition of the ITS pixel reader. ">
<polygon fill="none" stroke="black" points="1643.5,-273 1643.5,-303 1762.5,-303 1762.5,-273 1643.5,-273"/>
<text text-anchor="start" x="1651.5" y="-291" font-family="Helvetica,sans-Serif" font-size="10.00">ITSMFTReconstruction</text>
<text text-anchor="middle" x="1703" y="-280" font-family="Helvetica,sans-Serif" font-size="10.00">/PixelReader.h</text>
</a>
</g>
</g>
<!-- Node33&#45;&gt;Node38 -->
<g id="edge49" class="edge"><title>Node33&#45;&gt;Node38</title>
<path fill="none" stroke="midnightblue" d="M1552.58,-406.243C1614.01,-399.955 1703.75,-386.434 1725,-360 1736.05,-346.258 1729.04,-326.959 1720.09,-311.949"/>
<polygon fill="midnightblue" stroke="midnightblue" points="1722.81,-309.712 1714.42,-303.246 1716.95,-313.535 1722.81,-309.712"/>
</g>
<!-- Node39 -->
<g id="node39" class="node"><title>Node39</title>
<g id="a_node39"><a xlink:href="../../da/d8d/PixelData_8h.html" target="_top" xlink:title="Transient data classes for single pixel and set of pixels from current chip. ">
<polygon fill="none" stroke="black" points="1681.5,-205 1681.5,-235 1800.5,-235 1800.5,-205 1681.5,-205"/>
<text text-anchor="start" x="1689.5" y="-223" font-family="Helvetica,sans-Serif" font-size="10.00">ITSMFTReconstruction</text>
<text text-anchor="middle" x="1741" y="-212" font-family="Helvetica,sans-Serif" font-size="10.00">/PixelData.h</text>
</a>
</g>
</g>
<!-- Node33&#45;&gt;Node39 -->
<g id="edge61" class="edge"><title>Node33&#45;&gt;Node39</title>
<path fill="none" stroke="midnightblue" d="M1552.56,-404.61C1616.16,-396.782 1711.76,-381.814 1741,-360 1774.12,-335.293 1781.86,-311.87 1771,-272 1768.3,-262.101 1763.15,-252.163 1757.86,-243.724"/>
<polygon fill="midnightblue" stroke="midnightblue" points="1760.64,-241.595 1752.18,-235.227 1754.82,-245.486 1760.64,-241.595"/>
</g>
<!-- Node42 -->
<g id="node42" class="node"><title>Node42</title>
<g id="a_node42"><a xlink:href="../../d7/dcd/MCCompLabel_8h.html" target="_top" xlink:title="SimulationDataFormat\l/MCCompLabel.h">
<polygon fill="none" stroke="black" points="1435,-205 1435,-235 1549,-235 1549,-205 1435,-205"/>
<text text-anchor="start" x="1443" y="-223" font-family="Helvetica,sans-Serif" font-size="10.00">SimulationDataFormat</text>
<text text-anchor="middle" x="1492" y="-212" font-family="Helvetica,sans-Serif" font-size="10.00">/MCCompLabel.h</text>
</a>
</g>
</g>
<!-- Node33&#45;&gt;Node42 -->
<g id="edge62" class="edge"><title>Node33&#45;&gt;Node42</title>
<path fill="none" stroke="midnightblue" d="M1480.01,-396.59C1472.25,-386.981 1463.13,-373.648 1459,-360 1446.85,-319.866 1465.14,-272.118 1478.96,-244.317"/>
<polygon fill="midnightblue" stroke="midnightblue" points="1482.11,-245.848 1483.61,-235.36 1475.9,-242.625 1482.11,-245.848"/>
</g>
<!-- Node43 -->
<g id="node43" class="node"><title>Node43</title>
<polygon fill="none" stroke="#bfbfbf" points="1639.5,-340.5 1639.5,-359.5 1716.5,-359.5 1716.5,-340.5 1639.5,-340.5"/>
<text text-anchor="middle" x="1678" y="-347.5" font-family="Helvetica,sans-Serif" font-size="10.00">TStopwatch.h</text>
</g>
<!-- Node33&#45;&gt;Node43 -->
<g id="edge64" class="edge"><title>Node33&#45;&gt;Node43</title>
<path fill="none" stroke="midnightblue" d="M1536.37,-396.933C1568.52,-386.508 1611.81,-372.467 1642.04,-362.663"/>
<polygon fill="midnightblue" stroke="midnightblue" points="1643.32,-365.927 1651.75,-359.513 1641.16,-359.269 1643.32,-365.927"/>
</g>
<!-- Node35&#45;&gt;Node13 -->
<g id="edge47" class="edge"><title>Node35&#45;&gt;Node13</title>
<path fill="none" stroke="midnightblue" d="M1526.06,-340.403C1480.81,-319.865 1365.61,-267.574 1303.74,-239.494"/>
<polygon fill="midnightblue" stroke="midnightblue" points="1304.84,-236.15 1294.29,-235.204 1301.95,-242.524 1304.84,-236.15"/>
</g>
<!-- Node36 -->
<g id="node36" class="node"><title>Node36</title>
<polygon fill="none" stroke="#bfbfbf" points="1497.5,-278.5 1497.5,-297.5 1566.5,-297.5 1566.5,-278.5 1497.5,-278.5"/>
<text text-anchor="middle" x="1532" y="-285.5" font-family="Helvetica,sans-Serif" font-size="10.00">TObjArray.h</text>
</g>
<!-- Node35&#45;&gt;Node36 -->
<g id="edge45" class="edge"><title>Node35&#45;&gt;Node36</title>
<path fill="none" stroke="midnightblue" d="M1543.14,-340.403C1541.28,-331.849 1538.38,-318.45 1536,-307.476"/>
<polygon fill="midnightblue" stroke="midnightblue" points="1539.4,-306.613 1533.86,-297.581 1532.56,-308.095 1539.4,-306.613"/>
</g>
<!-- Node37 -->
<g id="node37" class="node"><title>Node37</title>
<polygon fill="none" stroke="#bfbfbf" points="1584.5,-278.5 1584.5,-297.5 1625.5,-297.5 1625.5,-278.5 1584.5,-278.5"/>
<text text-anchor="middle" x="1605" y="-285.5" font-family="Helvetica,sans-Serif" font-size="10.00">string</text>
</g>
<!-- Node35&#45;&gt;Node37 -->
<g id="edge46" class="edge"><title>Node35&#45;&gt;Node37</title>
<path fill="none" stroke="midnightblue" d="M1553.6,-340.403C1562.86,-331.136 1577.82,-316.183 1589.21,-304.788"/>
<polygon fill="midnightblue" stroke="midnightblue" points="1591.82,-307.127 1596.42,-297.581 1586.87,-302.177 1591.82,-307.127"/>
</g>
<!-- Node38&#45;&gt;Node5 -->
<g id="edge50" class="edge"><title>Node38&#45;&gt;Node5</title>
<path fill="none" stroke="midnightblue" d="M1692.59,-272.739C1685.16,-262.528 1674.93,-248.442 1666,-236 1634.22,-191.717 1634.16,-173.913 1595,-136 1579.59,-121.083 1559.27,-107.832 1543.37,-98.5778"/>
<polygon fill="midnightblue" stroke="midnightblue" points="1545.01,-95.4886 1534.59,-93.6086 1541.57,-101.58 1545.01,-95.4886"/>
</g>
<!-- Node38&#45;&gt;Node15 -->
<g id="edge60" class="edge"><title>Node38&#45;&gt;Node15</title>
<path fill="none" stroke="midnightblue" d="M1659.27,-272.991C1639.41,-264.814 1616.86,-252.747 1601,-236 1583.75,-217.782 1574.01,-189.98 1569.12,-171.65"/>
<polygon fill="midnightblue" stroke="midnightblue" points="1572.51,-170.749 1566.74,-161.863 1565.71,-172.408 1572.51,-170.749"/>
</g>
<!-- Node38&#45;&gt;Node39 -->
<g id="edge51" class="edge"><title>Node38&#45;&gt;Node39</title>
<path fill="none" stroke="midnightblue" d="M1711.25,-272.679C1716.03,-264.376 1722.16,-253.721 1727.62,-244.245"/>
<polygon fill="midnightblue" stroke="midnightblue" points="1730.81,-245.706 1732.77,-235.293 1724.75,-242.213 1730.81,-245.706"/>
</g>
<!-- Node40 -->
<g id="node40" class="node"><title>Node40</title>
<g id="a_node40"><a xlink:href="../../d0/d06/ITSMFT_2common_2base_2include_2ITSMFTBase_2Digit_8h.html" target="_top" xlink:title="ITSMFTBase/Digit.h">
<polygon fill="none" stroke="black" points="1643.5,-142.5 1643.5,-161.5 1750.5,-161.5 1750.5,-142.5 1643.5,-142.5"/>
<text text-anchor="middle" x="1697" y="-149.5" font-family="Helvetica,sans-Serif" font-size="10.00">ITSMFTBase/Digit.h</text>
</a>
</g>
</g>
<!-- Node38&#45;&gt;Node40 -->
<g id="edge57" class="edge"><title>Node38&#45;&gt;Node40</title>
<path fill="none" stroke="midnightblue" d="M1691.82,-272.773C1684.91,-263.031 1676.67,-249.48 1673,-236 1669.26,-222.277 1669.9,-217.88 1673,-204 1675.63,-192.234 1681.29,-179.981 1686.45,-170.435"/>
<polygon fill="midnightblue" stroke="midnightblue" points="1689.58,-172.018 1691.5,-161.6 1683.5,-168.544 1689.58,-172.018"/>
</g>
<!-- Node38&#45;&gt;Node42 -->
<g id="edge58" class="edge"><title>Node38&#45;&gt;Node42</title>
<path fill="none" stroke="midnightblue" d="M1657.99,-272.922C1625.5,-262.757 1581.43,-248.975 1546.87,-238.164"/>
<polygon fill="midnightblue" stroke="midnightblue" points="1547.53,-234.701 1536.94,-235.056 1545.44,-241.382 1547.53,-234.701"/>
</g>
<!-- Node39&#45;&gt;Node15 -->
<g id="edge55" class="edge"><title>Node39&#45;&gt;Node15</title>
<path fill="none" stroke="midnightblue" d="M1703.24,-204.841C1671.48,-192.931 1626.59,-176.096 1596.67,-164.878"/>
<polygon fill="midnightblue" stroke="midnightblue" points="1597.74,-161.538 1587.14,-161.304 1595.28,-168.093 1597.74,-161.538"/>
</g>
<!-- Node39&#45;&gt;Node34 -->
<g id="edge56" class="edge"><title>Node39&#45;&gt;Node34</title>
<path fill="none" stroke="midnightblue" d="M1754.67,-204.679C1764.59,-194.286 1778.03,-180.208 1788.37,-169.37"/>
<polygon fill="midnightblue" stroke="midnightblue" points="1791.2,-171.479 1795.57,-161.828 1786.14,-166.645 1791.2,-171.479"/>
</g>
<!-- Node39&#45;&gt;Node40 -->
<g id="edge52" class="edge"><title>Node39&#45;&gt;Node40</title>
<path fill="none" stroke="midnightblue" d="M1731.45,-204.679C1724.73,-194.592 1715.69,-181.033 1708.56,-170.335"/>
<polygon fill="midnightblue" stroke="midnightblue" points="1711.34,-168.207 1702.89,-161.828 1705.52,-172.09 1711.34,-168.207"/>
</g>
<!-- Node40&#45;&gt;Node5 -->
<g id="edge53" class="edge"><title>Node40&#45;&gt;Node5</title>
<path fill="none" stroke="midnightblue" d="M1673.6,-142.372C1642.16,-130.778 1586.12,-110.116 1550.57,-97.0087"/>
<polygon fill="midnightblue" stroke="midnightblue" points="1551.72,-93.7015 1541.12,-93.5259 1549.29,-100.269 1551.72,-93.7015"/>
</g>
<!-- Node41 -->
<g id="node41" class="node"><title>Node41</title>
<polygon fill="none" stroke="#bfbfbf" points="1660.5,-74.5 1660.5,-93.5 1705.5,-93.5 1705.5,-74.5 1660.5,-74.5"/>
<text text-anchor="middle" x="1683" y="-81.5" font-family="Helvetica,sans-Serif" font-size="10.00">climits</text>
</g>
<!-- Node40&#45;&gt;Node41 -->
<g id="edge54" class="edge"><title>Node40&#45;&gt;Node41</title>
<path fill="none" stroke="midnightblue" d="M1695.17,-142.372C1693.11,-132.643 1689.69,-116.528 1687,-103.85"/>
<polygon fill="midnightblue" stroke="midnightblue" points="1690.37,-102.897 1684.88,-93.8411 1683.53,-104.35 1690.37,-102.897"/>
</g>
<!-- Node42&#45;&gt;Node5 -->
<g id="edge59" class="edge"><title>Node42&#45;&gt;Node5</title>
<path fill="none" stroke="midnightblue" d="M1494.78,-204.66C1499.51,-180.32 1509.09,-130.933 1514.35,-103.837"/>
<polygon fill="midnightblue" stroke="midnightblue" points="1517.84,-104.211 1516.31,-93.7275 1510.97,-102.878 1517.84,-104.211"/>
</g>
<!-- Node44&#45;&gt;Node17 -->
<g id="edge67" class="edge"><title>Node44&#45;&gt;Node17</title>
<path fill="none" stroke="midnightblue" d="M1925.61,-136.841C1904.43,-125.476 1874.9,-109.628 1854.07,-98.454"/>
<polygon fill="midnightblue" stroke="midnightblue" points="1855.65,-95.326 1845.18,-93.6819 1852.34,-101.494 1855.65,-95.326"/>
</g>
<!-- Node44&#45;&gt;Node19 -->
<g id="edge70" class="edge"><title>Node44&#45;&gt;Node19</title>
<path fill="none" stroke="midnightblue" d="M1907.48,-136.9C1876.2,-126.881 1833.43,-112.96 1796,-100 1793.25,-99.0467 1790.4,-98.0415 1787.54,-97.0215"/>
<polygon fill="midnightblue" stroke="midnightblue" points="1788.53,-93.6579 1777.94,-93.5504 1786.15,-100.241 1788.53,-93.6579"/>
</g>
<!-- Node45 -->
<g id="node45" class="node"><title>Node45</title>
<polygon fill="none" stroke="#bfbfbf" points="1935,-74.5 1935,-93.5 1997,-93.5 1997,-74.5 1935,-74.5"/>
<text text-anchor="middle" x="1966" y="-81.5" font-family="Helvetica,sans-Serif" font-size="10.00">TNamed.h</text>
</g>
<!-- Node44&#45;&gt;Node45 -->
<g id="edge66" class="edge"><title>Node44&#45;&gt;Node45</title>
<path fill="none" stroke="midnightblue" d="M1955.04,-136.679C1957.09,-126.999 1959.82,-114.123 1962.05,-103.645"/>
<polygon fill="midnightblue" stroke="midnightblue" points="1965.48,-104.337 1964.13,-93.8283 1958.63,-102.884 1965.48,-104.337"/>
</g>
<!-- Node46 -->
<g id="node46" class="node"><title>Node46</title>
<polygon fill="none" stroke="#bfbfbf" points="2015.5,-74.5 2015.5,-93.5 2074.5,-93.5 2074.5,-74.5 2015.5,-74.5"/>
<text text-anchor="middle" x="2045" y="-81.5" font-family="Helvetica,sans-Serif" font-size="10.00">stdexcept</text>
</g>
<!-- Node44&#45;&gt;Node46 -->
<g id="edge68" class="edge"><title>Node44&#45;&gt;Node46</title>
<path fill="none" stroke="midnightblue" d="M1972.18,-136.679C1987.63,-125.713 2008.86,-110.645 2024.42,-99.6085"/>
<polygon fill="midnightblue" stroke="midnightblue" points="2026.7,-102.28 2032.83,-93.6379 2022.65,-96.5711 2026.7,-102.28"/>
</g>
<!-- Node47 -->
<g id="node47" class="node"><title>Node47</title>
<polygon fill="none" stroke="#bfbfbf" points="1871.5,-74.5 1871.5,-93.5 1916.5,-93.5 1916.5,-74.5 1871.5,-74.5"/>
<text text-anchor="middle" x="1894" y="-81.5" font-family="Helvetica,sans-Serif" font-size="10.00">gsl/gsl</text>
</g>
<!-- Node44&#45;&gt;Node47 -->
<g id="edge69" class="edge"><title>Node44&#45;&gt;Node47</title>
<path fill="none" stroke="midnightblue" d="M1939.41,-136.679C1930.28,-126.286 1917.91,-112.208 1908.39,-101.37"/>
<polygon fill="midnightblue" stroke="midnightblue" points="1910.99,-99.0296 1901.76,-93.8283 1905.73,-103.65 1910.99,-99.0296"/>
</g>
</g>
</svg>
