<?xml version="1.0" encoding="UTF-8" standalone="no"?>
<!DOCTYPE svg PUBLIC "-//W3C//DTD SVG 1.1//EN"
 "http://www.w3.org/Graphics/SVG/1.1/DTD/svg11.dtd">
<!-- Generated by graphviz version 2.36.0 (20140111.2315)
 -->
<!-- Title: o2::memoryResources::ChannelResource Pages: 1 -->
<svg width="502pt" height="402pt"
 viewBox="0.00 0.00 502.00 402.00" xmlns="http://www.w3.org/2000/svg" xmlns:xlink="http://www.w3.org/1999/xlink">
<g id="graph0" class="graph" transform="scale(1 1) rotate(0) translate(4 398)">
<title>o2::memoryResources::ChannelResource</title>
<!-- Node1 -->
<g id="node1" class="node"><title>Node1</title>
<polygon fill="#bfbfbf" stroke="black" points="163.5,-0.5 163.5,-145.5 298.5,-145.5 298.5,-0.5 163.5,-0.5"/>
<text text-anchor="start" x="171.5" y="-133.5" font-family="Helvetica,sans-Serif" font-size="10.00">o2::memoryResources</text>
<text text-anchor="middle" x="231" y="-122.5" font-family="Helvetica,sans-Serif" font-size="10.00">::ChannelResource</text>
<polyline fill="none" stroke="black" points="163.5,-115.5 298.5,-115.5 "/>
<text text-anchor="middle" x="231" y="-103.5" font-family="Helvetica,sans-Serif" font-size="10.00"> </text>
<polyline fill="none" stroke="black" points="163.5,-96.5 298.5,-96.5 "/>
<text text-anchor="start" x="171.5" y="-84.5" font-family="Helvetica,sans-Serif" font-size="10.00">+ ChannelResource()</text>
<text text-anchor="start" x="171.5" y="-73.5" font-family="Helvetica,sans-Serif" font-size="10.00">+ ChannelResource()</text>
<text text-anchor="start" x="171.5" y="-62.5" font-family="Helvetica,sans-Serif" font-size="10.00">+ getMessage()</text>
<text text-anchor="start" x="171.5" y="-51.5" font-family="Helvetica,sans-Serif" font-size="10.00">+ getTransportFactory()</text>
<text text-anchor="start" x="171.5" y="-40.5" font-family="Helvetica,sans-Serif" font-size="10.00">+ getNumberOfMessages()</text>
<text text-anchor="start" x="171.5" y="-29.5" font-family="Helvetica,sans-Serif" font-size="10.00"># do_allocate()</text>
<text text-anchor="start" x="171.5" y="-18.5" font-family="Helvetica,sans-Serif" font-size="10.00"># do_deallocate()</text>
<text text-anchor="start" x="171.5" y="-7.5" font-family="Helvetica,sans-Serif" font-size="10.00"># do_is_equal()</text>
</g>
<!-- Node2 -->
<g id="node2" class="node"><title>Node2</title>
<g id="a_node2"><a xlink:href="../../d1/dcc/classo2_1_1memoryResources_1_1FairMQMemoryResource.html" target="_top" xlink:title="All FairMQ related memory resources need to inherit from this interface class for the getMessage() ap...">
<polygon fill="none" stroke="black" points="-0.5,-195 -0.5,-285 134.5,-285 134.5,-195 -0.5,-195"/>
<text text-anchor="start" x="7.5" y="-273" font-family="Helvetica,sans-Serif" font-size="10.00">o2::memoryResources</text>
<text text-anchor="middle" x="67" y="-262" font-family="Helvetica,sans-Serif" font-size="10.00">::FairMQMemoryResource</text>
<polyline fill="none" stroke="black" points="-0.5,-255 134.5,-255 "/>
<text text-anchor="middle" x="67" y="-243" font-family="Helvetica,sans-Serif" font-size="10.00"> </text>
<polyline fill="none" stroke="black" points="-0.5,-236 134.5,-236 "/>
<text text-anchor="start" x="7.5" y="-224" font-family="Helvetica,sans-Serif" font-size="10.00">+ getMessage()</text>
<text text-anchor="start" x="7.5" y="-213" font-family="Helvetica,sans-Serif" font-size="10.00">+ getTransportFactory()</text>
<text text-anchor="start" x="7.5" y="-202" font-family="Helvetica,sans-Serif" font-size="10.00">+ getNumberOfMessages()</text>
</a>
</g>
</g>
<!-- Node2&#45;&gt;Node1 -->
<g id="edge1" class="edge"><title>Node2&#45;&gt;Node1</title>
<path fill="none" stroke="midnightblue" d="M118.287,-187.4C132.596,-173.004 148.363,-157.141 163.455,-141.956"/>
<polygon fill="none" stroke="midnightblue" points="115.516,-185.223 110.949,-194.783 120.481,-190.158 115.516,-185.223"/>
</g>
<!-- Node3 -->
<g id="node3" class="node"><title>Node3</title>
<polygon fill="none" stroke="#bfbfbf" points="12.5,-325 12.5,-393 121.5,-393 121.5,-325 12.5,-325"/>
<text text-anchor="start" x="20.5" y="-381" font-family="Helvetica,sans-Serif" font-size="10.00">boost::container::pmr</text>
<text text-anchor="middle" x="67" y="-370" font-family="Helvetica,sans-Serif" font-size="10.00">::memory_resource</text>
<polyline fill="none" stroke="#bfbfbf" points="12.5,-363 121.5,-363 "/>
<text text-anchor="middle" x="67" y="-351" font-family="Helvetica,sans-Serif" font-size="10.00"> </text>
<polyline fill="none" stroke="#bfbfbf" points="12.5,-344 121.5,-344 "/>
<text text-anchor="middle" x="67" y="-332" font-family="Helvetica,sans-Serif" font-size="10.00"> </text>
</g>
<!-- Node3&#45;&gt;Node2 -->
<g id="edge2" class="edge"><title>Node3&#45;&gt;Node2</title>
<path fill="none" stroke="midnightblue" d="M67,-314.65C67,-305.049 67,-294.863 67,-285.227"/>
<polygon fill="none" stroke="midnightblue" points="63.5001,-314.785 67,-324.785 70.5001,-314.785 63.5001,-314.785"/>
</g>
<!-- Node4 -->
<g id="node4" class="node"><title>Node4</title>
<polygon fill="none" stroke="#bfbfbf" points="152.5,-211.5 152.5,-268.5 309.5,-268.5 309.5,-211.5 152.5,-211.5"/>
<text text-anchor="middle" x="231" y="-256.5" font-family="Helvetica,sans-Serif" font-size="10.00">const FairMQTransportFactory *</text>
<polyline fill="none" stroke="#bfbfbf" points="152.5,-249.5 309.5,-249.5 "/>
<text text-anchor="middle" x="231" y="-237.5" font-family="Helvetica,sans-Serif" font-size="10.00"> </text>
<polyline fill="none" stroke="#bfbfbf" points="152.5,-230.5 309.5,-230.5 "/>
<text text-anchor="middle" x="231" y="-218.5" font-family="Helvetica,sans-Serif" font-size="10.00"> </text>
</g>
<!-- Node4&#45;&gt;Node1 -->
<g id="edge3" class="edge"><title>Node4&#45;&gt;Node1</title>
<path fill="none" stroke="#404040" d="M231,-211.383C231,-196.492 231,-177.236 231,-157.878"/>
<polygon fill="none" stroke="#404040" points="231,-157.85 227,-151.85 231,-145.85 235,-151.85 231,-157.85"/>
<text text-anchor="middle" x="250.5" y="-167.5" font-family="Helvetica,sans-Serif" font-size="10.00"> #factory</text>
</g>
<!-- Node5 -->
<g id="node5" class="node"><title>Node5</title>
<polygon fill="none" stroke="#bfbfbf" points="328,-206 328,-274 494,-274 494,-206 328,-206"/>
<text text-anchor="start" x="336" y="-262" font-family="Helvetica,sans-Serif" font-size="10.00">flat_map&lt; void *, FairMQMessage</text>
<text text-anchor="middle" x="411" y="-251" font-family="Helvetica,sans-Serif" font-size="10.00">Ptr &gt;</text>
<polyline fill="none" stroke="#bfbfbf" points="328,-244 494,-244 "/>
<text text-anchor="middle" x="411" y="-232" font-family="Helvetica,sans-Serif" font-size="10.00"> </text>
<polyline fill="none" stroke="#bfbfbf" points="328,-225 494,-225 "/>
<text text-anchor="middle" x="411" y="-213" font-family="Helvetica,sans-Serif" font-size="10.00"> </text>
</g>
<!-- Node5&#45;&gt;Node1 -->
<g id="edge4" class="edge"><title>Node5&#45;&gt;Node1</title>
<path fill="none" stroke="#404040" d="M374.574,-205.61C355.348,-187.986 330.994,-165.661 307.829,-144.426"/>
<polygon fill="none" stroke="#404040" points="307.528,-144.15 300.402,-143.044 298.682,-136.041 305.807,-137.147 307.528,-144.15"/>
<text text-anchor="middle" x="371.5" y="-167.5" font-family="Helvetica,sans-Serif" font-size="10.00"> #messageMap</text>
</g>
</g>
</svg>
