<?xml version="1.0" encoding="UTF-8" standalone="no"?>
<!DOCTYPE svg PUBLIC "-//W3C//DTD SVG 1.1//EN"
 "http://www.w3.org/Graphics/SVG/1.1/DTD/svg11.dtd">
<!-- Generated by graphviz version 2.36.0 (20140111.2315)
 -->
<!-- Title: /home/travis/build/AliceO2Group/AliceO2/Detectors/ITSMFT/common/reconstruction/include/ITSMFTReconstruction/PixelReader.h Pages: 1 -->
<svg width="390pt" height="252pt"
 viewBox="0.00 0.00 389.95 252.00" xmlns="http://www.w3.org/2000/svg" xmlns:xlink="http://www.w3.org/1999/xlink">
<g id="graph0" class="graph" transform="scale(1 1) rotate(0) translate(4 248)">
<title>/home/travis/build/AliceO2Group/AliceO2/Detectors/ITSMFT/common/reconstruction/include/ITSMFTReconstruction/PixelReader.h</title>
<!-- Node1 -->
<g id="node1" class="node"><title>Node1</title>
<polygon fill="#bfbfbf" stroke="black" points="65.952,-180.5 65.952,-243.5 251.952,-243.5 251.952,-180.5 65.952,-180.5"/>
<text text-anchor="start" x="73.952" y="-231.5" font-family="Helvetica,sans-Serif" font-size="10.00">/home/travis/build</text>
<text text-anchor="start" x="73.952" y="-220.5" font-family="Helvetica,sans-Serif" font-size="10.00">/AliceO2Group/AliceO2</text>
<text text-anchor="start" x="73.952" y="-209.5" font-family="Helvetica,sans-Serif" font-size="10.00">/Detectors/ITSMFT/common</text>
<text text-anchor="start" x="73.952" y="-198.5" font-family="Helvetica,sans-Serif" font-size="10.00">/reconstruction/include</text>
<text text-anchor="middle" x="158.952" y="-187.5" font-family="Helvetica,sans-Serif" font-size="10.00">/ITSMFTReconstruction/PixelReader.h</text>
</g>
<!-- Node2 -->
<g id="node2" class="node"><title>Node2</title>
<polygon fill="none" stroke="#bfbfbf" points="45.952,-0.5 45.952,-19.5 101.952,-19.5 101.952,-0.5 45.952,-0.5"/>
<text text-anchor="middle" x="73.952" y="-7.5" font-family="Helvetica,sans-Serif" font-size="10.00">Rtypes.h</text>
</g>
<!-- Node1&#45;&gt;Node2 -->
<g id="edge1" class="edge"><title>Node1&#45;&gt;Node2</title>
<path fill="none" stroke="midnightblue" d="M65.808,-189.131C43.1013,-179.19 21.4767,-164.797 7.95197,-144 -18.1403,-103.877 28.334,-51.9927 55.838,-26.5135"/>
<polygon fill="midnightblue" stroke="midnightblue" points="58.2382,-29.0622 63.3403,-19.7767 53.5613,-23.8538 58.2382,-29.0622"/>
</g>
<!-- Node3 -->
<g id="node3" class="node"><title>Node3</title>
<g id="a_node3"><a xlink:href="../../da/d8d/PixelData_8h.html" target="_top" xlink:title="Transient data classes for single pixel and set of pixels from current chip. ">
<polygon fill="none" stroke="black" points="187.452,-113 187.452,-143 306.452,-143 306.452,-113 187.452,-113"/>
<text text-anchor="start" x="195.452" y="-131" font-family="Helvetica,sans-Serif" font-size="10.00">ITSMFTReconstruction</text>
<text text-anchor="middle" x="246.952" y="-120" font-family="Helvetica,sans-Serif" font-size="10.00">/PixelData.h</text>
</a>
</g>
</g>
<!-- Node1&#45;&gt;Node3 -->
<g id="edge2" class="edge"><title>Node1&#45;&gt;Node3</title>
<path fill="none" stroke="midnightblue" d="M191.72,-180.466C202.516,-170.406 214.28,-159.445 224.165,-150.233"/>
<polygon fill="midnightblue" stroke="midnightblue" points="226.706,-152.65 231.636,-143.272 221.934,-147.528 226.706,-152.65"/>
</g>
<!-- Node4 -->
<g id="node4" class="node"><title>Node4</title>
<g id="a_node4"><a xlink:href="../../d0/d06/ITSMFT_2common_2base_2include_2ITSMFTBase_2Digit_8h.html" target="_top" xlink:title="ITSMFTBase/Digit.h">
<polygon fill="none" stroke="black" points="275.452,-56.5 275.452,-75.5 382.452,-75.5 382.452,-56.5 275.452,-56.5"/>
<text text-anchor="middle" x="328.952" y="-63.5" font-family="Helvetica,sans-Serif" font-size="10.00">ITSMFTBase/Digit.h</text>
</a>
</g>
</g>
<!-- Node1&#45;&gt;Node4 -->
<g id="edge8" class="edge"><title>Node1&#45;&gt;Node4</title>
<path fill="none" stroke="midnightblue" d="M252.262,-188.182C275.844,-178.224 298.978,-164.06 314.952,-144 328.018,-127.592 330.417,-102.972 330.262,-86.0115"/>
<polygon fill="midnightblue" stroke="midnightblue" points="333.746,-85.5393 329.847,-75.6881 326.752,-85.8207 333.746,-85.5393"/>
</g>
<!-- Node6 -->
<g id="node6" class="node"><title>Node6</title>
<polygon fill="none" stroke="#bfbfbf" points="142.952,-56.5 142.952,-75.5 186.952,-75.5 186.952,-56.5 142.952,-56.5"/>
<text text-anchor="middle" x="164.952" y="-63.5" font-family="Helvetica,sans-Serif" font-size="10.00">vector</text>
</g>
<!-- Node1&#45;&gt;Node6 -->
<g id="edge11" class="edge"><title>Node1&#45;&gt;Node6</title>
<path fill="none" stroke="midnightblue" d="M160.224,-180.461C161.419,-151.798 163.167,-109.836 164.169,-85.7911"/>
<polygon fill="midnightblue" stroke="midnightblue" points="167.676,-85.7004 164.595,-75.5633 160.682,-85.4089 167.676,-85.7004"/>
</g>
<!-- Node8 -->
<g id="node8" class="node"><title>Node8</title>
<g id="a_node8"><a xlink:href="../../d7/dcd/MCCompLabel_8h.html" target="_top" xlink:title="SimulationDataFormat\l/MCCompLabel.h">
<polygon fill="none" stroke="black" points="16.952,-113 16.952,-143 130.952,-143 130.952,-113 16.952,-113"/>
<text text-anchor="start" x="24.952" y="-131" font-family="Helvetica,sans-Serif" font-size="10.00">SimulationDataFormat</text>
<text text-anchor="middle" x="73.952" y="-120" font-family="Helvetica,sans-Serif" font-size="10.00">/MCCompLabel.h</text>
</a>
</g>
</g>
<!-- Node1&#45;&gt;Node8 -->
<g id="edge9" class="edge"><title>Node1&#45;&gt;Node8</title>
<path fill="none" stroke="midnightblue" d="M127.301,-180.466C116.873,-170.406 105.51,-159.445 95.962,-150.233"/>
<polygon fill="midnightblue" stroke="midnightblue" points="98.3727,-147.696 88.7457,-143.272 93.5126,-152.733 98.3727,-147.696"/>
</g>
<!-- Node3&#45;&gt;Node4 -->
<g id="edge3" class="edge"><title>Node3&#45;&gt;Node4</title>
<path fill="none" stroke="midnightblue" d="M266.385,-112.781C279.16,-103.433 295.841,-91.2273 308.766,-81.77"/>
<polygon fill="midnightblue" stroke="midnightblue" points="311.017,-84.4603 317.02,-75.7305 306.883,-78.8111 311.017,-84.4603"/>
</g>
<!-- Node3&#45;&gt;Node6 -->
<g id="edge6" class="edge"><title>Node3&#45;&gt;Node6</title>
<path fill="none" stroke="midnightblue" d="M227.519,-112.781C214.744,-103.433 198.063,-91.2273 185.138,-81.77"/>
<polygon fill="midnightblue" stroke="midnightblue" points="187.021,-78.8111 176.884,-75.7305 182.887,-84.4603 187.021,-78.8111"/>
</g>
<!-- Node7 -->
<g id="node7" class="node"><title>Node7</title>
<polygon fill="none" stroke="#bfbfbf" points="216.952,-56.5 216.952,-75.5 256.952,-75.5 256.952,-56.5 216.952,-56.5"/>
<text text-anchor="middle" x="236.952" y="-63.5" font-family="Helvetica,sans-Serif" font-size="10.00">utility</text>
</g>
<!-- Node3&#45;&gt;Node7 -->
<g id="edge7" class="edge"><title>Node3&#45;&gt;Node7</title>
<path fill="none" stroke="midnightblue" d="M244.582,-112.781C243.234,-104.691 241.529,-94.4617 240.073,-85.725"/>
<polygon fill="midnightblue" stroke="midnightblue" points="243.504,-85.019 238.407,-75.7305 236.599,-86.1699 243.504,-85.019"/>
</g>
<!-- Node4&#45;&gt;Node2 -->
<g id="edge4" class="edge"><title>Node4&#45;&gt;Node2</title>
<path fill="none" stroke="midnightblue" d="M288.546,-56.4435C240.006,-46.1645 159.206,-29.0539 111.823,-19.0198"/>
<polygon fill="midnightblue" stroke="midnightblue" points="112.467,-15.5785 101.958,-16.9308 111.016,-22.4266 112.467,-15.5785"/>
</g>
<!-- Node5 -->
<g id="node5" class="node"><title>Node5</title>
<polygon fill="none" stroke="#bfbfbf" points="306.452,-0.5 306.452,-19.5 351.452,-19.5 351.452,-0.5 306.452,-0.5"/>
<text text-anchor="middle" x="328.952" y="-7.5" font-family="Helvetica,sans-Serif" font-size="10.00">climits</text>
</g>
<!-- Node4&#45;&gt;Node5 -->
<g id="edge5" class="edge"><title>Node4&#45;&gt;Node5</title>
<path fill="none" stroke="midnightblue" d="M328.952,-56.083C328.952,-49.0059 328.952,-38.8611 328.952,-29.9865"/>
<polygon fill="midnightblue" stroke="midnightblue" points="332.452,-29.751 328.952,-19.7511 325.452,-29.7511 332.452,-29.751"/>
</g>
<!-- Node8&#45;&gt;Node2 -->
<g id="edge10" class="edge"><title>Node8&#45;&gt;Node2</title>
<path fill="none" stroke="midnightblue" d="M73.952,-112.776C73.952,-91.9707 73.952,-53.1981 73.952,-29.9809"/>
<polygon fill="midnightblue" stroke="midnightblue" points="77.4521,-29.7069 73.952,-19.707 70.4521,-29.707 77.4521,-29.7069"/>
</g>
</g>
</svg>
