<?xml version="1.0" encoding="UTF-8" standalone="no"?>
<!DOCTYPE svg PUBLIC "-//W3C//DTD SVG 1.1//EN"
 "http://www.w3.org/Graphics/SVG/1.1/DTD/svg11.dtd">
<!-- Generated by graphviz version 2.36.0 (20140111.2315)
 -->
<!-- Title: /home/travis/build/AliceO2Group/AliceO2/Detectors/TOF/simulation/src/Digitizer.cxx Pages: 1 -->
<svg width="2527pt" height="458pt"
 viewBox="0.00 0.00 2527.00 458.00" xmlns="http://www.w3.org/2000/svg" xmlns:xlink="http://www.w3.org/1999/xlink">
<g id="graph0" class="graph" transform="scale(1 1) rotate(0) translate(4 454)">
<title>/home/travis/build/AliceO2Group/AliceO2/Detectors/TOF/simulation/src/Digitizer.cxx</title>
<!-- Node1 -->
<g id="node1" class="node"><title>Node1</title>
<polygon fill="#bfbfbf" stroke="black" points="2039,-397 2039,-449 2171,-449 2171,-397 2039,-397"/>
<text text-anchor="start" x="2047" y="-437" font-family="Helvetica,sans-Serif" font-size="10.00">/home/travis/build</text>
<text text-anchor="start" x="2047" y="-426" font-family="Helvetica,sans-Serif" font-size="10.00">/AliceO2Group/AliceO2</text>
<text text-anchor="start" x="2047" y="-415" font-family="Helvetica,sans-Serif" font-size="10.00">/Detectors/TOF/simulation</text>
<text text-anchor="middle" x="2105" y="-404" font-family="Helvetica,sans-Serif" font-size="10.00">/src/Digitizer.cxx</text>
</g>
<!-- Node2 -->
<g id="node2" class="node"><title>Node2</title>
<g id="a_node2"><a xlink:href="../../d0/d85/TOF_2simulation_2include_2TOFSimulation_2Digitizer_8h.html" target="_top" xlink:title="TOFSimulation/Digitizer.h">
<polygon fill="none" stroke="black" points="1491.5,-340.5 1491.5,-359.5 1620.5,-359.5 1620.5,-340.5 1491.5,-340.5"/>
<text text-anchor="middle" x="1556" y="-347.5" font-family="Helvetica,sans-Serif" font-size="10.00">TOFSimulation/Digitizer.h</text>
</a>
</g>
</g>
<!-- Node1&#45;&gt;Node2 -->
<g id="edge1" class="edge"><title>Node1&#45;&gt;Node2</title>
<path fill="none" stroke="midnightblue" d="M2038.78,-413.436C1936,-400.144 1738.73,-374.632 1630.9,-360.687"/>
<polygon fill="midnightblue" stroke="midnightblue" points="1631.12,-357.186 1620.75,-359.374 1630.22,-364.128 1631.12,-357.186"/>
</g>
<!-- Node40 -->
<g id="node40" class="node"><title>Node40</title>
<polygon fill="none" stroke="#bfbfbf" points="1822.5,-210.5 1822.5,-229.5 1871.5,-229.5 1871.5,-210.5 1822.5,-210.5"/>
<text text-anchor="middle" x="1847" y="-217.5" font-family="Helvetica,sans-Serif" font-size="10.00">cassert</text>
</g>
<!-- Node1&#45;&gt;Node40 -->
<g id="edge64" class="edge"><title>Node1&#45;&gt;Node40</title>
<path fill="none" stroke="midnightblue" d="M2038.91,-414.573C1972.67,-405.643 1877.27,-388.226 1854,-360 1825.65,-325.615 1834.52,-268.626 1841.69,-239.452"/>
<polygon fill="midnightblue" stroke="midnightblue" points="1845.09,-240.302 1844.27,-229.738 1838.32,-238.502 1845.09,-240.302"/>
</g>
<!-- Node45 -->
<g id="node45" class="node"><title>Node45</title>
<polygon fill="none" stroke="#bfbfbf" points="1863.5,-340.5 1863.5,-359.5 1928.5,-359.5 1928.5,-340.5 1863.5,-340.5"/>
<text text-anchor="middle" x="1896" y="-347.5" font-family="Helvetica,sans-Serif" font-size="10.00">TCanvas.h</text>
</g>
<!-- Node1&#45;&gt;Node45 -->
<g id="edge55" class="edge"><title>Node1&#45;&gt;Node45</title>
<path fill="none" stroke="midnightblue" d="M2038.87,-399.535C2003.03,-387.361 1960.2,-372.811 1930.84,-362.837"/>
<polygon fill="midnightblue" stroke="midnightblue" points="1931.65,-359.414 1921.05,-359.511 1929.4,-366.042 1931.65,-359.414"/>
</g>
<!-- Node46 -->
<g id="node46" class="node"><title>Node46</title>
<polygon fill="none" stroke="#bfbfbf" points="1946.5,-340.5 1946.5,-359.5 1993.5,-359.5 1993.5,-340.5 1946.5,-340.5"/>
<text text-anchor="middle" x="1970" y="-347.5" font-family="Helvetica,sans-Serif" font-size="10.00">TFile.h</text>
</g>
<!-- Node1&#45;&gt;Node46 -->
<g id="edge56" class="edge"><title>Node1&#45;&gt;Node46</title>
<path fill="none" stroke="midnightblue" d="M2057.4,-396.968C2036.52,-385.986 2012.85,-373.537 1995.41,-364.366"/>
<polygon fill="midnightblue" stroke="midnightblue" points="1996.91,-361.196 1986.43,-359.639 1993.65,-367.391 1996.91,-361.196"/>
</g>
<!-- Node47 -->
<g id="node47" class="node"><title>Node47</title>
<polygon fill="none" stroke="#bfbfbf" points="2012,-340.5 2012,-359.5 2062,-359.5 2062,-340.5 2012,-340.5"/>
<text text-anchor="middle" x="2037" y="-347.5" font-family="Helvetica,sans-Serif" font-size="10.00">TH1F.h</text>
</g>
<!-- Node1&#45;&gt;Node47 -->
<g id="edge57" class="edge"><title>Node1&#45;&gt;Node47</title>
<path fill="none" stroke="midnightblue" d="M2080.83,-396.768C2071.36,-386.881 2060.78,-375.831 2052.39,-367.066"/>
<polygon fill="midnightblue" stroke="midnightblue" points="2054.83,-364.558 2045.39,-359.757 2049.78,-369.4 2054.83,-364.558"/>
</g>
<!-- Node48 -->
<g id="node48" class="node"><title>Node48</title>
<polygon fill="none" stroke="#bfbfbf" points="2080,-340.5 2080,-359.5 2130,-359.5 2130,-340.5 2080,-340.5"/>
<text text-anchor="middle" x="2105" y="-347.5" font-family="Helvetica,sans-Serif" font-size="10.00">TH2F.h</text>
</g>
<!-- Node1&#45;&gt;Node48 -->
<g id="edge58" class="edge"><title>Node1&#45;&gt;Node48</title>
<path fill="none" stroke="midnightblue" d="M2105,-396.768C2105,-387.89 2105,-378.074 2105,-369.816"/>
<polygon fill="midnightblue" stroke="midnightblue" points="2108.5,-369.757 2105,-359.757 2101.5,-369.757 2108.5,-369.757"/>
</g>
<!-- Node49 -->
<g id="node49" class="node"><title>Node49</title>
<polygon fill="none" stroke="#bfbfbf" points="2148,-340.5 2148,-359.5 2198,-359.5 2198,-340.5 2148,-340.5"/>
<text text-anchor="middle" x="2173" y="-347.5" font-family="Helvetica,sans-Serif" font-size="10.00">TLeaf.h</text>
</g>
<!-- Node1&#45;&gt;Node49 -->
<g id="edge59" class="edge"><title>Node1&#45;&gt;Node49</title>
<path fill="none" stroke="midnightblue" d="M2129.17,-396.768C2138.64,-386.881 2149.22,-375.831 2157.61,-367.066"/>
<polygon fill="midnightblue" stroke="midnightblue" points="2160.22,-369.4 2164.61,-359.757 2155.17,-364.558 2160.22,-369.4"/>
</g>
<!-- Node50 -->
<g id="node50" class="node"><title>Node50</title>
<polygon fill="none" stroke="#bfbfbf" points="2216.5,-340.5 2216.5,-359.5 2269.5,-359.5 2269.5,-340.5 2216.5,-340.5"/>
<text text-anchor="middle" x="2243" y="-347.5" font-family="Helvetica,sans-Serif" font-size="10.00">TMath.h</text>
</g>
<!-- Node1&#45;&gt;Node50 -->
<g id="edge60" class="edge"><title>Node1&#45;&gt;Node50</title>
<path fill="none" stroke="midnightblue" d="M2153.65,-396.968C2175,-385.986 2199.2,-373.537 2217.02,-364.366"/>
<polygon fill="midnightblue" stroke="midnightblue" points="2218.92,-367.326 2226.21,-359.639 2215.72,-361.102 2218.92,-367.326"/>
</g>
<!-- Node51 -->
<g id="node51" class="node"><title>Node51</title>
<polygon fill="none" stroke="#bfbfbf" points="2287.5,-340.5 2287.5,-359.5 2358.5,-359.5 2358.5,-340.5 2287.5,-340.5"/>
<text text-anchor="middle" x="2323" y="-347.5" font-family="Helvetica,sans-Serif" font-size="10.00">TProfile2D.h</text>
</g>
<!-- Node1&#45;&gt;Node51 -->
<g id="edge61" class="edge"><title>Node1&#45;&gt;Node51</title>
<path fill="none" stroke="midnightblue" d="M2171.3,-400.408C2209.39,-388.002 2255.75,-372.904 2287.11,-362.688"/>
<polygon fill="midnightblue" stroke="midnightblue" points="2288.32,-365.977 2296.74,-359.552 2286.15,-359.321 2288.32,-365.977"/>
</g>
<!-- Node52 -->
<g id="node52" class="node"><title>Node52</title>
<polygon fill="none" stroke="#bfbfbf" points="2377,-340.5 2377,-359.5 2445,-359.5 2445,-340.5 2377,-340.5"/>
<text text-anchor="middle" x="2411" y="-347.5" font-family="Helvetica,sans-Serif" font-size="10.00">TRandom.h</text>
</g>
<!-- Node1&#45;&gt;Node52 -->
<g id="edge62" class="edge"><title>Node1&#45;&gt;Node52</title>
<path fill="none" stroke="midnightblue" d="M2171.02,-406.681C2230.32,-392.923 2315.72,-373.109 2367.04,-361.2"/>
<polygon fill="midnightblue" stroke="midnightblue" points="2367.88,-364.598 2376.83,-358.928 2366.3,-357.779 2367.88,-364.598"/>
</g>
<!-- Node53 -->
<g id="node53" class="node"><title>Node53</title>
<polygon fill="none" stroke="#bfbfbf" points="2463,-340.5 2463,-359.5 2519,-359.5 2519,-340.5 2463,-340.5"/>
<text text-anchor="middle" x="2491" y="-347.5" font-family="Helvetica,sans-Serif" font-size="10.00">algorithm</text>
</g>
<!-- Node1&#45;&gt;Node53 -->
<g id="edge63" class="edge"><title>Node1&#45;&gt;Node53</title>
<path fill="none" stroke="midnightblue" d="M2171.17,-411.516C2239.34,-400.427 2348.88,-381.814 2452.73,-360.167"/>
<polygon fill="midnightblue" stroke="midnightblue" points="2453.69,-363.541 2462.76,-358.063 2452.25,-356.69 2453.69,-363.541"/>
</g>
<!-- Node3 -->
<g id="node3" class="node"><title>Node3</title>
<g id="a_node3"><a xlink:href="../../d4/d54/Geo_8h.html" target="_top" xlink:title="TOFBase/Geo.h">
<polygon fill="none" stroke="black" points="1193,-210.5 1193,-229.5 1281,-229.5 1281,-210.5 1193,-210.5"/>
<text text-anchor="middle" x="1237" y="-217.5" font-family="Helvetica,sans-Serif" font-size="10.00">TOFBase/Geo.h</text>
</a>
</g>
</g>
<!-- Node2&#45;&gt;Node3 -->
<g id="edge2" class="edge"><title>Node2&#45;&gt;Node3</title>
<path fill="none" stroke="midnightblue" d="M1516.53,-340.432C1483.46,-332.674 1435.32,-320.018 1395,-304 1344.85,-284.079 1289.81,-252.851 1259.75,-234.919"/>
<polygon fill="midnightblue" stroke="midnightblue" points="1261.27,-231.752 1250.9,-229.595 1257.66,-237.75 1261.27,-231.752"/>
</g>
<!-- Node5 -->
<g id="node5" class="node"><title>Node5</title>
<g id="a_node5"><a xlink:href="../../df/d9c/TOF_2base_2include_2TOFBase_2Digit_8h.html" target="_top" xlink:title="TOFBase/Digit.h">
<polygon fill="none" stroke="black" points="1890,-210.5 1890,-229.5 1980,-229.5 1980,-210.5 1890,-210.5"/>
<text text-anchor="middle" x="1935" y="-217.5" font-family="Helvetica,sans-Serif" font-size="10.00">TOFBase/Digit.h</text>
</a>
</g>
</g>
<!-- Node2&#45;&gt;Node5 -->
<g id="edge4" class="edge"><title>Node2&#45;&gt;Node5</title>
<path fill="none" stroke="midnightblue" d="M1587.25,-340.461C1618.3,-331.822 1667.2,-317.807 1709,-304 1779.14,-280.832 1860.15,-250.095 1903.59,-233.281"/>
<polygon fill="midnightblue" stroke="midnightblue" points="1904.98,-236.497 1913.04,-229.616 1902.45,-229.971 1904.98,-236.497"/>
</g>
<!-- Node9 -->
<g id="node9" class="node"><title>Node9</title>
<g id="a_node9"><a xlink:href="../../d5/d3c/TOF_2simulation_2include_2TOFSimulation_2Detector_8h.html" target="_top" xlink:title="TOFSimulation/Detector.h">
<polygon fill="none" stroke="black" points="1182.5,-278.5 1182.5,-297.5 1313.5,-297.5 1313.5,-278.5 1182.5,-278.5"/>
<text text-anchor="middle" x="1248" y="-285.5" font-family="Helvetica,sans-Serif" font-size="10.00">TOFSimulation/Detector.h</text>
</a>
</g>
</g>
<!-- Node2&#45;&gt;Node9 -->
<g id="edge10" class="edge"><title>Node2&#45;&gt;Node9</title>
<path fill="none" stroke="midnightblue" d="M1512.2,-340.467C1456.78,-329.671 1361.37,-311.086 1301.64,-299.45"/>
<polygon fill="midnightblue" stroke="midnightblue" points="1302.14,-295.98 1291.65,-297.503 1300.8,-302.851 1302.14,-295.98"/>
</g>
<!-- Node38 -->
<g id="node38" class="node"><title>Node38</title>
<g id="a_node38"><a xlink:href="../../db/d14/MCTruthContainer_8h.html" target="_top" xlink:title="Definition of a container to keep Monte Carlo truth external to simulation objects. ">
<polygon fill="none" stroke="black" points="1586,-273 1586,-303 1700,-303 1700,-273 1586,-273"/>
<text text-anchor="start" x="1594" y="-291" font-family="Helvetica,sans-Serif" font-size="10.00">SimulationDataFormat</text>
<text text-anchor="middle" x="1643" y="-280" font-family="Helvetica,sans-Serif" font-size="10.00">/MCTruthContainer.h</text>
</a>
</g>
</g>
<!-- Node2&#45;&gt;Node38 -->
<g id="edge46" class="edge"><title>Node2&#45;&gt;Node38</title>
<path fill="none" stroke="midnightblue" d="M1568.46,-340.403C1580.36,-332.201 1598.71,-319.545 1614.23,-308.844"/>
<polygon fill="midnightblue" stroke="midnightblue" points="1616.25,-311.699 1622.5,-303.141 1612.28,-305.937 1616.25,-311.699"/>
</g>
<!-- Node43 -->
<g id="node43" class="node"><title>Node43</title>
<g id="a_node43"><a xlink:href="../../df/d71/MCLabel_8h.html" target="_top" xlink:title="TOFSimulation/MCLabel.h">
<polygon fill="none" stroke="black" points="1404,-278.5 1404,-297.5 1536,-297.5 1536,-278.5 1404,-278.5"/>
<text text-anchor="middle" x="1470" y="-285.5" font-family="Helvetica,sans-Serif" font-size="10.00">TOFSimulation/MCLabel.h</text>
</a>
</g>
</g>
<!-- Node2&#45;&gt;Node43 -->
<g id="edge52" class="edge"><title>Node2&#45;&gt;Node43</title>
<path fill="none" stroke="midnightblue" d="M1543.68,-340.403C1529.88,-330.78 1507.3,-315.024 1490.77,-303.489"/>
<polygon fill="midnightblue" stroke="midnightblue" points="1492.5,-300.432 1482.3,-297.581 1488.5,-306.173 1492.5,-300.432"/>
</g>
<!-- Node4 -->
<g id="node4" class="node"><title>Node4</title>
<polygon fill="none" stroke="#bfbfbf" points="1215,-74.5 1215,-93.5 1271,-93.5 1271,-74.5 1215,-74.5"/>
<text text-anchor="middle" x="1243" y="-81.5" font-family="Helvetica,sans-Serif" font-size="10.00">Rtypes.h</text>
</g>
<!-- Node3&#45;&gt;Node4 -->
<g id="edge3" class="edge"><title>Node3&#45;&gt;Node4</title>
<path fill="none" stroke="midnightblue" d="M1263.93,-210.462C1283.34,-202.736 1308.11,-189.256 1320,-168 1326.94,-155.587 1326.73,-148.529 1320,-136 1314.3,-125.391 1288.78,-109.673 1268.66,-98.4943"/>
<polygon fill="midnightblue" stroke="midnightblue" points="1270.06,-95.2732 1259.61,-93.563 1266.72,-101.42 1270.06,-95.2732"/>
</g>
<!-- Node5&#45;&gt;Node4 -->
<g id="edge8" class="edge"><title>Node5&#45;&gt;Node4</title>
<path fill="none" stroke="midnightblue" d="M1905.12,-210.45C1897,-208.236 1888.19,-205.933 1880,-204 1800.6,-185.256 1778.48,-190.296 1700,-168 1660.77,-156.855 1653.69,-145.369 1614,-136 1468.69,-101.701 1424.8,-136.398 1280,-100 1276.94,-99.2306 1273.8,-98.2604 1270.7,-97.1852"/>
<polygon fill="midnightblue" stroke="midnightblue" points="1271.7,-93.8196 1261.11,-93.5098 1269.19,-100.356 1271.7,-93.8196"/>
</g>
<!-- Node6 -->
<g id="node6" class="node"><title>Node6</title>
<g id="a_node6"><a xlink:href="../../df/d5d/common_2include_2CommonDataFormat_2TimeStamp_8h.html" target="_top" xlink:title="CommonDataFormat/TimeStamp.h">
<polygon fill="none" stroke="black" points="1435,-142.5 1435,-161.5 1605,-161.5 1605,-142.5 1435,-142.5"/>
<text text-anchor="middle" x="1520" y="-149.5" font-family="Helvetica,sans-Serif" font-size="10.00">CommonDataFormat/TimeStamp.h</text>
</a>
</g>
</g>
<!-- Node5&#45;&gt;Node6 -->
<g id="edge5" class="edge"><title>Node5&#45;&gt;Node6</title>
<path fill="none" stroke="midnightblue" d="M1906.33,-210.451C1897.9,-208.135 1888.63,-205.78 1880,-204 1827.62,-193.191 1686.83,-174.343 1597.63,-162.837"/>
<polygon fill="midnightblue" stroke="midnightblue" points="1597.92,-159.345 1587.56,-161.54 1597.03,-166.288 1597.92,-159.345"/>
</g>
<!-- Node7 -->
<g id="node7" class="node"><title>Node7</title>
<polygon fill="none" stroke="#bfbfbf" points="2409.5,-74.5 2409.5,-93.5 2454.5,-93.5 2454.5,-74.5 2409.5,-74.5"/>
<text text-anchor="middle" x="2432" y="-81.5" font-family="Helvetica,sans-Serif" font-size="10.00">iosfwd</text>
</g>
<!-- Node5&#45;&gt;Node7 -->
<g id="edge7" class="edge"><title>Node5&#45;&gt;Node7</title>
<path fill="none" stroke="midnightblue" d="M1979.75,-210.471C2063.62,-193.846 2249.6,-153.955 2400,-100 2401.91,-99.3163 2403.85,-98.5596 2405.8,-97.7601"/>
<polygon fill="midnightblue" stroke="midnightblue" points="2407.58,-100.796 2415.31,-93.5457 2404.75,-94.3959 2407.58,-100.796"/>
</g>
<!-- Node8 -->
<g id="node8" class="node"><title>Node8</title>
<polygon fill="none" stroke="#bfbfbf" points="1887.5,-137 1887.5,-167 1982.5,-167 1982.5,-137 1887.5,-137"/>
<text text-anchor="start" x="1895.5" y="-155" font-family="Helvetica,sans-Serif" font-size="10.00">boost/serialization</text>
<text text-anchor="middle" x="1935" y="-144" font-family="Helvetica,sans-Serif" font-size="10.00">/base_object.hpp</text>
</g>
<!-- Node5&#45;&gt;Node8 -->
<g id="edge9" class="edge"><title>Node5&#45;&gt;Node8</title>
<path fill="none" stroke="midnightblue" d="M1935,-210.372C1935,-201.971 1935,-188.811 1935,-177.213"/>
<polygon fill="midnightblue" stroke="midnightblue" points="1938.5,-177.181 1935,-167.181 1931.5,-177.181 1938.5,-177.181"/>
</g>
<!-- Node6&#45;&gt;Node4 -->
<g id="edge6" class="edge"><title>Node6&#45;&gt;Node4</title>
<path fill="none" stroke="midnightblue" d="M1466.88,-142.48C1417.8,-133.956 1343.13,-119.34 1280,-100 1277.36,-99.1904 1274.64,-98.2691 1271.94,-97.2905"/>
<polygon fill="midnightblue" stroke="midnightblue" points="1272.94,-93.928 1262.35,-93.5928 1270.42,-100.459 1272.94,-93.928"/>
</g>
<!-- Node9&#45;&gt;Node3 -->
<g id="edge32" class="edge"><title>Node9&#45;&gt;Node3</title>
<path fill="none" stroke="midnightblue" d="M1246.56,-278.372C1244.94,-268.643 1242.25,-252.528 1240.14,-239.85"/>
<polygon fill="midnightblue" stroke="midnightblue" points="1243.57,-239.13 1238.47,-229.841 1236.67,-240.28 1243.57,-239.13"/>
</g>
<!-- Node10 -->
<g id="node10" class="node"><title>Node10</title>
<g id="a_node10"><a xlink:href="../../d1/d3a/Base_2include_2DetectorsBase_2Detector_8h.html" target="_top" xlink:title="DetectorsBase/Detector.h">
<polygon fill="none" stroke="black" points="707.5,-210.5 707.5,-229.5 838.5,-229.5 838.5,-210.5 707.5,-210.5"/>
<text text-anchor="middle" x="773" y="-217.5" font-family="Helvetica,sans-Serif" font-size="10.00">DetectorsBase/Detector.h</text>
</a>
</g>
</g>
<!-- Node9&#45;&gt;Node10 -->
<g id="edge11" class="edge"><title>Node9&#45;&gt;Node10</title>
<path fill="none" stroke="midnightblue" d="M1186.39,-278.439C1098.56,-266.236 937.722,-243.888 844.673,-230.959"/>
<polygon fill="midnightblue" stroke="midnightblue" points="844.888,-227.455 834.502,-229.546 843.925,-234.389 844.888,-227.455"/>
</g>
<!-- Node27 -->
<g id="node27" class="node"><title>Node27</title>
<g id="a_node27"><a xlink:href="../../d4/d25/BaseHits_8h.html" target="_top" xlink:title="SimulationDataFormat\l/BaseHits.h">
<polygon fill="none" stroke="black" points="1431,-205 1431,-235 1545,-235 1545,-205 1431,-205"/>
<text text-anchor="start" x="1439" y="-223" font-family="Helvetica,sans-Serif" font-size="10.00">SimulationDataFormat</text>
<text text-anchor="middle" x="1488" y="-212" font-family="Helvetica,sans-Serif" font-size="10.00">/BaseHits.h</text>
</a>
</g>
</g>
<!-- Node9&#45;&gt;Node27 -->
<g id="edge33" class="edge"><title>Node9&#45;&gt;Node27</title>
<path fill="none" stroke="midnightblue" d="M1279.38,-278.372C1316.74,-268.096 1380.01,-250.697 1427.1,-237.748"/>
<polygon fill="midnightblue" stroke="midnightblue" points="1428.17,-241.083 1436.89,-235.056 1426.32,-234.333 1428.17,-241.083"/>
</g>
<!-- Node10&#45;&gt;Node4 -->
<g id="edge23" class="edge"><title>Node10&#45;&gt;Node4</title>
<path fill="none" stroke="midnightblue" d="M838.907,-218.675C944.38,-216.936 1145.03,-208.253 1202,-168 1223.61,-152.733 1234.38,-122.783 1239.32,-103.344"/>
<polygon fill="midnightblue" stroke="midnightblue" points="1242.74,-104.072 1241.54,-93.545 1235.91,-102.523 1242.74,-104.072"/>
</g>
<!-- Node11 -->
<g id="node11" class="node"><title>Node11</title>
<polygon fill="none" stroke="#bfbfbf" points="-0.5,-74.5 -0.5,-93.5 34.5,-93.5 34.5,-74.5 -0.5,-74.5"/>
<text text-anchor="middle" x="17" y="-81.5" font-family="Helvetica,sans-Serif" font-size="10.00">map</text>
</g>
<!-- Node10&#45;&gt;Node11 -->
<g id="edge12" class="edge"><title>Node10&#45;&gt;Node11</title>
<path fill="none" stroke="midnightblue" d="M707.45,-219.494C532.764,-220.137 66.098,-217.19 19,-168 2.83408,-151.116 6.34726,-122.315 11.0942,-103.472"/>
<polygon fill="midnightblue" stroke="midnightblue" points="14.5062,-104.27 13.8922,-93.6929 7.77626,-102.344 14.5062,-104.27"/>
</g>
<!-- Node12 -->
<g id="node12" class="node"><title>Node12</title>
<polygon fill="none" stroke="#bfbfbf" points="685,-142.5 685,-161.5 729,-161.5 729,-142.5 685,-142.5"/>
<text text-anchor="middle" x="707" y="-149.5" font-family="Helvetica,sans-Serif" font-size="10.00">vector</text>
</g>
<!-- Node10&#45;&gt;Node12 -->
<g id="edge13" class="edge"><title>Node10&#45;&gt;Node12</title>
<path fill="none" stroke="midnightblue" d="M764.372,-210.372C753.955,-199.955 736.217,-182.217 723.216,-169.216"/>
<polygon fill="midnightblue" stroke="midnightblue" points="725.387,-166.437 715.841,-161.841 720.437,-171.387 725.387,-166.437"/>
</g>
<!-- Node13 -->
<g id="node13" class="node"><title>Node13</title>
<polygon fill="none" stroke="#bfbfbf" points="588.5,-74.5 588.5,-93.5 661.5,-93.5 661.5,-74.5 588.5,-74.5"/>
<text text-anchor="middle" x="625" y="-81.5" font-family="Helvetica,sans-Serif" font-size="10.00">initializer_list</text>
</g>
<!-- Node10&#45;&gt;Node13 -->
<g id="edge14" class="edge"><title>Node10&#45;&gt;Node13</title>
<path fill="none" stroke="midnightblue" d="M838.763,-217.874C930.28,-214.07 1078.97,-198.441 1024,-136 1001.02,-109.896 772.216,-93.5369 671.816,-87.5627"/>
<polygon fill="midnightblue" stroke="midnightblue" points="671.841,-84.0582 661.654,-86.9674 671.432,-91.0463 671.841,-84.0582"/>
</g>
<!-- Node14 -->
<g id="node14" class="node"><title>Node14</title>
<polygon fill="none" stroke="#bfbfbf" points="747,-142.5 747,-161.5 799,-161.5 799,-142.5 747,-142.5"/>
<text text-anchor="middle" x="773" y="-149.5" font-family="Helvetica,sans-Serif" font-size="10.00">memory</text>
</g>
<!-- Node10&#45;&gt;Node14 -->
<g id="edge15" class="edge"><title>Node10&#45;&gt;Node14</title>
<path fill="none" stroke="midnightblue" d="M773,-210.372C773,-200.643 773,-184.528 773,-171.85"/>
<polygon fill="midnightblue" stroke="midnightblue" points="776.5,-171.841 773,-161.841 769.5,-171.841 776.5,-171.841"/>
</g>
<!-- Node15 -->
<g id="node15" class="node"><title>Node15</title>
<polygon fill="none" stroke="#bfbfbf" points="817.5,-142.5 817.5,-161.5 896.5,-161.5 896.5,-142.5 817.5,-142.5"/>
<text text-anchor="middle" x="857" y="-149.5" font-family="Helvetica,sans-Serif" font-size="10.00">FairDetector.h</text>
</g>
<!-- Node10&#45;&gt;Node15 -->
<g id="edge16" class="edge"><title>Node10&#45;&gt;Node15</title>
<path fill="none" stroke="midnightblue" d="M783.982,-210.372C797.69,-199.6 821.361,-181.002 838.028,-167.906"/>
<polygon fill="midnightblue" stroke="midnightblue" points="840.315,-170.561 846.016,-161.63 835.99,-165.057 840.315,-170.561"/>
</g>
<!-- Node16 -->
<g id="node16" class="node"><title>Node16</title>
<polygon fill="none" stroke="#bfbfbf" points="915,-142.5 915,-161.5 1015,-161.5 1015,-142.5 915,-142.5"/>
<text text-anchor="middle" x="965" y="-149.5" font-family="Helvetica,sans-Serif" font-size="10.00">FairRootManager.h</text>
</g>
<!-- Node10&#45;&gt;Node16 -->
<g id="edge17" class="edge"><title>Node10&#45;&gt;Node16</title>
<path fill="none" stroke="midnightblue" d="M798.101,-210.372C831.972,-198.728 892.449,-177.939 930.553,-164.841"/>
<polygon fill="midnightblue" stroke="midnightblue" points="931.878,-168.087 940.197,-161.526 929.603,-161.467 931.878,-168.087"/>
</g>
<!-- Node17 -->
<g id="node17" class="node"><title>Node17</title>
<g id="a_node17"><a xlink:href="../../d0/d9a/MaterialManager_8h.html" target="_top" xlink:title="DetectorsBase/MaterialManager.h">
<polygon fill="none" stroke="black" points="28.5,-142.5 28.5,-161.5 193.5,-161.5 193.5,-142.5 28.5,-142.5"/>
<text text-anchor="middle" x="111" y="-149.5" font-family="Helvetica,sans-Serif" font-size="10.00">DetectorsBase/MaterialManager.h</text>
</a>
</g>
</g>
<!-- Node10&#45;&gt;Node17 -->
<g id="edge18" class="edge"><title>Node10&#45;&gt;Node17</title>
<path fill="none" stroke="midnightblue" d="M707.318,-214.727C600.927,-207.447 384.413,-191.148 202,-168 191.176,-166.626 179.667,-164.921 168.605,-163.159"/>
<polygon fill="midnightblue" stroke="midnightblue" points="169.035,-159.683 158.603,-161.531 167.911,-166.592 169.035,-159.683"/>
</g>
<!-- Node19 -->
<g id="node19" class="node"><title>Node19</title>
<polygon fill="none" stroke="#bfbfbf" points="1071.5,-142.5 1071.5,-161.5 1124.5,-161.5 1124.5,-142.5 1071.5,-142.5"/>
<text text-anchor="middle" x="1098" y="-149.5" font-family="Helvetica,sans-Serif" font-size="10.00">cxxabi.h</text>
</g>
<!-- Node10&#45;&gt;Node19 -->
<g id="edge24" class="edge"><title>Node10&#45;&gt;Node19</title>
<path fill="none" stroke="midnightblue" d="M838.567,-210.515C896.591,-202.229 983.257,-187.95 1057,-168 1060.22,-167.129 1063.54,-166.114 1066.84,-165.031"/>
<polygon fill="midnightblue" stroke="midnightblue" points="1068.23,-168.252 1076.52,-161.651 1065.93,-161.643 1068.23,-168.252"/>
</g>
<!-- Node20 -->
<g id="node20" class="node"><title>Node20</title>
<polygon fill="none" stroke="#bfbfbf" points="1142.5,-142.5 1142.5,-161.5 1193.5,-161.5 1193.5,-142.5 1142.5,-142.5"/>
<text text-anchor="middle" x="1168" y="-149.5" font-family="Helvetica,sans-Serif" font-size="10.00">typeinfo</text>
</g>
<!-- Node10&#45;&gt;Node20 -->
<g id="edge25" class="edge"><title>Node10&#45;&gt;Node20</title>
<path fill="none" stroke="midnightblue" d="M838.773,-214.913C911.774,-209.177 1032.55,-196.106 1133,-168 1135.65,-167.257 1138.37,-166.359 1141.06,-165.375"/>
<polygon fill="midnightblue" stroke="midnightblue" points="1142.56,-168.547 1150.52,-161.563 1139.94,-162.054 1142.56,-168.547"/>
</g>
<!-- Node21 -->
<g id="node21" class="node"><title>Node21</title>
<polygon fill="none" stroke="#bfbfbf" points="1250,-142.5 1250,-161.5 1312,-161.5 1312,-142.5 1250,-142.5"/>
<text text-anchor="middle" x="1281" y="-149.5" font-family="Helvetica,sans-Serif" font-size="10.00">type_traits</text>
</g>
<!-- Node10&#45;&gt;Node21 -->
<g id="edge26" class="edge"><title>Node10&#45;&gt;Node21</title>
<path fill="none" stroke="midnightblue" d="M838.884,-216.139C929.32,-211.219 1096.58,-198.553 1236,-168 1240.16,-167.088 1244.48,-165.931 1248.72,-164.667"/>
<polygon fill="midnightblue" stroke="midnightblue" points="1249.91,-167.962 1258.37,-161.584 1247.78,-161.294 1249.91,-167.962"/>
</g>
<!-- Node22 -->
<g id="node22" class="node"><title>Node22</title>
<polygon fill="none" stroke="#bfbfbf" points="211.5,-142.5 211.5,-161.5 252.5,-161.5 252.5,-142.5 211.5,-142.5"/>
<text text-anchor="middle" x="232" y="-149.5" font-family="Helvetica,sans-Serif" font-size="10.00">string</text>
</g>
<!-- Node10&#45;&gt;Node22 -->
<g id="edge27" class="edge"><title>Node10&#45;&gt;Node22</title>
<path fill="none" stroke="midnightblue" d="M707.489,-215.55C588.823,-208.793 343.002,-192.32 261,-168 259.084,-167.432 257.146,-166.736 255.229,-165.958"/>
<polygon fill="midnightblue" stroke="midnightblue" points="256.541,-162.707 246.005,-161.598 253.55,-169.036 256.541,-162.707"/>
</g>
<!-- Node23 -->
<g id="node23" class="node"><title>Node23</title>
<polygon fill="none" stroke="#bfbfbf" points="270.5,-142.5 270.5,-161.5 363.5,-161.5 363.5,-142.5 270.5,-142.5"/>
<text text-anchor="middle" x="317" y="-149.5" font-family="Helvetica,sans-Serif" font-size="10.00">FairMQChannel.h</text>
</g>
<!-- Node10&#45;&gt;Node23 -->
<g id="edge28" class="edge"><title>Node10&#45;&gt;Node23</title>
<path fill="none" stroke="midnightblue" d="M707.257,-213.482C627.449,-206.13 489.011,-191.278 372,-168 366.54,-166.914 360.824,-165.581 355.228,-164.162"/>
<polygon fill="midnightblue" stroke="midnightblue" points="355.929,-160.727 345.366,-161.549 354.136,-167.493 355.929,-160.727"/>
</g>
<!-- Node24 -->
<g id="node24" class="node"><title>Node24</title>
<polygon fill="none" stroke="#bfbfbf" points="381.5,-142.5 381.5,-161.5 478.5,-161.5 478.5,-142.5 381.5,-142.5"/>
<text text-anchor="middle" x="430" y="-149.5" font-family="Helvetica,sans-Serif" font-size="10.00">FairMQMessage.h</text>
</g>
<!-- Node10&#45;&gt;Node24 -->
<g id="edge29" class="edge"><title>Node10&#45;&gt;Node24</title>
<path fill="none" stroke="midnightblue" d="M718.386,-210.493C660.838,-201.234 567.676,-185.406 488,-168 482.538,-166.807 476.813,-165.454 471.176,-164.06"/>
<polygon fill="midnightblue" stroke="midnightblue" points="471.754,-160.596 461.201,-161.533 470.035,-167.381 471.754,-160.596"/>
</g>
<!-- Node25 -->
<g id="node25" class="node"><title>Node25</title>
<polygon fill="none" stroke="#bfbfbf" points="497,-142.5 497,-161.5 577,-161.5 577,-142.5 497,-142.5"/>
<text text-anchor="middle" x="537" y="-149.5" font-family="Helvetica,sans-Serif" font-size="10.00">FairMQParts.h</text>
</g>
<!-- Node10&#45;&gt;Node25 -->
<g id="edge30" class="edge"><title>Node10&#45;&gt;Node25</title>
<path fill="none" stroke="midnightblue" d="M740.484,-210.457C703.113,-200.564 639.983,-183.62 586,-168 582.168,-166.891 578.174,-165.71 574.194,-164.517"/>
<polygon fill="midnightblue" stroke="midnightblue" points="575.011,-161.108 564.426,-161.559 572.982,-167.807 575.011,-161.108"/>
</g>
<!-- Node26 -->
<g id="node26" class="node"><title>Node26</title>
<polygon fill="none" stroke="#bfbfbf" points="595.5,-142.5 595.5,-161.5 666.5,-161.5 666.5,-142.5 595.5,-142.5"/>
<text text-anchor="middle" x="631" y="-149.5" font-family="Helvetica,sans-Serif" font-size="10.00">TMessage.h</text>
</g>
<!-- Node10&#45;&gt;Node26 -->
<g id="edge31" class="edge"><title>Node10&#45;&gt;Node26</title>
<path fill="none" stroke="midnightblue" d="M754.436,-210.372C730.092,-199.057 687.166,-179.105 658.901,-165.968"/>
<polygon fill="midnightblue" stroke="midnightblue" points="660.112,-162.671 649.569,-161.63 657.162,-169.019 660.112,-162.671"/>
</g>
<!-- Node17&#45;&gt;Node4 -->
<g id="edge19" class="edge"><title>Node17&#45;&gt;Node4</title>
<path fill="none" stroke="midnightblue" d="M156.223,-142.498C170.789,-140.041 187.034,-137.595 202,-136 591.782,-94.4649 1067.33,-86.7049 1204.37,-85.3005"/>
<polygon fill="midnightblue" stroke="midnightblue" points="1204.79,-88.7968 1214.75,-85.1999 1204.72,-81.7971 1204.79,-88.7968"/>
</g>
<!-- Node17&#45;&gt;Node11 -->
<g id="edge20" class="edge"><title>Node17&#45;&gt;Node11</title>
<path fill="none" stroke="midnightblue" d="M98.7111,-142.372C83.2295,-131.502 56.3949,-112.66 37.7191,-99.5474"/>
<polygon fill="midnightblue" stroke="midnightblue" points="39.4872,-96.5124 29.2919,-93.6305 35.4648,-102.241 39.4872,-96.5124"/>
</g>
<!-- Node17&#45;&gt;Node13 -->
<g id="edge22" class="edge"><title>Node17&#45;&gt;Node13</title>
<path fill="none" stroke="midnightblue" d="M160.53,-142.435C173.968,-140.221 188.526,-137.922 202,-136 338.484,-116.533 500.449,-98.3788 578.447,-89.9446"/>
<polygon fill="midnightblue" stroke="midnightblue" points="578.868,-93.4196 588.435,-88.8681 578.118,-86.4599 578.868,-93.4196"/>
</g>
<!-- Node18 -->
<g id="node18" class="node"><title>Node18</title>
<polygon fill="none" stroke="#bfbfbf" points="69.5,-74.5 69.5,-93.5 152.5,-93.5 152.5,-74.5 69.5,-74.5"/>
<text text-anchor="middle" x="111" y="-81.5" font-family="Helvetica,sans-Serif" font-size="10.00">unordered_map</text>
</g>
<!-- Node17&#45;&gt;Node18 -->
<g id="edge21" class="edge"><title>Node17&#45;&gt;Node18</title>
<path fill="none" stroke="midnightblue" d="M111,-142.372C111,-132.643 111,-116.528 111,-103.85"/>
<polygon fill="midnightblue" stroke="midnightblue" points="114.5,-103.841 111,-93.8411 107.5,-103.841 114.5,-103.841"/>
</g>
<!-- Node28 -->
<g id="node28" class="node"><title>Node28</title>
<g id="a_node28"><a xlink:href="../../dd/d76/Cartesian3D_8h.html" target="_top" xlink:title="MathUtils/Cartesian3D.h">
<polygon fill="none" stroke="black" points="1709.5,-142.5 1709.5,-161.5 1834.5,-161.5 1834.5,-142.5 1709.5,-142.5"/>
<text text-anchor="middle" x="1772" y="-149.5" font-family="Helvetica,sans-Serif" font-size="10.00">MathUtils/Cartesian3D.h</text>
</a>
</g>
</g>
<!-- Node27&#45;&gt;Node28 -->
<g id="edge34" class="edge"><title>Node27&#45;&gt;Node28</title>
<path fill="none" stroke="midnightblue" d="M1545.13,-205.723C1598.17,-193.398 1676.16,-175.273 1725.49,-163.808"/>
<polygon fill="midnightblue" stroke="midnightblue" points="1726.31,-167.211 1735.26,-161.538 1724.73,-160.392 1726.31,-167.211"/>
</g>
<!-- Node28&#45;&gt;Node4 -->
<g id="edge40" class="edge"><title>Node28&#45;&gt;Node4</title>
<path fill="none" stroke="midnightblue" d="M1723.34,-142.494C1709.08,-140.18 1693.44,-137.814 1679,-136 1502.33,-113.81 1453.05,-141.903 1280,-100 1276.93,-99.2573 1273.79,-98.3042 1270.69,-97.2392"/>
<polygon fill="midnightblue" stroke="midnightblue" points="1271.68,-93.8729 1261.09,-93.5759 1269.18,-100.413 1271.68,-93.8729"/>
</g>
<!-- Node28&#45;&gt;Node7 -->
<g id="edge42" class="edge"><title>Node28&#45;&gt;Node7</title>
<path fill="none" stroke="midnightblue" d="M1826.92,-142.464C1843.32,-140.121 1861.36,-137.748 1878,-136 2109.28,-111.693 2174.89,-158.344 2400,-100 2402.49,-99.3535 2405.03,-98.5153 2407.53,-97.5659"/>
<polygon fill="midnightblue" stroke="midnightblue" points="2409.04,-100.727 2416.81,-93.5221 2406.24,-94.31 2409.04,-100.727"/>
</g>
<!-- Node29 -->
<g id="node29" class="node"><title>Node29</title>
<polygon fill="none" stroke="#bfbfbf" points="1704.5,-69 1704.5,-99 1855.5,-99 1855.5,-69 1704.5,-69"/>
<text text-anchor="start" x="1712.5" y="-87" font-family="Helvetica,sans-Serif" font-size="10.00">Math/GenVector/Displacement</text>
<text text-anchor="middle" x="1780" y="-76" font-family="Helvetica,sans-Serif" font-size="10.00">Vector3D.h</text>
</g>
<!-- Node28&#45;&gt;Node29 -->
<g id="edge35" class="edge"><title>Node28&#45;&gt;Node29</title>
<path fill="none" stroke="midnightblue" d="M1773.05,-142.372C1774.06,-133.971 1775.66,-120.811 1777.07,-109.213"/>
<polygon fill="midnightblue" stroke="midnightblue" points="1780.55,-109.53 1778.28,-99.1815 1773.6,-108.688 1780.55,-109.53"/>
</g>
<!-- Node30 -->
<g id="node30" class="node"><title>Node30</title>
<polygon fill="none" stroke="#bfbfbf" points="1874,-74.5 1874,-93.5 2050,-93.5 2050,-74.5 1874,-74.5"/>
<text text-anchor="middle" x="1962" y="-81.5" font-family="Helvetica,sans-Serif" font-size="10.00">Math/GenVector/PositionVector3D.h</text>
</g>
<!-- Node28&#45;&gt;Node30 -->
<g id="edge36" class="edge"><title>Node28&#45;&gt;Node30</title>
<path fill="none" stroke="midnightblue" d="M1796.84,-142.372C1830.36,-130.728 1890.2,-109.939 1927.91,-96.8411"/>
<polygon fill="midnightblue" stroke="midnightblue" points="1929.16,-100.114 1937.46,-93.5259 1926.86,-93.5011 1929.16,-100.114"/>
</g>
<!-- Node31 -->
<g id="node31" class="node"><title>Node31</title>
<polygon fill="none" stroke="#bfbfbf" points="2067.5,-74.5 2067.5,-93.5 2216.5,-93.5 2216.5,-74.5 2067.5,-74.5"/>
<text text-anchor="middle" x="2142" y="-81.5" font-family="Helvetica,sans-Serif" font-size="10.00">Math/GenVector/Rotation3D.h</text>
</g>
<!-- Node28&#45;&gt;Node31 -->
<g id="edge37" class="edge"><title>Node28&#45;&gt;Node31</title>
<path fill="none" stroke="midnightblue" d="M1819.82,-142.476C1876.62,-132.352 1974.21,-114.952 2058,-100 2066.39,-98.5036 2075.24,-96.9227 2083.93,-95.3707"/>
<polygon fill="midnightblue" stroke="midnightblue" points="2084.8,-98.7722 2094.03,-93.5689 2083.57,-91.8812 2084.8,-98.7722"/>
</g>
<!-- Node32 -->
<g id="node32" class="node"><title>Node32</title>
<polygon fill="none" stroke="#bfbfbf" points="2235,-74.5 2235,-93.5 2391,-93.5 2391,-74.5 2235,-74.5"/>
<text text-anchor="middle" x="2313" y="-81.5" font-family="Helvetica,sans-Serif" font-size="10.00">Math/GenVector/Transform3D.h</text>
</g>
<!-- Node28&#45;&gt;Node32 -->
<g id="edge38" class="edge"><title>Node28&#45;&gt;Node32</title>
<path fill="none" stroke="midnightblue" d="M1829.44,-142.475C1845.17,-140.249 1862.23,-137.934 1878,-136 2031.9,-117.134 2071.38,-121.038 2225,-100 2235.24,-98.5977 2246.12,-96.908 2256.6,-95.176"/>
<polygon fill="midnightblue" stroke="midnightblue" points="2257.22,-98.6209 2266.5,-93.5103 2256.06,-91.7179 2257.22,-98.6209"/>
</g>
<!-- Node33 -->
<g id="node33" class="node"><title>Node33</title>
<polygon fill="none" stroke="#bfbfbf" points="1289,-74.5 1289,-93.5 1449,-93.5 1449,-74.5 1289,-74.5"/>
<text text-anchor="middle" x="1369" y="-81.5" font-family="Helvetica,sans-Serif" font-size="10.00">Math/GenVector/Translation3D.h</text>
</g>
<!-- Node28&#45;&gt;Node33 -->
<g id="edge39" class="edge"><title>Node28&#45;&gt;Node33</title>
<path fill="none" stroke="midnightblue" d="M1719.32,-142.483C1643.48,-130.215 1507.24,-108.149 1458,-100 1448.71,-98.4621 1438.87,-96.8193 1429.26,-95.2057"/>
<polygon fill="midnightblue" stroke="midnightblue" points="1429.8,-91.7472 1419.35,-93.5403 1428.63,-98.6503 1429.8,-91.7472"/>
</g>
<!-- Node34 -->
<g id="node34" class="node"><title>Node34</title>
<polygon fill="none" stroke="#bfbfbf" points="1467,-74.5 1467,-93.5 1543,-93.5 1543,-74.5 1467,-74.5"/>
<text text-anchor="middle" x="1505" y="-81.5" font-family="Helvetica,sans-Serif" font-size="10.00">TGeoMatrix.h</text>
</g>
<!-- Node28&#45;&gt;Node34 -->
<g id="edge41" class="edge"><title>Node28&#45;&gt;Node34</title>
<path fill="none" stroke="midnightblue" d="M1730.8,-142.494C1686.41,-133.086 1613.81,-116.997 1552,-100 1548.21,-98.9567 1544.26,-97.8049 1540.34,-96.617"/>
<polygon fill="midnightblue" stroke="midnightblue" points="1541.33,-93.2608 1530.75,-93.6313 1539.25,-99.9446 1541.33,-93.2608"/>
</g>
<!-- Node35 -->
<g id="node35" class="node"><title>Node35</title>
<g id="a_node35"><a xlink:href="../../d2/dd0/Cartesian2D_8h.html" target="_top" xlink:title="MathUtils/Cartesian2D.h">
<polygon fill="none" stroke="black" points="1561.5,-74.5 1561.5,-93.5 1686.5,-93.5 1686.5,-74.5 1561.5,-74.5"/>
<text text-anchor="middle" x="1624" y="-81.5" font-family="Helvetica,sans-Serif" font-size="10.00">MathUtils/Cartesian2D.h</text>
</a>
</g>
</g>
<!-- Node28&#45;&gt;Node35 -->
<g id="edge43" class="edge"><title>Node28&#45;&gt;Node35</title>
<path fill="none" stroke="midnightblue" d="M1752.65,-142.372C1727.17,-131.007 1682.15,-110.931 1652.69,-97.7961"/>
<polygon fill="midnightblue" stroke="midnightblue" points="1653.91,-94.5068 1643.35,-93.6305 1651.06,-100.9 1653.91,-94.5068"/>
</g>
<!-- Node36 -->
<g id="node36" class="node"><title>Node36</title>
<polygon fill="none" stroke="#bfbfbf" points="1457.5,-1 1457.5,-31 1608.5,-31 1608.5,-1 1457.5,-1"/>
<text text-anchor="start" x="1465.5" y="-19" font-family="Helvetica,sans-Serif" font-size="10.00">Math/GenVector/Displacement</text>
<text text-anchor="middle" x="1533" y="-8" font-family="Helvetica,sans-Serif" font-size="10.00">Vector2D.h</text>
</g>
<!-- Node35&#45;&gt;Node36 -->
<g id="edge44" class="edge"><title>Node35&#45;&gt;Node36</title>
<path fill="none" stroke="midnightblue" d="M1612.1,-74.3717C1599.22,-65.0286 1578.22,-49.7966 1561.09,-37.375"/>
<polygon fill="midnightblue" stroke="midnightblue" points="1562.7,-34.2194 1552.55,-31.1815 1558.59,-39.8859 1562.7,-34.2194"/>
</g>
<!-- Node37 -->
<g id="node37" class="node"><title>Node37</title>
<polygon fill="none" stroke="#bfbfbf" points="1627,-6.5 1627,-25.5 1803,-25.5 1803,-6.5 1627,-6.5"/>
<text text-anchor="middle" x="1715" y="-13.5" font-family="Helvetica,sans-Serif" font-size="10.00">Math/GenVector/PositionVector2D.h</text>
</g>
<!-- Node35&#45;&gt;Node37 -->
<g id="edge45" class="edge"><title>Node35&#45;&gt;Node37</title>
<path fill="none" stroke="midnightblue" d="M1635.9,-74.3717C1650.88,-63.5015 1676.86,-44.6602 1694.94,-31.5474"/>
<polygon fill="midnightblue" stroke="midnightblue" points="1697.06,-34.3349 1703.1,-25.6305 1692.95,-28.6684 1697.06,-34.3349"/>
</g>
<!-- Node38&#45;&gt;Node21 -->
<g id="edge51" class="edge"><title>Node38&#45;&gt;Node21</title>
<path fill="none" stroke="midnightblue" d="M1628.64,-272.77C1605.78,-250.237 1562.77,-208.428 1554,-204 1513.96,-183.783 1387.93,-166.015 1322.04,-157.814"/>
<polygon fill="midnightblue" stroke="midnightblue" points="1322.36,-154.327 1312.01,-156.581 1321.51,-161.275 1322.36,-154.327"/>
</g>
<!-- Node39 -->
<g id="node39" class="node"><title>Node39</title>
<polygon fill="none" stroke="#bfbfbf" points="1742,-210.5 1742,-229.5 1804,-229.5 1804,-210.5 1742,-210.5"/>
<text text-anchor="middle" x="1773" y="-217.5" font-family="Helvetica,sans-Serif" font-size="10.00">TNamed.h</text>
</g>
<!-- Node38&#45;&gt;Node39 -->
<g id="edge47" class="edge"><title>Node38&#45;&gt;Node39</title>
<path fill="none" stroke="midnightblue" d="M1670.89,-272.841C1693.37,-261.425 1724.77,-245.485 1746.8,-234.303"/>
<polygon fill="midnightblue" stroke="midnightblue" points="1748.57,-237.33 1755.9,-229.682 1745.4,-231.088 1748.57,-237.33"/>
</g>
<!-- Node38&#45;&gt;Node40 -->
<g id="edge48" class="edge"><title>Node38&#45;&gt;Node40</title>
<path fill="none" stroke="midnightblue" d="M1694.89,-272.966C1728.58,-263.457 1773.26,-250.095 1812,-236 1814.12,-235.229 1816.3,-234.396 1818.48,-233.533"/>
<polygon fill="midnightblue" stroke="midnightblue" points="1819.99,-236.695 1827.9,-229.643 1817.32,-230.224 1819.99,-236.695"/>
</g>
<!-- Node41 -->
<g id="node41" class="node"><title>Node41</title>
<polygon fill="none" stroke="#bfbfbf" points="1601.5,-210.5 1601.5,-229.5 1660.5,-229.5 1660.5,-210.5 1601.5,-210.5"/>
<text text-anchor="middle" x="1631" y="-217.5" font-family="Helvetica,sans-Serif" font-size="10.00">stdexcept</text>
</g>
<!-- Node38&#45;&gt;Node41 -->
<g id="edge49" class="edge"><title>Node38&#45;&gt;Node41</title>
<path fill="none" stroke="midnightblue" d="M1640.4,-272.679C1638.65,-263.101 1636.34,-250.394 1634.45,-239.977"/>
<polygon fill="midnightblue" stroke="midnightblue" points="1637.84,-239.041 1632.61,-229.828 1630.95,-240.293 1637.84,-239.041"/>
</g>
<!-- Node42 -->
<g id="node42" class="node"><title>Node42</title>
<polygon fill="none" stroke="#bfbfbf" points="1678.5,-210.5 1678.5,-229.5 1723.5,-229.5 1723.5,-210.5 1678.5,-210.5"/>
<text text-anchor="middle" x="1701" y="-217.5" font-family="Helvetica,sans-Serif" font-size="10.00">gsl/gsl</text>
</g>
<!-- Node38&#45;&gt;Node42 -->
<g id="edge50" class="edge"><title>Node38&#45;&gt;Node42</title>
<path fill="none" stroke="midnightblue" d="M1655.59,-272.679C1664.72,-262.286 1677.09,-248.208 1686.61,-237.37"/>
<polygon fill="midnightblue" stroke="midnightblue" points="1689.27,-239.65 1693.24,-229.828 1684.01,-235.03 1689.27,-239.65"/>
</g>
<!-- Node44 -->
<g id="node44" class="node"><title>Node44</title>
<g id="a_node44"><a xlink:href="../../d7/dcd/MCCompLabel_8h.html" target="_top" xlink:title="SimulationDataFormat\l/MCCompLabel.h">
<polygon fill="none" stroke="black" points="1299,-205 1299,-235 1413,-235 1413,-205 1299,-205"/>
<text text-anchor="start" x="1307" y="-223" font-family="Helvetica,sans-Serif" font-size="10.00">SimulationDataFormat</text>
<text text-anchor="middle" x="1356" y="-212" font-family="Helvetica,sans-Serif" font-size="10.00">/MCCompLabel.h</text>
</a>
</g>
</g>
<!-- Node43&#45;&gt;Node44 -->
<g id="edge53" class="edge"><title>Node43&#45;&gt;Node44</title>
<path fill="none" stroke="midnightblue" d="M1455.1,-278.372C1438.51,-268.771 1411.19,-252.954 1389.43,-240.356"/>
<polygon fill="midnightblue" stroke="midnightblue" points="1390.9,-237.163 1380.5,-235.181 1387.4,-243.221 1390.9,-237.163"/>
</g>
<!-- Node44&#45;&gt;Node4 -->
<g id="edge54" class="edge"><title>Node44&#45;&gt;Node4</title>
<path fill="none" stroke="midnightblue" d="M1356.18,-204.906C1355.7,-187.112 1352.46,-156.369 1337,-136 1328.43,-124.708 1296.63,-108.737 1272.36,-97.6897"/>
<polygon fill="midnightblue" stroke="midnightblue" points="1273.73,-94.4664 1263.17,-93.5729 1270.87,-100.855 1273.73,-94.4664"/>
</g>
</g>
</svg>
