<?xml version="1.0" encoding="UTF-8" standalone="no"?>
<!DOCTYPE svg PUBLIC "-//W3C//DTD SVG 1.1//EN"
 "http://www.w3.org/Graphics/SVG/1.1/DTD/svg11.dtd">
<!-- Generated by graphviz version 2.36.0 (20140111.2315)
 -->
<!-- Title: /home/travis/build/AliceO2Group/AliceO2/Detectors/ITSMFT/MFT/reconstruction/include/MFTReconstruction/ClustererTask.h Pages: 1 -->
<svg width="1935pt" height="548pt"
 viewBox="0.00 0.00 1935.00 548.00" xmlns="http://www.w3.org/2000/svg" xmlns:xlink="http://www.w3.org/1999/xlink">
<g id="graph0" class="graph" transform="scale(1 1) rotate(0) translate(4 544)">
<title>/home/travis/build/AliceO2Group/AliceO2/Detectors/ITSMFT/MFT/reconstruction/include/MFTReconstruction/ClustererTask.h</title>
<!-- Node1 -->
<g id="node1" class="node"><title>Node1</title>
<polygon fill="#bfbfbf" stroke="black" points="290.5,-476.5 290.5,-539.5 469.5,-539.5 469.5,-476.5 290.5,-476.5"/>
<text text-anchor="start" x="298.5" y="-527.5" font-family="Helvetica,sans-Serif" font-size="10.00">/home/travis/build</text>
<text text-anchor="start" x="298.5" y="-516.5" font-family="Helvetica,sans-Serif" font-size="10.00">/AliceO2Group/AliceO2</text>
<text text-anchor="start" x="298.5" y="-505.5" font-family="Helvetica,sans-Serif" font-size="10.00">/Detectors/ITSMFT/MFT</text>
<text text-anchor="start" x="298.5" y="-494.5" font-family="Helvetica,sans-Serif" font-size="10.00">/reconstruction/include</text>
<text text-anchor="middle" x="380" y="-483.5" font-family="Helvetica,sans-Serif" font-size="10.00">/MFTReconstruction/ClustererTask.h</text>
</g>
<!-- Node2 -->
<g id="node2" class="node"><title>Node2</title>
<polygon fill="none" stroke="#bfbfbf" points="89.5,-414.5 89.5,-433.5 152.5,-433.5 152.5,-414.5 89.5,-414.5"/>
<text text-anchor="middle" x="121" y="-421.5" font-family="Helvetica,sans-Serif" font-size="10.00">FairTask.h</text>
</g>
<!-- Node1&#45;&gt;Node2 -->
<g id="edge1" class="edge"><title>Node1&#45;&gt;Node2</title>
<path fill="none" stroke="midnightblue" d="M290.361,-480.942C250.559,-469.021 203.254,-454.371 161,-440 158.391,-439.113 155.697,-438.167 152.997,-437.198"/>
<polygon fill="midnightblue" stroke="midnightblue" points="153.931,-433.813 143.337,-433.655 151.52,-440.385 153.931,-433.813"/>
</g>
<!-- Node3 -->
<g id="node3" class="node"><title>Node3</title>
<polygon fill="none" stroke="#bfbfbf" points="170.5,-414.5 170.5,-433.5 307.5,-433.5 307.5,-414.5 170.5,-414.5"/>
<text text-anchor="middle" x="239" y="-421.5" font-family="Helvetica,sans-Serif" font-size="10.00">MFTBase/GeometryTGeo.h</text>
</g>
<!-- Node1&#45;&gt;Node3 -->
<g id="edge2" class="edge"><title>Node1&#45;&gt;Node3</title>
<path fill="none" stroke="midnightblue" d="M327.497,-476.466C305.299,-463.557 280.551,-449.165 262.883,-438.889"/>
<polygon fill="midnightblue" stroke="midnightblue" points="264.26,-435.642 253.856,-433.64 260.741,-441.693 264.26,-435.642"/>
</g>
<!-- Node4 -->
<g id="node4" class="node"><title>Node4</title>
<g id="a_node4"><a xlink:href="../../df/d2e/PixelReader_8h.html" target="_top" xlink:title="Definition of the ITS pixel reader. ">
<polygon fill="none" stroke="black" points="148.5,-341 148.5,-371 267.5,-371 267.5,-341 148.5,-341"/>
<text text-anchor="start" x="156.5" y="-359" font-family="Helvetica,sans-Serif" font-size="10.00">ITSMFTReconstruction</text>
<text text-anchor="middle" x="208" y="-348" font-family="Helvetica,sans-Serif" font-size="10.00">/PixelReader.h</text>
</a>
</g>
</g>
<!-- Node1&#45;&gt;Node4 -->
<g id="edge3" class="edge"><title>Node1&#45;&gt;Node4</title>
<path fill="none" stroke="midnightblue" d="M365.767,-476.065C354.679,-454.711 337.559,-426.873 316,-408 299.983,-393.979 279.446,-383.003 260.588,-374.883"/>
<polygon fill="midnightblue" stroke="midnightblue" points="261.783,-371.59 251.204,-371.011 259.113,-378.061 261.783,-371.59"/>
</g>
<!-- Node11 -->
<g id="node11" class="node"><title>Node11</title>
<g id="a_node11"><a xlink:href="../../d7/dcd/MCCompLabel_8h.html" target="_top" xlink:title="SimulationDataFormat\l/MCCompLabel.h">
<polygon fill="none" stroke="black" points="597,-273 597,-303 711,-303 711,-273 597,-273"/>
<text text-anchor="start" x="605" y="-291" font-family="Helvetica,sans-Serif" font-size="10.00">SimulationDataFormat</text>
<text text-anchor="middle" x="654" y="-280" font-family="Helvetica,sans-Serif" font-size="10.00">/MCCompLabel.h</text>
</a>
</g>
</g>
<!-- Node1&#45;&gt;Node11 -->
<g id="edge69" class="edge"><title>Node1&#45;&gt;Node11</title>
<path fill="none" stroke="midnightblue" d="M469.514,-492.561C538.71,-476.189 630.036,-442.025 675,-372 686.587,-353.954 678.443,-329.885 669.128,-312.314"/>
<polygon fill="midnightblue" stroke="midnightblue" points="671.966,-310.229 663.95,-303.301 665.896,-313.716 671.966,-310.229"/>
</g>
<!-- Node12 -->
<g id="node12" class="node"><title>Node12</title>
<g id="a_node12"><a xlink:href="../../d6/d04/ITSMFT_2common_2reconstruction_2include_2ITSMFTReconstruction_2Clusterer_8h.html" target="_top" xlink:title="ITSMFTReconstruction\l/Clusterer.h">
<polygon fill="none" stroke="black" points="364.5,-409 364.5,-439 483.5,-439 483.5,-409 364.5,-409"/>
<text text-anchor="start" x="372.5" y="-427" font-family="Helvetica,sans-Serif" font-size="10.00">ITSMFTReconstruction</text>
<text text-anchor="middle" x="424" y="-416" font-family="Helvetica,sans-Serif" font-size="10.00">/Clusterer.h</text>
</a>
</g>
</g>
<!-- Node1&#45;&gt;Node12 -->
<g id="edge15" class="edge"><title>Node1&#45;&gt;Node12</title>
<path fill="none" stroke="midnightblue" d="M396.384,-476.466C401.408,-467.103 406.851,-456.96 411.566,-448.173"/>
<polygon fill="midnightblue" stroke="midnightblue" points="414.698,-449.738 416.342,-439.272 408.53,-446.428 414.698,-449.738"/>
</g>
<!-- Node44 -->
<g id="node44" class="node"><title>Node44</title>
<g id="a_node44"><a xlink:href="../../db/d14/MCTruthContainer_8h.html" target="_top" xlink:title="Definition of a container to keep Monte Carlo truth external to simulation objects. ">
<polygon fill="none" stroke="black" points="1657,-137 1657,-167 1771,-167 1771,-137 1657,-137"/>
<text text-anchor="start" x="1665" y="-155" font-family="Helvetica,sans-Serif" font-size="10.00">SimulationDataFormat</text>
<text text-anchor="middle" x="1714" y="-144" font-family="Helvetica,sans-Serif" font-size="10.00">/MCTruthContainer.h</text>
</a>
</g>
</g>
<!-- Node1&#45;&gt;Node44 -->
<g id="edge63" class="edge"><title>Node1&#45;&gt;Node44</title>
<path fill="none" stroke="midnightblue" d="M469.591,-501.08C625.44,-488.303 930,-451.272 930,-357 930,-357 930,-357 930,-287 930,-214.544 1457,-170.823 1646.85,-157.424"/>
<polygon fill="midnightblue" stroke="midnightblue" points="1647.25,-160.905 1656.99,-156.715 1646.77,-153.922 1647.25,-160.905"/>
</g>
<!-- Node5 -->
<g id="node5" class="node"><title>Node5</title>
<polygon fill="none" stroke="#bfbfbf" points="10,-74.5 10,-93.5 66,-93.5 66,-74.5 10,-74.5"/>
<text text-anchor="middle" x="38" y="-81.5" font-family="Helvetica,sans-Serif" font-size="10.00">Rtypes.h</text>
</g>
<!-- Node4&#45;&gt;Node5 -->
<g id="edge4" class="edge"><title>Node4&#45;&gt;Node5</title>
<path fill="none" stroke="midnightblue" d="M176.899,-340.926C140.599,-322.594 82.319,-286.78 57,-236 35.3509,-192.581 34.9835,-133.76 36.5061,-103.972"/>
<polygon fill="midnightblue" stroke="midnightblue" points="40.0146,-103.953 37.167,-93.7478 33.0291,-103.501 40.0146,-103.953"/>
</g>
<!-- Node6 -->
<g id="node6" class="node"><title>Node6</title>
<g id="a_node6"><a xlink:href="../../da/d8d/PixelData_8h.html" target="_top" xlink:title="Transient data classes for single pixel and set of pixels from current chip. ">
<polygon fill="none" stroke="black" points="186.5,-273 186.5,-303 305.5,-303 305.5,-273 186.5,-273"/>
<text text-anchor="start" x="194.5" y="-291" font-family="Helvetica,sans-Serif" font-size="10.00">ITSMFTReconstruction</text>
<text text-anchor="middle" x="246" y="-280" font-family="Helvetica,sans-Serif" font-size="10.00">/PixelData.h</text>
</a>
</g>
</g>
<!-- Node4&#45;&gt;Node6 -->
<g id="edge5" class="edge"><title>Node4&#45;&gt;Node6</title>
<path fill="none" stroke="midnightblue" d="M216.245,-340.679C221.026,-332.376 227.161,-321.721 232.616,-312.245"/>
<polygon fill="midnightblue" stroke="midnightblue" points="235.814,-313.706 237.771,-303.293 229.748,-310.213 235.814,-313.706"/>
</g>
<!-- Node7 -->
<g id="node7" class="node"><title>Node7</title>
<g id="a_node7"><a xlink:href="../../d0/d06/ITSMFT_2common_2base_2include_2ITSMFTBase_2Digit_8h.html" target="_top" xlink:title="ITSMFTBase/Digit.h">
<polygon fill="none" stroke="black" points="66.5,-210.5 66.5,-229.5 173.5,-229.5 173.5,-210.5 66.5,-210.5"/>
<text text-anchor="middle" x="120" y="-217.5" font-family="Helvetica,sans-Serif" font-size="10.00">ITSMFTBase/Digit.h</text>
</a>
</g>
</g>
<!-- Node4&#45;&gt;Node7 -->
<g id="edge11" class="edge"><title>Node4&#45;&gt;Node7</title>
<path fill="none" stroke="midnightblue" d="M183.585,-340.835C170.114,-331.864 154.114,-319.114 144,-304 130.868,-284.375 124.811,-257.499 122.094,-239.712"/>
<polygon fill="midnightblue" stroke="midnightblue" points="125.554,-239.185 120.774,-229.73 118.615,-240.103 125.554,-239.185"/>
</g>
<!-- Node9 -->
<g id="node9" class="node"><title>Node9</title>
<polygon fill="none" stroke="#bfbfbf" points="237,-142.5 237,-161.5 281,-161.5 281,-142.5 237,-142.5"/>
<text text-anchor="middle" x="259" y="-149.5" font-family="Helvetica,sans-Serif" font-size="10.00">vector</text>
</g>
<!-- Node4&#45;&gt;Node9 -->
<g id="edge14" class="edge"><title>Node4&#45;&gt;Node9</title>
<path fill="none" stroke="midnightblue" d="M196.456,-340.832C189.312,-331.115 180.801,-317.57 177,-304 173.164,-290.305 172.774,-285.58 177,-272 189.965,-230.336 223.159,-190.36 243.113,-169.008"/>
<polygon fill="midnightblue" stroke="midnightblue" points="245.889,-171.17 250.281,-161.529 240.835,-166.326 245.889,-171.17"/>
</g>
<!-- Node4&#45;&gt;Node11 -->
<g id="edge12" class="edge"><title>Node4&#45;&gt;Node11</title>
<path fill="none" stroke="midnightblue" d="M267.646,-348.418C342.16,-339.853 473.444,-323.639 585,-304 585.604,-303.894 586.21,-303.786 586.819,-303.677"/>
<polygon fill="midnightblue" stroke="midnightblue" points="587.657,-307.08 596.839,-301.793 586.364,-300.201 587.657,-307.08"/>
</g>
<!-- Node6&#45;&gt;Node7 -->
<g id="edge6" class="edge"><title>Node6&#45;&gt;Node7</title>
<path fill="none" stroke="midnightblue" d="M218.97,-272.841C197.273,-261.476 167.017,-245.628 145.685,-234.454"/>
<polygon fill="midnightblue" stroke="midnightblue" points="147.057,-231.222 136.575,-229.682 143.809,-237.422 147.057,-231.222"/>
</g>
<!-- Node6&#45;&gt;Node9 -->
<g id="edge9" class="edge"><title>Node6&#45;&gt;Node9</title>
<path fill="none" stroke="midnightblue" d="M247.391,-272.66C249.753,-248.32 254.544,-198.933 257.173,-171.837"/>
<polygon fill="midnightblue" stroke="midnightblue" points="260.671,-172.019 258.153,-161.728 253.704,-171.343 260.671,-172.019"/>
</g>
<!-- Node10 -->
<g id="node10" class="node"><title>Node10</title>
<polygon fill="none" stroke="#bfbfbf" points="295,-210.5 295,-229.5 335,-229.5 335,-210.5 295,-210.5"/>
<text text-anchor="middle" x="315" y="-217.5" font-family="Helvetica,sans-Serif" font-size="10.00">utility</text>
</g>
<!-- Node6&#45;&gt;Node10 -->
<g id="edge10" class="edge"><title>Node6&#45;&gt;Node10</title>
<path fill="none" stroke="midnightblue" d="M260.972,-272.679C271.944,-262.184 286.844,-247.932 298.218,-237.052"/>
<polygon fill="midnightblue" stroke="midnightblue" points="300.963,-239.27 305.77,-229.828 296.125,-234.211 300.963,-239.27"/>
</g>
<!-- Node7&#45;&gt;Node5 -->
<g id="edge7" class="edge"><title>Node7&#45;&gt;Node5</title>
<path fill="none" stroke="midnightblue" d="M122.586,-210.318C126.789,-194.419 133.368,-160.058 120,-136 113.864,-124.958 86.5367,-109.243 65.0936,-98.1832"/>
<polygon fill="midnightblue" stroke="midnightblue" points="66.5517,-94.9986 56.0484,-93.6093 63.3929,-101.245 66.5517,-94.9986"/>
</g>
<!-- Node8 -->
<g id="node8" class="node"><title>Node8</title>
<polygon fill="none" stroke="#bfbfbf" points="66.5,-142.5 66.5,-161.5 111.5,-161.5 111.5,-142.5 66.5,-142.5"/>
<text text-anchor="middle" x="89" y="-149.5" font-family="Helvetica,sans-Serif" font-size="10.00">climits</text>
</g>
<!-- Node7&#45;&gt;Node8 -->
<g id="edge8" class="edge"><title>Node7&#45;&gt;Node8</title>
<path fill="none" stroke="midnightblue" d="M115.947,-210.372C111.285,-200.446 103.502,-183.874 97.4951,-171.086"/>
<polygon fill="midnightblue" stroke="midnightblue" points="100.572,-169.404 93.1526,-161.841 94.2361,-172.38 100.572,-169.404"/>
</g>
<!-- Node11&#45;&gt;Node5 -->
<g id="edge13" class="edge"><title>Node11&#45;&gt;Node5</title>
<path fill="none" stroke="midnightblue" d="M659.753,-272.988C666.222,-254.707 673.789,-222.838 657,-204 610.563,-151.897 411.316,-189.757 345,-168 317.763,-159.064 315.997,-145.638 289,-136 198.167,-103.572 167.8,-126.275 75,-100 72.1864,-99.2034 69.2953,-98.262 66.4287,-97.2451"/>
<polygon fill="midnightblue" stroke="midnightblue" points="67.515,-93.9131 56.9248,-93.598 65.007,-100.448 67.515,-93.9131"/>
</g>
<!-- Node12&#45;&gt;Node4 -->
<g id="edge58" class="edge"><title>Node12&#45;&gt;Node4</title>
<path fill="none" stroke="midnightblue" d="M377.928,-408.922C344.518,-398.714 299.167,-384.857 263.719,-374.025"/>
<polygon fill="midnightblue" stroke="midnightblue" points="264.588,-370.631 254.002,-371.056 262.542,-377.326 264.588,-370.631"/>
</g>
<!-- Node12&#45;&gt;Node5 -->
<g id="edge61" class="edge"><title>Node12&#45;&gt;Node5</title>
<path fill="none" stroke="midnightblue" d="M364.231,-414.887C293.227,-404.799 179.316,-387.069 139,-372 71.6006,-346.809 0,-360.953 0,-289 0,-289 0,-289 0,-219 0,-176.048 18.2941,-128.189 29.4957,-102.911"/>
<polygon fill="midnightblue" stroke="midnightblue" points="32.8057,-104.09 33.7881,-93.5403 26.4415,-101.174 32.8057,-104.09"/>
</g>
<!-- Node12&#45;&gt;Node6 -->
<g id="edge59" class="edge"><title>Node12&#45;&gt;Node6</title>
<path fill="none" stroke="midnightblue" d="M386.887,-408.964C366.097,-400.114 340.342,-387.442 320,-372 297.139,-354.646 275.873,-329.456 262.06,-311.383"/>
<polygon fill="midnightblue" stroke="midnightblue" points="264.694,-309.062 255.903,-303.149 259.088,-313.254 264.694,-309.062"/>
</g>
<!-- Node12&#45;&gt;Node9 -->
<g id="edge17" class="edge"><title>Node12&#45;&gt;Node9</title>
<path fill="none" stroke="midnightblue" d="M413.242,-408.939C406.104,-399.051 396.981,-385.268 391,-372 359.134,-301.318 391.02,-265.649 344,-204 342.913,-202.574 307.198,-181.379 282.415,-166.766"/>
<polygon fill="midnightblue" stroke="midnightblue" points="283.939,-163.602 273.546,-161.543 280.387,-169.634 283.939,-163.602"/>
</g>
<!-- Node12&#45;&gt;Node10 -->
<g id="edge16" class="edge"><title>Node12&#45;&gt;Node10</title>
<path fill="none" stroke="midnightblue" d="M398.467,-408.802C384.634,-399.899 368.311,-387.228 358,-372 329.679,-330.171 319.828,-269.77 316.547,-239.608"/>
<polygon fill="midnightblue" stroke="midnightblue" points="320.029,-239.249 315.586,-229.63 313.061,-239.92 320.029,-239.249"/>
</g>
<!-- Node12&#45;&gt;Node11 -->
<g id="edge60" class="edge"><title>Node12&#45;&gt;Node11</title>
<path fill="none" stroke="midnightblue" d="M483.582,-418.243C545.012,-411.955 634.745,-398.434 656,-372 669.137,-355.661 666.7,-331.094 662.146,-312.924"/>
<polygon fill="midnightblue" stroke="midnightblue" points="665.443,-311.723 659.321,-303.076 658.714,-313.653 665.443,-311.723"/>
</g>
<!-- Node13 -->
<g id="node13" class="node"><title>Node13</title>
<g id="a_node13"><a xlink:href="../../d0/d2d/common_2base_2include_2ITSMFTBase_2GeometryTGeo_8h.html" target="_top" xlink:title="ITSMFTBase/GeometryTGeo.h">
<polygon fill="none" stroke="black" points="746.5,-346.5 746.5,-365.5 899.5,-365.5 899.5,-346.5 746.5,-346.5"/>
<text text-anchor="middle" x="823" y="-353.5" font-family="Helvetica,sans-Serif" font-size="10.00">ITSMFTBase/GeometryTGeo.h</text>
</a>
</g>
</g>
<!-- Node12&#45;&gt;Node13 -->
<g id="edge18" class="edge"><title>Node12&#45;&gt;Node13</title>
<path fill="none" stroke="midnightblue" d="M483.734,-413.119C558.378,-400.772 685.481,-379.748 761.116,-367.237"/>
<polygon fill="midnightblue" stroke="midnightblue" points="762.141,-370.615 771.436,-365.529 760.999,-363.708 762.141,-370.615"/>
</g>
<!-- Node38 -->
<g id="node38" class="node"><title>Node38</title>
<g id="a_node38"><a xlink:href="../../d1/d62/DataFormats_2Detectors_2ITSMFT_2common_2include_2DataFormatsITSMFT_2Cluster_8h.html" target="_top" xlink:title="DataFormatsITSMFT/Cluster.h">
<polygon fill="none" stroke="black" points="400,-346.5 400,-365.5 552,-365.5 552,-346.5 400,-346.5"/>
<text text-anchor="middle" x="476" y="-353.5" font-family="Helvetica,sans-Serif" font-size="10.00">DataFormatsITSMFT/Cluster.h</text>
</a>
</g>
</g>
<!-- Node12&#45;&gt;Node38 -->
<g id="edge49" class="edge"><title>Node12&#45;&gt;Node38</title>
<path fill="none" stroke="midnightblue" d="M435.283,-408.679C443.391,-398.388 454.346,-384.484 462.851,-373.69"/>
<polygon fill="midnightblue" stroke="midnightblue" points="465.605,-375.849 469.044,-365.828 460.106,-371.517 465.605,-375.849"/>
</g>
<!-- Node43 -->
<g id="node43" class="node"><title>Node43</title>
<polygon fill="none" stroke="#bfbfbf" points="570.5,-346.5 570.5,-365.5 647.5,-365.5 647.5,-346.5 570.5,-346.5"/>
<text text-anchor="middle" x="609" y="-353.5" font-family="Helvetica,sans-Serif" font-size="10.00">TStopwatch.h</text>
</g>
<!-- Node12&#45;&gt;Node43 -->
<g id="edge62" class="edge"><title>Node12&#45;&gt;Node43</title>
<path fill="none" stroke="midnightblue" d="M463.687,-408.841C496.93,-396.982 543.86,-380.239 575.303,-369.022"/>
<polygon fill="midnightblue" stroke="midnightblue" points="576.688,-372.244 584.931,-365.587 574.336,-365.651 576.688,-372.244"/>
</g>
<!-- Node14 -->
<g id="node14" class="node"><title>Node14</title>
<polygon fill="none" stroke="#bfbfbf" points="729.5,-278.5 729.5,-297.5 798.5,-297.5 798.5,-278.5 729.5,-278.5"/>
<text text-anchor="middle" x="764" y="-285.5" font-family="Helvetica,sans-Serif" font-size="10.00">TObjArray.h</text>
</g>
<!-- Node13&#45;&gt;Node14 -->
<g id="edge19" class="edge"><title>Node13&#45;&gt;Node14</title>
<path fill="none" stroke="midnightblue" d="M815.287,-346.372C806.063,-336.053 790.417,-318.551 778.826,-305.585"/>
<polygon fill="midnightblue" stroke="midnightblue" points="781.177,-302.964 771.903,-297.841 775.959,-307.629 781.177,-302.964"/>
</g>
<!-- Node15 -->
<g id="node15" class="node"><title>Node15</title>
<polygon fill="none" stroke="#bfbfbf" points="816.5,-278.5 816.5,-297.5 857.5,-297.5 857.5,-278.5 816.5,-278.5"/>
<text text-anchor="middle" x="837" y="-285.5" font-family="Helvetica,sans-Serif" font-size="10.00">string</text>
</g>
<!-- Node13&#45;&gt;Node15 -->
<g id="edge20" class="edge"><title>Node13&#45;&gt;Node15</title>
<path fill="none" stroke="midnightblue" d="M824.83,-346.372C826.894,-336.643 830.312,-320.528 833.001,-307.85"/>
<polygon fill="midnightblue" stroke="midnightblue" points="836.473,-308.35 835.125,-297.841 829.626,-306.897 836.473,-308.35"/>
</g>
<!-- Node16 -->
<g id="node16" class="node"><title>Node16</title>
<g id="a_node16"><a xlink:href="../../d4/d20/DetMatrixCache_8h.html" target="_top" xlink:title="DetectorsCommonDataFormats\l/DetMatrixCache.h">
<polygon fill="none" stroke="black" points="743,-205 743,-235 899,-235 899,-205 743,-205"/>
<text text-anchor="start" x="751" y="-223" font-family="Helvetica,sans-Serif" font-size="10.00">DetectorsCommonDataFormats</text>
<text text-anchor="middle" x="821" y="-212" font-family="Helvetica,sans-Serif" font-size="10.00">/DetMatrixCache.h</text>
</a>
</g>
</g>
<!-- Node13&#45;&gt;Node16 -->
<g id="edge21" class="edge"><title>Node13&#45;&gt;Node16</title>
<path fill="none" stroke="midnightblue" d="M833.923,-346.206C844.434,-336.976 859.642,-321.405 866,-304 870.88,-290.641 871.03,-285.303 866,-272 861.779,-260.838 853.878,-250.54 845.86,-242.165"/>
<polygon fill="midnightblue" stroke="midnightblue" points="848.166,-239.525 838.566,-235.043 843.276,-244.533 848.166,-239.525"/>
</g>
<!-- Node16&#45;&gt;Node5 -->
<g id="edge48" class="edge"><title>Node16&#45;&gt;Node5</title>
<path fill="none" stroke="midnightblue" d="M742.738,-206.003C738.093,-205.305 733.487,-204.632 729,-204 594.712,-185.084 557.49,-201.19 426,-168 388.47,-158.527 382.462,-145.741 345,-136 227.834,-105.533 192.029,-130.989 75,-100 72.0141,-99.2093 68.9466,-98.2394 65.9163,-97.1766"/>
<polygon fill="midnightblue" stroke="midnightblue" points="67.0995,-93.8819 56.5092,-93.5709 64.5941,-100.418 67.0995,-93.8819"/>
</g>
<!-- Node16&#45;&gt;Node9 -->
<g id="edge24" class="edge"><title>Node16&#45;&gt;Node9</title>
<path fill="none" stroke="midnightblue" d="M742.95,-211.565C650.286,-202.482 491.144,-186.076 355,-168 333.653,-165.166 309.725,-161.428 291.097,-158.393"/>
<polygon fill="midnightblue" stroke="midnightblue" points="291.509,-154.914 281.073,-156.744 290.373,-161.821 291.509,-154.914"/>
</g>
<!-- Node17 -->
<g id="node17" class="node"><title>Node17</title>
<polygon fill="none" stroke="#bfbfbf" points="785.5,-142.5 785.5,-161.5 856.5,-161.5 856.5,-142.5 785.5,-142.5"/>
<text text-anchor="middle" x="821" y="-149.5" font-family="Helvetica,sans-Serif" font-size="10.00">FairLogger.h</text>
</g>
<!-- Node16&#45;&gt;Node17 -->
<g id="edge22" class="edge"><title>Node16&#45;&gt;Node17</title>
<path fill="none" stroke="midnightblue" d="M821,-204.679C821,-195.101 821,-182.394 821,-171.977"/>
<polygon fill="midnightblue" stroke="midnightblue" points="824.5,-171.828 821,-161.828 817.5,-171.828 824.5,-171.828"/>
</g>
<!-- Node18 -->
<g id="node18" class="node"><title>Node18</title>
<polygon fill="none" stroke="#bfbfbf" points="1357,-6.5 1357,-25.5 1395,-25.5 1395,-6.5 1357,-6.5"/>
<text text-anchor="middle" x="1376" y="-13.5" font-family="Helvetica,sans-Serif" font-size="10.00">array</text>
</g>
<!-- Node16&#45;&gt;Node18 -->
<g id="edge23" class="edge"><title>Node16&#45;&gt;Node18</title>
<path fill="none" stroke="midnightblue" d="M885.456,-204.992C990.537,-181.575 1193.61,-133.729 1259,-100 1278.93,-89.7218 1279.92,-81.2655 1298,-68 1316.1,-54.7167 1337.5,-40.849 1353.3,-30.9334"/>
<polygon fill="midnightblue" stroke="midnightblue" points="1355.25,-33.8425 1361.89,-25.5862 1351.55,-27.9 1355.25,-33.8425"/>
</g>
<!-- Node19 -->
<g id="node19" class="node"><title>Node19</title>
<g id="a_node19"><a xlink:href="../../d6/d31/DetID_8h.html" target="_top" xlink:title="DetectorsCommonDataFormats\l/DetID.h">
<polygon fill="none" stroke="black" points="1327,-137 1327,-167 1483,-167 1483,-137 1327,-137"/>
<text text-anchor="start" x="1335" y="-155" font-family="Helvetica,sans-Serif" font-size="10.00">DetectorsCommonDataFormats</text>
<text text-anchor="middle" x="1405" y="-144" font-family="Helvetica,sans-Serif" font-size="10.00">/DetID.h</text>
</a>
</g>
</g>
<!-- Node16&#45;&gt;Node19 -->
<g id="edge25" class="edge"><title>Node16&#45;&gt;Node19</title>
<path fill="none" stroke="midnightblue" d="M899.227,-206.26C904.898,-205.456 910.534,-204.693 916,-204 1082.54,-182.899 1125.21,-187.048 1292,-168 1300.04,-167.082 1308.39,-166.075 1316.75,-165.03"/>
<polygon fill="midnightblue" stroke="midnightblue" points="1317.45,-168.469 1326.93,-163.741 1316.57,-161.525 1317.45,-168.469"/>
</g>
<!-- Node27 -->
<g id="node27" class="node"><title>Node27</title>
<g id="a_node27"><a xlink:href="../../dd/d76/Cartesian3D_8h.html" target="_top" xlink:title="MathUtils/Cartesian3D.h">
<polygon fill="none" stroke="black" points="435.5,-142.5 435.5,-161.5 560.5,-161.5 560.5,-142.5 435.5,-142.5"/>
<text text-anchor="middle" x="498" y="-149.5" font-family="Helvetica,sans-Serif" font-size="10.00">MathUtils/Cartesian3D.h</text>
</a>
</g>
</g>
<!-- Node16&#45;&gt;Node27 -->
<g id="edge36" class="edge"><title>Node16&#45;&gt;Node27</title>
<path fill="none" stroke="midnightblue" d="M752.105,-204.922C691.406,-192.52 604.349,-174.731 549.516,-163.526"/>
<polygon fill="midnightblue" stroke="midnightblue" points="550.164,-160.087 539.666,-161.514 548.763,-166.945 550.164,-160.087"/>
</g>
<!-- Node19&#45;&gt;Node5 -->
<g id="edge26" class="edge"><title>Node19&#45;&gt;Node5</title>
<path fill="none" stroke="midnightblue" d="M1326.55,-148.741C1050.36,-140.69 136.314,-113.18 75,-100 71.7472,-99.3008 68.4135,-98.3364 65.1434,-97.2309"/>
<polygon fill="midnightblue" stroke="midnightblue" points="66.26,-93.9109 55.6693,-93.6151 63.764,-100.451 66.26,-93.9109"/>
</g>
<!-- Node19&#45;&gt;Node18 -->
<g id="edge27" class="edge"><title>Node19&#45;&gt;Node18</title>
<path fill="none" stroke="midnightblue" d="M1401.9,-136.66C1396.63,-112.32 1385.94,-62.9332 1380.08,-35.8373"/>
<polygon fill="midnightblue" stroke="midnightblue" points="1383.42,-34.7609 1377.89,-25.7275 1376.58,-36.2416 1383.42,-34.7609"/>
</g>
<!-- Node20 -->
<g id="node20" class="node"><title>Node20</title>
<polygon fill="none" stroke="#bfbfbf" points="1306.5,-74.5 1306.5,-93.5 1347.5,-93.5 1347.5,-74.5 1306.5,-74.5"/>
<text text-anchor="middle" x="1327" y="-81.5" font-family="Helvetica,sans-Serif" font-size="10.00">bitset</text>
</g>
<!-- Node19&#45;&gt;Node20 -->
<g id="edge28" class="edge"><title>Node19&#45;&gt;Node20</title>
<path fill="none" stroke="midnightblue" d="M1388.08,-136.679C1375.43,-125.981 1358.17,-111.377 1345.23,-100.422"/>
<polygon fill="midnightblue" stroke="midnightblue" points="1347.33,-97.6159 1337.43,-93.8283 1342.81,-102.96 1347.33,-97.6159"/>
</g>
<!-- Node21 -->
<g id="node21" class="node"><title>Node21</title>
<polygon fill="none" stroke="#bfbfbf" points="1576.5,-74.5 1576.5,-93.5 1625.5,-93.5 1625.5,-74.5 1576.5,-74.5"/>
<text text-anchor="middle" x="1601" y="-81.5" font-family="Helvetica,sans-Serif" font-size="10.00">cassert</text>
</g>
<!-- Node19&#45;&gt;Node21 -->
<g id="edge29" class="edge"><title>Node19&#45;&gt;Node21</title>
<path fill="none" stroke="midnightblue" d="M1454.4,-136.994C1486.74,-127.447 1529.75,-114.032 1567,-100 1568.9,-99.2836 1570.85,-98.5164 1572.81,-97.7218"/>
<polygon fill="midnightblue" stroke="midnightblue" points="1574.61,-100.758 1582.45,-93.6278 1571.88,-94.3144 1574.61,-100.758"/>
</g>
<!-- Node22 -->
<g id="node22" class="node"><title>Node22</title>
<polygon fill="none" stroke="#bfbfbf" points="1404,-74.5 1404,-93.5 1450,-93.5 1450,-74.5 1404,-74.5"/>
<text text-anchor="middle" x="1427" y="-81.5" font-family="Helvetica,sans-Serif" font-size="10.00">cstdint</text>
</g>
<!-- Node19&#45;&gt;Node22 -->
<g id="edge30" class="edge"><title>Node19&#45;&gt;Node22</title>
<path fill="none" stroke="midnightblue" d="M1409.77,-136.679C1413,-126.999 1417.29,-114.123 1420.79,-103.645"/>
<polygon fill="midnightblue" stroke="midnightblue" points="1424.22,-104.422 1424.06,-93.8283 1417.57,-102.208 1424.22,-104.422"/>
</g>
<!-- Node23 -->
<g id="node23" class="node"><title>Node23</title>
<polygon fill="none" stroke="#bfbfbf" points="1644,-74.5 1644,-93.5 1706,-93.5 1706,-74.5 1644,-74.5"/>
<text text-anchor="middle" x="1675" y="-81.5" font-family="Helvetica,sans-Serif" font-size="10.00">type_traits</text>
</g>
<!-- Node19&#45;&gt;Node23 -->
<g id="edge31" class="edge"><title>Node19&#45;&gt;Node23</title>
<path fill="none" stroke="midnightblue" d="M1479.63,-136.967C1524.7,-127.852 1583.09,-114.912 1634,-100 1637.13,-99.0839 1640.36,-98.0523 1643.58,-96.9699"/>
<polygon fill="midnightblue" stroke="midnightblue" points="1644.78,-100.258 1653.05,-93.635 1642.45,-93.6553 1644.78,-100.258"/>
</g>
<!-- Node24 -->
<g id="node24" class="node"><title>Node24</title>
<g id="a_node24"><a xlink:href="../../d9/d52/Common_2MathUtils_2include_2MathUtils_2Utils_8h.html" target="_top" xlink:title="MathUtils/Utils.h">
<polygon fill="none" stroke="black" points="1468,-74.5 1468,-93.5 1558,-93.5 1558,-74.5 1468,-74.5"/>
<text text-anchor="middle" x="1513" y="-81.5" font-family="Helvetica,sans-Serif" font-size="10.00">MathUtils/Utils.h</text>
</a>
</g>
</g>
<!-- Node19&#45;&gt;Node24 -->
<g id="edge32" class="edge"><title>Node19&#45;&gt;Node24</title>
<path fill="none" stroke="midnightblue" d="M1428.17,-136.841C1446.43,-125.681 1471.77,-110.198 1489.99,-99.0625"/>
<polygon fill="midnightblue" stroke="midnightblue" points="1492.09,-101.883 1498.79,-93.6819 1488.44,-95.9099 1492.09,-101.883"/>
</g>
<!-- Node24&#45;&gt;Node18 -->
<g id="edge33" class="edge"><title>Node24&#45;&gt;Node18</title>
<path fill="none" stroke="midnightblue" d="M1495.09,-74.3717C1471.71,-63.1063 1430.55,-43.2794 1403.28,-30.1403"/>
<polygon fill="midnightblue" stroke="midnightblue" points="1404.44,-26.8175 1393.91,-25.6305 1401.4,-33.1238 1404.44,-26.8175"/>
</g>
<!-- Node25 -->
<g id="node25" class="node"><title>Node25</title>
<polygon fill="none" stroke="#bfbfbf" points="1616,-6.5 1616,-25.5 1660,-25.5 1660,-6.5 1616,-6.5"/>
<text text-anchor="middle" x="1638" y="-13.5" font-family="Helvetica,sans-Serif" font-size="10.00">cmath</text>
</g>
<!-- Node24&#45;&gt;Node25 -->
<g id="edge34" class="edge"><title>Node24&#45;&gt;Node25</title>
<path fill="none" stroke="midnightblue" d="M1529.34,-74.3717C1550.58,-63.1557 1587.9,-43.4532 1612.78,-30.3136"/>
<polygon fill="midnightblue" stroke="midnightblue" points="1614.45,-33.3947 1621.65,-25.6305 1611.18,-27.2046 1614.45,-33.3947"/>
</g>
<!-- Node26 -->
<g id="node26" class="node"><title>Node26</title>
<g id="a_node26"><a xlink:href="../../d6/d84/MathConstants_8h.html" target="_top" xlink:title="useful math constants ">
<polygon fill="none" stroke="black" points="1418.5,-6.5 1418.5,-25.5 1597.5,-25.5 1597.5,-6.5 1418.5,-6.5"/>
<text text-anchor="middle" x="1508" y="-13.5" font-family="Helvetica,sans-Serif" font-size="10.00">CommonConstants/MathConstants.h</text>
</a>
</g>
</g>
<!-- Node24&#45;&gt;Node26 -->
<g id="edge35" class="edge"><title>Node24&#45;&gt;Node26</title>
<path fill="none" stroke="midnightblue" d="M1512.35,-74.3717C1511.61,-64.6426 1510.39,-48.528 1509.43,-35.8504"/>
<polygon fill="midnightblue" stroke="midnightblue" points="1512.92,-35.5481 1508.67,-25.8411 1505.94,-36.077 1512.92,-35.5481"/>
</g>
<!-- Node27&#45;&gt;Node5 -->
<g id="edge42" class="edge"><title>Node27&#45;&gt;Node5</title>
<path fill="none" stroke="midnightblue" d="M435.35,-142.674C418.369,-140.459 399.985,-138.1 383,-136 246.221,-119.087 208.51,-134.198 75,-100 72.0078,-99.2336 68.9362,-98.2794 65.9034,-97.2262"/>
<polygon fill="midnightblue" stroke="midnightblue" points="67.0839,-93.9305 56.4932,-93.6325 64.5865,-100.47 67.0839,-93.9305"/>
</g>
<!-- Node28 -->
<g id="node28" class="node"><title>Node28</title>
<polygon fill="none" stroke="#bfbfbf" points="563.5,-69 563.5,-99 714.5,-99 714.5,-69 563.5,-69"/>
<text text-anchor="start" x="571.5" y="-87" font-family="Helvetica,sans-Serif" font-size="10.00">Math/GenVector/Displacement</text>
<text text-anchor="middle" x="639" y="-76" font-family="Helvetica,sans-Serif" font-size="10.00">Vector3D.h</text>
</g>
<!-- Node27&#45;&gt;Node28 -->
<g id="edge37" class="edge"><title>Node27&#45;&gt;Node28</title>
<path fill="none" stroke="midnightblue" d="M516.433,-142.372C537.467,-132.526 572.473,-116.141 599.7,-103.396"/>
<polygon fill="midnightblue" stroke="midnightblue" points="601.398,-106.466 608.971,-99.0562 598.43,-100.126 601.398,-106.466"/>
</g>
<!-- Node29 -->
<g id="node29" class="node"><title>Node29</title>
<polygon fill="none" stroke="#bfbfbf" points="733,-74.5 733,-93.5 909,-93.5 909,-74.5 733,-74.5"/>
<text text-anchor="middle" x="821" y="-81.5" font-family="Helvetica,sans-Serif" font-size="10.00">Math/GenVector/PositionVector3D.h</text>
</g>
<!-- Node27&#45;&gt;Node29 -->
<g id="edge38" class="edge"><title>Node27&#45;&gt;Node29</title>
<path fill="none" stroke="midnightblue" d="M539.895,-142.439C598.711,-130.421 705.677,-108.565 769.346,-95.5547"/>
<polygon fill="midnightblue" stroke="midnightblue" points="770.082,-98.9767 779.179,-93.5455 768.68,-92.1184 770.082,-98.9767"/>
</g>
<!-- Node30 -->
<g id="node30" class="node"><title>Node30</title>
<polygon fill="none" stroke="#bfbfbf" points="926.5,-74.5 926.5,-93.5 1075.5,-93.5 1075.5,-74.5 926.5,-74.5"/>
<text text-anchor="middle" x="1001" y="-81.5" font-family="Helvetica,sans-Serif" font-size="10.00">Math/GenVector/Rotation3D.h</text>
</g>
<!-- Node27&#45;&gt;Node30 -->
<g id="edge39" class="edge"><title>Node27&#45;&gt;Node30</title>
<path fill="none" stroke="midnightblue" d="M560.616,-144.477C642.652,-135.68 790.904,-118.918 917,-100 926.351,-98.5971 936.261,-96.9613 945.869,-95.296"/>
<polygon fill="midnightblue" stroke="midnightblue" points="946.496,-98.7395 955.738,-93.5583 945.282,-91.8456 946.496,-98.7395"/>
</g>
<!-- Node31 -->
<g id="node31" class="node"><title>Node31</title>
<polygon fill="none" stroke="#bfbfbf" points="1094,-74.5 1094,-93.5 1250,-93.5 1250,-74.5 1094,-74.5"/>
<text text-anchor="middle" x="1172" y="-81.5" font-family="Helvetica,sans-Serif" font-size="10.00">Math/GenVector/Transform3D.h</text>
</g>
<!-- Node27&#45;&gt;Node31 -->
<g id="edge40" class="edge"><title>Node27&#45;&gt;Node31</title>
<path fill="none" stroke="midnightblue" d="M560.674,-145.223C591.492,-142.402 629.19,-138.982 663,-136 850.068,-119.499 897.72,-123.798 1084,-100 1094.48,-98.6605 1105.63,-96.97 1116.34,-95.2107"/>
<polygon fill="midnightblue" stroke="midnightblue" points="1117.15,-98.6226 1126.43,-93.512 1115.99,-91.7196 1117.15,-98.6226"/>
</g>
<!-- Node32 -->
<g id="node32" class="node"><title>Node32</title>
<polygon fill="none" stroke="#bfbfbf" points="148,-74.5 148,-93.5 308,-93.5 308,-74.5 148,-74.5"/>
<text text-anchor="middle" x="228" y="-81.5" font-family="Helvetica,sans-Serif" font-size="10.00">Math/GenVector/Translation3D.h</text>
</g>
<!-- Node27&#45;&gt;Node32 -->
<g id="edge41" class="edge"><title>Node27&#45;&gt;Node32</title>
<path fill="none" stroke="midnightblue" d="M462.979,-142.439C414.32,-130.545 326.236,-109.013 272.832,-95.959"/>
<polygon fill="midnightblue" stroke="midnightblue" points="273.504,-92.5202 262.959,-93.5455 271.842,-99.32 273.504,-92.5202"/>
</g>
<!-- Node33 -->
<g id="node33" class="node"><title>Node33</title>
<polygon fill="none" stroke="#bfbfbf" points="326,-74.5 326,-93.5 402,-93.5 402,-74.5 326,-74.5"/>
<text text-anchor="middle" x="364" y="-81.5" font-family="Helvetica,sans-Serif" font-size="10.00">TGeoMatrix.h</text>
</g>
<!-- Node27&#45;&gt;Node33 -->
<g id="edge43" class="edge"><title>Node27&#45;&gt;Node33</title>
<path fill="none" stroke="midnightblue" d="M480.482,-142.372C457.61,-131.106 417.355,-111.279 390.679,-98.1403"/>
<polygon fill="midnightblue" stroke="midnightblue" points="392.04,-94.9092 381.522,-93.6305 388.947,-101.189 392.04,-94.9092"/>
</g>
<!-- Node34 -->
<g id="node34" class="node"><title>Node34</title>
<polygon fill="none" stroke="#bfbfbf" points="84.5,-74.5 84.5,-93.5 129.5,-93.5 129.5,-74.5 84.5,-74.5"/>
<text text-anchor="middle" x="107" y="-81.5" font-family="Helvetica,sans-Serif" font-size="10.00">iosfwd</text>
</g>
<!-- Node27&#45;&gt;Node34 -->
<g id="edge44" class="edge"><title>Node27&#45;&gt;Node34</title>
<path fill="none" stroke="midnightblue" d="M456.929,-142.483C445.338,-140.22 432.698,-137.884 421,-136 296.257,-115.909 260.337,-135.24 139,-100 136.713,-99.3358 134.384,-98.5282 132.078,-97.636"/>
<polygon fill="midnightblue" stroke="midnightblue" points="133.464,-94.422 122.898,-93.6423 130.672,-100.841 133.464,-94.422"/>
</g>
<!-- Node35 -->
<g id="node35" class="node"><title>Node35</title>
<g id="a_node35"><a xlink:href="../../d2/dd0/Cartesian2D_8h.html" target="_top" xlink:title="MathUtils/Cartesian2D.h">
<polygon fill="none" stroke="black" points="420.5,-74.5 420.5,-93.5 545.5,-93.5 545.5,-74.5 420.5,-74.5"/>
<text text-anchor="middle" x="483" y="-81.5" font-family="Helvetica,sans-Serif" font-size="10.00">MathUtils/Cartesian2D.h</text>
</a>
</g>
</g>
<!-- Node27&#45;&gt;Node35 -->
<g id="edge45" class="edge"><title>Node27&#45;&gt;Node35</title>
<path fill="none" stroke="midnightblue" d="M496.039,-142.372C493.828,-132.643 490.165,-116.528 487.284,-103.85"/>
<polygon fill="midnightblue" stroke="midnightblue" points="490.639,-102.817 485.009,-93.8411 483.813,-104.368 490.639,-102.817"/>
</g>
<!-- Node36 -->
<g id="node36" class="node"><title>Node36</title>
<polygon fill="none" stroke="#bfbfbf" points="316.5,-1 316.5,-31 467.5,-31 467.5,-1 316.5,-1"/>
<text text-anchor="start" x="324.5" y="-19" font-family="Helvetica,sans-Serif" font-size="10.00">Math/GenVector/Displacement</text>
<text text-anchor="middle" x="392" y="-8" font-family="Helvetica,sans-Serif" font-size="10.00">Vector2D.h</text>
</g>
<!-- Node35&#45;&gt;Node36 -->
<g id="edge46" class="edge"><title>Node35&#45;&gt;Node36</title>
<path fill="none" stroke="midnightblue" d="M471.103,-74.3717C458.221,-65.0286 437.22,-49.7966 420.093,-37.375"/>
<polygon fill="midnightblue" stroke="midnightblue" points="421.703,-34.2194 411.553,-31.1815 417.593,-39.8859 421.703,-34.2194"/>
</g>
<!-- Node37 -->
<g id="node37" class="node"><title>Node37</title>
<polygon fill="none" stroke="#bfbfbf" points="486,-6.5 486,-25.5 662,-25.5 662,-6.5 486,-6.5"/>
<text text-anchor="middle" x="574" y="-13.5" font-family="Helvetica,sans-Serif" font-size="10.00">Math/GenVector/PositionVector2D.h</text>
</g>
<!-- Node35&#45;&gt;Node37 -->
<g id="edge47" class="edge"><title>Node35&#45;&gt;Node37</title>
<path fill="none" stroke="midnightblue" d="M494.897,-74.3717C509.884,-63.5015 535.862,-44.6602 553.942,-31.5474"/>
<polygon fill="midnightblue" stroke="midnightblue" points="556.06,-34.3349 562.1,-25.6305 551.95,-28.6684 556.06,-34.3349"/>
</g>
<!-- Node39 -->
<g id="node39" class="node"><title>Node39</title>
<g id="a_node39"><a xlink:href="../../d4/de2/BaseCluster_8h.html" target="_top" xlink:title="ReconstructionDataFormats\l/BaseCluster.h">
<polygon fill="none" stroke="black" points="436,-273 436,-303 576,-303 576,-273 436,-273"/>
<text text-anchor="start" x="444" y="-291" font-family="Helvetica,sans-Serif" font-size="10.00">ReconstructionDataFormats</text>
<text text-anchor="middle" x="506" y="-280" font-family="Helvetica,sans-Serif" font-size="10.00">/BaseCluster.h</text>
</a>
</g>
</g>
<!-- Node38&#45;&gt;Node39 -->
<g id="edge50" class="edge"><title>Node38&#45;&gt;Node39</title>
<path fill="none" stroke="midnightblue" d="M479.922,-346.372C483.818,-337.8 489.967,-324.272 495.316,-312.504"/>
<polygon fill="midnightblue" stroke="midnightblue" points="498.602,-313.733 499.554,-303.181 492.23,-310.837 498.602,-313.733"/>
</g>
<!-- Node39&#45;&gt;Node16 -->
<g id="edge56" class="edge"><title>Node39&#45;&gt;Node16</title>
<path fill="none" stroke="midnightblue" d="M573.189,-272.922C623.265,-262.43 691.736,-248.084 744.017,-237.13"/>
<polygon fill="midnightblue" stroke="midnightblue" points="744.845,-240.532 753.914,-235.056 743.409,-233.681 744.845,-240.532"/>
</g>
<!-- Node39&#45;&gt;Node20 -->
<g id="edge52" class="edge"><title>Node39&#45;&gt;Node20</title>
<path fill="none" stroke="midnightblue" d="M563.702,-272.998C592.779,-264.601 627.938,-252.344 657,-236 717.215,-202.137 712.016,-162.049 776,-136 875.686,-95.416 1152.51,-115.632 1259,-100 1271.27,-98.1986 1284.63,-95.432 1296.23,-92.7631"/>
<polygon fill="midnightblue" stroke="midnightblue" points="1297.39,-96.0854 1306.31,-90.37 1295.77,-89.2747 1297.39,-96.0854"/>
</g>
<!-- Node39&#45;&gt;Node27 -->
<g id="edge57" class="edge"><title>Node39&#45;&gt;Node27</title>
<path fill="none" stroke="midnightblue" d="M489.583,-272.726C480.12,-263.365 469.113,-250.251 464,-236 459.197,-222.613 459.879,-217.612 464,-204 467.872,-191.212 476.125,-178.699 483.53,-169.268"/>
<polygon fill="midnightblue" stroke="midnightblue" points="486.242,-171.482 489.942,-161.554 480.858,-167.007 486.242,-171.482"/>
</g>
<!-- Node39&#45;&gt;Node34 -->
<g id="edge55" class="edge"><title>Node39&#45;&gt;Node34</title>
<path fill="none" stroke="midnightblue" d="M490.399,-272.988C456.381,-243.185 371.913,-173.2 289,-136 226.448,-107.935 203.705,-122.666 139,-100 137.089,-99.3306 135.139,-98.5845 133.192,-97.7927"/>
<polygon fill="midnightblue" stroke="midnightblue" points="134.234,-94.4272 123.672,-93.5949 131.41,-100.832 134.234,-94.4272"/>
</g>
<!-- Node40 -->
<g id="node40" class="node"><title>Node40</title>
<polygon fill="none" stroke="#bfbfbf" points="473.5,-210.5 473.5,-229.5 532.5,-229.5 532.5,-210.5 473.5,-210.5"/>
<text text-anchor="middle" x="503" y="-217.5" font-family="Helvetica,sans-Serif" font-size="10.00">TObject.h</text>
</g>
<!-- Node39&#45;&gt;Node40 -->
<g id="edge51" class="edge"><title>Node39&#45;&gt;Node40</title>
<path fill="none" stroke="midnightblue" d="M505.349,-272.679C504.914,-263.101 504.336,-250.394 503.863,-239.977"/>
<polygon fill="midnightblue" stroke="midnightblue" points="507.352,-239.659 503.401,-229.828 500.359,-239.977 507.352,-239.659"/>
</g>
<!-- Node41 -->
<g id="node41" class="node"><title>Node41</title>
<polygon fill="none" stroke="#bfbfbf" points="551,-210.5 551,-229.5 601,-229.5 601,-210.5 551,-210.5"/>
<text text-anchor="middle" x="576" y="-217.5" font-family="Helvetica,sans-Serif" font-size="10.00">iomanip</text>
</g>
<!-- Node39&#45;&gt;Node41 -->
<g id="edge53" class="edge"><title>Node39&#45;&gt;Node41</title>
<path fill="none" stroke="midnightblue" d="M521.189,-272.679C532.428,-262.082 547.73,-247.655 559.31,-236.736"/>
<polygon fill="midnightblue" stroke="midnightblue" points="561.762,-239.235 566.637,-229.828 556.96,-234.142 561.762,-239.235"/>
</g>
<!-- Node42 -->
<g id="node42" class="node"><title>Node42</title>
<polygon fill="none" stroke="#bfbfbf" points="619.5,-210.5 619.5,-229.5 648.5,-229.5 648.5,-210.5 619.5,-210.5"/>
<text text-anchor="middle" x="634" y="-217.5" font-family="Helvetica,sans-Serif" font-size="10.00">ios</text>
</g>
<!-- Node39&#45;&gt;Node42 -->
<g id="edge54" class="edge"><title>Node39&#45;&gt;Node42</title>
<path fill="none" stroke="midnightblue" d="M536.914,-272.861C557.827,-263.049 585.919,-249.384 610,-236 610.537,-235.702 611.078,-235.397 611.623,-235.086"/>
<polygon fill="midnightblue" stroke="midnightblue" points="613.653,-237.95 620.438,-229.813 610.06,-231.943 613.653,-237.95"/>
</g>
<!-- Node44&#45;&gt;Node21 -->
<g id="edge65" class="edge"><title>Node44&#45;&gt;Node21</title>
<path fill="none" stroke="midnightblue" d="M1689.76,-136.841C1670.48,-125.579 1643.65,-109.913 1624.55,-98.7572"/>
<polygon fill="midnightblue" stroke="midnightblue" points="1626.26,-95.7031 1615.86,-93.6819 1622.73,-101.748 1626.26,-95.7031"/>
</g>
<!-- Node44&#45;&gt;Node23 -->
<g id="edge68" class="edge"><title>Node44&#45;&gt;Node23</title>
<path fill="none" stroke="midnightblue" d="M1705.54,-136.679C1699.64,-126.694 1691.73,-113.307 1685.44,-102.66"/>
<polygon fill="midnightblue" stroke="midnightblue" points="1688.32,-100.657 1680.22,-93.8283 1682.29,-104.218 1688.32,-100.657"/>
</g>
<!-- Node45 -->
<g id="node45" class="node"><title>Node45</title>
<polygon fill="none" stroke="#bfbfbf" points="1865,-74.5 1865,-93.5 1927,-93.5 1927,-74.5 1865,-74.5"/>
<text text-anchor="middle" x="1896" y="-81.5" font-family="Helvetica,sans-Serif" font-size="10.00">TNamed.h</text>
</g>
<!-- Node44&#45;&gt;Node45 -->
<g id="edge64" class="edge"><title>Node44&#45;&gt;Node45</title>
<path fill="none" stroke="midnightblue" d="M1752.92,-136.968C1781.24,-126.745 1820.51,-112.548 1855,-100 1857.58,-99.0607 1860.25,-98.0867 1862.94,-97.1066"/>
<polygon fill="midnightblue" stroke="midnightblue" points="1864.4,-100.301 1872.59,-93.5817 1862,-93.7259 1864.4,-100.301"/>
</g>
<!-- Node46 -->
<g id="node46" class="node"><title>Node46</title>
<polygon fill="none" stroke="#bfbfbf" points="1724.5,-74.5 1724.5,-93.5 1783.5,-93.5 1783.5,-74.5 1724.5,-74.5"/>
<text text-anchor="middle" x="1754" y="-81.5" font-family="Helvetica,sans-Serif" font-size="10.00">stdexcept</text>
</g>
<!-- Node44&#45;&gt;Node46 -->
<g id="edge66" class="edge"><title>Node44&#45;&gt;Node46</title>
<path fill="none" stroke="midnightblue" d="M1722.68,-136.679C1728.73,-126.694 1736.84,-113.307 1743.3,-102.66"/>
<polygon fill="midnightblue" stroke="midnightblue" points="1746.46,-104.194 1748.65,-93.8283 1740.47,-100.566 1746.46,-104.194"/>
</g>
<!-- Node47 -->
<g id="node47" class="node"><title>Node47</title>
<polygon fill="none" stroke="#bfbfbf" points="1801.5,-74.5 1801.5,-93.5 1846.5,-93.5 1846.5,-74.5 1801.5,-74.5"/>
<text text-anchor="middle" x="1824" y="-81.5" font-family="Helvetica,sans-Serif" font-size="10.00">gsl/gsl</text>
</g>
<!-- Node44&#45;&gt;Node47 -->
<g id="edge67" class="edge"><title>Node44&#45;&gt;Node47</title>
<path fill="none" stroke="midnightblue" d="M1737.6,-136.841C1756.28,-125.63 1782.24,-110.056 1800.82,-98.9096"/>
<polygon fill="midnightblue" stroke="midnightblue" points="1802.76,-101.828 1809.53,-93.6819 1799.15,-95.8257 1802.76,-101.828"/>
</g>
</g>
</svg>
