<?xml version="1.0" encoding="UTF-8" standalone="no"?>
<!DOCTYPE svg PUBLIC "-//W3C//DTD SVG 1.1//EN"
 "http://www.w3.org/Graphics/SVG/1.1/DTD/svg11.dtd">
<!-- Generated by graphviz version 2.36.0 (20140111.2315)
 -->
<!-- Title: o2::memoryResources::SpectatorMessageResource Pages: 1 -->
<svg width="283pt" height="402pt"
 viewBox="0.00 0.00 283.00 402.00" xmlns="http://www.w3.org/2000/svg" xmlns:xlink="http://www.w3.org/1999/xlink">
<g id="graph0" class="graph" transform="scale(1 1) rotate(0) translate(4 398)">
<title>o2::memoryResources::SpectatorMessageResource</title>
<!-- Node1 -->
<g id="node1" class="node"><title>Node1</title>
<polygon fill="#bfbfbf" stroke="black" points="99.5,-0.5 99.5,-145.5 254.5,-145.5 254.5,-0.5 99.5,-0.5"/>
<text text-anchor="start" x="107.5" y="-133.5" font-family="Helvetica,sans-Serif" font-size="10.00">o2::memoryResources</text>
<text text-anchor="middle" x="177" y="-122.5" font-family="Helvetica,sans-Serif" font-size="10.00">::SpectatorMessageResource</text>
<polyline fill="none" stroke="black" points="99.5,-115.5 254.5,-115.5 "/>
<text text-anchor="middle" x="177" y="-103.5" font-family="Helvetica,sans-Serif" font-size="10.00"> </text>
<polyline fill="none" stroke="black" points="99.5,-96.5 254.5,-96.5 "/>
<text text-anchor="start" x="107.5" y="-84.5" font-family="Helvetica,sans-Serif" font-size="10.00">+ SpectatorMessageResource()</text>
<text text-anchor="start" x="107.5" y="-73.5" font-family="Helvetica,sans-Serif" font-size="10.00">+ SpectatorMessageResource()</text>
<text text-anchor="start" x="107.5" y="-62.5" font-family="Helvetica,sans-Serif" font-size="10.00">+ getMessage()</text>
<text text-anchor="start" x="107.5" y="-51.5" font-family="Helvetica,sans-Serif" font-size="10.00">+ getTransportFactory()</text>
<text text-anchor="start" x="107.5" y="-40.5" font-family="Helvetica,sans-Serif" font-size="10.00">+ getNumberOfMessages()</text>
<text text-anchor="start" x="107.5" y="-29.5" font-family="Helvetica,sans-Serif" font-size="10.00"># do_allocate()</text>
<text text-anchor="start" x="107.5" y="-18.5" font-family="Helvetica,sans-Serif" font-size="10.00"># do_deallocate()</text>
<text text-anchor="start" x="107.5" y="-7.5" font-family="Helvetica,sans-Serif" font-size="10.00"># do_is_equal()</text>
</g>
<!-- Node2 -->
<g id="node2" class="node"><title>Node2</title>
<g id="a_node2"><a xlink:href="../../d1/dcc/classo2_1_1memoryResources_1_1FairMQMemoryResource.html" target="_top" xlink:title="All FairMQ related memory resources need to inherit from this interface class for the getMessage() ap...">
<polygon fill="none" stroke="black" points="-0.5,-195 -0.5,-285 134.5,-285 134.5,-195 -0.5,-195"/>
<text text-anchor="start" x="7.5" y="-273" font-family="Helvetica,sans-Serif" font-size="10.00">o2::memoryResources</text>
<text text-anchor="middle" x="67" y="-262" font-family="Helvetica,sans-Serif" font-size="10.00">::FairMQMemoryResource</text>
<polyline fill="none" stroke="black" points="-0.5,-255 134.5,-255 "/>
<text text-anchor="middle" x="67" y="-243" font-family="Helvetica,sans-Serif" font-size="10.00"> </text>
<polyline fill="none" stroke="black" points="-0.5,-236 134.5,-236 "/>
<text text-anchor="start" x="7.5" y="-224" font-family="Helvetica,sans-Serif" font-size="10.00">+ getMessage()</text>
<text text-anchor="start" x="7.5" y="-213" font-family="Helvetica,sans-Serif" font-size="10.00">+ getTransportFactory()</text>
<text text-anchor="start" x="7.5" y="-202" font-family="Helvetica,sans-Serif" font-size="10.00">+ getNumberOfMessages()</text>
</a>
</g>
</g>
<!-- Node2&#45;&gt;Node1 -->
<g id="edge1" class="edge"><title>Node2&#45;&gt;Node1</title>
<path fill="none" stroke="midnightblue" d="M102.029,-186.456C110.659,-173.511 120.048,-159.427 129.17,-145.745"/>
<polygon fill="none" stroke="midnightblue" points="99.1128,-184.521 96.478,-194.783 104.937,-188.404 99.1128,-184.521"/>
</g>
<!-- Node3 -->
<g id="node3" class="node"><title>Node3</title>
<polygon fill="none" stroke="#bfbfbf" points="12.5,-325 12.5,-393 121.5,-393 121.5,-325 12.5,-325"/>
<text text-anchor="start" x="20.5" y="-381" font-family="Helvetica,sans-Serif" font-size="10.00">boost::container::pmr</text>
<text text-anchor="middle" x="67" y="-370" font-family="Helvetica,sans-Serif" font-size="10.00">::memory_resource</text>
<polyline fill="none" stroke="#bfbfbf" points="12.5,-363 121.5,-363 "/>
<text text-anchor="middle" x="67" y="-351" font-family="Helvetica,sans-Serif" font-size="10.00"> </text>
<polyline fill="none" stroke="#bfbfbf" points="12.5,-344 121.5,-344 "/>
<text text-anchor="middle" x="67" y="-332" font-family="Helvetica,sans-Serif" font-size="10.00"> </text>
</g>
<!-- Node3&#45;&gt;Node2 -->
<g id="edge2" class="edge"><title>Node3&#45;&gt;Node2</title>
<path fill="none" stroke="midnightblue" d="M67,-314.65C67,-305.049 67,-294.863 67,-285.227"/>
<polygon fill="none" stroke="midnightblue" points="63.5001,-314.785 67,-324.785 70.5001,-314.785 63.5001,-314.785"/>
</g>
<!-- Node4 -->
<g id="node4" class="node"><title>Node4</title>
<polygon fill="none" stroke="#bfbfbf" points="153,-211.5 153,-268.5 275,-268.5 275,-211.5 153,-211.5"/>
<text text-anchor="middle" x="214" y="-256.5" font-family="Helvetica,sans-Serif" font-size="10.00">const FairMQMessage *</text>
<polyline fill="none" stroke="#bfbfbf" points="153,-249.5 275,-249.5 "/>
<text text-anchor="middle" x="214" y="-237.5" font-family="Helvetica,sans-Serif" font-size="10.00"> </text>
<polyline fill="none" stroke="#bfbfbf" points="153,-230.5 275,-230.5 "/>
<text text-anchor="middle" x="214" y="-218.5" font-family="Helvetica,sans-Serif" font-size="10.00"> </text>
</g>
<!-- Node4&#45;&gt;Node1 -->
<g id="edge3" class="edge"><title>Node4&#45;&gt;Node1</title>
<path fill="none" stroke="#404040" d="M207.807,-211.383C204.452,-196.422 200.109,-177.054 195.748,-157.604"/>
<polygon fill="none" stroke="#404040" points="195.738,-157.559 190.522,-152.58 193.112,-145.85 198.328,-150.83 195.738,-157.559"/>
<text text-anchor="middle" x="223.5" y="-167.5" font-family="Helvetica,sans-Serif" font-size="10.00"> #message</text>
</g>
</g>
</svg>
